OnsetTime	OffsetTime	MidiPitch	Velocity
0.707822	1.08282	63	51
0.707822	1.08282	75	51
1.08282	1.45782	63	51
1.08282	1.45782	75	51
1.45782	1.83282	63	51
1.45782	1.83282	75	51
1.83282	2.21992	87	51
1.83282	2.21992	99	51
2.21992	2.60701	87	51
2.21992	2.60701	99	51
2.60701	3.7868	87	51
2.60701	3.7868	99	51
2.99411	3.35997	63	52
2.99411	3.35997	75	52
3.35997	3.72582	63	52
3.35997	3.72582	75	52
3.72582	5.0673	63	52
3.72582	5.0673	75	52
4.09169	4.45754	87	51
4.09169	4.45754	99	51
4.45754	4.82339	87	51
4.45754	4.82339	99	51
4.82339	5.18925	87	51
4.82339	5.18925	99	51
5.18925	6.18584	63	49
5.18925	6.18584	75	49
5.5551	5.92777	87	50
5.5551	5.92777	99	50
5.92777	6.77288	87	50
5.92777	6.77288	99	50
6.31486	7.95784	63	45
6.31486	7.95784	75	45
6.77288	7.37293	87	41
6.77288	7.37293	99	41
7.37293	8.50501	87	38
7.37293	8.50501	99	38
9.63709	9.86905	75	48
9.79173	9.86905	87	45
9.94636	10.1725	87	56
10.0971	10.1725	99	45
10.2479	10.474	87	52
10.3986	10.474	99	44
10.5494	10.9313	85	52
10.7002	11.0771	56	42
10.7002	10.9313	99	44
10.7755	11.0771	63	44
10.8509	11.0771	71	45
10.8509	11.0771	83	52
11.0017	11.0771	99	45
11.1524	11.3786	83	51
11.3032	11.3786	99	45
11.454	11.8948	82	48
11.6078	11.9878	59	39
11.6078	11.8948	99	45
11.6847	11.9878	68	41
11.7617	11.9878	75	42
11.7617	11.9878	80	52
11.9124	11.9878	99	45
12.0632	12.2893	79	50
12.2139	12.2893	99	42
12.3647	12.8308	80	50
12.5155	12.8924	63	40
12.5155	12.817	99	45
12.5908	12.8924	70	44
12.6662	12.8924	79	46
12.6662	12.8924	82	52
12.817	12.8924	99	45
12.9677	13.1939	75	48
13.1185	13.1939	99	42
13.2693	13.7833	75	48
13.4239	13.7293	87	42
13.5012	13.8047	67	41
13.5785	13.8047	70	44
13.5785	13.8047	76	56
13.7293	13.8047	87	48
13.88	14.1062	75	52
14.0308	14.1062	87	45
14.1816	14.4077	73	52
14.3323	14.4077	87	44
14.4831	14.7092	68	48
14.4831	14.7092	71	52
14.6338	14.7092	87	45
14.7846	15.0107	71	51
14.9354	15.0107	87	45
15.0861	15.4948	70	48
15.24	15.6211	59	40
15.24	15.4948	87	42
15.3169	15.6211	62	41
15.3938	15.6211	65	44
15.3938	15.6211	68	52
15.5453	15.6211	87	45
15.6973	15.9265	67	50
15.85	15.9265	87	42
16.0033	16.433	68	50
16.1573	16.433	87	42
16.2346	16.5487	63	37
16.3119	16.5487	67	39
16.3119	16.5487	70	52
16.4698	16.5487	87	45
16.6277	16.8709	63	48
16.7899	16.8709	75	42
16.952	17.184	75	48
17.1067	17.184	87	42
17.2613	17.4917	87	56
17.4152	17.4917	99	48
17.5682	17.7963	87	52
17.7205	17.7963	99	46
17.872	18.3909	85	52
18.0228	18.3997	56	41
18.0228	18.3243	99	45
18.0982	18.3997	63	42
18.1735	18.3997	71	45
18.1735	18.3997	83	52
18.3243	18.3997	99	46
18.4751	18.7012	83	51
18.6258	18.7012	99	44
18.7766	19.3166	82	48
18.9304	19.3166	59	41
18.9304	19.2358	99	44
19.0074	19.3166	68	42
19.0843	19.3166	75	46
19.0843	19.3166	80	52
19.2358	19.3166	99	45
19.3873	19.6146	79	50
19.5388	19.6146	99	44
19.6904	20.2131	80	50
19.8419	20.2207	63	40
19.8419	20.1449	99	45
19.9176	20.2207	70	44
19.9934	20.2207	79	46
19.9934	20.2207	82	52
20.1449	20.2207	99	45
20.2964	20.5237	75	48
20.448	20.5237	99	44
20.5995	21.1306	75	48
20.7565	21.0659	87	45
20.8351	21.142	67	42
20.9136	21.142	70	44
20.9136	21.142	76	56
21.0659	21.142	87	50
21.2182	21.4466	75	52
21.3705	21.4466	87	48
21.5228	21.7536	73	52
21.5228	21.7536	75	44
21.6751	21.7536	87	45
21.8321	22.0583	68	39
21.8321	22.0583	71	44
21.8321	21.9452	75	52
21.9829	22.0583	87	44
22.1336	22.209	80	44
22.2844	22.3598	83	44
22.4352	22.5482	87	52
22.5859	22.6636	99	46
22.7414	22.9698	63	34
22.7414	22.9698	67	34
22.7414	22.9698	73	38
22.7414	22.8556	75	52
22.8936	22.9698	87	44
23.0459	23.1221	79	44
23.1982	23.2744	82	44
23.3505	23.4647	87	52
23.5028	23.579	99	51
23.6551	24.2584	56	45
23.8074	24.2584	63	39
23.9602	24.2584	71	39
24.1135	24.2584	80	39
24.2674	24.4994	75	46
24.4221	24.4994	87	42
24.5767	24.8071	99	56
24.7306	24.8071	87	45
24.8836	25.1117	99	52
25.0359	25.1117	87	44
25.1874	25.4136	99	52
25.3382	25.401	85	44
25.4136	25.489	85	44
25.489	26.0304	44	44
25.489	25.7905	83	60
25.6397	25.9412	99	48
25.7905	26.0304	51	38
25.7905	26.0304	59	42
25.7905	26.0304	83	51
25.9412	26.0304	99	45
26.092	26.3228	82	48
26.2458	26.3228	99	45
26.3228	26.9097	82	55
26.3997	26.9097	47	44
26.3997	26.9097	80	55
26.5504	26.852	99	46
26.7012	26.9273	56	38
26.7012	26.9273	63	42
26.7012	26.9273	79	50
26.852	26.9273	99	45
27.0027	27.2289	80	50
27.1535	27.2289	99	45
27.2289	27.2665	79	53
27.2665	27.8269	80	55
27.3042	27.8269	51	44
27.3042	27.8269	82	56
27.455	27.7565	99	44
27.6057	27.8319	58	38
27.6057	27.8319	67	42
27.6057	27.8319	75	48
27.7565	27.8319	99	44
27.9073	28.1392	75	48
28.0619	28.1392	87	45
28.1392	28.7932	78	52
28.2165	28.5181	67	37
28.2165	28.5181	70	41
28.2165	28.7932	76	53
28.3673	28.6688	87	46
28.5181	28.7932	67	37
28.5181	28.7932	70	41
28.5181	28.7932	75	52
28.6688	28.7932	87	45
28.8196	29.0457	73	52
28.9703	29.0457	87	44
29.0457	29.6487	73	56
29.1211	29.4226	68	45
29.1211	29.4226	71	56
29.2718	29.5734	87	45
29.4226	29.6487	68	45
29.4226	29.6487	71	51
29.5734	29.6487	87	45
29.7241	29.9549	70	48
29.878	29.9549	87	45
29.9549	30.5427	70	56
30.0318	30.3353	59	36
30.0318	30.3353	62	36
30.0318	30.3353	65	40
30.0318	30.5427	68	56
30.1833	30.4892	87	45
30.3353	30.5657	59	36
30.3353	30.5657	62	36
30.3353	30.5657	65	40
30.3353	30.5657	67	50
30.4892	30.5657	87	45
30.6425	30.8738	68	50
30.7965	30.8738	87	45
30.9511	31.1879	51	35
30.9511	31.1879	67	39
30.9511	31.1879	70	52
31.109	31.1879	87	44
31.2669	31.5101	63	48
31.429	31.5101	75	44
31.5912	31.8232	75	48
31.7459	31.8232	87	45
31.9004	32.1298	87	56
32.0534	32.1298	99	50
32.206	32.4338	87	52
32.358	32.4338	99	48
32.5095	32.7357	85	52
32.6603	32.7357	99	44
32.7357	33.4053	85	60
32.811	33.4053	44	44
32.811	33.1126	83	60
32.9618	33.2633	99	50
33.1126	33.4053	51	37
33.1126	33.4053	59	41
33.1126	33.4053	83	51
33.2633	33.4053	99	45
33.4141	33.6449	82	50
33.5679	33.6449	99	45
33.6449	34.2786	82	52
33.7218	34.2786	47	44
33.7218	34.2786	80	57
33.8733	34.1763	99	45
34.0248	34.2786	56	37
34.0248	34.2786	63	41
34.0248	34.2786	79	50
34.1763	34.2786	99	45
34.3279	34.5551	80	50
34.4794	34.5551	99	45
34.5551	34.593	79	58
34.593	35.2319	80	60
34.6309	35.2319	51	44
34.6309	35.2319	82	62
34.7824	35.0854	99	44
34.9339	35.2319	58	37
34.9339	35.2319	67	41
34.9339	35.2319	75	48
35.0854	35.2319	99	44
35.237	35.4726	75	48
35.394	35.4726	87	45
35.4726	35.5511	78	52
35.5511	35.7795	61	35
35.5511	35.7795	68	35
35.5511	35.7795	70	39
35.5511	35.7795	76	56
35.7034	35.7795	92	49
35.8557	36.0841	63	35
35.8557	36.0841	68	35
35.8557	36.0841	70	39
35.8557	36.0841	75	52
36.008	36.0841	92	49
36.1603	36.3911	64	35
36.1603	36.3911	68	35
36.1603	36.3911	70	39
36.1603	36.3911	73	52
36.1603	36.3911	75	44
36.3125	36.3911	92	49
36.4696	36.6969	63	39
36.4696	36.6969	68	39
36.4696	36.6969	71	44
36.4696	36.5832	75	52
36.6211	36.6969	87	44
36.7726	36.8484	80	44
36.9241	36.9999	83	44
37.0757	37.1893	87	52
37.2272	37.3049	99	46
37.3826	37.611	51	34
37.3826	37.611	61	34
37.3826	37.611	67	38
37.3826	37.4968	75	52
37.5349	37.611	87	44
37.6872	37.7633	79	44
37.8395	37.9156	82	44
37.9918	38.106	87	52
38.1441	38.2222	99	50
38.3003	39.5241	44	50
38.4526	39.5241	59	45
38.6049	39.5241	63	45
38.7571	39.5241	68	42
38.9094	39.5241	75	42
39.0617	39.5241	80	41
39.214	39.5241	83	39
39.3682	39.5241	87	39
39.5241	39.6419	92	38
40.7807	41.0053	71	50
40.9304	41.0427	67	40
40.9304	41.0427	70	46
41.0801	41.3047	71	53
41.2299	41.3422	66	44
41.2299	41.3422	69	49
41.3796	41.603	71	56
41.529	41.6399	65	46
41.529	41.6399	68	51
41.6767	41.8953	71	60
41.8255	41.9302	64	48
41.8255	41.9302	67	53
41.9651	42.0342	73	60
42.0342	42.1034	71	60
42.1034	42.1725	70	60
42.1725	42.2416	71	60
42.2416	42.4544	59	35
42.2416	42.4544	63	39
42.2416	42.3483	66	68
42.3839	42.4896	90	60
42.5248	42.7376	54	35
42.5248	42.7376	59	35
42.5248	42.7376	63	39
42.5248	42.6305	71	69
42.6657	42.7735	90	61
42.8094	42.8785	75	63
42.8785	42.9476	73	63
42.9476	43.0167	72	63
43.0167	43.0859	73	63
43.0859	43.2986	58	36
43.0859	43.2986	64	40
43.0859	43.1926	66	70
43.2282	43.3339	90	68
43.3691	43.5815	54	36
43.3691	43.5815	64	36
43.3691	43.5815	66	40
43.3691	43.4748	73	70
43.51	43.6172	90	68
43.653	43.7221	76	61
43.7221	43.7912	75	61
43.7912	43.8603	74	61
43.8603	43.9294	75	61
43.9294	44.2113	59	39
43.9294	44.2113	63	39
43.9294	44.0351	71	68
44.0704	44.176	90	66
44.2113	44.4256	75	50
44.3541	44.4613	71	40
44.3541	44.4613	74	46
44.497	44.7113	75	53
44.6398	44.747	70	44
44.6398	44.747	73	49
44.7827	44.997	75	56
44.9255	45.0327	69	46
44.9255	45.0327	72	51
45.0684	45.281	75	60
45.2113	45.3159	68	48
45.2113	45.3159	71	53
45.3508	45.4193	77	60
45.4193	45.4878	75	60
45.4878	45.5562	74	60
45.5562	45.6247	75	60
45.6247	45.835	63	35
45.6247	45.835	66	39
45.6247	45.7304	70	68
45.7656	45.8698	94	66
45.9045	46.1145	58	35
45.9045	46.1145	66	35
45.9045	46.1145	70	39
45.9045	46.0086	75	69
46.0434	46.1501	94	66
46.1857	46.2541	78	63
46.2541	46.3226	77	63
46.3226	46.3911	76	63
46.3911	46.4595	77	63
46.4595	46.6699	62	36
46.4595	46.6699	68	40
46.4595	46.5652	70	70
46.6004	46.7046	94	67
46.7393	46.9487	58	36
46.7393	46.9487	68	36
46.7393	46.9487	70	40
46.7393	46.8435	77	69
46.8782	46.9839	94	67
47.0192	47.0876	80	61
47.0876	47.1561	78	61
47.1561	47.2246	77	61
47.2246	47.293	78	61
47.293	47.5749	63	35
47.293	47.5749	66	39
47.293	47.3987	75	68
47.4339	47.5396	94	66
47.5749	47.7881	78	50
47.717	47.8237	74	40
47.717	47.8237	77	46
47.8592	48.0725	78	53
48.0014	48.108	73	44
48.0014	48.108	76	49
48.1436	48.3568	78	56
48.2857	48.3924	72	46
48.2857	48.3924	75	51
48.4279	48.6399	78	60
48.5701	48.6748	71	48
48.5701	48.6748	74	53
48.7097	48.7781	80	60
48.7781	48.8466	78	60
48.8466	48.9151	77	60
48.9151	48.9835	78	60
48.9835	49.1939	66	35
48.9835	49.1939	70	39
48.9835	49.0892	73	68
49.1244	49.2286	97	72
49.2633	49.4727	61	39
49.2633	49.4727	70	35
49.2633	49.4727	73	39
49.2633	49.3675	78	69
49.4022	49.508	97	72
49.5432	49.6117	82	63
49.6117	49.6801	80	63
49.6801	49.7486	79	63
49.7486	49.817	80	63
49.817	50.0274	65	36
49.817	50.0274	71	40
49.817	49.9227	73	70
49.958	50.0621	97	72
50.0968	50.31	61	36
50.0968	50.31	71	36
50.0968	50.31	73	40
50.0968	50.201	80	69
50.2357	50.347	97	72
50.3836	50.4917	78	52
50.3836	50.4917	82	53
50.5278	50.6403	80	52
50.5278	50.6403	83	53
50.6028	50.9663	66	53
50.6778	50.9663	82	53
50.6778	50.9663	85	56
50.822	50.9663	94	62
50.822	50.9663	97	62
50.9663	51.0744	80	52
50.9663	51.0744	83	53
51.1105	51.2187	78	52
51.1105	51.2187	82	53
51.2547	51.3629	71	52
51.2547	51.3629	80	53
51.399	51.5093	73	52
51.399	51.5093	82	53
51.4725	51.8345	59	55
51.546	51.8345	75	55
51.546	51.8345	83	56
51.6903	51.8345	87	56
51.6903	51.8345	95	62
51.8345	51.9427	73	52
51.8345	51.9427	82	53
51.9787	52.0869	71	52
51.9787	52.0869	80	53
52.123	52.2311	70	52
52.123	52.2311	78	53
52.2672	52.378	71	52
52.2672	52.378	80	53
52.3411	52.7035	61	55
52.415	52.7035	73	55
52.415	52.7035	82	56
52.5592	52.7035	85	53
52.5592	52.7035	94	60
52.7035	52.8116	71	52
52.7035	52.8116	80	53
52.8477	52.9559	70	52
52.8477	52.9559	78	53
52.9919	53.1001	68	52
52.9919	53.1001	77	53
53.1362	53.2476	70	52
53.1362	53.2476	78	53
53.2104	53.5732	61	53
53.2847	53.5732	71	53
53.2847	53.5732	80	56
53.4289	53.5732	83	50
53.4289	53.5732	92	57
53.5732	53.6813	66	53
53.5732	53.6813	75	53
53.7174	53.8288	68	53
53.7174	53.8288	77	53
53.8659	54.0823	58	49
53.8659	54.0823	70	55
53.8659	54.0823	78	56
54.0102	54.1544	82	45
54.0102	54.1544	90	50
54.1544	54.2636	66	57
54.3	54.4092	78	57
54.4456	54.5549	67	64
54.5913	54.7005	79	64
54.7369	54.8451	68	68
54.8811	54.9893	80	68
55.0254	55.2417	64	48
55.0254	55.2417	68	53
55.0254	55.2417	92	73
55.1696	55.3138	80	63
55.3138	55.5302	63	48
55.3138	55.5302	68	53
55.3138	55.5302	92	73
55.4581	55.6023	78	62
55.6023	55.8204	61	51
55.6023	55.8204	68	58
55.6023	55.8204	92	75
55.7465	55.8943	76	61
55.8943	56.1107	75	53
55.8943	56.1107	102	78
56.0386	56.1828	80	62
56.1828	56.3991	73	53
56.1828	56.3991	100	78
56.327	56.4712	80	62
56.4712	56.7597	56	50
56.4712	56.6876	72	57
56.4712	56.6876	99	78
56.6155	56.7597	80	62
56.7597	56.976	70	53
56.7597	56.976	97	78
56.9039	57.0482	80	62
57.0482	57.267	72	53
57.0482	57.267	99	78
57.1924	57.3417	80	61
57.3417	57.6301	61	50
57.3417	57.558	73	57
57.3417	57.558	100	82
57.4859	57.6301	80	61
57.6301	57.8465	76	53
57.6301	57.8465	97	77
57.7744	57.9186	80	62
57.9186	58.03	67	64
58.0671	58.1785	79	64
58.2156	58.3223	66	68
58.3578	58.4644	78	68
58.5	58.7132	63	48
58.5	58.7132	66	53
58.5	58.7132	90	73
58.6422	58.7843	78	63
58.7843	58.9976	61	48
58.7843	58.9976	66	53
58.7843	58.9976	90	73
58.9265	59.0687	76	62
59.0687	59.2848	59	51
59.0687	59.2848	66	58
59.0687	59.2848	90	75
59.2109	59.3587	75	61
59.3587	59.569	73	53
59.3587	59.569	100	78
59.4989	59.6391	78	62
59.6391	59.8493	71	53
59.6391	59.8493	99	78
59.7792	59.9194	78	62
59.9194	60.2038	54	50
59.9194	60.1327	70	57
59.9194	60.1327	97	78
60.0616	60.2038	78	62
60.2038	60.4171	68	53
60.2038	60.4171	95	78
60.346	60.4882	78	62
60.4882	60.705	70	53
60.4882	60.705	97	78
60.6304	60.7796	78	61
60.7796	61.0681	59	50
60.7796	60.996	71	57
60.7796	60.996	99	82
60.9239	61.0681	78	61
61.0681	61.2844	75	53
61.0681	61.2844	95	77
61.2123	61.3566	78	62
61.3566	61.4632	62	64
61.4987	61.6054	74	58
61.6409	61.7465	63	74
61.7817	61.8874	75	68
61.9226	62.1369	55	51
61.9226	62.1369	63	58
61.9226	62.0297	87	68
62.0655	62.1726	75	58
62.2083	62.4216	56	51
62.2083	62.4216	65	58
62.2083	62.3149	87	67
62.3505	62.4571	74	61
62.4927	62.7049	58	58
62.4927	62.7049	67	64
62.4927	62.5988	87	68
62.6342	62.7403	73	62
62.7757	62.987	58	59
62.7757	62.987	67	66
62.7757	62.8813	87	67
62.9165	63.0574	73	64
63.0574	63.2706	59	59
63.0574	63.2706	68	66
63.0574	63.164	87	68
63.1996	63.3062	71	72
63.3417	63.55	61	58
63.3417	63.55	70	64
63.3417	63.4459	76	61
63.3417	63.4459	88	82
63.4806	63.5848	82	60
63.4806	63.5848	87	80
63.6195	63.7237	73	58
63.6195	63.7237	85	79
63.7584	63.8625	76	57
63.7584	63.8625	83	78
63.8973	64.1053	62	51
63.8973	64.1053	65	58
63.8973	64.0014	71	57
63.8973	64.0014	82	78
64.0361	64.1398	77	57
64.0361	64.1398	80	77
64.1738	64.3831	63	56
64.1738	64.3831	67	62
64.1738	64.2784	70	57
64.1738	64.2784	79	77
64.3133	64.4179	75	53
64.3133	64.4179	82	73
64.4528	64.5556	79	51
64.4528	64.5556	83	69
64.5898	64.6965	75	48
64.5898	64.6965	82	64
64.732	64.8376	74	64
64.8728	64.9785	86	58
65.0137	65.1193	75	74
65.1546	65.2602	87	68
65.2954	65.5097	67	46
65.2954	65.5097	75	51
65.2954	65.4026	99	67
65.4383	65.5454	87	56
65.5809	65.7939	68	46
65.5809	65.7939	77	51
65.5809	65.6875	99	63
65.7231	65.8293	86	58
65.8647	66.0764	70	50
65.8647	66.0764	79	57
65.8647	65.9708	99	64
66.006	66.1116	85	61
66.1468	66.3572	70	51
66.1468	66.3572	79	58
66.1468	66.2521	99	68
66.2871	66.4273	85	62
66.4273	66.6416	71	51
66.4273	66.6416	80	58
66.4273	66.5345	99	68
66.5702	66.6773	83	70
66.713	66.9214	73	50
66.713	66.9214	81	57
66.713	66.8172	88	53
66.713	66.8172	100	74
66.8519	66.9561	93	53
66.8519	66.9561	99	72
66.9908	67.095	85	52
66.9908	67.095	97	70
67.1297	67.2339	88	51
67.1297	67.2339	95	69
67.2686	67.4769	74	47
67.2686	67.4769	77	52
67.2686	67.3727	83	51
67.2686	67.3727	93	69
67.4075	67.5116	89	51
67.4075	67.5116	92	68
67.5464	67.7576	75	47
67.5464	67.7576	79	52
67.5464	67.652	82	51
67.5464	67.652	91	70
67.6872	67.7929	87	50
67.6872	67.7929	94	64
67.8281	67.9322	74	64
67.967	68.0711	86	58
68.1058	68.21	75	58
68.2447	68.3489	87	58
68.3836	68.4878	99	67
68.5225	68.6267	87	62
68.6614	68.7655	75	63
68.8003	68.9044	87	57
68.9391	69.0433	76	64
69.078	69.1822	88	60
69.2169	69.3211	99	68
69.3558	69.46	87	63
69.4947	69.5988	76	66
69.6336	69.7377	88	61
69.7725	69.8762	77	69
69.9108	70.0145	89	64
70.049	70.1524	99	72
70.1868	70.29	87	64
70.3244	70.4272	78	68
70.4615	70.5642	90	63
70.5985	70.7008	99	75
70.7349	70.8372	87	69
70.8713	70.9732	79	72
71.0071	71.1089	91	67
71.1429	71.2443	99	78
71.2781	71.3795	87	69
71.4132	71.5142	80	78
71.5479	71.6488	92	73
71.6824	71.7829	99	79
71.8164	71.9169	81	79
71.9504	72.0505	99	80
72.0838	72.1838	82	81
72.2172	72.3168	99	81
72.35	72.4496	83	82
72.4828	72.5819	99	84
72.6149	72.714	84	84
72.7471	72.8462	99	85
72.8793	72.9784	85	86
73.0114	73.1105	99	88
73.1436	73.2427	86	88
73.2758	73.3749	99	89
73.4079	73.507	87	90
73.5401	73.6392	99	90
73.6723	73.7714	87	91
73.8044	73.9035	99	92
73.9366	74.0357	87	90
74.0688	74.1679	99	91
74.2009	74.3	87	88
74.3331	74.4322	99	91
74.4653	74.5644	87	85
74.5974	74.6965	99	80
74.7296	74.8287	87	68
74.8617	74.9609	99	69
74.9939	75.0976	87	68
75.1322	75.6728	75	66
75.2661	75.534	87	68
75.4	75.9407	99	68
75.534	75.8068	87	68
75.6728	76.1484	75	66
75.8068	76.0746	87	62
75.9407	76.1484	99	62
76.0746	76.1783	87	62
76.2129	77.2108	63	55
76.2129	76.4794	75	68
76.346	76.6127	87	62
76.4794	76.7461	75	61
76.4794	77.0117	99	53
76.6127	76.8789	87	53
76.7461	77.2108	75	62
76.8789	77.1444	87	53
77.0117	78.7589	73	57
77.0117	77.2108	99	53
77.1444	77.244	87	53
77.2772	78.7589	56	47
77.2772	77.5415	71	60
77.2772	77.8058	75	53
77.4093	77.6737	87	53
77.5415	78.7589	71	56
77.5415	78.0749	99	53
77.6737	77.9404	87	55
77.8058	78.7589	70	57
77.8058	78.3392	75	57
77.9404	78.2071	87	57
78.0749	78.7589	59	42
78.0749	78.6036	68	60
78.0749	78.6036	99	60
78.2071	78.4714	87	60
78.3392	78.7589	67	60
78.3392	78.7589	75	61
78.4714	78.7357	87	62
78.6036	80.362	68	64
78.6036	78.7589	99	64
78.7357	78.8349	87	64
78.8018	80.362	67	50
78.8679	80.362	70	69
78.8679	79.4013	75	67
79.0012	79.2679	87	67
79.1346	79.4013	63	60
79.1346	79.6703	99	67
79.2679	79.5358	87	66
79.4013	79.9347	63	60
79.4013	79.9347	75	66
79.5358	79.8025	87	64
79.6703	80.362	55	49
79.6703	80.362	64	63
79.6703	80.199	99	64
79.8025	80.0668	87	64
79.9347	80.362	63	58
79.9347	80.362	75	63
80.0668	80.3312	87	63
80.199	81.9308	61	58
80.199	80.362	99	61
80.3312	80.4303	87	61
80.4633	81.2563	56	49
80.4633	80.7277	59	61
80.4633	80.992	75	61
80.5955	80.8598	87	61
80.7277	81.9308	59	56
80.7277	81.2563	99	61
80.8598	81.1241	87	58
80.992	81.9308	58	55
80.992	81.5161	75	58
81.1241	81.3862	87	57
81.1902	81.9308	52	51
81.2563	81.7741	56	61
81.2563	81.7741	99	53
81.3862	81.6459	87	53
81.5161	81.9308	55	56
81.5161	81.9308	75	52
81.6459	81.9075	87	51
81.7741	83.5755	56	53
81.7741	81.9308	99	50
81.9075	82.0075	87	49
82.0408	83.5755	55	45
82.0408	83.5755	58	56
82.0408	82.5695	75	53
82.173	82.4373	87	53
82.3052	83.5755	51	50
82.3052	82.8539	99	53
82.4373	82.7017	87	53
82.5695	82.8539	75	53
82.7017	82.9855	87	53
82.7718	83.5755	63	64
82.8539	83.117	75	63
82.8539	83.379	99	53
82.9855	83.248	87	53
83.117	83.5755	75	62
83.248	83.51	87	53
83.379	85.1227	73	57
83.379	83.5755	99	53
83.51	83.6083	87	53
83.629	85.1227	56	47
83.629	83.8932	71	60
83.629	84.1576	75	53
83.7611	84.0254	87	53
83.8932	85.1227	71	56
83.8932	84.4264	99	53
84.0254	84.3042	87	55
84.1576	85.1227	70	57
84.1576	84.6909	75	57
84.3042	84.5588	87	57
84.4264	85.1227	59	42
84.4264	84.9553	68	60
84.4264	84.9553	99	60
84.5588	84.8231	87	60
84.6909	85.1227	67	60
84.6909	85.1227	75	61
84.8231	85.0874	87	62
84.9553	85.2196	68	64
84.9553	85.1227	99	64
85.0874	85.1866	87	64
85.2196	85.9624	67	45
85.2196	85.9624	70	69
85.2196	85.7529	75	67
85.3528	85.6195	87	67
85.4862	85.9624	63	60
85.4862	85.9624	99	67
85.6195	85.8873	87	66
85.7529	85.9624	75	66
85.8873	85.9882	87	64
86.0218	86.2864	61	51
86.0218	86.2864	68	45
86.0218	86.2864	70	50
86.0218	86.2864	76	60
86.1542	86.2864	87	60
86.2864	86.5507	63	49
86.2864	86.5507	68	42
86.2864	86.5507	70	48
86.2864	86.5507	75	56
86.4185	86.5507	87	56
86.5507	86.8186	64	49
86.5507	86.8186	68	42
86.5507	86.8186	70	48
86.5507	86.8186	73	56
86.6828	86.8186	87	56
86.8186	87.0852	63	49
86.8186	87.0852	68	49
86.8186	87.0852	71	56
86.8186	87.0852	75	66
86.9519	87.0852	87	60
87.0852	87.1852	80	60
87.2186	87.3173	83	60
87.3501	87.6136	87	67
87.4773	87.6136	99	60
87.6136	87.8827	63	47
87.6136	87.8827	67	47
87.6136	87.8827	73	52
87.6136	87.8827	75	66
87.7482	87.8827	87	60
87.8827	87.9836	79	60
88.0172	88.1181	82	60
88.1517	89.0814	87	67
88.2822	89.2168	99	60
88.4257	89.2168	56	58
88.5697	89.2168	63	53
88.7119	89.2168	71	53
88.8521	89.2168	80	53
88.9903	89.2168	75	55
89.0814	89.1713	87	55
89.1713	89.2603	87	55
89.2603	89.3504	87	58
89.3504	89.4405	87	58
89.4405	89.5303	99	58
89.5303	89.62	87	58
89.62	89.7095	87	58
89.7095	89.7988	99	58
89.7988	89.888	85	58
89.888	89.9769	85	58
89.9769	90.7834	97	58
90.0657	90.7834	44	61
90.0657	90.1542	83	61
90.1542	90.3312	83	61
90.2427	90.5082	95	61
90.3312	90.5967	51	49
90.3312	90.5967	59	56
90.3312	90.4197	83	60
90.4197	90.7834	83	60
90.5082	90.7834	95	60
90.5967	91.5968	51	49
90.5967	91.5968	59	56
90.5967	90.6841	82	58
90.6841	90.7834	82	58
90.7714	91.5968	94	58
90.8587	91.5968	47	61
90.8587	90.9472	80	60
90.9472	91.3874	80	60
91.0357	91.5628	92	60
91.1242	91.3874	56	49
91.1242	91.3874	63	56
91.1242	91.212	79	58
91.212	91.5968	79	58
91.2997	91.5968	91	58
91.3874	92.3098	56	49
91.3874	92.3098	63	56
91.3874	91.4751	80	58
91.4751	91.5968	80	58
91.5628	92.3098	92	58
91.6506	92.3098	51	61
91.6506	91.7402	82	60
91.7402	92.3098	82	60
91.8299	92.3098	94	60
91.9196	92.1886	58	48
91.9196	92.1886	67	53
91.9196	92.0093	75	56
92.0093	92.1886	75	56
92.099	92.3098	87	53
92.1886	93.1699	58	48
92.1886	93.1699	67	53
92.1886	92.2775	75	53
92.2775	92.3664	75	53
92.3664	92.8978	87	53
92.4553	93.1699	55	56
92.4553	92.5438	76	56
92.5438	93.1699	76	56
92.6323	93.1699	88	56
92.7208	92.9863	63	45
92.7208	92.9863	70	50
92.7208	92.8093	75	53
92.8093	93.1699	75	53
92.8978	93.1699	87	53
92.9863	93.5173	63	45
92.9863	93.7828	70	50
92.9863	93.0748	73	53
93.0748	93.1699	73	53
93.1633	93.9415	85	53
93.2518	93.9415	56	53
93.2518	93.3403	71	56
93.3403	93.5173	71	56
93.4288	93.6943	83	56
93.5173	93.7828	63	44
93.5173	93.7828	68	49
93.5173	93.6058	71	53
93.6058	93.9415	71	53
93.6943	93.9415	83	53
93.7828	94.7833	63	44
93.7828	94.0507	68	49
93.7828	93.8713	70	53
93.8713	93.9606	70	53
93.9606	94.7833	82	53
94.0507	94.7833	59	55
94.0507	94.1392	68	55
94.1392	94.5794	68	55
94.2277	94.7548	80	55
94.3162	94.5794	62	40
94.3162	94.5794	65	46
94.3162	94.4039	67	53
94.4039	94.7833	67	53
94.4916	94.7833	79	53
94.5794	95.3379	62	40
94.5794	95.3379	65	46
94.5794	94.6671	68	53
94.6671	94.7833	68	53
94.7548	95.3379	80	53
94.8425	95.3379	51	52
94.8425	94.933	70	56
94.933	95.3379	70	56
95.0235	95.3379	82	56
95.1139	95.3857	58	38
95.1139	95.2041	63	53
95.1139	95.3857	67	42
95.2041	95.3379	63	53
95.2947	95.3857	75	48
95.3857	95.4771	75	50
95.4771	95.569	75	50
95.569	95.662	75	50
95.662	95.762	87	58
95.762	95.862	87	58
95.862	95.962	99	58
95.962	96.0529	87	58
96.0529	96.1434	87	58
96.1434	96.2335	99	58
96.2335	96.3232	85	58
96.3232	96.4125	85	58
96.4125	97.219	97	58
96.5013	97.219	44	61
96.5013	96.5898	83	61
96.5898	96.7668	83	61
96.6783	96.9438	95	61
96.7668	97.0323	51	49
96.7668	97.0323	59	56
96.7668	96.8553	83	60
96.8553	97.219	83	60
96.9438	97.219	95	60
97.0323	98.0324	51	49
97.0323	98.0324	59	56
97.0323	97.1196	82	58
97.1196	97.219	82	58
97.207	98.0324	94	58
97.2943	98.0324	47	61
97.2943	97.3828	80	60
97.3828	97.8229	80	60
97.4713	97.9984	92	60
97.5598	97.8229	56	49
97.5598	97.8229	63	56
97.5598	97.6475	79	58
97.6475	98.0324	79	58
97.7352	98.0324	91	58
97.8229	98.7448	56	49
97.8229	98.7448	63	56
97.8229	97.9107	80	58
97.9107	98.0324	80	58
97.9984	98.7448	92	58
98.0861	98.7448	51	61
98.0861	98.1758	82	60
98.1758	98.7448	82	60
98.2655	98.7448	94	60
98.3552	98.7448	58	39
98.3552	98.6242	67	44
98.3552	98.4448	75	56
98.4448	98.6242	75	56
98.5345	98.7448	87	53
98.6242	98.8233	67	40
98.6242	98.8233	70	46
98.6242	98.7127	75	55
98.7127	98.8012	75	55
98.8012	98.8897	87	55
98.8897	99.0924	68	42
98.8897	99.0924	71	48
98.8897	98.9798	76	58
98.9798	99.0699	76	58
99.0699	99.16	88	58
99.16	99.3627	66	39
99.16	99.3627	70	45
99.16	99.2501	75	56
99.2501	99.3402	75	56
99.3402	99.4303	87	56
99.4303	99.6302	64	39
99.4303	99.6302	68	44
99.4303	99.5191	73	53
99.5191	99.608	73	53
99.608	99.6968	85	53
99.6968	99.9588	63	46
99.6968	99.9588	68	46
99.6968	99.9588	71	51
99.6968	99.7842	75	52
99.7842	99.8715	75	52
99.8715	99.9588	87	53
99.9588	100.046	76	53
100.046	100.133	76	55
100.133	100.22	87	55
100.22	100.307	77	56
100.307	100.394	77	56
100.394	100.481	87	57
100.481	100.568	78	57
100.568	100.654	78	58
100.654	100.741	87	58
100.741	100.827	79	60
100.827	100.914	79	60
100.914	101.0	87	61
101.0	101.086	80	62
101.086	101.172	80	62
101.172	101.259	87	63
101.259	101.516	51	49
101.259	101.516	61	49
101.259	101.516	67	56
101.259	101.345	81	63
101.345	101.43	81	62
101.43	101.516	87	62
101.516	101.602	82	62
101.602	101.688	82	62
101.688	101.774	87	62
101.774	101.859	83	62
101.859	101.945	83	62
101.945	102.031	87	62
102.031	102.117	84	61
102.117	102.203	84	61
102.203	102.289	87	60
102.289	102.374	85	58
102.374	102.46	85	58
102.46	102.546	87	57
102.546	102.632	86	56
102.632	102.718	86	56
102.718	102.804	87	55
102.804	103.062	44	38
102.804	103.062	51	38
102.804	103.062	59	38
102.804	103.062	68	42
102.804	102.889	87	53
102.889	102.976	87	53
102.976	103.062	99	52
103.062	103.149	88	51
103.149	103.236	88	51
103.236	103.324	99	50
103.324	103.412	89	49
103.412	103.5	89	49
103.5	103.588	99	48
103.588	103.677	90	46
103.677	103.766	90	46
103.766	103.855	99	45
103.855	103.944	91	44
103.944	104.034	91	44
104.034	104.124	99	42
104.124	104.214	92	41
104.214	104.305	92	41
104.305	104.396	99	40
105.266	105.412	68	46
105.266	105.558	71	46
105.412	105.558	67	48
105.412	105.558	70	48
105.558	105.667	66	49
105.558	105.667	69	49
105.558	105.667	71	42
105.703	105.812	65	50
105.703	105.812	68	50
105.703	105.812	71	44
105.848	105.956	64	51
105.848	105.956	67	51
105.848	105.956	71	45
105.992	106.1	63	52
105.992	106.1	66	52
105.992	106.1	71	46
106.136	106.244	62	53
106.136	106.244	65	53
106.136	106.244	71	48
106.279	106.391	61	55
106.279	106.391	64	55
106.279	106.391	71	49
106.429	106.507	73	64
106.507	106.584	71	56
106.584	106.662	70	56
106.662	106.74	71	56
106.74	106.973	59	49
106.74	106.973	63	55
106.74	107.051	66	60
106.817	106.895	78	56
106.895	106.973	78	56
106.973	107.051	78	56
107.051	107.284	54	49
107.051	107.284	63	49
107.051	107.284	66	55
107.051	107.361	71	60
107.128	107.206	83	56
107.206	107.284	83	56
107.284	107.361	83	56
107.361	107.672	73	60
107.439	107.517	85	57
107.517	107.595	85	57
107.595	107.672	85	57
107.672	107.905	58	47
107.672	107.905	64	52
107.672	107.983	78	60
107.75	107.828	90	57
107.828	107.905	90	57
107.905	107.983	90	57
107.983	108.201	54	47
107.983	108.201	58	47
107.983	108.201	66	52
107.983	108.273	85	61
108.08	108.176	90	58
108.08	108.176	97	58
108.176	108.273	90	60
108.176	108.273	97	60
108.273	108.497	47	56
108.273	108.572	87	63
108.373	108.472	90	61
108.373	108.472	99	61
108.472	108.572	90	61
108.472	108.572	99	61
108.572	108.726	54	46
108.572	108.726	63	51
108.572	108.726	83	60
108.907	109.189	71	46
108.907	109.189	75	46
109.048	109.189	74	48
109.189	109.295	70	49
109.189	109.295	73	49
109.189	109.295	75	42
109.33	109.435	69	50
109.33	109.435	72	50
109.33	109.435	75	44
109.47	109.575	68	51
109.47	109.575	71	51
109.47	109.575	75	45
109.61	109.714	67	52
109.61	109.714	70	52
109.61	109.714	75	46
109.749	109.853	66	53
109.749	109.853	69	53
109.749	109.853	75	48
109.888	109.997	65	55
109.888	109.997	68	55
109.888	109.997	75	49
110.032	110.11	77	63
110.11	110.187	75	56
110.187	110.265	74	56
110.265	110.343	75	56
110.343	110.576	63	49
110.343	110.576	66	55
110.343	110.654	70	60
110.42	110.498	82	56
110.498	110.576	82	56
110.576	110.654	82	56
110.654	110.887	58	49
110.654	110.887	66	49
110.654	110.887	70	55
110.654	110.964	75	60
110.731	110.809	87	56
110.809	110.887	87	56
110.887	110.964	87	56
110.964	111.275	77	60
111.042	111.12	89	57
111.12	111.198	89	57
111.198	111.275	89	57
111.275	111.509	62	47
111.275	111.509	68	52
111.275	111.586	82	60
111.353	111.431	94	57
111.431	111.509	94	57
111.509	111.586	94	57
111.586	111.804	58	47
111.586	111.804	62	47
111.586	111.804	70	52
111.586	111.876	89	61
111.683	111.779	94	58
111.683	111.779	101	58
111.779	111.876	94	60
111.779	111.876	101	60
111.876	112.099	51	56
111.876	112.173	90	63
111.975	112.074	94	61
111.975	112.074	102	61
112.074	112.173	94	61
112.074	112.173	102	61
112.173	112.328	58	46
112.173	112.328	66	51
112.173	112.328	87	60
112.506	112.648	75	46
112.506	112.789	78	46
112.648	112.789	74	46
112.648	112.789	77	48
112.789	112.894	73	49
112.789	112.894	76	49
112.789	112.894	78	42
112.93	113.035	72	50
112.93	113.035	75	50
112.93	113.035	78	44
113.07	113.174	71	51
113.07	113.174	74	51
113.07	113.174	78	45
113.209	113.314	70	52
113.209	113.314	73	52
113.209	113.314	78	46
113.348	113.452	69	53
113.348	113.452	72	53
113.348	113.452	78	48
113.487	113.596	68	55
113.487	113.596	71	55
113.487	113.596	78	49
113.631	113.709	80	63
113.709	113.787	78	56
113.787	113.864	77	56
113.864	113.942	78	56
113.942	114.175	66	49
113.942	114.175	70	55
113.942	114.253	73	60
114.02	114.098	85	56
114.098	114.175	85	56
114.175	114.253	85	56
114.253	114.486	61	49
114.253	114.486	70	49
114.253	114.486	73	55
114.253	114.564	78	60
114.331	114.408	90	56
114.408	114.486	90	56
114.486	114.564	90	56
114.564	114.876	80	60
114.642	114.719	92	57
114.719	114.797	92	57
114.797	114.876	92	57
114.876	115.114	65	47
114.876	115.114	71	52
114.876	115.195	85	60
114.981	115.087	92	60
114.981	115.087	97	60
115.087	115.195	92	60
115.087	115.195	97	60
115.195	115.455	61	47
115.195	115.455	65	47
115.195	115.455	73	52
115.195	115.304	92	61
115.195	115.304	97	61
115.304	115.42	92	58
115.304	115.42	97	58
115.42	115.56	92	60
115.42	115.56	97	60
115.56	115.852	66	62
115.56	115.706	94	45
115.56	115.633	97	45
115.633	115.706	99	45
115.706	115.852	93	44
115.706	115.779	97	44
115.779	115.852	99	42
115.852	115.957	78	49
115.852	115.957	82	55
115.852	115.992	92	42
115.852	115.922	97	42
115.922	115.992	99	41
115.992	116.097	80	49
115.992	116.097	83	55
115.992	116.132	91	41
115.992	116.062	97	41
116.062	116.132	99	40
116.132	116.338	82	51
116.132	116.338	85	58
116.132	116.409	90	39
116.132	116.199	97	39
116.199	116.267	99	39
116.267	116.338	97	38
116.338	116.409	99	38
116.409	116.699	59	62
116.409	116.554	92	42
116.409	116.482	95	42
116.482	116.554	97	42
116.554	116.699	91	41
116.554	116.627	95	41
116.627	116.699	97	41
116.699	116.805	71	49
116.699	116.805	80	55
116.699	116.84	90	40
116.699	116.77	95	40
116.77	116.84	97	40
116.84	116.946	73	49
116.84	116.946	82	55
116.84	116.981	89	39
116.84	116.911	95	39
116.911	116.981	97	39
116.981	117.188	75	50
116.981	117.188	83	57
116.981	117.259	87	38
116.981	117.049	95	38
117.049	117.117	97	38
117.117	117.188	95	37
117.188	117.259	97	37
117.259	117.547	61	62
117.259	117.403	90	42
117.259	117.331	94	42
117.331	117.403	95	42
117.403	117.547	89	41
117.403	117.475	94	41
117.475	117.547	95	41
117.547	117.652	70	49
117.547	117.652	78	55
117.547	117.686	87	41
117.547	117.617	94	41
117.617	117.686	95	40
117.686	117.79	71	49
117.686	117.79	80	55
117.686	117.825	86	40
117.686	117.756	94	40
117.756	117.825	95	39
117.825	118.031	73	51
117.825	118.031	82	58
117.825	118.103	85	39
117.825	117.892	94	39
117.892	117.958	95	38
117.958	118.031	94	38
118.031	118.103	95	36
118.103	118.387	61	62
118.103	118.246	89	42
118.103	118.175	92	42
118.175	118.246	94	42
118.246	118.387	87	41
118.246	118.317	92	41
118.317	118.387	94	40
118.387	118.488	68	49
118.387	118.488	77	55
118.387	118.522	86	39
118.387	118.454	92	39
118.454	118.522	94	38
118.522	118.623	70	49
118.522	118.623	78	55
118.522	118.656	85	37
118.522	118.589	92	37
118.589	118.656	94	36
118.656	118.857	71	50
118.656	118.857	80	57
118.656	118.928	83	36
118.656	118.721	92	36
118.721	118.787	87	41
118.787	118.857	88	44
118.857	118.928	89	46
118.928	119.207	66	59
118.928	119.207	73	59
118.928	119.207	82	66
118.928	118.998	90	48
118.998	119.068	92	48
119.068	119.137	90	48
119.137	119.207	92	48
119.207	119.49	78	66
119.278	119.349	90	50
119.349	119.419	92	50
119.419	119.49	90	50
119.49	119.773	79	67
119.561	119.632	91	53
119.632	119.702	92	53
119.702	119.773	91	53
119.773	120.059	80	70
119.845	119.916	92	57
119.916	119.988	93	57
119.988	120.059	92	56
120.059	120.35	64	46
120.059	120.35	80	64
120.059	120.131	93	56
120.131	120.204	92	55
120.204	120.277	93	55
120.277	120.35	92	53
120.35	120.646	63	51
120.35	120.646	78	63
120.35	120.409	93	53
120.409	120.468	92	52
120.468	120.527	93	52
120.527	120.587	92	51
120.587	120.646	93	51
120.646	120.943	61	49
120.646	120.943	76	61
120.646	120.72	92	51
120.72	120.795	93	51
120.795	120.869	92	51
120.869	120.943	93	51
120.943	121.162	87	62
120.943	121.016	92	57
120.943	121.162	102	68
121.016	121.089	93	57
121.089	121.162	92	57
121.162	121.234	93	57
121.234	121.453	85	62
121.234	121.307	92	53
121.234	121.453	100	67
121.307	121.38	93	53
121.38	121.453	92	53
121.453	121.524	93	53
121.524	121.81	68	42
121.524	121.739	84	66
121.524	121.596	92	57
121.524	121.739	99	68
121.596	121.667	93	57
121.667	121.739	92	57
121.739	121.81	93	57
121.81	122.025	82	62
121.81	121.882	92	53
121.81	122.025	97	64
121.882	121.953	93	53
121.953	122.025	92	53
122.025	122.097	93	52
122.097	122.319	84	60
122.097	122.17	92	52
122.097	122.319	99	62
122.17	122.243	93	52
122.243	122.319	92	51
122.319	122.396	93	51
122.396	122.688	73	44
122.396	122.615	85	57
122.396	122.469	92	52
122.396	122.615	100	63
122.469	122.542	93	52
122.542	122.615	92	51
122.615	122.688	93	51
122.688	122.847	88	53
122.688	122.847	92	57
122.688	122.847	97	57
123.006	123.306	79	67
123.081	123.156	91	53
123.156	123.231	93	53
123.231	123.306	91	53
123.306	123.591	78	70
123.377	123.449	90	57
123.449	123.52	92	57
123.52	123.591	90	56
123.591	123.883	63	46
123.591	123.883	78	64
123.591	123.664	92	56
123.664	123.737	90	55
123.737	123.81	92	55
123.81	123.883	90	53
123.883	124.179	61	46
123.883	124.179	76	63
123.883	123.942	92	53
123.942	124.001	90	52
124.001	124.06	92	52
124.06	124.119	90	51
124.119	124.179	92	51
124.179	124.476	59	49
124.179	124.476	75	61
124.179	124.253	90	51
124.253	124.327	92	51
124.327	124.401	90	51
124.401	124.476	92	51
124.476	124.694	85	62
124.476	124.549	90	57
124.476	124.694	100	68
124.549	124.621	92	57
124.621	124.694	90	57
124.694	124.767	92	57
124.767	124.985	83	62
124.767	124.84	90	53
124.767	124.985	99	67
124.84	124.913	92	53
124.913	124.985	90	53
124.985	125.057	92	53
125.057	125.343	66	42
125.057	125.271	82	66
125.057	125.128	90	57
125.057	125.271	97	68
125.128	125.2	92	57
125.2	125.271	90	57
125.271	125.343	92	57
125.343	125.558	80	62
125.343	125.414	90	53
125.343	125.558	95	64
125.414	125.486	92	53
125.486	125.558	90	53
125.558	125.63	92	52
125.63	125.852	82	60
125.63	125.702	90	52
125.63	125.852	97	62
125.702	125.775	92	52
125.775	125.852	90	51
125.852	125.928	92	51
125.928	126.221	71	44
125.928	126.148	83	57
125.928	126.001	90	52
125.928	126.148	99	63
126.001	126.075	92	52
126.075	126.148	90	52
126.148	126.221	92	52
126.221	126.377	87	53
126.221	126.377	90	57
126.221	126.377	95	57
126.533	126.839	74	64
126.609	126.686	86	53
126.686	126.762	87	53
126.762	126.839	86	53
126.839	127.145	75	64
126.915	126.992	87	57
126.992	127.069	88	56
127.069	127.145	87	56
127.145	127.465	63	45
127.145	127.465	67	45
127.145	127.465	75	50
127.145	127.224	88	55
127.224	127.303	87	55
127.303	127.384	88	53
127.384	127.465	87	53
127.465	127.811	65	42
127.465	127.811	68	42
127.465	127.811	74	48
127.465	127.548	88	52
127.548	127.631	87	52
127.631	127.721	88	51
127.721	127.811	87	51
127.811	128.108	67	39
127.811	128.108	70	39
127.811	128.108	73	44
127.813	127.869	88	48
127.865	127.921	87	49
127.92	127.976	86	50
127.972	128.028	87	51
128.035	128.091	88	52
128.093	128.149	89	53
128.149	128.204	90	55
128.201	128.256	91	56
128.254	128.309	92	57
128.316	128.371	94	58
128.369	128.424	95	61
128.428	128.482	95	62
128.482	128.537	96	63
128.531	128.586	97	64
128.581	128.636	98	66
128.641	128.695	99	67
128.691	128.749	100	68
128.695	128.984	68	48
128.695	128.984	71	48
128.695	128.984	76	53
128.757	128.815	102	67
128.807	128.864	100	67
128.872	128.93	99	66
128.931	128.989	98	64
128.99	129.048	97	63
129.048	129.107	96	62
129.102	129.16	95	61
129.158	129.216	94	60
129.214	129.272	93	58
129.274	129.332	92	57
129.34	129.398	91	56
129.387	129.446	90	55
129.451	129.51	89	53
129.497	129.868	63	44
129.507	129.566	88	52
129.571	129.868	79	55
129.571	129.868	87	52
129.868	130.166	70	64
129.942	130.017	82	53
130.017	130.091	83	53
130.091	130.166	82	53
130.166	130.466	74	64
130.241	130.316	86	53
130.316	130.391	87	53
130.391	130.466	86	53
130.466	130.766	75	64
130.541	130.616	87	57
130.616	130.691	88	56
130.691	130.766	87	56
130.766	131.086	63	45
130.766	131.086	67	45
130.766	131.086	75	50
130.766	130.845	88	55
130.845	130.924	87	55
130.924	131.005	88	53
131.005	131.086	87	53
131.086	131.431	65	42
131.086	131.431	68	42
131.086	131.431	74	48
131.086	131.168	88	52
131.168	131.252	87	52
131.252	131.342	88	51
131.342	131.431	87	51
131.431	131.731	67	39
131.431	131.731	70	39
131.431	131.731	73	44
131.434	131.49	88	48
131.481	131.538	87	49
131.538	131.594	86	50
131.606	131.662	87	51
131.654	131.71	88	52
131.71	131.765	89	53
131.769	131.825	90	55
131.826	131.881	91	56
131.884	131.939	92	57
131.937	131.992	93	58
131.989	132.045	94	61
132.041	132.096	95	62
132.103	132.158	96	63
132.155	132.209	97	64
132.209	132.264	98	66
132.27	132.325	99	67
132.319	132.609	68	48
132.319	132.609	71	48
132.319	132.609	76	53
132.322	132.38	100	68
132.372	132.43	102	67
132.436	132.494	100	67
132.491	132.549	99	66
132.554	132.613	98	64
132.61	132.668	97	63
132.668	132.727	96	62
132.723	132.782	95	61
132.779	132.838	94	60
132.839	132.898	93	58
132.9	132.959	92	57
132.964	133.023	91	56
133.019	133.078	90	55
133.084	133.143	89	53
133.141	133.2	88	52
133.194	133.254	87	48
133.196	133.496	70	39
133.196	133.496	73	39
133.196	133.496	79	44
133.251	133.304	88	48
133.311	133.364	87	49
133.361	133.414	86	50
133.407	133.46	87	51
133.468	133.52	88	52
133.518	133.57	89	53
133.565	133.617	90	55
133.628	133.68	91	56
133.668	133.72	92	57
133.73	133.781	93	58
133.779	133.83	94	61
133.826	133.877	95	62
133.878	133.929	96	63
133.924	133.976	97	64
133.988	134.039	98	66
134.035	134.086	99	67
134.079	134.137	100	68
134.084	134.374	56	48
134.084	134.374	71	53
134.146	134.204	102	67
134.204	134.262	100	67
134.259	134.317	99	66
134.312	134.37	98	64
134.369	134.427	97	63
134.436	134.494	96	62
134.491	134.549	95	61
134.544	134.603	94	60
134.608	134.666	93	58
134.67	134.729	92	57
134.724	134.783	91	56
134.782	134.841	90	55
134.844	134.904	89	53
134.905	134.964	88	52
134.961	135.261	51	44
134.961	135.261	67	44
134.965	135.025	87	48
135.024	135.076	88	48
135.074	135.126	87	49
135.121	135.174	86	50
135.177	135.23	87	51
135.236	135.288	88	52
135.277	135.329	89	53
135.335	135.387	90	55
135.389	135.441	91	56
135.437	135.489	92	57
135.485	135.537	93	58
135.548	135.599	94	61
135.599	135.65	95	62
135.645	135.697	96	63
135.693	135.744	97	64
135.747	135.798	98	66
135.796	135.847	99	67
135.849	136.125	44	70
135.849	136.125	59	70
135.853	135.922	100	75
135.915	135.984	102	70
135.987	136.056	100	70
136.052	136.122	99	70
136.131	136.2	98	75
136.192	136.261	99	70
136.267	136.336	98	70
136.334	136.403	97	70
136.398	136.467	96	75
136.474	136.543	97	70
136.544	136.614	96	70
136.608	136.677	95	70
136.678	136.747	94	75
136.752	136.821	95	70
136.811	136.88	94	70
136.891	136.96	93	70
136.956	137.025	92	75
137.018	137.087	93	70
137.093	137.162	92	70
137.158	137.228	91	70
137.236	137.305	90	69
137.301	137.37	91	68
137.372	137.441	90	68
137.435	137.504	89	68
137.512	137.581	88	68
137.572	137.641	90	66
137.641	137.71	88	66
137.718	137.788	87	66
137.782	137.851	86	67
137.859	137.928	87	63
137.92	137.989	86	63
137.989	138.058	85	63
138.056	138.125	84	66
138.133	138.202	85	63
138.203	138.273	84	63
138.27	138.339	83	63
138.338	138.407	82	64
138.41	138.479	83	61
138.472	138.541	82	61
138.54	138.609	81	61
138.608	138.677	80	63
138.677	138.746	81	60
138.755	138.824	80	60
138.826	138.895	79	60
138.887	138.956	78	62
138.955	139.024	79	58
139.029	139.099	78	58
139.092	139.161	77	58
139.162	139.231	76	62
139.234	139.304	78	58
139.308	139.377	76	58
139.376	139.445	75	58
139.443	139.512	74	61
139.506	139.576	75	57
139.58	139.649	74	57
139.647	139.716	73	57
139.722	139.791	72	60
139.786	139.855	73	56
139.857	139.926	72	56
139.923	139.993	71	56
139.997	140.066	70	58
140.065	140.134	71	55
140.135	140.204	70	55
140.199	140.268	69	55
140.273	140.343	68	57
140.348	140.419	69	53
140.415	140.486	68	53
140.489	140.56	67	53
140.55	140.621	66	56
140.622	140.694	67	52
140.691	140.763	66	52
140.696	141.126	43	46
140.767	141.126	58	46
140.773	140.845	65	52
140.839	141.126	61	57
140.839	140.911	64	52
140.917	140.989	62	52
140.978	141.05	64	52
141.056	141.127	63	52
141.121	141.192	65	52
141.196	141.266	64	52
141.273	141.343	66	52
141.332	141.402	65	52
141.412	141.482	67	52
141.475	141.544	66	52
141.543	141.612	68	52
141.619	141.688	67	52
141.683	141.752	69	52
141.75	141.818	68	52
141.823	141.891	70	52
141.891	141.96	69	52
141.957	142.026	71	52
142.027	142.095	70	52
142.097	142.165	72	52
142.165	142.234	71	52
142.237	142.306	73	52
142.306	142.374	72	52
142.371	142.439	74	52
142.44	142.509	73	52
142.508	142.576	75	52
142.574	142.642	74	52
142.64	142.708	76	52
142.715	142.784	75	52
142.782	142.85	77	50
142.853	142.922	76	50
142.914	142.982	78	51
142.982	143.051	77	52
143.055	143.124	79	53
143.125	143.194	78	55
143.192	143.261	80	55
143.258	143.326	79	56
143.328	143.397	81	57
143.391	143.46	80	58
143.469	143.537	82	60
143.535	143.603	81	60
143.603	143.672	83	61
143.673	143.742	82	62
143.743	143.811	84	63
143.803	143.872	83	64
143.877	143.946	85	64
143.949	144.018	84	66
144.019	144.087	86	67
144.083	144.151	85	68
144.154	144.222	87	69
144.213	144.281	86	70
144.289	144.357	88	70
144.36	144.429	87	72
144.421	144.489	89	73
144.493	144.561	88	74
144.558	144.626	90	75
144.624	144.693	89	75
144.693	144.762	91	77
144.771	144.84	90	78
144.84	144.909	92	79
144.907	144.977	91	80
144.968	145.038	93	80
145.04	145.109	92	81
145.106	145.175	94	82
145.175	145.244	93	84
145.253	145.322	95	85
145.324	145.394	94	86
145.389	145.459	96	86
145.458	145.528	95	88
145.528	145.598	97	89
145.596	145.668	96	90
145.67	145.743	98	91
145.743	145.819	97	91
145.814	145.884	99	93
145.887	145.956	98	86
145.962	146.031	100	93
146.026	146.095	98	86
146.102	146.173	99	93
146.174	146.245	98	88
146.244	146.315	100	93
146.313	146.384	98	88
146.379	146.45	99	93
146.458	146.529	98	88
146.519	146.59	100	93
146.589	146.66	98	88
146.669	146.74	99	90
146.737	146.809	98	84
146.81	146.884	100	85
146.889	146.963	98	80
146.951	147.026	99	81
147.037	147.113	98	82
147.111	147.187	100	82
147.182	147.259	98	82
147.256	147.333	99	79
147.338	147.416	98	78
147.412	147.49	100	75
147.492	147.571	98	73
147.58	147.658	100	68
147.653	147.73	99	68
147.731	147.807	100	68
147.799	147.874	99	68
147.879	147.952	100	68
147.951	148.023	99	69
148.024	148.095	100	73
148.099	148.169	99	75
148.165	148.234	100	79
148.233	148.302	99	81
148.305	148.374	100	84
148.372	148.44	99	88
148.441	148.51	100	90
148.507	148.575	99	92
148.571	148.638	100	94
148.646	148.713	99	99
148.706	148.773	100	101
148.779	148.845	99	100
148.848	148.914	100	104
148.91	148.975	99	103
148.979	149.044	100	107
149.041	149.105	99	104
149.104	149.169	100	110
149.173	149.237	99	105
149.235	149.299	100	111
149.296	149.36	99	103
149.368	149.432	100	111
149.427	149.492	99	103
149.486	149.55	100	111
149.554	149.618	99	111
149.614	149.679	100	111
149.686	149.75	99	105
149.752	149.816	100	111
149.812	149.877	99	104
149.87	149.935	100	111
149.939	150.004	99	104
150.001	150.067	100	111
150.075	150.142	99	103
150.135	150.205	100	106
150.214	150.285	99	103
150.285	150.359	100	100
150.355	150.428	99	96
150.43	150.502	100	92
150.504	150.576	99	88
150.565	150.636	100	84
150.637	150.706	99	80
150.713	150.782	100	77
150.781	150.85	99	73
150.845	150.914	100	66
150.912	150.98	99	60
150.982	151.05	100	64
151.056	151.125	99	63
151.121	151.189	100	63
151.189	151.257	99	59
151.258	151.326	100	62
151.329	151.397	99	58
151.395	151.606	75	60
151.399	151.469	100	53
151.469	151.539	99	49
151.536	151.606	100	52
151.607	151.68	99	49
151.679	151.965	87	64
151.683	151.754	99	52
151.755	151.827	100	50
151.817	151.889	99	52
151.895	151.966	100	48
151.961	152.033	99	52
151.965	152.249	87	64
152.032	152.103	100	49
152.112	152.184	99	52
152.173	152.245	100	50
152.249	152.388	87	52
152.251	152.528	85	60
152.252	152.321	99	52
152.318	152.387	100	52
152.391	152.46	99	52
152.455	152.525	100	49
152.524	152.595	99	52
152.526	152.668	87	33
152.528	152.813	68	38
152.528	152.813	83	63
152.603	152.674	100	49
152.666	152.737	99	52
152.74	152.811	100	49
152.813	153.09	83	56
152.817	152.955	87	33
152.818	152.887	99	52
152.886	152.955	100	49
152.955	153.024	99	52
153.022	153.091	100	52
153.088	153.226	87	33
153.09	153.367	82	57
153.095	153.164	99	52
153.156	153.225	100	49
153.233	153.302	99	52
153.294	153.363	100	50
153.363	153.505	87	33
153.367	153.65	71	37
153.367	153.65	80	56
153.367	153.438	99	52
153.443	153.514	100	49
153.502	153.573	99	52
153.573	153.644	100	50
153.649	153.718	99	52
153.65	153.927	79	60
153.65	153.788	87	33
153.714	153.784	100	49
153.785	153.854	99	52
153.862	153.931	100	49
153.922	153.991	99	52
153.923	154.061	87	33
153.927	154.686	80	60
153.991	154.06	100	49
154.07	154.139	99	53
154.128	154.196	100	49
154.196	154.488	87	34
154.196	154.352	99	53
154.202	154.686	79	50
154.202	154.686	82	63
154.272	154.417	100	48
154.352	154.495	99	53
154.417	154.562	100	49
154.488	154.686	87	34
154.49	154.694	75	56
154.495	154.626	99	53
154.562	154.686	100	50
154.626	154.694	99	53
154.699	154.767	100	48
154.762	154.83	99	53
154.763	155.037	75	53
154.765	154.902	87	33
154.828	154.896	100	50
154.894	154.963	99	53
154.968	155.037	100	50
155.036	155.106	99	53
155.037	155.319	67	35
155.037	155.319	70	35
155.037	155.319	76	57
155.043	155.184	87	33
155.104	155.175	100	53
155.179	155.25	99	53
155.245	155.316	100	50
155.319	155.594	75	49
155.322	155.459	87	33
155.325	155.394	99	52
155.387	155.455	100	49
155.461	155.53	99	52
155.519	155.588	100	49
155.594	155.796	73	48
155.595	155.662	99	52
155.599	155.734	87	33
155.664	155.732	100	48
155.73	155.797	99	52
155.791	155.859	100	50
155.86	156.146	87	33
155.862	156.003	99	52
155.863	156.144	68	37
155.863	156.144	71	55
155.928	156.068	100	49
156.003	156.149	99	52
156.068	156.206	100	48
156.144	156.415	68	34
156.144	156.415	71	52
156.146	156.36	87	33
156.149	156.283	99	51
156.206	156.35	100	48
156.283	156.36	99	51
156.35	156.417	100	48
156.415	156.687	66	34
156.415	156.687	70	52
156.417	156.553	87	31
156.418	156.486	99	50
156.483	156.551	100	47
156.553	156.621	99	50
156.615	156.683	100	46
156.687	156.963	64	38
156.687	156.963	68	51
156.689	156.827	87	31
156.691	156.759	99	49
156.759	156.828	100	45
156.819	156.888	99	49
156.899	156.967	100	46
156.963	157.234	67	46
156.965	157.101	87	30
156.965	157.033	99	49
157.025	157.093	100	45
157.099	157.167	99	48
157.172	157.239	100	44
157.228	157.361	87	30
157.231	157.298	99	48
157.234	157.929	68	46
157.296	157.362	100	44
157.372	157.439	99	46
157.434	157.57	100	41
157.498	157.781	87	28
157.5	157.929	67	33
157.5	157.929	70	48
157.506	157.645	99	49
157.57	157.711	100	45
157.645	157.782	99	50
157.711	157.858	100	45
157.781	157.929	87	28
157.782	157.929	99	50
157.786	158.072	63	45
157.858	157.929	100	47
157.934	158.005	99	50
157.996	158.067	100	46
158.071	158.142	99	52
158.077	158.22	87	28
158.138	158.209	100	48
158.219	158.292	99	52
158.284	158.357	100	49
158.289	158.362	63	63
158.362	158.565	75	63
158.366	158.434	99	52
158.368	158.504	87	33
158.435	158.502	100	48
158.495	158.562	99	52
158.565	158.632	100	48
158.627	158.761	87	33
158.632	158.833	75	58
158.636	158.703	99	52
158.695	158.762	100	48
158.765	158.832	99	52
158.831	158.898	100	48
158.895	158.962	99	52
158.9	159.168	73	57
158.906	159.04	87	33
158.964	159.031	100	48
159.031	159.098	99	52
159.098	159.165	100	48
159.168	159.438	56	47
159.168	159.438	71	60
159.168	159.236	99	49
159.236	159.303	100	55
159.303	159.371	99	55
159.371	159.438	87	55
159.438	159.708	71	56
159.438	159.506	87	45
159.506	159.573	88	45
159.573	159.641	87	45
159.641	159.708	75	45
159.708	159.983	70	57
159.708	159.8	87	45
159.8	159.891	88	45
159.891	159.983	87	45
159.983	160.254	59	42
159.983	160.254	68	60
159.983	160.051	99	53
160.051	160.119	100	53
160.119	160.186	99	53
160.186	160.254	87	53
160.254	160.524	67	56
160.254	160.321	87	46
160.321	160.389	88	45
160.389	160.456	87	45
160.456	160.524	75	45
160.524	160.794	68	57
160.524	160.614	87	45
160.614	160.704	88	45
160.704	160.794	87	45
160.794	161.067	67	49
160.794	161.067	70	66
160.794	160.862	99	55
160.862	160.93	100	55
160.93	160.998	99	55
160.998	161.067	87	55
161.067	161.271	63	60
161.067	161.135	87	45
161.135	161.203	88	45
161.203	161.271	87	45
161.271	161.339	75	45
161.339	161.545	63	60
161.339	161.431	87	45
161.431	161.522	88	45
161.522	161.614	87	45
161.614	161.885	59	51
161.614	161.885	68	50
161.614	161.682	99	53
161.682	161.75	100	53
161.75	161.817	99	53
161.817	161.885	87	53
161.885	162.155	60	49
161.885	162.155	66	48
161.885	161.952	87	46
161.952	162.02	88	46
162.02	162.087	87	46
162.087	162.155	75	46
162.155	162.428	61	42
162.155	162.428	64	55
162.155	162.245	87	46
162.245	162.336	88	46
162.336	162.428	87	46
162.428	162.715	63	66
162.428	162.5	99	50
162.5	162.572	100	50
162.572	162.643	99	50
162.643	162.715	87	50
162.715	162.854	71	50
162.715	162.854	80	50
162.854	162.993	75	46
162.854	162.993	83	46
162.993	163.201	80	52
162.993	163.201	87	52
163.27	163.564	63	58
163.27	163.344	99	50
163.344	163.417	100	49
163.417	163.49	99	49
163.49	163.564	87	49
163.564	163.719	70	45
163.564	163.719	79	45
163.719	163.874	73	40
163.719	163.874	82	40
163.874	164.144	79	45
163.874	164.144	87	45
164.234	164.657	56	58
164.446	164.551	63	45
164.551	164.657	71	45
164.657	164.884	80	52
165.097	165.387	75	60
165.17	165.243	87	48
165.243	165.315	88	48
165.315	165.387	87	48
165.387	165.674	87	67
165.458	165.529	99	52
165.529	165.603	100	52
165.603	165.674	99	52
165.674	165.947	87	67
165.742	165.81	99	49
165.81	165.878	100	49
165.878	165.947	99	49
165.947	166.216	85	62
166.015	166.083	97	49
166.083	166.15	99	49
166.15	166.216	97	50
166.216	166.955	32	49
166.216	166.955	44	56
166.216	166.485	83	66
166.283	166.418	95	50
166.351	166.62	97	50
166.418	166.553	95	52
166.485	166.955	51	44
166.485	166.754	59	44
166.485	166.754	63	49
166.485	166.955	83	61
166.553	166.687	95	45
166.62	166.955	97	46
166.687	166.886	95	46
166.754	167.551	56	44
166.754	167.284	59	44
166.754	167.284	63	49
166.754	167.779	82	62
166.82	166.952	94	45
166.886	166.955	95	45
166.952	167.151	94	46
167.018	167.779	35	48
167.018	167.779	47	53
167.018	167.551	80	66
167.084	167.218	92	46
167.151	167.682	94	46
167.218	167.418	92	46
167.284	167.779	51	44
167.284	167.551	59	44
167.284	167.551	63	49
167.284	167.779	79	66
167.351	167.484	91	46
167.418	167.616	92	46
167.484	167.779	91	46
167.551	168.542	56	44
167.551	168.542	59	44
167.551	168.081	63	49
167.551	168.542	80	70
167.616	167.747	92	48
167.682	167.779	94	48
167.747	168.542	92	49
167.813	168.542	39	49
167.813	168.542	51	55
167.813	168.542	82	75
167.88	168.014	94	57
167.947	168.542	95	57
168.014	168.542	94	57
168.081	168.542	55	44
168.081	168.349	63	44
168.081	168.349	67	49
168.081	168.349	75	66
168.148	168.282	87	49
168.215	168.48	88	49
168.282	168.414	87	49
168.349	168.612	58	44
168.349	168.612	63	44
168.349	168.612	67	49
168.349	168.612	75	66
168.414	168.542	87	49
168.48	168.546	88	49
168.546	168.612	87	50
168.612	169.349	43	57
168.612	169.349	76	69
168.678	168.811	88	50
168.744	169.349	90	50
168.811	169.01	88	50
168.877	169.349	61	42
168.877	169.143	63	42
168.877	169.143	70	48
168.877	169.349	75	63
168.944	169.076	87	48
169.01	169.349	88	48
169.076	169.275	87	48
169.143	169.407	58	42
169.143	169.407	63	42
169.143	169.407	70	48
169.143	169.407	73	63
169.209	169.341	85	48
169.275	169.349	87	48
169.341	169.407	85	48
169.407	170.163	44	53
169.407	169.675	71	67
169.474	169.608	83	48
169.541	169.809	85	48
169.608	169.742	83	48
169.675	169.943	63	39
169.675	170.163	68	45
169.675	170.163	71	61
169.742	169.876	83	44
169.809	170.163	85	44
169.876	170.077	83	44
169.943	170.211	59	39
169.943	170.211	63	45
169.943	170.211	70	60
170.01	170.144	82	46
170.077	170.163	83	46
170.144	170.211	82	48
170.211	170.976	40	52
170.211	170.742	68	67
170.277	170.41	80	50
170.343	170.882	82	52
170.41	170.609	80	52
170.476	170.976	59	38
170.476	170.742	62	42
170.476	170.976	67	61
170.542	170.675	79	48
170.609	170.812	80	48
170.675	170.976	79	48
170.742	171.312	58	38
170.742	172.194	62	42
170.742	172.194	68	58
170.812	170.953	80	46
170.882	170.976	82	46
170.953	172.194	80	46
171.023	172.194	39	48
171.023	171.629	70	61
171.095	171.24	82	48
171.167	172.194	83	48
171.24	171.908	82	48
171.312	172.194	55	38
171.312	172.194	58	42
171.312	172.194	63	55
171.391	171.55	75	42
171.47	172.194	76	42
171.55	171.629	75	42
171.629	172.194	67	37
171.629	172.194	70	41
171.629	172.194	75	66
171.699	171.838	87	48
171.769	172.194	88	48
171.838	171.908	87	48
171.908	172.194	79	42
171.908	172.194	82	48
171.908	172.194	87	72
171.978	172.123	99	58
172.049	172.194	100	58
172.123	172.194	99	58
172.194	172.47	87	70
172.263	172.332	99	55
172.332	172.401	100	55
172.401	172.47	99	55
172.47	172.75	85	70
172.54	172.61	97	55
172.61	172.68	99	55
172.68	172.75	97	55
172.75	173.481	44	48
172.75	173.021	84	69
172.818	172.953	96	56
172.886	173.156	97	56
172.953	173.088	96	56
173.021	173.481	57	39
173.021	173.291	63	39
173.021	173.291	66	45
173.021	173.481	84	67
173.088	173.223	96	53
173.156	173.481	97	53
173.223	173.481	96	53
173.291	174.098	60	39
173.291	173.828	63	39
173.291	173.828	66	45
173.291	174.328	81	66
173.358	173.481	93	52
173.424	173.491	95	52
173.491	173.693	93	52
173.558	174.328	48	48
173.558	173.828	80	69
173.625	173.76	92	52
173.693	173.963	93	52
173.76	173.895	92	52
173.828	174.328	57	39
173.828	174.098	63	39
173.828	174.098	66	45
173.828	174.328	80	66
173.895	174.031	92	51
173.963	174.328	93	51
174.031	174.236	92	51
174.098	174.373	60	39
174.098	174.373	63	39
174.098	174.373	66	45
174.098	174.373	78	64
174.167	174.305	90	46
174.236	174.328	92	46
174.305	174.373	90	46
174.373	175.127	52	48
174.373	175.127	76	62
174.44	174.573	88	49
174.507	175.127	90	49
174.573	175.038	88	49
174.64	175.127	64	36
174.64	174.907	69	40
174.64	175.127	73	57
174.707	174.84	85	45
174.773	174.973	87	45
174.84	175.127	85	45
174.907	175.17	60	39
174.907	175.17	69	45
174.907	175.17	75	60
174.973	175.104	87	46
175.038	175.127	88	46
175.104	175.17	87	46
175.17	175.927	61	44
175.17	175.437	69	49
175.17	175.927	76	62
175.237	175.37	88	50
175.303	175.927	90	50
175.37	175.57	88	50
175.437	175.927	66	38
175.437	175.703	69	42
175.437	175.927	75	58
175.503	175.637	87	45
175.57	175.927	88	45
175.637	175.837	87	45
175.703	175.969	64	36
175.703	175.969	69	40
175.703	175.969	73	55
175.77	175.903	85	42
175.837	175.927	87	42
175.903	175.969	85	42
175.965	176.03	75	48
175.969	176.229	63	44
175.969	176.229	68	44
175.969	176.229	71	49
176.035	176.1	87	48
176.104	176.168	76	49
176.169	176.234	77	49
176.225	176.29	78	50
176.296	176.361	79	50
176.359	176.424	80	51
176.424	176.488	81	51
176.491	176.555	82	52
176.55	176.613	83	53
176.619	176.683	84	53
176.679	176.743	85	55
176.737	176.8	86	55
176.805	176.869	87	56
176.869	176.932	88	56
176.93	176.993	89	57
176.999	177.062	90	58
177.057	177.12	91	58
177.121	177.184	92	60
177.183	177.245	93	60
177.242	177.305	94	61
177.307	177.369	95	61
177.368	177.43	96	62
177.427	177.489	97	63
177.494	177.734	51	47
177.494	177.734	61	47
177.494	177.734	67	52
177.497	177.567	97	64
177.561	177.631	99	66
177.629	177.694	102	70
177.698	177.762	100	69
177.764	177.829	97	68
177.823	177.888	94	67
177.89	177.955	91	64
177.954	178.018	86	63
178.024	178.089	87	62
178.086	178.151	90	68
178.153	178.218	88	67
178.219	178.283	85	66
178.28	178.345	82	64
178.348	178.413	79	67
178.41	178.475	76	62
178.48	178.544	73	60
178.541	178.606	70	57
178.602	178.667	67	55
178.675	178.741	64	53
178.74	178.811	61	51
178.805	178.883	58	49
178.89	178.98	55	46
178.971	179.114	44	46
179.114	179.199	47	46
179.199	179.285	56	46
179.285	179.37	59	46
179.37	179.455	63	46
179.455	179.541	68	46
179.541	179.626	71	46
179.626	179.712	75	46
179.712	179.797	80	46
179.797	179.882	83	46
179.882	179.97	87	46
179.97	180.067	95	50
180.067	180.358	92	45
180.504	180.602	68	37
180.504	180.602	71	42
180.504	180.602	83	42
180.634	180.732	67	40
180.634	180.732	70	40
180.634	180.732	71	46
180.634	180.732	83	46
180.765	180.863	66	42
180.765	180.863	69	42
180.765	180.863	71	50
180.765	180.863	83	50
180.895	180.993	65	46
180.895	180.993	68	46
180.895	180.993	71	53
180.895	180.993	83	53
181.026	181.128	64	50
181.026	181.128	67	50
181.026	181.128	71	57
181.026	181.128	83	57
181.162	181.263	47	53
181.162	181.263	83	74
181.297	181.395	63	38
181.297	181.395	66	55
181.428	181.523	54	36
181.428	181.523	59	49
181.428	181.523	71	56
181.428	181.523	78	67
181.555	181.654	63	38
181.555	181.654	66	55
181.687	181.784	47	49
181.687	181.784	83	72
181.817	181.914	63	38
181.817	181.914	66	55
181.946	182.043	42	51
181.946	182.043	85	79
182.075	182.172	64	37
182.075	182.172	66	55
182.205	182.302	54	38
182.205	182.302	58	51
182.205	182.302	73	61
182.205	182.302	78	72
182.334	182.434	64	40
182.334	182.434	66	55
182.466	182.56	42	52
182.466	182.56	85	78
182.591	182.685	64	40
182.591	182.685	66	56
182.717	182.85	47	53
182.717	182.85	87	82
182.85	182.946	63	44
182.85	182.946	66	67
182.978	183.073	54	44
182.978	183.073	75	67
183.104	183.197	47	42
183.104	183.197	83	66
183.228	183.319	42	41
183.228	183.319	87	64
183.349	183.441	35	41
183.349	183.441	95	69
183.628	183.723	71	37
183.628	183.723	75	42
183.628	183.723	87	42
183.755	183.851	71	40
183.755	183.851	74	40
183.755	183.851	75	46
183.755	183.851	87	46
183.883	183.979	70	42
183.883	183.979	73	42
183.883	183.979	75	50
183.883	183.979	87	50
184.011	184.106	69	46
184.011	184.106	72	46
184.011	184.106	75	53
184.011	184.106	87	53
184.138	184.238	68	50
184.138	184.238	71	50
184.138	184.238	75	57
184.138	184.238	87	57
184.271	184.37	51	53
184.271	184.37	87	78
184.403	184.501	66	38
184.403	184.501	70	55
184.534	184.629	58	36
184.534	184.629	63	49
184.534	184.629	75	56
184.534	184.629	82	67
184.66	184.76	66	38
184.66	184.76	70	55
184.793	184.89	51	49
184.793	184.89	87	78
184.922	185.019	66	38
184.922	185.019	70	55
185.052	185.149	46	51
185.052	185.149	89	85
185.181	185.278	68	37
185.181	185.278	70	55
185.31	185.407	58	38
185.31	185.407	62	51
185.31	185.407	77	61
185.31	185.407	82	72
185.44	185.539	68	40
185.44	185.539	70	55
185.572	185.666	46	52
185.572	185.666	89	80
185.697	185.791	68	40
185.697	185.791	70	56
185.823	185.956	51	53
185.823	185.956	90	88
185.956	186.052	66	44
185.956	186.052	70	67
186.084	186.178	58	44
186.084	186.178	78	67
186.21	186.303	51	42
186.21	186.303	87	66
186.333	186.425	46	42
186.333	186.425	90	66
186.455	186.547	39	41
186.455	186.547	99	69
186.733	186.829	75	37
186.733	186.829	78	42
186.733	186.829	90	42
186.861	186.957	74	40
186.861	186.957	77	40
186.861	186.957	78	46
186.861	186.957	90	46
186.989	187.084	73	42
186.989	187.084	76	42
186.989	187.084	78	50
186.989	187.084	90	50
187.116	187.212	72	46
187.116	187.212	75	46
187.116	187.212	78	53
187.116	187.212	90	53
187.244	187.343	71	50
187.244	187.343	74	50
187.244	187.343	78	57
187.244	187.343	90	57
187.376	187.475	54	53
187.376	187.475	90	78
187.508	187.607	70	38
187.508	187.607	73	55
187.639	187.734	61	36
187.639	187.734	66	49
187.639	187.734	78	56
187.639	187.734	85	67
187.766	187.866	70	38
187.766	187.866	73	55
187.899	187.996	54	49
187.899	187.996	90	78
188.028	188.125	70	38
188.028	188.125	73	55
188.157	188.254	49	51
188.157	188.254	92	85
188.287	188.384	71	37
188.287	188.384	73	55
188.416	188.513	61	38
188.416	188.513	65	51
188.416	188.513	80	61
188.416	188.513	85	72
188.545	188.645	71	40
188.545	188.645	73	55
188.677	188.771	49	52
188.677	188.771	92	80
188.803	188.897	71	40
188.803	188.897	73	56
188.929	189.185	54	52
188.929	189.056	85	49
188.929	189.056	90	49
188.929	189.056	94	49
189.056	189.185	85	53
189.056	189.185	92	53
189.056	189.185	95	53
189.185	189.283	61	51
189.185	189.315	85	58
189.185	189.315	94	58
189.185	189.315	97	58
189.315	189.413	70	50
189.315	189.445	85	58
189.315	189.445	94	58
189.315	189.445	97	58
189.445	189.54	78	48
189.445	189.571	85	56
189.445	189.571	92	56
189.445	189.571	95	56
189.571	189.666	82	46
189.571	189.697	85	53
189.571	189.697	90	53
189.571	189.697	94	53
189.697	189.951	47	45
189.697	189.824	83	52
189.697	189.824	87	52
189.697	189.824	92	52
189.824	189.951	85	56
189.824	189.951	87	56
189.824	189.951	94	56
189.951	190.048	59	48
189.951	190.08	87	61
189.951	190.08	95	61
190.08	190.176	68	46
190.08	190.208	87	61
190.08	190.208	95	61
190.208	190.301	75	46
190.208	190.332	85	53
190.208	190.332	87	53
190.208	190.332	94	53
190.332	190.426	80	45
190.332	190.457	83	51
190.332	190.457	87	51
190.332	190.457	92	51
190.457	190.709	49	51
190.457	190.582	82	50
190.457	190.582	85	50
190.457	190.582	90	50
190.582	190.709	83	53
190.582	190.709	85	53
190.582	190.709	92	53
190.709	190.804	58	48
190.709	190.836	85	58
190.709	190.836	94	58
190.836	190.932	66	46
190.836	190.964	85	58
190.836	190.964	94	58
190.964	191.057	73	45
190.964	191.088	83	55
190.964	191.088	85	55
190.964	191.088	92	55
191.088	191.182	78	42
191.088	191.213	82	52
191.088	191.213	85	52
191.088	191.213	90	52
191.213	191.463	61	53
191.213	191.337	80	51
191.213	191.337	85	51
191.213	191.337	89	51
191.337	191.463	82	52
191.337	191.463	85	52
191.337	191.463	90	52
191.463	191.558	77	48
191.463	191.59	83	56
191.463	191.59	85	56
191.463	191.59	92	56
191.59	191.685	68	46
191.59	191.717	83	56
191.59	191.717	85	56
191.59	191.717	92	56
191.717	191.812	61	45
191.717	191.843	78	53
191.717	191.843	85	53
191.717	191.843	87	53
191.843	191.938	71	44
191.843	191.97	80	51
191.843	191.97	85	51
191.843	191.97	89	51
191.97	192.219	66	52
191.97	192.219	70	52
191.97	192.219	78	56
191.97	192.219	85	56
191.97	192.219	90	56
192.219	192.344	42	68
192.219	192.344	54	68
192.344	192.469	42	72
192.344	192.469	54	72
192.469	192.594	43	74
192.469	192.594	55	74
192.594	193.572	43	78
192.594	193.572	55	78
192.719	192.844	44	79
192.719	192.844	56	79
192.844	193.572	44	79
192.844	192.969	56	79
192.969	193.085	56	72
192.969	193.085	68	72
193.085	193.572	56	72
193.085	193.201	68	72
193.201	193.317	68	72
193.201	193.317	80	72
193.317	193.572	68	72
193.317	193.433	80	72
193.433	193.712	80	79
193.433	193.712	92	79
193.712	193.95	75	60
193.712	193.831	80	60
193.712	193.831	90	51
193.712	193.831	102	51
193.831	193.95	80	48
193.831	193.95	90	51
193.831	193.95	102	51
193.95	194.187	73	48
193.95	194.069	80	48
193.95	194.069	88	51
193.95	194.069	100	51
194.069	194.187	80	48
194.069	194.187	88	51
194.069	194.187	100	51
194.187	194.428	72	48
194.187	194.308	80	48
194.187	194.308	87	51
194.187	194.308	99	51
194.308	194.428	80	48
194.308	194.428	87	51
194.308	194.428	99	51
194.428	194.661	70	48
194.428	194.545	80	48
194.428	194.545	85	50
194.428	194.545	97	50
194.545	194.661	80	48
194.545	194.661	85	50
194.545	194.661	97	50
194.661	194.89	72	48
194.661	194.776	80	48
194.661	194.776	87	50
194.661	194.776	99	50
194.776	194.89	80	48
194.776	194.89	87	50
194.776	194.89	99	50
194.89	195.152	73	52
194.89	195.152	80	52
194.89	195.152	88	53
194.89	195.152	100	53
195.152	195.277	44	68
195.152	195.277	56	68
195.277	195.402	44	72
195.277	195.402	56	72
195.402	195.527	43	74
195.402	195.527	55	74
195.527	196.504	43	78
195.527	196.504	55	78
195.652	195.777	42	79
195.652	195.777	54	79
195.777	196.504	42	79
195.777	195.902	54	79
195.902	196.018	54	72
195.902	196.018	66	72
196.018	196.504	54	72
196.018	196.134	66	72
196.134	196.25	66	72
196.134	196.25	78	72
196.25	196.504	66	72
196.25	196.366	78	72
196.366	196.642	78	79
196.366	196.642	90	79
196.642	196.879	73	60
196.642	196.761	78	60
196.642	196.761	88	51
196.642	196.761	100	51
196.761	196.879	78	48
196.761	196.879	88	51
196.761	196.879	100	51
196.879	197.117	71	48
196.879	196.998	78	48
196.879	196.998	87	51
196.879	196.998	99	51
196.998	197.117	78	48
196.998	197.117	87	51
196.998	197.117	99	51
197.117	197.359	70	48
197.117	197.238	78	48
197.117	197.238	85	51
197.117	197.238	97	51
197.238	197.359	78	48
197.238	197.359	85	51
197.238	197.359	97	51
197.359	197.593	68	48
197.359	197.476	78	48
197.359	197.476	83	50
197.359	197.476	95	50
197.476	197.593	78	48
197.476	197.593	83	50
197.476	197.593	95	50
197.593	197.822	70	48
197.593	197.707	78	48
197.593	197.707	85	50
197.593	197.707	97	50
197.707	197.822	78	48
197.707	197.822	85	50
197.707	197.822	97	50
197.822	198.067	71	52
197.822	198.067	78	52
197.822	198.067	87	53
197.822	198.067	99	53
198.067	198.194	41	70
198.067	198.194	53	70
198.194	198.319	41	73
198.194	198.319	53	73
198.319	198.456	40	75
198.319	198.456	52	75
198.456	199.43	40	78
198.456	199.43	52	78
198.583	198.714	39	79
198.583	198.714	51	79
198.714	199.43	39	79
198.714	198.838	51	79
198.838	198.954	51	72
198.838	198.954	63	72
198.954	199.43	51	72
198.954	199.07	63	72
199.07	199.185	63	72
199.07	199.185	75	72
199.185	199.43	63	72
199.185	199.301	75	72
199.301	199.558	75	79
199.301	199.558	87	79
199.558	199.708	63	55
199.558	199.708	67	55
199.558	199.708	75	66
199.558	199.708	87	66
199.708	199.85	63	56
199.708	199.85	67	56
199.708	199.85	75	67
199.708	199.85	87	67
199.85	199.994	65	58
199.85	199.994	68	58
199.85	199.994	75	69
199.85	199.994	87	69
199.994	200.117	65	60
199.994	200.117	68	60
199.994	200.117	75	72
199.994	200.117	87	72
200.117	200.242	66	62
200.117	200.242	69	62
200.117	200.242	76	72
200.117	200.242	88	72
200.242	200.366	66	62
200.242	200.366	69	62
200.242	200.366	75	72
200.242	200.366	87	72
200.366	200.489	64	61
200.366	200.489	67	61
200.366	200.489	73	70
200.366	200.489	85	70
200.489	200.61	64	60
200.489	200.61	67	60
200.489	200.61	71	69
200.489	200.61	83	69
200.61	200.729	62	58
200.61	200.729	65	58
200.61	200.729	70	68
200.61	200.729	82	68
200.729	200.847	62	58
200.729	200.847	65	58
200.729	200.847	68	68
200.729	200.847	80	68
200.847	201.08	63	57
200.847	201.08	67	67
200.847	201.08	79	67
201.08	201.24	34	78
201.08	201.24	46	78
201.24	201.387	34	78
201.24	201.387	46	78
201.387	201.524	38	79
201.387	201.524	50	79
201.524	202.507	38	82
201.524	202.507	50	82
201.655	201.788	39	86
201.655	201.788	51	86
201.788	202.507	39	86
201.788	201.915	51	86
201.915	202.031	51	77
201.915	202.031	63	77
202.031	202.507	51	77
202.031	202.147	63	77
202.147	202.263	63	79
202.147	202.263	75	79
202.263	202.507	63	79
202.263	202.379	75	79
202.379	202.635	75	85
202.379	202.635	87	85
202.635	202.797	67	64
202.635	202.797	75	64
202.635	202.797	87	77
202.635	202.797	99	77
202.797	202.952	67	66
202.797	202.952	75	66
202.797	202.952	87	79
202.797	202.952	99	79
202.952	203.114	68	68
202.952	203.114	77	68
202.952	203.114	87	81
202.952	203.114	99	81
203.114	203.253	68	69
203.114	203.253	77	69
203.114	203.253	87	82
203.114	203.253	99	82
203.253	203.384	69	70
203.253	203.384	78	70
203.253	203.384	88	82
203.253	203.384	100	82
203.384	203.511	69	72
203.384	203.511	78	72
203.384	203.511	87	82
203.384	203.511	99	82
203.511	203.637	70	72
203.511	203.637	79	72
203.511	203.637	85	82
203.511	203.637	97	82
203.637	203.763	70	70
203.637	203.763	79	70
203.637	203.763	83	81
203.637	203.763	95	81
203.763	203.887	74	70
203.763	203.887	77	70
203.763	203.887	82	81
203.763	203.887	94	81
203.887	204.01	74	69
203.887	204.01	77	69
203.887	204.01	80	81
203.887	204.01	92	81
204.01	204.13	70	69
204.01	204.13	75	69
204.01	204.13	79	80
204.01	204.13	91	80
204.13	204.25	70	69
204.13	204.25	75	69
204.13	204.25	78	80
204.13	204.25	90	80
204.25	204.367	68	68
204.25	204.367	71	68
204.25	204.367	77	80
204.25	204.367	89	80
204.367	204.482	68	68
204.367	204.482	71	68
204.367	204.482	76	79
204.367	204.482	88	79
204.482	204.602	66	68
204.482	204.602	69	68
204.482	204.602	74	79
204.482	204.602	86	79
204.602	204.719	66	69
204.602	204.719	69	69
204.602	204.719	75	81
204.602	204.719	87	81
204.719	204.837	67	69
204.719	204.837	70	69
204.719	204.837	76	84
204.719	204.837	88	84
204.837	204.956	67	69
204.837	204.956	70	69
204.837	204.956	75	84
204.837	204.956	87	84
204.956	205.074	64	69
204.956	205.074	67	69
204.956	205.074	73	82
204.956	205.074	85	82
205.074	205.192	64	68
205.074	205.192	67	68
205.074	205.192	71	81
205.074	205.192	83	81
205.192	205.31	62	68
205.192	205.31	65	68
205.192	205.31	70	81
205.192	205.31	82	81
205.31	205.427	62	67
205.31	205.427	65	67
205.31	205.427	68	80
205.31	205.427	80	80
205.427	205.544	58	67
205.427	205.544	63	67
205.427	205.544	67	80
205.427	205.544	79	80
205.544	205.659	58	66
205.544	205.659	63	66
205.544	205.659	66	79
205.544	205.659	78	79
205.659	205.774	56	66
205.659	205.774	59	66
205.659	205.774	65	78
205.659	205.774	77	78
205.774	205.886	56	66
205.774	205.886	59	66
205.774	205.886	64	78
205.774	205.886	76	78
205.886	206.003	54	64
205.886	206.003	57	64
205.886	206.003	62	80
205.886	206.003	74	80
206.003	206.116	54	70
206.003	206.116	57	70
206.003	206.116	63	82
206.003	206.116	75	82
206.116	206.232	55	74
206.116	206.232	58	74
206.116	206.232	64	82
206.116	206.232	76	82
206.232	206.347	55	74
206.232	206.347	58	74
206.232	206.347	63	82
206.232	206.347	75	82
206.347	206.462	52	73
206.347	206.462	55	73
206.347	206.462	61	82
206.347	206.462	73	82
206.462	206.577	52	72
206.462	206.577	55	72
206.462	206.577	59	81
206.462	206.577	71	81
206.577	206.692	50	72
206.577	206.692	53	72
206.577	206.692	58	81
206.577	206.692	70	81
206.692	206.807	50	70
206.692	206.807	53	70
206.692	206.807	56	81
206.692	206.807	68	81
206.807	206.921	46	70
206.807	206.921	51	70
206.807	206.921	55	80
206.807	206.921	67	80
206.921	207.036	46	69
206.921	207.036	51	69
206.921	207.036	54	80
206.921	207.036	66	80
207.036	207.147	44	68
207.036	207.147	47	68
207.036	207.147	53	81
207.036	207.147	65	81
207.147	207.26	44	68
207.147	207.26	47	68
207.147	207.26	52	81
207.147	207.26	64	81
207.26	207.38	42	64
207.26	207.38	45	64
207.26	207.38	50	80
207.26	207.38	62	80
207.38	207.509	42	66
207.38	207.509	45	66
207.38	207.509	51	81
207.38	207.509	63	81
207.509	207.635	43	68
207.509	207.635	46	68
207.509	207.635	52	82
207.509	207.635	64	82
207.635	207.754	43	69
207.635	207.754	46	69
207.635	207.754	52	84
207.635	207.754	63	84
207.754	207.872	43	72
207.754	207.872	46	72
207.754	207.872	52	85
207.754	207.872	61	85
207.872	207.989	43	73
207.872	207.989	46	73
207.872	207.989	52	86
207.872	207.989	59	86
207.989	208.105	38	75
207.989	208.105	47	75
207.989	208.105	53	89
207.989	208.105	58	89
208.105	208.22	38	77
208.105	208.22	47	77
208.105	208.22	53	90
208.105	208.22	56	90
208.22	208.447	39	79
208.22	208.447	46	79
208.22	208.447	55	91
208.447	208.561	50	91
208.447	208.561	62	91
208.561	208.674	50	91
208.674	208.787	51	91
208.674	208.787	63	91
208.787	208.899	51	91
208.899	209.011	57	91
208.899	209.011	69	91
209.011	209.122	57	91
209.122	209.233	58	91
209.122	209.233	70	91
209.233	209.343	58	91
209.343	209.453	62	91
209.343	209.453	74	91
209.453	209.563	50	64
209.453	209.563	62	77
209.563	209.672	63	90
209.563	209.672	75	90
209.672	209.78	51	63
209.672	209.78	63	75
209.78	209.887	69	90
209.78	209.887	81	90
209.887	209.993	57	77
209.887	209.993	69	77
209.993	210.099	70	91
209.993	210.099	82	91
210.099	210.204	58	78
210.099	210.204	70	78
210.204	210.308	74	92
210.204	210.308	86	92
210.308	210.412	62	79
210.308	210.412	74	79
210.412	210.514	75	93
210.412	210.514	87	93
210.514	210.617	63	80
210.514	210.617	75	80
210.617	210.718	81	94
210.617	210.718	93	94
210.718	210.817	69	81
210.718	210.817	81	81
210.817	210.932	82	94
210.817	210.932	94	94
210.932	211.047	70	81
210.932	211.047	82	81
211.047	211.155	86	103
211.047	211.155	98	103
211.155	211.263	74	85
211.155	211.263	86	85
211.263	211.372	87	99
211.263	211.372	99	99
211.372	211.48	75	81
211.372	211.48	87	81
211.48	211.586	86	104
211.48	211.586	98	104
211.586	211.698	74	85
211.586	211.698	86	85
211.698	211.811	87	96
211.698	211.811	99	96
211.811	211.924	75	81
211.811	211.924	87	81
211.924	212.035	86	97
211.924	212.035	98	97
212.035	216.54	74	81
212.035	216.54	86	81
212.146	212.368	87	94
212.146	212.368	99	94
212.257	213.14	73	81
212.257	216.54	85	81
212.368	212.589	87	94
212.368	212.589	99	94
212.479	213.361	70	81
212.479	216.54	82	81
212.589	212.81	87	96
212.589	212.81	99	96
212.699	213.581	67	82
212.699	216.54	79	82
212.81	213.03	87	97
212.81	213.03	99	97
212.92	213.803	63	82
212.92	216.54	75	82
213.03	213.251	87	99
213.03	213.251	99	99
213.14	214.028	61	84
213.14	216.54	73	84
213.251	213.471	87	99
213.251	213.471	99	99
213.361	214.256	58	85
213.361	216.54	70	85
213.471	213.692	87	100
213.471	213.692	99	100
213.581	214.486	55	86
213.581	216.54	67	86
213.692	213.915	87	101
213.692	213.915	99	101
213.803	214.72	51	88
213.803	216.54	63	88
213.915	214.141	87	102
213.915	214.141	99	102
214.028	216.54	49	88
214.028	216.54	61	88
214.141	214.37	87	103
214.141	214.37	99	103
214.256	216.54	46	89
214.256	216.54	58	89
214.37	214.602	87	103
214.37	214.602	99	103
214.486	216.54	43	90
214.486	216.54	55	90
214.602	214.854	87	104
214.602	214.854	99	104
214.72	216.54	39	91
214.72	216.54	51	91
214.854	214.979	87	91
214.854	214.979	99	91
214.979	215.104	87	86
214.979	215.104	99	86
215.104	215.228	87	90
215.104	215.228	99	90
215.228	215.352	87	85
215.228	215.352	99	85
215.352	215.474	87	88
215.352	215.474	99	88
215.474	215.595	87	85
215.474	215.595	99	85
215.595	215.715	87	86
215.595	215.715	99	86
215.715	215.834	87	85
215.715	215.834	99	85
215.834	215.943	87	84
215.834	215.943	99	84
215.943	216.051	87	82
215.943	216.051	99	82
216.051	216.16	87	82
216.051	216.16	99	82
216.16	216.27	87	81
216.16	216.27	99	81
216.27	216.379	87	80
216.27	216.379	99	80
216.379	216.489	87	78
216.379	216.489	99	78
216.489	216.598	87	79
216.489	216.598	99	79
216.598	216.706	87	77
216.598	216.706	99	77
216.706	217.27	63	81
216.706	216.835	87	85
216.706	216.835	99	85
216.835	216.963	87	78
216.835	216.963	99	78
216.963	217.27	75	89
216.963	217.082	87	78
216.963	217.082	99	78
217.082	217.2	87	78
217.082	217.2	99	78
217.2	217.318	87	74
217.2	217.318	99	74
217.318	217.436	87	74
217.318	217.436	99	74
217.436	217.55	85	70
217.436	217.55	97	70
217.55	217.663	85	69
217.55	217.663	97	69
217.663	217.888	32	64
217.663	217.888	44	72
217.663	217.775	83	74
217.663	217.775	95	74
217.775	217.888	83	74
217.775	217.888	95	74
217.888	218.0	51	59
217.888	218.0	59	59
217.888	218.0	63	66
217.888	218.0	83	74
217.888	218.0	95	74
218.0	218.112	51	59
218.0	218.112	59	59
218.0	218.112	63	66
218.0	218.112	83	74
218.0	218.112	95	74
218.112	218.337	56	59
218.112	218.337	59	59
218.112	218.337	63	66
218.112	218.224	82	69
218.112	218.224	94	69
218.224	218.337	82	69
218.224	218.337	94	69
218.337	218.557	35	72
218.337	218.557	47	72
218.337	218.447	80	70
218.337	218.447	92	70
218.447	218.557	80	70
218.447	218.557	92	70
218.557	218.667	51	59
218.557	218.667	59	59
218.557	218.667	63	66
218.557	218.667	79	69
218.557	218.667	91	69
218.667	218.777	51	59
218.667	218.777	59	59
218.667	218.777	63	66
218.667	218.777	79	69
218.667	218.777	91	69
218.777	218.993	56	59
218.777	218.993	59	59
218.777	218.993	63	66
218.777	218.885	80	69
218.777	218.885	92	69
218.885	218.993	80	69
218.885	218.993	92	69
218.993	219.214	39	62
218.993	219.214	51	70
218.993	219.104	82	74
218.993	219.104	94	74
219.104	219.214	82	74
219.104	219.214	94	74
219.214	219.325	55	59
219.214	219.325	63	59
219.214	219.325	67	66
219.214	219.325	75	69
219.214	219.325	87	69
219.325	219.435	55	59
219.325	219.435	63	59
219.325	219.435	67	66
219.325	219.435	75	69
219.325	219.435	87	69
219.435	219.65	58	59
219.435	219.65	63	59
219.435	219.65	67	66
219.435	219.543	75	69
219.435	219.543	87	69
219.543	219.65	75	69
219.543	219.65	87	69
219.65	219.866	43	67
219.65	219.866	55	67
219.65	219.758	76	72
219.65	219.758	88	72
219.758	219.866	76	72
219.758	219.866	88	72
219.866	219.974	61	53
219.866	219.974	63	53
219.866	219.974	70	60
219.866	219.974	75	72
219.866	219.974	87	72
219.974	220.082	61	53
219.974	220.082	63	53
219.974	220.082	70	60
219.974	220.082	75	69
219.974	220.082	87	69
220.082	220.297	61	53
220.082	220.297	63	53
220.082	220.297	70	60
220.082	220.189	73	69
220.082	220.189	85	69
220.189	220.297	73	69
220.189	220.297	85	69
220.297	220.513	44	61
220.297	220.513	56	69
220.297	220.405	71	70
220.297	220.405	83	70
220.405	220.513	71	70
220.405	220.513	83	70
220.513	220.622	59	55
220.513	220.622	63	55
220.513	220.622	68	61
220.513	220.622	71	70
220.513	220.622	83	70
220.622	220.73	59	55
220.622	220.73	63	55
220.622	220.73	68	61
220.622	220.73	71	69
220.622	220.73	83	69
220.73	220.943	59	55
220.73	220.943	63	61
220.73	220.837	70	70
220.73	220.837	82	70
220.837	220.943	70	70
220.837	220.943	82	70
220.943	221.158	40	66
220.943	221.051	68	73
220.943	221.051	80	73
221.051	221.158	68	73
221.051	221.158	80	73
221.158	221.265	58	57
221.158	221.265	62	63
221.158	221.265	67	69
221.158	221.265	79	69
221.265	221.371	58	57
221.265	221.371	62	63
221.265	221.371	67	69
221.265	221.371	79	69
221.371	221.582	58	57
221.371	221.582	62	63
221.371	221.476	68	71
221.371	221.476	80	71
221.476	221.582	68	70
221.476	221.582	80	70
221.582	221.799	39	67
221.582	221.69	70	73
221.582	221.69	82	73
221.69	221.799	70	72
221.69	221.799	82	72
221.799	221.913	55	56
221.799	221.913	58	62
221.799	221.913	63	66
221.799	221.913	75	66
221.913	222.029	55	56
221.913	222.029	58	62
221.913	222.029	63	66
221.913	222.029	75	66
222.029	222.304	55	58
222.029	222.304	58	58
222.029	222.304	63	64
222.029	222.167	75	70
222.029	222.167	87	70
222.167	222.304	75	70
222.167	222.304	87	70
222.304	222.559	67	58
222.304	222.559	70	58
222.304	222.559	75	64
222.304	222.431	87	86
222.304	222.431	99	86
222.431	222.559	87	86
222.431	222.559	99	86
222.559	222.687	87	86
222.559	222.687	99	86
222.687	222.814	87	86
222.687	222.814	99	86
222.814	222.94	85	84
222.814	222.94	97	84
222.94	223.065	85	84
222.94	223.065	97	84
223.065	223.31	32	77
223.065	223.31	44	85
223.065	223.188	84	84
223.065	223.188	96	84
223.188	223.31	84	84
223.188	223.31	96	84
223.31	223.433	54	56
223.31	223.433	57	56
223.31	223.433	63	62
223.31	223.433	84	81
223.31	223.433	96	81
223.433	223.555	54	56
223.433	223.555	57	56
223.433	223.555	63	62
223.433	223.555	84	81
223.433	223.555	96	81
223.555	223.803	54	56
223.555	223.803	57	56
223.555	223.803	63	62
223.555	223.679	81	79
223.555	223.679	93	79
223.679	223.803	81	79
223.679	223.803	93	79
223.803	224.041	36	79
223.803	224.041	48	89
223.803	223.922	80	82
223.803	223.922	92	82
223.922	224.041	80	82
223.922	224.041	92	82
224.041	224.16	57	59
224.041	224.16	63	59
224.041	224.16	69	67
224.041	224.16	80	82
224.041	224.16	92	82
224.16	224.279	57	59
224.16	224.279	63	59
224.16	224.279	69	67
224.16	224.279	80	82
224.16	224.279	92	82
224.279	224.523	57	59
224.279	224.523	63	59
224.279	224.523	69	67
224.279	224.401	78	85
224.279	224.401	90	85
224.401	224.523	78	85
224.401	224.523	90	85
224.523	224.777	37	92
224.523	224.777	49	92
224.523	224.777	76	91
224.523	224.777	88	91
224.777	224.902	52	49
224.777	224.902	57	49
224.777	224.902	61	56
224.777	224.902	64	55
224.777	224.902	69	55
224.777	224.902	73	61
224.902	225.027	52	49
224.902	225.027	57	49
224.902	225.027	61	56
224.902	225.027	64	55
224.902	225.027	69	55
224.902	225.027	73	61
225.027	225.151	51	53
225.027	225.151	57	53
225.027	225.151	61	60
225.027	225.151	64	57
225.027	225.151	69	57
225.027	225.151	75	63
225.151	225.274	51	53
225.151	225.274	57	53
225.151	225.274	61	60
225.151	225.274	64	57
225.151	225.274	69	57
225.151	225.274	75	63
225.274	225.396	49	56
225.274	225.396	57	56
225.274	225.396	61	62
225.274	225.396	64	61
225.274	225.396	69	61
225.274	225.396	76	69
225.396	225.517	49	56
225.396	225.517	57	56
225.396	225.517	61	62
225.396	225.517	64	61
225.396	225.517	69	61
225.396	225.517	76	69
225.517	225.638	51	53
225.517	225.638	57	53
225.517	225.638	61	60
225.517	225.638	64	59
225.517	225.638	69	59
225.517	225.638	75	67
225.638	225.758	51	53
225.638	225.758	57	53
225.638	225.758	61	60
225.638	225.758	64	59
225.638	225.758	69	59
225.638	225.758	75	67
225.758	225.879	52	50
225.758	225.879	57	50
225.758	225.879	61	57
225.758	225.879	64	56
225.758	225.879	69	56
225.758	225.879	73	62
225.879	225.999	52	50
225.879	225.999	57	50
225.879	225.999	61	57
225.879	225.999	64	56
225.879	225.999	69	56
225.879	225.999	73	62
225.999	226.132	51	46
225.999	226.132	56	46
225.999	226.132	59	51
225.999	226.132	63	51
225.999	226.132	68	51
225.999	226.132	71	51
225.999	226.132	75	58
226.132	226.252	50	52
226.132	226.252	62	52
226.132	226.252	64	60
226.132	226.252	76	60
226.252	226.372	49	53
226.252	226.372	61	53
226.252	226.372	65	61
226.252	226.372	77	61
226.372	226.493	48	55
226.372	226.493	60	55
226.372	226.493	66	62
226.372	226.493	78	62
226.493	226.613	47	56
226.493	226.613	59	56
226.493	226.613	67	64
226.493	226.613	79	64
226.613	226.733	46	57
226.613	226.733	58	57
226.613	226.733	68	66
226.613	226.733	80	66
226.733	226.853	45	60
226.733	226.853	57	60
226.733	226.853	69	67
226.733	226.853	81	67
226.853	226.973	44	61
226.853	226.973	56	61
226.853	226.973	70	69
226.853	226.973	82	69
226.973	227.091	43	62
226.973	227.091	55	62
226.973	227.091	71	70
226.973	227.091	83	70
227.091	227.21	42	63
227.091	227.21	54	63
227.091	227.21	72	72
227.091	227.21	84	72
227.21	227.328	41	64
227.21	227.328	53	64
227.21	227.328	73	74
227.21	227.328	85	74
227.328	227.446	40	66
227.328	227.446	52	66
227.328	227.446	74	75
227.328	227.446	86	75
227.446	227.563	39	63
227.446	227.563	43	63
227.446	227.563	46	63
227.446	227.563	51	63
227.446	227.563	75	69
227.446	227.563	79	69
227.446	227.563	82	69
227.446	227.563	87	69
227.563	227.679	38	69
227.563	227.679	50	69
227.563	227.679	76	79
227.563	227.679	88	79
227.679	227.795	37	70
227.679	227.795	49	70
227.679	227.795	77	80
227.679	227.795	89	80
227.795	227.909	36	72
227.795	227.909	48	72
227.795	227.909	78	81
227.795	227.909	90	81
227.909	228.023	35	73
227.909	228.023	47	73
227.909	228.023	79	84
227.909	228.023	91	84
228.023	228.138	34	74
228.023	228.138	46	74
228.023	228.138	80	85
228.023	228.138	92	85
228.138	228.255	33	77
228.138	228.255	45	77
228.138	228.255	81	86
228.138	228.255	93	86
228.255	228.376	32	78
228.255	228.376	44	78
228.255	228.376	82	88
228.255	228.376	94	88
228.376	228.5	31	75
228.376	228.5	43	75
228.376	228.5	83	90
228.376	228.5	95	90
228.5	228.627	30	75
228.5	228.627	42	75
228.5	228.627	85	93
228.5	228.627	97	93
228.627	228.759	28	77
228.627	228.759	40	77
228.627	228.759	86	96
228.627	228.759	98	96
228.759	228.892	27	79
228.759	228.892	39	79
228.759	228.892	87	100
228.759	228.892	99	100
228.904	229.164	32	81
228.904	229.164	44	90
228.904	229.164	59	99
228.904	229.164	63	99
228.904	229.164	68	110
229.164	229.289	39	81
229.164	229.289	51	81
229.289	229.415	44	81
229.289	229.415	56	81
229.415	229.595	51	77
229.415	229.595	63	77
229.415	229.595	71	90
229.415	229.595	75	90
229.415	229.595	83	90
229.655	229.891	32	90
229.655	229.891	44	90
229.655	229.774	70	82
229.655	229.774	75	82
229.655	229.774	82	82
229.774	229.891	71	82
229.774	229.891	83	82
229.891	230.01	39	82
229.891	230.01	51	82
229.891	230.07	73	92
229.891	230.07	85	92
230.01	230.129	44	82
230.01	230.129	56	82
230.129	230.303	51	78
230.129	230.303	63	78
230.129	230.245	71	82
230.129	230.245	75	82
230.129	230.245	83	82
230.245	230.361	70	82
230.245	230.361	82	82
230.361	230.595	32	90
230.361	230.595	44	90
230.361	230.475	71	83
230.361	230.475	75	83
230.361	230.475	83	83
230.475	230.595	73	86
230.475	230.595	85	86
230.595	230.713	39	81
230.595	230.713	51	81
230.595	230.771	75	93
230.595	230.771	87	93
230.713	230.83	44	81
230.713	230.83	56	81
230.83	231.004	51	75
230.83	231.004	63	75
230.83	230.946	73	85
230.83	230.946	85	85
230.946	231.062	71	84
230.946	231.062	83	84
231.062	231.298	32	90
231.062	231.298	44	90
231.062	231.177	70	83
231.062	231.177	75	83
231.062	231.177	82	83
231.177	231.298	71	83
231.177	231.298	83	83
231.298	231.417	39	82
231.298	231.417	51	82
231.298	231.476	73	90
231.298	231.476	85	90
231.417	231.535	44	82
231.417	231.535	56	82
231.535	231.712	51	79
231.535	231.712	63	79
231.535	231.651	71	83
231.535	231.651	75	83
231.535	231.651	83	83
231.651	231.773	70	83
231.651	231.773	82	83
231.773	232.007	32	90
231.773	232.007	44	90
231.773	231.889	71	90
231.773	231.889	75	90
231.773	231.889	83	90
231.889	232.007	70	85
231.889	232.007	82	85
232.007	232.128	39	81
232.007	232.128	51	81
232.007	232.248	68	85
232.007	232.248	80	85
232.128	232.248	44	81
232.128	232.248	56	81
232.248	232.426	51	78
232.248	232.426	63	78
232.248	232.426	83	90
232.248	232.426	87	90
232.248	232.426	95	90
232.485	232.72	32	90
232.485	232.72	44	90
232.485	232.6	82	83
232.485	232.6	87	83
232.485	232.6	94	83
232.6	232.72	83	83
232.6	232.72	95	83
232.72	232.837	39	82
232.72	232.837	51	82
232.72	232.896	85	93
232.72	232.896	97	93
232.837	232.954	44	82
232.837	232.954	56	82
232.954	233.128	51	78
232.954	233.128	63	78
232.954	233.07	83	81
232.954	233.07	87	81
232.954	233.07	95	81
233.07	233.186	82	81
233.07	233.186	94	81
233.186	233.418	32	90
233.186	233.418	44	90
233.186	233.303	83	83
233.186	233.303	87	83
233.186	233.303	95	83
233.303	233.418	85	86
233.303	233.418	97	86
233.418	233.535	39	81
233.418	233.535	51	81
233.418	233.593	87	93
233.418	233.593	99	93
233.535	233.652	44	81
233.535	233.652	56	81
233.652	233.825	51	79
233.652	233.825	63	79
233.652	233.768	85	82
233.652	233.768	97	82
233.768	233.883	83	82
233.768	233.883	95	82
233.883	234.115	32	90
233.883	234.115	44	90
233.883	234.0	82	82
233.883	234.0	87	82
233.883	234.0	94	82
234.0	234.115	83	82
234.0	234.115	95	82
234.115	234.232	39	83
234.115	234.232	51	83
234.115	234.29	85	93
234.115	234.29	97	93
234.232	234.349	44	83
234.232	234.349	56	83
234.349	234.523	51	79
234.349	234.523	63	79
234.349	234.463	83	84
234.349	234.463	87	84
234.349	234.463	95	84
234.463	234.582	82	85
234.463	234.582	94	85
234.582	234.816	32	90
234.582	234.816	44	90
234.582	234.698	83	93
234.582	234.698	87	93
234.582	234.698	95	93
234.698	234.816	82	85
234.698	234.816	94	85
234.816	234.937	39	83
234.816	234.937	51	83
234.816	235.059	80	85
234.816	235.059	92	85
234.937	235.059	44	83
234.937	235.059	56	83
235.059	235.299	47	89
235.059	235.299	51	89
235.059	235.299	59	89
235.059	235.299	63	83
235.059	235.299	71	83
235.059	235.299	75	83
235.299	235.415	46	84
235.299	235.415	51	84
235.299	235.415	58	84
235.299	235.415	63	73
235.299	235.415	70	73
235.299	235.415	75	73
235.415	235.538	47	84
235.415	235.538	51	84
235.415	235.538	59	84
235.415	235.538	63	73
235.415	235.538	71	73
235.415	235.538	75	73
235.538	235.778	49	89
235.538	235.778	51	89
235.538	235.778	61	89
235.538	235.778	63	79
235.538	235.778	73	79
235.538	235.778	75	79
235.778	235.894	47	83
235.778	235.894	51	83
235.778	235.894	59	83
235.778	235.894	63	75
235.778	235.894	71	75
235.778	235.894	75	75
235.894	236.018	46	83
235.894	236.018	51	83
235.894	236.018	58	83
235.894	236.018	63	75
235.894	236.018	70	75
235.894	236.018	75	75
236.018	236.139	47	89
236.018	236.139	51	89
236.018	236.139	59	89
236.018	236.139	63	80
236.018	236.139	71	80
236.018	236.139	75	80
236.139	236.265	46	85
236.139	236.265	51	85
236.139	236.265	58	85
236.139	236.265	63	75
236.139	236.265	70	75
236.139	236.265	75	75
236.265	236.507	44	85
236.265	236.507	51	85
236.265	236.507	56	85
236.265	236.507	63	75
236.265	236.507	68	75
236.265	236.507	75	75
236.507	236.762	32	106
236.507	236.762	39	106
236.507	236.762	44	106
236.507	236.762	75	111
236.507	236.762	80	111
236.507	236.762	87	111
236.762	236.887	46	84
236.762	236.887	51	84
236.762	236.887	58	84
236.762	236.887	63	73
236.762	236.887	70	73
236.762	236.887	75	73
236.887	237.021	47	84
236.887	237.021	51	84
236.887	237.021	59	84
236.887	237.021	63	73
236.887	237.021	71	73
236.887	237.021	75	73
237.021	237.271	49	89
237.021	237.271	51	89
237.021	237.271	61	89
237.021	237.271	63	79
237.021	237.271	73	79
237.021	237.271	75	79
237.271	237.393	47	83
237.271	237.393	51	83
237.271	237.393	59	83
237.271	237.393	63	75
237.271	237.393	71	75
237.271	237.393	75	75
237.393	237.526	46	83
237.393	237.526	51	83
237.393	237.526	58	83
237.393	237.526	63	75
237.393	237.526	70	75
237.393	237.526	75	75
237.526	237.654	47	89
237.526	237.654	51	89
237.526	237.654	59	89
237.526	237.654	63	80
237.526	237.654	71	80
237.526	237.654	75	80
237.654	237.782	46	85
237.654	237.782	51	85
237.654	237.782	58	85
237.654	237.782	63	75
237.654	237.782	70	75
237.654	237.782	75	75
237.782	238.02	44	85
237.782	238.02	51	85
237.782	238.02	56	85
237.782	238.02	63	75
237.782	238.02	68	75
237.782	238.02	75	75
238.02	238.256	32	106
238.02	238.256	39	106
238.02	238.256	44	106
238.02	238.256	75	111
238.02	238.256	80	111
238.02	238.256	87	111
238.256	238.367	47	89
238.256	238.367	51	89
238.256	238.367	59	89
238.256	238.367	63	80
238.256	238.367	71	80
238.256	238.367	75	80
238.367	238.486	46	85
238.367	238.486	51	85
238.367	238.486	58	85
238.367	238.486	63	75
238.367	238.486	70	75
238.367	238.486	75	75
238.486	238.716	44	85
238.486	238.716	51	85
238.486	238.716	56	85
238.486	238.716	63	75
238.486	238.716	68	75
238.486	238.716	75	75
238.716	238.95	32	106
238.716	238.95	39	106
238.716	238.95	44	106
238.716	238.95	80	115
238.716	238.95	87	115
238.716	238.95	92	115
238.95	239.062	47	89
238.95	239.062	51	89
238.95	239.062	59	89
238.95	239.062	63	80
238.95	239.062	71	80
238.95	239.062	75	80
239.062	239.18	46	85
239.062	239.18	51	85
239.062	239.18	58	85
239.062	239.18	63	75
239.062	239.18	70	75
239.062	239.18	75	75
239.18	239.408	44	85
239.18	239.408	51	85
239.18	239.408	56	85
239.18	239.408	63	75
239.18	239.408	68	75
239.18	239.408	75	75
239.408	239.641	32	108
239.408	239.641	39	108
239.408	239.641	44	108
239.408	239.641	83	117
239.408	239.641	87	117
239.408	239.641	95	117
239.641	239.751	47	89
239.641	239.751	51	89
239.641	239.751	59	89
239.641	239.751	63	80
239.641	239.751	71	80
239.641	239.751	75	80
239.751	239.871	46	85
239.751	239.871	51	85
239.751	239.871	58	85
239.751	239.871	63	75
239.751	239.871	70	75
239.751	239.871	75	75
239.871	240.125	44	85
239.871	240.125	51	85
239.871	240.125	56	85
239.871	240.125	63	75
239.871	240.125	68	75
239.871	240.125	75	75
240.125	240.636	32	108
240.125	240.636	39	108
240.125	240.636	44	108
240.125	240.636	87	119
240.125	240.636	92	119
240.125	240.636	99	119
240.636	240.803	44	75
240.636	240.803	51	75
240.636	240.803	56	75
240.636	240.803	87	102
240.636	240.803	92	102
240.636	240.803	99	102
240.803	240.971	56	78
240.803	240.971	63	78
240.803	240.971	68	78
240.803	240.971	87	104
240.803	240.971	92	104
240.803	240.971	99	104
240.971	241.139	68	82
240.971	241.139	75	82
240.971	241.139	80	82
240.971	241.139	87	102
240.971	241.139	92	102
240.971	241.139	99	102
241.139	241.306	56	85
241.139	241.306	63	85
241.139	241.306	68	85
241.139	241.306	87	104
241.139	241.306	92	104
241.139	241.306	99	104
241.306	241.473	44	84
241.306	242.182	51	84
241.306	242.182	56	84
241.306	241.473	87	112
241.306	241.473	92	112
241.306	241.473	99	112
241.473	244.26	32	88
241.473	244.26	39	88
241.473	242.182	44	88
241.473	242.911	87	117
241.473	242.911	92	117
241.473	244.26	99	117
242.182	244.26	44	96
242.182	244.26	51	96
242.182	244.26	56	96
242.182	242.911	59	104
242.182	242.911	63	104
242.182	242.911	68	104
242.911	244.368	59	101
242.911	244.368	63	101
242.911	244.368	68	101
242.911	244.368	71	101
242.911	244.368	80	101
242.911	244.368	83	101
242.911	244.368	87	101
242.911	244.368	92	106
