OnsetTime	OffsetTime	MidiPitch	Velocity
0.514998	3.32197	44	79
0.518994	3.32197	56	79
3.24898	6.21006	37	75
3.25299	4.03299	49	75
3.42399	3.918	56	60
3.54999	3.79499	61	64
3.67299	4.39299	64	65
3.79499	4.27099	61	62
3.918	4.15499	56	61
4.03299	4.74101	49	57
4.15499	4.625	56	58
4.27099	4.509	61	60
4.39299	5.09403	64	60
4.509	4.97802	61	58
4.625	4.85602	56	57
4.74101	5.44304	49	53
4.85602	5.32503	56	54
4.97802	5.20903	61	55
5.09403	5.80704	64	54
5.20903	5.68605	61	52
5.32503	5.56304	56	50
5.44304	6.20705	49	45
5.56304	6.06304	56	47
5.68605	5.93005	61	49
5.80704	6.21006	64	46
5.93005	6.21006	61	43
6.06304	6.21006	56	38
6.20705	6.92706	49	22
6.29704	6.46905	68	37
6.32504	6.79405	56	25
6.38204	6.92706	69	41
6.44105	6.68006	61	28
6.46905	6.65206	68	38
6.56405	6.92706	64	30
6.56405	6.92706	67	39
6.65206	6.92706	68	40
6.68006	6.92706	61	28
6.73506	6.92706	73	42
6.79405	6.92706	56	27
6.82306	6.92706	76	43
6.92006	7.00406	75	45
6.92106	7.03206	52	26
7.00505	7.08805	73	43
7.03305	7.14806	56	28
7.08805	7.17605	75	45
7.14806	7.27007	61	30
7.17906	7.27306	73	43
7.27406	7.38607	64	31
7.27406	7.35807	72	44
7.35906	7.44208	73	46
7.38607	7.50107	61	28
7.44507	7.52907	76	49
7.50208	7.63407	56	27
7.53307	7.63507	80	47
7.63806	8.36608	49	27
7.73906	7.91507	68	45
7.77106	8.24009	56	30
7.82707	8.36608	69	49
7.88707	8.12507	61	34
7.91507	8.08908	68	45
8.00307	8.36608	67	46
8.00507	8.36608	64	36
8.08908	8.36608	68	48
8.12507	8.36608	61	34
8.18108	8.36608	73	50
8.24009	8.36608	56	33
8.27108	8.36608	76	51
8.35609	8.44308	75	54
8.35908	8.47808	52	31
8.44308	8.53408	73	51
8.47808	8.59308	56	33
8.53408	8.62108	75	53
8.59408	8.71609	61	36
8.62508	8.71609	73	51
8.71708	8.79707	72	52
8.71908	8.83107	64	37
8.79707	8.88708	73	54
8.83208	8.94708	61	34
8.89107	8.97808	76	57
8.94808	9.08007	56	32
8.97908	9.08407	80	55
9.08407	10.5191	51	31
9.18409	10.1641	69	55
9.21708	9.6921	57	35
9.27309	10.5191	73	55
9.3321	9.57109	61	39
9.3601	10.5191	75	58
9.45509	10.5191	78	61
9.45609	10.5191	66	45
9.53909	10.5191	81	64
9.57109	9.92411	61	39
9.6341	10.4211	85	67
9.6921	10.5191	57	37
9.72111	10.2501	87	70
9.80811	10.5191	95	74
9.8121	10.5191	54	37
9.89611	10.5191	93	72
9.92411	10.3931	61	40
9.98311	10.5191	92	71
10.0461	10.2781	63	44
10.0741	10.3361	90	70
10.1621	10.5191	88	69
10.1641	10.5191	69	46
10.2501	10.5191	87	68
10.2781	10.5191	63	44
10.3361	10.5191	90	67
10.3931	10.5191	61	41
10.4211	10.5191	85	66
10.5151	11.9672	84	68
10.5181	11.2222	44	33
10.6021	11.9672	87	63
10.6341	11.0962	51	35
10.6901	10.9531	81	63
10.7461	10.9802	54	38
10.7781	11.9672	80	63
10.8661	11.5752	60	39
10.8661	11.2192	78	60
10.9531	11.9672	81	58
10.9802	11.4502	54	36
11.0442	11.9672	76	54
11.0962	11.3342	51	34
11.1311	11.4812	75	54
11.2192	11.9672	78	53
11.2222	11.9672	44	29
11.3062	11.9672	73	48
11.3342	11.8212	51	31
11.3902	11.9672	72	48
11.4502	11.6952	54	33
11.4812	11.9672	75	47
11.5732	11.8532	69	45
11.5752	11.9672	60	33
11.6672	11.9672	68	42
11.6952	11.9672	54	29
11.7512	11.9672	71	42
11.8212	11.9672	51	26
11.8532	12.1432	69	41
11.9672	12.6852	49	22
12.0552	12.2262	68	37
12.0832	12.5592	56	25
12.1432	12.6852	69	41
12.1992	12.4372	61	28
12.2262	12.4092	68	38
12.3212	12.6852	67	39
12.3252	12.6852	64	30
12.4092	12.6852	68	40
12.4372	12.6852	61	28
12.4972	12.6852	73	42
12.5592	12.6852	56	27
12.5872	12.6852	76	43
12.6752	12.7612	75	45
12.6782	12.7892	52	26
12.7621	12.8492	73	43
12.7932	12.9122	56	28
12.8501	12.9402	75	45
12.9122	13.0282	61	30
12.9412	13.0322	73	43
13.0322	13.1152	72	44
13.0332	13.1432	64	31
13.1162	13.2032	73	46
13.1482	13.2662	61	28
13.2042	13.2872	76	49
13.2692	13.3982	56	27
13.2912	13.4032	80	47
13.4032	14.1302	49	27
13.4972	13.6792	68	45
13.5292	14.0052	56	30
13.5912	14.1302	70	49
13.6512	13.8892	58	34
13.6792	13.8612	68	45
13.7672	14.1302	67	46
13.7702	14.1302	64	36
13.8612	14.1302	68	48
13.8892	14.1302	58	34
13.9452	14.1302	73	50
14.0052	14.1302	56	33
14.0332	14.1302	76	51
14.1232	14.2142	75	54
14.1242	14.2392	52	31
14.2152	14.2992	73	51
14.2422	14.3572	56	33
14.2992	14.3852	75	53
14.3582	14.4732	58	36
14.3862	14.4772	73	51
14.4782	14.5962	61	37
14.4782	14.5682	72	52
14.5682	14.6522	73	54
14.5962	14.7112	58	34
14.6522	14.7392	76	57
14.7122	14.8482	56	32
14.7432	14.8492	80	55
14.8492	15.5812	51	30
14.8492	15.0372	75	64
14.9502	16.2832	76	58
14.9812	15.4572	56	34
15.0372	15.2192	75	61
15.1012	15.3382	59	37
15.1322	16.2832	74	50
15.2192	16.2832	75	56
15.2202	16.2832	63	39
15.3102	15.9272	83	68
15.3382	16.2832	59	38
15.3982	16.0142	82	62
15.4572	16.2832	56	35
15.4862	16.1052	80	65
15.5802	16.1922	79	69
15.5812	16.2832	51	38
15.6672	16.2832	88	73
15.6942	16.1642	58	41
15.7522	16.2832	87	72
15.8102	16.0422	61	45
15.8382	16.2832	85	72
15.9272	16.2832	83	75
15.9302	16.2832	67	46
16.0142	16.2802	82	69
16.0422	16.2832	61	44
16.1052	16.2832	80	68
16.1642	16.2832	58	41
16.1922	16.2832	79	68
16.2802	17.7223	82	72
16.2832	16.9873	44	33
16.3682	16.8082	80	70
16.3962	16.8643	51	35
16.4542	17.7223	83	64
16.5142	16.7492	56	37
16.5422	17.7223	74	57
16.6332	17.7223	76	65
16.6372	17.3413	59	39
16.7213	17.1653	75	57
16.7492	17.2213	56	39
16.8082	17.7223	80	63
16.8643	17.0992	51	37
16.8963	17.3403	70	57
16.9832	17.7223	73	61
16.9873	17.7223	44	33
17.0702	17.7223	71	59
17.0992	17.5853	51	35
17.1653	17.7223	75	58
17.2213	17.4603	56	38
17.2492	17.5223	67	56
17.3403	17.7223	70	60
17.3413	17.7223	59	39
17.4313	17.6203	68	51
17.4603	17.7223	56	35
17.5223	17.7223	67	55
17.5853	17.7223	51	33
17.6203	17.7213	68	50
17.7213	19.3602	68	72
17.7223	18.5412	45	39
17.8303	19.3602	80	58
17.8583	18.4052	49	41
17.9283	18.3352	72	59
17.9993	18.2712	54	43
18.0343	18.4392	73	59
18.1393	18.9472	66	71
18.1422	18.9482	57	45
18.2363	19.0442	78	60
18.2712	18.8102	54	44
18.3352	18.7412	72	60
18.4052	18.6712	49	42
18.4392	18.8422	73	61
18.5382	19.3602	65	75
18.5412	19.3602	45	42
18.6432	19.3602	77	62
18.6712	19.2162	49	44
18.7412	19.1462	72	63
18.8102	19.0762	54	45
18.8422	19.2512	73	63
18.9472	19.3602	66	74
18.9482	19.3602	57	45
19.0442	19.3602	78	65
19.0762	19.3602	54	45
19.1462	19.3602	72	64
19.2162	19.3602	49	44
19.2512	19.3602	73	64
19.3592	20.2132	61	77
19.3602	20.2132	47	44
19.4542	20.2132	73	65
19.4892	20.0292	54	46
19.5592	19.9592	66	65
19.6232	19.8952	57	48
19.6602	20.0662	69	65
19.7662	20.2132	63	75
19.7672	20.2132	59	49
19.8602	20.2132	75	65
19.8952	20.2132	57	47
19.9592	20.2132	66	65
20.0292	20.2132	54	45
20.0662	20.2132	69	65
20.1652	20.9812	64	79
20.1682	20.9812	40	45
20.2622	20.8792	76	66
20.2982	20.8402	47	46
20.3672	20.5712	68	66
20.4312	20.7032	52	48
20.4662	20.7742	71	66
20.5712	20.9772	68	77
20.5742	20.9812	56	47
20.6692	20.9812	80	67
20.7032	20.9812	52	46
20.7742	20.9812	71	66
20.8402	20.9812	47	45
20.8792	20.9812	76	65
20.9772	22.6051	68	81
20.9802	21.7922	45	44
21.0822	22.6051	80	65
21.1172	21.6562	49	46
21.1802	21.5862	72	65
21.2502	21.5232	54	48
21.2842	21.6942	73	65
21.3842	22.1922	66	78
21.3862	22.1922	57	49
21.4882	22.2932	78	65
21.5232	22.0552	54	47
21.5862	21.9952	72	65
21.6562	21.9222	49	45
21.6942	22.0902	73	65
21.7902	22.6011	65	79
21.7922	22.6051	45	45
21.8872	22.6051	77	66
21.9222	22.4612	49	46
21.9952	22.3942	72	66
22.0552	22.3311	54	48
22.0902	22.4981	73	66
22.1922	22.6051	57	47
22.1922	22.6051	66	77
22.2932	22.6051	78	67
22.3311	22.6051	54	46
22.3942	22.6051	72	66
22.4612	22.6051	49	45
22.4981	22.6051	73	65
22.6011	24.3121	65	81
22.6041	23.5951	47	44
22.7061	24.3121	77	65
22.7411	23.3001	51	46
22.8111	23.2301	71	65
22.8741	23.1541	57	48
22.9091	23.3391	75	65
23.0151	24.3121	66	78
23.0171	24.3121	59	49
23.1191	24.3121	78	65
23.1541	24.3121	57	47
23.2301	23.6651	71	65
23.3001	24.3121	51	45
23.3391	24.3121	75	65
23.4511	24.3121	40	45
23.4511	24.3121	69	79
23.5601	24.3121	81	66
23.5951	24.1621	47	46
23.6651	24.0921	71	66
23.7351	24.0181	52	48
23.7661	24.2041	76	66
23.8811	24.3101	68	77
23.8821	24.3121	56	47
23.9831	24.3121	80	67
24.0181	24.3121	52	46
24.0921	24.3121	71	66
24.1621	24.3121	47	45
24.2041	24.3121	76	65
24.3101	25.936	68	52
24.3121	25.125	45	30
24.4141	25.936	80	57
24.4491	24.9881	49	33
24.5121	24.9171	72	47
24.5821	24.8481	54	34
24.6161	25.0161	73	47
24.7221	25.524	57	35
24.7221	25.523	66	49
24.8201	25.628	78	54
24.8481	25.39	54	34
24.9171	25.32	72	48
24.9881	25.2531	49	34
25.0161	25.422	73	48
25.121	25.936	65	51
25.125	25.936	45	34
25.219	25.936	77	56
25.2531	25.793	49	34
25.32	25.726	72	50
25.39	25.656	54	36
25.422	25.828	73	50
25.523	25.936	66	53
25.524	25.936	57	36
25.628	25.936	78	58
25.656	25.936	54	35
25.726	25.936	72	51
25.793	25.936	49	34
25.828	25.936	73	51
25.934	26.793	61	55
25.936	26.793	47	34
26.038	26.793	73	60
26.073	26.608	54	37
26.136	26.542	66	52
26.206	26.472	57	38
26.234	26.643	69	53
26.342	26.793	63	55
26.343	26.793	59	39
26.441	26.793	75	62
26.472	26.793	57	38
26.542	26.793	66	54
26.608	26.793	54	38
26.643	26.793	69	54
26.742	27.564	64	57
26.744	27.564	40	37
26.847	27.456	76	65
26.874	27.421	47	39
26.944	27.148	68	56
27.014	27.28	52	40
27.046	27.35	71	56
27.148	27.561	68	60
27.15	27.564	56	40
27.245	27.564	80	68
27.28	27.564	52	40
27.35	27.564	71	57
27.421	27.564	47	39
27.456	27.564	76	58
27.561	28.421	68	62
27.564	28.369	45	39
27.658	28.421	80	68
27.694	28.232	49	42
27.764	28.17	72	59
27.83	28.1	54	43
27.868	28.267	73	59
27.966	28.421	66	62
27.97	28.421	57	45
28.065	28.421	78	70
28.1	28.421	54	43
28.17	28.421	72	61
28.232	28.421	49	42
28.267	28.421	73	61
28.369	29.237	45	42
28.369	29.237	75	64
28.471	29.237	87	73
28.505	29.045	51	44
28.568	28.978	78	62
28.638	28.911	54	45
28.67	29.08	81	62
28.774	29.185	73	66
28.775	29.237	57	44
28.876	29.237	85	74
28.911	29.237	54	44
28.978	29.237	78	62
29.045	29.237	51	42
29.08	29.237	81	62
29.185	29.583	73	64
29.188	29.583	44	42
29.289	29.583	85	73
29.32	29.583	51	44
29.388	29.583	75	61
29.458	29.59	54	45
29.492	29.59	78	61
29.591	29.997	72	64
29.594	30.399	60	42
29.696	30.094	84	71
29.73	30.266	54	42
29.793	30.196	75	60
29.863	30.133	51	40
29.902	30.3	78	59
29.997	30.398	72	60
30.0	30.861	44	39
30.094	30.504	84	69
30.133	30.672	51	41
30.196	30.602	75	58
30.266	30.539	54	42
30.3	30.706	78	58
30.398	30.813	72	61
30.399	30.861	60	40
30.504	30.861	84	68
30.539	30.861	54	39
30.602	30.861	75	57
30.672	30.861	51	38
30.706	30.861	78	56
30.813	31.21	45	38
30.813	31.21	72	57
30.91	31.21	84	65
30.944	31.21	51	39
31.014	31.21	75	55
31.084	31.217	54	40
31.116	31.218	78	55
31.218	31.6239	71	58
31.2189	31.6509	59	38
31.323	31.6509	83	64
31.3499	31.6509	54	38
31.42	31.6509	75	53
31.491	31.6509	51	36
31.519	31.6509	78	53
31.6239	32.04	71	54
31.6269	32.04	46	35
31.722	32.04	83	62
31.758	32.04	51	37
31.82	32.04	75	52
31.89	32.04	54	38
31.9249	32.04	78	52
32.023	32.43	70	54
32.0259	32.485	58	36
32.121	32.485	82	60
32.156	32.485	54	35
32.226	32.485	75	50
32.296	32.485	51	34
32.331	32.485	78	50
32.43	32.835	70	55
32.432	32.835	48	34
32.54	32.835	82	49
32.569	32.835	51	34
32.638	32.835	75	48
32.705	32.842	54	35
32.737	32.842	78	48
32.843	33.2449	69	53
32.845	33.6509	57	34
32.943	33.3449	81	48
32.975	33.5139	54	34
33.045	33.4439	75	47
33.1079	33.3739	51	32
33.143	33.5519	78	47
33.2449	34.1229	48	31
33.2449	33.6509	69	52
33.3449	33.7479	81	49
33.3739	33.9269	51	33
33.4439	33.8539	75	45
33.5139	33.7829	54	33
33.5519	33.9619	78	45
33.6509	34.1229	57	31
33.6509	34.1229	69	51
33.7479	34.1229	81	47
33.7829	34.1229	54	31
33.8539	34.1229	75	44
33.9269	34.1229	51	29
33.9619	34.1229	78	44
34.0679	34.4899	72	52
34.0699	34.4899	45	28
34.1819	34.4899	84	47
34.2139	34.4899	51	29
34.2869	34.4899	75	46
34.3569	34.4969	54	29
34.3919	34.4969	78	46
34.4969	34.9209	71	49
34.4979	34.9549	59	31
34.6019	34.9549	83	44
34.6409	34.9549	54	29
34.7109	34.9549	75	44
34.7809	34.9549	51	28
34.8159	34.9549	78	44
34.9209	35.3619	71	48
34.9239	35.3619	46	25
35.0259	35.3619	83	45
35.0609	35.3619	51	26
35.1309	35.3619	75	42
35.1979	35.3619	54	27
35.2359	35.3619	78	42
35.3409	35.7749	70	47
35.3419	35.8299	58	28
35.4489	35.8299	82	43
35.4849	35.8299	54	27
35.5539	35.8299	75	40
35.6269	35.8299	51	25
35.6639	35.8299	78	40
35.7749	36.2009	47	24
35.7749	36.2009	70	46
35.8839	36.2009	82	42
35.9179	36.2009	51	26
35.9879	36.2009	75	41
36.0619	36.2079	54	27
36.0999	36.2089	78	41
36.2089	36.6399	69	44
36.2119	36.6709	57	28
36.3169	36.6709	81	40
36.3519	36.6709	54	27
36.4219	36.6709	75	40
36.4999	36.6709	51	25
36.5349	36.6709	78	39
36.6399	37.1009	48	22
36.6399	37.1009	69	43
36.7479	37.1009	81	40
36.7829	37.1009	51	23
36.8529	37.1009	75	37
36.9299	37.1009	54	24
36.9679	37.1009	78	37
37.0799	37.5519	68	42
37.0809	37.5519	56	24
37.1959	37.5519	80	38
37.2309	37.5519	54	23
37.3109	37.5519	75	36
37.3919	37.5519	51	22
37.4309	37.5519	78	35
37.5499	38.2809	49	22
37.6539	37.8299	68	37
37.6819	38.1519	56	25
37.7419	38.2809	69	41
37.7979	38.0359	61	28
37.8299	38.0079	68	38
37.9169	38.2809	67	39
37.9179	38.2809	64	30
38.0079	38.2809	68	40
38.0359	38.2809	61	28
38.0959	38.2809	73	42
38.1519	38.2809	56	27
38.1829	38.2809	76	43
38.2699	38.3579	75	45
38.2709	38.3809	52	26
38.3579	38.4449	73	43
38.3859	38.5009	56	28
38.4459	38.5359	75	45
38.5019	38.6199	61	30
38.5369	38.6239	73	43
38.6249	38.7099	72	44
38.6269	38.7399	64	31
38.7109	38.7979	73	46
38.7399	38.8539	61	28
38.7989	38.8829	76	49
38.8549	38.9949	56	27
38.8859	38.9949	80	47
38.9949	39.723	49	27
39.0989	39.2709	68	45
39.1309	39.6	56	30
39.1879	39.723	69	49
39.2429	39.482	61	34
39.2709	39.454	68	45
39.3629	39.723	67	46
39.364	39.723	64	36
39.454	39.723	68	48
39.482	39.723	61	34
39.5409	39.723	73	50
39.6	39.723	56	33
39.628	39.723	76	51
39.723	39.834	52	31
39.723	39.8029	75	54
39.804	39.894	73	51
39.838	39.95	56	33
39.894	39.982	75	53
39.954	40.069	61	36
39.982	40.07	73	51
40.07	40.153	72	52
40.073	40.185	64	37
40.154	40.241	73	54
40.186	40.3	61	34
40.244	40.328	76	57
40.3	40.44	56	32
40.332	40.441	80	55
40.441	41.879	51	31
40.538	41.523	69	56
40.57	41.05	57	35
40.633	41.879	73	57
40.692	40.93	61	39
40.72	41.879	75	59
40.815	41.879	78	61
40.816	41.879	66	45
40.899	41.879	81	66
40.93	41.284	61	39
40.987	41.788	85	69
41.05	41.879	57	37
41.078	41.606	87	71
41.168	41.879	95	73
41.169	41.879	54	37
41.252	41.879	93	71
41.284	41.759	61	40
41.347	41.879	92	71
41.406	41.638	63	44
41.434	41.701	90	70
41.523	41.879	69	46
41.523	41.879	88	69
41.606	41.879	87	68
41.638	41.879	63	44
41.701	41.879	90	67
41.759	41.879	61	41
41.788	41.879	85	67
41.876	42.586	44	33
41.876	43.322	84	68
41.96	43.322	87	64
41.991	42.461	51	36
42.05	42.317	81	65
42.114	42.345	54	39
42.142	43.322	80	65
42.23	42.583	78	64
42.232	42.94	60	41
42.317	43.322	81	62
42.345	42.813	54	39
42.403	43.322	76	59
42.461	42.698	51	37
42.489	42.841	75	59
42.583	43.322	78	59
42.586	43.322	44	33
42.67	43.322	73	55
42.698	43.181	51	35
42.758	43.322	72	55
42.813	43.059	54	38
42.841	43.322	75	55
42.936	43.216	69	54
42.94	43.322	60	39
43.024	43.322	68	51
43.059	43.322	54	35
43.118	43.322	71	51
43.181	43.322	51	33
43.216	43.499	69	50
43.321	44.0451	49	28
43.413	43.587	68	47
43.441	43.913	56	32
43.499	44.0451	69	51
43.559	43.793	61	34
43.587	43.766	68	47
43.682	44.0451	67	48
43.683	44.0451	64	37
43.766	44.0451	68	49
43.793	44.0451	61	35
43.853	44.0451	73	51
43.913	44.0451	56	33
43.941	44.0451	76	52
44.028	44.21	75	54
44.0321	44.764	52	31
44.122	44.294	73	51
44.15	44.6231	56	33
44.21	44.764	75	53
44.269	44.5041	61	35
44.294	44.4691	73	51
44.3861	44.764	64	36
44.3861	44.764	72	51
44.4691	44.764	73	53
44.5041	44.764	61	33
44.5641	44.7631	76	57
44.6231	44.764	56	31
44.6481	44.764	80	54
44.7631	44.9421	76	52
44.764	45.4841	54	28
44.854	45.033	75	48
44.882	45.3541	61	33
44.9421	45.4841	76	52
44.998	45.2361	63	35
45.033	45.2081	75	48
45.1201	45.4841	74	49
45.123	45.4841	69	38
45.2081	45.4841	75	50
45.2361	45.4841	63	36
45.2951	45.4741	78	53
45.3541	45.4841	61	34
45.3871	45.4841	81	54
45.4741	45.6491	78	56
45.4771	46.2081	56	32
45.5611	45.7361	77	54
45.5891	46.0581	61	34
45.6491	46.2081	78	56
45.7091	45.9451	65	37
45.7361	45.9151	77	54
45.8301	46.2081	71	39
45.8301	46.2081	76	54
45.9151	46.2081	77	56
45.9451	46.2081	65	34
46.0031	46.2081	80	59
46.0581	46.2081	61	33
46.0891	46.2081	85	57
46.2051	46.9291	57	30
46.2991	46.4741	73	50
46.3281	46.7961	61	34
46.3841	46.9291	74	55
46.4431	46.6821	66	37
46.4741	46.6541	73	51
46.5591	46.9291	72	52
46.5611	46.9291	69	40
46.6541	46.9291	73	53
46.6821	46.9291	66	39
46.7401	46.9121	78	56
46.7961	46.9291	61	35
46.8281	46.9291	81	57
46.9121	47.0941	78	59
46.9161	47.6481	56	34
47.0001	47.1821	77	56
47.0341	47.5071	61	36
47.0941	47.6481	78	59
47.1541	47.3881	65	39
47.1821	47.3531	77	57
47.2681	47.6481	76	57
47.2721	47.6481	71	40
47.3531	47.6481	77	59
47.3881	47.6481	65	37
47.4471	47.6471	80	63
47.5071	47.6481	61	34
47.5351	47.6481	85	59
47.6471	47.8261	80	58
47.6481	48.3641	57	32
47.7381	47.9131	78	53
47.7691	48.2381	61	36
47.8261	48.3641	80	58
47.8821	48.1161	66	39
47.9131	48.0881	78	54
48.0001	48.3641	77	55
48.0011	48.3641	69	42
48.0881	48.3641	78	56
48.1161	48.3641	66	40
48.1791	48.3541	81	59
48.2381	48.3641	61	38
48.2671	48.3641	85	60
48.3541	48.5331	81	63
48.3571	49.0941	48	36
48.4421	48.6211	80	59
48.4701	48.9411	54	38
48.5331	49.0941	81	62
48.5921	48.8231	56	41
48.6211	48.7951	80	60
48.7081	49.0941	79	60
48.7111	49.0941	63	42
48.7951	49.0931	80	62
48.8231	49.0941	56	39
48.8791	49.0941	84	66
48.9411	49.0941	54	37
48.9701	49.0941	87	63
49.0931	50.5212	49	35
49.0931	49.2721	80	69
49.1841	50.1662	81	64
49.2121	49.6871	56	39
49.2721	49.4521	80	67
49.3271	49.5731	61	43
49.3621	50.3382	79	58
49.4521	50.2522	80	62
49.4531	50.5212	64	45
49.5431	50.5212	88	71
49.5731	50.5212	61	44
49.6311	50.5212	87	71
49.6871	49.9251	56	42
49.7151	50.5212	86	70
49.8101	50.5212	85	69
49.8141	50.5212	51	44
49.8981	50.5212	84	69
49.9251	50.4022	56	41
49.9851	50.5212	83	68
50.0411	50.2802	60	45
50.0692	50.5212	82	67
50.1662	50.5212	81	67
50.1672	50.5212	66	46
50.2522	50.5212	80	66
50.2802	50.5212	60	44
50.3382	50.5212	79	65
50.4022	50.5212	56	41
50.4302	50.5212	78	64
50.5202	50.6992	76	69
50.5212	51.9592	52	35
50.6112	51.8582	78	64
50.6392	51.1162	56	39
50.6992	50.8782	76	67
50.7622	51.0002	61	43
50.7902	51.9592	75	58
50.8782	51.9592	76	62
50.8812	51.9552	64	45
50.9722	51.9592	88	71
51.0002	51.3542	61	44
51.0602	51.9592	87	71
51.1162	51.9562	56	42
51.1442	51.9592	86	70
51.2392	51.9592	85	70
51.2412	51.9592	54	44
51.3252	51.9592	84	71
51.3542	51.8302	61	41
51.4132	51.9592	83	71
51.4692	51.7072	63	45
51.4972	51.9592	82	72
51.5922	51.9592	81	73
51.5952	51.9592	69	46
51.6792	51.9532	80	74
51.7072	51.9592	63	48
51.7742	51.9592	79	75
51.8302	51.9562	61	51
51.8582	51.9592	78	76
51.9532	51.9972	80	76
51.9552	52.1382	64	71
51.9552	52.1372	68	71
51.9562	52.1402	56	71
51.9562	52.1382	61	71
52.1412	52.2282	92	85
52.2322	52.3232	91	85
52.3232	52.4102	90	84
52.4112	52.5052	89	84
52.5062	52.5892	88	83
52.5892	52.6792	87	83
52.6842	53.0572	86	82
52.6862	53.0572	69	71
52.6872	53.0572	61	71
52.6872	53.0572	64	71
52.6882	53.0572	55	71
52.7712	53.0572	85	81
52.8652	53.0572	84	81
52.9492	53.0572	83	80
53.0412	53.1282	82	80
53.1322	53.2192	81	79
53.2192	53.3102	80	79
53.3102	53.4002	79	78
53.4012	53.4882	78	77
53.4922	53.5762	77	77
53.5792	53.6702	76	77
53.6712	53.7542	75	77
53.7572	53.8492	74	77
53.8502	53.9402	73	77
53.9442	54.0302	72	77
54.0312	54.8433	71	77
54.1232	54.8433	70	77
54.2092	54.8433	69	78
54.3042	54.8433	68	80
54.3922	54.8433	67	82
54.4832	54.8433	66	85
54.5772	54.8433	64	87
54.6612	54.8433	63	90
54.7562	54.8462	61	92
54.8502	57.9302	32	78
54.8502	56.0302	56	94
54.8513	57.1702	44	78
55.2422	57.9302	93	90
55.2462	56.4142	64	75
55.2462	56.6952	76	75
55.3442	56.2192	92	81
55.4412	57.9302	100	77
55.5392	55.7362	88	77
55.6412	56.7922	61	78
55.6412	57.0732	73	78
55.6412	57.9302	90	90
55.7362	56.5972	88	77
55.8312	57.9302	97	77
55.9282	56.1202	85	77
56.0302	57.1702	56	78
56.0302	57.9302	87	89
56.0322	57.4502	68	78
56.1202	56.9782	85	77
56.2192	57.9302	92	77
56.3102	56.5052	80	77
56.4122	57.9302	81	89
56.4142	57.5492	52	78
56.4142	57.8252	64	78
56.5052	57.3572	80	77
56.5972	57.9302	88	77
56.6952	56.8802	76	77
56.7902	57.9302	78	88
56.7922	57.9302	49	74
56.7922	57.9302	61	74
56.8802	57.7352	76	77
56.9782	57.9302	85	77
57.0732	57.2622	73	77
57.1672	57.9302	75	89
57.1702	57.9302	44	78
57.1702	57.9302	56	78
57.2622	57.9302	73	77
57.3572	57.9302	80	77
57.4502	57.6402	68	77
57.5452	57.9302	40	74
57.5452	57.9302	69	90
57.5492	57.9302	52	74
57.6402	57.9302	68	77
57.7352	57.9302	76	77
57.8252	57.9302	64	77
57.9272	59.1092	66	88
57.9302	59.1092	37	78
57.9302	59.1092	49	78
58.0252	59.1092	64	77
58.1152	59.1092	73	77
58.2142	58.4092	61	77
58.3182	58.7012	63	89
58.3192	58.7012	32	73
58.3192	58.7032	44	73
58.4092	58.7912	61	77
58.5082	58.8892	68	77
58.5992	58.9882	56	77
58.7012	59.1092	32	78
58.7012	59.0852	63	89
58.7032	59.1092	44	78
58.7912	59.1092	61	77
58.8892	59.1092	68	77
58.9882	59.1092	56	77
59.0852	59.4812	33	74
59.0852	59.4712	63	89
59.0862	59.4812	45	74
59.1802	59.4812	61	77
59.2782	59.4812	69	77
59.3722	59.4812	57	77
59.4712	59.8682	63	89
59.4742	59.9032	32	78
59.4752	59.9032	44	78
59.5682	59.9032	61	75
59.6672	59.9032	68	74
59.7682	59.9032	56	73
59.8682	59.9602	63	83
59.8692	60.2752	31	72
59.8692	60.2752	43	72
59.9632	60.2752	61	71
60.0612	60.2752	67	71
60.1602	60.2752	55	70
60.2622	60.6812	63	79
60.2642	61.1612	32	69
60.2642	61.1612	44	69
60.3662	60.7122	61	68
60.4682	60.7122	68	67
60.5732	60.7122	56	66
60.6812	60.7932	63	75
60.7932	61.1612	60	63
60.9092	61.1612	68	63
61.0312	61.1612	56	62
61.1612	63.8702	37	95
61.4132	63.6452	44	55
61.6402	63.4182	49	56
61.8682	63.1972	53	56
62.0952	62.9772	56	58
62.3152	62.7572	61	59
62.5332	65.2112	65	59
62.7572	64.9902	61	57
62.9772	64.7692	56	52
63.1972	64.5492	53	49
63.4182	64.3212	49	46
63.6452	64.0972	44	41
63.8702	66.5502	37	40
64.0972	66.3272	44	41
64.3212	66.1002	49	42
64.5492	65.8782	53	43
64.7692	65.6512	56	44
64.9902	65.4312	61	45
65.2112	66.5542	65	45
65.4312	66.5542	61	45
65.6512	66.5542	56	44
65.8782	66.5542	53	43
66.1002	66.5542	49	42
66.3272	69.3372	44	41
66.5502	69.3372	37	25
66.5502	68.2942	68	45
66.7922	67.7102	56	26
67.0232	67.4812	60	27
67.2472	69.3372	63	28
67.4812	68.4092	60	28
67.7102	68.1722	56	27
67.9412	69.3362	49	27
67.9412	68.1092	70	42
68.0212	69.3372	72	42
68.1092	69.3372	70	46
68.1722	69.0892	56	27
68.2942	69.3372	68	45
68.4092	68.8572	60	28
68.6302	69.3372	73	45
68.6322	69.3372	66	28
68.8572	69.3372	60	27
68.9662	69.3372	75	48
69.0892	69.3372	56	26
69.3342	70.7402	77	51
69.3362	70.7222	49	27
69.5572	70.4882	56	28
69.7912	70.2572	61	28
70.0232	70.7402	65	29
70.2572	70.7402	61	30
70.4882	70.7402	56	28
70.7202	72.1812	80	56
70.7222	72.1812	49	27
70.9472	71.8572	56	28
71.1712	71.6252	65	29
71.3992	72.1812	68	49
71.6252	72.1812	65	30
71.8572	72.1812	56	29
72.0982	72.8292	78	53
72.0992	72.8292	66	30
72.3292	72.8292	63	26
72.5682	72.8292	56	26
72.7992	73.5302	77	51
72.8022	73.5302	65	30
73.0362	73.5302	61	26
73.2682	73.5302	56	26
73.5022	74.1982	63	30
73.5022	74.1982	75	49
73.7262	74.1982	60	23
73.9572	74.1982	56	23
74.1922	74.9681	77	51
74.1952	74.9681	61	29
74.4292	74.9681	56	24
74.6672	74.9681	53	24
74.7301	74.9681	73	47
74.9641	76.4172	44	26
74.9641	76.4172	68	48
75.2212	76.1731	51	27
75.4551	75.9301	56	27
75.7001	76.4172	60	28
75.9301	76.4172	56	27
76.1731	76.4172	51	27
76.4162	79.2941	70	48
76.4172	77.8391	42	27
76.6522	77.8391	54	27
76.8901	77.3591	58	28
77.1251	77.8391	61	29
77.3591	77.8391	58	28
77.5971	77.8391	53	28
77.8391	79.2561	46	27
78.0731	79.0211	53	27
78.3071	78.7841	58	28
78.5451	79.2941	62	28
78.7841	79.2941	58	28
79.0211	79.2941	53	27
79.2561	80.6671	46	28
79.2561	79.3391	71	42
79.3401	80.6671	73	42
79.4211	80.6671	71	46
79.4861	80.4251	58	29
79.6131	80.6671	70	45
79.7291	80.1871	62	30
79.9571	80.6671	75	45
79.9591	80.6671	68	33
80.1871	80.6671	62	31
80.3021	80.6671	77	48
80.4251	80.6671	58	29
80.6631	81.4181	78	51
80.6671	81.4181	51	34
80.8971	81.4181	66	31
81.1291	81.4181	58	28
81.3621	82.0801	77	50
81.3631	82.0801	53	32
81.5871	82.0801	65	30
81.8191	82.0801	57	28
82.0531	82.7841	75	51
82.0541	82.7841	54	31
82.2761	82.7841	63	28
82.5111	82.7841	58	29
82.7381	83.4381	77	49
82.7391	83.4381	56	30
82.9631	83.4381	66	27
83.1971	83.4381	60	27
83.4351	84.5871	73	48
83.4361	84.9091	49	25
83.6661	84.6181	56	27
83.8971	84.3731	61	29
84.1351	84.9091	65	30
84.3731	84.9091	61	29
84.4881	84.9091	72	49
84.5871	84.7791	73	45
84.6181	84.9091	56	27
84.6811	84.9091	75	45
84.7791	84.9091	73	45
84.8771	86.4201	77	50
84.8811	86.4201	51	27
85.1151	86.1051	55	28
85.3591	85.8431	61	29
85.5981	86.4201	63	30
85.8431	86.4201	61	29
85.9591	86.3961	75	49
86.1051	86.4201	55	27
86.3961	87.8171	44	23
86.3961	89.3401	75	47
86.6311	87.5781	51	25
86.8641	87.3411	56	27
87.1031	87.8581	60	28
87.3411	87.8581	56	27
87.5781	87.8581	51	27
87.8171	89.3391	44	25
88.055	89.056	51	25
88.2961	88.7901	54	27
88.5421	89.3401	58	28
88.7901	89.3401	54	26
89.056	89.3401	51	25
89.3391	90.775	44	24
89.3391	91.125	68	45
89.6031	90.537	51	26
89.84	90.312	56	27
90.078	91.24	60	28
90.312	90.998	56	28
90.537	92.174	51	27
90.771	90.939	70	42
90.775	92.174	44	27
90.852	92.174	72	42
90.939	92.174	70	46
90.998	92.174	56	27
91.125	92.174	68	45
91.24	91.694	60	28
91.468	92.174	73	45
91.469	92.174	66	28
91.694	92.174	60	27
91.81	92.174	75	48
91.933	92.174	58	26
92.171	93.578	77	51
92.172	93.56	49	27
92.402	93.323	56	28
92.633	93.092	61	28
92.864	93.578	65	29
93.092	93.578	61	30
93.323	93.578	56	28
93.558	95.023	80	56
93.56	95.023	49	27
93.784	94.698	56	28
94.009	94.467	65	29
94.243	95.023	68	49
94.467	95.023	65	30
94.698	95.023	56	29
94.936	95.667	66	30
94.936	95.667	78	53
95.17	95.667	63	26
95.405	95.667	56	26
95.643	96.367	65	30
95.643	96.367	77	51
95.874	96.367	61	26
96.105	96.367	56	26
96.339	96.78	75	49
96.34	97.085	63	30
96.571	97.085	60	23
96.686	97.078	77	47
96.78	96.976	75	47
96.812	97.085	56	23
96.879	97.085	73	47
96.976	97.085	75	47
97.078	97.88	77	51
97.079	97.88	61	29
97.323	97.88	56	24
97.574	97.88	53	24
97.638	97.88	73	47
97.88	99.3139	44	26
97.88	99.3139	68	48
98.121	99.0729	51	27
98.359	98.8349	56	27
98.596	99.3139	60	28
98.8349	99.3139	56	27
99.0729	99.3139	51	27
99.3109	102.194	70	48
99.3119	100.733	42	27
99.5459	100.494	54	27
99.7839	100.26	58	28
100.025	100.733	61	29
100.26	100.733	58	28
100.494	100.733	54	28
100.732	102.157	46	27
100.97	101.916	53	27
101.208	101.68	58	28
101.443	102.194	62	28
101.68	102.194	58	28
101.916	102.194	53	27
102.156	102.233	71	42
102.157	103.556	46	28
102.234	103.556	73	42
102.324	103.556	71	46
102.388	103.315	58	29
102.507	103.556	70	45
102.625	103.084	62	30
102.853	103.556	75	45
102.854	103.556	68	33
103.084	103.556	62	31
103.193	103.556	77	48
103.315	103.556	58	29
103.554	104.305	78	51
103.556	104.305	51	34
103.784	104.305	66	31
104.018	104.305	58	28
104.253	104.966	53	32
104.253	104.966	77	50
104.481	104.966	65	30
104.708	104.966	57	28
104.942	105.67	75	51
104.943	105.67	54	31
105.166	105.67	63	28
105.398	105.67	58	29
105.626	106.326	77	49
105.629	106.326	56	30
105.852	106.326	66	27
106.084	106.326	60	27
106.325	107.782	49	25
106.325	107.805	73	48
106.556	107.511	56	27
106.791	107.263	61	29
107.025	107.805	65	30
107.263	107.805	61	29
107.379	107.805	67	49
107.477	107.68	68	45
107.511	107.805	56	27
107.578	107.805	70	45
107.68	107.805	68	45
107.781	109.359	77	50
107.782	109.327	49	27
108.023	109.034	56	28
108.274	108.764	60	29
108.523	109.359	66	30
108.764	109.359	60	29
108.891	109.325	75	49
109.034	109.359	56	27
109.325	110.819	75	52
109.327	110.773	49	27
109.566	110.532	56	28
109.804	110.287	60	30
110.05	110.819	66	31
110.287	110.819	60	30
110.532	110.819	56	28
110.77	112.243	73	52
110.773	112.243	49	27
111.012	111.996	56	27
111.257	111.75	61	28
111.502	112.243	65	30
111.75	112.243	61	28
111.875	112.243	80	60
111.996	112.243	56	27
112.233	113.717	68	65
112.234	113.685	44	34
112.475	113.444	51	33
112.712	113.199	56	34
112.958	113.717	60	34
113.199	113.717	56	33
113.444	113.717	51	32
113.683	113.777	70	59
113.685	115.131	44	31
113.777	114.942	72	59
113.863	114.396	70	64
113.921	114.88	51	33
114.158	114.634	55	34
114.222	115.155	69	57
114.396	115.155	70	64
114.4	115.155	61	34
114.634	115.155	55	33
114.88	115.155	51	30
114.942	115.155	72	62
115.13	116.566	68	66
115.131	116.566	44	36
115.362	116.314	51	30
115.593	116.069	56	32
115.832	116.566	60	33
115.832	118.099	84	66
116.069	116.566	56	32
116.314	116.566	51	30
116.552	118.099	49	27
116.755	118.099	82	63
116.79	117.746	56	29
116.958	117.91	80	62
117.028	117.504	61	30
117.168	118.099	76	61
117.266	118.099	64	31
117.368	118.099	73	59
117.504	118.099	61	30
117.574	118.099	70	58
117.746	118.099	56	29
117.91	118.099	80	55
118.089	119.569	63	66
118.092	119.542	39	34
118.327	119.296	51	33
118.572	119.059	56	34
118.814	119.569	60	34
119.059	119.569	56	33
119.296	119.569	51	32
119.453	119.569	72	59
119.541	120.256	70	64
119.542	121.014	39	31
119.78	120.738	51	33
120.017	120.493	55	34
120.074	121.014	69	57
120.256	121.014	70	64
120.259	121.014	61	34
120.493	121.014	55	33
120.738	121.014	51	30
120.801	121.014	75	62
120.986	122.495	68	65
120.989	122.495	44	34
121.218	122.159	51	30
121.452	121.921	56	32
121.69	122.495	60	33
121.921	122.495	56	32
122.159	122.495	51	30
122.398	123.898	42	19
122.398	123.64	70	39
122.649	123.643	54	20
122.887	123.391	58	22
123.146	123.898	73	44
123.149	123.898	61	22
123.388	123.898	72	39
123.391	123.898	58	20
123.64	123.898	70	39
123.643	123.898	54	20
123.895	125.652	68	43
123.896	126.702	44	21
124.137	125.071	56	22
124.374	124.847	60	22
124.616	126.702	63	23
124.847	125.771	60	23
125.071	125.537	56	22
125.306	125.446	70	46
125.309	126.702	49	22
125.376	125.512	72	42
125.446	125.583	70	42
125.512	126.702	72	44
125.537	126.454	56	23
125.583	126.702	70	42
125.652	126.702	68	41
125.771	126.223	60	25
125.998	126.702	66	27
125.998	126.702	73	45
126.223	126.702	60	26
126.338	126.702	75	48
126.454	126.702	56	25
126.7	128.105	77	51
126.702	128.087	49	27
126.93	127.853	56	28
127.158	127.619	61	28
127.388	128.105	65	29
127.619	128.105	61	30
127.853	128.105	56	28
128.085	129.547	80	56
128.087	129.547	49	27
128.312	129.229	56	28
128.539	128.995	65	29
128.764	129.547	68	49
128.995	129.547	65	30
129.229	129.547	56	29
129.463	130.198	78	53
129.464	130.198	66	30
129.701	130.198	63	26
129.933	130.198	56	26
130.17	130.892	77	51
130.171	130.892	65	30
130.401	130.892	61	26
130.633	130.892	56	26
130.868	131.567	63	30
130.868	131.298	75	49
131.099	131.567	60	23
131.207	131.558	77	47
131.298	131.47	75	47
131.325	131.567	56	23
131.382	131.567	73	47
131.47	131.567	75	47
131.558	132.267	77	51
131.56	132.267	61	29
131.788	132.267	56	24
131.9	132.267	73	47
132.023	132.267	53	24
132.265	133.703	68	48
132.267	133.703	44	26
132.502	133.453	51	27
132.74	133.216	56	27
132.982	133.703	60	28
133.216	133.703	56	27
133.453	133.703	51	27
133.702	136.582	70	48
133.703	135.123	42	27
133.937	134.882	54	27
134.168	134.644	58	28
134.405	135.123	61	29
134.644	135.123	58	28
134.882	135.123	54	28
135.12	136.541	46	27
135.351	136.299	53	27
135.593	136.065	58	28
135.83	136.582	62	28
136.065	136.582	58	28
136.299	136.582	53	27
136.537	136.603	71	45
136.541	137.94	46	28
136.607	136.751	73	42
136.68	136.828	71	41
136.751	137.94	73	42
136.775	137.699	58	29
136.828	137.94	71	42
136.89	137.94	70	45
137.002	137.461	62	30
137.234	137.94	75	45
137.237	137.94	68	33
137.461	137.94	62	31
137.577	137.94	77	48
137.699	137.94	58	29
137.938	138.683	78	51
137.94	138.683	51	34
138.169	138.683	66	31
138.396	138.683	58	28
138.63	139.344	77	50
138.631	139.344	53	32
138.861	139.344	65	30
139.092	139.344	57	28
139.324	140.055	75	51
139.327	140.055	54	31
139.551	140.055	63	28
139.775	140.055	58	29
140.009	140.703	77	49
140.013	140.703	56	30
140.234	140.703	66	27
140.468	140.703	60	27
140.702	142.148	49	25
140.702	142.172	73	48
140.937	141.892	56	27
141.171	141.64	61	29
141.41	142.172	65	30
141.64	142.172	61	29
141.763	142.172	67	49
141.857	142.054	68	45
141.892	142.172	56	27
141.955	142.172	70	45
142.054	142.172	68	45
142.147	143.669	77	50
142.148	143.639	49	27
142.39	143.363	56	28
142.627	143.104	60	29
142.865	143.669	66	30
143.104	143.669	60	29
143.222	143.639	75	49
143.363	143.669	56	27
143.639	145.085	49	27
143.639	145.133	75	52
143.88	144.844	56	28
144.119	144.601	60	30
144.363	145.133	66	31
144.601	145.133	60	30
144.844	145.133	56	28
145.081	146.554	73	52
145.085	146.554	49	27
145.326	146.309	56	27
145.571	146.065	61	28
145.82	146.554	65	30
146.065	146.554	61	28
146.19	146.554	80	60
146.309	146.554	56	27
146.547	148.0	44	34
146.547	148.031	68	65
146.789	147.759	51	33
147.027	147.513	56	34
147.272	148.031	60	34
147.513	148.031	56	33
147.759	148.031	51	32
147.999	148.084	70	65
148.0	149.428	44	31
148.084	148.252	72	59
148.17	148.333	70	60
148.224	149.176	51	33
148.252	148.399	72	59
148.333	148.456	70	56
148.399	149.239	72	56
148.456	148.701	70	56
148.458	148.931	55	34
148.518	149.452	69	62
148.701	149.452	61	34
148.701	149.452	70	64
148.931	149.452	55	33
149.176	149.452	51	30
149.239	149.452	72	62
149.428	150.855	44	36
149.428	150.855	68	66
149.658	150.604	51	30
149.89	150.366	56	32
150.128	152.389	84	66
150.129	150.855	60	33
150.366	150.855	56	32
150.604	150.855	51	30
150.846	152.389	49	27
151.048	152.389	82	63
151.083	152.042	56	29
151.254	152.2	80	62
151.325	151.798	61	30
151.455	152.389	76	61
151.562	152.389	64	31
151.661	152.389	73	59
151.798	152.389	61	30
151.868	152.389	70	58
152.042	152.389	56	29
152.2	152.389	80	55
152.385	153.865	63	66
152.389	153.838	39	34
152.623	153.593	51	33
152.869	153.348	56	34
153.11	153.865	60	34
153.348	153.865	56	33
153.593	153.865	51	32
153.744	153.865	72	59
153.837	154.553	70	64
153.838	155.304	39	31
154.073	155.032	51	33
154.31	154.789	55	34
154.37	155.304	69	57
154.553	155.304	70	64
154.554	155.304	61	34
154.789	155.304	55	33
155.032	155.304	51	30
155.091	155.304	75	62
155.283	156.792	68	65
155.284	156.792	44	34
155.514	156.449	51	30
155.746	156.219	56	32
155.98	156.792	60	33
156.219	156.792	56	32
156.449	156.792	51	30
156.691	157.93	70	39
156.693	158.178	42	19
156.939	157.933	54	20
157.18	157.688	58	22
157.443	158.178	73	44
157.444	158.178	61	22
157.685	158.178	72	39
157.688	158.178	58	20
157.93	158.178	70	39
157.933	158.178	54	20
158.175	159.585	44	21
158.175	159.931	68	43
158.417	159.351	51	22
158.654	159.126	56	22
158.892	160.048	60	23
159.126	159.816	56	23
159.351	160.98	51	22
159.585	160.98	44	22
159.585	159.725	70	47
159.654	159.795	72	43
159.725	159.864	70	43
159.795	160.98	72	43
159.816	160.98	56	23
159.864	160.98	70	43
159.931	160.98	68	45
160.048	160.508	60	25
160.276	160.98	73	45
160.278	160.98	66	27
160.508	160.98	60	26
160.613	160.98	75	48
160.739	160.98	58	25
160.976	162.391	77	51
160.977	162.366	49	27
161.208	162.132	56	28
161.439	161.898	61	28
161.667	162.391	65	29
161.898	162.391	61	30
162.132	162.391	56	28
162.364	163.832	80	56
162.366	163.832	49	27
162.587	163.508	56	28
162.822	163.273	65	29
163.049	163.832	68	49
163.273	163.832	65	30
163.508	163.832	56	29
163.749	164.477	66	30
163.749	164.477	78	53
163.976	164.477	63	26
164.215	164.477	56	26
164.449	165.17	77	51
164.45	165.17	65	30
164.68	165.17	61	26
164.912	165.17	56	26
165.146	165.855	63	30
165.146	165.579	75	49
165.377	165.855	60	23
165.492	165.846	77	47
165.579	165.755	75	47
165.608	165.855	56	23
165.667	165.855	73	47
165.755	165.855	75	47
165.846	166.587	77	51
165.849	166.587	61	29
166.084	166.587	56	24
166.2	166.587	73	47
166.328	166.587	53	24
166.585	168.026	44	26
166.585	168.026	68	48
166.819	167.778	51	27
167.067	167.54	56	27
167.301	168.026	60	28
167.54	168.026	56	27
167.778	168.026	51	27
168.026	169.44	42	27
168.026	170.907	70	48
168.26	169.209	54	27
168.492	168.971	58	28
168.733	169.44	61	29
168.971	169.44	58	28
169.209	169.44	54	28
169.437	170.864	46	27
169.678	170.623	53	27
169.916	170.385	58	28
170.155	170.907	62	28
170.385	170.907	58	28
170.623	170.907	53	27
170.862	170.931	71	48
170.864	172.259	46	28
170.931	171.072	73	42
171.001	171.144	71	43
171.072	172.259	73	42
171.095	172.019	58	29
171.144	172.259	71	42
171.211	172.259	70	45
171.327	171.785	62	30
171.554	172.259	68	33
171.554	172.259	75	45
171.785	172.259	62	31
171.894	172.259	77	48
172.019	172.259	58	29
172.258	173.01	51	34
172.258	173.01	78	51
172.485	173.01	66	31
172.719	173.01	58	28
172.953	173.668	77	47
172.954	173.668	53	31
173.185	173.668	65	28
173.417	173.668	57	28
173.648	174.378	75	49
173.651	174.378	54	30
173.875	174.378	63	25
174.098	174.378	58	25
174.329	175.04	77	45
174.33	175.04	56	30
174.554	175.04	66	27
174.792	175.04	60	27
175.037	176.542	49	22
175.037	176.566	73	43
175.275	176.261	56	23
175.519	175.999	61	26
175.761	176.566	65	27
175.999	176.566	61	26
176.125	176.566	67	44
176.233	176.433	68	40
176.261	176.566	56	23
176.331	176.566	70	40
176.433	176.566	68	40
176.542	178.086	49	23
176.542	178.117	77	45
176.794	177.809	56	24
177.046	177.543	60	26
177.294	178.117	66	27
177.543	178.117	60	26
177.668	178.085	75	44
177.809	178.117	56	23
178.085	181.208	75	44
178.086	179.621	49	20
178.337	179.366	56	21
178.592	179.111	60	22
178.849	180.399	66	24
179.111	180.137	60	22
179.366	179.878	56	22
179.621	181.207	49	20
179.878	180.934	56	21
180.137	180.665	60	22
180.399	181.208	66	22
180.665	181.208	60	22
180.934	181.208	56	21
181.207	181.925	49	22
181.291	181.467	68	37
181.323	181.792	56	25
181.379	181.925	69	41
181.439	181.676	61	28
181.467	181.648	68	38
181.561	181.925	67	39
181.564	181.925	64	30
181.648	181.925	68	40
181.676	181.925	61	28
181.732	181.925	73	42
181.792	181.925	56	27
181.823	181.925	76	43
181.918	182.029	52	26
181.918	182.002	75	45
182.002	182.089	73	43
182.03	182.145	56	28
182.09	182.173	75	45
182.148	182.268	61	30
182.176	182.268	73	43
182.271	182.382	64	31
182.271	182.354	72	44
182.355	182.442	73	46
182.383	182.505	61	28
182.443	182.533	76	49
182.509	182.639	56	27
182.537	182.639	80	47
182.64	183.37	49	27
182.74	182.919	68	45
182.769	183.244	56	30
182.825	183.37	69	49
182.884	183.122	61	34
182.919	183.094	68	45
183.006	183.37	67	46
183.009	183.37	64	36
183.094	183.37	68	48
183.122	183.37	61	34
183.181	183.37	73	50
183.244	183.37	56	33
183.272	183.37	76	51
183.36	183.447	75	54
183.363	183.475	52	31
183.448	183.531	73	51
183.475	183.598	56	33
183.535	183.625	75	53
183.598	183.713	61	36
183.626	183.714	73	51
183.714	183.797	72	52
183.717	183.828	64	37
183.8	183.888	73	54
183.828	183.951	61	34
183.888	183.978	76	57
183.951	184.084	56	32
183.983	184.085	80	55
184.087	185.523	51	31
184.182	185.167	69	56
184.214	184.697	57	35
184.277	185.523	73	58
184.337	184.574	61	39
184.365	185.523	75	60
184.452	185.523	78	63
184.455	185.523	66	45
184.543	185.523	81	63
184.574	184.928	61	39
184.63	185.424	85	66
184.697	185.523	57	37
184.725	185.253	87	72
184.813	185.523	54	37
184.813	185.523	95	76
184.896	185.523	93	75
184.928	185.397	61	40
184.987	185.523	92	70
185.051	185.281	63	44
185.072	185.34	90	69
185.167	185.523	69	46
185.167	185.523	88	68
185.253	185.523	87	67
185.281	185.523	63	44
185.34	185.523	90	66
185.397	185.523	61	41
185.424	185.523	85	67
185.52	186.972	84	68
185.523	186.226	44	33
185.607	186.972	87	63
185.638	186.107	51	35
185.695	185.961	81	63
185.75	185.992	54	38
185.781	186.972	80	63
185.869	186.583	60	39
185.869	186.223	78	60
185.961	186.972	81	58
185.992	186.461	54	36
186.048	186.972	76	54
186.107	186.339	51	34
186.135	186.489	75	54
186.223	186.972	78	53
186.226	186.972	44	29
186.314	186.972	73	48
186.339	186.828	51	31
186.402	186.972	72	48
186.461	186.703	54	33
186.489	186.972	75	47
186.583	186.972	60	33
186.583	186.86	69	45
186.671	186.972	68	42
186.703	186.972	54	29
186.762	186.972	71	42
186.828	186.972	51	26
186.86	187.15	69	41
186.972	187.689	49	22
187.066	187.238	68	37
187.094	187.562	56	25
187.15	187.689	69	41
187.206	187.448	61	28
187.238	187.42	68	38
187.326	187.689	67	39
187.328	187.689	64	30
187.42	187.689	68	40
187.448	187.689	61	28
187.504	187.689	73	42
187.562	187.689	56	27
187.592	187.689	76	43
187.679	187.77	75	45
187.682	187.798	52	26
187.773	187.856	73	43
187.801	187.916	56	28
187.857	187.944	75	45
187.917	188.032	61	30
187.945	188.033	73	43
188.035	188.15	64	31
188.035	188.123	72	44
188.127	188.213	73	46
188.155	188.27	61	28
188.214	188.298	76	49
188.271	188.41	56	27
188.299	188.41	80	47
188.411	189.141	49	27
188.507	188.684	68	45
188.536	189.008	56	30
188.596	189.141	70	49
188.652	188.893	58	34
188.684	188.866	68	45
188.778	189.141	64	36
188.778	189.141	67	46
188.866	189.141	68	48
188.893	189.141	58	34
188.95	189.141	73	50
189.008	189.141	56	33
189.045	189.141	76	51
189.131	189.243	52	31
189.131	189.215	75	54
189.218	189.302	73	51
189.246	189.366	56	33
189.303	189.397	75	53
189.369	189.48	58	36
189.397	189.485	73	51
189.487	189.572	72	52
189.488	189.6	61	37
189.573	189.663	73	54
189.601	189.719	58	34
189.663	189.751	76	57
189.723	189.856	56	32
189.751	189.856	80	55
189.856	190.048	75	64
189.859	190.585	51	30
189.953	191.288	76	58
189.988	190.466	56	34
190.048	190.227	75	61
190.105	190.349	59	37
190.133	191.288	74	50
190.227	191.288	75	56
190.231	191.288	63	39
190.315	190.938	83	68
190.349	191.288	59	38
190.409	191.026	82	62
190.466	191.288	56	35
190.494	191.11	80	65
190.584	191.198	79	68
190.585	191.288	51	38
190.669	191.288	88	72
190.7	191.17	58	41
190.756	191.288	87	69
190.815	191.054	61	45
190.848	191.288	85	69
190.938	191.288	83	74
190.939	191.288	67	46
191.026	191.285	82	69
191.054	191.288	61	44
191.11	191.288	80	69
191.17	191.288	58	41
191.198	191.288	79	69
191.285	192.734	82	72
191.288	191.995	44	33
191.379	191.814	80	70
191.407	191.87	51	35
191.464	192.734	83	64
191.523	191.754	56	37
191.551	192.734	74	57
191.639	192.734	76	65
191.642	192.35	59	39
191.726	192.167	75	57
191.754	192.23	56	39
191.814	192.734	80	63
191.87	192.108	51	37
191.907	192.35	70	57
191.993	192.734	73	61
191.995	192.734	44	33
192.079	192.734	71	59
192.108	192.597	51	35
192.167	192.734	75	58
192.23	192.468	56	38
192.261	192.531	67	56
192.35	192.734	59	39
192.35	192.734	70	60
192.44	192.632	68	51
192.468	192.734	56	35
192.531	192.734	67	55
192.597	192.734	51	33
192.632	192.73	68	50
192.73	194.372	68	72
192.734	193.552	45	39
192.835	194.372	80	58
192.867	193.413	49	41
192.937	193.346	72	59
193.007	193.283	54	43
193.045	193.452	73	59
193.15	193.955	66	71
193.151	193.959	57	45
193.245	194.054	78	60
193.283	193.819	54	44
193.346	193.753	72	60
193.413	193.689	49	42
193.452	193.851	73	61
193.55	194.372	65	75
193.552	194.372	45	42
193.654	194.372	77	62
193.689	194.228	49	44
193.753	194.159	72	63
193.819	194.089	54	45
193.851	194.263	73	63
193.955	194.372	66	74
193.959	194.372	57	45
194.054	194.372	78	65
194.089	194.372	54	45
194.159	194.372	72	64
194.228	194.372	49	44
194.263	194.372	73	64
194.368	195.233	61	77
194.371	195.233	51	44
194.467	195.233	73	65
194.501	195.04	54	46
194.571	194.976	66	65
194.641	194.907	57	48
194.669	195.075	69	65
194.774	195.233	63	75
194.776	195.233	59	49
194.872	195.233	75	65
194.907	195.233	57	47
194.976	195.233	66	65
195.04	195.233	54	45
195.075	195.233	69	65
195.173	195.995	64	79
195.175	195.995	40	45
195.278	195.886	76	66
195.313	195.855	47	46
195.377	195.579	68	66
195.447	195.719	52	48
195.482	195.785	71	66
195.579	195.992	68	77
195.583	195.995	56	47
195.684	195.995	80	67
195.719	195.995	52	46
195.785	195.995	71	66
195.855	195.995	47	45
195.886	195.995	76	65
195.992	197.62	68	81
195.994	196.808	45	44
196.097	197.62	80	65
196.125	196.671	49	46
196.194	196.6	72	65
196.264	196.53	54	48
196.299	196.706	73	65
196.398	197.207	66	78
196.4	197.209	57	49
196.503	197.31	78	65
196.53	197.072	54	47
196.6	197.007	72	65
196.671	196.936	49	45
196.706	197.105	73	65
196.807	197.619	65	79
196.808	197.62	45	45
196.905	197.62	77	66
196.936	197.479	49	46
197.007	197.413	72	66
197.072	197.343	54	48
197.105	197.514	73	66
197.207	197.62	66	77
197.209	197.62	57	47
197.31	197.62	78	67
197.343	197.62	54	46
197.413	197.62	72	66
197.479	197.62	49	45
197.514	197.62	73	65
197.619	198.61	47	44
197.619	199.334	65	81
197.721	199.334	77	65
197.756	198.312	51	46
197.825	198.245	71	65
197.895	198.175	57	48
197.93	198.354	75	65
198.029	199.334	66	78
198.032	199.334	59	49
198.14	199.334	78	65
198.175	199.334	57	47
198.245	198.68	71	65
198.312	199.334	51	45
198.354	199.334	75	65
198.473	199.334	69	79
198.474	199.334	40	45
198.574	199.334	81	66
198.61	199.187	47	46
198.68	199.11	71	66
198.756	199.04	52	48
198.788	199.218	76	66
198.896	199.331	68	77
198.897	199.334	56	47
199.005	199.334	80	67
199.04	199.334	52	46
199.11	199.334	71	66
199.187	199.334	47	45
199.218	199.334	76	65
199.331	200.958	68	52
199.333	200.14	45	30
199.428	200.958	80	57
199.463	200.003	49	33
199.533	199.94	72	47
199.597	199.869	54	34
199.632	200.037	73	47
199.737	200.545	66	49
199.74	200.545	57	35
199.834	200.647	78	54
199.869	200.408	54	34
199.94	200.338	72	48
200.003	200.276	49	34
200.037	200.44	73	48
200.139	200.958	65	51
200.14	200.958	45	34
200.241	200.958	77	56
200.276	200.814	49	34
200.338	200.751	72	50
200.408	200.675	54	36
200.44	200.852	73	50
200.545	200.958	57	36
200.545	200.958	66	53
200.647	200.958	78	58
200.675	200.958	54	35
200.751	200.958	72	51
200.814	200.958	49	34
200.852	200.958	73	51
200.955	201.818	61	55
200.957	201.818	47	34
201.059	201.818	73	60
201.091	201.627	54	37
201.16	201.564	66	52
201.228	201.496	57	38
201.258	201.665	69	53
201.361	201.818	63	55
201.364	201.818	59	39
201.458	201.818	75	62
201.496	201.818	57	38
201.564	201.818	66	54
201.627	201.818	54	38
201.665	201.818	69	54
201.763	202.585	64	57
201.764	202.585	40	37
201.868	202.477	76	65
201.902	202.442	47	39
201.966	202.169	68	56
202.036	202.309	52	40
202.067	202.372	71	56
202.169	202.581	68	60
202.172	202.585	56	40
202.274	202.585	80	68
202.309	202.585	52	40
202.372	202.585	71	57
202.442	202.585	47	39
202.477	202.585	76	58
202.581	203.442	68	62
202.582	203.397	45	39
202.687	203.442	80	68
202.718	203.26	49	42
202.781	203.191	72	59
202.852	203.128	54	43
202.89	203.297	73	59
202.989	203.442	57	45
202.989	203.442	66	62
203.089	203.442	78	70
203.128	203.442	54	43
203.191	203.442	72	61
203.26	203.442	49	42
203.297	203.442	73	61
203.395	204.262	75	64
203.397	204.262	45	42
203.492	204.262	87	73
203.527	204.073	51	44
203.594	204.003	78	62
203.663	203.933	54	45
203.695	204.108	81	62
203.8	204.212	73	66
203.803	204.262	57	44
203.897	204.262	85	74
203.933	204.262	54	44
204.003	204.262	78	62
204.073	204.262	51	42
204.108	204.262	81	62
204.212	204.608	73	64
204.213	204.608	44	42
204.314	204.608	85	73
204.346	204.608	51	44
204.416	204.608	75	61
204.486	204.615	54	45
204.52	204.615	78	61
204.619	205.026	72	64
204.62	205.434	60	42
204.724	205.123	84	71
204.756	205.291	54	42
204.822	205.228	75	60
204.891	205.158	51	40
204.924	205.326	78	59
205.026	205.893	44	39
205.026	205.431	72	60
205.123	205.529	84	69
205.158	205.697	51	41
205.228	205.634	75	58
205.291	205.564	54	42
205.326	205.732	78	58
205.431	205.837	72	61
205.434	205.893	60	40
205.529	205.893	84	68
205.564	205.893	54	39
205.634	205.893	75	57
205.697	205.893	51	38
205.732	205.893	78	56
205.837	206.243	72	57
205.84	206.243	45	38
205.942	206.243	84	65
205.977	206.243	51	39
206.04	206.243	75	55
206.11	206.25	54	40
206.145	206.25	78	55
206.251	206.652	71	58
206.253	206.683	59	38
206.348	206.683	83	64
206.383	206.683	54	38
206.446	206.683	75	53
206.515	206.683	51	36
206.551	206.683	78	53
206.652	207.072	46	35
206.652	207.072	71	54
206.753	207.072	83	62
206.782	207.072	51	37
206.853	207.072	75	52
206.918	207.072	54	38
206.95	207.072	78	52
207.059	207.52	58	36
207.059	207.465	70	54
207.156	207.52	82	60
207.189	207.52	54	35
207.259	207.52	75	50
207.328	207.52	51	34
207.363	207.52	78	50
207.465	207.867	48	34
207.465	207.867	70	55
207.573	207.867	82	49
207.601	207.867	51	34
207.671	207.867	75	48
207.734	207.874	54	35
207.772	207.874	78	48
207.875	208.276	69	53
207.877	208.683	57	34
207.978	208.378	81	48
208.01	208.546	54	34
208.076	208.477	75	47
208.14	208.416	51	32
208.178	208.577	78	47
208.276	208.683	69	52
208.277	209.162	48	31
208.378	208.784	81	49
208.416	208.962	51	33
208.477	208.892	75	45
208.546	208.822	54	33
208.577	208.994	78	45
208.683	209.162	57	31
208.683	209.162	69	51
208.784	209.162	81	47
208.822	209.162	54	31
208.892	209.162	75	44
208.962	209.162	51	29
208.994	209.162	78	44
209.106	209.529	72	52
209.109	209.529	45	28
209.214	209.529	84	47
209.246	209.529	51	29
209.32	209.529	75	47
209.39	209.533	54	30
209.425	209.536	78	47
209.536	209.954	71	51
209.537	209.984	59	32
209.638	209.984	83	46
209.676	209.984	54	31
209.746	209.984	75	46
209.813	209.984	51	29
209.848	209.984	78	46
209.954	210.397	46	27
209.954	210.397	71	51
210.062	210.397	83	48
210.09	210.397	51	28
210.159	210.397	75	45
210.236	210.397	54	29
210.272	210.397	78	45
210.377	210.807	70	51
210.379	210.863	58	30
210.481	210.863	82	47
210.52	210.863	54	29
210.59	210.863	75	44
210.66	210.863	51	28
210.701	210.863	78	44
210.807	211.24	70	52
210.81	211.24	47	28
210.916	211.24	82	46
210.958	211.24	51	28
211.028	211.24	75	46
211.101	211.244	54	28
211.136	211.248	78	45
211.248	211.679	69	48
211.251	211.713	57	30
211.36	211.713	81	43
211.395	211.713	54	28
211.461	211.713	75	42
211.538	211.713	51	27
211.574	211.713	78	42
211.679	212.14	48	23
211.679	212.14	69	45
211.787	212.14	81	42
211.822	212.14	51	24
211.892	212.14	75	39
211.966	212.14	54	25
212.008	212.14	78	39
212.119	212.597	56	25
212.119	212.597	68	43
212.235	212.597	80	39
212.274	212.597	54	24
212.351	212.597	75	36
212.431	212.597	51	22
212.469	212.597	78	36
212.596	213.33	49	22
212.693	212.872	68	37
212.721	213.198	56	25
212.784	213.33	69	41
212.844	213.082	61	28
212.872	213.054	68	38
212.962	213.33	67	39
212.963	213.33	64	30
213.054	213.33	68	40
213.082	213.33	61	28
213.138	213.33	73	42
213.198	213.33	56	27
213.226	213.33	76	43
213.317	213.435	52	26
213.317	213.407	75	45
213.407	213.491	73	43
213.435	213.55	56	28
213.492	213.578	75	45
213.554	213.673	61	30
213.582	213.674	73	43
213.677	213.761	72	44
213.678	213.789	64	31
213.761	213.844	73	46
213.789	213.904	61	28
213.848	213.932	76	49
213.907	214.044	56	27
213.935	214.044	80	47
214.045	214.775	49	27
214.15	214.325	68	45
214.181	214.65	56	30
214.237	214.775	69	49
214.296	214.534	61	34
214.325	214.507	68	45
214.412	214.775	67	46
214.415	214.775	64	36
214.507	214.775	68	48
214.534	214.775	61	34
214.591	214.775	73	50
214.65	214.775	56	33
214.678	214.775	76	51
214.765	214.852	75	54
214.769	214.88	52	31
214.853	214.944	73	51
214.881	215.003	56	33
214.945	215.031	75	53
215.004	215.123	61	36
215.031	215.126	73	51
215.126	215.213	72	52
215.13	215.241	64	37
215.214	215.297	73	54
215.242	215.357	61	34
215.298	215.385	76	57
215.357	215.496	56	32
215.388	215.497	80	55
215.497	216.928	51	31
215.595	216.579	69	56
215.624	216.106	57	35
215.686	216.928	73	59
215.745	215.983	61	39
215.774	216.928	75	62
215.865	216.928	66	45
215.865	216.928	78	63
215.956	216.928	81	66
215.983	216.34	61	39
216.039	216.838	85	69
216.106	216.928	57	37
216.134	216.662	87	72
216.224	216.928	95	75
216.225	216.928	54	37
216.309	216.928	93	73
216.34	216.81	61	40
216.396	216.928	92	72
216.456	216.694	63	44
216.483	216.75	90	71
216.578	216.928	88	71
216.579	216.928	69	46
216.662	216.928	87	70
216.694	216.928	63	44
216.75	216.928	90	68
216.81	216.928	61	41
216.838	216.928	85	67
216.926	218.372	84	68
216.928	217.635	44	33
217.016	218.372	87	63
217.048	217.517	51	35
217.104	217.366	81	63
217.163	217.394	54	38
217.191	218.372	80	63
217.279	217.633	78	60
217.282	217.989	60	39
217.366	218.372	81	58
217.394	217.864	54	36
217.454	218.372	76	54
217.517	217.748	51	34
217.548	217.901	75	54
217.633	218.372	78	53
217.635	218.372	44	29
217.72	218.372	73	48
217.748	218.237	51	31
217.807	218.372	72	48
217.864	218.108	54	33
217.901	218.372	75	47
217.989	218.372	60	33
217.989	218.265	69	45
218.08	218.372	68	42
218.108	218.372	54	29
218.171	218.372	71	42
218.237	218.372	51	26
218.265	218.557	69	41
218.371	219.094	49	22
218.462	218.643	68	37
218.499	218.962	56	25
218.557	219.094	69	41
218.612	218.847	61	28
218.643	218.815	68	38
218.731	219.094	67	39
218.732	219.094	64	30
218.815	219.094	68	40
218.847	219.094	61	28
218.909	219.094	73	42
218.962	219.094	56	27
218.99	219.094	76	43
219.085	219.259	75	45
219.086	219.82	52	26
219.172	219.344	73	43
219.201	219.673	56	28
219.259	219.82	75	45
219.319	219.554	61	30
219.344	219.525	73	43
219.442	219.82	64	31
219.442	219.82	72	44
219.525	219.82	73	46
219.554	219.82	61	28
219.613	219.817	76	50
219.673	219.82	56	27
219.697	219.82	80	48
219.817	219.995	76	46
219.819	220.533	54	25
219.91	220.082	75	43
219.935	220.408	61	29
219.995	220.533	76	47
220.053	220.292	63	32
220.082	220.257	75	43
220.17	220.533	74	45
220.173	220.533	69	34
220.257	220.533	75	46
220.292	220.533	63	33
220.348	220.526	78	49
220.408	220.533	61	31
220.436	220.533	81	50
220.526	220.702	78	53
220.527	221.258	56	30
220.611	220.79	77	51
220.639	221.119	61	32
220.702	221.258	78	53
220.761	220.996	65	35
220.79	220.964	77	51
220.88	221.258	76	52
220.881	221.258	71	37
220.964	221.258	77	54
220.996	221.258	65	34
221.052	221.258	80	57
221.119	221.258	61	32
221.14	221.258	85	56
221.255	221.979	57	30
221.348	221.528	73	50
221.384	221.853	61	34
221.441	221.979	74	55
221.499	221.738	66	37
221.528	221.703	73	51
221.615	221.979	72	52
221.619	221.979	69	40
221.703	221.979	73	53
221.738	221.979	66	39
221.794	221.969	78	56
221.853	221.979	61	35
221.881	221.979	81	57
221.969	222.144	78	59
221.972	222.697	56	34
222.056	222.238	77	56
222.085	222.557	61	36
222.144	222.697	78	59
222.21	222.442	65	39
222.238	222.41	77	57
222.322	222.697	76	57
222.326	222.697	71	40
222.41	222.697	77	59
222.442	222.697	65	37
222.497	222.697	80	63
222.557	222.697	61	34
222.592	222.697	85	59
222.697	223.421	57	32
222.697	222.882	80	58
222.795	222.966	78	53
222.822	223.292	61	36
222.882	223.421	80	58
222.938	223.176	66	39
222.966	223.141	78	54
223.054	223.421	77	55
223.058	223.421	69	42
223.141	223.421	78	56
223.176	223.421	66	40
223.236	223.41	81	59
223.292	223.421	61	38
223.323	223.421	85	60
223.41	223.589	81	63
223.411	224.15	48	36
223.501	223.677	80	59
223.53	223.995	54	38
223.589	224.15	81	62
223.645	223.88	56	41
223.677	223.852	80	60
223.764	224.15	79	60
223.765	224.15	63	42
223.852	224.146	80	62
223.88	224.15	56	39
223.936	224.15	84	66
223.995	224.15	54	37
224.024	224.15	87	63
224.146	224.331	80	69
224.149	225.584	49	35
224.24	225.22	81	64
224.268	224.751	56	39
224.331	224.507	80	67
224.391	224.629	61	43
224.418	225.402	79	58
224.507	225.312	80	62
224.51	225.584	64	45
224.597	225.584	88	71
224.629	225.584	61	44
224.688	225.584	87	71
224.751	224.982	56	42
224.779	225.584	86	70
224.866	225.584	85	69
224.87	225.584	51	44
224.953	225.584	84	69
224.982	225.458	56	41
225.046	225.584	83	68
225.104	225.343	60	45
225.132	225.584	82	67
225.22	225.584	81	67
225.223	225.584	66	46
225.312	225.584	80	66
225.343	225.584	60	44
225.402	225.584	79	65
225.458	225.584	56	41
225.49	225.584	78	64
225.581	225.759	76	69
225.582	227.02	52	35
225.672	226.928	78	64
225.704	226.176	56	39
225.759	225.941	76	67
225.819	226.063	61	43
225.847	227.02	75	58
225.941	227.02	76	62
225.942	227.019	64	45
226.026	227.02	88	71
226.063	226.417	61	44
226.12	227.02	87	71
226.176	227.02	56	42
226.207	227.02	86	70
226.295	227.02	85	70
226.296	227.02	54	44
226.385	227.02	84	71
226.417	226.893	61	41
226.473	227.02	83	71
226.529	226.771	63	45
226.561	227.02	82	72
226.656	227.02	69	46
226.656	227.02	81	73
226.739	227.015	80	74
226.771	227.02	63	48
226.834	227.02	79	75
226.893	227.019	61	51
226.928	227.02	78	76
227.015	227.061	80	76
227.016	227.197	68	71
227.019	227.2	61	71
227.019	227.198	64	71
227.02	227.201	56	71
227.201	227.292	92	85
227.293	227.386	91	85
227.386	227.478	90	84
227.478	227.564	89	84
227.565	227.656	88	83
227.659	227.747	87	83
227.747	228.122	86	82
227.748	228.122	64	71
227.748	228.122	69	71
227.751	228.122	55	71
227.751	228.122	61	71
227.831	228.122	85	81
227.925	228.122	84	81
228.014	228.122	83	80
228.111	228.191	82	80
228.192	228.282	81	79
228.283	228.37	80	79
228.373	228.464	79	78
228.465	228.552	78	77
228.553	228.643	77	77
228.644	228.738	76	77
228.738	228.824	75	77
228.825	228.916	74	77
228.919	229.003	73	77
229.003	229.098	72	77
229.098	229.903	71	77
229.185	229.903	70	77
229.276	229.903	69	80
229.364	229.903	68	83
229.455	229.903	67	85
229.55	229.903	66	87
229.637	229.903	64	89
229.732	229.903	63	92
229.823	229.913	61	94
229.917	231.097	56	96
229.918	232.998	32	78
229.92	232.241	44	78
230.309	231.762	76	75
230.309	232.998	93	90
230.312	231.482	64	75
230.411	231.285	92	81
230.509	232.998	100	77
230.607	230.803	88	77
230.708	232.998	90	90
230.709	231.86	61	78
230.712	232.14	73	78
230.803	231.671	88	77
230.898	232.998	97	77
230.995	231.188	85	77
231.097	232.244	56	78
231.097	232.998	87	89
231.099	232.521	68	78
231.188	232.045	85	77
231.285	232.998	92	77
231.387	231.577	80	77
231.479	232.998	81	89
231.481	232.62	52	78
231.482	232.899	64	78
231.577	232.423	80	77
231.671	232.998	88	77
231.762	231.954	76	77
231.859	232.998	78	88
231.86	232.997	49	74
231.86	232.998	61	74
231.954	232.805	76	77
232.045	232.998	85	77
232.14	232.332	73	77
232.241	232.998	44	78
232.241	232.998	75	89
232.244	232.998	56	78
232.332	232.998	73	77
232.423	232.998	80	77
232.521	232.707	68	77
232.619	232.998	40	74
232.619	232.998	69	90
232.62	232.998	52	74
232.707	232.998	68	77
232.805	232.998	76	77
232.899	232.998	64	77
232.997	234.187	37	78
232.997	234.187	49	78
232.997	234.187	66	88
233.092	234.187	64	77
233.189	234.187	73	77
233.288	233.481	61	77
233.39	233.775	63	89
233.393	233.775	32	73
233.393	233.775	44	73
233.481	233.865	61	77
233.582	233.963	68	77
233.673	234.062	56	77
233.775	234.187	32	78
233.775	234.187	44	78
233.775	234.156	63	89
233.865	234.187	61	77
233.963	234.187	68	77
234.062	234.187	56	77
234.156	234.544	63	89
234.159	234.555	33	74
234.16	234.555	45	74
234.254	234.555	61	77
234.352	234.555	69	77
234.45	234.555	57	77
234.544	234.941	63	89
234.548	234.978	32	78
234.548	234.978	44	78
234.642	234.978	61	75
234.741	234.978	68	74
234.838	234.978	56	73
234.941	235.348	31	72
234.941	235.033	63	83
234.943	235.348	43	72
235.037	235.348	61	71
235.135	235.348	67	71
235.234	235.348	55	70
235.341	235.756	63	79
235.342	236.242	32	69
235.342	236.242	44	69
235.437	235.79	61	68
235.542	235.79	68	67
235.653	235.79	56	66
235.756	235.871	63	75
235.871	236.242	60	63
235.99	236.242	68	63
236.109	236.242	56	62
236.241	237.252	63	73
236.242	237.012	37	93
236.337	237.252	61	65
236.431	237.252	52	56
236.431	236.721	68	65
236.529	237.252	56	65
236.629	237.012	69	69
236.63	237.252	49	58
236.721	237.102	68	65
236.819	237.197	76	83
236.823	237.252	44	58
236.914	237.252	64	64
237.012	237.252	37	63
237.012	237.252	69	70
237.102	237.252	68	66
237.197	237.291	76	83
237.201	238.012	54	58
237.296	238.012	64	60
237.389	237.778	69	68
237.39	238.012	48	58
237.488	237.876	68	62
237.586	237.968	75	79
237.589	238.012	44	58
237.683	238.012	63	71
237.778	238.012	69	68
237.779	238.012	37	63
237.876	238.012	68	66
237.968	238.779	75	83
237.971	238.779	52	58
238.066	238.555	64	60
238.161	238.779	69	68
238.163	238.779	49	58
238.258	238.741	68	62
238.359	238.779	73	79
238.36	238.779	44	58
238.457	238.779	61	71
238.555	238.779	64	54
238.558	238.779	37	47
238.647	238.779	63	49
238.741	239.133	68	62
238.744	239.541	54	43
238.839	239.223	56	45
238.934	239.541	48	43
238.934	239.541	64	51
239.031	239.321	63	46
239.133	239.541	44	43
239.133	239.518	68	59
239.223	239.541	56	53
239.321	239.541	63	54
239.322	239.541	37	47
239.42	239.541	61	49
239.518	239.815	68	62
239.52	240.312	52	43
239.616	240.312	56	45
239.717	240.1	69	67
239.718	240.312	49	58
239.815	240.193	68	65
239.91	240.312	44	58
239.91	240.292	76	83
240.001	240.312	64	64
240.1	240.312	69	68
240.102	240.312	37	63
240.193	240.312	68	66
240.292	240.382	76	83
240.294	241.096	54	58
240.382	241.096	64	60
240.484	241.096	48	58
240.484	240.872	69	65
240.575	240.963	68	62
240.676	241.096	44	58
240.676	241.062	75	79
240.771	241.096	63	66
240.872	241.096	69	66
240.873	241.096	37	63
240.963	241.096	68	66
241.062	241.809	75	83
241.065	241.809	52	58
241.156	241.643	64	60
241.253	241.809	69	67
241.257	241.809	49	58
241.352	241.809	68	62
241.446	241.809	73	79
241.447	241.809	44	58
241.545	241.809	61	71
241.643	241.809	64	54
241.645	241.834	37	47
241.737	241.835	63	49
241.835	242.219	68	62
241.838	242.609	54	36
241.926	242.314	56	45
242.027	242.609	64	51
242.028	242.609	48	36
242.118	242.416	63	46
242.219	242.608	68	59
242.22	242.609	44	36
242.314	242.609	56	53
242.416	242.609	37	39
242.416	242.609	63	54
242.507	242.609	61	49
242.608	243.423	52	36
242.608	242.896	68	62
242.703	243.375	56	45
242.797	243.423	69	55
242.8	243.423	49	36
242.896	243.423	68	48
242.997	243.423	44	36
242.997	243.423	76	62
243.088	243.281	64	48
243.183	243.423	66	54
243.184	243.423	37	39
243.281	243.423	64	49
243.371	243.469	73	62
243.375	244.165	56	36
243.473	244.05	61	45
243.564	244.165	69	51
243.567	244.165	49	36
243.662	244.151	68	46
243.763	244.165	44	36
243.763	244.165	76	59
243.861	244.165	64	53
243.956	244.165	37	39
243.956	244.165	63	54
244.05	244.165	61	49
244.151	244.439	68	62
244.152	244.922	52	36
244.242	244.918	56	45
244.344	244.922	49	36
244.344	244.922	69	55
244.439	244.922	68	48
244.534	244.922	76	62
244.536	244.922	44	36
244.631	244.817	64	48
244.726	244.922	66	54
244.727	244.922	37	39
244.817	244.922	64	49
244.918	245.723	56	36
244.918	245.695	73	62
245.009	245.723	61	45
245.108	245.723	69	51
245.11	245.723	49	36
245.201	245.723	68	46
245.301	245.723	76	59
245.303	245.723	44	36
245.398	245.597	64	53
245.5	245.723	37	39
245.5	245.723	66	54
245.597	245.723	64	49
245.695	246.462	52	35
245.695	246.077	73	61
245.794	246.175	61	44
245.888	246.503	49	35
245.888	246.503	69	53
245.982	246.503	68	46
246.077	246.462	73	60
246.081	246.503	44	34
246.175	246.503	61	46
246.269	246.503	66	51
246.273	246.503	37	38
246.368	246.503	64	46
246.462	247.242	52	34
246.462	246.851	73	58
246.56	246.941	61	42
246.651	247.274	69	47
246.654	247.274	49	33
246.753	247.274	68	42
246.851	247.24	73	54
246.854	247.274	44	33
246.941	247.274	61	48
247.043	247.274	66	48
247.044	247.274	37	35
247.14	247.274	64	44
247.24	247.627	73	55
247.242	248.009	52	31
247.337	247.719	61	40
247.435	248.033	69	48
247.439	248.033	49	31
247.529	248.033	68	41
247.627	248.006	73	53
247.631	248.033	44	30
247.719	248.033	61	41
247.813	248.033	66	45
247.816	248.033	37	34
247.911	248.033	64	41
248.006	248.394	73	52
248.009	248.785	52	30
248.104	248.492	61	37
248.198	248.785	69	42
248.199	248.785	49	29
248.296	248.782	68	37
248.394	248.785	73	48
248.397	248.785	44	29
248.492	248.685	61	42
248.593	249.56	37	31
248.593	248.785	63	43
248.685	248.785	61	39
248.782	249.171	68	49
248.88	249.269	56	36
248.982	249.364	63	44
249.08	249.461	61	38
249.171	249.559	68	49
249.269	249.56	56	38
249.364	249.56	63	43
249.461	249.56	61	39
249.559	249.951	68	49
249.654	250.049	56	36
249.752	250.147	63	40
249.85	250.245	61	36
249.951	250.344	68	47
250.049	250.35	56	42
250.147	250.35	63	43
250.245	250.35	61	39
250.344	250.735	68	48
250.442	250.833	56	35
250.543	250.925	63	42
250.634	251.023	61	36
250.735	251.12	68	46
250.833	251.166	56	35
250.925	251.166	63	39
251.023	251.166	61	35
251.12	251.509	68	44
251.218	251.611	56	32
251.313	251.715	63	35
251.414	251.726	61	31
251.509	251.726	68	40
251.611	251.726	56	36
251.715	252.104	63	36
251.716	253.263	37	39
251.716	253.263	44	48
251.813	252.195	61	33
251.905	252.297	68	41
252.003	252.388	56	30
252.104	252.485	63	37
252.195	252.492	61	32
252.297	252.492	68	41
252.388	252.492	56	32
252.485	252.864	63	36
252.58	252.962	61	33
252.678	253.063	68	41
252.769	253.161	56	30
252.864	253.262	63	34
252.962	253.263	61	30
253.063	253.263	68	39
253.161	253.263	56	35
253.262	253.643	63	36
253.263	254.036	46	47
253.351	253.738	61	33
253.45	253.833	68	41
253.549	253.931	56	30
253.643	254.026	63	37
253.644	254.036	44	50
253.738	254.036	61	32
253.833	254.036	68	41
253.931	254.036	56	32
254.026	254.408	63	36
254.029	254.805	49	52
254.123	254.505	61	33
254.215	254.607	68	41
254.309	254.697	56	30
254.408	254.798	63	34
254.41	254.805	51	56
254.505	254.805	61	30
254.607	254.805	68	39
254.697	254.805	56	35
254.798	255.184	63	36
254.799	256.346	53	58
254.896	255.279	61	33
254.988	255.376	68	41
255.086	255.471	56	30
255.184	255.569	63	37
255.279	255.575	61	32
255.376	255.575	68	41
255.471	255.575	56	32
255.569	255.947	63	36
255.66	256.045	61	33
255.758	256.143	68	41
255.853	256.241	56	30
255.947	256.342	63	34
256.045	256.346	61	30
256.143	256.346	68	39
256.241	256.343	56	35
256.342	256.724	63	36
256.343	256.633	56	60
256.434	256.822	61	33
256.532	256.916	68	41
256.633	257.014	56	30
256.724	257.105	63	37
256.822	257.119	61	32
256.916	257.119	68	41
257.014	257.393	56	32
257.105	257.486	63	36
257.206	257.588	61	33
257.298	257.683	68	41
257.393	257.787	56	30
257.486	257.88	63	34
257.588	257.889	61	30
257.683	257.889	68	39
257.787	257.889	56	35
257.88	258.656	54	56
257.88	258.267	63	36
257.977	258.362	61	33
258.075	258.46	68	41
258.17	258.554	56	30
258.267	258.652	63	37
258.362	258.656	61	32
258.46	258.656	68	41
258.554	258.656	56	32
258.652	259.034	63	36
258.656	259.426	53	56
258.744	259.129	61	33
258.845	259.226	68	41
258.936	259.325	56	30
259.034	259.423	63	34
259.129	259.426	61	30
259.226	259.426	68	39
259.325	259.426	56	35
259.423	259.513	63	36
259.425	260.189	51	57
259.517	259.905	61	33
259.615	259.997	68	41
259.713	260.098	56	30
259.804	260.171	63	37
259.905	260.171	61	32
259.997	260.171	68	41
260.098	260.189	56	32
260.19	260.581	63	36
260.192	261.007	53	56
260.287	260.678	61	33
260.389	260.78	68	41
260.479	260.882	56	30
260.581	260.98	63	34
260.582	261.007	49	48
260.678	261.007	61	30
260.78	261.007	68	39
260.882	261.007	56	35
260.98	261.397	63	36
260.984	262.643	44	53
261.084	261.501	61	29
261.186	261.607	68	35
261.292	261.705	53	37
261.397	261.809	63	44
261.501	261.914	61	28
261.607	262.013	68	36
261.705	262.117	53	37
261.809	262.222	63	43
261.914	262.324	61	29
262.013	262.432	68	37
262.117	262.534	53	37
262.222	262.643	63	45
262.324	262.643	61	27
262.432	262.643	68	36
262.534	262.643	53	31
262.639	262.744	65	32
262.642	264.501	32	50
262.643	264.501	44	50
262.754	263.185	63	29
262.856	263.301	68	35
262.958	263.416	54	38
263.07	263.545	65	44
263.185	263.661	63	28
263.301	263.776	68	35
263.416	263.892	54	38
263.545	264.015	65	42
263.661	264.13	63	29
263.776	264.253	68	37
263.892	264.376	54	37
264.015	264.501	65	40
264.13	264.501	63	27
264.253	264.501	68	35
264.376	264.501	54	38
264.498	267.042	37	33
264.619	267.045	44	36
264.746	267.045	54	38
264.875	274.949	56	40
264.994	267.045	60	43
265.214	267.045	63	48
267.042	274.949	37	31
267.318	274.949	44	37
267.584	274.949	53	35
267.829	274.949	61	42
