OnsetTime	OffsetTime	MidiPitch	Velocity
0.500755	1.0462	77	60
0.863632	1.22726	58	42
1.04545	1.22726	74	53
1.22726	1.59089	62	48
1.22726	1.40907	70	55
1.59089	1.96825	67	47
1.59089	1.77957	70	55
1.96825	2.33189	60	52
1.96825	2.33189	75	60
2.33189	2.69553	63	47
2.33189	2.69553	79	55
2.69553	3.06249	65	48
2.69553	3.06249	69	52
3.06249	3.42946	63	46
3.42946	3.79309	62	53
3.42946	3.61127	72	55
3.61127	3.79309	70	53
3.79309	4.15672	57	47
3.79309	3.9749	74	57
3.9749	4.15672	72	54
4.15672	4.52034	58	51
4.15672	4.33853	75	58
4.33853	4.52034	74	56
4.52034	4.88958	51	51
4.52034	4.88958	60	51
4.52034	4.70496	77	60
4.70496	4.88958	75	57
4.88958	5.99226	53	52
4.88958	5.62128	58	52
4.88958	5.43836	74	60
5.43836	5.52982	75	57
5.52982	5.62128	74	53
5.62128	5.99226	57	47
5.62128	5.80421	72	52
5.80421	5.99226	74	54
5.99226	6.18239	75	55
6.18239	6.37423	76	57
6.37423	6.91969	77	59
6.73787	7.1015	58	39
6.91969	6.98029	75	53
6.98029	7.0409	74	53
7.0409	7.1015	72	53
7.1015	7.46186	62	47
7.1015	7.28168	70	56
7.46186	7.83337	67	46
7.46186	7.64761	70	56
7.83337	8.19701	60	51
7.83337	8.19701	75	60
8.19701	8.56065	63	45
8.19701	8.56065	79	55
8.56065	8.92429	65	48
8.56065	8.92429	69	58
8.92429	9.28792	63	43
9.10611	9.28792	69	52
9.28792	9.65133	62	51
9.28792	9.46928	70	58
9.46928	9.65133	74	55
9.65133	10.0176	51	47
9.65133	10.0176	63	47
9.65133	9.83407	67	58
9.83407	10.0176	72	55
10.0176	10.7676	53	50
10.0176	10.3926	62	50
10.0176	10.3926	70	58
10.3926	10.7676	60	48
10.3926	10.7676	69	55
10.7676	11.1379	58	51
10.7676	10.9551	70	58
10.9551	11.0466	65	56
11.1379	11.2291	67	60
11.32	11.4108	69	63
11.5014	11.5918	70	67
11.682	11.7721	72	70
11.8619	11.9516	74	74
12.0411	12.1369	75	77
12.2328	12.7358	58	64
12.2335	12.779	77	85
12.4146	12.7358	65	54
12.5964	12.7782	62	59
12.7782	12.96	65	54
12.7782	12.96	74	74
12.96	13.1418	55	63
12.96	13.1418	70	78
13.1418	13.3236	62	56
13.3236	13.5088	58	59
13.3236	13.5088	70	78
13.5088	13.694	62	55
13.694	14.0311	51	64
13.694	13.9213	75	85
13.8758	14.0576	60	54
13.8758	14.0311	77	61
13.9213	14.0122	75	61
13.9667	14.0311	74	61
14.0122	14.0576	75	61
14.0576	14.2394	55	59
14.0576	14.4212	79	78
14.2394	14.4212	60	55
14.4212	14.6047	53	64
14.4212	14.7882	69	81
14.6047	14.7882	63	54
14.7882	14.9717	60	60
14.9717	15.1552	63	56
15.1552	15.5188	62	66
15.1552	15.337	72	78
15.337	15.5188	70	74
15.5188	15.8825	57	60
15.5188	16.2461	62	60
15.5188	15.7006	74	81
15.7006	15.8825	72	77
15.8825	16.2461	58	64
15.8825	16.0643	75	82
16.0643	16.2461	74	79
16.2461	16.6153	51	64
16.2461	16.6153	60	64
16.2461	16.4307	77	85
16.4307	16.6153	75	81
16.6153	17.718	53	65
16.6153	17.347	58	65
16.6153	17.1641	74	85
17.1641	17.2556	75	81
17.2556	17.347	74	81
17.347	17.718	57	60
17.347	17.53	72	73
17.53	17.718	74	77
17.718	17.9081	75	78
17.9081	18.1	76	81
18.1	18.7924	58	65
18.1	18.7924	77	83
18.2818	18.6454	65	55
18.4636	18.7924	62	60
18.6454	18.8272	65	55
18.6454	18.7924	75	74
18.706	18.7924	74	74
18.7666	18.8272	72	74
18.8272	19.0074	55	64
18.8272	18.9173	70	79
19.0074	19.1876	62	57
19.0074	19.0975	70	76
19.1876	19.3734	58	60
19.1876	19.2805	70	79
19.3734	19.5592	62	57
19.3734	19.4663	70	76
19.5592	19.8932	51	64
19.5592	19.7864	75	85
19.741	19.9228	60	55
19.741	19.8932	77	61
19.7864	19.8773	75	61
19.8319	19.8932	74	61
19.8773	19.9228	75	61
19.9228	20.1046	55	59
19.9228	20.2864	79	78
20.1046	20.2864	60	55
20.2864	20.4682	53	64
20.2864	20.65	69	82
20.4682	20.65	63	55
20.65	20.8352	60	59
20.8352	21.016	63	55
20.8352	21.016	81	77
21.016	21.3774	50	59
21.016	21.7389	58	59
21.016	21.3616	82	85
21.1364	21.3616	77	74
21.2569	21.3774	74	72
21.3774	21.7389	51	55
21.3774	21.7389	79	84
21.4979	21.7389	75	73
21.6184	21.7389	72	74
21.7389	22.465	53	59
21.7389	22.1008	62	59
21.7389	22.0956	77	84
21.8593	22.0956	74	75
21.98	22.1008	70	74
22.1008	22.465	63	56
22.1008	22.465	75	84
22.222	22.465	72	74
22.3434	22.465	69	74
22.465	22.965	58	59
22.465	22.965	62	59
22.465	22.965	70	83
22.8559	23.2412	46	64
23.0513	23.2412	65	53
23.2412	23.3362	70	58
23.4311	23.526	69	53
23.621	23.7159	70	55
23.8108	23.9058	72	53
24.0007	24.3981	74	55
24.3981	24.7864	58	48
24.3981	24.7864	70	56
24.3981	24.7864	74	56
24.7864	25.1748	55	48
24.7864	25.1748	70	59
24.7864	25.1748	74	59
25.1748	25.5669	51	45
25.1748	25.5669	72	55
25.1748	25.5669	75	55
25.5669	25.9591	53	47
25.5669	25.9591	69	54
25.5669	25.9591	72	54
25.9591	26.3432	41	55
26.1551	26.3432	65	55
26.3432	26.4373	72	57
26.5313	26.6254	70	55
26.7194	26.8143	72	56
26.9093	27.0042	74	53
27.0991	27.5005	75	56
27.5005	27.8851	60	45
27.5005	27.8851	67	56
27.5005	27.8851	75	56
27.8851	28.2785	57	45
27.8851	28.2785	72	58
27.8851	28.2785	75	58
28.2785	28.672	53	42
28.2785	28.672	69	56
28.2785	28.672	77	56
28.672	29.0654	58	46
28.672	29.0654	70	54
28.672	29.0654	74	54
29.0654	29.4485	46	65
29.2621	29.4485	70	73
29.4485	29.5414	74	79
29.6342	29.7269	72	72
29.8195	29.912	74	75
30.0043	30.0966	76	72
30.1887	30.5559	77	79
30.3725	30.5559	57	53
30.5559	30.7377	60	57
30.6771	30.7983	77	77
30.7377	30.9195	57	53
30.7983	30.9195	79	79
30.9195	31.2832	65	67
30.9195	31.0408	81	82
31.0408	31.162	79	76
31.162	31.2832	77	76
31.2832	31.4043	76	79
31.4043	31.5265	74	77
31.5265	31.6496	72	76
31.6496	32.0211	70	75
31.8354	32.0211	55	53
32.0211	32.2018	58	58
32.1416	32.2621	76	73
32.2018	32.3826	55	54
32.2621	32.3826	77	76
32.3826	32.744	64	66
32.3826	32.5031	79	80
32.5031	32.6235	77	79
32.6235	32.744	76	78
32.744	32.8643	74	77
32.8643	32.9851	72	76
32.9851	33.1065	70	75
33.1065	33.4726	65	69
33.1065	33.1991	69	73
33.1991	33.2903	72	69
33.2903	33.3814	70	71
33.3814	33.4726	69	72
33.4726	33.5635	70	74
33.5635	33.6544	72	76
33.6544	33.7452	74	77
33.7452	33.8358	76	79
33.8358	33.9264	77	81
33.9264	34.0169	79	82
34.0169	34.1073	81	84
34.1073	34.1976	82	86
34.1976	34.5727	53	53
34.1976	34.2926	84	87
34.3875	34.5727	65	59
34.3875	34.5727	69	59
34.5727	34.7562	48	53
34.5727	34.9397	65	56
34.5727	34.9397	69	56
34.7562	34.9397	60	47
34.9397	35.1231	59	49
34.9397	35.1231	64	52
34.9397	35.1231	67	52
35.1231	35.3112	60	47
35.3112	35.6749	58	54
35.3112	36.0385	79	76
35.4931	35.8567	60	50
35.6749	36.0385	58	45
35.8567	36.0385	60	41
35.8567	36.0385	76	60
35.9476	36.0385	72	60
36.0385	36.2203	57	48
36.0385	36.4096	77	67
36.2203	36.4096	60	45
36.4096	36.5931	57	51
36.4096	36.7766	78	70
36.5931	36.7766	60	47
36.7766	37.1402	58	53
36.7766	37.5039	79	74
36.9584	37.322	60	50
37.1402	37.5039	58	47
37.322	37.5039	60	43
37.322	37.5039	76	61
37.4129	37.5039	72	61
37.5039	37.6857	57	46
37.5039	37.8675	77	65
37.6857	37.8675	60	36
37.8675	38.0493	57	43
38.0493	38.2379	60	36
38.2379	38.4198	58	56
38.2379	38.3289	79	75
38.4198	38.7834	60	55
38.4198	38.9669	79	75
38.6016	38.9669	58	49
38.7834	38.9669	60	46
38.7834	38.9669	76	61
38.8752	38.9669	72	61
38.9669	39.1504	57	48
38.9669	39.0586	77	64
39.1504	39.3339	60	45
39.1504	39.2421	77	68
39.3339	39.5171	57	50
39.3339	39.4256	78	71
39.5171	39.6992	60	47
39.5171	39.6083	78	71
39.6992	40.0617	58	53
39.6992	39.7898	79	77
39.8805	40.243	60	50
39.8805	40.4243	79	77
40.0617	40.4243	58	48
40.243	40.4243	60	45
40.243	40.4243	76	60
40.3336	40.4243	72	62
40.4243	40.7879	57	53
40.4243	40.8008	77	66
40.6061	40.8008	60	49
40.7879	41.1689	57	53
40.9697	41.1689	60	49
41.1515	41.5132	58	54
41.1515	41.5307	78	69
41.2417	41.4225	79	70
41.332	41.5307	60	48
41.332	41.5307	81	71
41.4225	41.5307	79	71
41.5132	41.8787	58	57
41.5132	41.8787	77	72
41.6042	41.8787	76	73
41.6955	41.8787	60	52
41.6955	41.8787	74	74
41.7869	41.8787	72	75
41.8787	42.6251	57	64
41.8787	42.1542	77	80
41.9707	42.6251	72	76
42.0625	42.3368	81	80
42.1542	42.6251	77	76
42.2457	42.4279	84	80
42.3368	42.5187	81	76
42.4279	42.6093	84	80
42.5187	42.6251	81	75
42.6093	42.9927	84	78
42.6997	42.9927	82	78
42.7901	42.9927	81	77
42.8807	42.9927	79	76
42.9715	43.3364	57	71
42.9715	43.3364	65	71
42.9715	43.3364	77	76
43.0624	43.3364	75	76
43.1536	43.3364	74	75
43.2449	43.3364	72	75
43.3364	43.7014	58	81
43.3364	43.7014	65	81
43.3364	43.6105	74	79
43.428	43.684	70	74
43.5193	43.684	77	81
43.6105	43.7014	74	75
43.7014	43.9729	82	84
43.7921	44.0585	77	79
43.8826	44.0585	86	82
43.9729	44.063	82	80
44.063	44.3755	86	78
44.1528	44.3755	84	76
44.2427	44.3755	82	75
44.3327	44.7848	81	73
44.4228	44.7848	58	51
44.4228	44.7848	65	51
44.4228	44.7848	67	51
44.4228	44.7848	79	72
44.5132	44.7848	77	69
44.6036	44.7848	76	67
44.6942	44.7848	74	65
44.7848	45.5121	60	55
44.7848	45.5257	72	63
44.9666	45.3303	69	51
45.1485	45.5257	65	56
45.3303	45.5257	69	51
45.5121	45.8863	60	55
45.5121	45.6485	81	67
45.5803	45.7166	79	61
45.6485	45.7848	81	67
45.6939	45.8863	70	49
45.7166	45.853	79	59
45.7848	45.8863	81	67
45.853	45.9894	79	61
45.8757	46.2394	64	55
45.9212	46.2394	81	67
45.9894	46.1485	79	67
46.0576	46.2394	70	49
46.0576	46.2394	77	69
46.1485	46.2394	79	70
46.2394	46.6024	65	55
46.2394	46.3307	81	72
46.3307	46.4215	82	74
46.4215	46.5119	84	74
46.5119	46.6024	82	72
46.6024	46.693	81	71
46.693	46.7839	79	70
46.7839	46.9662	67	61
46.7839	46.875	77	68
46.875	46.9662	76	67
46.9662	47.3284	69	66
46.9662	47.0574	77	69
47.0574	47.1481	79	71
47.1481	47.2382	81	72
47.2382	47.3284	79	70
47.3284	47.4188	77	69
47.4188	47.5094	75	69
47.5094	47.6911	57	60
47.5094	47.6002	74	68
47.6002	47.6911	73	67
47.6911	48.0524	58	66
47.6911	47.7817	74	67
47.7817	47.8721	76	70
47.8721	47.9622	77	72
47.9622	48.0524	75	71
48.0524	48.1429	74	70
48.1429	48.2337	72	69
48.2337	48.3246	70	68
48.3246	48.4158	69	68
48.4158	48.7791	34	67
48.4158	48.7791	46	67
48.4158	48.5071	67	67
48.5071	48.5979	69	68
48.5979	48.6883	70	69
48.6883	48.7791	69	68
48.7791	48.8701	67	66
48.8701	48.9617	65	65
48.9617	49.0535	64	63
49.0535	49.1458	62	61
49.1458	49.3282	48	57
49.1458	49.3282	60	60
49.3282	49.51	57	54
49.3282	49.4191	62	60
49.4191	49.51	64	61
49.51	49.6913	53	57
49.51	49.6006	65	62
49.6006	49.6913	67	64
49.6913	49.872	57	54
49.6913	49.7816	69	65
49.7816	49.872	70	66
49.872	50.0522	48	63
49.872	49.9621	72	67
49.9621	50.0522	74	69
50.0522	50.2318	57	57
50.0522	50.142	76	70
50.142	50.2318	77	71
50.2318	50.4109	53	67
50.2318	50.3213	79	73
50.3213	50.4109	81	74
50.4109	50.5933	57	61
50.4109	50.5002	82	75
50.5002	50.5933	84	77
50.5933	51.3336	48	57
50.5933	51.3442	77	71
50.6581	50.7849	79	64
50.722	50.8468	81	58
50.7849	51.1527	58	53
50.7849	50.9085	79	64
50.8468	50.9698	81	58
50.9085	51.0319	79	65
50.9698	51.3442	52	57
50.9698	51.0923	81	62
51.0319	51.1527	79	67
51.0923	51.2131	81	61
51.1527	51.3442	58	53
51.1527	51.2733	79	68
51.2131	51.3336	81	61
51.2733	51.3442	79	69
51.3336	52.073	48	57
51.3336	51.4543	81	64
51.3939	51.5148	79	70
51.4543	51.5755	81	64
51.5148	51.8817	58	53
51.5148	51.6363	79	70
51.5755	51.6973	81	66
51.6363	51.7893	79	69
51.6973	52.073	52	57
51.6973	52.073	81	72
51.7893	51.975	79	72
51.8817	52.073	58	52
51.8817	52.073	77	73
51.975	52.073	79	70
52.073	52.4366	53	57
52.073	52.4366	57	57
52.073	52.2548	77	76
52.2548	52.4366	77	72
52.4366	53.0783	53	47
52.4366	53.0783	57	47
52.6184	52.8003	77	55
52.8003	52.9821	77	57
52.9821	53.1639	77	54
53.1639	53.5275	53	47
53.1639	53.5275	57	47
53.3457	53.5275	77	55
53.5275	53.8912	53	50
53.5275	53.8912	55	50
53.5275	53.8912	58	50
53.5275	53.7094	77	57
53.7094	53.9874	77	53
53.8912	54.5116	53	50
53.8912	54.5116	55	50
53.8912	54.5116	58	50
54.073	54.2548	77	60
54.2548	54.4366	77	64
54.4366	54.8002	77	60
54.6184	54.9821	53	54
54.6184	54.9821	56	54
54.6184	54.9821	59	54
54.8002	54.9821	77	69
54.9821	55.7143	53	55
54.9821	55.3461	57	55
54.9821	55.3461	60	55
54.9821	55.1636	77	72
55.1636	55.3461	77	69
55.3461	55.7143	57	61
55.3461	55.7143	61	61
55.5297	55.7143	77	79
55.7143	56.4635	53	66
55.7143	56.0867	58	66
55.7143	56.0867	62	66
55.7143	55.8999	77	82
55.8999	56.0867	77	78
56.0867	56.4635	59	71
56.0867	56.4635	62	71
56.2746	56.4635	77	80
56.4635	57.9225	53	77
56.4635	57.9225	60	77
56.4635	57.9225	63	77
56.4635	57.9225	77	86
56.6459	56.8283	81	81
56.8283	57.9225	81	86
57.0107	57.193	84	81
57.193	57.7402	84	86
57.3754	57.5578	87	81
57.5578	57.9225	87	86
57.7402	57.9225	84	75
57.9225	58.6746	84	81
58.106	58.2895	81	73
58.2895	58.6746	81	79
58.473	58.6565	77	71
58.6565	58.8463	77	68
58.8463	59.039	76	57
59.039	59.2347	76	57
59.2347	59.4637	77	57
59.4644	60.0099	77	67
59.8273	60.1909	58	45
60.0091	60.1909	74	53
60.1909	60.5546	62	48
60.1909	60.3727	70	55
60.5546	60.9319	67	46
60.5546	60.7432	70	53
60.9319	61.2956	60	52
60.9319	61.2956	75	60
61.2956	61.6592	63	46
61.2956	61.6592	79	55
61.6592	62.0262	65	48
61.6592	62.0262	69	57
62.0262	62.3931	63	46
62.3931	62.7568	62	53
62.3931	62.5749	72	55
62.5749	62.7568	70	53
62.7568	63.1204	57	47
62.7568	62.9386	74	57
62.9386	63.1204	72	54
63.1204	63.484	58	51
63.1204	63.3022	75	58
63.3022	63.484	74	56
63.484	63.8532	51	49
63.484	63.8532	60	49
63.484	63.6686	77	60
63.6686	63.8532	75	57
63.8532	64.9559	53	52
63.8532	64.585	58	52
63.8532	64.402	74	60
64.402	64.4935	75	57
64.4935	64.585	74	57
64.585	64.9559	57	47
64.585	64.7679	72	52
64.7679	64.9559	74	54
64.9559	65.1461	75	55
65.1461	65.3379	76	57
65.3379	65.8834	77	59
65.7015	66.0652	58	41
65.8834	65.944	75	53
65.944	66.0046	74	53
66.0046	66.0652	72	53
66.0652	66.4255	62	47
66.0652	66.2453	70	56
66.4255	66.797	67	45
66.4255	66.6113	70	56
66.797	67.1607	60	51
66.797	67.1607	75	60
67.1607	67.5243	63	47
67.1607	67.5243	79	55
67.5243	67.888	65	48
67.5243	67.888	69	58
67.888	68.2516	63	45
68.0698	68.2516	69	54
68.2516	68.615	62	51
68.2516	68.4329	70	58
68.4329	68.615	74	55
68.615	68.9813	51	47
68.615	68.9813	63	47
68.615	68.7977	67	58
68.7977	68.9813	72	55
68.9813	69.7313	53	50
68.9813	69.3563	62	50
68.9813	69.3563	70	58
69.3563	69.7313	60	48
69.3563	69.7313	69	55
69.7313	70.1016	58	51
69.7313	69.9188	70	58
69.9188	70.0102	65	56
70.1016	70.1927	67	60
70.2837	70.3744	69	63
70.4651	70.5554	70	67
70.6456	70.7357	72	70
70.8256	70.9152	74	74
71.0047	71.1006	75	77
71.1964	71.9661	58	64
71.1972	71.9661	77	85
71.3783	71.7419	65	54
71.5601	71.9661	62	59
71.7419	71.9661	65	54
71.7419	71.9661	74	74
71.9237	72.1055	55	63
71.9237	72.1055	70	78
72.1055	72.2873	62	55
72.2873	72.4725	58	59
72.2873	72.4725	70	78
72.4725	72.6577	62	55
72.6577	72.9789	51	64
72.6577	72.8849	75	85
72.8395	73.0213	60	56
72.8395	72.9789	77	61
72.8849	72.9758	75	61
72.9304	72.9789	74	61
72.9758	73.0213	75	61
73.0213	73.2031	55	59
73.0213	73.3849	79	78
73.2031	73.3849	60	55
73.3849	73.5684	53	64
73.3849	73.7519	69	81
73.5684	73.7519	63	56
73.7519	73.9354	60	60
73.9354	74.1189	63	56
74.1189	74.4825	62	66
74.1189	74.3007	72	78
74.3007	74.4825	70	71
74.4825	74.8461	57	57
74.4825	75.2098	62	57
74.4825	74.6643	74	81
74.6643	74.8461	72	75
74.8461	75.2098	58	64
74.8461	75.028	75	82
75.028	75.2098	74	77
75.2098	75.579	51	64
75.2098	75.579	60	64
75.2098	75.3944	77	85
75.3944	75.579	75	81
75.579	76.6817	53	65
75.579	76.3107	58	65
75.579	76.1278	74	85
76.1278	76.2192	75	78
76.2192	76.3107	74	76
76.3107	76.6817	57	60
76.3107	76.4936	72	73
76.4936	76.6817	74	77
76.6817	76.8718	75	78
76.8718	77.0637	76	81
77.0637	77.7212	58	65
77.0637	77.7212	77	83
77.2455	77.6091	65	55
77.4273	77.7212	62	60
77.6091	77.7909	65	55
77.6091	77.7212	75	74
77.6697	77.7303	74	74
77.7303	77.7909	72	74
77.7909	77.9711	55	64
77.7909	77.881	70	79
77.9711	78.1513	62	56
77.9711	78.0612	70	79
78.1513	78.3371	58	60
78.1513	78.2442	70	79
78.3371	78.5228	62	55
78.3371	78.43	70	79
78.5228	78.838	51	64
78.5228	78.7501	75	85
78.7047	78.8865	60	55
78.7047	78.838	77	61
78.7501	78.838	75	61
78.7956	78.841	74	61
78.841	78.8865	75	61
78.8865	79.0683	55	59
78.8865	79.2501	79	78
79.0683	79.2501	60	55
79.2501	79.4319	53	64
79.2501	79.6137	69	82
79.4319	79.6137	63	55
79.6137	79.7989	60	59
79.7989	79.9796	63	54
79.7989	79.9796	81	77
79.9796	80.3569	50	59
79.9796	80.7025	58	59
79.9796	80.3569	82	85
80.1001	80.3569	77	75
80.2206	80.3569	74	74
80.3411	80.7025	51	56
80.3411	80.692	79	84
80.4616	80.692	75	75
80.5821	80.7025	72	75
80.7025	81.4287	53	59
80.7025	81.0804	62	59
80.7025	81.0804	77	84
80.823	81.0804	74	74
80.9437	81.0804	70	74
81.0645	81.4287	63	56
81.0645	81.4287	75	84
81.1857	81.4287	72	74
81.3071	81.4287	69	72
81.4287	81.9344	58	59
81.4287	81.9344	62	59
81.4287	81.9344	70	83
81.8196	82.2049	46	63
82.015	82.2049	65	55
82.2049	82.2998	70	58
82.3948	82.4897	69	52
82.5847	82.6796	70	55
82.7745	82.8695	72	51
82.9644	83.3618	74	55
83.3618	83.7501	58	46
83.3618	83.7501	70	56
83.3618	83.7501	74	56
83.7501	84.1384	55	48
83.7501	84.1384	70	59
83.7501	84.1384	74	59
84.1384	84.5306	51	46
84.1384	84.5306	72	55
84.1384	84.5306	75	55
84.5306	84.9227	53	47
84.5306	84.9227	69	54
84.5306	84.9227	72	54
84.9227	85.3069	41	57
85.1188	85.3069	65	55
85.3069	85.401	72	57
85.495	85.589	70	54
85.6831	85.778	72	56
85.8729	85.9679	74	54
86.0628	86.4642	75	56
86.4642	86.8488	60	45
86.4642	86.8488	67	56
86.4642	86.8488	75	56
86.8488	87.2422	57	45
86.8488	87.2422	72	58
86.8488	87.2422	75	58
87.2422	87.6357	53	42
87.2422	87.6357	69	56
87.2422	87.6357	77	56
87.6357	88.0291	58	46
87.6357	88.0291	70	54
87.6357	88.0291	74	54
88.0291	88.4127	46	58
88.2258	88.4127	70	58
88.4127	88.5062	74	64
88.5997	88.6931	72	59
88.7866	88.88	74	64
88.9735	89.067	75	67
89.1604	89.4584	77	71
89.5578	89.8564	58	53
89.5578	89.8564	62	53
89.5578	89.8564	77	76
89.9565	90.2581	58	56
89.9565	90.2581	62	56
89.9565	90.2581	77	79
90.3591	90.6639	58	60
90.3591	90.6639	62	60
90.3591	90.6639	77	82
90.7659	91.5212	57	68
90.7659	91.5212	60	68
90.7659	92.2724	78	91
90.9707	91.1542	72	59
91.1542	91.3377	74	59
91.3377	91.5212	75	63
91.5212	92.2724	50	54
91.5212	92.2724	57	54
91.5212	91.7081	75	63
91.7081	91.895	74	62
91.895	92.0837	74	61
92.0837	92.2724	72	57
92.2724	93.8146	51	53
92.2724	93.0417	70	70
92.2724	93.0417	79	70
92.473	92.6599	55	52
92.6599	92.8468	57	54
92.8468	93.0417	58	57
93.0417	93.233	58	57
93.0417	93.8146	73	64
93.233	93.4257	57	55
93.4257	93.6195	57	55
93.6195	93.8146	55	54
93.8146	94.2068	50	47
93.8146	94.2068	54	47
93.8146	94.2068	74	69
94.5009	94.5989	62	63
94.5989	94.9911	74	80
94.9911	95.3833	74	76
95.3833	96.1447	55	58
95.3833	96.1531	82	85
95.5793	95.96	58	50
95.7754	96.1531	62	54
95.96	96.1531	58	50
95.96	96.1531	81	75
96.0216	96.1447	79	72
96.0831	96.1531	78	72
96.1447	96.5464	55	54
96.1447	96.5464	79	79
96.3293	96.5464	58	47
96.5139	96.9035	62	50
96.5139	96.9035	74	73
96.7087	96.9035	58	47
96.9035	97.6559	55	58
96.9035	97.6559	75	80
97.0983	97.4772	60	51
97.2931	97.6559	63	54
97.4772	97.6612	60	51
97.5692	97.6612	67	71
97.6612	98.4103	55	53
97.6612	98.0293	79	86
97.8453	98.2198	60	49
98.0293	98.4103	63	51
98.0293	98.4103	79	83
98.2198	98.4103	60	48
98.4103	99.1831	53	58
98.4103	99.1831	87	101
98.6008	98.9753	60	51
98.7912	99.1831	63	54
98.9753	99.1831	60	51
98.9753	99.1831	86	75
99.0366	99.1594	84	71
99.098	99.1831	83	71
99.1594	99.9235	55	56
99.1594	99.9235	84	79
99.3434	99.7255	60	50
99.5275	99.9235	63	52
99.5275	99.9235	75	78
99.7255	99.9235	60	49
99.9235	100.442	55	53
99.9235	100.442	74	74
100.122	100.442	58	50
100.32	100.518	62	50
100.518	100.704	73	69
100.704	100.893	74	73
100.893	100.99	82	72
101.088	101.185	81	71
101.283	101.38	79	69
101.477	101.867	57	50
101.477	101.867	60	50
101.477	101.867	63	50
101.477	101.813	78	74
101.77	101.818	79	64
101.818	101.867	81	64
101.867	102.057	58	46
101.867	102.057	62	46
101.867	101.962	79	78
102.057	102.158	79	74
102.258	102.453	85	83
102.453	102.648	86	78
102.648	102.743	82	74
102.839	102.938	79	74
103.038	103.432	57	49
103.038	103.432	60	49
103.038	103.432	63	49
103.038	103.432	78	77
103.327	103.424	79	66
103.375	103.432	81	66
103.424	103.617	58	45
103.424	103.617	62	45
103.424	103.52	79	77
103.617	103.811	74	67
103.811	103.909	79	71
104.007	104.106	79	71
104.205	104.305	79	71
104.405	104.506	79	71
104.608	106.188	51	53
104.608	105.397	58	53
104.608	104.914	79	78
104.914	104.962	81	63
104.962	105.01	82	63
105.01	105.107	81	75
105.204	105.301	79	72
105.397	106.188	55	47
105.397	105.495	77	72
105.593	105.691	75	70
105.789	105.888	74	68
105.988	106.088	73	67
106.188	106.59	54	40
106.188	106.59	57	40
106.188	106.389	73	71
106.389	106.59	74	68
106.59	106.984	50	28
106.59	106.984	54	28
106.59	106.984	57	34
106.59	106.886	74	59
106.984	107.383	50	29
106.984	107.383	54	29
106.984	107.383	57	35
106.984	107.283	74	58
107.383	107.791	50	28
107.383	107.791	54	28
107.383	107.791	57	34
107.383	107.689	74	54
107.791	107.859	73	40
107.859	107.927	74	44
107.927	107.995	75	49
107.995	109.405	74	62
108.19	108.581	50	27
108.19	108.581	53	27
108.19	108.581	57	37
108.581	108.972	50	27
108.581	108.972	53	27
108.581	108.972	57	37
108.972	109.405	50	26
108.972	109.405	53	26
108.972	109.405	57	36
109.405	110.99	77	72
109.796	110.187	50	38
109.796	110.187	53	38
109.796	110.187	58	51
110.187	110.578	50	41
110.187	110.578	53	41
110.187	110.578	58	56
110.578	110.99	50	45
110.578	110.99	53	45
110.578	110.99	58	60
110.99	112.549	56	74
110.99	112.549	62	74
111.38	111.769	46	45
111.38	111.769	53	60
111.769	112.159	46	48
111.769	112.159	53	63
112.159	112.549	46	45
112.159	112.549	53	60
112.549	112.938	39	48
112.549	112.938	51	63
112.549	112.938	55	74
112.549	113.575	63	74
112.938	113.302	51	46
113.302	113.666	55	41
113.575	113.666	58	45
113.666	114.034	56	38
113.666	113.942	62	49
113.942	114.034	58	46
114.034	114.407	55	44
114.034	114.407	63	52
114.31	114.407	58	49
114.402	114.778	50	35
114.402	114.778	65	51
114.675	114.778	58	51
114.767	115.155	51	41
114.767	115.155	67	53
115.045	115.155	58	54
115.138	115.522	53	46
115.138	115.438	68	56
115.426	115.522	58	54
115.522	116.656	65	57
115.902	116.266	46	41
116.266	116.656	50	45
116.539	116.656	58	50
116.629	116.998	49	41
116.629	116.998	64	52
116.906	116.998	58	53
116.998	117.387	50	47
116.998	117.387	65	55
117.274	117.387	58	51
117.366	117.766	52	38
117.366	117.766	67	52
117.638	117.766	58	54
117.729	118.099	53	42
117.729	118.099	68	56
118.002	118.099	58	56
118.093	118.485	50	48
118.093	118.485	70	57
118.387	118.485	58	55
118.485	118.861	51	50
118.485	118.861	67	58
118.861	119.222	39	45
119.042	119.222	70	63
119.222	119.492	75	67
119.492	119.582	77	69
119.582	119.956	55	49
119.582	119.956	63	49
119.582	119.865	79	72
119.865	119.956	70	63
119.956	120.228	72	66
120.228	120.318	74	68
120.318	120.695	56	47
120.318	120.695	63	47
120.318	120.695	75	71
120.6	120.695	67	63
120.69	120.962	68	65
120.962	121.053	70	67
121.053	121.424	60	46
121.053	121.424	63	46
121.053	121.351	72	70
121.329	121.424	68	63
121.424	121.606	58	46
121.424	121.606	63	46
121.424	121.787	67	61
121.787	121.968	46	58
121.968	122.15	70	63
122.15	122.422	75	65
122.422	122.512	77	67
122.512	122.882	55	47
122.512	122.882	63	47
122.512	122.83	79	70
122.792	122.882	71	63
122.882	123.152	72	66
123.152	123.242	74	67
123.242	123.613	56	47
123.242	123.613	63	47
123.242	123.565	75	71
123.522	123.613	67	61
123.613	123.886	68	63
123.886	123.977	70	64
123.977	124.35	60	47
123.977	124.35	63	47
123.977	124.294	72	68
124.255	124.35	68	61
124.35	124.541	58	52
124.35	124.541	63	52
124.35	124.731	67	57
124.731	124.921	46	62
124.921	125.105	67	49
125.105	125.291	70	53
125.291	125.478	69	49
125.478	125.851	60	47
125.478	125.851	63	47
125.668	125.851	69	54
125.851	126.037	72	58
126.037	126.224	70	55
126.224	126.597	55	49
126.224	126.597	63	49
126.414	126.597	71	61
126.597	126.963	56	52
126.597	126.963	63	52
126.597	126.78	74	66
126.78	126.963	72	60
126.963	127.329	53	55
126.963	127.329	56	55
126.963	127.146	75	71
127.146	127.329	74	62
127.329	127.695	55	56
127.329	127.695	58	56
127.329	127.512	77	74
127.512	127.695	75	63
127.695	128.061	55	57
127.695	128.061	58	57
127.695	127.878	77	79
127.878	128.061	76	69
128.061	128.426	53	57
128.061	128.426	56	57
128.061	128.426	58	57
128.061	128.243	79	86
128.243	128.426	77	74
128.426	128.792	51	59
128.426	128.792	55	59
128.426	128.792	58	59
128.426	128.609	80	91
128.609	128.792	79	83
128.792	129.164	50	65
128.792	129.164	53	65
128.792	129.164	58	65
128.792	128.978	82	99
128.978	129.164	80	83
130.078	130.261	77	49
130.261	130.627	63	48
130.261	130.627	70	48
130.261	130.536	79	52
130.536	130.627	75	49
130.627	130.993	56	47
130.627	130.993	68	47
130.627	130.902	72	53
130.902	130.993	77	49
130.993	131.753	58	48
130.993	131.362	67	48
130.993	131.362	75	53
131.362	131.753	65	45
131.362	131.753	74	49
131.753	132.126	50	68
131.753	132.126	53	68
131.753	132.126	58	68
131.753	131.939	82	97
131.939	132.126	80	87
133.04	133.223	77	48
133.223	133.589	63	46
133.223	133.589	70	46
133.223	133.498	79	51
133.498	133.589	75	48
133.589	133.955	56	43
133.589	133.955	68	43
133.589	133.864	72	51
133.864	133.955	77	48
133.955	134.711	58	46
133.955	134.325	67	46
133.955	134.325	75	51
134.325	134.711	65	43
134.325	134.711	74	48
134.711	134.808	67	69
134.808	135.283	79	74
135.283	135.47	75	56
135.47	136.225	63	44
135.47	136.225	67	44
135.47	135.656	72	51
135.842	136.034	72	47
136.225	136.971	62	49
136.225	136.967	71	49
136.225	136.593	77	55
136.593	136.971	80	56
136.971	137.35	65	46
136.971	137.35	68	46
136.971	137.161	71	46
137.539	137.723	71	46
137.723	138.09	63	40
137.723	139.186	67	40
137.723	137.906	74	52
137.906	138.09	72	49
138.09	138.457	59	42
138.09	138.273	75	55
138.273	138.457	74	50
138.457	138.819	60	45
138.457	138.638	77	58
138.638	138.819	75	53
138.819	139.186	62	46
139.005	139.186	71	46
139.186	139.549	63	42
139.186	140.275	67	42
139.186	139.367	74	50
139.367	139.549	72	48
139.549	139.911	59	46
139.549	139.73	75	55
139.73	139.911	74	51
139.911	140.275	60	49
139.911	140.093	77	58
140.093	140.275	75	51
140.275	140.457	77	62
140.457	140.649	76	56
140.649	141.194	77	75
141.194	141.376	74	44
141.376	142.111	62	41
141.376	142.111	65	41
141.376	141.558	70	48
141.74	141.926	70	48
142.111	142.841	60	49
142.111	142.837	69	49
142.111	142.476	75	52
142.476	142.841	78	49
142.841	143.212	63	40
142.841	143.212	66	40
142.841	143.027	69	52
143.398	143.581	69	44
143.581	143.947	61	42
143.581	145.061	65	42
143.581	143.764	72	49
143.764	143.947	70	47
143.947	144.313	57	44
143.947	144.13	73	51
144.13	144.313	72	47
144.313	144.69	58	47
144.313	144.501	75	54
144.501	144.69	73	51
144.69	145.061	60	42
144.879	145.061	69	45
145.061	145.424	61	43
145.061	146.162	65	43
145.061	145.242	72	50
145.242	145.424	70	45
145.424	145.788	57	46
145.424	145.606	73	52
145.606	145.788	72	48
145.788	146.162	58	48
145.788	145.975	75	55
145.975	146.162	73	50
146.162	146.53	58	44
146.162	146.53	65	44
146.349	146.439	73	51
146.53	146.713	73	55
146.713	146.897	71	52
146.897	147.258	56	49
146.897	147.258	65	49
147.077	147.258	71	48
147.258	147.441	71	53
147.441	147.623	70	49
147.623	147.984	54	49
147.623	147.984	61	49
147.804	147.984	70	52
147.984	148.17	70	71
148.17	148.355	80	73
148.355	148.72	53	49
148.355	148.72	62	49
148.536	148.72	80	74
148.72	148.903	80	78
148.903	149.087	78	75
149.087	149.45	51	58
149.087	149.45	63	58
149.268	149.45	78	76
149.45	149.634	78	81
149.634	149.817	77	78
149.817	150.18	53	66
149.817	150.18	61	66
149.998	150.18	77	84
150.18	150.363	77	89
150.363	150.545	76	84
150.545	150.911	54	71
150.545	150.911	61	71
150.728	150.911	76	91
150.911	152.357	54	71
150.911	151.63	64	71
150.911	151.316	82	93
151.271	151.45	84	76
151.316	151.405	82	78
151.36	151.556	81	80
151.405	151.556	82	79
151.45	151.63	84	86
151.63	152.357	58	76
151.63	151.992	85	92
151.992	152.357	76	89
152.357	153.81	53	74
152.357	153.08	57	74
152.357	152.537	77	91
152.537	152.718	76	79
152.718	152.899	77	85
152.899	153.08	72	74
153.08	153.81	58	65
153.08	153.26	75	78
153.26	153.442	73	70
153.442	153.625	72	68
153.625	153.81	70	64
153.81	155.276	53	59
153.81	154.533	57	59
153.81	153.991	78	76
153.991	154.172	77	71
154.172	154.352	76	71
154.352	154.533	77	61
154.533	155.276	58	47
154.533	154.719	75	66
154.719	154.905	73	60
154.905	155.09	72	56
155.09	155.276	70	53
155.276	155.462	65	47
155.276	155.702	69	50
155.276	155.702	72	50
155.462	155.702	65	47
155.648	156.066	70	62
155.648	156.066	73	62
155.83	156.012	65	45
156.012	156.195	65	47
156.012	156.753	69	57
156.012	156.753	72	57
156.195	156.565	65	47
156.377	156.753	70	62
156.377	156.753	76	62
156.565	156.753	65	44
156.753	156.938	65	47
156.753	157.208	69	65
156.753	157.208	77	65
156.938	157.208	65	47
157.123	157.571	70	62
157.123	157.571	73	62
157.304	157.485	65	44
157.485	157.666	65	47
157.485	157.858	69	57
157.485	157.858	72	57
157.666	157.858	65	47
157.858	158.226	70	62
157.858	158.226	76	62
158.042	158.226	65	47
158.226	158.59	53	53
158.226	158.644	65	53
158.226	158.644	69	68
158.226	158.408	77	68
158.408	158.644	77	68
158.59	159.242	53	50
158.59	159.242	57	50
158.772	158.954	77	60
158.954	159.135	77	64
159.135	159.317	77	60
159.317	159.681	53	50
159.317	159.681	57	50
159.499	159.681	77	60
159.681	160.044	53	53
159.681	160.044	55	53
159.681	160.044	58	53
159.681	159.863	77	63
159.863	160.184	77	60
160.044	160.644	53	50
160.044	160.644	55	50
160.044	160.644	58	50
160.226	160.408	77	64
160.408	160.59	77	67
160.59	160.772	77	64
160.772	161.135	53	54
160.772	161.135	56	54
160.772	161.135	59	54
160.954	161.135	77	69
161.135	161.868	53	55
161.135	161.499	57	55
161.135	161.499	60	55
161.135	161.317	77	72
161.317	161.499	77	74
161.499	161.868	57	61
161.499	161.868	61	61
161.683	161.868	77	79
161.868	162.617	53	66
161.868	162.45	58	66
161.868	162.24	62	66
161.868	162.053	77	82
162.053	162.428	77	84
162.24	162.617	59	71
162.24	162.617	62	71
162.428	162.617	77	86
162.617	164.076	53	77
162.617	164.076	60	77
162.617	164.076	63	77
162.617	162.708	77	86
162.799	162.982	65	67
162.982	163.164	64	66
163.164	163.346	65	65
163.346	163.529	66	64
163.529	163.711	67	63
163.711	163.893	68	62
163.893	164.076	69	61
164.076	164.258	70	60
164.258	164.441	71	59
164.441	164.623	72	58
164.623	164.805	73	57
164.805	164.99	74	56
164.99	165.176	75	55
165.176	165.365	76	54
165.365	165.578	77	52
165.579	166.124	77	66
165.942	166.305	58	42
166.124	166.305	74	53
166.305	166.669	62	48
166.305	166.487	70	55
166.669	167.046	67	46
166.669	166.858	70	55
167.046	167.41	60	52
167.046	167.41	75	60
167.41	167.774	63	46
167.41	167.774	79	55
167.774	168.141	65	48
167.774	168.141	69	57
168.141	168.508	63	47
168.508	168.871	62	53
168.508	168.689	72	55
168.689	168.871	70	53
168.871	169.235	57	47
168.871	169.053	74	57
169.053	169.235	72	54
169.235	169.599	58	51
169.235	169.417	75	58
169.417	169.599	74	56
169.599	169.968	51	51
169.599	169.968	60	51
169.599	169.783	77	60
169.783	169.968	75	57
169.968	171.07	53	52
169.968	170.699	58	52
169.968	170.517	74	60
170.517	170.608	75	57
170.608	170.699	74	55
170.699	171.07	57	47
170.699	170.882	72	52
170.882	171.07	74	54
171.07	171.261	75	55
171.261	171.452	76	57
171.452	171.998	77	59
171.816	172.18	58	45
171.998	172.058	75	53
172.058	172.119	74	53
172.119	172.18	72	53
172.18	172.54	62	47
172.18	172.36	70	56
172.54	172.912	67	47
172.54	172.726	70	56
172.912	173.275	60	51
172.912	173.275	75	60
173.275	173.639	63	46
173.275	173.639	79	55
173.639	174.002	65	48
173.639	174.002	69	58
174.002	174.366	63	48
174.184	174.366	69	54
174.366	174.73	62	51
174.366	174.547	70	58
174.547	174.73	74	55
174.73	175.096	51	47
174.73	175.096	63	47
174.73	174.912	67	58
174.912	175.096	72	55
175.096	175.846	53	50
175.096	175.471	62	50
175.096	175.471	70	58
175.471	175.846	60	48
175.471	175.846	69	55
175.846	176.216	58	51
175.846	176.033	70	58
176.033	176.125	65	56
176.216	176.307	67	60
176.398	176.489	69	63
176.58	176.67	70	67
176.76	176.85	72	70
176.94	177.03	74	74
177.119	177.215	75	77
177.311	177.963	58	64
177.312	177.963	77	85
177.493	177.856	65	56
177.675	177.963	62	59
177.856	178.038	65	56
177.856	178.038	74	74
178.038	178.22	55	63
178.038	178.22	70	78
178.22	178.402	62	57
178.402	178.587	58	59
178.402	178.587	70	78
178.587	178.772	62	56
178.772	179.085	51	64
178.772	178.999	75	85
178.954	179.136	60	56
178.954	179.085	77	61
178.999	179.085	75	61
179.045	179.09	74	61
179.09	179.136	75	61
179.136	179.318	55	59
179.136	179.499	79	78
179.318	179.499	60	56
179.499	179.683	53	64
179.499	179.866	69	81
179.683	179.866	63	57
179.866	180.05	60	60
180.05	180.233	63	57
180.233	180.597	62	66
180.233	180.415	72	78
180.415	180.597	70	73
180.597	180.961	57	60
180.597	181.324	62	60
180.597	180.779	74	81
180.779	180.961	72	75
180.961	181.324	58	64
180.961	181.142	75	82
181.142	181.324	74	77
181.324	181.693	51	58
181.324	181.693	60	58
181.324	181.509	77	85
181.509	181.693	75	81
181.693	182.796	53	65
181.693	182.425	58	65
181.693	182.242	74	85
182.242	182.334	75	81
182.334	182.425	74	76
182.425	182.796	57	60
182.425	182.608	72	73
182.608	182.796	74	77
182.796	182.986	75	78
182.986	183.178	76	81
183.178	183.865	58	65
183.178	183.865	77	83
183.36	183.724	65	57
183.542	183.865	62	60
183.724	183.905	65	56
183.724	183.865	75	74
183.784	183.865	74	74
183.845	183.905	72	74
183.905	184.086	55	64
183.905	183.996	70	79
184.086	184.266	62	57
184.086	184.176	70	76
184.266	184.452	58	60
184.266	184.359	70	79
184.452	184.637	62	57
184.452	184.544	70	77
184.637	184.961	51	64
184.637	184.865	75	85
184.819	185.001	60	56
184.819	184.961	77	61
184.865	184.956	75	61
184.91	184.961	74	61
184.956	185.001	75	61
185.001	185.183	55	59
185.001	185.365	79	78
185.183	185.365	60	56
185.365	185.546	53	64
185.365	185.728	69	82
185.546	185.728	63	56
185.728	185.913	60	59
185.913	186.094	63	55
185.913	186.094	81	77
186.094	186.466	50	59
186.094	186.817	58	59
186.094	186.466	82	85
186.215	186.466	77	75
186.335	186.466	74	74
186.456	186.817	51	57
186.456	186.812	79	84
186.576	186.812	75	76
186.697	186.817	72	75
186.817	187.543	53	59
186.817	187.2	62	59
186.817	187.2	77	84
186.938	187.2	74	76
187.058	187.2	70	77
187.179	187.543	63	57
187.179	187.543	75	84
187.3	187.543	72	76
187.422	187.543	69	75
187.543	187.934	58	59
187.543	187.934	62	59
187.543	187.934	70	83
187.934	188.319	46	63
188.13	188.319	65	55
188.319	188.414	70	58
188.509	188.604	69	53
188.699	188.794	70	55
188.889	188.984	72	52
189.079	189.476	74	55
189.476	189.865	58	47
189.476	189.865	70	56
189.476	189.865	74	56
189.865	190.253	55	48
189.865	190.253	70	59
189.865	190.253	74	59
190.253	190.645	51	46
190.253	190.645	72	55
190.253	190.645	75	55
190.645	191.037	53	47
190.645	191.037	69	54
190.645	191.037	72	54
191.037	191.421	41	57
191.233	191.421	65	55
191.421	191.515	72	57
191.609	191.704	70	53
191.798	191.893	72	56
191.987	192.082	74	52
192.177	192.579	75	56
192.579	192.963	60	45
192.579	192.963	67	56
192.579	192.963	75	56
192.963	193.357	57	45
192.963	193.357	72	58
192.963	193.357	75	58
193.357	193.75	53	45
193.357	193.75	69	56
193.357	193.75	77	56
193.75	194.144	58	46
193.75	194.144	70	54
193.75	194.144	74	54
194.144	194.527	46	70
194.34	194.527	70	56
194.527	194.62	74	60
194.712	194.805	75	64
194.898	194.99	77	68
195.082	195.175	79	72
195.267	195.454	80	76
195.642	195.842	38	53
195.642	195.842	50	59
195.642	195.842	58	64
195.642	195.842	65	72
195.642	195.842	68	72
196.042	196.242	38	57
196.042	196.242	50	64
196.042	196.242	58	65
196.042	196.242	65	73
196.042	196.242	68	73
196.442	196.658	36	52
196.442	196.658	48	58
196.442	196.658	60	63
196.442	196.658	65	71
196.442	196.658	68	71
196.875	197.258	35	51
196.875	197.258	47	57
196.875	197.258	62	64
196.875	197.258	65	72
196.875	197.258	67	72
197.258	197.634	59	66
197.45	197.634	74	53
197.634	197.725	79	58
197.817	197.909	78	53
198.001	198.372	58	47
198.001	198.372	67	47
198.001	198.093	79	56
198.186	198.279	74	53
198.372	198.758	60	48
198.372	198.758	67	48
198.372	198.565	77	57
198.565	198.758	75	53
198.758	199.133	48	55
198.951	199.133	67	53
199.133	199.223	72	54
199.223	199.313	71	58
199.313	199.403	74	61
199.403	199.493	72	65
199.493	199.582	75	69
199.582	199.671	74	73
199.671	199.76	77	76
199.76	199.849	75	80
199.849	200.035	79	84
200.222	200.423	36	52
200.222	200.423	48	58
200.222	200.423	60	66
200.222	200.423	63	74
200.222	200.423	67	74
200.624	200.826	36	55
200.624	200.826	48	62
200.624	200.826	60	66
200.624	200.826	63	74
200.624	200.826	67	74
201.027	201.244	34	52
201.027	201.244	46	58
201.027	201.244	60	64
201.027	201.244	63	72
201.027	201.244	66	72
201.462	201.845	33	51
201.462	201.845	45	57
201.462	201.845	60	63
201.462	201.845	63	71
201.462	201.845	65	71
201.845	202.221	57	60
202.037	202.221	72	52
202.221	202.313	77	55
202.405	202.497	76	52
202.589	202.96	57	44
202.589	202.96	65	44
202.589	202.682	77	55
202.775	202.868	72	52
202.96	203.344	58	44
202.96	203.344	65	44
202.96	203.152	75	55
203.152	203.344	74	52
203.344	203.708	46	51
203.465	203.586	82	73
203.586	203.708	81	69
203.708	203.829	82	77
203.829	203.95	81	69
203.95	204.071	79	70
204.071	204.193	77	73
204.193	204.315	75	72
204.315	204.438	74	71
204.438	204.623	72	70
204.623	204.807	51	52
204.807	204.991	58	55
204.93	205.052	72	70
204.991	205.174	55	51
205.052	205.174	74	72
205.174	205.539	60	60
205.174	205.296	75	74
205.296	205.418	74	73
205.418	205.539	72	68
205.539	205.66	79	73
205.66	205.781	77	72
205.781	205.901	75	71
205.901	206.264	74	69
206.083	206.264	53	57
206.264	206.445	58	60
206.385	206.506	82	74
206.445	206.629	56	54
206.506	206.629	81	74
206.629	206.992	62	68
206.629	206.75	82	76
206.75	206.871	80	72
206.871	206.992	79	71
206.992	207.114	77	73
207.114	207.236	75	71
207.236	207.359	74	70
207.359	207.725	75	74
207.542	207.725	55	54
207.725	207.907	63	58
207.846	207.967	75	71
207.907	208.088	58	54
207.967	208.088	77	72
208.088	208.455	67	65
208.088	208.209	79	74
208.209	208.33	77	73
208.33	208.455	75	72
208.455	208.579	82	79
208.579	208.703	80	72
208.703	208.827	79	70
208.827	209.195	77	72
209.011	209.195	50	55
209.195	209.377	58	58
209.317	209.438	82	74
209.377	209.559	53	55
209.438	209.559	81	71
209.559	209.923	62	64
209.559	209.68	82	76
209.68	209.801	80	72
209.801	209.923	79	73
209.923	210.045	77	71
210.045	210.167	79	72
210.167	210.288	80	74
210.288	212.468	51	73
210.288	210.411	79	72
210.411	210.532	82	78
210.532	210.653	81	75
210.653	210.775	79	71
210.775	210.897	81	73
210.897	211.019	82	75
211.019	211.743	55	70
211.019	211.141	75	70
211.141	211.261	79	74
211.261	211.382	77	69
211.382	211.502	75	70
211.502	211.623	77	72
211.623	211.743	79	75
211.743	212.468	60	74
211.743	211.865	72	73
211.865	211.986	75	76
211.986	212.106	74	74
212.106	212.227	72	73
212.227	212.347	74	74
212.347	212.468	75	69
212.468	213.197	52	70
212.468	213.197	60	70
212.468	212.59	67	72
212.59	212.711	70	74
212.711	212.832	69	72
212.832	212.953	67	68
212.953	213.075	69	70
213.075	213.197	70	71
213.197	213.544	53	65
213.197	213.471	69	71
213.289	213.544	65	69
213.38	213.562	60	60
213.38	213.544	67	70
213.471	213.562	69	71
213.562	213.915	57	68
213.562	213.915	70	72
213.652	213.915	72	73
213.743	213.923	60	66
213.743	213.915	74	74
213.833	213.923	76	76
213.923	214.314	53	69
213.923	214.314	77	77
214.013	214.314	79	78
214.103	214.314	60	65
214.103	214.314	81	79
214.193	214.314	82	80
214.283	214.475	57	71
214.283	214.475	84	93
214.466	214.65	60	66
214.466	214.558	75	76
214.65	215.002	53	65
214.65	214.923	74	74
214.741	215.002	70	69
214.832	215.013	62	58
214.832	215.002	72	71
214.923	215.013	74	72
215.013	215.358	58	66
215.013	215.358	75	74
215.103	215.358	77	75
215.194	215.374	62	62
215.194	215.358	79	77
215.284	215.374	81	78
215.374	215.727	53	69
215.374	215.727	82	80
215.463	215.727	84	81
215.553	215.732	62	64
215.553	215.727	86	83
215.643	215.732	87	84
215.732	216.031	58	71
215.732	216.031	89	99
215.917	216.102	62	66
215.917	216.102	82	82
216.102	216.466	53	71
216.102	216.466	81	78
216.193	216.375	82	81
216.284	216.466	63	67
216.284	216.466	84	83
216.375	216.466	82	80
216.466	216.844	60	71
216.466	216.844	81	79
216.557	216.844	82	82
216.648	216.844	63	66
216.648	216.844	84	85
216.738	216.844	86	88
216.828	217.188	53	75
216.828	217.188	87	89
216.917	217.188	86	87
217.007	217.188	60	71
217.007	217.188	84	86
217.097	217.188	82	84
217.188	217.552	57	73
217.188	217.552	81	82
217.278	217.552	79	80
217.369	217.552	60	66
217.369	217.552	77	78
217.46	217.552	75	77
217.552	217.94	53	69
217.552	217.827	74	75
217.644	217.94	77	75
217.735	217.94	62	65
217.735	217.919	75	74
217.827	217.94	74	73
217.919	218.283	58	67
217.919	218.283	75	71
218.011	218.283	77	73
218.102	218.283	62	63
218.102	218.283	79	76
218.192	218.283	81	78
218.283	218.613	53	68
218.283	218.613	82	79
218.373	218.613	81	78
218.463	218.829	62	63
218.463	218.613	79	77
218.554	219.014	77	76
218.645	219.014	58	65
218.645	219.014	75	75
218.736	219.014	74	74
218.829	219.014	62	56
218.829	219.014	72	72
218.921	219.014	70	71
219.014	219.39	53	60
219.014	219.39	57	60
219.014	219.39	60	60
219.014	219.202	69	70
219.014	219.202	72	70
219.014	219.202	77	70
219.39	219.585	65	71
219.779	219.961	51	54
219.779	220.324	72	76
219.961	220.142	53	50
220.142	220.324	51	45
220.324	220.506	53	41
220.324	220.415	69	60
220.415	220.506	65	60
220.506	220.688	50	48
220.506	220.877	70	67
220.688	220.877	53	45
220.877	221.061	50	51
220.877	221.244	71	70
221.061	221.244	53	47
221.244	221.426	51	53
221.244	221.789	72	74
221.426	221.608	53	50
221.608	221.789	51	47
221.789	221.971	53	43
221.789	221.88	69	61
221.88	221.971	65	61
221.971	222.153	50	46
221.971	222.335	70	65
222.153	222.335	53	38
222.335	222.517	50	44
222.517	222.705	53	42
222.705	222.887	51	56
222.705	222.796	72	75
222.887	223.069	53	55
222.887	223.251	72	75
223.069	223.251	51	49
223.251	223.434	53	46
223.251	223.343	69	61
223.343	223.434	65	61
223.434	223.618	50	48
223.434	223.526	70	64
223.618	223.801	53	45
223.618	223.71	70	68
223.801	223.985	50	50
223.801	223.893	71	71
223.985	224.167	53	47
223.985	224.076	71	71
224.167	224.348	51	53
224.167	224.257	72	77
224.348	224.529	53	50
224.348	224.71	72	77
224.529	224.71	51	48
224.71	224.892	53	45
224.71	224.801	69	60
224.801	224.892	65	62
224.892	225.073	50	53
224.892	225.255	70	66
225.073	225.255	65	49
225.255	225.437	62	53
225.437	225.619	65	49
225.619	225.981	63	54
225.619	226.006	83	65
225.709	225.89	84	68
225.799	226.006	65	48
225.799	226.006	86	70
225.89	226.006	84	73
225.981	226.346	63	57
225.981	226.346	82	76
226.072	226.346	81	77
226.163	226.346	65	52
226.163	226.346	79	80
226.254	226.346	77	79
226.346	226.713	62	64
226.346	226.622	82	85
226.438	226.708	77	75
226.53	226.708	86	85
226.622	226.713	82	79
226.713	226.895	89	85
226.804	226.986	86	78
226.895	226.997	89	85
226.986	227.077	86	77
227.077	227.167	89	83
227.167	227.257	87	83
227.257	227.348	86	82
227.348	227.439	84	81
227.439	227.804	50	75
227.439	227.804	58	75
227.439	227.53	82	81
227.53	227.621	81	80
227.621	227.712	79	79
227.712	227.804	77	79
227.804	228.168	51	85
227.804	228.168	58	85
227.804	228.077	79	87
227.895	228.168	75	78
227.987	228.168	82	86
228.077	228.168	79	76
228.168	228.348	82	86
228.258	228.439	81	77
228.348	228.497	82	83
228.439	228.529	81	77
228.529	228.619	82	79
228.619	228.709	81	73
228.709	228.8	79	76
228.8	228.891	77	68
228.891	229.256	51	57
228.891	229.256	58	57
228.891	229.256	60	57
228.891	228.982	75	72
228.982	229.073	74	67
229.073	229.164	72	68
229.164	229.256	70	63
229.256	229.438	53	61
229.256	229.302	65	67
229.347	229.438	77	67
229.438	229.62	62	57
229.438	229.529	79	69
229.529	229.62	77	67
229.62	229.802	58	62
229.62	229.711	75	67
229.711	229.802	74	64
229.802	229.983	62	57
229.802	229.893	72	67
229.893	229.983	70	64
229.983	230.361	53	61
229.983	230.12	74	67
230.052	230.188	72	62
230.12	230.256	74	67
230.165	230.361	63	55
230.188	230.324	72	67
230.256	230.361	74	67
230.324	230.461	72	61
230.347	230.665	57	61
230.393	230.665	74	67
230.461	230.62	72	63
230.529	230.711	63	55
230.529	230.665	70	69
230.62	230.711	72	70
230.711	231.074	58	61
230.711	230.802	74	72
230.802	230.893	75	74
230.893	230.983	77	74
230.983	231.074	75	72
231.074	231.164	74	71
231.164	231.255	72	70
231.255	231.438	60	69
231.255	231.346	70	68
231.346	231.438	69	67
231.438	231.8	62	74
231.438	231.529	70	69
231.529	231.619	72	71
231.619	231.71	74	72
231.71	231.8	72	70
231.8	231.89	70	69
231.89	231.981	68	69
231.981	232.162	38	64
231.981	232.162	50	64
231.981	232.072	67	68
232.072	232.162	66	67
232.162	232.524	39	69
232.162	232.524	51	69
232.162	232.253	67	67
232.253	232.343	69	70
232.343	232.434	70	72
232.434	232.524	69	71
232.524	232.614	67	70
232.614	232.705	65	69
232.705	232.796	63	68
232.796	232.887	62	68
232.887	232.978	60	67
232.978	233.069	62	68
233.069	233.16	63	69
233.16	233.25	62	68
233.25	233.341	60	66
233.341	233.433	58	65
233.433	233.525	57	63
233.525	233.617	55	61
233.617	235.068	29	88
233.617	235.068	41	88
233.617	233.8	53	60
233.8	233.89	55	62
233.89	233.981	57	64
233.981	234.072	58	66
234.072	234.163	60	68
234.163	234.253	62	70
234.253	234.343	63	69
234.343	234.433	67	72
234.433	234.524	65	71
234.524	234.614	63	70
234.614	234.705	62	69
234.705	234.797	63	67
234.797	234.887	65	67
234.887	234.978	67	68
234.978	235.068	69	69
235.068	235.429	41	70
235.068	235.429	46	70
235.068	235.429	50	70
235.068	235.159	70	71
235.159	235.249	69	71
235.249	235.339	67	70
235.339	235.429	65	69
235.429	235.52	67	68
235.52	235.61	69	69
235.61	235.701	70	70
235.701	235.791	72	71
235.791	236.152	41	71
235.791	236.152	46	71
235.791	236.152	50	71
235.791	235.881	74	73
235.881	235.971	72	73
235.971	236.061	70	72
236.061	236.152	69	71
236.152	236.243	70	70
236.243	236.333	72	71
236.333	236.424	74	73
236.424	236.514	75	75
236.514	236.875	53	81
236.514	236.875	58	81
236.514	236.875	62	81
236.514	236.695	77	76
236.605	236.785	74	71
236.695	236.875	77	76
236.785	236.875	74	70
236.875	237.055	82	82
236.965	237.145	77	76
237.055	237.324	82	82
237.145	237.952	77	76
237.234	237.414	86	88
237.324	237.504	82	83
237.414	237.683	86	88
237.504	237.952	82	83
237.593	237.772	89	95
237.683	237.862	86	88
237.772	237.952	89	95
237.862	237.952	86	85
237.952	238.13	82	93
238.041	238.219	86	89
238.13	238.398	82	93
238.219	239.389	86	87
238.309	238.488	77	89
238.398	238.578	82	84
238.488	238.757	77	90
238.578	239.389	82	84
238.667	238.847	74	87
238.757	238.937	77	80
238.847	239.117	74	87
238.937	239.389	77	80
239.027	239.208	70	81
239.117	239.298	74	73
239.208	239.389	70	81
239.298	239.389	74	73
239.389	239.574	53	57
239.389	239.574	65	83
239.574	239.76	62	54
239.76	239.941	58	57
239.76	240.304	77	91
239.941	240.123	62	53
240.123	240.304	53	57
240.304	240.485	62	52
240.304	240.394	79	77
240.394	240.485	77	76
240.485	240.666	58	57
240.485	240.576	75	76
240.576	240.666	74	75
240.666	242.309	62	53
240.666	240.757	72	74
240.757	240.848	70	73
240.848	241.576	53	66
240.848	242.124	70	53
240.909	241.031	72	48
240.97	241.092	74	49
241.031	241.395	63	59
241.031	241.153	72	53
241.092	241.214	74	51
241.153	241.274	72	55
241.214	241.94	60	65
241.214	241.335	74	52
241.274	241.395	72	56
241.335	241.456	74	52
241.395	241.757	63	61
241.395	241.516	72	56
241.456	241.576	74	54
241.516	241.636	72	58
241.576	242.309	53	65
241.576	241.697	74	55
241.636	241.757	72	59
241.697	241.818	74	54
241.757	242.124	63	61
241.757	241.879	72	60
241.818	241.94	74	56
241.879	242.031	72	57
241.94	242.309	60	65
241.94	242.309	74	65
242.031	242.216	72	61
242.124	242.309	63	61
242.124	242.309	70	67
242.216	242.309	72	64
242.309	242.672	58	52
242.309	242.672	62	52
242.309	242.49	70	70
242.49	242.746	70	59
242.672	243.28	58	52
242.672	243.28	62	52
242.853	243.034	70	56
243.034	243.216	70	57
243.216	243.578	70	57
243.397	243.759	58	56
243.397	243.759	62	56
243.578	243.759	70	56
243.759	244.122	58	58
243.759	244.122	69	58
243.759	243.941	72	60
243.941	244.234	72	57
244.122	244.767	58	54
244.122	244.767	69	54
244.303	244.484	72	57
244.484	244.666	72	60
244.666	244.847	72	57
244.847	245.209	58	61
244.847	245.209	69	61
245.028	245.209	72	61
245.209	245.572	58	67
245.209	245.572	68	67
245.209	245.391	74	65
245.391	245.753	74	61
245.572	245.935	58	62
245.572	245.935	68	62
245.753	245.935	74	70
245.935	246.297	58	71
245.935	246.297	67	71
245.935	246.116	75	72
246.116	246.356	75	70
246.297	246.66	58	68
246.297	246.66	67	68
246.478	246.66	76	77
246.66	247.022	58	82
246.66	247.022	62	82
246.66	246.841	77	81
246.841	247.144	77	78
247.022	247.385	58	76
247.022	247.385	62	76
247.203	247.385	78	85
247.385	247.75	58	85
247.385	247.766	63	85
247.385	247.566	79	92
247.566	247.766	79	92
247.75	248.123	58	91
247.75	248.527	60	91
247.75	247.843	81	96
247.936	248.029	81	96
248.123	248.304	46	76
248.123	248.304	58	90
248.123	248.527	74	109
248.213	248.394	82	93
248.304	248.527	46	73
248.304	248.527	58	87
248.304	248.484	86	105
248.394	248.527	82	96
248.484	248.665	86	105
248.575	248.755	82	96
248.665	248.867	46	71
248.665	248.867	58	84
248.665	248.867	86	103
248.755	248.867	82	94
248.846	249.027	50	76
248.846	249.027	62	90
248.846	249.186	74	110
248.936	249.117	82	94
249.027	249.186	50	74
249.027	249.186	62	88
249.027	249.186	86	103
249.117	249.207	82	100
249.207	249.388	86	105
249.298	249.478	82	94
249.388	249.569	46	72
249.388	249.569	58	85
249.388	249.569	86	100
249.478	249.569	82	95
249.569	249.749	43	76
249.569	249.749	55	90
249.569	249.941	74	109
249.659	249.84	82	95
249.749	249.941	43	74
249.749	249.941	55	88
249.749	249.93	86	100
249.84	249.941	82	93
249.93	250.111	86	105
250.021	250.201	82	95
250.111	250.297	43	71
250.111	250.297	55	84
250.111	250.297	86	100
250.201	250.297	82	93
250.292	250.472	46	76
250.292	250.472	58	90
250.292	250.627	74	109
250.382	250.563	82	95
250.472	250.627	46	73
250.472	250.627	58	87
250.472	250.627	86	101
250.563	250.653	82	94
250.653	250.834	86	105
250.743	250.926	82	96
250.834	251.018	43	71
250.834	251.018	55	84
250.834	251.018	86	100
250.926	251.018	82	93
251.018	251.202	38	76
251.018	251.202	50	90
251.018	251.337	74	109
251.11	251.294	82	95
251.202	251.337	38	75
251.202	251.337	50	89
251.202	251.337	86	100
251.294	251.386	82	95
251.386	251.571	86	104
251.478	251.667	82	94
251.571	251.788	38	74
251.571	251.788	50	88
251.571	251.788	86	101
251.667	251.788	82	93
251.765	251.964	39	77
251.765	251.964	51	91
251.765	251.863	74	109
251.863	252.065	82	95
251.964	252.192	39	77
251.964	252.192	51	91
251.964	252.168	86	100
252.065	252.192	82	95
252.168	252.378	40	81
252.168	252.378	52	96
252.168	252.378	86	104
252.272	252.484	82	95
252.378	252.657	40	78
252.378	252.657	52	92
252.378	252.657	86	100
252.484	252.657	82	95
252.657	254.098	41	79
252.657	254.098	53	93
252.657	254.098	74	99
252.657	254.098	77	99
252.657	254.098	82	99
252.657	254.098	86	99
254.212	254.3	65	57
254.3	254.388	69	59
254.388	254.476	67	61
254.476	254.564	70	62
254.564	254.652	69	64
254.652	254.74	72	66
254.74	254.839	70	68
254.939	255.028	69	54
255.028	255.118	72	56
255.118	255.207	70	58
255.207	255.297	74	60
255.297	255.386	72	61
255.386	255.476	75	63
255.476	255.571	74	65
255.664	255.759	72	56
255.759	255.854	75	58
255.854	255.951	74	59
255.951	256.048	77	60
256.048	256.146	75	62
256.146	256.253	79	63
256.253	256.435	53	51
256.254	256.799	77	69
256.435	256.617	62	45
256.617	256.799	58	47
256.799	256.98	62	44
256.799	256.98	74	66
256.98	257.162	53	50
256.98	257.162	70	70
257.162	257.344	62	44
257.344	257.529	58	47
257.344	257.529	70	70
257.529	257.714	62	44
257.714	257.896	53	51
257.714	257.896	75	76
257.896	258.078	63	44
257.896	257.942	77	54
257.942	257.987	75	54
257.987	258.033	74	54
258.033	258.078	75	54
258.078	258.26	60	47
258.078	258.442	79	70
258.26	258.442	63	45
258.442	258.625	53	50
258.442	258.809	69	72
258.625	258.809	63	39
258.809	258.992	60	44
258.992	259.181	63	38
259.181	259.83	53	51
259.182	259.83	77	68
259.363	259.726	61	41
259.544	259.83	58	45
259.726	259.908	61	41
259.726	259.908	73	59
259.908	260.09	53	47
259.908	260.09	70	63
260.09	260.272	61	40
260.272	260.457	58	45
260.272	260.457	70	63
260.457	260.642	61	40
260.642	260.955	53	48
260.642	260.869	75	68
260.824	261.006	63	40
260.824	260.955	77	48
260.869	260.955	75	48
260.915	260.96	74	48
260.96	261.006	75	48
261.006	261.187	60	45
261.006	261.369	78	63
261.187	261.369	63	40
261.369	261.553	53	48
261.369	261.736	69	64
261.553	261.736	63	36
261.736	261.92	60	41
261.92	262.103	63	35
262.103	262.468	54	75
262.103	262.468	61	75
262.103	262.195	70	76
262.287	262.468	82	79
262.468	262.649	84	81
262.649	262.834	85	77
262.834	263.015	84	84
263.015	263.197	82	77
263.197	263.379	80	79
263.379	263.562	78	78
263.562	265.028	54	66
263.562	264.296	77	76
263.745	263.927	58	63
263.927	264.109	60	66
264.109	264.296	61	70
264.296	264.479	61	70
264.296	265.028	76	72
264.479	264.662	60	65
264.662	264.845	60	69
264.845	265.028	58	66
265.028	265.392	53	47
265.028	265.392	57	67
265.028	265.21	77	86
265.21	265.573	77	86
265.392	266.044	53	35
265.392	266.044	57	50
265.573	265.755	77	60
265.755	265.937	77	65
265.937	266.119	77	60
266.119	266.482	53	35
266.119	266.482	57	50
266.301	266.482	77	60
266.482	266.846	53	38
266.482	266.846	55	38
266.482	266.846	58	53
266.482	266.664	77	65
266.664	266.985	77	60
266.846	267.434	53	35
266.846	267.434	55	35
266.846	267.434	58	50
267.028	267.21	77	64
267.21	267.392	77	66
267.392	267.573	77	64
267.573	267.937	53	38
267.573	267.937	56	54
267.573	267.937	59	54
267.755	267.937	77	69
267.937	268.669	53	39
267.937	268.301	57	39
267.937	268.301	60	55
267.937	268.118	77	72
268.118	268.301	77	72
268.301	268.669	57	43
268.301	268.669	61	61
268.485	268.669	77	79
268.669	269.418	53	47
268.669	269.042	58	47
268.669	269.042	62	66
268.669	268.855	77	82
268.855	269.042	77	84
269.042	269.418	59	51
269.042	269.418	62	71
269.229	269.418	77	86
269.418	270.877	53	55
269.418	270.877	60	55
269.418	270.877	63	77
269.418	270.877	77	86
269.601	269.783	81	81
269.783	270.877	81	86
269.966	270.148	84	81
270.148	270.695	84	86
270.33	270.513	87	81
270.513	270.877	87	86
270.695	270.877	84	75
270.877	271.515	84	81
271.061	271.244	81	73
271.244	271.515	81	79
271.428	271.611	77	71
271.611	271.801	77	68
271.801	271.994	76	57
271.994	272.19	76	60
272.19	272.419	77	57
272.419	272.614	53	36
272.419	272.614	77	57
272.614	272.809	57	36
272.614	272.809	76	56
272.809	273.004	57	42
272.809	273.577	75	54
273.004	273.195	60	42
273.195	273.384	60	50
273.384	273.577	63	48
273.577	273.761	63	56
273.577	274.316	75	66
273.761	273.946	60	51
273.946	274.13	60	55
274.13	274.316	57	53
274.316	274.502	57	55
274.316	274.596	75	68
274.502	274.69	53	51
274.69	274.878	54	56
274.69	274.972	75	70
274.878	275.065	55	59
275.065	275.249	56	62
275.065	275.34	75	76
275.249	275.431	57	65
275.431	275.618	58	69
275.431	275.836	74	84
275.618	275.836	58	46
275.804	276.176	68	58
275.804	276.176	77	58
275.984	276.165	58	46
276.165	276.347	58	48
276.165	276.625	67	54
276.165	276.625	75	54
276.347	276.625	58	46
276.529	276.895	66	48
276.529	276.895	74	48
276.712	276.895	58	46
276.895	277.082	58	49
276.895	277.29	67	48
276.895	277.29	75	48
277.082	277.29	58	46
277.269	277.694	70	56
277.269	277.694	79	56
277.449	277.63	58	46
277.63	277.812	58	49
277.63	277.994	68	54
277.63	277.994	77	54
277.812	277.994	58	46
277.994	278.361	67	51
277.994	278.361	76	51
278.177	278.361	58	45
278.361	278.546	58	48
278.361	278.826	68	56
278.361	278.731	77	56
278.546	278.826	58	51
278.731	279.135	77	63
278.731	279.135	80	63
278.912	279.093	58	57
279.093	279.274	58	60
279.093	279.487	75	69
279.093	279.487	79	69
279.274	279.487	58	64
279.456	279.818	74	78
279.456	279.818	77	78
279.637	279.818	58	70
279.818	280.181	59	66
279.818	279.999	74	66
279.818	279.999	77	78
279.818	279.999	79	78
279.999	280.119	74	66
279.999	280.119	77	78
279.999	280.119	79	78
280.181	280.545	47	56
280.181	280.545	59	66
280.362	280.545	74	66
280.362	280.545	77	78
280.362	280.545	79	78
280.545	280.911	48	60
280.545	280.911	60	71
280.545	280.728	75	69
280.545	280.728	79	69
280.545	280.728	87	82
280.728	280.819	75	66
280.728	280.819	79	66
280.728	280.819	87	78
280.911	281.274	46	56
280.911	281.274	58	66
281.094	281.274	72	63
281.094	281.274	75	63
281.094	281.274	79	75
281.274	281.636	45	61
281.274	281.636	57	72
281.274	281.455	72	66
281.274	281.455	75	78
281.274	281.455	77	78
281.455	281.612	72	63
281.455	281.612	75	75
281.455	281.612	77	75
281.636	281.997	45	56
281.636	281.997	57	66
281.817	281.997	72	69
281.817	281.997	75	82
281.817	281.997	77	82
281.997	282.359	46	58
281.997	282.359	58	69
281.997	282.178	74	73
281.997	282.178	77	73
281.997	282.178	86	86
282.178	282.335	74	68
282.178	282.335	77	68
282.178	282.335	86	81
282.359	282.722	45	56
282.359	282.722	57	66
282.539	282.722	70	63
282.539	282.722	74	63
282.539	282.722	77	75
282.722	283.088	43	59
282.722	283.088	55	70
282.722	282.905	70	66
282.722	282.905	74	78
282.722	282.905	75	78
282.905	283.074	70	62
282.905	283.074	74	74
282.905	283.074	75	74
283.088	283.454	43	56
283.088	283.454	55	66
283.271	283.454	70	67
283.271	283.454	74	79
283.271	283.454	75	79
283.454	283.818	45	58
283.454	283.818	57	69
283.454	283.636	72	71
283.454	283.636	75	71
283.454	283.636	84	84
283.636	283.799	72	65
283.636	283.799	75	65
283.636	283.799	84	77
283.818	284.184	43	56
283.818	284.184	55	66
284.001	284.184	69	62
284.001	284.184	72	62
284.001	284.184	75	74
284.184	284.551	42	57
284.184	284.551	54	68
284.184	284.368	69	66
284.184	284.368	72	78
284.184	284.368	74	78
284.368	284.527	69	62
284.368	284.527	72	74
284.368	284.527	74	74
284.551	284.916	42	56
284.551	284.916	54	66
284.735	284.916	69	64
284.735	284.916	72	76
284.735	284.916	74	76
284.916	285.278	43	59
284.916	285.278	55	70
284.916	285.097	70	70
284.916	285.097	74	70
284.916	285.097	82	83
285.097	285.221	70	65
285.097	285.221	74	65
285.097	285.221	82	77
285.278	285.643	41	56
285.278	285.643	53	66
285.46	285.643	67	63
285.46	285.643	70	63
285.46	285.643	74	75
285.643	286.015	39	62
285.643	286.015	51	73
285.643	285.827	67	66
285.643	285.827	70	78
285.643	285.827	72	78
285.827	286.015	55	65
285.827	286.015	67	63
285.827	286.015	70	75
285.827	286.015	72	75
286.01	286.194	58	65
286.194	286.374	55	65
286.194	286.374	72	78
286.374	286.555	51	71
286.374	286.555	82	86
286.555	286.736	55	65
286.555	286.645	82	82
286.736	286.917	58	65
286.736	286.917	82	84
286.917	287.099	55	60
286.917	287.099	72	76
287.099	287.282	53	69
287.099	287.191	74	79
287.282	287.465	56	60
287.282	287.374	74	79
287.465	287.648	58	65
287.648	287.828	56	60
287.648	287.828	74	74
287.828	288.007	53	69
287.828	288.007	82	86
288.007	288.187	56	61
288.007	288.097	82	82
288.187	288.367	58	65
288.187	288.367	82	82
288.367	288.549	56	61
288.367	288.549	74	76
288.549	288.731	55	71
288.549	288.64	75	80
288.731	288.914	58	64
288.731	288.823	75	80
288.914	289.096	63	68
289.096	289.279	58	65
289.096	289.279	76	77
289.279	289.461	50	78
289.279	289.37	77	82
289.461	289.643	56	66
289.461	289.552	77	82
289.643	289.826	58	71
289.826	290.008	56	69
289.826	290.008	78	79
290.008	290.191	51	79
290.008	290.191	79	80
290.191	290.374	63	72
290.191	290.282	79	82
290.374	290.558	48	82
290.374	290.466	81	83
290.558	290.743	60	73
290.558	290.651	81	85
290.743	290.929	50	83
290.743	290.836	82	86
290.929	291.116	62	76
290.929	291.022	82	88
291.116	291.306	45	84
291.116	291.211	84	89
291.306	291.498	57	78
291.306	291.402	84	91
291.498	292.301	46	90
291.498	292.301	58	90
291.498	292.272	85	98
292.079	292.301	84	84
292.127	292.224	82	87
292.176	292.301	81	89
292.224	292.301	82	92
292.272	293.072	42	89
292.272	293.072	54	89
292.272	293.072	85	94
292.872	293.072	84	87
292.922	293.022	82	89
292.972	293.072	81	91
293.022	293.072	82	94
293.072	294.206	40	89
293.072	294.206	52	89
293.072	294.552	85	95
294.275	294.552	82	87
294.362	294.552	79	86
294.45	294.552	76	84
294.54	294.899	73	83
294.631	294.899	70	82
294.723	294.899	67	81
294.817	294.911	64	79
294.911	295.292	61	69
295.008	295.292	58	71
295.105	295.292	55	74
295.204	295.305	52	77
295.305	295.736	50	80
295.407	295.736	46	82
295.511	295.736	43	85
295.617	295.736	40	88
295.724	296.82	41	108
295.724	296.82	53	108
296.919	297.097	57	66
297.016	297.112	55	67
297.112	297.388	53	69
297.206	297.388	55	70
297.298	297.388	57	71
297.388	297.978	58	72
297.477	297.978	60	74
297.564	297.978	62	74
297.651	297.978	63	76
297.735	297.978	65	78
297.819	297.978	67	79
297.901	297.982	69	81
297.982	298.427	70	83
298.061	298.427	72	84
298.14	298.427	74	86
298.217	298.427	75	88
298.293	298.427	77	89
298.368	298.442	79	91
298.442	298.894	81	93
298.515	298.894	82	94
298.587	298.894	84	94
298.658	298.894	86	96
298.728	298.894	87	98
298.797	298.894	89	99
299.765	299.956	70	63
299.956	300.049	70	64
300.049	300.141	72	60
300.141	300.232	74	65
300.232	300.321	72	60
300.321	300.409	74	66
300.409	300.496	72	61
300.496	300.582	74	67
300.582	300.667	72	63
300.667	300.75	74	68
300.75	300.833	72	63
300.833	300.914	74	69
300.914	300.995	72	65
300.995	301.074	74	70
301.074	301.153	72	65
301.153	303.356	53	54
301.153	303.356	57	54
301.153	303.356	60	54
301.153	303.356	63	54
301.153	301.308	74	69
301.231	301.386	72	64
301.308	301.464	74	68
301.386	301.541	72	67
301.464	301.619	74	66
301.541	301.697	72	62
301.619	301.758	74	65
301.697	301.775	72	64
301.775	302.228	71	63
301.854	302.228	72	65
301.933	302.228	74	66
302.011	302.228	75	68
302.088	302.228	77	69
302.164	302.24	79	71
302.24	302.634	81	72
302.314	302.634	82	74
302.388	302.634	84	75
302.461	302.604	86	76
302.533	302.634	87	78
302.604	302.675	86	79
302.675	303.015	89	96
302.76	303.015	87	94
302.845	303.015	86	91
302.93	303.015	84	89
303.015	303.344	87	92
303.101	303.344	86	91
303.186	303.344	84	89
303.271	303.344	82	87
303.356	303.673	86	91
303.442	303.673	84	89
303.527	303.673	82	87
303.612	303.673	81	85
303.697	304.034	84	89
303.783	304.034	82	88
303.868	304.034	81	86
303.953	304.034	79	88
304.038	304.313	81	90
304.208	304.378	79	82
304.378	304.463	77	80
304.549	304.634	75	75
304.72	305.024	79	81
304.892	305.066	77	74
305.066	305.152	75	71
305.239	305.327	74	67
305.414	305.673	79	72
305.589	305.765	77	68
305.765	305.854	75	65
305.942	306.031	74	62
306.12	306.685	77	64
306.477	306.834	75	60
306.834	307.012	74	56
307.191	307.37	72	52
307.548	307.637	70	51
307.728	307.821	72	49
307.914	308.01	73	48
308.107	308.206	74	46
308.306	309.323	75	47
309.323	310.628	76	40
310.628	311.174	77	60
310.991	311.355	58	42
311.173	311.355	74	53
311.355	311.718	62	48
311.355	311.537	70	55
311.718	312.096	67	46
311.718	311.907	70	55
312.096	312.459	60	52
312.096	312.278	75	60
312.278	312.323	77	47
312.323	312.369	75	47
312.369	312.414	74	47
312.414	312.459	75	49
312.459	312.823	63	47
312.459	312.823	79	55
312.823	313.19	65	48
312.823	313.19	69	57
313.19	313.557	63	45
313.374	313.557	69	52
313.557	313.921	62	53
313.557	313.739	72	55
313.739	313.921	70	53
313.921	314.284	57	47
313.921	314.648	65	47
313.921	314.102	74	57
314.102	314.284	72	54
314.284	314.648	58	51
314.284	314.466	75	58
314.466	314.648	74	56
314.648	315.017	51	48
314.648	315.017	60	48
314.648	314.832	77	60
314.832	315.017	75	57
315.017	316.12	53	52
315.017	315.749	58	52
315.017	315.566	74	60
315.566	315.657	75	57
315.657	315.749	74	54
315.749	316.12	57	47
315.749	315.932	72	52
315.932	316.12	74	58
316.12	316.31	75	64
316.31	316.502	76	69
316.502	316.593	46	62
316.502	317.047	77	76
316.684	316.865	58	50
316.865	317.047	62	53
317.047	317.229	58	50
317.047	317.108	75	68
317.108	317.168	74	68
317.168	317.229	72	68
317.229	317.319	43	62
317.229	317.409	70	72
317.409	317.589	55	52
317.409	317.499	70	65
317.589	317.775	58	54
317.589	317.682	70	65
317.775	317.961	55	52
317.775	317.961	70	65
317.961	318.052	36	64
317.961	318.143	75	78
318.143	318.325	48	51
318.143	318.188	77	60
318.188	318.234	75	60
318.234	318.279	74	60
318.279	318.325	75	60
318.325	318.506	51	54
318.325	318.688	79	71
318.506	318.688	48	52
318.688	318.779	41	64
318.688	319.052	69	75
318.87	319.052	53	53
319.052	319.234	57	54
319.234	319.415	53	54
319.234	319.415	77	77
319.415	319.779	58	63
319.415	319.768	74	84
319.537	319.768	77	74
319.658	319.779	82	78
319.779	320.143	51	54
319.779	320.127	79	89
319.9	320.127	75	76
320.022	320.143	72	76
320.143	320.506	53	57
320.143	320.49	77	88
320.264	320.49	74	76
320.385	320.506	70	76
320.506	320.877	41	54
320.506	320.877	75	85
320.63	320.877	72	76
320.753	320.877	69	76
320.877	321.247	50	69
320.877	321.247	58	69
320.877	321.226	70	90
321.0	321.124	82	86
321.124	321.247	82	82
321.247	321.371	82	87
321.371	321.494	82	79
321.494	321.617	82	80
321.617	321.737	82	86
321.737	321.858	81	77
321.858	321.978	79	77
321.978	322.344	50	63
321.978	322.344	58	63
321.978	322.1	77	81
322.1	322.221	75	78
322.221	322.344	74	77
322.344	322.717	51	68
322.344	322.717	58	68
322.344	322.717	72	88
322.466	322.589	79	77
322.589	322.712	79	77
322.712	322.834	79	83
322.834	322.957	79	76
322.957	323.08	79	76
323.08	323.2	79	80
323.2	323.321	77	76
323.321	323.441	75	75
323.441	323.803	51	64
323.441	323.803	57	64
323.441	323.562	74	78
323.562	323.682	75	73
323.682	323.803	72	73
323.803	324.167	50	69
323.803	324.896	58	69
323.803	324.167	76	81
323.893	324.074	77	83
323.984	324.167	79	85
324.074	324.167	77	83
324.164	324.527	55	59
324.164	324.524	75	80
324.254	324.524	74	79
324.345	324.524	72	77
324.436	324.527	70	76
324.527	324.896	51	66
324.527	324.711	74	74
324.619	324.772	72	68
324.711	324.834	74	66
324.772	324.89	72	63
324.834	324.896	74	66
324.896	325.268	53	59
324.896	325.268	57	59
324.896	325.019	72	66
324.957	325.235	74	66
325.019	325.174	72	66
325.081	325.235	70	69
325.174	325.268	72	69
325.268	325.643	50	64
325.268	325.643	58	64
325.268	325.362	70	74
325.455	325.549	82	74
325.549	325.643	81	72
325.643	325.735	82	74
325.735	325.826	81	70
325.826	325.918	82	74
325.918	326.01	81	71
326.01	326.101	82	74
326.101	326.193	81	74
326.193	326.284	79	73
326.284	326.375	77	72
326.375	326.739	50	54
326.375	326.739	58	54
326.375	326.691	75	71
326.467	326.691	74	70
326.558	326.691	72	70
326.648	326.739	70	69
326.739	327.11	51	58
326.739	327.11	58	58
326.739	326.833	67	77
326.926	327.018	79	75
327.018	327.11	78	72
327.11	327.202	79	75
327.202	327.294	78	71
327.294	327.386	79	75
327.386	327.478	78	72
327.478	327.571	79	74
327.571	327.663	77	74
327.663	327.755	75	73
327.755	327.847	74	72
327.847	328.212	51	55
327.847	328.212	60	55
327.847	328.212	72	71
327.939	328.212	70	70
328.03	328.212	69	70
328.121	328.212	67	69
328.212	328.565	53	64
328.212	328.565	65	77
328.398	328.581	62	57
328.398	328.565	67	70
328.49	328.581	69	72
328.581	328.941	58	64
328.581	328.941	70	73
328.673	328.941	72	74
328.764	328.946	62	58
328.764	328.941	74	76
328.855	328.946	75	77
328.946	329.301	53	64
328.946	329.301	77	79
329.036	329.301	79	80
329.127	329.306	62	58
329.127	329.301	81	82
329.217	329.306	82	83
329.306	329.663	58	64
329.306	329.663	84	84
329.396	329.663	86	86
329.485	329.663	62	58
329.485	329.663	87	87
329.574	329.663	89	89
329.663	330.391	53	64
329.663	330.757	82	71
329.725	329.848	84	66
329.786	329.908	86	67
329.848	330.211	63	64
329.848	329.969	84	72
329.908	330.029	86	69
329.969	330.09	84	73
330.029	330.754	60	67
330.029	330.15	86	69
330.09	330.211	84	74
330.15	330.271	86	71
330.211	330.572	63	64
330.211	330.331	84	75
330.271	330.391	86	71
330.331	330.452	84	75
330.391	330.757	53	70
330.391	330.512	86	71
330.452	330.572	84	77
330.512	330.633	86	73
330.572	330.757	63	64
330.572	330.693	84	79
330.633	330.754	86	74
330.693	330.757	84	79
330.754	331.121	60	71
330.754	331.121	86	82
330.845	331.029	84	79
330.937	331.121	63	66
330.937	331.121	82	87
331.029	331.121	84	85
331.121	331.457	62	66
331.121	331.457	82	93
331.305	331.489	58	49
331.489	331.855	62	41
331.672	332.038	58	34
331.855	332.221	62	40
332.038	332.403	58	35
332.221	332.596	62	40
332.403	332.596	58	35
332.403	332.596	70	51
332.596	332.962	65	43
332.596	333.188	80	54
332.779	333.145	58	39
332.962	333.188	65	44
333.145	333.327	58	38
333.145	333.327	77	52
333.327	333.51	68	44
333.327	333.51	74	50
333.51	333.693	58	38
333.693	333.876	68	44
333.693	333.876	74	51
333.876	334.059	58	38
334.059	334.244	67	44
334.059	334.244	75	56
334.244	334.43	58	42
334.43	334.615	62	47
334.43	334.615	77	57
334.615	334.8	58	44
334.8	334.985	63	50
334.8	334.985	79	61
334.985	335.17	58	46
335.17	335.355	63	44
335.355	335.537	58	44
335.355	335.537	79	53
335.537	335.904	60	43
335.537	336.261	77	57
335.721	336.088	58	38
335.721	336.261	75	57
335.904	336.261	60	41
335.904	336.261	74	56
336.088	336.271	58	40
336.088	336.271	72	56
336.271	336.638	60	48
336.271	337.016	70	55
336.455	336.827	58	43
336.455	336.827	69	55
336.638	337.016	60	43
336.638	337.016	75	62
336.827	337.016	58	39
336.827	337.016	69	58
337.016	337.379	58	45
337.016	337.379	62	45
337.016	337.106	70	58
337.197	337.288	72	60
337.379	337.47	74	61
337.561	337.652	75	63
337.743	337.834	76	65
337.926	338.019	77	67
338.112	338.206	78	69
338.3	338.395	79	71
338.49	338.854	65	42
338.49	339.127	80	73
338.672	339.036	58	38
338.854	339.127	65	42
339.036	339.218	58	39
339.036	339.127	79	58
339.096	339.157	77	58
339.157	339.218	75	58
339.218	339.399	68	42
339.218	339.309	74	63
339.399	339.581	58	39
339.399	339.49	74	60
339.581	339.763	68	42
339.581	339.672	74	64
339.763	339.945	58	38
339.763	339.854	74	60
339.945	340.308	67	42
339.945	340.313	75	66
340.129	340.313	58	42
340.313	340.638	62	46
340.313	340.436	79	59
340.374	340.497	77	59
340.436	340.638	79	60
340.497	340.681	58	42
340.497	340.635	77	60
340.589	340.638	75	59
340.635	340.681	77	63
340.681	340.865	63	45
340.681	341.049	79	66
340.865	341.049	58	34
341.049	341.233	63	39
341.233	341.417	58	35
341.233	341.417	79	55
341.417	341.785	60	45
341.417	342.186	77	59
341.601	341.97	58	42
341.601	342.186	75	58
341.785	342.154	60	45
341.785	342.186	74	57
341.97	342.186	58	42
341.97	342.186	72	57
342.154	342.526	60	46
342.154	342.796	70	56
342.34	342.717	58	42
342.34	342.717	69	56
342.526	342.796	60	46
342.526	342.796	75	60
342.717	342.908	58	44
342.717	342.908	69	57
342.908	343.291	58	49
342.908	343.291	62	49
342.908	343.291	70	61
343.482	343.667	74	53
343.667	344.413	53	39
343.667	344.247	60	39
343.667	344.247	77	56
343.852	344.247	75	54
344.037	344.413	63	39
344.037	344.247	72	54
344.225	344.413	69	54
344.413	344.79	58	46
344.413	344.79	62	46
344.413	344.79	70	57
344.978	345.076	74	50
345.076	345.175	70	48
345.175	345.951	53	37
345.175	345.864	60	37
345.175	345.864	77	54
345.367	345.864	75	51
345.558	345.951	63	37
345.558	345.864	72	51
345.754	345.951	69	49
345.951	346.366	58	43
345.951	346.366	62	43
345.951	346.366	70	55
346.562	346.758	77	91
346.758	346.954	41	71
346.758	346.954	53	84
346.758	346.954	72	81
346.758	346.954	75	81
346.758	346.954	77	96
346.758	346.954	81	96
347.15	347.353	41	71
347.15	347.353	53	84
347.15	347.353	72	81
347.15	347.353	75	81
347.15	347.353	77	96
347.15	347.353	81	96
347.557	347.76	34	75
347.557	347.76	46	89
347.557	347.76	70	84
347.557	347.76	74	84
347.557	347.76	77	99
347.557	347.76	82	99
