OnsetTime	OffsetTime	MidiPitch	Velocity
0.519987	0.659985	36	25
0.705998	0.851977	48	28
0.708989	0.852983	43	26
0.708989	0.852983	52	33
0.709995	0.855987	36	22
0.897977	1.03798	48	28
0.898983	1.03798	52	33
0.901974	1.03897	43	26
0.90298	1.04197	36	22
1.08396	1.21696	48	28
1.08796	1.22097	36	22
1.08796	1.21996	43	27
1.08796	1.21797	52	34
1.26895	1.40994	48	28
1.26996	1.41095	43	27
1.26996	1.40994	52	34
1.27295	1.41295	36	22
1.45494	1.59494	48	28
1.45494	1.59594	52	34
1.45895	1.59794	36	23
1.45895	1.59794	43	28
1.63993	1.77993	48	29
1.64393	1.78293	43	28
1.64393	1.78093	52	35
1.64493	1.78392	36	23
1.82492	1.96591	48	29
1.82892	1.96892	52	35
1.82992	1.96991	36	24
1.82992	1.96892	43	29
2.01493	2.15092	48	30
2.01493	2.15192	52	36
2.01592	2.15392	36	25
2.01893	2.15491	43	30
2.19991	2.3439	48	30
2.20091	2.34491	36	22
2.20091	2.3439	52	36
2.20191	2.3479	43	27
2.39289	2.5289	48	31
2.39289	2.5299	52	37
2.3939	2.5299	36	23
2.3939	2.53289	43	28
2.5749	2.71488	48	32
2.57589	2.71488	52	38
2.57789	2.71888	36	24
2.57889	2.71888	43	29
2.76088	2.89987	48	33
2.76288	2.90387	52	39
2.76387	2.90387	36	25
2.76387	2.90487	43	30
2.94587	3.08586	48	34
2.94886	3.08987	36	25
2.94886	3.08987	52	40
2.95286	3.09086	43	30
3.13486	3.27785	50	34
3.13486	3.27785	54	40
3.13585	3.28185	36	25
3.13785	3.28185	45	30
3.32385	3.46383	50	34
3.32785	3.46684	36	25
3.32785	3.46383	54	40
3.33084	3.46783	45	30
3.51282	4.06582	50	39
3.51383	3.64983	35	25
3.51383	3.64983	43	30
3.51383	4.06981	55	46
3.69884	3.83482	35	25
3.69884	3.83583	43	30
3.87982	4.02082	35	25
3.88383	4.02082	43	30
4.07181	4.15981	59	40
4.0728	4.21281	35	25
4.0728	4.21382	43	30
4.16381	4.25781	57	40
4.25781	4.35281	55	45
4.2618	4.39781	35	25
4.2618	4.39881	43	30
4.44381	4.58379	35	25
4.4468	4.58679	43	30
4.62979	4.76878	35	25
4.63279	4.76979	43	30
4.81777	4.96578	35	25
4.81878	4.96878	43	30
4.96878	5.0148	85	46
5.0148	5.48976	86	57
5.01779	5.15379	35	25
5.01779	5.15478	43	30
5.19977	5.34377	35	25
5.20078	5.34677	43	30
5.39177	5.53576	35	25
5.39276	5.53875	43	30
5.49077	5.58175	84	48
5.58475	5.67575	83	47
5.58574	5.72175	35	25
5.58875	5.72175	43	30
5.67976	5.77375	81	45
5.77475	5.95974	79	44
5.77674	5.91375	35	25
5.77775	5.91375	43	30
5.96274	6.10573	35	25
5.96274	6.10674	43	30
6.15173	6.29574	35	25
6.15272	6.29873	43	30
6.34474	6.48773	35	25
6.34474	6.49074	43	30
6.53273	6.67272	46	29
6.53672	6.67372	50	35
6.53773	6.67571	41	30
6.53973	6.67672	34	26
6.72171	6.86171	46	29
6.72272	6.8627	41	30
6.72272	6.8627	50	35
6.72571	6.8627	34	25
6.9077	7.0437	46	29
6.9077	7.04471	50	35
6.9087	7.0487	34	25
6.9087	7.0477	41	30
7.0897	7.22968	46	30
7.09269	7.23368	50	36
7.0937	7.23368	41	31
7.09669	7.23469	34	26
7.27868	7.42168	46	31
7.27868	7.42267	50	37
7.27968	7.42567	41	31
7.28269	7.42668	34	26
7.46766	7.60766	46	31
7.47067	7.61166	50	37
7.47167	7.61166	34	26
7.47167	7.61166	41	31
7.65366	7.79265	46	32
7.65665	7.79766	41	31
7.65665	7.79665	50	38
7.66065	7.79766	34	26
7.84265	7.98263	46	33
7.84265	7.98263	50	39
7.84364	7.98364	41	31
7.84564	7.98364	34	26
8.02763	8.17162	46	33
8.02863	8.17463	34	26
8.02863	8.17162	50	39
8.03063	8.17463	41	31
8.22064	8.35663	46	34
8.22064	8.35763	50	40
8.22163	8.35963	34	26
8.22163	8.36063	41	31
8.40162	8.54261	46	34
8.40263	8.54261	50	40
8.40562	8.54562	34	26
8.40663	8.54562	41	31
8.59061	8.72761	46	34
8.59162	8.73061	34	26
8.59162	8.73061	50	40
8.59461	8.7316	41	31
8.7726	8.9126	46	34
8.7766	8.91659	50	40
8.7796	8.91659	34	26
8.7796	8.92059	41	31
8.96459	9.10159	46	34
8.96859	9.10259	50	40
8.96958	9.10259	34	25
8.96958	9.10259	41	30
9.24959	9.28459	48	34
9.25259	9.28758	34	25
9.25259	9.28459	52	40
9.25659	9.28758	43	30
9.33258	9.47358	48	34
9.33358	9.47457	34	25
9.33358	9.47457	52	40
9.33657	9.47657	43	30
9.51858	10.0815	48	39
9.51858	10.0815	53	46
9.51957	9.65456	33	25
9.52257	9.65957	41	30
9.70355	9.84456	33	25
9.70456	9.84456	41	30
9.89655	10.0326	33	25
9.89655	10.0376	41	30
10.0855	10.1735	57	40
10.0865	10.2226	33	25
10.0865	10.2226	41	30
10.1765	10.2676	55	40
10.2676	10.3616	53	45
10.2685	10.4075	33	25
10.2705	10.4075	41	30
10.4536	10.5936	33	25
10.4536	10.5936	41	30
10.6385	10.7785	33	25
10.6395	10.7795	41	30
10.8245	10.9675	33	25
10.8245	10.9705	41	30
10.9715	11.0195	83	46
11.0205	11.4995	84	57
11.0245	11.1605	32	25
11.0245	11.1605	41	30
11.2085	11.3525	32	25
11.2095	11.3535	41	30
11.3975	11.5445	32	25
11.3985	11.5455	41	30
11.4995	11.5905	82	50
11.5915	11.7305	32	25
11.5915	11.6815	80	49
11.5945	11.7305	41	30
11.6845	11.7765	79	47
11.7765	11.9685	77	46
11.7795	11.9195	32	25
11.7795	11.9225	41	30
11.9695	12.1125	32	25
11.9695	12.1125	41	30
12.1615	12.3045	32	25
12.1615	12.3055	41	30
12.3495	12.4965	32	25
12.3495	12.4975	41	30
12.4975	12.5425	88	67
12.5435	13.6625	89	73
12.5455	12.6825	31	30
12.5465	12.6835	41	36
12.7285	12.8675	31	32
12.7285	12.8685	41	38
12.9135	13.0575	31	33
12.9165	13.0605	41	39
13.1065	13.2385	31	34
13.1065	13.2395	41	41
13.2915	13.4315	31	36
13.2925	13.4315	41	43
13.4775	13.6165	31	38
13.4805	13.6175	41	45
13.6625	13.7575	89	74
13.6635	13.8015	32	39
13.6655	13.8025	41	46
13.7575	13.8474	87	73
13.8485	13.9455	86	71
13.8514	13.9945	32	40
13.8525	13.9955	41	48
13.9464	14.0404	84	70
14.0404	14.1315	83	72
14.0415	14.1804	31	44
14.0445	14.1815	41	52
14.1355	14.2254	84	71
14.2264	14.3164	86	72
14.2294	14.3664	31	44
14.2304	14.3664	41	52
14.3204	14.4115	87	73
14.4115	14.5054	89	74
14.4154	14.5514	32	45
14.4154	14.5524	41	55
14.5064	14.6034	87	72
14.6034	14.6954	86	71
14.6074	14.7444	32	46
14.6074	14.7444	41	55
14.6984	14.7894	84	69
14.7894	14.8834	83	72
14.7934	14.9294	31	48
14.7934	14.9304	41	58
14.8844	14.9754	84	75
14.9754	15.0694	86	77
14.9764	15.1224	31	51
14.9784	15.1224	41	60
15.0694	15.1674	87	80
15.1684	15.3074	32	54
15.1684	15.2584	89	80
15.1704	15.3074	41	64
15.2594	15.3534	87	80
15.3534	15.4444	86	79
15.3544	15.4924	32	56
15.3564	15.4934	41	66
15.4444	15.5384	84	81
15.5384	15.6294	83	85
15.5394	15.9334	31	70
15.5414	15.9344	41	85
15.6334	15.7314	84	89
15.7314	15.8284	86	94
15.8294	15.9344	87	98
15.9374	16.0254	89	100
15.9384	16.8644	43	81
15.9384	16.8685	55	96
16.0284	16.1194	87	98
16.1204	16.2104	86	96
16.2114	16.3054	84	94
16.3054	16.3964	83	93
16.3964	16.4904	80	91
16.4914	16.5814	79	89
16.5824	16.6764	77	87
16.6764	16.7734	75	85
16.7744	16.8714	74	83
16.8714	16.9664	72	81
16.8724	16.9664	57	67
16.9674	17.0564	71	79
16.9704	17.0574	59	70
17.0614	17.2115	72	93
17.0644	17.2124	60	72
17.4524	17.6215	67	83
17.4575	17.6244	43	56
17.4575	17.6244	55	66
17.8944	18.0664	39	52
17.8944	18.0654	63	72
17.8974	18.0664	51	62
18.3524	18.5694	60	64
18.3564	18.5694	36	48
18.3564	18.5704	48	57
18.9264	20.7114	55	60
18.9304	20.7124	31	46
18.9314	20.7124	43	54
20.7144	20.8514	64	37
20.7154	22.2025	36	30
20.7154	20.8975	48	30
20.8024	20.8975	60	33
20.8975	21.0364	64	37
20.9005	21.0825	48	31
20.9915	21.0835	60	33
20.9925	21.0835	55	26
21.0835	21.2265	64	37
21.0865	21.2685	48	31
21.1805	21.2685	55	27
21.1805	21.2685	60	33
21.2715	21.4535	48	31
21.2715	21.4074	64	36
21.3585	21.4535	60	33
21.3595	21.4575	55	27
21.4575	21.5935	64	36
21.4585	21.6385	48	31
21.5515	21.6434	55	26
21.5515	21.6425	60	33
21.6434	21.7794	64	37
21.6444	21.8315	48	31
21.7334	21.8315	60	33
21.7345	21.8324	55	27
21.8354	21.9715	64	36
21.8364	22.0165	48	31
21.9195	22.0175	55	27
21.9195	22.0175	60	33
22.0205	22.1575	64	36
22.0214	22.2025	48	31
22.1085	22.2065	55	25
22.1085	22.2034	60	33
22.2065	22.3425	64	37
22.2075	22.3874	48	31
22.2965	22.3874	60	33
22.2975	22.3884	55	26
22.3914	22.5244	64	37
22.3924	22.5724	48	31
22.4794	22.5774	55	26
22.4794	22.5734	60	33
22.5774	22.7594	48	31
22.5774	22.7134	64	37
22.6644	22.7594	60	33
22.6674	22.7624	55	27
22.7624	22.8984	64	36
22.7634	22.9444	48	31
22.8534	22.9484	55	27
22.8534	22.9474	60	33
22.9484	23.0844	64	36
22.9514	23.1304	48	31
23.0384	23.1314	55	26
23.0384	23.1304	60	33
23.1334	23.2694	64	37
23.1344	23.3154	48	31
23.2244	23.3184	55	27
23.2244	23.3164	60	33
23.3194	23.4554	66	36
23.3234	23.5014	48	31
23.4104	23.5044	57	27
23.4104	23.5014	62	33
23.5044	23.6404	66	36
23.5084	23.6864	48	31
23.5954	23.6894	62	33
23.5964	23.6904	57	25
23.6934	24.2544	67	46
23.6944	23.8754	47	26
23.6944	23.8754	50	31
23.7814	23.8754	55	25
23.8794	24.0644	47	26
23.8794	24.0684	50	31
23.9734	24.0694	55	25
24.0694	24.2544	47	26
24.0714	24.2544	50	31
24.1594	24.2554	55	25
24.2564	24.3444	71	40
24.2574	24.4354	47	26
24.2574	24.4354	50	31
24.3454	24.4394	55	25
24.3454	24.4394	69	40
24.4424	24.5304	67	45
24.4434	24.6244	47	26
24.4434	24.6254	50	31
24.5304	24.6254	55	25
24.6264	24.8134	47	26
24.6284	24.8134	50	31
24.7154	24.8174	55	25
24.8174	24.9984	47	26
24.8204	25.0024	50	31
24.9074	25.0034	55	25
25.0034	25.1924	47	26
25.0064	25.1924	50	31
25.0934	25.1954	55	25
25.1424	25.1954	85	46
25.1964	25.6674	86	57
25.1994	25.3774	47	26
25.1994	25.3804	50	31
25.2824	25.3804	55	25
25.3804	25.5694	47	26
25.3814	25.5704	50	31
25.4754	25.5734	55	25
25.5734	25.7584	47	26
25.5734	25.7624	50	31
25.6684	25.7624	84	48
25.6714	25.7654	55	25
25.7654	25.8534	83	47
25.7664	25.9474	47	26
25.7694	25.9484	50	31
25.8564	25.9484	81	45
25.8574	25.9504	55	25
25.9514	26.1404	47	26
25.9514	26.1404	50	31
25.9514	26.1364	79	44
26.0454	26.1444	55	25
26.1444	26.3294	47	26
26.1444	26.3324	50	31
26.2304	26.3324	55	25
26.3334	26.5144	47	26
26.3334	26.5184	50	31
26.4234	26.5184	55	25
26.5194	26.7074	47	26
26.5214	26.7074	50	31
26.6124	26.7104	55	25
26.7104	26.8514	65	40
26.7114	28.2014	38	33
26.7114	26.8994	50	33
26.8054	26.9004	62	36
26.9004	27.0394	65	40
26.9024	27.0854	50	34
26.9904	27.0854	62	36
26.9944	27.0854	57	28
27.0884	27.2704	50	34
27.0884	27.2244	65	40
27.1794	27.2704	62	36
27.1804	27.2714	57	29
27.2734	27.4074	65	39
27.2744	27.4554	50	34
27.3614	27.4564	57	29
27.3614	27.4564	62	36
27.4594	27.5954	65	39
27.4604	27.6414	50	34
27.5464	27.6414	62	36
27.5474	27.6414	57	28
27.6454	27.7814	65	41
27.6464	27.8234	50	34
27.7324	27.8244	62	36
27.7364	27.8244	57	29
27.8244	27.9674	65	40
27.8264	28.0124	50	34
27.9214	28.0164	57	30
27.9214	28.0124	62	37
28.0164	28.1524	65	40
28.0174	28.2024	50	35
28.1074	28.2024	57	28
28.1074	28.2024	62	37
28.2044	28.3384	65	41
28.2054	28.3904	50	35
28.2924	28.3904	57	29
28.2924	28.3904	62	37
28.3944	28.5764	50	35
28.3944	28.5304	65	41
28.4844	28.5764	62	37
28.4854	28.5774	57	29
28.5794	28.7164	65	42
28.5804	28.7624	50	35
28.6674	28.7624	57	30
28.6674	28.7624	62	37
28.7654	28.9014	65	41
28.7694	28.9474	50	35
28.8524	28.9474	62	38
28.8554	28.9504	57	30
28.9504	29.0874	65	41
28.9514	29.1324	50	36
29.0414	29.1364	57	29
29.0414	29.1354	62	38
29.1364	29.2724	65	42
29.1394	29.3214	50	36
29.2274	29.3214	57	31
29.2274	29.3214	62	38
29.3224	29.4644	68	41
29.3254	29.5104	50	36
29.4204	29.5134	59	31
29.4204	29.5104	64	38
29.5144	29.6964	50	36
29.5144	29.6504	68	42
29.6054	29.6964	59	29
29.6054	29.6964	64	38
29.6994	29.8884	48	30
29.6994	30.2594	69	55
29.7034	29.8894	52	37
29.7904	29.8894	57	29
29.8924	30.0734	48	30
29.8934	30.0744	52	37
29.9794	30.0744	57	29
30.0774	30.2594	48	30
30.0784	30.2634	52	37
30.1644	30.2634	57	29
30.2644	30.3504	72	48
30.2664	30.4444	48	30
30.2664	30.4454	52	37
30.3544	30.4494	57	29
30.3544	30.4494	71	48
30.4494	30.5364	69	53
30.4514	30.6304	48	30
30.4524	30.6304	52	37
30.5394	30.6344	57	29
30.6344	30.8224	48	30
30.6354	30.8234	52	37
30.7244	30.8264	57	29
30.8274	31.0094	48	30
30.8274	31.0094	52	37
30.9144	31.0094	57	29
31.0124	31.2014	48	30
31.0124	31.2024	52	37
31.1024	31.2024	57	29
31.1515	31.2044	87	55
31.2044	31.6774	88	68
31.2054	31.3934	48	30
31.2054	31.3944	52	37
31.2994	31.3944	57	29
31.3964	31.5794	48	30
31.3974	31.5794	52	37
31.4844	31.5804	57	29
31.5804	31.7674	48	30
31.5824	31.7724	52	37
31.6774	31.7724	86	59
31.6784	31.7724	57	29
31.7744	31.8624	84	58
31.7754	31.9604	48	30
31.7754	31.9604	52	39
31.8634	31.9644	57	31
31.8634	31.9644	83	57
31.9644	32.1464	81	57
31.9674	32.1474	48	32
31.9674	32.1474	52	39
32.0544	32.1494	57	31
32.1494	32.3394	48	32
32.1534	32.3394	52	41
32.2444	32.3394	57	31
32.3414	32.5244	48	33
32.3424	32.5254	52	41
32.4294	32.5254	57	33
32.5274	32.7194	48	35
32.5274	32.7205	52	42
32.6224	32.7234	57	33
32.6674	32.7244	87	66
32.7244	33.1925	88	85
32.7274	32.9094	48	37
32.7274	32.9094	52	45
32.8144	32.9104	58	36
32.9104	33.0974	48	38
32.9124	33.0984	52	45
33.0064	33.0984	58	37
33.1014	33.2914	48	39
33.1025	33.2914	52	47
33.1925	33.2924	86	76
33.1934	33.2944	58	38
33.2944	33.4764	48	39
33.2944	33.3814	84	75
33.2974	33.4775	52	47
33.3824	33.4775	83	71
33.3844	33.4794	58	38
33.4794	33.6685	82	71
33.4804	33.6694	48	41
33.4834	33.6694	52	50
33.5745	33.6704	58	40
33.6714	33.8614	48	41
33.6724	33.8614	52	51
33.7664	33.8624	58	40
33.8624	34.0494	48	42
33.8644	34.0505	52	51
33.9524	34.0505	58	42
34.0534	34.2434	48	43
34.0544	34.2434	52	53
34.1444	34.2444	58	42
34.2464	34.3505	47	40
34.2464	34.7295	83	56
34.3335	34.4455	51	35
34.4285	34.5365	54	35
34.5265	34.6175	59	35
34.6175	34.7305	47	41
34.7115	34.8205	81	54
34.7125	34.8235	51	35
34.8065	34.9185	54	35
34.8065	34.9155	79	53
34.8975	34.9875	59	35
34.8975	35.0085	78	51
34.9925	35.1004	79	53
34.9945	35.1034	47	39
35.0825	35.1945	78	52
35.0865	35.1954	52	35
35.1774	35.2864	55	35
35.1774	35.2854	76	51
35.2684	35.3804	75	50
35.2724	35.3654	59	35
35.3694	35.4744	76	50
35.3704	35.4744	47	40
35.4604	35.5664	79	52
35.4644	35.5664	52	35
35.5554	35.6644	55	35
35.5554	35.6634	78	50
35.6454	35.7584	76	50
35.6464	35.7404	59	35
35.7404	35.8494	75	50
35.7414	35.8494	47	40
35.8314	35.9444	54	35
35.8314	35.9394	73	49
35.9254	36.0344	71	48
35.9264	36.0384	57	35
36.0164	36.1294	70	47
36.0174	36.1114	59	35
36.1114	36.2204	71	49
36.1124	36.2244	47	40
36.2104	36.3224	54	35
36.2104	36.3174	73	49
36.3004	36.4124	74	49
36.3034	36.4164	57	35
36.3954	36.5074	75	50
36.3964	36.4894	59	35
36.4894	36.5974	76	50
36.4904	36.5984	47	40
36.5874	36.6924	75	50
36.5884	36.6934	52	35
36.6784	36.7904	76	51
36.6824	36.7904	55	35
36.7734	36.8814	78	51
36.7744	36.8644	59	35
36.8684	36.9764	47	40
36.8684	36.9754	79	49
36.9614	37.0744	80	50
36.9664	37.0774	52	35
37.0564	37.1694	81	52
37.0604	37.1694	55	35
37.1514	37.2484	59	35
37.1514	37.2664	82	53
37.2494	37.3614	83	55
37.2524	37.3624	47	40
37.3404	37.4524	82	53
37.3444	37.4524	51	35
37.4344	37.5434	83	53
37.4384	37.5434	54	35
37.5294	37.6264	59	35
37.5294	37.6374	82	50
37.6274	37.7364	47	40
37.6274	37.7354	83	52
37.7184	37.8304	81	52
37.7214	37.8304	51	35
37.8134	37.9214	54	35
37.8134	37.9204	79	51
37.9064	38.0153	78	50
37.9074	37.9984	59	35
37.9994	38.1104	47	40
37.9994	38.1064	79	52
38.0923	38.2013	52	35
38.0923	38.2004	78	51
38.1843	38.2953	55	35
38.1843	38.2923	76	49
38.2743	38.3863	75	50
38.2773	38.3693	59	35
38.3693	38.4813	76	50
38.3723	38.4813	47	41
38.4673	38.5723	52	35
38.4673	38.5713	79	53
38.5573	38.6663	78	50
38.5623	38.6673	55	35
38.6523	38.7643	76	50
38.6563	38.7473	59	35
38.7473	38.8553	75	50
38.7503	38.8563	47	40
38.8383	38.9503	73	49
38.8423	38.9513	54	35
38.9323	39.0443	71	48
38.9333	39.0443	57	35
39.0273	39.1353	70	47
39.0283	39.1183	59	35
39.1183	39.2293	47	40
39.1183	39.2263	71	49
39.2123	39.3213	73	50
39.2133	39.3223	54	36
39.3103	39.4123	74	50
39.3113	39.4153	57	36
39.4053	39.4963	59	36
39.4053	39.5063	75	52
39.4963	39.6023	47	42
39.4963	39.6013	76	52
39.5873	39.6993	75	52
39.5883	39.6993	52	36
39.6813	39.7943	55	37
39.6813	39.7903	76	54
39.7733	39.8843	78	54
39.7763	39.8663	59	37
39.8673	39.9793	79	56
39.8703	39.9803	47	42
39.9583	40.0703	80	58
39.9613	40.0703	52	37
40.0523	40.1673	81	60
40.0563	40.1683	55	37
40.1503	40.2663	82	62
40.1533	40.2483	59	38
40.2493	40.6333	83	68
40.2533	40.6333	47	44
40.3463	40.6333	78	60
40.3472	40.6333	51	38
40.4383	40.6333	75	61
40.4403	40.6333	54	38
40.5363	40.6333	71	61
40.5382	40.6333	59	38
40.6302	41.0043	70	75
40.6313	41.0043	58	50
40.7253	41.0043	59	41
40.7253	41.0043	71	63
40.8163	41.0043	55	40
40.8163	41.0043	76	63
40.9073	41.0043	79	63
40.9103	41.0043	52	41
41.0023	41.3833	47	52
41.0023	41.3833	83	74
41.0922	41.3833	78	65
41.0953	41.3833	51	44
41.1862	41.3833	75	68
41.1892	41.3833	54	45
41.2782	41.3833	71	68
41.2812	41.3833	59	45
41.3732	41.7533	70	80
41.3763	41.7533	58	60
41.4703	41.7533	71	71
41.4733	41.7533	59	51
41.5642	41.7533	76	71
41.5653	41.7533	55	51
41.6562	41.7533	79	72
41.6593	41.7533	52	52
41.7503	42.1243	47	63
41.7503	42.1213	83	91
41.8443	42.1253	78	82
41.8453	42.1253	51	52
41.9353	42.1253	75	82
41.9363	42.1253	54	52
42.0303	42.1253	59	52
42.0303	42.1253	71	82
42.1213	42.4983	83	91
42.1243	42.4993	47	63
42.2133	42.5023	79	82
42.2153	42.5023	52	52
42.3073	42.5023	55	52
42.3073	42.5023	76	82
42.3993	42.5023	71	82
42.4013	42.5023	59	52
42.4983	42.8703	83	91
42.4993	42.8713	47	63
42.5913	42.8733	78	82
42.5933	42.8733	51	52
42.6863	42.8733	54	52
42.6863	42.8733	75	81
42.7763	42.8733	71	81
42.7793	42.8733	59	52
42.8703	43.2423	83	91
42.8713	43.2443	47	63
42.9643	43.2483	52	52
42.9643	43.2483	79	81
43.0563	43.2483	76	81
43.0573	43.2483	55	52
43.1503	43.2483	71	82
43.1513	43.2453	59	52
43.2423	44.7523	83	91
43.2443	44.7523	47	54
43.2443	44.7523	51	54
43.2453	44.7523	54	54
43.2453	44.6553	59	63
43.3393	43.6223	78	82
43.4333	43.7103	75	82
43.5243	43.8093	71	82
43.6223	44.7523	78	91
43.7103	43.9973	75	82
43.8093	44.0883	71	82
43.9023	44.1803	66	82
43.9973	44.7523	75	91
44.0883	44.3723	71	82
44.1803	44.4633	66	81
44.2733	44.5573	63	81
44.3723	44.7523	71	91
44.4633	44.7503	66	81
44.5573	44.7523	63	81
44.6553	44.7523	59	82
44.7503	46.2723	66	91
44.8413	45.1273	63	81
44.9353	45.2183	59	80
45.0303	45.3133	54	80
45.1273	46.2723	63	89
45.2183	45.4983	59	79
45.3133	45.5973	54	79
45.4083	45.6913	51	78
45.4983	46.2723	59	87
45.5973	46.2723	54	78
45.6913	46.2723	51	77
45.7893	46.1713	47	77
45.8833	46.2693	35	85
45.9753	46.2723	39	76
46.0733	46.2723	42	76
46.1713	46.2723	47	75
46.2693	46.3663	35	77
46.4613	46.5593	47	68
46.6533	46.7513	37	73
46.8463	46.9443	49	66
47.0343	47.1363	71	75
47.0353	47.1373	39	71
47.2353	47.3293	51	65
47.2353	47.3253	59	69
47.4233	47.5183	73	74
47.6153	47.7143	61	65
47.8123	47.9133	75	71
47.8153	47.9143	39	69
48.0043	48.1023	63	64
48.0053	48.1033	51	61
48.2043	48.2943	40	65
48.3933	48.4873	52	59
48.5863	48.6803	75	67
48.5893	48.6813	42	65
48.7783	48.8803	54	54
48.7783	48.8753	63	53
48.9733	49.0723	76	59
49.1673	49.2643	64	50
49.3623	49.4643	78	52
49.5553	49.6533	66	49
49.7543	49.8463	80	52
49.9433	50.0413	68	49
50.1403	50.2413	81	52
50.1433	50.2413	42	41
50.3393	50.4373	69	48
50.3403	50.4373	54	36
50.5313	50.6293	81	52
50.5323	50.6303	44	41
50.7273	50.8293	56	36
50.7273	50.8263	71	46
50.9233	51.0213	81	51
50.9283	51.0253	45	40
51.1233	51.2213	57	37
51.1233	51.2203	73	46
51.3192	51.4213	81	51
51.3203	51.4213	47	39
51.5183	51.6162	75	46
51.5192	51.6173	59	36
51.7142	51.8202	49	38
51.7142	51.8192	81	51
51.9172	52.0152	76	47
51.9222	52.0192	61	37
52.1212	52.2332	51	40
52.1212	52.2322	81	50
52.3482	52.4712	63	37
52.3482	52.4712	78	46
52.6032	53.4852	71	42
52.6042	53.4862	76	42
52.6042	53.4862	80	55
52.6072	53.4892	64	33
52.6072	53.4882	68	39
53.4892	53.9162	69	40
53.4932	53.9192	66	35
53.4932	53.9172	75	40
53.4932	53.9172	78	52
53.4942	53.9192	63	29
53.4962	53.9202	59	29
53.9202	54.3682	68	40
53.9232	54.3682	73	40
53.9242	54.3712	64	35
53.9242	54.3692	76	52
53.9262	54.3712	61	29
54.3712	55.2562	66	42
54.3752	55.2602	63	39
54.3752	55.2562	72	42
54.3752	55.2602	75	55
54.3762	55.2612	60	33
54.3782	55.2612	56	33
55.2632	56.1562	64	40
55.2632	56.1572	73	52
55.2642	56.1602	57	28
55.2642	56.1592	61	34
56.1602	57.0482	69	49
56.1612	57.0492	71	49
56.1632	57.0512	75	63
56.1642	57.0522	54	37
56.1642	57.0522	57	45
56.1662	57.0552	59	37
56.1672	57.0562	63	45
57.0582	57.5142	71	50
57.0592	57.5172	56	40
57.0592	57.5152	76	66
57.0602	57.5172	59	40
57.0632	57.5182	64	49
57.5212	58.0012	73	48
57.5222	58.0042	66	51
57.5222	58.0012	76	55
57.5222	58.0042	78	72
57.5232	58.0072	57	46
57.5242	58.0082	61	42
58.0082	59.3762	71	59
58.0112	59.8422	59	49
58.0112	58.9142	76	59
58.0112	58.9142	80	77
58.0122	58.9152	64	49
58.0152	58.9182	68	59
58.9182	59.8422	75	32
58.9192	59.8452	63	27
58.9192	59.8452	78	49
58.9212	59.8462	66	32
59.3772	59.8462	69	48
59.8492	60.7232	59	37
59.8502	60.7272	64	37
59.8502	60.7272	68	45
59.8522	60.7282	52	29
59.8522	60.7282	56	35
60.7302	61.1542	57	36
60.7312	61.1542	63	36
60.7342	61.1582	54	31
60.7342	61.1582	66	43
60.7352	61.1592	47	26
60.7352	61.1592	51	26
61.1612	61.6122	56	36
61.1612	61.6132	61	36
61.1622	61.6132	64	43
61.1652	61.6172	49	26
61.1652	61.6172	52	31
61.6192	62.4952	54	37
61.6202	62.4952	60	37
61.6202	62.4962	63	45
61.6212	62.4982	51	35
61.6242	62.5022	44	29
61.6242	62.4982	48	29
62.5022	63.4012	57	36
62.5032	63.4012	52	36
62.5032	63.4022	61	43
62.5052	63.4052	45	25
62.5052	63.4022	49	30
63.4052	63.8422	52	44
63.4062	63.8422	56	44
63.4082	64.2902	59	52
63.4092	65.1822	35	33
63.4092	65.1832	47	40
63.8462	65.1832	54	50
63.8462	65.1872	57	50
64.2912	64.7242	61	61
64.7242	65.1872	63	69
65.1872	65.3332	56	43
65.1902	65.6342	40	38
65.1902	65.6342	52	43
65.1902	65.2982	64	49
65.3372	65.4492	66	48
65.4842	65.5992	68	49
65.6352	65.7462	69	47
65.7872	65.8962	71	48
65.9352	66.0472	73	49
66.0822	66.1972	74	50
66.2322	66.3452	75	51
66.3832	66.4961	76	52
66.5331	66.6461	77	52
66.6811	66.7881	78	53
66.8311	66.9431	79	53
66.9821	67.8461	71	45
66.9851	67.8471	68	44
66.9851	67.1211	80	57
66.9861	67.8491	64	37
67.1221	67.2721	79	53
67.2731	67.4111	80	53
67.4121	67.5551	81	53
67.5561	67.7031	79	53
67.7031	67.8501	80	53
67.8501	68.2701	69	60
67.8541	68.2731	63	33
67.8541	68.2731	66	40
67.8561	68.2741	59	33
67.9931	68.1291	80	54
68.1301	68.2771	78	54
68.2771	68.7211	68	60
68.2781	68.7251	64	40
68.2801	68.7281	61	33
68.4201	68.5701	78	53
68.5741	68.7281	76	53
68.7281	69.5931	66	60
68.7291	69.5961	63	44
68.7321	69.5971	56	37
68.7321	69.5961	60	37
68.8681	69.0121	72	54
69.0121	69.1581	75	54
69.1591	69.3061	76	54
69.3061	69.4491	72	54
69.4501	69.6001	75	54
69.6001	70.4881	64	60
69.6011	70.4891	61	39
69.6031	70.4891	57	32
69.7391	69.8831	69	54
69.8871	70.0271	73	54
70.0301	70.1801	75	54
70.1811	70.3311	69	54
70.3311	70.4921	73	54
70.4921	71.3631	69	62
70.4931	71.3641	54	39
70.4951	71.3681	57	47
70.4961	71.3681	59	39
70.4961	71.3701	63	47
70.6321	70.7791	74	62
70.7801	70.9231	75	57
70.9261	71.0691	76	57
71.0701	71.2201	74	59
71.2201	71.3711	75	59
71.3711	71.7941	71	71
71.3721	71.7951	56	45
71.3741	71.7971	59	45
71.3751	71.7971	64	53
71.5041	71.6471	78	63
71.6501	71.7981	76	64
71.8011	72.2491	73	74
71.8021	72.2501	57	49
71.8021	72.2491	66	59
71.8041	72.2501	61	49
71.9451	72.0951	80	65
72.0981	72.2531	78	65
72.2531	72.3921	80	79
72.2541	74.0161	59	53
72.2541	73.1171	76	79
72.2561	73.1211	64	53
72.2561	73.1211	68	65
72.3931	72.5401	79	72
72.5401	72.6831	80	72
72.6841	72.8271	83	68
72.8301	72.9731	81	72
72.9741	73.1221	80	69
73.1221	73.2601	75	67
73.1241	73.2641	78	67
73.1251	73.5621	63	45
73.1251	73.5621	66	53
73.2681	73.4141	73	64
73.2681	73.4151	76	64
73.4151	73.5631	75	60
73.4181	73.5631	71	60
73.5651	73.7081	69	60
73.5651	73.7131	73	60
73.5661	73.7131	47	44
73.7151	73.8661	68	56
73.7161	73.8701	49	43
73.7161	73.8661	71	56
73.8701	74.0211	66	53
73.8731	74.0211	51	41
73.8731	74.0211	69	53
74.0231	74.8881	59	57
74.0241	74.8881	52	37
74.0241	74.8881	56	45
74.0241	74.1641	68	57
74.1641	74.3071	67	49
74.3101	74.4511	68	49
74.4541	74.5971	69	49
74.5981	74.7451	67	49
74.7451	74.8921	68	49
74.8921	75.3111	57	56
74.8961	75.3161	47	33
74.8961	75.3151	51	33
74.8961	75.3121	54	41
75.0281	75.1751	68	50
75.1751	75.3161	66	50
75.3181	75.7601	56	56
75.3191	75.7631	49	33
75.3191	75.7601	52	41
75.4621	75.6121	66	49
75.6171	75.7631	64	49
75.7641	76.6341	51	37
75.7671	76.6391	48	37
75.7671	76.6381	54	49
75.7681	76.6391	44	37
75.9031	76.0571	60	50
76.0581	76.1941	63	50
76.1941	76.3471	64	53
76.3471	76.4841	60	50
76.4841	76.6411	63	50
76.6411	77.5231	45	39
76.6421	77.5241	49	39
76.6421	77.5271	52	32
76.7821	76.9251	57	50
76.9281	77.0691	61	50
77.0721	77.2221	63	53
77.2231	77.3731	57	50
77.3731	77.5281	61	50
77.5281	77.9821	52	60
77.5301	79.3511	35	46
77.5311	79.3511	47	55
77.6671	77.9821	56	56
77.8221	77.9821	59	57
77.9751	78.4271	54	66
78.1221	78.4301	57	61
78.2661	78.4301	59	61
78.4271	78.8851	54	74
78.5801	78.8861	57	67
78.7281	78.8861	61	65
78.8851	79.3511	54	80
79.0361	79.3511	57	71
79.1861	79.3511	63	70
79.3441	79.6341	56	77
79.3471	79.9251	64	82
79.3481	80.2221	40	50
79.3481	80.2221	52	60
79.4881	79.7821	59	75
79.6341	80.2221	56	77
79.7821	80.6561	47	76
79.7821	80.2221	59	82
79.9251	80.2221	64	77
80.0681	80.2221	68	77
80.2191	80.8001	66	82
80.3621	80.6561	63	77
80.5101	81.1001	59	77
80.6561	81.5271	47	76
80.6561	81.1001	63	82
80.8001	81.1001	66	77
80.9441	81.1001	69	77
81.0941	81.6681	68	82
81.2411	81.5251	64	75
81.3781	81.9691	59	77
81.5251	81.9691	64	82
81.5271	82.3991	47	75
81.6681	81.9691	68	77
81.8151	81.9691	71	77
81.9621	82.5401	69	82
82.1061	82.6801	66	77
82.2521	82.8301	63	77
82.3961	82.8301	75	82
82.3991	82.8301	47	74
82.5401	82.8301	69	77
82.6801	82.8301	66	77
82.8271	83.683	68	63
82.8271	83.683	76	75
82.8291	83.394	52	73
82.9661	83.253	47	67
83.1101	83.683	44	69
83.253	83.683	47	73
83.253	84.1081	71	80
83.394	83.683	52	69
83.533	83.683	56	69
83.681	84.254	54	73
83.824	84.1101	51	69
83.9681	84.548	47	69
84.1081	84.972	71	80
84.1101	84.548	51	73
84.254	84.548	54	69
84.398	84.548	57	69
84.541	85.116	56	73
84.689	84.976	52	67
84.833	85.409	47	69
84.972	85.844	71	80
84.976	85.409	52	73
85.116	85.409	56	69
85.255	85.409	59	69
85.406	85.984	57	73
85.546	86.127	54	69
85.693	86.278	51	69
85.844	86.278	71	80
85.847	86.278	63	73
85.984	86.278	57	69
86.127	86.278	54	69
86.274	86.844	76	82
86.277	86.844	56	64
86.421	86.705	71	75
86.422	86.705	59	56
86.558	87.138	68	77
86.561	87.138	64	56
86.705	87.138	59	64
86.705	87.138	71	82
86.844	87.138	56	57
86.844	87.138	76	77
86.988	87.138	80	77
86.991	87.138	52	57
87.135	87.705	51	64
87.135	87.703	78	82
87.279	87.566	54	56
87.279	87.562	75	77
87.418	87.995	71	77
87.419	87.995	57	56
87.562	87.995	75	82
87.566	87.995	54	64
87.703	87.995	78	77
87.705	87.995	51	57
87.849	87.995	47	58
87.849	87.995	81	77
87.993	88.563	80	82
87.995	88.563	52	64
88.132	88.419	56	56
88.132	88.417	76	75
88.276	88.8639	71	77
88.28	88.8639	59	56
88.417	88.8639	76	82
88.419	88.8639	56	64
88.563	88.8639	52	57
88.563	88.8639	80	77
88.7029	88.8639	83	77
88.704	88.8639	47	57
88.857	89.4319	81	82
88.858	89.7189	51	64
88.998	89.5779	78	77
88.999	89.2949	57	56
89.1409	89.7189	75	77
89.1479	89.4339	59	56
89.2939	89.7189	87	82
89.2949	89.7189	57	64
89.4319	89.7189	81	77
89.4339	89.7189	59	57
89.5779	89.7189	78	77
89.5789	89.7189	66	58
89.7179	90.2809	56	64
89.7179	90.5719	88	84
89.8619	90.1389	83	74
89.8629	90.4279	59	55
90.0019	90.5719	64	55
90.0019	90.2779	80	74
90.1389	90.5719	83	79
90.1419	90.5719	52	62
90.2779	90.5719	80	73
90.2809	90.5719	56	55
90.4249	90.5719	76	72
90.4279	90.5719	59	54
90.5689	91.4329	81	78
90.5709	91.4329	54	59
90.7079	91.2729	78	71
90.7089	90.9889	57	51
90.8489	91.1359	59	51
90.8489	91.4329	75	70
90.9879	91.4329	87	77
90.9889	91.4329	57	57
91.1319	91.4329	83	69
91.1359	91.4329	59	51
91.2729	91.4329	78	67
91.2749	91.4329	66	51
91.4299	91.9869	56	56
91.4299	92.2759	88	74
91.5659	91.8459	83	65
91.5689	92.1299	59	48
91.7059	91.9859	80	65
91.7089	92.2759	64	48
91.8459	92.2759	83	72
91.8499	92.2759	52	54
91.9859	92.2759	80	64
91.9869	92.2759	56	48
92.1259	92.2759	76	63
92.1299	92.2759	59	47
92.2729	93.1269	81	69
92.2739	93.1269	54	51
92.4099	92.9738	78	62
92.4109	92.6959	57	44
92.5499	93.1269	75	60
92.5529	92.8289	59	44
92.6959	93.1269	57	50
92.6959	93.1269	87	68
92.8259	93.1269	83	59
92.8289	93.1269	59	44
92.9738	93.1269	66	44
92.9738	93.1269	78	58
93.1238	93.2279	88	64
93.1269	93.2288	56	50
93.2288	93.3328	83	58
93.2318	93.3328	59	43
93.3338	93.4318	52	43
93.3338	93.4318	80	58
93.4328	93.5328	76	59
93.4348	93.5358	59	44
93.5358	93.6378	81	65
93.5368	93.6378	54	51
93.6408	93.7398	59	44
93.6408	93.7388	78	59
93.7398	93.8398	87	62
93.7428	93.8438	57	44
93.8448	93.9458	59	44
93.8448	93.9458	83	63
93.9468	94.0478	88	69
93.9488	94.0478	56	52
94.0478	94.1448	83	63
94.0488	94.1458	59	46
94.1458	94.2468	80	63
94.1478	94.2468	52	47
94.2498	94.3488	76	64
94.2508	94.3488	59	49
94.3498	94.4498	81	71
94.3518	94.4538	54	55
94.4538	94.5508	78	66
94.4548	94.5518	59	48
94.5518	94.6528	87	67
94.5548	94.6528	57	48
94.6568	94.7568	83	67
94.6598	94.7618	59	49
94.7618	94.8628	88	74
94.7628	94.8658	56	58
94.8668	94.9608	83	67
94.8698	94.9638	59	50
94.9638	95.0618	87	69
94.9678	95.0628	57	51
95.0648	95.1668	83	69
95.0658	95.1678	59	52
95.1678	95.2618	88	77
95.1708	95.2648	56	60
95.2648	95.3638	83	77
95.2688	95.3638	59	52
95.3668	95.4618	57	52
95.3668	95.4608	87	72
95.4648	95.5588	83	73
95.4658	95.5628	59	54
95.5638	95.6608	56	62
95.5638	95.6608	88	80
95.6618	95.7588	59	55
95.6618	95.7578	83	73
95.7588	95.8568	87	74
95.7618	95.8578	57	55
95.8578	95.9548	83	74
95.8598	95.9548	59	57
95.9588	96.0528	56	65
95.9588	96.0518	88	82
96.0568	96.1548	59	57
96.0568	96.1538	83	85
96.1548	96.2488	87	78
96.1578	96.2488	57	57
96.2518	96.3598	83	79
96.2558	96.3608	59	58
96.3648	96.4598	56	70
96.3648	96.4588	88	89
96.4618	96.5598	83	81
96.4628	96.5598	59	60
96.5608	96.6588	44	60
96.5608	96.6578	86	81
96.6588	96.7558	83	81
96.6618	96.7568	52	62
96.7568	96.9558	86	89
96.7598	96.9568	44	70
96.8578	97.0538	83	83
96.8588	97.0538	52	60
96.9558	97.1478	86	82
96.9568	97.1488	44	60
97.0538	97.2458	52	60
97.0538	97.2458	83	82
97.1478	97.3448	86	89
97.1488	97.3448	44	70
97.2458	97.4438	52	60
97.2458	97.4428	83	81
97.3448	97.5438	44	60
97.3448	97.5408	86	81
97.4428	97.6348	83	81
97.4438	97.6348	52	62
97.5408	97.7338	86	89
97.5438	97.7348	44	70
97.6348	97.8338	52	60
97.6348	97.8318	83	83
97.7338	97.9318	86	82
97.7348	97.9328	44	60
97.8318	97.9398	83	82
97.8338	97.9398	52	60
97.9318	98.7018	86	89
97.9328	98.1248	44	70
98.0268	98.2228	52	60
98.1218	98.7018	85	81
98.1248	98.3138	44	60
98.2228	98.4088	52	62
98.2228	98.7018	83	81
98.3138	98.5058	44	70
98.3138	98.7018	81	88
98.4078	98.7018	80	83
98.4088	98.6008	52	60
98.5058	98.6918	44	60
98.5058	98.7018	78	83
98.5978	98.7018	76	83
98.6008	98.7018	52	61
98.6918	98.8848	44	71
98.6918	99.5247	74	88
98.7898	99.5247	73	82
98.7907	98.9828	52	61
98.8848	99.0767	44	61
98.8848	99.5247	71	83
98.9817	99.5247	69	83
98.9828	99.1687	52	63
99.0738	99.5247	68	91
99.0767	99.2658	44	72
99.1678	99.5247	66	86
99.1687	99.3608	52	62
99.2658	99.5247	44	62
99.2658	99.5247	64	85
99.3597	99.5247	62	85
99.3608	99.4558	52	62
99.4517	99.5428	61	93
99.4548	99.5867	45	67
99.4548	99.5917	49	67
99.4558	99.5917	52	80
99.5428	99.6357	63	84
99.6367	99.7768	45	60
99.6367	99.7277	64	84
99.6397	99.7768	49	60
99.6407	99.7777	52	73
99.7287	99.8217	63	86
99.8217	99.9197	64	92
99.9207	100.015	68	85
100.016	100.158	45	60
100.016	100.113	69	85
100.017	100.158	49	60
100.018	100.159	52	73
100.114	100.204	68	85
100.204	100.344	45	67
100.204	100.298	69	93
100.208	100.345	49	67
100.208	100.345	52	80
100.299	100.389	72	84
100.389	100.484	73	84
100.39	100.53	45	60
100.393	100.53	49	60
100.394	100.53	52	73
100.484	100.574	72	84
100.575	100.669	73	93
100.67	100.767	75	84
100.767	100.859	76	84
100.771	100.911	45	60
100.771	100.911	49	60
100.771	100.915	52	73
100.861	100.959	75	84
100.96	101.096	45	67
100.96	101.051	76	95
100.961	101.1	49	67
100.963	101.1	52	78
101.051	101.146	80	86
101.146	101.237	81	86
101.147	101.281	45	60
101.149	101.286	49	60
101.149	101.286	52	73
101.239	101.331	80	86
101.332	101.422	81	95
101.425	101.517	84	86
101.517	101.614	85	86
101.518	101.66	45	60
101.52	101.663	49	60
101.52	101.664	52	73
101.618	101.712	84	86
101.712	101.807	85	95
101.716	101.852	45	67
101.717	101.856	49	67
101.719	101.856	52	78
101.807	101.904	87	86
101.905	101.992	88	86
101.908	102.034	45	60
101.909	102.035	49	60
101.909	102.035	52	73
101.993	102.087	87	86
102.087	102.178	88	95
102.178	102.272	87	86
102.273	102.423	45	60
102.273	102.37	85	86
102.274	102.424	49	60
102.277	102.424	52	73
102.371	102.469	84	86
102.469	102.562	85	95
102.472	102.609	46	67
102.472	102.609	49	67
102.472	102.608	52	67
102.473	102.612	54	78
102.563	102.654	84	86
102.654	102.752	85	86
102.655	102.794	52	60
102.657	102.794	46	60
102.657	102.795	49	60
102.658	102.795	54	73
102.756	102.847	87	86
102.847	102.937	88	95
102.938	103.032	87	86
103.033	103.176	52	60
103.033	103.123	85	86
103.035	103.176	46	60
103.035	103.179	49	60
103.036	103.179	54	73
103.123	103.224	84	86
103.225	103.361	52	67
103.225	103.315	85	95
103.226	103.362	46	67
103.227	103.364	49	67
103.228	103.364	54	78
103.316	103.41	84	86
103.41	103.5	85	86
103.411	103.549	46	60
103.411	103.546	52	60
103.414	103.55	49	60
103.414	103.55	54	73
103.501	103.599	87	86
103.6	103.693	88	95
103.693	103.784	87	86
103.788	103.932	46	60
103.788	103.931	52	60
103.788	103.878	85	86
103.792	103.932	49	60
103.792	103.935	54	73
103.879	103.977	84	86
103.977	104.072	85	95
103.98	104.117	46	67
103.98	104.117	52	67
103.981	104.121	49	67
103.984	104.121	54	78
104.072	104.162	84	86
104.163	104.257	85	86
104.166	104.306	46	60
104.166	104.302	52	60
104.169	104.306	49	60
104.17	104.307	54	73
104.258	104.348	87	86
104.351	104.443	88	95
104.443	104.537	87	86
104.538	104.68	52	60
104.538	104.635	85	86
104.539	104.681	46	60
104.54	104.681	49	60
104.541	104.684	54	73
104.635	104.733	84	86
104.733	104.824	85	95
104.737	104.874	46	67
104.737	104.874	49	67
104.737	104.873	52	67
104.738	104.876	54	78
104.828	104.918	84	86
104.918	105.013	85	86
104.919	105.059	52	60
104.922	105.059	46	60
104.922	105.06	49	60
104.923	105.06	54	73
105.013	105.104	87	86
105.104	105.198	88	95
105.199	105.289	87	86
105.29	105.391	88	86
105.293	105.433	46	60
105.293	105.432	52	60
105.294	105.436	49	60
105.294	105.437	54	73
105.391	105.481	85	86
105.482	105.58	71	87
105.482	105.581	83	103
105.483	105.581	47	78
105.583	105.675	52	70
105.675	105.766	71	73
105.676	105.766	56	70
105.676	105.766	83	87
105.769	105.856	59	70
105.86	105.951	68	74
105.861	105.951	80	88
105.863	105.954	47	77
105.954	106.046	52	70
106.046	106.143	64	73
106.047	106.144	76	87
106.049	106.144	56	70
106.146	106.234	59	70
106.235	106.329	76	87
106.238	106.329	88	103
106.239	106.333	47	75
106.333	106.419	52	70
106.424	106.514	76	73
106.424	106.515	88	87
106.426	106.518	56	70
106.519	106.605	59	70
106.609	106.707	71	73
106.61	106.707	83	87
106.612	106.711	47	75
106.711	106.797	52	70
106.802	106.906	56	70
106.802	106.903	68	73
106.802	106.904	80	87
106.906	106.991	59	70
106.991	107.084	71	87
106.994	107.085	83	103
106.995	107.085	47	78
107.088	107.176	52	70
107.177	107.27	71	73
107.179	107.27	83	87
107.18	107.271	56	70
107.274	107.362	59	70
107.362	107.459	68	74
107.363	107.46	80	88
107.365	107.463	47	77
107.464	107.554	52	70
107.555	107.649	64	73
107.555	107.649	76	87
107.557	107.65	56	70
107.65	107.739	59	70
107.74	107.837	76	87
107.741	107.838	88	103
107.743	107.838	56	75
107.932	108.023	76	73
107.932	108.023	88	87
107.933	108.027	56	70
108.117	108.208	71	73
108.118	108.212	52	75
108.118	108.209	83	87
108.31	108.404	47	70
108.31	108.4	68	73
108.31	108.401	80	87
108.492	108.587	59	86
108.587	108.677	80	47
108.681	108.772	56	47
108.681	108.87	83	50
108.773	108.873	80	47
108.873	109.055	83	51
108.874	108.965	64	53
108.965	109.059	80	47
109.059	109.245	83	50
109.06	109.15	59	48
109.151	109.245	80	47
109.246	109.336	68	52
109.246	109.43	83	51
109.336	109.431	80	47
109.431	109.616	83	50
109.433	109.521	64	41
109.522	109.616	80	47
109.617	109.797	83	52
109.619	109.706	71	50
109.707	109.801	80	47
109.802	109.986	83	51
109.804	109.892	68	41
109.896	109.987	80	47
109.987	110.172	83	50
109.99	110.077	76	50
110.082	110.172	80	47
110.173	110.357	83	50
110.175	110.267	71	41
110.267	110.358	80	47
110.358	110.543	83	51
110.361	110.448	76	50
110.449	110.543	80	47
110.544	110.728	83	50
110.547	110.638	71	39
110.638	110.729	80	47
110.732	110.914	83	51
110.733	110.819	76	50
110.823	110.918	80	47
110.918	111.099	83	50
110.919	111.008	71	41
111.009	111.1	80	47
111.103	111.291	83	52
111.104	111.198	76	50
111.201	111.292	80	47
111.292	111.484	83	51
111.295	111.386	71	42
111.387	111.485	80	47
111.485	111.576	75	46
111.579	111.67	81	42
111.671	111.761	71	37
111.671	111.856	83	45
111.762	111.856	81	41
111.857	112.041	84	44
111.859	111.949	75	43
111.95	112.042	81	40
112.042	112.226	83	42
112.045	112.132	71	36
112.135	112.227	81	39
112.23	112.317	75	41
112.23	112.412	84	42
112.322	112.415	81	38
112.415	112.597	83	40
112.416	112.507	71	32
112.507	112.601	81	37
112.601	112.783	84	40
112.602	112.692	75	39
112.693	112.783	81	36
112.784	112.961	83	39
112.786	112.87	71	31
112.871	112.966	81	35
112.966	113.151	84	37
112.968	113.056	75	36
113.059	113.151	81	34
113.152	113.336	83	36
113.154	113.241	71	30
113.245	113.337	81	34
113.337	113.522	84	37
113.339	113.43	75	36
113.43	113.522	81	34
113.522	113.707	83	36
113.525	113.616	71	31
113.617	113.708	81	34
113.708	113.892	84	37
113.71	113.795	75	36
113.795	113.893	81	34
113.896	113.983	71	29
113.896	114.081	83	36
113.988	114.082	81	34
114.082	114.173	75	36
114.082	114.263	84	38
114.173	114.268	81	34
114.268	114.456	83	37
114.269	114.361	71	30
114.365	114.456	81	34
114.457	114.641	85	37
114.46	114.519	75	37
114.519	114.578	76	32
114.55	114.642	81	34
114.579	114.645	75	36
114.646	114.704	76	31
114.646	114.833	83	36
114.705	114.768	75	36
114.732	114.834	81	35
114.771	114.834	76	33
114.838	114.889	75	37
114.838	115.019	85	38
114.893	114.956	76	33
114.925	115.019	81	36
114.957	115.023	75	37
115.023	115.204	83	38
115.024	115.083	76	33
115.086	115.142	75	38
115.111	115.208	81	36
115.142	115.209	76	34
115.209	115.394	85	40
115.21	115.268	75	38
115.269	115.331	76	35
115.303	115.398	81	37
115.332	115.398	75	39
115.401	115.457	76	35
115.401	115.579	83	40
115.457	115.519	75	39
115.489	115.584	81	38
115.52	115.584	76	36
115.586	115.769	85	43
115.587	115.639	75	40
115.64	115.702	76	36
115.674	115.769	81	39
115.705	115.77	75	40
115.772	115.831	76	36
115.772	115.954	83	43
115.832	115.887	75	41
115.859	115.955	81	40
115.891	115.955	76	37
115.957	116.14	90	44
115.958	116.017	75	41
116.02	116.077	76	36
116.049	116.141	81	41
116.049	116.14	83	41
116.077	116.143	75	42
116.143	116.325	90	43
116.144	116.202	76	37
116.207	116.262	75	42
116.23	116.326	83	41
116.231	116.326	81	41
116.263	116.328	76	37
116.329	116.392	75	43
116.329	116.511	90	46
116.392	116.455	76	38
116.416	116.514	81	42
116.416	116.514	83	42
116.455	116.515	75	43
116.515	116.696	90	46
116.518	116.573	76	39
116.574	116.633	75	44
116.601	116.7	83	44
116.605	116.7	81	44
116.634	116.701	76	39
116.701	116.881	90	49
116.703	116.763	75	44
116.763	116.819	76	38
116.791	116.886	81	45
116.791	116.885	83	45
116.819	116.886	75	45
116.888	117.067	90	49
116.889	116.944	76	38
116.945	117.008	75	45
116.976	117.071	81	47
116.976	117.067	83	47
117.011	117.071	76	40
117.072	117.252	90	54
117.074	117.162	75	50
117.162	117.253	83	48
117.163	117.256	81	48
117.164	117.256	76	44
117.259	117.451	90	53
117.26	117.354	73	52
117.354	117.452	83	49
117.355	117.455	75	47
117.355	117.452	81	49
117.456	118.596	80	72
117.456	118.597	83	72
117.457	118.597	88	72
117.459	120.469	64	48
117.459	118.222	76	57
118.225	118.971	68	38
118.226	118.975	71	38
118.226	118.971	74	45
118.6	118.688	88	58
118.688	118.781	86	57
118.782	118.88	84	56
118.881	118.975	83	55
118.976	119.065	84	58
118.978	119.72	72	47
118.979	119.724	69	39
119.066	119.16	83	57
119.161	119.251	81	56
119.252	119.342	80	55
119.342	119.436	81	51
119.437	119.527	83	52
119.531	119.622	84	53
119.623	119.724	86	54
119.724	119.814	88	56
119.727	120.473	68	39
119.727	120.473	71	39
119.727	120.473	74	46
119.815	119.905	89	57
119.909	120.004	88	57
120.007	120.098	87	56
120.099	120.192	88	56
120.193	120.284	86	56
120.284	120.378	84	56
120.378	120.474	83	56
120.476	120.567	84	57
120.477	120.847	69	40
120.477	120.848	72	48
120.567	120.662	86	57
120.662	120.756	84	57
120.757	120.848	83	53
120.85	120.945	81	56
120.945	121.04	80	52
121.04	121.137	81	56
121.138	121.229	83	52
121.229	122.027	72	45
121.232	122.027	57	39
121.232	122.027	84	59
121.236	122.027	60	39
121.236	122.027	66	39
121.237	122.027	69	47
121.621	122.027	81	52
121.817	122.027	78	52
122.02	122.808	71	45
122.023	122.807	59	39
122.023	122.808	64	39
122.023	122.808	83	57
122.024	122.808	67	46
122.405	122.808	79	52
122.601	122.808	76	52
122.804	123.591	69	45
122.804	123.591	81	57
122.805	123.591	63	37
122.807	123.591	59	37
122.807	123.591	66	44
123.189	123.591	78	52
123.385	123.591	75	52
123.588	124.347	64	56
123.588	124.718	76	72
123.589	126.587	52	45
124.348	125.092	59	38
124.348	125.089	62	45
124.351	125.093	56	38
124.719	124.809	76	58
124.813	124.911	74	57
124.911	124.998	72	56
124.999	125.093	71	55
125.096	125.184	72	58
125.097	125.845	57	39
125.097	125.845	60	47
125.184	125.281	71	57
125.285	125.376	69	56
125.377	125.467	68	55
125.467	125.562	69	51
125.562	125.652	71	52
125.653	125.747	72	53
125.748	125.845	74	54
125.849	126.591	62	46
125.849	125.939	76	56
125.85	126.591	59	39
125.852	126.591	56	39
125.94	126.03	77	57
126.031	126.122	76	57
126.125	126.216	75	56
126.216	126.31	76	56
126.311	126.402	74	56
126.405	126.496	72	56
126.496	126.594	71	56
126.595	126.965	57	48
126.595	126.681	72	57
126.596	126.966	60	48
126.682	126.78	74	57
126.78	126.874	72	57
126.874	126.966	71	53
126.968	127.06	69	56
127.061	127.158	68	52
127.158	127.252	69	56
127.253	127.35	71	52
127.351	128.142	60	45
127.351	128.142	72	59
127.353	128.142	45	39
127.353	128.142	48	39
127.354	128.142	54	39
127.354	128.142	57	47
127.739	128.142	69	52
127.931	128.142	66	52
128.138	128.926	59	45
128.139	128.926	71	57
128.141	128.926	47	39
128.141	128.926	52	39
128.141	128.926	55	46
128.523	128.926	67	52
128.715	128.926	64	52
128.922	129.709	57	45
128.922	129.709	69	57
128.923	129.709	54	44
128.925	129.709	51	37
128.926	129.709	47	37
129.306	129.709	66	52
129.503	129.709	63	52
129.706	129.898	64	55
129.707	130.101	52	37
129.707	130.101	55	44
130.102	130.297	76	67
130.105	130.493	43	42
130.105	130.693	52	51
130.301	130.497	74	62
130.497	130.892	72	66
130.5	131.291	45	42
130.693	130.893	53	49
130.893	131.088	69	61
130.894	131.088	55	51
131.089	131.291	65	54
131.092	131.292	57	55
131.292	132.087	71	51
131.295	132.087	59	41
131.296	132.884	47	35
131.296	132.087	55	35
131.687	132.087	67	46
131.883	132.087	64	46
132.083	132.884	69	51
132.086	132.884	54	33
132.086	132.884	57	39
132.482	132.884	66	46
132.67	132.884	63	46
132.88	133.072	64	55
132.881	133.276	48	37
132.881	133.277	52	37
132.884	133.279	55	44
133.279	133.478	72	66
133.28	133.678	40	42
133.283	133.867	48	51
133.479	133.678	71	62
133.679	134.071	69	66
133.682	134.469	41	42
133.871	134.071	50	49
134.073	134.27	65	61
134.074	134.27	52	51
134.271	134.473	53	55
134.271	134.472	62	54
134.473	135.279	67	51
134.477	136.083	43	35
134.477	135.279	52	35
134.479	135.279	55	41
134.873	135.279	64	46
135.068	135.279	60	46
135.278	136.083	53	39
135.278	136.083	65	51
135.279	136.083	50	33
135.674	136.083	62	46
135.873	136.083	59	46
136.079	136.219	48	28
136.08	136.219	52	33
136.08	136.265	60	40
136.082	136.22	36	25
136.265	136.404	48	28
136.268	136.408	36	22
136.268	136.405	43	26
136.268	136.405	52	33
136.45	136.59	48	28
136.451	136.591	43	26
136.451	136.59	52	33
136.454	136.594	36	22
136.636	136.776	48	28
136.636	136.777	52	34
136.64	136.78	36	22
136.64	136.779	43	27
136.821	136.962	48	28
136.825	136.964	43	27
136.825	136.962	52	34
136.826	136.965	36	22
137.006	137.147	48	28
137.011	137.151	43	28
137.011	137.15	52	34
137.013	137.151	36	23
137.196	137.339	48	29
137.196	137.34	52	35
137.197	137.342	36	23
137.197	137.34	43	28
137.381	137.525	48	29
137.382	137.528	36	24
137.382	137.526	43	29
137.382	137.525	52	35
137.57	137.71	48	30
137.57	137.711	52	36
137.574	137.711	36	25
137.574	137.713	43	30
137.756	137.895	48	30
137.757	137.896	52	36
137.759	137.9	36	22
137.76	137.9	43	27
137.941	138.081	48	31
137.944	138.085	52	37
137.945	138.085	36	23
137.945	138.086	43	28
138.127	138.266	48	32
138.13	138.271	52	38
138.131	138.271	36	24
138.134	138.272	43	29
138.315	138.456	48	33
138.316	138.457	36	25
138.316	138.456	52	39
138.319	138.457	43	30
138.501	138.644	48	34
138.501	138.645	52	40
138.502	138.645	36	25
138.505	138.648	43	30
138.693	138.829	50	34
138.694	138.831	36	25
138.694	138.833	45	30
138.694	138.829	54	40
138.875	139.014	50	34
138.875	139.015	54	40
138.879	139.018	36	25
138.879	139.019	45	30
139.06	139.623	50	39
139.064	139.201	35	25
139.064	139.627	55	46
139.067	139.204	43	30
139.245	139.393	35	25
139.25	139.393	43	30
139.438	139.578	35	25
139.442	139.582	43	30
139.628	139.718	59	40
139.63	139.771	35	25
139.631	139.771	43	30
139.719	139.816	57	40
139.816	139.91	55	45
139.82	139.956	35	25
139.82	139.957	43	30
140.002	140.142	35	25
140.005	140.142	43	30
140.187	140.334	35	25
140.188	140.335	43	30
140.38	140.526	35	25
140.38	140.527	43	30
140.527	140.572	85	46
140.573	140.716	35	25
140.573	141.048	86	57
140.575	140.719	43	30
140.765	140.908	35	25
140.765	140.909	43	30
140.953	141.094	35	25
140.958	141.094	43	30
141.048	141.143	84	48
141.143	141.24	83	47
141.144	141.286	35	25
141.144	141.287	43	30
141.241	141.332	81	45
141.332	141.517	79	44
141.335	141.472	35	25
141.335	141.472	43	30
141.518	141.657	35	25
141.518	141.658	43	30
141.703	141.85	35	25
141.703	141.85	43	30
141.895	142.035	35	25
141.896	142.035	43	30
142.088	142.224	46	29
142.088	142.228	50	35
142.089	142.228	34	26
142.089	142.228	41	30
142.273	142.41	46	29
142.274	142.413	41	30
142.274	142.413	50	35
142.276	142.417	34	25
142.458	142.599	46	29
142.459	142.6	50	35
142.462	142.6	41	30
142.463	142.602	34	25
142.644	142.784	46	30
142.644	142.785	50	36
142.645	142.785	41	31
142.648	142.788	34	26
142.829	142.97	46	31
142.83	142.971	41	31
142.83	142.97	50	37
142.833	142.973	34	26
143.015	143.152	46	31
143.016	143.158	41	31
143.016	143.156	50	37
143.019	143.159	34	26
143.2	143.348	46	32
143.201	143.348	50	38
143.204	143.349	41	31
143.205	143.349	34	26
143.393	143.529	46	33
143.393	143.533	50	39
143.394	143.536	41	31
143.397	143.537	34	26
143.579	143.719	46	33
143.58	143.719	50	39
143.582	143.72	34	26
143.583	143.722	41	31
143.765	143.904	46	34
143.767	143.905	50	40
143.768	143.905	34	26
143.768	143.908	41	31
143.95	144.097	46	34
143.951	144.097	50	40
143.953	144.097	34	26
143.953	144.098	41	31
144.143	144.283	34	26
144.143	144.282	46	34
144.143	144.283	50	40
144.146	144.283	41	31
144.328	144.468	46	34
144.329	144.468	34	26
144.329	144.468	50	40
144.331	144.469	41	31
144.513	144.653	46	34
144.514	144.654	34	25
144.514	144.653	50	40
144.516	144.657	41	30
144.699	144.838	48	34
144.699	144.839	52	40
144.703	144.842	34	25
144.703	144.843	43	30
144.884	145.025	48	34
144.885	145.025	52	40
144.888	145.026	34	25
144.889	145.028	43	30
145.07	145.626	48	39
145.074	145.21	33	25
145.074	145.211	41	30
145.074	145.626	53	46
145.255	145.396	33	25
145.259	145.396	41	30
145.44	145.581	33	25
145.441	145.581	41	30
145.63	145.766	33	25
145.63	145.72	57	40
145.633	145.767	41	30
145.721	145.811	55	40
145.815	145.906	53	45
145.816	145.952	33	25
145.816	145.955	41	30
146.001	146.14	33	25
146.001	146.141	41	30
146.186	146.33	33	25
146.187	146.334	41	30
146.382	146.526	33	25
146.383	146.529	41	30
146.529	146.571	83	46
146.575	147.05	84	57
146.576	146.719	32	25
146.578	146.719	41	30
146.763	146.911	32	25
146.767	146.911	41	30
146.953	147.096	32	25
146.953	147.097	41	30
147.051	147.142	82	50
147.145	147.236	80	49
147.146	147.282	32	25
147.146	147.285	41	30
147.236	147.335	79	47
147.335	147.52	77	46
147.338	147.474	32	25
147.338	147.475	41	30
147.52	147.664	32	25
147.523	147.667	41	30
147.712	147.856	32	25
147.713	147.859	41	30
147.901	148.051	32	25
147.905	148.056	41	30
148.056	148.101	88	67
148.102	149.221	89	73
148.104	148.237	31	30
148.105	148.241	41	36
148.287	148.426	31	32
148.287	148.427	41	38
148.472	148.612	31	33
148.473	148.612	41	39
148.657	148.797	31	34
148.661	148.798	41	41
148.843	148.983	31	36
148.843	148.983	41	43
149.035	149.175	31	38
149.036	149.176	41	45
149.221	149.315	89	74
149.222	149.36	32	39
149.224	149.361	41	46
149.316	149.406	87	73
149.406	149.497	86	71
149.41	149.546	32	40
149.411	149.546	41	48
149.501	149.592	84	70
149.592	149.689	83	72
149.596	149.735	31	44
149.596	149.74	41	52
149.693	149.784	84	71
149.784	149.875	86	72
149.788	149.925	31	44
149.788	149.925	41	52
149.879	149.969	87	73
149.97	150.064	89	74
149.974	150.11	32	45
149.974	150.111	41	55
150.065	150.155	87	72
150.155	150.254	86	71
150.156	150.302	32	46
150.159	150.303	41	55
150.257	150.347	84	69
150.348	150.488	31	48
150.348	150.439	83	72
150.351	150.489	41	58
150.44	150.534	84	75
150.534	150.628	86	77
150.535	150.673	31	51
150.537	150.674	41	60
150.628	150.719	87	80
150.719	150.81	89	80
150.72	150.856	32	54
150.722	150.859	41	64
150.813	150.912	87	80
150.912	151.048	32	56
150.912	151.002	86	79
150.914	151.051	41	66
151.003	151.093	84	81
151.097	151.188	83	85
151.1	151.485	31	70
151.1	151.485	41	85
151.192	151.285	84	89
151.289	151.38	86	94
151.381	151.486	87	98
151.489	152.423	43	81
151.489	151.577	89	100
151.49	152.427	55	96
151.577	151.678	87	98
151.679	151.769	86	96
151.769	151.864	84	94
151.864	151.954	83	93
151.955	152.045	80	91
152.049	152.14	79	89
152.143	152.234	77	87
152.235	152.332	75	85
152.333	152.428	74	83
152.43	152.522	57	67
152.43	152.522	72	81
152.522	152.615	71	79
152.523	152.619	59	70
152.62	152.766	60	72
152.62	152.766	72	93
153.018	153.18	67	83
153.019	153.183	43	56
153.019	153.183	55	66
153.453	153.635	39	52
153.453	153.634	63	72
153.456	153.635	51	62
153.942	154.159	60	64
153.943	154.163	36	48
153.943	154.163	48	57
154.533	156.34	55	60
154.534	156.34	31	46
154.534	156.341	43	54
156.341	156.476	64	37
156.343	157.831	36	30
156.343	156.525	48	30
156.43	156.526	60	33
156.526	156.708	48	31
156.526	156.662	64	37
156.616	156.711	55	26
156.616	156.711	60	33
156.715	156.896	48	31
156.715	156.847	64	37
156.801	156.896	60	33
156.802	156.897	55	27
156.9	157.037	64	36
156.901	157.082	48	31
156.987	157.082	55	27
156.987	157.082	60	33
157.086	157.267	48	31
157.086	157.222	64	36
157.176	157.267	60	33
157.177	157.268	55	26
157.271	157.452	48	31
157.271	157.408	64	37
157.359	157.453	55	27
157.359	157.453	60	33
157.453	157.589	64	36
157.457	157.638	48	31
157.544	157.639	55	27
157.544	157.638	60	33
157.642	157.778	64	36
157.643	157.832	48	31
157.737	157.832	55	25
157.737	157.832	60	33
157.835	158.017	48	31
157.835	157.967	64	37
157.922	158.02	55	26
157.922	158.017	60	33
158.02	158.156	64	37
158.021	158.202	48	31
158.107	158.202	60	33
158.11	158.205	55	26
158.205	158.342	64	37
158.206	158.388	48	31
158.296	158.388	55	27
158.296	158.388	60	33
158.391	158.573	48	31
158.391	158.527	64	36
158.482	158.573	60	33
158.483	158.574	55	27
158.576	158.713	64	36
158.577	158.758	48	31
158.664	158.759	55	26
158.664	158.759	60	33
158.762	158.944	48	31
158.762	158.895	64	37
158.853	158.947	55	27
158.853	158.944	60	33
158.947	159.084	66	36
158.951	159.129	48	31
159.034	159.133	62	33
159.039	159.134	57	27
159.134	159.269	66	36
159.137	159.315	48	31
159.224	159.319	57	25
159.224	159.315	62	33
159.319	159.871	67	46
159.322	159.504	47	26
159.322	159.505	50	31
159.409	159.505	55	25
159.505	159.686	47	26
159.507	159.686	50	31
159.595	159.69	55	25
159.692	159.875	47	26
159.693	159.876	50	31
159.787	159.876	55	25
159.878	159.973	71	40
159.879	160.063	47	26
159.882	160.064	50	31
159.973	160.068	69	40
159.974	160.068	55	25
160.07	160.158	67	45
160.071	160.25	47	26
160.071	160.253	50	31
160.159	160.253	55	25
160.254	160.435	47	26
160.257	160.439	50	31
160.344	160.439	55	25
160.442	160.624	47	26
160.443	160.624	50	31
160.529	160.625	55	25
160.625	160.82	47	26
160.628	160.821	50	31
160.721	160.823	55	25
160.771	160.824	85	46
160.824	161.296	86	57
160.827	161.009	47	26
160.828	161.013	50	31
160.911	161.013	55	25
161.015	161.198	47	26
161.016	161.199	50	31
161.103	161.199	55	25
161.201	161.387	47	26
161.201	161.391	50	31
161.296	161.391	84	48
161.297	161.391	55	25
161.394	161.481	83	47
161.395	161.576	47	26
161.395	161.576	50	31
161.482	161.577	55	25
161.482	161.577	81	45
161.58	161.769	47	26
161.58	161.765	79	44
161.581	161.769	50	31
161.673	161.769	55	25
161.772	161.958	47	26
161.773	161.958	50	31
161.859	161.958	55	25
161.961	162.143	47	26
161.961	162.144	50	31
162.052	162.144	55	25
162.146	162.335	47	26
162.147	162.336	50	31
162.241	162.336	55	25
162.338	162.475	65	40
162.339	163.827	38	33
162.339	162.528	50	33
162.43	162.528	62	36
162.529	162.713	50	34
162.529	162.664	65	40
162.619	162.714	57	28
162.619	162.714	62	36
162.714	162.85	65	40
162.717	162.896	50	34
162.804	162.899	57	29
162.804	162.896	62	36
162.903	163.077	50	34
162.903	163.035	65	39
162.982	163.078	62	36
162.987	163.081	57	29
163.082	163.263	50	34
163.082	163.218	65	39
163.176	163.267	57	28
163.176	163.263	62	36
163.267	163.452	50	34
163.267	163.403	65	41
163.357	163.452	62	36
163.358	163.453	57	29
163.453	163.596	65	40
163.455	163.64	50	34
163.54	163.641	57	30
163.54	163.641	62	37
163.644	163.781	65	40
163.645	163.827	50	35
163.735	163.83	57	28
163.735	163.827	62	37
163.83	163.966	65	41
163.834	164.012	50	35
163.918	164.015	57	29
163.918	164.012	62	37
164.016	164.201	50	35
164.016	164.156	65	41
164.103	164.205	62	37
164.106	164.208	57	29
164.208	164.341	65	42
164.209	164.383	50	35
164.295	164.386	62	37
164.296	164.387	57	30
164.387	164.53	65	41
164.39	164.568	50	35
164.481	164.569	62	38
164.485	164.572	57	30
164.572	164.715	65	41
164.576	164.761	50	36
164.67	164.764	62	38
164.671	164.764	57	29
164.765	164.946	50	36
164.765	164.9	65	42
164.856	164.947	57	31
164.856	164.947	62	38
164.949	165.093	68	41
164.95	165.139	50	36
165.041	165.14	59	31
165.041	165.139	64	38
165.143	165.324	50	36
165.143	165.279	68	42
165.229	165.325	64	38
165.23	165.325	59	29
165.328	165.887	69	55
165.329	165.51	48	30
165.329	165.51	52	37
165.415	165.514	57	29
165.514	165.702	48	30
165.515	165.703	52	37
165.601	165.703	57	29
165.706	165.888	48	30
165.707	165.891	52	37
165.794	165.892	57	29
165.892	165.979	72	48
165.893	166.073	48	30
165.894	166.073	52	37
165.983	166.077	57	29
165.983	166.074	71	48
166.077	166.168	69	53
166.078	166.259	48	30
166.078	166.26	52	37
166.168	166.26	57	29
166.262	166.445	48	30
166.263	166.445	52	37
166.353	166.445	57	29
166.448	166.637	48	30
166.448	166.638	52	37
166.542	166.638	57	29
166.639	166.826	48	30
166.641	166.826	52	37
166.735	166.83	57	29
166.781	166.83	87	55
166.833	167.022	48	30
166.833	167.305	88	68
166.834	167.023	52	37
166.927	167.023	57	29
167.023	167.21	48	30
167.025	167.211	52	37
167.113	167.211	57	29
167.214	167.397	48	30
167.215	167.397	52	37
167.306	167.4	57	29
167.306	167.398	86	59
167.4	167.494	84	58
167.404	167.589	48	30
167.404	167.59	52	39
167.495	167.59	83	57
167.497	167.592	57	31
167.593	167.778	48	32
167.593	167.778	81	57
167.596	167.782	52	39
167.68	167.782	57	31
167.785	167.974	48	32
167.785	167.975	52	41
167.872	167.975	57	31
167.975	168.155	48	33
167.977	168.156	52	41
168.065	168.159	57	33
168.16	168.356	48	35
168.163	168.356	52	42
168.257	168.357	57	33
168.303	168.359	87	66
168.359	168.835	88	85
168.36	168.548	48	37
168.36	168.549	52	45
168.453	168.549	58	36
168.549	168.737	48	38
168.551	168.737	52	45
168.646	168.741	58	37
168.741	168.933	48	39
168.742	168.936	52	47
168.838	168.937	86	76
168.839	168.94	58	38
168.94	169.028	84	75
168.941	169.126	48	39
168.941	169.129	52	47
169.031	169.129	58	38
169.031	169.129	83	71
169.133	169.319	48	41
169.133	169.318	82	71
169.134	169.322	52	50
169.22	169.322	58	40
169.323	169.507	48	41
169.325	169.511	52	51
169.413	169.514	58	40
169.515	169.703	48	42
169.515	169.703	52	51
169.601	169.704	58	42
169.704	169.906	48	43
169.707	169.907	52	53
169.8	169.907	58	42
169.909	170.396	83	56
169.91	170.015	47	40
169.997	170.113	51	35
170.095	170.207	54	35
170.189	170.287	59	35
170.287	170.396	47	41
170.382	170.491	51	35
170.382	170.49	81	54
170.473	170.585	79	53
170.474	170.586	54	35
170.571	170.683	78	51
170.574	170.666	59	35
170.666	170.773	79	53
170.667	170.774	47	39
170.757	170.869	52	35
170.757	170.868	78	52
170.851	170.96	76	51
170.852	170.96	55	35
170.946	171.037	59	35
170.946	171.054	75	50
171.037	171.145	76	50
171.038	171.148	47	40
171.127	171.239	79	52
171.128	171.24	52	35
171.229	171.338	78	50
171.23	171.338	55	35
171.32	171.415	59	35
171.32	171.432	76	50
171.415	171.526	47	40
171.415	171.523	75	50
171.505	171.618	73	49
171.509	171.618	54	35
171.6	171.709	57	35
171.6	171.709	71	48
171.691	171.803	70	47
171.695	171.789	59	35
171.792	171.897	71	49
171.793	171.898	47	40
171.883	171.996	73	49
171.884	171.996	54	35
171.975	172.086	74	49
171.978	172.087	57	35
172.068	172.181	75	50
172.069	172.163	59	35
172.164	172.272	47	40
172.164	172.272	76	50
172.262	172.37	52	35
172.262	172.37	75	50
172.353	172.464	76	51
172.356	172.465	55	35
172.447	172.555	78	51
172.448	172.545	59	35
172.548	172.657	79	49
172.549	172.657	47	40
172.64	172.749	52	35
172.64	172.748	80	50
172.73	172.849	81	52
172.731	172.85	55	35
172.832	172.941	82	53
172.833	172.927	59	35
172.93	173.038	83	55
172.931	173.039	47	40
173.02	173.133	82	53
173.021	173.134	51	35
173.119	173.231	83	53
173.122	173.231	54	35
173.214	173.308	59	35
173.214	173.322	82	50
173.308	173.416	83	52
173.309	173.417	47	40
173.402	173.514	81	52
173.407	173.515	51	35
173.497	173.609	79	51
173.5	173.609	54	35
173.592	173.683	59	35
173.592	173.7	78	50
173.683	173.794	79	52
173.686	173.795	47	40
173.777	173.886	78	51
173.778	173.887	52	35
173.872	173.98	55	35
173.872	173.98	76	49
173.963	174.053	59	35
173.963	174.071	75	50
174.054	174.165	76	50
174.057	174.166	47	41
174.148	174.257	79	53
174.149	174.26	52	35
174.246	174.352	55	35
174.246	174.351	78	50
174.336	174.445	76	50
174.341	174.431	59	35
174.431	174.544	75	50
174.435	174.544	47	40
174.526	174.634	73	49
174.527	174.638	54	35
174.617	174.729	71	48
174.621	174.73	57	35
174.711	174.82	70	47
174.712	174.802	59	35
174.806	174.915	71	49
174.807	174.915	47	40
174.897	175.006	54	36
174.897	175.005	73	50
174.988	175.1	74	50
174.989	175.101	57	36
175.089	175.191	75	52
175.09	175.181	59	36
175.181	175.286	76	52
175.184	175.286	47	42
175.274	175.383	75	52
175.275	175.384	52	36
175.366	175.478	76	54
175.367	175.479	55	37
175.46	175.569	78	54
175.461	175.552	59	37
175.552	175.663	79	56
175.555	175.664	47	42
175.642	175.754	80	58
175.647	175.758	52	37
175.737	175.853	81	60
175.74	175.856	55	37
175.839	175.937	59	38
175.839	175.951	82	62
175.937	176.319	83	68
175.938	176.319	47	44
176.031	176.319	78	60
176.032	176.319	51	38
176.123	176.319	75	61
176.126	176.319	53	38
176.217	176.319	71	61
176.218	176.319	59	38
176.315	176.69	70	75
176.319	176.69	58	50
176.409	176.69	71	63
176.41	176.69	59	41
176.501	176.69	76	63
176.504	176.69	55	40
176.595	176.69	52	41
176.595	176.69	79	63
176.686	177.061	83	74
176.689	177.061	47	52
176.781	177.061	51	44
176.781	177.061	78	65
176.872	177.061	75	68
176.875	177.061	54	45
176.965	177.061	71	68
176.966	177.061	59	45
177.057	177.438	70	80
177.06	177.438	58	60
177.152	177.438	59	51
177.152	177.438	71	71
177.249	177.438	76	71
177.25	177.438	55	51
177.341	177.438	79	72
177.344	177.438	52	52
177.436	177.809	83	91
177.438	177.809	47	63
177.529	177.81	51	52
177.529	177.81	78	82
177.623	177.81	75	82
177.624	177.81	54	52
177.714	177.81	71	82
177.715	177.81	59	52
177.809	178.187	47	63
177.809	178.184	83	91
177.9	178.187	79	82
177.901	178.187	52	52
177.994	178.187	76	82
177.995	178.187	55	52
178.087	178.187	59	52
178.087	178.187	71	82
178.184	178.555	83	91
178.187	178.559	47	63
178.278	178.559	78	82
178.279	178.559	51	52
178.37	178.559	75	81
178.372	178.559	54	52
178.465	178.559	59	52
178.465	178.559	71	81
178.555	178.929	83	91
178.559	178.93	47	63
178.649	178.933	79	81
178.65	178.933	52	52
178.741	178.933	76	81
178.744	178.933	55	52
178.835	178.932	59	52
178.835	178.933	71	82
178.929	180.438	83	91
178.93	180.438	47	54
178.93	180.438	51	54
178.931	180.438	54	54
178.932	180.336	59	63
179.024	179.308	78	82
179.118	179.398	75	82
179.213	179.489	71	82
179.308	180.438	78	91
179.398	179.682	75	82
179.489	179.773	71	82
179.588	179.868	66	82
179.682	180.438	75	91
179.773	180.06	71	82
179.868	180.151	66	81
179.959	180.242	63	81
180.06	180.438	71	91
180.151	180.434	66	81
180.242	180.438	63	81
180.336	180.438	59	82
180.434	181.958	66	91
180.528	180.809	63	81
180.62	180.906	59	80
180.714	180.999	54	80
180.809	181.958	63	89
180.906	181.186	59	79
180.999	181.284	54	79
181.092	181.376	51	78
181.186	181.958	59	87
181.284	181.958	54	78
181.376	181.958	51	77
181.474	181.858	47	77
181.568	181.957	35	85
181.663	181.958	39	76
181.761	181.958	42	76
181.858	181.958	47	75
181.957	182.048	35	77
182.142	182.24	47	68
182.331	182.425	37	73
182.516	182.618	49	66
182.709	182.803	71	75
182.713	182.804	39	71
182.894	182.993	59	69
182.898	182.996	51	65
183.088	183.185	73	74
183.28	183.378	61	65
183.479	183.574	75	71
183.48	183.575	39	69
183.668	183.77	51	61
183.668	183.767	63	64
183.86	183.952	40	65
184.053	184.144	52	59
184.242	184.337	75	67
184.243	184.337	42	65
184.434	184.525	63	53
184.435	184.526	54	54
184.627	184.725	76	59
184.823	184.914	64	50
185.012	185.113	78	52
185.212	185.306	66	49
185.404	185.502	80	52
185.604	185.699	68	49
185.796	185.891	81	52
185.8	185.894	42	41
185.989	186.09	69	48
185.992	186.091	54	36
186.188	186.286	81	52
186.189	186.286	44	41
186.38	186.478	71	46
186.381	186.479	56	36
186.577	186.679	45	40
186.577	186.674	81	51
186.772	186.871	73	46
186.776	186.874	57	37
186.973	187.078	47	39
186.973	187.077	81	51
187.168	187.273	75	46
187.169	187.273	59	36
187.371	187.469	81	51
187.372	187.47	49	38
187.571	187.676	61	37
187.571	187.672	76	47
187.777	187.882	81	50
187.778	187.882	51	40
187.997	188.12	78	46
187.998	188.121	63	37
188.253	189.153	71	42
188.253	189.156	76	42
188.257	189.157	68	39
188.257	189.156	80	55
188.26	189.16	64	33
189.16	189.591	69	40
189.161	189.591	75	40
189.163	189.594	66	35
189.163	189.592	78	52
189.164	189.594	59	29
189.164	189.594	63	29
189.595	190.048	68	40
189.598	190.052	64	35
189.598	190.049	73	40
189.598	190.049	76	52
189.601	190.052	61	29
190.053	190.93	66	42
190.053	190.931	72	42
190.056	190.931	75	55
190.057	190.935	60	33
190.057	190.934	63	39
190.059	190.935	56	33
190.936	191.83	64	40
190.938	191.834	57	28
190.938	191.831	61	34
190.938	191.83	73	52
191.834	192.73	69	49
191.834	192.733	71	49
191.838	192.733	54	37
191.838	192.734	57	45
191.838	192.733	75	63
191.841	192.737	59	37
191.841	192.737	63	45
192.738	193.195	71	50
192.74	193.196	56	40
192.74	193.196	76	66
192.741	193.198	59	40
192.741	193.199	64	49
193.199	193.706	73	49
193.2	193.706	76	55
193.202	193.707	78	72
193.203	193.71	57	42
193.203	193.711	61	43
193.203	193.71	66	55
193.713	195.12	71	59
193.713	194.641	76	59
193.714	195.586	59	49
193.714	194.641	80	77
193.717	194.642	64	49
193.717	194.644	68	59
194.644	195.587	75	32
194.645	195.589	63	27
194.645	195.587	78	49
194.648	195.59	66	32
195.124	195.59	69	48
195.593	196.467	59	37
195.594	196.468	64	37
195.594	196.468	68	45
195.596	196.472	52	29
195.596	196.471	56	35
196.472	196.898	57	36
196.475	196.899	63	36
196.475	196.899	66	43
196.476	196.902	54	31
196.478	196.902	51	26
196.479	196.903	47	26
196.903	197.357	56	36
196.905	197.357	61	36
196.906	197.361	52	31
196.906	197.361	64	43
196.909	197.361	49	26
197.362	198.239	54	37
197.364	198.239	60	37
197.364	198.242	63	45
197.365	198.243	48	29
197.365	198.243	51	35
197.368	198.246	44	29
198.246	199.138	57	36
198.247	199.142	52	36
198.247	199.143	61	43
198.249	199.143	45	25
198.249	199.143	49	30
199.145	199.586	52	44
199.146	199.586	56	44
199.146	200.03	59	52
199.149	200.927	35	33
199.15	200.927	47	40
199.587	200.931	54	49
199.59	200.931	57	49
200.031	200.468	61	61
200.469	200.931	63	68
200.932	201.077	56	42
200.934	201.374	40	42
200.934	201.375	52	45
200.934	201.038	64	49
201.078	201.186	66	48
201.221	201.336	68	49
201.375	201.483	69	46
201.525	201.633	71	47
201.668	201.781	73	48
201.823	201.928	74	50
201.966	202.075	75	51
202.11	202.222	76	52
202.26	202.372	77	53
202.407	202.516	78	51
202.558	202.666	79	52
202.705	203.573	71	46
202.706	203.577	64	36
202.706	203.573	68	43
202.706	202.849	80	56
202.852	202.991	79	53
202.996	203.139	80	53
203.139	203.282	81	53
203.285	203.429	79	53
203.429	203.577	80	53
203.577	203.996	69	60
203.58	204.001	63	32
203.58	204.0	66	39
203.581	204.001	59	32
203.713	203.853	80	54
203.853	204.003	78	54
204.004	204.448	64	39
204.004	204.444	68	60
204.007	204.448	61	32
204.144	204.293	78	53
204.294	204.449	76	53
204.449	205.316	66	60
204.451	205.317	60	36
204.451	205.317	63	43
204.452	205.317	56	36
204.587	204.735	72	54
204.735	204.878	75	54
204.881	205.025	76	54
205.026	205.169	72	54
205.169	205.319	75	54
205.32	206.211	61	38
205.32	206.208	64	60
205.323	206.212	57	31
205.463	205.606	69	54
205.607	205.75	73	54
205.753	205.907	75	54
205.908	206.058	69	54
206.061	206.212	73	54
206.215	207.087	69	62
206.216	207.087	54	39
206.216	207.088	57	47
206.218	207.091	59	39
206.219	207.091	63	47
206.352	206.498	74	62
206.499	206.649	75	57
206.649	206.797	76	57
206.797	206.94	74	59
206.943	207.091	75	59
207.092	207.513	71	71
207.094	207.517	56	45
207.094	207.518	59	45
207.094	207.52	64	53
207.23	207.374	78	63
207.377	207.521	76	64
207.521	207.972	73	74
207.522	207.976	66	59
207.524	207.976	57	49
207.525	207.977	61	49
207.664	207.818	80	65
207.819	207.979	78	65
207.979	208.119	80	79
207.983	209.737	59	53
207.983	208.844	76	79
207.984	208.845	64	53
207.984	208.847	68	65
208.12	208.263	79	72
208.264	208.41	80	72
208.41	208.553	83	68
208.554	208.701	81	72
208.701	208.848	80	69
208.848	208.991	75	67
208.851	209.285	63	45
208.851	208.991	78	67
208.852	209.285	66	53
208.992	209.134	73	64
208.994	209.135	76	64
209.137	209.288	75	60
209.138	209.288	71	60
209.289	209.435	69	60
209.292	209.438	47	44
209.292	209.436	73	60
209.439	209.586	68	56
209.442	209.589	71	56
209.443	209.589	49	43
209.593	209.743	66	53
209.593	209.744	69	53
209.594	209.746	51	41
209.747	210.622	59	57
209.751	210.623	52	37
209.751	210.622	56	45
209.751	209.89	68	57
209.891	210.034	67	49
210.038	210.181	68	49
210.182	210.332	69	49
210.332	210.475	67	49
210.476	210.626	68	49
210.626	211.053	57	56
210.627	211.053	54	41
210.629	211.054	47	33
210.629	211.054	51	33
210.765	210.912	68	50
210.912	211.056	66	50
211.056	211.505	52	41
211.056	211.504	56	56
211.057	211.505	49	33
211.203	211.354	66	49
211.354	211.507	64	49
211.508	212.371	51	37
211.508	212.376	54	49
211.511	212.376	44	37
211.511	212.376	48	37
211.644	211.794	60	50
211.795	211.935	63	50
211.935	212.081	64	53
212.086	212.228	60	50
212.228	212.379	63	50
212.379	213.265	45	39
212.383	213.265	49	39
212.383	213.266	52	32
212.512	212.665	57	50
212.666	212.809	61	50
212.81	212.96	63	53
212.964	213.11	57	50
213.111	213.266	61	50
213.268	215.082	35	46
213.268	215.082	47	55
213.268	213.719	52	60
213.411	213.719	56	56
213.559	213.719	59	57
213.712	214.168	54	66
213.859	214.174	57	61
214.007	214.174	59	61
214.168	214.623	54	74
214.317	214.632	57	67
214.465	214.632	61	65
214.623	215.082	54	80
214.769	215.082	57	71
214.924	215.082	63	70
215.077	215.365	56	77
215.078	215.655	64	82
215.081	215.953	40	50
215.081	215.953	52	60
215.228	215.513	59	75
215.365	215.953	56	77
215.513	216.383	47	74
215.513	215.953	59	82
215.655	215.953	64	77
215.798	215.953	68	77
215.953	216.527	66	82
216.09	216.38	63	77
216.236	216.821	59	77
216.38	216.821	63	82
216.383	217.248	47	74
216.527	216.821	66	77
216.664	216.821	69	77
216.817	217.384	68	82
216.961	217.248	64	75
217.101	217.682	59	77
217.248	218.112	47	74
217.248	217.682	64	82
217.384	217.682	68	77
217.531	217.682	71	77
217.681	218.249	69	82
217.822	218.395	66	77
217.961	218.544	63	77
218.112	218.544	47	73
218.112	218.544	75	82
218.249	218.544	69	77
218.395	218.544	66	77
218.539	219.393	68	63
218.543	219.099	52	73
218.543	219.393	76	75
218.679	218.963	47	67
218.819	219.393	44	69
218.962	219.813	71	80
218.963	219.393	47	73
219.099	219.393	52	69
219.243	219.393	56	69
219.39	219.957	54	73
219.534	219.813	51	69
219.673	220.25	47	69
219.813	220.25	51	73
219.813	220.672	71	80
219.957	220.25	54	69
220.097	220.25	57	69
220.247	220.811	56	73
220.387	220.674	52	67
220.531	221.111	47	69
220.672	221.536	71	80
220.674	221.111	52	73
220.811	221.111	56	69
220.954	221.111	59	69
221.101	221.675	57	73
221.245	221.815	54	69
221.385	221.969	51	69
221.536	221.969	71	80
221.538	221.969	63	73
221.675	221.969	57	69
221.815	221.969	54	69
221.966	222.53	76	82
221.969	222.532	56	64
222.106	222.392	59	56
222.106	222.389	71	75
222.245	222.823	68	77
222.246	222.823	64	56
222.389	222.823	71	82
222.392	222.823	59	64
222.53	222.823	76	77
222.532	222.823	56	57
222.669	222.823	80	77
222.673	222.823	52	57
222.819	223.383	78	82
222.82	223.384	51	64
222.96	223.239	54	56
222.96	223.239	75	77
223.099	223.67	71	77
223.1	223.67	57	56
223.239	223.67	54	64
223.239	223.67	75	82
223.383	223.67	78	77
223.384	223.67	51	57
223.523	223.67	81	77
223.524	223.67	47	58
223.667	224.224	80	82
223.67	224.227	52	64
223.807	224.087	56	56
223.807	224.084	76	75
223.943	224.524	71	77
223.947	224.524	59	56
224.084	224.524	76	82
224.087	224.524	56	64
224.224	224.524	80	77
224.227	224.524	52	57
224.37	224.524	47	57
224.37	224.524	83	77
224.518	225.095	81	82
224.52	225.375	51	64
224.658	225.236	78	77
224.661	224.958	57	56
224.798	225.375	75	77
224.804	225.098	59	56
224.955	225.375	87	82
224.958	225.375	57	64
225.095	225.375	81	77
225.098	225.375	59	57
225.236	225.375	66	58
225.236	225.375	78	77
225.372	226.225	88	86
225.374	225.931	56	64
225.512	226.072	59	55
225.512	225.792	83	74
225.651	225.931	80	74
225.654	226.225	64	55
225.792	226.225	52	62
225.792	226.225	83	82
225.931	226.225	56	55
225.931	226.225	80	73
226.072	226.225	59	54
226.072	226.225	76	72
226.222	227.073	54	59
226.222	227.073	81	79
226.355	226.635	57	51
226.355	226.91	78	71
226.495	226.772	59	51
226.495	227.073	75	70
226.634	227.073	87	76
226.635	227.073	57	57
226.772	227.073	59	51
226.772	227.073	83	69
226.91	227.073	78	67
226.914	227.073	66	51
227.068	227.911	88	75
227.071	227.621	56	56
227.204	227.485	83	65
227.208	227.761	59	48
227.34	227.617	80	65
227.344	227.911	64	48
227.485	227.911	83	72
227.488	227.911	52	54
227.617	227.911	80	64
227.621	227.911	56	48
227.76	227.911	76	63
227.761	227.911	59	47
227.909	228.754	81	69
227.911	228.754	54	51
228.044	228.6	78	62
228.045	228.324	57	44
228.181	228.754	75	60
228.184	228.461	59	44
228.321	228.754	87	69
228.324	228.754	57	50
228.457	228.754	83	59
228.461	228.754	59	44
228.6	228.754	78	58
228.601	228.754	66	44
228.752	228.856	56	50
228.752	228.853	88	64
228.856	228.957	83	58
228.857	228.958	59	43
228.958	229.062	80	58
228.962	229.066	52	43
229.066	229.161	76	59
229.067	229.164	59	44
229.164	229.265	81	65
229.165	229.266	54	51
229.266	229.363	78	59
229.27	229.364	59	44
229.364	229.469	87	62
229.367	229.469	57	44
229.472	229.569	59	44
229.472	229.567	83	63
229.57	229.672	56	52
229.57	229.671	88	69
229.672	229.77	83	63
229.676	229.77	59	46
229.773	229.878	52	47
229.773	229.875	80	63
229.878	229.976	59	49
229.878	229.972	76	64
229.977	230.081	54	55
229.977	230.081	81	71
230.082	230.179	59	48
230.082	230.178	78	66
230.179	230.28	87	67
230.18	230.284	57	48
230.285	230.387	59	49
230.285	230.386	83	67
230.387	230.491	88	74
230.389	230.491	56	58
230.494	230.593	59	50
230.494	230.592	83	67
230.593	230.686	87	69
230.594	230.69	57	51
230.691	230.785	83	69
230.693	230.788	59	52
230.788	230.893	88	77
230.792	230.894	56	60
230.894	230.991	83	77
230.895	230.992	59	52
230.992	231.089	87	72
230.994	231.089	57	52
231.093	231.187	59	54
231.093	231.187	83	73
231.191	231.286	56	62
231.191	231.285	88	80
231.288	231.383	83	73
231.289	231.387	59	55
231.388	231.485	87	74
231.39	231.485	57	55
231.485	231.582	83	74
231.486	231.583	59	57
231.583	231.681	88	82
231.586	231.684	56	65
231.684	231.779	83	85
231.685	231.782	59	57
231.782	231.876	87	78
231.783	231.88	57	57
231.881	231.989	59	58
231.881	231.988	83	79
231.992	232.087	88	89
231.993	232.087	56	70
232.09	232.188	59	60
232.09	232.184	83	81
232.189	232.287	44	60
232.189	232.286	86	81
232.287	232.381	83	81
232.289	232.384	52	62
232.384	232.577	86	89
232.388	232.578	44	70
232.482	232.676	83	83
232.485	232.676	52	60
232.577	232.773	86	82
232.578	232.775	44	60
232.676	232.875	52	60
232.676	232.875	83	82
232.773	232.972	86	89
232.775	232.973	44	70
232.875	233.071	52	60
232.875	233.07	83	81
232.972	233.169	86	81
232.973	233.171	44	60
233.07	233.262	83	81
233.071	233.263	52	62
233.169	233.361	86	89
233.171	233.364	44	70
233.262	233.459	83	83
233.263	233.46	52	60
233.361	233.557	86	82
233.364	233.56	44	60
233.459	233.567	83	82
233.46	233.567	52	60
233.557	234.32	86	89
233.56	233.75	44	70
233.658	233.85	52	60
233.749	234.32	85	81
233.75	233.942	44	60
233.848	234.32	83	81
233.85	234.036	52	62
233.942	234.135	44	70
233.942	234.32	81	86
234.034	234.32	80	82
234.036	234.227	52	60
234.134	234.32	78	83
234.135	234.32	44	60
234.226	234.32	76	83
234.227	234.32	52	61
234.317	235.086	74	86
234.32	234.512	44	71
234.418	235.086	73	82
234.419	234.61	52	61
234.509	235.086	71	83
234.512	234.705	44	61
234.61	234.795	52	63
234.61	235.086	69	83
234.702	235.086	68	88
234.705	234.894	44	72
234.793	235.086	66	85
234.795	234.988	52	62
234.894	235.086	44	62
234.894	235.086	64	85
234.986	235.086	62	85
234.988	235.083	52	62
235.079	235.17	61	93
235.08	235.215	45	67
235.082	235.216	49	67
235.083	235.216	52	80
235.171	235.265	63	83
235.265	235.356	64	83
235.266	235.4	45	60
235.266	235.401	49	60
235.268	235.404	52	73
235.356	235.446	63	84
235.447	235.541	64	92
235.542	235.632	68	84
235.636	235.73	69	84
235.637	235.786	45	60
235.639	235.787	49	60
235.639	235.787	52	73
235.734	235.831	68	84
235.832	235.972	45	67
235.832	235.923	69	93
235.835	235.972	49	67
235.836	235.973	52	80
235.926	236.021	72	84
236.021	236.115	73	84
236.024	236.16	45	60
236.028	236.161	49	60
236.028	236.164	52	73
236.116	236.209	72	84
236.209	236.301	73	93
236.301	236.391	75	84
236.396	236.493	76	84
236.399	236.539	45	60
236.399	236.539	49	60
236.399	236.542	52	73
236.494	236.591	75	84
236.591	236.679	76	95
236.595	236.724	45	67
236.595	236.728	49	67
236.596	236.728	52	78
236.679	236.776	80	85
236.777	236.868	81	85
236.78	236.917	45	60
236.781	236.917	49	60
236.783	236.92	52	73
236.871	236.962	80	85
236.966	237.057	81	95
237.057	237.147	84	85
237.151	237.249	85	85
237.152	237.295	45	60
237.152	237.295	49	60
237.154	237.296	52	73
237.249	237.34	84	86
237.34	237.438	85	95
237.344	237.483	45	67
237.344	237.487	49	67
237.344	237.488	52	78
237.441	237.533	87	86
237.533	237.624	88	86
237.536	237.672	45	60
237.536	237.673	49	60
237.537	237.673	52	73
237.627	237.718	87	86
237.719	237.812	88	95
237.813	237.904	87	86
237.904	238.008	85	86
237.905	238.057	45	60
237.907	238.062	49	60
237.907	238.064	52	73
238.009	238.106	84	86
238.107	238.198	85	95
238.11	238.247	52	67
238.111	238.247	46	67
238.111	238.248	49	67
238.113	238.25	54	78
238.201	238.292	84	86
238.292	238.39	85	86
238.296	238.439	46	60
238.296	238.44	49	60
238.296	238.435	52	60
238.297	238.442	54	73
238.393	238.484	87	86
238.484	238.576	88	95
238.579	238.67	87	86
238.671	238.768	85	86
238.672	238.814	52	60
238.673	238.817	46	60
238.674	238.818	49	60
238.674	238.818	54	73
238.771	238.863	84	86
238.863	238.96	85	95
238.864	239.006	52	67
238.866	239.007	46	67
238.866	239.009	49	67
238.867	239.01	54	78
238.961	239.051	84	86
239.055	239.146	85	86
239.056	239.192	52	60
239.058	239.195	46	60
239.059	239.196	49	60
239.059	239.196	54	73
239.147	239.241	87	86
239.241	239.331	88	95
239.332	239.426	87	86
239.427	239.57	52	60
239.427	239.524	85	86
239.428	239.57	46	60
239.429	239.571	49	60
239.43	239.573	54	73
239.524	239.615	84	86
239.616	239.716	85	95
239.619	239.763	46	67
239.619	239.762	52	67
239.623	239.763	49	67
239.623	239.765	54	78
239.717	239.808	84	86
239.808	239.902	85	86
239.809	239.947	52	60
239.811	239.948	46	60
239.811	239.948	49	60
239.812	239.951	54	73
239.902	239.993	87	86
239.994	240.084	88	95
240.087	240.179	87	86
240.179	240.276	85	86
240.182	240.322	52	60
240.183	240.325	46	60
240.186	240.326	49	60
240.186	240.33	54	73
240.277	240.378	84	86
240.379	240.515	52	67
240.379	240.469	85	95
240.38	240.515	46	67
240.381	240.518	49	67
240.382	240.518	54	78
240.469	240.564	84	86
240.564	240.654	85	86
240.565	240.7	52	60
240.567	240.703	46	60
240.567	240.704	49	60
240.567	240.704	54	73
240.655	240.745	87	86
240.749	240.84	88	95
240.844	240.934	87	86
240.935	241.032	88	86
240.936	241.078	52	60
240.938	241.082	46	60
240.939	241.082	49	60
240.939	241.083	54	73
241.033	241.124	85	86
241.127	241.222	71	87
241.128	241.225	83	103
241.131	241.225	47	78
241.229	241.316	52	70
241.319	241.411	71	73
241.32	241.412	56	70
241.32	241.411	83	87
241.414	241.502	59	70
241.505	241.597	68	74
241.506	241.598	47	77
241.506	241.597	80	88
241.599	241.687	52	70
241.688	241.789	64	73
241.69	241.789	76	87
241.691	241.79	56	70
241.792	241.88	59	70
241.88	241.974	76	87
241.884	241.975	47	75
241.884	241.975	88	103
241.976	242.065	52	70
242.066	242.16	76	73
242.069	242.161	56	70
242.069	242.16	88	87
242.163	242.25	59	70
242.251	242.345	71	73
242.255	242.346	47	75
242.255	242.346	83	87
242.348	242.443	52	70
242.443	242.534	68	73
242.447	242.538	56	70
242.447	242.538	80	87
242.538	242.635	59	70
242.636	242.727	71	87
242.636	242.728	83	103
242.639	242.73	47	78
242.731	242.821	52	70
242.821	242.912	71	73
242.825	242.916	56	70
242.825	242.915	83	87
242.916	243.006	59	70
243.007	243.098	68	74
243.01	243.101	80	88
243.011	243.102	47	77
243.105	243.196	52	70
243.2	243.29	64	73
243.203	243.294	56	70
243.203	243.293	76	87
243.294	243.385	59	70
243.385	243.476	76	87
243.386	243.479	88	103
243.388	243.479	56	75
243.571	243.665	56	70
243.571	243.661	76	73
243.571	243.662	88	87
243.756	243.854	71	73
243.756	243.854	83	87
243.757	243.854	52	75
243.948	244.039	68	73
243.949	244.04	47	70
243.949	244.039	80	87
244.141	244.231	59	82
244.232	244.323	80	47
244.324	244.509	83	50
244.326	244.417	56	47
244.417	244.511	80	47
244.512	244.602	64	53
244.512	244.694	83	51
244.603	244.697	80	47
244.698	244.886	83	50
244.701	244.788	59	48
244.792	244.889	80	47
244.89	244.981	68	52
244.89	245.068	83	51
244.982	245.068	80	47
245.069	245.253	83	50
245.072	245.162	64	41
245.163	245.254	80	47
245.254	245.439	83	52
245.257	245.345	71	50
245.345	245.439	80	47
245.44	245.625	83	51
245.443	245.53	68	41
245.533	245.626	80	47
245.628	245.811	83	50
245.629	245.716	76	50
245.719	245.813	80	47
245.814	245.904	71	41
245.814	245.996	83	50
245.905	245.996	80	47
245.997	246.181	83	51
245.999	246.09	76	50
246.09	246.182	80	47
246.182	246.367	83	50
246.185	246.279	71	39
246.28	246.367	80	47
246.37	246.468	76	50
246.37	246.559	83	51
246.469	246.56	80	47
246.56	246.744	83	50
246.562	246.65	71	41
246.654	246.745	80	47
246.748	246.937	83	52
246.749	246.835	76	50
246.839	246.938	80	47
246.938	247.122	83	51
246.941	247.028	71	42
247.028	247.123	80	47
247.126	247.213	75	46
247.217	247.312	81	42
247.315	247.407	71	37
247.315	247.5	83	45
247.41	247.501	81	41
247.501	247.686	84	44
247.504	247.592	75	43
247.592	247.686	81	40
247.687	247.871	83	42
247.69	247.78	71	36
247.781	247.872	81	39
247.872	248.058	84	42
247.875	247.963	75	41
247.963	248.058	81	38
248.058	248.243	83	40
248.061	248.148	71	32
248.149	248.244	81	37
248.246	248.334	75	39
248.246	248.428	84	40
248.337	248.429	81	36
248.432	248.519	71	31
248.432	248.614	83	39
248.522	248.614	81	35
248.617	248.708	75	36
248.617	248.799	84	37
248.709	248.8	81	34
248.8	248.978	83	36
248.802	248.887	71	30
248.888	248.981	81	34
248.981	249.163	84	37
248.982	249.072	75	36
249.073	249.167	81	34
249.167	249.352	83	36
249.17	249.258	71	31
249.261	249.353	81	34
249.353	249.538	84	37
249.356	249.443	75	36
249.444	249.538	81	34
249.539	249.723	83	36
249.541	249.629	71	29
249.629	249.724	81	34
249.727	249.814	75	36
249.727	249.916	84	38
249.817	249.916	81	34
249.919	250.007	71	30
249.919	250.097	83	37
250.007	250.101	81	34
250.102	250.283	85	37
250.105	250.164	75	37
250.165	250.22	76	32
250.192	250.287	81	34
250.22	250.287	75	36
250.29	250.349	76	31
250.29	250.476	83	36
250.35	250.412	75	36
250.377	250.479	81	35
250.413	250.48	76	33
250.48	250.665	85	38
250.483	250.542	75	37
250.542	250.598	76	33
250.57	250.665	81	36
250.598	250.665	75	37
250.668	250.85	83	38
250.669	250.727	76	33
250.728	250.79	75	38
250.755	250.851	81	36
250.794	250.851	76	34
250.854	251.039	85	40
250.855	250.913	75	38
250.913	250.977	76	35
250.948	251.043	81	37
250.98	251.043	75	39
251.043	251.228	83	40
251.046	251.095	76	35
251.098	251.165	75	39
251.134	251.228	81	38
251.165	251.229	76	36
251.229	251.41	85	43
251.232	251.292	75	40
251.292	251.347	76	36
251.319	251.411	81	39
251.351	251.413	75	40
251.414	251.596	83	43
251.417	251.473	76	36
251.477	251.533	75	41
251.505	251.599	81	40
251.533	251.599	76	37
251.6	251.781	90	44
251.603	251.663	75	41
251.663	251.721	76	36
251.69	251.785	83	41
251.691	251.786	81	41
251.722	251.788	75	42
251.788	251.971	90	43
251.789	251.848	76	37
251.848	251.911	75	42
251.876	251.971	83	41
251.879	251.971	81	41
251.911	251.974	76	37
251.974	252.033	75	43
251.974	252.156	90	46
252.034	252.096	76	38
252.061	252.156	83	42
252.062	252.157	81	42
252.097	252.159	75	43
252.16	252.219	76	39
252.16	252.341	90	46
252.222	252.282	75	44
252.251	252.342	81	44
252.251	252.342	83	44
252.286	252.345	76	39
252.345	252.404	75	44
252.345	252.527	90	49
252.408	252.464	76	38
252.432	252.53	81	45
252.432	252.528	83	45
252.465	252.53	75	45
252.53	252.712	90	49
252.531	252.59	76	38
252.594	252.656	75	45
252.618	252.713	83	47
252.622	252.715	81	47
252.657	252.716	76	40
252.716	252.902	90	54
252.719	252.803	75	50
252.807	252.905	83	48
252.808	252.905	81	48
252.81	252.909	76	44
252.909	253.101	90	53
252.91	252.995	73	52
252.999	253.101	83	49
253.0	253.104	75	47
253.0	253.102	81	49
253.104	254.239	80	72
253.108	254.239	83	72
253.109	256.114	64	48
253.109	253.867	76	57
253.109	254.242	88	72
253.867	254.616	68	38
253.868	254.617	74	45
253.871	254.62	71	38
254.242	254.332	88	58
254.333	254.431	86	57
254.432	254.522	84	56
254.526	254.62	83	55
254.62	254.707	84	58
254.623	255.365	72	47
254.624	255.366	69	39
254.711	254.802	83	57
254.805	254.897	81	56
254.897	254.987	80	55
254.991	255.082	81	51
255.082	255.173	83	52
255.173	255.268	84	53
255.268	255.366	86	54
255.369	255.456	88	56
255.37	256.118	71	39
255.37	256.114	74	46
255.372	256.118	68	39
255.456	255.55	89	57
255.551	255.645	88	57
255.646	255.743	87	56
255.744	255.828	88	56
255.831	255.928	86	56
255.929	256.02	84	56
256.023	256.119	83	56
256.119	256.206	84	57
256.121	256.493	69	40
256.122	256.493	72	48
256.209	256.3	86	57
256.303	256.398	84	57
256.401	256.494	83	53
256.495	256.59	81	56
256.591	256.681	80	52
256.685	256.776	81	56
256.776	256.873	83	52
256.877	257.669	72	45
256.878	257.669	57	39
256.878	257.669	84	59
256.879	257.669	60	39
256.881	257.669	66	39
256.881	257.669	69	47
257.263	257.669	81	52
257.455	257.669	78	52
257.665	258.453	71	45
257.666	258.453	59	39
257.666	258.453	83	57
257.668	258.453	64	39
257.669	258.453	67	46
258.046	258.453	79	52
258.239	258.453	76	52
258.449	259.229	69	45
258.449	259.229	81	57
258.45	259.229	66	44
258.453	259.229	59	37
258.453	259.229	63	37
258.831	259.229	78	52
259.026	259.229	75	52
259.227	259.992	64	56
259.227	260.371	76	72
259.228	262.243	52	45
259.992	260.742	62	45
259.996	260.743	56	38
259.996	260.742	59	38
260.371	260.461	76	58
260.465	260.556	74	57
260.557	260.647	72	56
260.647	260.745	71	55
260.745	261.494	57	39
260.745	260.832	72	58
260.749	261.497	60	47
260.833	260.93	71	57
260.93	261.025	69	56
261.025	261.119	68	55
261.12	261.21	69	51
261.211	261.301	71	52
261.305	261.396	72	53
261.396	261.498	74	54
261.501	261.588	76	56
261.502	262.246	59	39
261.502	262.243	62	46
261.504	262.246	56	39
261.588	261.68	77	57
261.683	261.773	76	57
261.777	261.868	75	56
261.869	261.959	76	56
261.959	262.053	74	56
262.054	262.145	72	56
262.146	262.247	71	56
262.25	262.338	72	57
262.251	262.614	57	48
262.251	262.614	60	48
262.338	262.431	74	57
262.432	262.523	72	57
262.524	262.618	71	53
262.621	262.715	69	56
262.716	262.806	68	52
262.807	262.904	69	56
262.904	262.998	71	52
262.999	263.79	60	45
263.0	263.79	72	59
263.003	263.79	45	39
263.003	263.79	48	39
263.003	263.79	54	39
263.006	263.79	57	47
263.384	263.79	69	52
263.573	263.79	66	52
263.784	264.565	59	45
263.785	264.565	71	57
263.786	264.564	47	39
263.787	264.565	52	39
263.787	264.565	55	46
264.161	264.565	67	52
264.35	264.565	64	52
264.56	265.348	57	45
264.561	265.348	69	57
264.564	265.348	47	37
264.564	265.348	51	37
264.564	265.348	54	44
264.945	265.348	66	52
265.142	265.348	63	52
265.344	265.533	64	55
265.345	265.725	55	44
265.347	265.729	52	37
265.73	266.121	43	42
265.73	265.925	76	68
265.732	266.316	52	51
265.925	266.124	74	63
266.125	266.916	45	42
266.125	266.517	72	66
266.321	266.517	53	49
266.518	266.716	69	61
266.52	266.717	55	51
266.717	266.919	65	54
266.718	266.919	57	55
266.92	267.714	71	51
266.923	268.512	47	35
266.923	267.714	59	41
266.924	267.714	55	35
267.315	267.714	67	46
267.511	267.714	64	46
267.71	268.512	69	51
267.711	268.512	54	33
267.713	268.512	57	39
268.11	268.512	66	46
268.306	268.512	63	46
268.508	268.89	48	37
268.508	268.697	64	55
268.509	268.89	52	37
268.512	268.893	55	44
268.893	269.089	72	67
268.897	269.285	40	42
268.897	269.488	48	51
269.089	269.289	71	63
269.289	269.687	69	66
269.29	270.087	41	42
269.488	269.687	50	49
269.688	269.883	65	61
269.691	269.886	52	51
269.887	270.09	53	55
269.887	270.088	62	54
270.09	270.896	67	51
270.091	270.896	52	35
270.094	271.697	43	35
270.094	270.896	55	41
270.488	270.896	64	46
270.685	270.896	60	46
270.892	271.697	53	39
270.892	271.697	65	51
270.896	271.697	50	33
271.29	271.697	62	46
271.487	271.697	59	46
271.694	272.089	48	37
271.694	272.089	60	55
271.697	272.091	52	44
272.092	272.288	77	69
272.096	272.483	45	42
272.096	272.684	53	51
272.289	272.484	76	64
272.487	272.879	74	66
272.488	273.285	46	42
272.684	272.88	55	49
272.88	273.076	70	61
272.883	273.079	57	51
273.079	273.289	67	54
273.08	273.289	58	55
273.29	274.093	60	41
273.29	274.093	72	51
273.292	274.896	48	35
273.292	274.093	57	35
273.681	274.093	69	46
273.885	274.093	65	46
274.09	274.896	70	51
274.091	274.896	55	33
274.091	274.896	58	39
274.487	274.896	67	46
274.686	274.896	64	46
274.892	275.095	65	55
274.893	275.302	50	37
274.895	275.302	53	37
274.895	275.303	57	44
275.303	275.497	65	68
275.305	275.694	33	42
275.305	275.893	41	51
275.498	275.694	64	63
275.697	276.495	34	42
275.697	276.092	62	66
275.893	276.097	43	49
276.097	276.292	58	61
276.099	276.292	45	51
276.296	276.499	46	55
276.296	276.498	55	54
276.499	277.304	60	51
276.5	277.304	48	41
276.502	278.108	36	35
276.503	277.304	45	35
276.898	277.304	57	46
277.094	277.304	53	46
277.3	278.108	43	33
277.3	278.108	46	39
277.3	278.108	58	51
277.696	278.108	55	46
277.895	278.108	52	46
278.102	278.189	45	33
278.102	278.29	53	40
278.105	278.193	41	28
278.106	278.193	29	25
278.291	278.381	41	28
278.291	278.382	45	33
278.293	278.385	36	26
278.294	278.386	29	22
278.472	278.567	41	28
278.476	278.57	45	33
278.477	278.571	36	26
278.479	278.571	29	22
278.661	278.752	41	28
278.662	278.757	45	34
278.665	278.757	36	27
278.666	278.757	29	22
278.847	278.941	41	28
278.847	278.942	45	34
278.848	278.942	36	27
278.851	278.943	29	22
279.032	279.123	41	28
279.033	279.127	36	28
279.033	279.123	45	34
279.036	279.127	29	23
279.218	279.309	41	29
279.218	279.312	45	35
279.219	279.313	36	28
279.222	279.313	29	23
279.403	279.502	41	29
279.404	279.502	45	35
279.407	279.505	36	29
279.408	279.505	29	24
279.588	279.687	41	30
279.592	279.69	45	36
279.593	279.69	29	25
279.593	279.691	36	30
279.781	279.873	41	30
279.782	279.876	45	36
279.785	279.876	29	22
279.786	279.88	36	27
279.967	280.061	41	31
279.968	280.062	45	37
279.97	280.062	29	23
279.971	280.062	36	28
280.153	280.247	41	32
280.153	280.247	45	38
280.154	280.248	29	24
280.156	280.248	36	29
280.338	280.432	41	33
280.339	280.433	29	25
280.339	280.433	45	39
280.341	280.436	36	30
280.524	280.614	41	34
280.524	280.619	45	40
280.527	280.621	29	25
280.527	280.622	36	30
280.716	280.807	43	34
280.717	280.811	29	25
280.717	280.811	47	40
280.719	280.812	38	30
280.901	280.992	43	34
280.902	280.997	47	40
280.905	280.997	29	25
280.905	280.999	38	30
281.087	281.65	48	46
281.091	281.227	40	25
281.091	281.227	43	30
281.272	281.413	40	25
281.273	281.413	43	30
281.465	281.605	40	25
281.465	281.606	43	30
281.65	281.745	52	40
281.651	281.791	40	25
281.654	281.791	43	30
281.745	281.836	50	40
281.836	281.927	48	45
281.837	281.976	40	25
281.84	281.977	43	30
282.021	282.162	40	25
282.022	282.162	43	30
282.207	282.347	40	25
282.211	282.348	43	30
282.393	282.54	40	25
282.396	282.54	43	30
282.54	282.585	78	46
282.586	283.058	79	57
282.588	282.729	39	25
282.588	282.732	43	30
282.778	282.917	39	25
282.778	282.918	43	30
282.963	283.103	39	25
282.964	283.103	43	30
283.058	283.149	77	48
283.149	283.288	39	25
283.149	283.239	75	47
283.151	283.289	43	30
283.24	283.334	74	45
283.334	283.519	72	44
283.335	283.473	39	25
283.337	283.474	43	30
283.52	283.663	39	25
283.523	283.666	43	30
283.712	283.848	39	25
283.712	283.852	43	30
283.897	284.038	39	25
283.898	284.039	43	30
284.086	284.646	54	46
284.09	284.226	38	25
284.09	284.23	45	30
284.275	284.416	38	25
284.276	284.416	45	30
284.46	284.601	38	25
284.461	284.602	45	30
284.646	284.738	57	40
284.647	284.786	38	25
284.65	284.787	45	30
284.738	284.832	55	40
284.833	284.976	38	25
284.833	284.93	54	45
284.836	284.976	45	30
285.025	285.168	38	25
285.025	285.169	45	30
285.213	285.361	38	25
285.214	285.361	45	30
285.405	285.553	38	25
285.406	285.554	45	30
285.554	285.598	86	46
285.599	285.746	42	25
285.599	286.068	87	57
285.602	285.746	50	30
285.791	285.927	42	25
285.792	285.928	50	30
285.977	286.113	42	25
285.977	286.116	50	30
286.068	286.162	86	48
286.163	286.299	42	25
286.163	286.253	84	47
286.166	286.302	50	30
286.256	286.341	82	45
286.341	286.533	81	44
286.344	286.487	42	25
286.344	286.488	50	30
286.534	286.677	42	25
286.534	286.68	50	30
286.726	286.865	42	25
286.726	286.866	50	30
286.914	287.061	42	25
286.918	287.062	50	30
287.107	287.293	58	57
287.108	287.282	43	30
287.201	287.293	50	26
287.296	287.46	43	30
287.296	287.387	62	48
287.387	287.478	60	48
287.388	287.479	50	27
287.479	287.664	58	51
287.481	287.646	43	30
287.573	287.664	50	26
287.664	287.831	43	30
287.758	287.849	50	25
287.849	287.944	84	54
287.852	288.017	45	31
287.944	288.035	82	52
287.947	288.037	50	26
288.038	288.202	45	31
288.038	288.129	81	50
288.132	288.224	79	48
288.133	288.224	50	27
288.225	288.391	45	31
288.225	288.409	78	51
288.315	288.41	50	28
288.41	288.577	45	31
288.5	288.595	50	27
288.595	288.78	67	57
288.596	288.762	46	30
288.686	288.78	50	26
288.781	288.871	70	48
288.783	288.948	46	30
288.871	288.962	69	48
288.875	288.966	50	27
288.969	289.13	46	30
288.969	289.151	67	51
289.056	289.151	50	26
289.152	289.323	46	30
289.242	289.343	50	25
289.344	289.508	42	31
289.344	289.434	87	54
289.438	289.529	86	52
289.439	289.529	50	26
289.53	289.62	84	50
289.533	289.698	42	31
289.62	289.707	82	48
289.621	289.708	50	27
289.708	289.9	81	51
289.711	289.883	42	31
289.805	289.9	50	28
289.9	290.068	42	31
289.99	290.085	50	27
290.086	290.271	58	59
290.089	290.254	43	31
290.177	290.271	50	27
290.275	290.439	43	31
290.275	290.362	62	50
290.366	290.456	50	29
290.366	290.456	60	51
290.46	290.642	58	56
290.461	290.624	43	32
290.551	290.643	50	28
290.643	290.81	43	34
290.736	290.828	50	29
290.828	290.922	84	63
290.829	290.995	45	36
290.922	291.013	82	63
290.923	291.014	50	31
291.016	291.1	81	62
291.017	291.181	45	38
291.104	291.195	79	60
291.105	291.195	50	35
291.196	291.384	78	64
291.199	291.366	45	40
291.285	291.387	50	37
291.388	291.552	45	43
291.479	291.573	50	38
291.573	291.741	46	45
291.573	291.664	74	73
291.665	291.751	50	39
291.665	291.748	72	71
291.755	291.843	70	71
291.756	291.92	46	48
291.846	291.938	69	67
291.847	291.938	50	42
291.94	292.133	67	74
291.941	292.116	46	50
292.035	292.133	55	46
292.137	292.318	46	54
292.23	292.343	55	51
292.344	292.431	80	87
292.346	292.511	47	64
292.431	292.525	79	83
292.432	292.525	55	53
292.525	292.617	77	81
292.526	292.693	47	64
292.617	292.71	75	78
292.618	292.71	55	56
292.711	292.878	47	66
292.711	292.893	74	83
292.802	292.893	55	59
292.896	293.067	47	66
292.987	293.078	55	57
293.082	293.27	63	57
293.083	293.253	48	30
293.173	293.271	55	26
293.274	293.358	67	48
293.275	293.435	48	30
293.361	293.453	65	48
293.362	293.453	55	27
293.454	293.638	63	51
293.456	293.624	48	30
293.547	293.639	55	26
293.639	293.813	48	30
293.729	293.824	55	25
293.824	293.998	50	31
293.824	293.914	77	54
293.918	294.009	75	52
293.919	294.009	55	26
294.012	294.1	74	50
294.013	294.177	50	31
294.104	294.195	72	48
294.105	294.195	55	27
294.198	294.362	50	31
294.198	294.38	71	51
294.289	294.38	55	28
294.384	294.555	50	31
294.475	294.565	55	27
294.566	294.741	51	30
294.566	294.751	60	57
294.66	294.751	55	26
294.755	294.846	63	48
294.758	294.922	51	30
294.846	294.936	62	48
294.849	294.937	55	27
294.94	295.129	60	51
294.941	295.112	51	30
295.031	295.129	55	26
295.133	295.311	51	30
295.227	295.328	55	25
295.328	295.42	80	54
295.329	295.497	47	31
295.42	295.515	79	52
295.423	295.515	55	26
295.515	295.605	77	50
295.516	295.682	47	31
295.606	295.696	75	48
295.609	295.7	55	27
295.703	295.867	47	31
295.703	295.885	74	51
295.791	295.886	55	28
295.886	296.053	47	31
295.976	296.071	55	27
296.071	296.256	63	59
296.072	296.242	48	31
296.165	296.257	55	27
296.257	296.347	67	50
296.259	296.424	48	31
296.348	296.442	65	51
296.351	296.442	55	29
296.442	296.627	63	56
296.445	296.609	48	32
296.536	296.627	55	28
296.628	296.802	48	34
296.718	296.812	55	29
296.813	296.907	77	63
296.817	296.981	50	36
296.908	296.998	55	31
296.908	296.998	75	63
297.002	297.166	50	38
297.002	297.093	74	62
297.093	297.187	72	60
297.094	297.188	55	35
297.188	297.369	71	64
297.189	297.355	50	40
297.278	297.369	55	37
297.373	297.54	50	43
297.464	297.554	55	38
297.555	297.649	79	73
297.559	297.723	51	45
297.649	297.74	77	71
297.653	297.744	55	39
297.744	297.834	75	71
297.747	297.911	51	48
297.838	297.922	74	67
297.839	297.923	55	42
297.923	298.118	72	74
297.925	298.101	51	50
298.02	298.122	60	46
298.122	298.311	51	54
298.216	298.328	60	47
298.328	298.416	85	87
298.329	298.496	52	64
298.416	298.506	84	83
298.42	298.507	60	53
298.511	298.682	52	64
298.511	298.601	82	81
298.602	298.692	80	78
298.605	298.696	60	56
298.696	298.881	79	83
298.699	298.867	52	66
298.786	298.881	60	59
298.882	299.112	52	66
298.972	299.136	60	57
299.137	299.516	53	25
299.137	299.515	80	48
299.236	299.518	56	22
299.329	299.518	60	22
299.329	299.518	84	40
299.422	299.518	82	40
299.424	299.518	65	22
299.515	299.903	80	43
299.516	299.897	53	25
299.613	299.903	56	22
299.705	299.903	60	22
299.806	299.903	65	22
299.897	300.278	53	26
299.897	300.275	85	48
299.987	300.278	58	22
300.082	300.278	89	40
300.086	300.278	61	22
300.183	300.278	87	40
300.184	300.278	65	22
300.275	300.663	85	43
300.278	300.663	53	26
300.366	300.663	58	23
300.467	300.663	61	22
300.559	300.663	65	22
300.656	301.034	66	40
300.657	301.038	52	25
300.751	301.038	54	22
300.849	301.038	70	34
300.852	301.038	58	22
300.944	301.038	61	22
300.944	301.038	68	34
301.034	301.45	66	36
301.038	301.45	52	25
301.125	301.45	54	22
301.227	301.45	58	22
301.317	301.45	61	22
301.447	301.826	51	26
301.447	302.276	71	40
301.541	301.916	54	22
301.639	302.014	59	22
301.731	302.109	63	22
301.826	302.267	51	26
301.916	302.276	54	23
302.014	302.276	59	22
302.109	302.276	63	22
302.266	302.651	77	48
302.267	302.651	51	25
302.364	302.655	53	22
302.462	302.655	81	40
302.465	302.655	57	22
302.557	302.655	60	22
302.557	302.655	79	40
302.651	303.039	51	25
302.651	303.039	77	43
302.746	303.039	53	22
302.841	303.039	57	22
302.938	303.039	60	22
303.036	303.417	49	26
303.036	303.414	82	48
303.131	303.418	53	22
303.226	303.418	58	22
303.226	303.418	85	40
303.316	303.418	84	40
303.32	303.418	61	22
303.414	303.802	82	43
303.417	303.8	49	26
303.515	303.802	53	23
303.607	303.802	58	22
303.705	303.802	61	22
303.8	304.184	49	25
303.8	304.181	63	40
303.897	304.184	51	22
303.995	304.184	67	34
303.998	304.184	55	22
304.09	304.184	58	22
304.09	304.184	65	34
304.181	304.601	63	36
304.184	304.601	49	25
304.279	304.601	51	22
304.373	304.601	55	22
304.472	304.601	58	22
304.597	305.367	68	40
304.601	304.975	48	26
304.692	305.074	51	22
304.786	305.167	56	22
304.884	305.266	60	22
304.975	305.367	48	26
305.074	305.367	51	23
305.167	305.367	56	22
305.266	305.367	60	22
305.364	305.742	73	48
305.367	305.745	47	25
305.459	305.746	49	22
305.556	305.746	77	40
305.56	305.746	53	22
305.65	305.746	75	40
305.653	305.746	56	22
305.742	306.134	73	43
305.745	306.134	47	25
305.843	306.134	49	22
305.934	306.134	53	22
306.032	306.134	56	22
306.133	306.509	78	48
306.134	306.511	46	26
306.225	306.511	49	22
306.316	306.511	82	40
306.319	306.511	54	22
306.418	306.511	58	22
306.418	306.511	80	40
306.509	306.893	78	43
306.511	306.892	46	26
306.599	306.893	49	23
306.701	306.893	54	22
306.798	306.893	58	22
306.89	307.275	60	42
306.892	307.277	46	26
306.991	307.278	48	23
307.09	307.278	64	35
307.092	307.278	52	23
307.184	307.278	62	35
307.185	307.278	55	23
307.275	307.695	60	38
307.277	307.695	46	26
307.376	307.695	48	23
307.468	307.695	52	23
307.565	307.695	55	23
307.691	308.455	72	42
307.694	308.069	44	27
307.785	308.167	48	23
307.879	308.262	53	23
307.978	308.359	56	23
308.069	308.461	44	28
308.167	308.461	48	25
308.262	308.461	53	23
308.359	308.461	56	23
308.455	308.836	72	59
308.457	308.839	43	32
308.552	308.839	46	28
308.651	308.839	76	52
308.653	308.839	52	28
308.745	308.839	55	29
308.745	308.839	74	52
308.836	309.258	72	56
308.839	309.258	43	34
308.934	309.258	46	29
309.036	309.258	52	31
309.126	309.258	55	32
309.256	309.638	41	39
309.256	310.022	84	69
309.35	309.76	44	33
309.448	310.025	48	33
309.539	309.893	53	34
309.638	310.025	41	41
309.76	310.025	44	35
309.893	310.025	53	36
310.022	310.418	84	68
310.023	310.421	40	44
310.155	310.421	43	45
310.218	310.421	88	70
310.282	310.421	52	47
310.317	310.421	86	71
310.418	310.511	84	73
310.419	310.546	39	47
310.547	310.676	43	49
310.61	310.711	84	77
310.676	310.809	51	51
310.81	310.942	38	54
310.81	310.907	84	81
310.942	311.079	41	53
311.009	311.208	84	83
311.079	311.211	50	56
311.212	311.64	37	56
311.212	311.64	89	86
311.345	311.64	41	58
311.415	311.64	83	90
311.489	311.64	49	59
311.636	312.468	84	93
311.639	312.468	36	66
311.639	312.185	48	70
311.776	312.049	43	61
311.906	312.468	40	62
312.049	312.468	43	70
312.049	312.878	67	75
312.185	312.468	48	63
312.321	312.468	52	64
312.465	313.015	50	70
312.598	312.879	47	63
312.738	313.291	43	64
312.878	313.291	67	75
312.879	313.291	47	70
313.015	313.291	50	65
313.148	313.291	53	65
313.288	313.824	72	82
313.291	313.826	52	64
313.424	313.694	55	56
313.424	313.69	67	74
313.558	314.1	60	56
313.558	314.1	64	74
313.69	314.1	67	82
313.694	314.1	55	64
313.824	314.1	72	74
313.826	314.1	52	57
313.957	314.1	76	73
313.959	314.1	48	57
314.096	314.626	74	82
314.099	314.628	53	64
314.232	314.492	71	74
314.233	314.495	56	56
314.362	314.901	68	74
314.365	314.901	60	56
314.492	314.901	71	82
314.495	314.901	56	64
314.626	314.901	74	75
314.628	314.901	53	57
314.758	314.901	77	75
314.76	314.901	48	58
314.897	315.426	76	82
314.898	315.429	55	64
315.031	315.294	58	56
315.031	315.293	73	74
315.164	318.094	60	56
315.164	315.709	70	77
315.293	315.709	73	82
315.294	318.094	58	64
315.426	315.709	76	75
315.429	318.094	55	57
315.559	315.709	79	74
315.56	318.094	48	57
315.703	316.364	82	82
315.835	316.106	76	74
315.972	317.291	85	74
316.106	316.76	76	82
316.231	316.5	73	74
316.364	317.291	82	74
316.5	317.158	73	82
316.634	316.893	70	74
316.76	317.291	76	74
316.893	317.288	70	78
317.026	317.291	64	74
317.158	317.291	73	74
317.288	317.687	70	77
317.422	317.823	64	71
317.558	317.957	72	71
317.687	318.094	70	76
317.823	318.094	64	71
317.957	318.09	72	71
318.089	318.496	65	67
318.09	318.496	69	67
318.09	318.493	72	79
318.093	318.496	41	66
318.094	318.496	53	70
318.226	318.495	48	61
318.356	318.496	45	62
318.493	319.315	72	75
318.495	318.908	48	70
318.629	318.908	53	63
318.762	318.908	57	64
318.902	319.319	55	70
319.042	319.318	52	63
319.175	319.319	48	64
319.315	319.731	72	75
319.318	319.731	52	70
319.454	319.731	55	65
319.588	319.731	58	65
319.727	320.256	77	82
319.728	320.257	57	64
319.861	320.13	72	74
319.864	320.13	60	56
319.994	320.533	69	74
319.997	320.533	65	56
320.13	320.533	60	64
320.13	320.533	72	82
320.256	320.533	77	74
320.257	320.533	57	57
320.39	320.533	81	73
320.392	320.533	53	57
320.529	321.062	79	82
320.532	321.064	58	64
320.662	320.928	76	74
320.665	320.931	61	56
320.795	321.338	73	74
320.799	321.338	65	56
320.928	321.338	76	82
320.931	321.338	61	64
321.062	321.338	79	75
321.064	321.338	58	57
321.198	321.338	53	58
321.198	321.338	82	75
321.337	321.865	81	82
321.338	321.866	60	64
321.467	321.73	78	74
321.471	321.733	63	56
321.597	324.53	65	56
321.597	322.671	75	77
321.73	322.535	78	82
321.733	324.53	63	64
321.865	322.269	81	75
321.866	324.53	60	57
321.989	322.804	84	74
321.992	324.53	53	57
322.143	323.728	87	82
322.269	323.199	81	74
322.402	323.728	90	74
322.535	323.592	78	82
322.671	322.937	75	74
322.804	323.728	84	74
322.937	323.333	75	82
323.063	323.728	72	74
323.199	323.728	81	74
323.333	323.725	75	78
323.466	323.728	69	74
323.592	323.728	78	74
323.725	324.127	75	77
323.861	324.254	69	71
323.994	324.389	77	71
324.127	324.53	75	76
324.254	324.53	69	71
324.389	324.529	77	71
324.527	324.933	70	67
324.527	324.933	74	67
324.529	324.933	77	79
324.53	324.933	34	66
324.53	324.933	46	70
324.655	324.933	41	61
324.795	324.933	38	62
324.932	325.751	65	75
324.933	325.345	41	70
325.062	325.345	46	63
325.202	325.345	50	64
325.342	325.755	48	70
325.475	325.755	45	63
325.612	325.755	41	64
325.751	326.168	65	75
325.755	326.168	45	70
325.887	326.168	48	65
326.021	326.168	51	65
326.168	326.696	50	64
326.168	326.695	70	82
326.298	326.559	65	74
326.301	326.563	53	56
326.427	326.969	62	74
326.429	326.969	58	56
326.559	326.969	65	82
326.563	326.969	53	64
326.695	326.969	70	74
326.696	326.969	50	57
326.826	326.969	74	73
326.829	326.969	46	57
326.967	327.502	72	82
326.969	327.502	51	64
327.102	327.368	69	74
327.103	327.368	54	56
327.235	327.771	58	56
327.235	327.771	66	74
327.368	327.771	54	64
327.368	327.771	69	82
327.502	327.771	51	57
327.502	327.771	72	75
327.627	327.771	75	75
327.631	327.771	46	58
327.767	328.296	74	82
327.77	328.299	53	64
327.9	328.169	71	74
327.901	328.17	56	56
328.033	330.977	58	56
328.033	329.503	68	77
328.169	329.108	71	82
328.17	330.977	56	64
328.296	328.709	74	75
328.299	330.977	53	57
328.429	329.636	77	74
328.432	330.977	46	57
328.572	329.237	80	82
328.709	328.975	74	74
328.838	330.165	83	74
328.975	330.032	74	82
329.108	329.371	71	74
329.237	330.165	80	74
329.371	330.165	71	82
329.503	329.763	68	74
329.636	330.165	77	74
329.763	330.164	68	78
329.899	330.165	65	74
330.032	330.165	74	74
330.164	330.557	68	77
330.291	330.693	62	71
330.427	330.977	71	71
330.557	330.977	68	76
330.693	330.977	62	71
330.826	330.977	70	71
330.976	331.502	78	82
330.977	331.502	51	64
331.099	331.366	75	74
331.1	331.368	54	56
331.239	334.164	58	56
331.239	332.29	70	77
331.366	331.894	75	82
331.368	334.164	54	64
331.502	334.164	51	57
331.502	331.76	78	75
331.635	334.164	46	57
331.635	332.422	82	74
331.76	332.818	78	82
331.894	332.16	75	74
332.027	334.164	87	74
332.16	333.217	75	82
332.29	332.555	70	74
332.422	334.164	82	74
332.555	334.164	70	82
332.689	332.951	66	74
332.818	334.162	78	74
332.951	333.347	66	78
333.085	333.479	63	74
333.217	333.613	75	74
333.347	333.745	66	77
333.479	333.878	63	71
333.613	334.014	75	71
333.745	334.164	66	76
333.878	334.164	63	71
334.014	334.164	75	71
334.162	334.687	78	82
334.163	334.69	49	64
334.285	334.554	76	74
334.287	334.555	54	56
334.421	335.474	73	77
334.422	337.354	58	56
334.554	335.082	76	82
334.555	337.354	54	64
334.687	334.949	78	75
334.69	337.354	49	57
334.813	335.61	85	74
334.816	337.354	46	57
334.949	336.003	78	82
335.082	335.348	76	74
335.216	337.354	88	74
335.348	336.404	76	82
335.474	335.74	73	74
335.61	337.354	85	74
335.74	337.354	73	82
335.876	336.138	66	74
336.003	337.35	78	74
336.138	336.532	66	78
336.273	336.664	64	74
336.404	336.801	76	74
336.532	336.934	66	77
336.664	337.067	64	71
336.801	337.193	76	71
336.934	337.354	66	76
337.067	337.354	64	71
337.193	337.354	76	71
337.35	337.876	78	82
337.351	337.876	50	64
337.472	337.739	74	74
337.477	337.742	54	56
337.606	340.538	59	56
337.606	338.663	71	77
337.739	338.267	74	82
337.742	340.538	54	64
337.876	340.538	50	57
337.876	338.135	78	75
338.001	338.795	83	74
338.002	340.538	47	57
338.135	339.192	78	82
338.267	338.53	74	74
338.4	340.538	86	74
338.53	339.586	74	82
338.663	338.928	71	74
338.795	340.538	83	74
338.928	340.538	71	82
339.064	339.323	66	74
339.192	340.538	78	74
339.323	339.719	66	78
339.457	339.852	62	74
339.586	339.985	74	74
339.719	340.118	66	77
339.852	340.251	62	71
339.985	340.388	74	71
340.118	340.538	66	76
340.251	340.538	62	71
340.388	340.538	74	71
340.535	341.055	79	82
340.538	341.056	50	64
340.657	340.927	74	74
340.66	340.927	55	56
340.794	343.719	59	56
340.794	341.847	71	77
340.927	343.719	55	64
340.927	341.455	74	82
341.055	341.322	79	75
341.056	343.719	50	57
341.185	341.983	83	74
341.189	343.719	47	57
341.322	342.376	79	82
341.455	341.714	74	74
341.588	343.719	86	74
341.714	343.173	74	82
341.847	342.117	71	74
341.983	343.719	83	74
342.117	343.719	71	82
342.249	342.512	67	74
342.376	343.719	79	74
342.512	342.907	67	78
342.645	343.719	65	74
342.77	343.719	77	74
342.907	343.307	67	77
343.037	343.439	62	71
343.173	343.569	74	71
343.307	343.719	67	76
343.439	343.719	62	71
343.569	343.719	74	71
343.716	344.241	84	82
343.719	344.244	51	64
343.845	344.115	79	74
343.849	344.116	55	56
343.979	344.64	75	77
343.981	346.906	60	56
344.115	344.507	79	82
344.116	346.906	55	64
344.241	345.172	84	75
344.244	346.906	51	57
344.374	346.906	48	57
344.374	344.773	87	74
344.507	345.564	79	82
344.64	344.902	75	74
344.773	346.906	87	74
344.902	345.963	75	82
345.036	345.301	72	74
345.172	346.906	84	74
345.301	346.906	72	82
345.432	345.697	67	74
345.564	346.906	79	74
345.697	346.092	67	78
345.833	346.226	63	74
345.963	346.359	75	74
346.092	346.491	67	77
346.226	346.627	63	71
346.359	346.754	75	71
346.491	346.906	67	76
346.627	346.906	63	71
346.754	346.906	75	71
346.905	347.43	56	64
346.905	347.429	77	82
347.034	347.3	73	74
347.035	347.303	61	56
347.167	347.957	68	77
347.168	348.497	65	56
347.3	347.829	73	82
347.303	348.497	61	64
347.429	347.695	77	75
347.43	348.497	56	57
347.559	348.497	80	74
347.563	348.497	53	57
347.695	348.091	77	82
347.829	348.223	73	74
347.957	348.357	68	74
348.091	348.497	77	82
348.223	348.497	73	74
348.357	348.497	68	74
348.494	349.022	60	64
348.494	349.019	75	82
348.616	348.886	72	74
348.619	348.888	63	56
348.749	349.547	69	77
348.752	350.079	66	56
348.886	349.413	72	82
348.888	350.079	63	64
349.019	349.28	75	75
349.022	350.079	60	57
349.147	350.079	81	74
349.148	350.079	54	57
349.28	349.68	75	82
349.413	349.809	72	74
349.547	349.938	69	74
349.68	350.079	75	82
349.809	350.079	72	74
349.938	350.079	69	74
350.079	350.605	59	70
350.208	350.471	62	61
350.334	351.128	67	61
350.471	351.286	62	70
350.471	350.999	71	83
350.604	350.863	74	72
350.605	351.287	59	62
350.73	351.287	79	72
350.731	352.106	55	62
350.863	351.287	74	83
350.999	351.287	71	71
351.128	351.287	67	70
351.286	352.106	62	36
351.286	351.696	77	58
351.416	352.106	71	47
351.55	351.955	67	47
351.696	352.106	77	55
351.697	352.106	59	41
351.822	352.106	74	47
351.955	352.106	67	47
352.102	352.505	75	55
352.106	353.341	55	36
352.229	352.508	74	47
352.361	352.508	67	47
352.505	352.914	75	55
352.507	352.914	60	36
352.634	352.914	72	48
352.767	352.914	67	48
352.91	353.341	66	36
352.91	353.341	74	55
353.044	353.341	72	47
353.174	353.341	69	47
353.34	353.869	47	62
353.47	353.74	50	55
353.603	354.394	55	55
353.737	354.261	59	78
353.74	354.555	50	62
353.866	354.125	62	71
353.869	354.555	47	56
353.999	354.555	67	71
354.003	355.368	43	56
354.125	354.555	62	74
354.261	354.555	59	63
354.394	354.555	55	62
354.552	354.958	65	52
354.555	355.368	50	32
354.685	355.368	59	42
354.815	355.224	55	42
354.958	355.368	47	36
354.958	355.368	65	49
355.091	355.368	62	42
355.224	355.368	55	42
355.365	355.767	63	49
355.368	356.991	43	32
355.497	355.773	62	42
355.63	355.773	55	42
355.767	356.179	63	49
355.77	356.179	48	32
355.903	356.179	60	43
356.036	356.179	55	43
356.177	356.586	54	32
356.177	356.582	62	49
356.309	356.586	60	42
356.442	356.586	57	42
356.582	356.991	62	49
356.585	356.844	55	36
356.714	356.991	59	42
356.844	356.991	55	42
356.988	357.397	48	32
356.988	357.397	60	49
357.122	357.397	55	42
357.257	357.397	51	41
357.395	357.811	59	48
357.397	357.811	43	31
357.534	357.811	55	41
357.667	357.811	50	41
357.81	358.231	36	30
357.81	358.231	57	46
357.947	358.231	51	39
358.08	358.231	48	39
358.227	358.643	55	45
358.228	358.643	31	33
358.357	358.643	50	38
358.496	358.643	47	37
358.639	359.063	54	43
358.64	359.063	36	28
358.776	359.063	51	36
358.917	359.063	45	36
359.061	359.487	55	42
359.063	359.487	31	27
359.2	359.487	50	36
359.334	359.487	47	36
359.483	359.914	54	40
359.487	359.914	36	26
359.624	359.914	51	34
359.763	359.914	45	34
359.91	361.615	47	38
359.911	361.618	50	38
359.911	361.618	55	45
359.913	360.005	31	37
360.006	360.106	36	33
360.106	360.207	35	33
360.211	360.309	33	33
360.31	360.407	31	37
360.407	360.505	36	33
360.506	360.603	35	33
360.607	360.708	33	33
360.712	360.807	31	37
360.807	360.907	36	33
360.908	361.006	35	33
361.007	361.104	33	33
361.104	361.205	31	37
361.209	361.307	36	33
361.307	361.405	35	33
361.405	361.502	33	33
361.503	363.218	31	33
361.619	361.713	50	40
361.716	361.811	52	40
361.811	361.912	54	40
361.913	362.017	55	45
362.017	362.111	50	40
362.115	362.213	52	40
362.214	362.311	54	40
362.312	362.41	55	45
362.41	362.514	50	40
362.515	362.612	52	40
362.616	362.71	54	40
362.71	362.808	55	46
362.809	362.91	50	40
362.911	363.011	52	40
363.015	363.109	54	40
363.113	364.824	55	45
363.219	363.323	36	33
363.323	363.418	35	33
363.421	363.518	33	33
363.519	363.617	31	37
363.62	363.722	36	33
363.722	363.823	35	33
363.824	363.921	33	33
363.922	364.016	31	37
364.019	364.117	36	33
364.118	364.222	35	33
364.222	364.32	33	33
364.32	364.418	31	37
364.419	364.516	36	33
364.517	364.614	35	33
364.614	364.719	33	33
364.72	366.427	31	33
364.827	364.922	54	40
364.922	365.028	55	40
365.028	365.128	57	40
365.129	365.227	59	45
365.227	365.322	54	40
365.325	365.422	55	40
365.423	365.521	57	40
365.522	365.626	59	45
365.626	365.723	54	40
365.728	365.822	55	40
365.826	365.92	57	40
365.92	366.025	59	46
366.025	366.126	54	40
366.127	366.224	55	40
366.224	366.319	57	40
366.323	366.525	59	45
366.428	366.525	36	33
366.529	366.624	35	33
366.624	366.724	33	33
366.725	366.819	31	37
366.823	366.917	36	33
366.921	367.026	35	33
366.921	367.026	59	41
367.026	367.124	60	44
367.03	367.125	33	33
367.125	367.222	62	48
367.127	367.222	31	38
367.225	367.32	36	33
367.32	367.425	35	34
367.426	367.523	33	34
367.526	367.625	31	38
367.625	367.718	36	34
367.723	367.824	35	34
367.723	367.789	62	45
367.792	367.855	64	47
367.825	367.926	33	34
367.855	367.926	66	48
367.927	368.023	31	39
367.927	368.121	67	53
368.024	368.121	36	35
368.125	368.219	35	35
368.219	368.317	33	35
368.321	368.419	31	39
368.42	368.517	36	35
368.517	368.615	67	51
368.518	368.615	35	35
368.616	368.709	69	51
368.619	368.71	33	35
368.71	368.807	71	55
368.711	368.807	31	40
368.808	368.909	36	36
368.913	369.003	71	51
368.914	369.004	35	36
369.006	369.101	72	52
369.007	369.105	33	36
369.106	369.203	31	40
369.106	369.199	74	55
369.203	369.3	36	36
369.301	369.392	35	36
369.301	369.363	74	52
369.364	369.427	76	54
369.393	369.493	33	36
369.43	369.493	78	56
369.494	369.591	31	41
369.494	369.689	79	58
369.592	369.69	36	36
369.69	369.787	35	37
369.791	369.886	33	37
369.889	369.983	31	42
369.986	370.085	36	37
370.086	370.183	35	37
370.086	370.148	62	50
370.148	370.211	64	53
370.183	370.273	33	37
370.211	370.274	66	55
370.277	370.473	67	58
370.278	370.375	31	42
370.376	370.473	36	38
370.474	370.572	35	38
370.572	370.676	33	38
370.677	370.774	31	44
370.774	370.873	36	38
370.873	370.966	67	55
370.875	370.967	35	38
370.967	371.065	69	59
370.971	371.066	33	38
371.066	371.156	71	63
371.068	371.156	31	44
371.16	371.257	36	39
371.258	371.355	35	39
371.356	371.453	33	39
371.457	371.552	31	45
371.554	371.649	36	39
371.653	371.744	71	57
371.654	371.744	35	39
371.747	371.841	72	58
371.748	371.842	33	39
371.846	371.94	31	45
371.846	371.939	74	63
371.943	372.041	36	39
372.041	372.104	74	58
372.042	372.133	35	40
372.104	372.161	76	60
372.133	372.223	33	40
372.161	372.226	78	63
372.227	372.325	79	66
372.231	372.326	31	46
372.326	372.423	36	40
372.423	372.518	79	65
372.424	372.518	35	40
372.518	372.615	81	68
372.519	372.616	33	40
372.616	372.71	83	70
372.619	372.71	31	46
372.711	372.807	36	41
372.808	372.905	35	41
372.906	373.004	33	41
373.005	373.102	31	47
373.102	373.199	36	41
373.2	373.263	74	65
373.204	373.294	35	41
373.267	373.322	76	68
373.295	373.385	33	41
373.323	373.389	78	69
373.389	373.484	79	71
373.39	373.486	31	48
373.487	373.585	36	42
373.586	373.683	35	42
373.683	373.781	33	42
373.781	373.878	31	48
373.883	373.977	36	42
373.98	374.072	79	66
373.981	374.075	35	42
374.075	374.165	81	68
374.076	374.166	33	42
374.166	374.264	83	73
374.167	374.265	31	49
374.267	374.355	36	42
374.358	374.453	35	44
374.457	374.551	33	44
374.554	374.652	31	49
374.653	374.75	36	44
374.751	374.841	79	68
374.754	374.844	35	44
374.845	374.929	81	72
374.849	374.932	33	44
374.933	375.03	83	76
374.936	375.03	31	50
375.031	375.128	36	45
375.129	375.216	83	68
375.131	375.217	35	45
375.219	375.307	84	71
375.22	375.31	33	45
375.31	375.404	86	75
375.311	375.409	31	50
375.409	375.499	36	45
375.502	375.594	86	70
375.503	375.595	35	45
375.595	375.685	88	75
375.597	375.689	33	45
375.689	375.779	89	79
375.69	375.78	31	51
375.78	375.877	36	46
375.878	375.972	35	46
375.972	376.069	33	46
376.07	376.16	31	52
376.161	376.259	36	47
376.262	376.354	86	77
376.263	376.357	35	48
376.357	376.44	88	82
376.358	376.441	33	48
376.441	376.539	89	86
376.444	376.54	31	54
376.54	376.633	37	49
376.633	376.732	35	49
376.732	376.822	33	50
376.823	376.917	31	56
376.917	377.015	37	51
377.015	377.098	86	79
377.016	377.103	35	51
377.105	377.193	88	84
377.106	377.197	33	51
377.197	377.288	89	88
377.198	377.305	31	57
377.288	377.396	38	52
377.385	377.473	86	79
377.386	377.491	35	52
377.474	377.568	88	84
377.477	377.585	33	53
377.568	377.659	89	88
377.569	377.677	31	59
377.663	377.767	38	54
377.756	377.844	86	81
377.761	377.862	35	54
377.844	377.939	88	85
377.845	377.953	33	54
377.939	378.03	89	89
377.94	378.047	31	61
378.03	378.142	38	55
378.127	378.215	86	81
378.128	378.233	35	56
378.215	378.31	88	86
378.219	378.327	33	56
378.31	378.4	89	92
378.313	378.418	31	63
378.404	378.513	38	57
378.495	378.59	86	85
378.496	378.608	35	57
378.59	378.678	88	91
378.591	378.691	33	57
378.678	378.787	31	67
378.678	378.786	89	96
378.768	378.873	88	94
378.769	378.873	33	66
378.859	378.967	86	92
378.86	378.968	35	65
378.947	379.058	84	91
378.954	379.059	36	63
379.041	379.15	83	89
379.042	379.151	38	62
379.132	379.244	84	91
379.133	379.244	36	63
379.227	379.332	35	64
379.227	379.332	86	92
379.322	379.427	33	66
379.322	379.423	88	93
379.412	379.517	89	96
379.413	379.517	31	66
379.503	379.612	88	95
379.504	379.612	33	65
379.598	379.703	35	64
379.598	379.702	86	94
379.688	379.794	84	93
379.693	379.795	36	64
379.783	379.888	83	93
379.784	379.888	38	61
379.878	379.983	36	63
379.878	379.982	84	93
379.966	380.075	35	65
379.966	380.074	86	95
380.056	380.161	88	97
380.057	380.162	33	67
380.147	380.346	89	99
380.148	380.347	31	69
380.33	380.442	33	66
380.33	380.441	88	97
380.424	380.532	86	96
380.425	380.532	35	65
380.515	380.62	84	95
380.516	380.62	36	64
380.61	380.719	38	63
380.61	380.718	83	93
380.7	380.805	81	92
380.701	380.806	40	63
380.795	380.9	79	91
380.796	380.9	41	62
380.886	380.995	43	61
380.886	380.99	77	90
380.976	381.085	76	88
380.981	381.086	45	60
381.071	381.183	74	87
381.072	381.183	47	59
381.166	381.278	48	58
381.166	381.275	72	86
381.257	381.369	71	85
381.261	381.37	50	57
381.351	381.46	69	83
381.352	381.461	52	56
381.449	381.554	67	82
381.45	381.555	53	55
381.541	381.652	65	81
381.544	381.656	55	55
381.635	381.82	64	80
381.639	381.824	48	54
381.824	381.96	48	28
381.825	381.961	52	33
381.827	381.964	36	22
381.827	381.961	43	26
382.006	382.146	48	28
382.007	382.147	52	33
382.009	382.149	43	26
382.01	382.149	36	22
382.192	382.331	48	28
382.192	382.332	52	34
382.195	382.336	43	27
382.199	382.336	36	22
382.377	382.517	48	28
382.38	382.521	52	34
382.381	382.522	36	22
382.381	382.521	43	27
382.57	382.709	48	28
382.57	382.71	52	34
382.573	382.714	36	23
382.573	382.713	43	28
382.755	382.894	48	29
382.758	382.899	43	28
382.758	382.898	52	35
382.759	382.899	36	23
382.94	383.08	48	29
382.944	383.081	43	29
382.944	383.081	52	35
382.945	383.084	36	24
383.129	383.265	48	30
383.129	383.266	52	36
383.13	383.266	36	25
383.13	383.27	43	30
383.311	383.451	48	30
383.312	383.451	52	36
383.316	383.455	36	22
383.316	383.455	43	27
383.497	383.637	48	31
383.501	383.641	36	23
383.501	383.64	52	37
383.504	383.641	43	28
383.689	383.83	48	32
383.69	383.83	52	38
383.693	383.833	36	24
383.694	383.833	43	29
383.875	384.015	48	33
383.879	384.018	36	25
383.879	384.019	43	30
383.879	384.018	52	39
384.06	384.201	48	34
384.064	384.204	52	40
384.065	384.204	36	25
384.067	384.205	43	30
384.249	384.386	50	34
384.25	384.389	36	25
384.25	384.387	54	40
384.251	384.389	45	30
384.435	384.578	50	34
384.435	384.579	54	40
384.436	384.579	36	25
384.436	384.581	45	30
384.617	385.181	50	39
384.62	385.184	55	46
384.621	384.764	35	25
384.625	384.764	43	30
384.81	384.949	35	25
384.81	384.95	43	30
384.995	385.135	35	25
384.998	385.139	43	30
385.184	385.275	59	40
385.188	385.32	35	25
385.188	385.324	43	30
385.276	385.369	57	40
385.369	385.461	55	45
385.37	385.513	35	25
385.373	385.513	43	30
385.558	385.698	35	25
385.562	385.698	43	30
385.748	385.887	35	25
385.748	385.888	43	30
385.929	386.077	35	25
385.93	386.077	43	30
386.078	386.122	85	46
386.122	386.591	86	57
386.126	386.262	35	25
386.126	386.263	43	30
386.307	386.455	35	25
386.308	386.455	43	30
386.492	386.633	35	25
386.496	386.636	43	30
386.594	386.685	84	48
386.685	386.777	83	47
386.689	386.825	35	25
386.689	386.826	43	30
386.78	386.871	81	45
386.872	387.057	79	44
386.875	387.011	35	25
386.875	387.011	43	30
387.06	387.196	35	25
387.06	387.197	43	30
387.242	387.382	35	25
387.243	387.382	43	30
387.43	387.574	35	25
387.431	387.575	43	30
387.62	387.759	46	29
387.621	387.761	41	30
387.621	387.759	50	37
387.623	387.764	34	26
387.811	387.951	46	29
387.812	387.952	41	30
387.812	387.952	50	35
387.814	387.952	34	25
387.997	388.136	46	29
387.997	388.137	50	35
387.998	388.137	41	30
388.001	388.141	34	25
388.182	388.323	46	30
388.183	388.323	50	36
388.186	388.324	41	31
388.187	388.326	34	26
388.368	388.508	46	31
388.372	388.511	34	26
388.372	388.509	41	31
388.372	388.509	50	37
388.553	388.694	46	31
388.554	388.694	50	37
388.557	388.695	41	31
388.558	388.697	34	26
388.739	388.879	46	32
388.739	388.88	50	38
388.743	388.882	34	26
388.743	388.88	41	31
388.931	389.072	46	33
388.931	389.072	50	39
388.932	389.073	41	31
388.935	389.073	34	26
389.116	389.257	46	33
389.117	389.258	34	26
389.117	389.257	50	39
389.121	389.26	41	31
389.303	389.442	46	34
389.303	389.443	50	40
389.306	389.445	34	26
389.306	389.446	41	31
389.488	389.628	46	34
389.491	389.628	50	40
389.492	389.629	34	26
389.492	389.632	41	31
389.674	389.82	46	34
389.677	389.821	34	26
389.677	389.821	50	40
389.678	389.824	41	31
389.866	390.006	46	34
389.867	390.006	50	40
389.869	390.007	34	26
389.869	390.01	41	31
390.052	390.191	46	34
390.055	390.192	34	25
390.055	390.195	41	30
390.055	390.192	50	40
390.237	390.376	48	34
390.238	390.377	34	25
390.238	390.377	52	40
390.24	390.381	43	30
390.422	390.562	48	34
390.423	390.562	52	40
390.426	390.566	34	25
390.427	390.566	43	30
390.605	391.164	48	39
390.605	391.164	53	46
390.606	390.748	33	25
390.608	390.751	41	30
390.793	390.934	33	25
390.797	390.937	41	30
390.983	391.122	33	25
390.983	391.123	41	30
391.168	391.259	57	40
391.171	391.305	33	25
391.171	391.305	41	30
391.259	391.353	55	40
391.354	391.493	33	25
391.354	391.444	53	45
391.355	391.493	41	30
391.535	391.676	33	25
391.539	391.679	41	30
391.724	391.861	33	25
391.725	391.864	41	30
391.91	392.053	33	25
391.91	392.058	41	30
392.058	392.102	83	46
392.103	392.243	32	25
392.103	392.572	84	57
392.106	392.243	41	30
392.288	392.431	32	25
392.288	392.435	41	30
392.477	392.616	32	25
392.48	392.617	41	30
392.572	392.665	82	50
392.666	392.802	32	25
392.666	392.757	80	49
392.667	392.803	41	30
392.758	392.848	79	47
392.848	393.033	77	46
392.851	392.987	32	25
392.851	392.988	41	30
393.037	393.173	32	25
393.038	393.177	41	30
393.226	393.366	32	25
393.226	393.367	41	30
393.418	393.559	32	25
393.419	393.559	41	30
393.562	393.611	88	67
393.611	394.731	89	73
393.612	393.751	31	30
393.615	393.752	41	36
393.793	393.933	31	32
393.796	393.937	41	38
393.981	394.122	31	33
393.982	394.123	41	39
394.168	394.307	31	34
394.169	394.308	41	41
394.353	394.493	31	36
394.354	394.493	41	43
394.539	394.685	31	38
394.539	394.686	41	45
394.732	394.868	32	39
394.732	394.822	89	74
394.734	394.871	41	46
394.822	394.917	87	73
394.917	395.007	86	71
394.92	395.056	32	40
394.92	395.057	41	48
395.011	395.102	84	70
395.102	395.193	83	72
395.105	395.246	31	44
395.106	395.249	41	52
395.197	395.291	84	71
395.295	395.431	31	44
395.295	395.385	86	72
395.298	395.434	41	52
395.389	395.48	87	73
395.48	395.571	89	74
395.481	395.62	32	45
395.484	395.621	41	55
395.575	395.665	87	72
395.666	395.809	32	46
395.666	395.763	86	71
395.669	395.813	41	55
395.764	395.858	84	69
395.858	395.949	83	72
395.859	395.998	31	48
395.862	395.999	41	58
395.953	396.043	84	75
396.044	396.18	31	51
396.044	396.18	41	60
396.044	396.135	86	77
396.135	396.229	87	80
396.229	396.369	32	54
396.229	396.32	89	80
396.233	396.37	41	64
396.321	396.411	87	80
396.414	396.513	86	79
396.418	396.55	32	56
396.418	396.555	41	66
396.513	396.603	84	81
396.607	396.698	83	85
396.608	397.0	31	70
396.608	396.995	41	85
396.699	396.789	84	89
396.793	396.891	86	94
396.891	396.996	87	98
396.996	397.087	89	100
396.999	397.933	43	81
396.999	397.937	55	96
397.087	397.181	87	98
397.181	397.279	86	96
397.28	397.373	84	94
397.374	397.465	83	93
397.466	397.555	80	91
397.559	397.65	79	89
397.651	397.741	77	87
397.745	397.835	75	85
397.839	397.938	74	83
397.938	398.028	72	81
397.941	398.029	57	67
398.031	398.119	71	79
398.032	398.123	59	70
398.123	398.276	72	93
398.126	398.277	60	72
398.532	398.697	67	83
398.533	398.698	43	56
398.536	398.698	55	66
398.973	399.154	63	72
398.976	399.155	39	52
398.977	399.155	51	62
399.449	399.684	60	64
399.453	399.685	36	48
399.453	399.685	48	57
400.076	401.987	56	60
400.079	401.987	32	46
400.079	401.988	44	54
401.99	402.144	73	54
401.991	402.145	61	37
402.409	402.585	68	52
402.41	402.586	56	33
402.868	403.068	65	48
402.869	403.069	53	32
403.397	403.646	61	43
403.398	403.646	49	29
404.069	405.994	58	39
404.073	405.995	34	24
404.073	405.995	46	29
405.997	406.138	63	41
406.088	406.183	67	37
406.187	406.278	70	37
406.278	406.375	75	37
406.376	406.519	58	37
406.467	406.565	67	37
406.568	406.659	70	37
406.662	406.757	75	37
406.76	406.897	55	37
406.852	406.943	67	37
406.946	407.04	70	37
407.045	407.135	75	37
407.139	407.278	51	37
407.233	407.331	67	37
407.334	407.433	70	37
407.433	407.524	75	37
407.524	407.67	53	35
407.621	407.716	65	37
407.716	407.811	68	37
407.811	407.909	75	37
407.909	408.052	56	38
407.999	408.101	65	41
408.101	408.192	71	41
408.192	408.283	74	41
408.287	408.43	57	39
408.384	408.476	63	45
408.476	408.566	66	45
408.571	408.668	74	45
408.669	408.815	54	37
408.77	408.868	63	39
408.868	408.958	69	39
408.959	409.057	72	39
409.06	409.204	55	46
409.155	409.253	62	44
409.257	409.354	67	44
409.355	409.445	72	44
409.449	409.595	54	44
409.544	409.644	62	48
409.645	409.743	67	48
409.743	409.841	72	48
409.844	409.991	55	60
409.938	410.037	62	53
410.04	410.138	67	53
410.138	410.236	71	53
410.237	410.38	43	56
410.334	410.436	62	58
410.436	410.533	65	59
410.534	410.652	71	59
410.656	410.845	64	68
410.657	412.148	36	70
410.657	410.848	72	84
410.659	410.849	48	70
410.849	410.985	64	37
410.85	411.031	48	31
410.939	411.034	60	33
410.94	411.034	55	26
411.035	411.171	64	37
411.038	411.216	48	31
411.125	411.219	55	27
411.125	411.217	60	33
411.22	411.356	64	36
411.224	411.402	48	31
411.31	411.402	60	33
411.311	411.403	55	27
411.405	411.541	64	36
411.409	411.587	48	31
411.497	411.591	55	26
411.497	411.588	60	33
411.591	411.727	64	37
411.595	411.773	48	31
411.682	411.776	55	27
411.682	411.776	60	33
411.78	411.961	48	31
411.78	411.912	64	36
411.867	411.961	60	33
411.868	411.962	55	27
411.965	412.102	64	36
411.966	412.148	48	31
412.053	412.149	55	25
412.053	412.148	60	33
412.151	412.333	48	31
412.151	412.283	64	37
412.238	412.333	60	33
412.239	412.334	55	26
412.334	412.476	64	37
412.336	412.514	48	31
412.43	412.519	60	33
412.431	412.521	55	26
412.522	412.704	48	31
412.522	412.655	64	37
412.616	412.707	55	27
412.616	412.704	60	33
412.707	412.843	64	36
412.708	412.889	48	31
412.802	412.89	55	27
412.802	412.89	60	33
412.892	413.029	64	36
412.893	413.075	48	31
412.984	413.075	55	26
412.984	413.075	60	33
413.078	413.26	48	31
413.078	413.214	64	37
413.165	413.261	60	33
413.166	413.261	55	27
413.263	413.4	66	36
413.264	413.452	48	31
413.351	413.453	57	27
413.351	413.453	62	33
413.454	413.589	66	36
413.457	413.638	48	31
413.536	413.638	62	33
413.54	413.639	57	25
413.642	413.823	47	26
413.642	414.194	67	46
413.643	413.824	50	31
413.729	413.827	55	25
413.828	414.009	47	26
413.828	414.013	50	31
413.915	414.013	55	25
414.014	414.195	47	26
414.014	414.195	50	31
414.104	414.198	55	25
414.199	414.38	47	26
414.199	414.289	71	40
414.201	414.38	50	31
414.289	414.387	69	40
414.29	414.387	55	25
414.387	414.474	67	45
414.391	414.573	47	26
414.391	414.573	50	31
414.475	414.574	55	25
414.576	414.759	47	26
414.577	414.759	50	31
414.667	414.759	55	25
414.761	414.944	47	26
414.762	414.945	50	31
414.849	414.947	55	25
414.947	415.132	47	26
414.948	415.136	50	31
415.035	415.139	55	25
415.09	415.14	85	46
415.14	415.605	86	57
415.141	415.322	47	26
415.143	415.322	50	31
415.227	415.325	55	25
415.325	415.507	47	26
415.326	415.508	50	31
415.412	415.508	55	25
415.51	415.7	47	26
415.511	415.7	50	31
415.609	415.7	84	48
415.61	415.704	55	25
415.704	415.885	47	26
415.704	415.79	83	47
415.705	415.886	50	31
415.791	415.886	81	45
415.794	415.889	55	25
415.889	416.071	79	44
415.89	416.071	47	26
415.89	416.071	50	31
415.976	416.072	55	25
416.075	416.256	47	26
416.075	416.256	50	31
416.161	416.257	55	25
416.26	416.445	47	26
416.26	416.448	50	31
416.348	416.449	55	25
416.452	416.638	47	26
416.453	416.638	50	31
416.54	416.641	55	25
416.641	416.777	65	40
416.645	418.129	38	33
416.645	416.823	50	33
416.732	416.824	62	36
416.826	416.963	65	40
416.827	417.009	50	34
416.918	417.013	57	28
416.918	417.013	62	36
417.016	417.198	50	34
417.016	417.148	65	40
417.103	417.198	62	36
417.104	417.199	57	29
417.201	417.383	50	34
417.201	417.338	65	39
417.289	417.384	57	29
417.289	417.384	62	36
417.384	417.52	65	39
417.386	417.569	50	34
417.474	417.569	57	28
417.474	417.569	62	36
417.57	417.708	65	41
417.572	417.75	50	34
417.66	417.757	57	29
417.66	417.754	62	36
417.758	417.94	50	34
417.758	417.891	65	40
417.845	417.94	57	30
417.845	417.94	62	37
417.943	418.132	50	35
417.943	418.079	65	40
418.03	418.132	62	37
418.034	418.136	57	28
418.137	418.318	50	35
418.137	418.269	65	41
418.223	418.318	57	29
418.223	418.318	62	37
418.322	418.503	50	35
418.322	418.458	65	41
418.408	418.504	57	29
418.408	418.503	62	37
418.507	418.644	65	42
418.508	418.688	50	35
418.598	418.689	57	30
418.598	418.689	62	37
418.689	418.829	65	41
418.693	418.874	50	35
418.78	418.874	57	30
418.78	418.874	62	38
418.875	419.014	65	41
418.878	419.059	50	36
418.966	419.06	57	29
418.966	419.06	62	38
419.063	419.203	65	42
419.064	419.252	50	36
419.151	419.252	62	38
419.154	419.252	57	31
419.253	419.388	68	41
419.256	419.434	50	36
419.343	419.438	64	38
419.344	419.439	59	31
419.441	419.574	68	42
419.442	419.626	50	36
419.529	419.63	64	38
419.532	419.631	59	29
419.631	420.187	69	55
419.634	419.812	48	30
419.634	419.816	52	37
419.721	419.817	57	29
419.819	420.001	48	30
419.819	420.002	52	37
419.907	420.002	57	29
420.002	420.187	48	30
420.004	420.188	52	37
420.092	420.188	57	29
420.19	420.372	48	30
420.19	420.277	72	48
420.191	420.373	52	37
420.278	420.373	71	48
420.282	420.375	57	29
420.375	420.47	69	53
420.376	420.564	48	30
420.379	420.565	52	37
420.471	420.565	57	29
420.566	420.747	48	30
420.569	420.75	52	37
420.655	420.751	57	29
420.751	420.932	48	30
420.754	420.936	52	37
420.841	420.936	57	29
420.94	421.125	48	30
420.94	421.128	52	37
421.026	421.128	57	29
421.079	421.129	87	55
421.132	421.31	48	30
421.132	421.597	88	68
421.133	421.314	52	37
421.22	421.314	57	29
421.314	421.503	48	30
421.317	421.506	52	37
421.405	421.506	57	29
421.507	421.688	48	30
421.507	421.689	52	37
421.598	421.692	57	29
421.598	421.692	86	58
421.693	421.783	84	57
421.695	421.877	48	30
421.696	421.878	52	38
421.783	421.878	83	55
421.784	421.879	57	30
421.881	422.06	48	31
421.881	422.063	52	38
421.881	422.059	81	55
421.968	422.064	57	30
422.066	422.245	48	31
422.067	422.249	52	39
422.154	422.249	57	30
422.249	422.43	48	31
422.252	422.434	52	39
422.339	422.435	57	31
422.437	422.629	48	33
422.437	422.63	52	39
422.532	422.63	57	31
422.577	422.634	83	61
422.634	422.815	53	34
422.634	423.095	84	78
422.636	422.815	57	41
422.721	422.819	60	33
422.819	423.001	53	35
422.82	423.002	57	41
422.906	423.004	60	34
423.005	423.186	53	35
423.005	423.187	57	42
423.095	423.187	83	68
423.096	423.19	60	34
423.19	423.379	53	35
423.19	423.28	81	67
423.194	423.38	57	42
423.281	423.382	60	34
423.281	423.38	80	64
423.382	423.565	81	63
423.383	423.565	53	36
423.386	423.565	57	44
423.474	423.567	62	35
423.568	423.75	53	37
423.568	423.75	57	45
423.655	423.751	62	36
423.753	423.935	53	37
423.754	423.936	57	45
423.845	423.938	62	37
423.939	424.149	53	38
423.942	424.153	57	46
424.033	424.153	62	37
424.079	424.153	83	63
424.156	424.341	53	35
424.156	424.342	57	43
424.156	424.621	84	81
424.25	424.345	63	34
424.345	424.527	53	36
424.348	424.53	57	43
424.432	424.531	63	35
424.531	424.712	53	37
424.534	424.716	57	44
424.622	424.717	83	72
424.625	424.717	63	36
424.719	424.807	81	71
424.72	424.901	53	37
424.72	424.902	57	44
424.807	424.902	80	67
424.808	424.903	63	36
424.904	424.992	81	70
424.905	425.087	53	38
424.905	425.087	57	47
424.992	425.088	80	66
424.993	425.088	60	37
425.091	425.276	53	38
425.091	425.184	81	66
425.092	425.277	57	47
425.185	425.279	83	66
425.186	425.279	60	37
425.283	425.37	84	69
425.284	425.461	53	47
425.37	425.462	85	70
425.371	425.465	57	39
425.465	425.566	86	71
425.469	425.699	53	49
425.57	425.703	57	39
425.57	425.699	87	74
425.703	426.192	88	68
425.706	425.812	52	40
425.794	425.909	56	35
425.891	426.0	59	35
425.99	426.085	64	35
426.085	426.196	52	41
426.182	426.291	86	54
426.183	426.294	56	35
426.273	426.385	84	53
426.274	426.385	59	35
426.368	426.462	64	35
426.368	426.476	83	51
426.463	426.574	52	39
426.463	426.571	84	53
426.56	426.669	83	52
426.561	426.672	57	35
426.651	426.764	60	35
426.651	426.764	81	51
426.746	426.836	64	35
426.746	426.854	80	50
426.837	426.952	81	50
426.841	426.956	52	40
426.931	427.044	84	52
426.932	427.044	57	35
427.029	427.142	60	35
427.029	427.141	83	50
427.12	427.232	81	50
427.124	427.215	64	35
427.215	427.327	80	50
427.218	427.327	52	40
427.309	427.422	59	35
427.309	427.422	78	49
427.401	427.512	76	48
427.404	427.513	62	35
427.494	427.603	75	47
427.495	427.593	64	35
427.593	427.698	76	49
427.596	427.698	52	40
427.688	427.796	59	35
427.688	427.795	78	49
427.778	427.89	79	49
427.782	427.891	62	35
427.873	427.981	80	50
427.874	427.964	64	35
427.964	428.073	81	50
427.965	428.076	52	40
428.066	428.175	57	35
428.066	428.174	80	50
428.156	428.265	81	51
428.157	428.268	60	35
428.247	428.36	83	51
428.248	428.342	64	35
428.342	428.457	84	49
428.343	428.458	52	40
428.439	428.548	85	50
428.44	428.552	57	35
428.534	428.661	86	52
428.535	428.664	60	35
428.639	428.758	64	35
428.639	428.772	87	53
428.761	428.87	88	55
428.762	428.871	52	40
428.853	428.961	87	53
428.856	428.961	56	35
428.951	429.062	88	53
428.954	429.063	59	35
429.046	429.136	64	35
429.046	429.157	87	50
429.139	429.248	88	52
429.14	429.249	52	40
429.234	429.346	86	52
429.238	429.347	56	35
429.329	429.441	59	35
429.329	429.44	84	51
429.423	429.532	83	50
429.424	429.514	64	35
429.518	429.623	84	52
429.519	429.627	52	40
429.612	429.725	83	51
429.616	429.725	57	35
429.706	429.815	81	49
429.707	429.816	60	35
429.801	429.906	80	50
429.802	429.892	64	35
429.892	430.0	81	50
429.893	430.001	52	41
429.984	430.096	57	35
429.984	430.095	84	53
430.077	430.186	83	50
430.078	430.19	60	35
430.176	430.267	64	35
430.176	430.285	81	50
430.267	430.378	80	50
430.27	430.379	52	40
430.361	430.473	78	49
430.362	430.473	59	35
430.456	430.564	76	48
430.457	430.568	62	35
430.547	430.659	75	47
430.548	430.641	64	35
430.642	430.753	76	49
430.644	430.754	52	40
430.732	430.844	78	50
430.735	430.845	59	36
430.827	430.936	79	50
430.83	430.936	62	36
430.921	431.019	64	36
430.921	431.029	80	52
431.02	431.122	52	42
431.02	431.121	81	52
431.11	431.215	80	52
431.114	431.215	57	36
431.205	431.314	60	37
431.205	431.314	81	54
431.295	431.408	83	54
431.296	431.39	64	37
431.391	431.499	52	42
431.391	431.499	84	56
431.481	431.594	85	58
431.482	431.594	57	37
431.576	431.692	60	37
431.576	431.691	86	60
431.673	431.789	87	62
431.674	431.772	64	38
431.775	432.15	88	68
431.776	432.15	52	44
431.867	432.15	83	60
431.87	432.15	56	38
431.965	432.15	80	61
431.968	432.15	59	38
432.055	432.15	76	61
432.056	432.15	64	38
432.146	432.528	75	75
432.147	432.528	63	50
432.245	432.528	76	63
432.248	432.528	64	41
432.338	432.528	81	63
432.339	432.528	60	40
432.431	432.528	84	63
432.433	432.528	57	41
432.524	432.899	88	74
432.525	432.899	52	52
432.616	432.899	83	65
432.618	432.899	56	44
432.711	432.899	59	45
432.711	432.899	80	68
432.802	432.899	76	68
432.804	432.899	64	45
432.896	433.274	63	60
432.896	433.274	75	80
432.987	433.274	76	71
432.989	433.274	64	51
433.089	433.274	60	51
433.089	433.274	81	71
433.18	433.274	84	72
433.182	433.274	57	52
433.27	433.645	88	91
433.274	433.645	52	63
433.365	433.647	83	82
433.366	433.647	56	52
433.459	433.647	59	52
433.459	433.647	80	82
433.551	433.647	76	82
433.554	433.647	64	52
433.645	434.016	52	63
433.645	434.016	88	91
433.742	434.019	84	82
433.743	434.019	57	52
433.83	434.019	81	82
433.831	434.019	60	52
433.921	434.019	76	82
433.924	434.019	64	52
434.016	434.394	52	63
434.016	434.394	88	91
434.114	434.397	83	82
434.117	434.397	56	52
434.208	434.397	59	52
434.208	434.397	80	81
434.299	434.397	76	81
434.302	434.397	64	52
434.394	434.765	52	63
434.394	434.764	88	91
434.485	434.769	84	81
434.488	434.769	57	52
434.578	434.769	81	81
434.579	434.769	60	52
434.671	434.769	76	82
434.673	434.768	64	52
434.764	436.274	88	91
434.765	436.274	52	54
434.765	436.274	56	54
434.768	436.274	59	54
434.768	436.172	64	63
434.856	435.146	83	82
434.954	435.234	80	82
435.049	435.328	76	82
435.146	436.274	83	91
435.234	435.517	80	82
435.328	435.612	76	82
435.42	435.706	71	82
435.517	436.274	80	91
435.612	435.895	76	82
435.706	435.989	71	81
435.797	436.081	68	81
435.895	436.274	76	91
435.989	436.274	71	81
436.081	436.274	68	81
436.172	436.274	64	82
436.274	437.796	71	91
436.367	436.645	68	81
436.459	436.743	64	80
436.55	436.833	59	80
436.645	437.796	68	89
436.743	437.023	64	79
436.833	437.12	59	79
436.928	437.211	56	78
437.023	437.796	64	87
437.12	437.796	59	78
437.211	437.796	56	77
437.306	437.694	52	77
437.404	437.792	40	85
437.497	437.796	44	76
437.59	437.796	47	76
437.694	437.796	52	75
437.792	437.886	40	77
437.977	438.076	52	68
438.17	438.264	42	73
438.355	438.454	54	66
438.548	438.639	76	75
438.549	438.64	44	71
438.73	438.831	64	69
438.734	438.832	56	65
438.922	439.024	78	74
439.115	439.216	66	65
439.314	439.413	44	69
439.314	439.413	80	71
439.507	439.598	68	64
439.508	439.598	56	61
439.696	439.79	45	65
439.881	439.983	57	59
440.08	440.172	80	67
440.081	440.173	47	65
440.266	440.365	68	53
440.267	440.365	59	54
440.462	440.557	81	59
440.655	440.752	69	50
440.851	440.945	83	52
441.043	441.134	71	49
441.236	441.334	85	52
441.431	441.526	73	49
441.625	441.723	47	41
441.625	441.722	86	52
441.82	441.918	74	48
441.824	441.922	59	36
442.017	442.119	49	41
442.017	442.118	86	52
442.209	442.311	76	46
442.21	442.311	61	36
442.408	442.506	86	51
442.409	442.507	50	40
442.605	442.703	78	46
442.608	442.706	62	37
442.8	442.902	86	51
442.804	442.903	52	39
443.0	443.106	64	36
443.0	443.105	80	46
443.203	443.301	54	38
443.203	443.301	86	51
443.399	443.504	81	47
443.4	443.507	66	37
443.609	443.714	56	40
443.609	443.713	86	50
443.829	443.952	83	46
443.83	443.952	68	37
444.085	444.967	73	42
444.086	444.967	76	42
444.088	444.97	81	42
444.089	444.974	61	33
444.089	444.971	64	33
444.089	444.971	85	55
444.092	444.974	69	39
444.093	444.974	57	33
444.977	445.397	71	40
444.978	445.398	76	40
444.978	445.398	80	40
444.979	445.401	83	52
444.981	445.404	56	29
444.981	445.402	59	29
444.981	445.402	64	35
444.984	445.405	52	29
445.405	445.867	69	40
445.408	445.867	73	40
445.409	445.87	78	40
445.409	445.87	81	52
445.411	445.874	57	29
445.412	445.875	54	29
445.412	445.874	61	29
445.412	445.874	66	35
445.877	446.755	68	42
445.877	446.755	71	42
445.878	446.756	77	42
445.881	446.759	49	33
445.881	446.76	61	39
445.881	446.759	80	55
445.882	446.762	56	33
445.884	446.762	53	33
446.763	447.665	74	40
446.766	447.669	66	40
446.766	447.67	69	40
446.767	447.67	78	52
446.769	447.673	50	28
446.769	447.672	54	28
446.77	447.673	57	28
446.77	447.673	62	34
447.676	448.564	68	49
447.677	448.568	74	49
447.677	448.569	76	49
447.679	448.571	47	37
447.679	448.569	80	63
447.68	448.572	52	45
447.68	448.572	56	37
447.683	448.573	59	45
448.575	449.037	69	50
448.576	449.037	76	50
448.576	449.038	81	66
448.579	449.041	57	40
448.58	449.041	49	40
448.58	449.042	52	40
448.582	449.044	61	49
449.044	449.542	71	55
449.048	449.545	78	55
449.049	449.546	59	46
449.049	449.545	81	55
449.049	449.546	83	72
449.051	449.549	50	36
449.051	449.548	62	55
449.055	449.549	54	41
449.552	450.441	73	59
449.553	450.906	76	59
449.553	450.441	81	59
449.554	450.441	85	77
449.556	451.376	52	49
449.556	450.445	57	49
449.556	450.445	61	49
449.557	450.446	64	59
450.448	451.379	71	33
450.448	451.379	80	32
450.449	451.38	83	49
450.452	451.383	56	27
450.452	451.383	59	27
450.452	451.372	64	32
450.907	451.384	74	55
451.384	452.254	64	37
451.386	452.255	60	35
451.386	452.255	69	37
451.386	452.255	72	45
451.387	452.257	57	29
452.258	452.685	64	36
452.258	452.685	67	36
452.258	452.686	71	43
452.261	452.686	59	31
452.262	452.688	52	26
452.262	452.688	55	26
452.689	453.139	60	36
452.689	453.144	65	36
452.692	453.146	57	31
452.692	453.144	69	43
452.693	453.147	53	26
453.147	454.022	60	37
453.148	454.025	64	37
453.15	454.025	67	45
453.151	454.029	52	29
453.151	454.029	55	35
453.152	454.029	48	29
454.03	454.928	62	36
454.032	454.933	53	30
454.032	454.932	57	36
454.032	454.932	65	43
454.033	454.935	50	25
454.935	455.376	60	44
454.936	455.379	64	44
454.939	455.38	48	35
454.939	455.38	52	35
454.939	455.817	67	52
454.94	456.716	43	26
455.38	456.717	62	45
455.384	456.721	50	35
455.384	456.721	53	35
455.384	456.72	65	45
455.818	456.255	69	61
456.255	456.723	71	69
456.724	456.867	60	41
456.724	456.867	64	41
456.727	457.165	48	37
456.727	456.828	72	51
456.728	457.165	52	40
456.871	456.978	74	48
457.017	457.129	76	49
457.168	457.28	77	50
457.315	457.423	79	50
457.465	457.578	81	51
457.612	457.728	82	52
457.759	457.872	83	48
457.907	458.015	84	49
458.06	458.166	85	51
458.204	458.312	86	53
458.347	458.46	87	54
458.491	459.366	84	48
458.495	458.639	88	58
458.496	459.367	76	44
458.498	459.367	72	37
458.639	458.781	87	53
458.785	458.929	88	53
458.929	459.075	89	53
459.076	459.219	87	53
459.219	459.367	88	53
459.369	459.786	83	60
459.37	459.793	71	33
459.37	459.79	74	40
459.37	459.786	77	40
459.373	459.793	68	33
459.503	459.642	88	54
459.643	459.794	86	54
459.794	460.234	72	40
459.794	460.234	76	60
459.797	460.238	69	33
459.933	460.084	86	53
460.084	460.238	84	53
460.241	461.106	80	60
460.242	461.107	71	44
460.242	461.106	74	44
460.243	461.109	68	37
460.245	461.109	64	37
460.377	460.525	82	54
460.525	460.671	83	54
460.672	460.815	84	54
460.815	460.965	82	54
460.969	461.109	83	54
461.11	462.001	77	60
461.113	462.002	72	39
461.114	462.002	65	32
461.114	462.002	69	39
461.25	461.396	80	54
461.396	461.539	81	54
461.543	461.697	83	54
461.701	461.848	80	54
461.85	462.005	81	54
462.006	462.877	62	39
462.006	462.876	77	62
462.008	462.877	65	47
462.009	462.88	67	39
462.009	462.881	71	47
462.145	462.292	82	62
462.293	462.439	83	57
462.443	462.586	84	57
462.587	462.73	82	59
462.733	462.881	83	59
462.883	463.307	79	71
462.884	463.308	64	45
462.884	463.308	67	45
462.884	463.308	72	53
463.02	463.167	86	63
463.168	463.31	84	64
463.311	463.766	72	56
463.311	463.766	81	74
463.314	463.766	74	57
463.315	463.767	65	45
463.315	463.768	69	48
463.458	463.608	88	65
463.609	463.769	86	65
463.769	463.909	88	79
463.77	464.634	84	79
463.773	465.078	67	53
463.773	464.637	72	53
463.774	464.637	76	65
463.91	464.049	87	72
464.049	464.199	88	72
464.203	464.343	91	68
464.347	464.491	89	72
464.491	464.638	88	69
464.641	464.78	83	67
464.642	465.078	71	45
464.642	464.781	86	67
464.644	465.079	74	53
464.781	464.924	81	64
464.785	464.925	84	64
464.927	465.079	83	60
464.928	465.082	79	60
465.082	465.225	77	60
465.083	465.229	55	44
465.083	465.228	81	60
465.232	465.376	76	56
465.233	465.379	57	43
465.233	465.379	79	56
465.383	465.533	74	53
465.383	465.536	77	53
465.384	465.537	59	41
465.54	466.398	67	57
465.541	466.402	60	37
465.541	466.402	64	45
465.541	465.68	76	57
465.68	465.823	75	49
465.827	465.971	76	49
465.971	466.114	77	49
466.115	466.254	75	49
466.255	466.405	76	49
466.405	466.824	65	56
466.406	466.825	62	41
466.409	466.828	56	33
466.409	466.825	59	33
466.544	466.685	76	50
466.685	466.829	74	50
466.829	467.276	64	56
466.831	467.276	60	41
466.832	467.28	57	33
466.975	467.125	74	49
467.126	467.28	72	49
467.281	468.147	59	37
467.283	468.148	56	37
467.283	468.148	62	56
467.284	468.151	52	37
467.419	467.567	70	50
467.568	467.711	71	50
467.711	467.857	72	53
467.858	468.001	70	50
468.001	468.152	71	50
468.152	469.04	53	39
468.152	469.041	57	39
468.154	469.043	60	32
468.291	468.438	65	50
468.439	468.582	68	50
468.585	468.732	69	53
468.733	468.886	68	50
468.886	469.044	69	50
469.044	469.495	60	60
469.048	470.86	43	46
469.048	469.495	48	52
469.048	469.495	52	55
469.187	469.495	64	56
469.331	469.495	67	57
469.492	469.94	62	66
469.493	470.86	50	55
469.493	470.86	53	58
469.632	469.947	65	61
469.786	469.947	67	61
469.94	470.399	62	74
470.094	470.402	65	67
470.244	470.402	69	65
470.399	470.86	62	80
470.545	470.86	65	71
470.696	470.86	71	70
470.857	471.578	64	77
470.858	471.735	36	50
470.858	471.735	72	82
470.86	471.735	48	60
471.0	471.291	55	75
471.144	471.735	52	77
471.291	472.167	43	60
471.291	471.735	55	82
471.439	471.735	60	77
471.578	471.735	64	77
471.729	472.31	62	82
471.872	472.167	59	77
472.026	472.611	55	77
472.167	473.044	43	60
472.167	472.611	59	82
472.31	472.611	62	77
472.456	472.611	65	77
472.607	473.181	64	82
472.751	473.042	60	75
472.894	473.482	55	77
473.042	473.482	60	82
473.044	473.916	43	60
473.181	473.482	64	77
473.325	473.482	67	77
473.478	474.052	65	82
473.615	474.196	62	77
473.762	474.34	59	77
473.915	474.34	71	82
473.916	474.34	43	60
474.052	474.34	65	77
474.196	474.34	62	77
474.337	475.2	64	63
474.339	474.907	48	73
474.339	475.2	72	75
474.483	474.77	43	67
474.62	475.2	40	69
474.77	475.2	43	73
474.77	475.627	67	75
474.907	475.2	48	69
475.05	475.2	52	69
475.196	475.771	50	73
475.336	475.628	47	69
475.481	476.065	43	69
475.627	476.489	67	75
475.628	476.065	47	73
475.771	476.065	50	69
475.91	476.065	53	69
476.061	476.629	52	73
476.198	476.492	48	67
476.345	476.925	43	69
476.489	477.356	67	75
476.492	476.925	48	73
476.629	476.925	52	69
476.776	476.925	55	69
476.919	477.5	53	73
477.066	477.641	50	69
477.21	477.794	47	69
477.356	477.794	67	75
477.357	477.794	59	73
477.5	477.794	53	69
477.641	477.794	50	69
477.793	478.361	72	82
477.794	478.362	52	64
477.931	478.214	67	75
477.934	478.217	55	56
478.078	478.655	60	56
478.078	478.655	64	77
478.214	478.655	67	82
478.217	478.655	55	64
478.361	478.655	72	77
478.362	478.655	52	57
478.5	478.655	76	77
478.501	478.655	48	57
478.651	479.223	47	64
478.651	479.222	74	82
478.791	479.075	71	77
478.792	479.075	50	56
478.935	479.512	67	77
478.936	479.512	53	56
479.075	479.512	50	64
479.075	479.512	71	82
479.222	479.512	74	77
479.223	479.512	47	57
479.359	479.512	77	77
479.362	479.512	43	58
479.509	480.073	76	82
479.513	480.075	48	64
479.649	479.933	72	75
479.65	479.936	52	56
479.789	480.374	55	56
479.789	480.374	67	77
479.933	480.374	72	82
479.936	480.374	52	64
480.073	480.374	76	77
480.075	480.374	48	57
480.219	480.374	79	77
480.22	480.374	43	57
480.367	480.951	77	82
480.37	481.238	47	64
480.514	481.088	74	77
480.515	480.811	53	56
480.654	481.238	71	77
480.657	480.951	55	56
480.81	481.238	83	82
480.811	481.238	53	64
480.951	481.238	55	57
480.951	481.238	77	77
481.088	481.238	74	77
481.09	481.238	62	58
481.234	482.085	84	82
481.235	481.795	52	64
481.371	481.659	79	74
481.375	481.938	55	55
481.512	481.795	76	74
481.514	482.085	60	55
481.659	482.085	48	62
481.659	482.085	79	79
481.795	482.085	52	55
481.795	482.085	76	73
481.934	482.085	72	72
481.938	482.085	55	54
482.081	482.943	77	77
482.084	482.943	50	59
482.226	482.508	53	51
482.226	482.785	74	71
482.365	482.943	71	70
482.366	482.645	55	51
482.505	482.943	83	74
482.508	482.943	53	57
482.645	482.943	55	51
482.645	482.943	79	69
482.785	482.943	74	67
482.786	482.943	62	51
482.939	483.793	84	72
482.942	483.499	52	56
483.076	483.359	79	65
483.078	483.643	55	48
483.219	483.793	60	48
483.219	483.496	76	65
483.359	483.793	48	54
483.359	483.793	79	70
483.496	483.793	76	64
483.499	483.793	52	48
483.643	483.793	55	47
483.643	483.793	72	63
483.789	484.639	77	67
483.79	484.639	50	51
483.926	484.483	74	62
483.93	484.207	53	44
484.067	484.639	71	60
484.069	484.345	55	44
484.206	484.639	83	64
484.207	484.639	53	50
484.343	484.639	79	59
484.345	484.639	55	44
484.483	484.639	74	58
484.486	484.639	62	44
484.637	484.739	52	50
484.637	484.738	84	64
484.741	484.843	79	58
484.742	484.843	55	43
484.844	484.948	76	58
484.846	484.948	48	43
484.948	485.049	72	59
484.952	485.05	55	44
485.053	485.151	77	65
485.056	485.151	50	51
485.152	485.253	74	59
485.154	485.256	55	44
485.256	485.35	83	62
485.26	485.355	53	44
485.357	485.459	79	63
485.358	485.46	55	44
485.46	485.557	52	52
485.46	485.556	84	69
485.557	485.658	79	63
485.56	485.662	55	46
485.662	485.76	76	63
485.665	485.76	48	47
485.761	485.865	72	64
485.763	485.865	55	49
485.866	485.973	77	71
485.869	485.976	50	55
485.977	486.064	74	66
485.98	486.068	55	48
486.071	486.166	83	67
486.072	486.166	53	48
486.17	486.278	55	49
486.17	486.277	79	67
486.278	486.372	84	74
486.281	486.376	52	58
486.377	486.474	79	67
486.379	486.474	55	50
486.475	486.578	83	69
486.477	486.579	53	51
486.582	486.677	79	69
486.583	486.678	55	52
486.68	486.778	84	77
486.681	486.778	52	60
486.779	486.877	55	52
486.779	486.877	79	77
486.877	486.978	83	72
486.879	486.979	53	52
486.979	487.076	79	73
486.982	487.079	55	54
487.079	487.178	84	80
487.08	487.178	52	62
487.178	487.275	79	73
487.181	487.276	55	55
487.276	487.373	83	74
487.278	487.373	53	55
487.377	487.472	79	74
487.378	487.475	55	57
487.475	487.569	84	82
487.479	487.572	52	65
487.573	487.667	79	85
487.576	487.668	55	57
487.671	487.769	83	78
487.674	487.769	53	57
487.772	487.878	55	58
487.772	487.877	79	79
487.881	487.973	52	70
487.881	487.972	84	89
487.975	488.07	79	81
487.976	488.07	55	60
488.071	488.167	82	81
488.073	488.168	40	60
488.168	488.269	79	81
488.172	488.27	48	62
488.27	488.466	82	89
488.271	488.469	40	70
488.368	488.567	79	83
488.371	488.567	48	60
488.466	488.665	82	82
488.469	488.666	40	60
488.567	488.767	48	60
488.567	488.763	79	82
488.665	488.854	82	89
488.666	488.858	40	70
488.763	488.955	79	81
488.767	488.956	48	60
488.854	489.053	82	81
488.858	489.053	40	60
488.955	489.153	79	81
488.956	489.153	48	62
489.053	489.253	40	70
489.053	489.25	82	89
489.153	489.344	48	60
489.153	489.344	79	83
489.25	489.449	82	82
489.253	489.45	40	60
489.344	489.45	48	60
489.344	489.45	79	82
489.449	490.212	82	89
489.45	489.641	40	70
489.54	489.734	48	60
489.641	489.827	40	60
489.641	490.212	81	81
489.733	490.212	79	81
489.734	489.926	48	62
489.827	490.019	40	70
489.827	490.212	77	84
489.925	490.212	76	78
489.926	490.118	48	60
490.017	490.212	74	78
490.019	490.209	40	60
490.114	490.212	72	80
490.118	490.212	48	61
490.208	490.972	70	84
490.209	490.401	40	71
490.303	490.972	69	80
490.304	490.495	48	61
490.401	490.587	40	61
490.401	490.972	67	80
490.492	490.972	65	81
490.495	490.685	48	63
490.586	490.972	64	86
490.587	490.779	40	72
490.684	490.972	62	84
490.685	490.878	48	62
490.778	490.972	60	85
490.779	490.972	40	62
490.877	490.972	58	85
490.878	490.972	48	62
490.969	491.059	57	93
490.971	491.104	41	67
490.971	491.108	45	67
490.972	491.108	48	80
491.063	491.153	59	81
491.154	491.293	41	60
491.154	491.244	60	81
491.156	491.293	45	60
491.157	491.294	48	73
491.245	491.339	59	81
491.339	491.433	60	92
491.434	491.531	64	81
491.532	491.675	41	60
491.532	491.622	65	81
491.535	491.675	45	60
491.536	491.676	48	73
491.623	491.72	64	82
491.724	491.86	41	67
491.724	491.861	45	67
491.724	491.814	65	93
491.728	491.861	48	80
491.815	491.906	68	80
491.906	492.001	69	80
491.909	492.053	41	60
491.909	492.053	45	60
491.91	492.054	48	73
492.001	492.098	68	81
492.099	492.193	69	93
492.194	492.284	71	83
492.284	492.386	72	83
492.287	492.43	41	60
492.287	492.431	45	60
492.288	492.431	48	73
492.386	492.476	71	83
492.477	492.623	41	67
492.477	492.574	72	95
492.48	492.623	45	67
492.481	492.624	48	78
492.575	492.669	76	84
492.669	492.759	77	84
492.67	492.809	41	60
492.67	492.81	45	60
492.673	492.81	48	73
492.76	492.854	76	84
492.854	492.945	77	95
492.945	493.04	80	82
493.04	493.131	81	82
493.044	493.183	41	60
493.044	493.184	45	60
493.044	493.187	48	73
493.134	493.229	80	82
493.229	493.324	81	95
493.232	493.368	41	67
493.233	493.372	45	67
493.236	493.373	48	78
493.324	493.414	83	82
493.417	493.509	84	82
493.418	493.554	41	60
493.421	493.558	45	60
493.422	493.559	48	73
493.512	493.603	83	82
493.603	493.694	84	95
493.698	493.789	83	82
493.79	493.943	41	60
493.79	493.89	81	83
493.792	493.947	45	60
493.793	493.947	48	73
493.894	493.992	80	83
493.992	494.083	81	95
493.993	494.128	48	67
493.996	494.132	42	67
493.996	494.133	45	67
493.996	494.135	50	78
494.083	494.177	80	83
494.177	494.269	81	83
494.181	494.318	42	60
494.181	494.318	48	60
494.182	494.319	45	60
494.182	494.321	50	73
494.272	494.363	83	83
494.363	494.457	84	95
494.458	494.548	83	85
494.549	494.695	48	60
494.549	494.647	81	85
494.552	494.696	42	60
494.552	494.696	45	60
494.553	494.697	50	73
494.65	494.744	80	85
494.748	494.839	81	95
494.749	494.884	48	67
494.751	494.884	42	67
494.752	494.888	45	67
494.752	494.888	50	78
494.84	494.934	80	84
494.934	495.024	81	84
494.935	495.074	42	60
494.935	495.073	48	60
494.937	495.074	45	60
494.937	495.075	50	73
495.025	495.119	83	84
495.12	495.21	84	95
495.21	495.305	83	84
495.305	495.402	81	84
495.306	495.448	48	60
495.308	495.449	42	60
495.308	495.449	45	60
495.308	495.451	50	73
495.403	495.5	80	84
495.5	495.595	81	95
495.501	495.641	48	67
495.504	495.641	42	67
495.504	495.642	45	67
495.505	495.644	50	78
495.595	495.685	80	84
495.686	495.826	48	60
495.686	495.78	81	84
495.689	495.827	42	60
495.69	495.827	45	60
495.69	495.829	50	73
495.781	495.871	83	84
495.871	495.963	84	95
495.966	496.057	83	83
496.058	496.155	81	83
496.061	496.204	42	60
496.061	496.2	48	60
496.064	496.204	45	60
496.065	496.205	50	73
496.156	496.253	80	83
496.253	496.347	81	95
496.257	496.393	48	67
496.26	496.394	42	67
496.26	496.397	45	67
496.26	496.397	50	78
496.348	496.442	80	83
496.443	496.579	48	60
496.443	496.533	81	83
496.445	496.582	42	60
496.445	496.582	45	60
496.446	496.583	50	73
496.533	496.628	83	83
496.628	496.718	84	95
496.723	496.813	83	84
496.813	496.911	84	84
496.814	496.957	48	60
496.816	496.96	42	60
496.816	496.96	45	60
496.817	496.96	50	73
496.911	497.002	81	86
497.006	497.103	67	87
497.006	497.104	79	103
497.008	497.107	43	78
497.107	497.195	48	70
497.198	497.288	67	73
497.199	497.289	52	70
497.199	497.289	79	87
497.292	497.38	55	70
497.384	497.475	43	77
497.384	497.474	64	74
497.384	497.474	76	88
497.478	497.573	48	70
497.573	497.667	60	73
497.575	497.668	72	87
497.576	497.668	52	70
497.67	497.758	55	70
497.761	497.853	72	87
497.762	497.854	43	75
497.762	497.853	84	103
497.854	497.943	48	70
497.944	498.038	72	73
497.947	498.039	52	70
497.947	498.039	84	87
498.041	498.136	55	70
498.136	498.226	67	73
498.137	498.227	79	87
498.139	498.231	43	75
498.234	498.328	48	70
498.329	498.423	64	73
498.329	498.424	76	87
498.33	498.424	52	70
498.424	498.514	55	70
498.514	498.604	67	87
498.515	498.605	79	103
498.518	498.609	43	78
498.609	498.699	48	70
498.7	498.79	67	73
498.703	498.794	52	70
498.703	498.794	79	87
498.795	498.888	55	70
498.892	498.983	64	74
498.892	498.984	76	88
498.896	498.986	43	77
498.987	499.074	48	70
499.077	499.169	60	73
499.078	499.172	72	87
499.081	499.172	52	70
499.172	499.266	55	70
499.269	499.361	72	87
499.27	499.364	52	75
499.27	499.362	84	103
499.452	499.547	72	73
499.456	499.55	52	70
499.456	499.547	84	87
499.641	499.732	67	73
499.642	499.733	48	75
499.642	499.732	79	87
499.83	499.924	64	73
499.83	499.925	76	87
499.834	499.925	43	70
500.019	500.11	55	86
500.11	500.207	84	47
500.208	500.393	88	50
500.209	500.295	52	47
500.296	500.393	84	47
500.394	500.579	91	51
500.397	500.485	60	53
500.488	500.58	88	47
500.582	500.761	91	50
500.583	500.673	55	48
500.674	500.761	88	47
500.762	500.946	91	51
500.765	500.851	64	52
500.852	500.947	88	47
500.947	501.132	91	50
500.95	501.041	60	41
501.041	501.132	88	47
501.133	501.317	91	52
501.136	501.223	67	50
501.224	501.318	88	47
501.318	501.503	91	51
501.321	501.409	64	41
501.412	501.503	88	47
501.507	501.594	72	50
501.507	501.688	91	50
501.598	501.688	88	47
501.692	501.783	67	41
501.692	501.874	91	50
501.783	501.875	88	47
501.875	502.06	91	51
501.878	501.972	76	50
501.975	502.06	88	47
502.061	502.245	91	50
502.063	502.157	72	39
502.158	502.246	88	47
502.248	502.438	91	51
502.249	502.346	79	50
502.346	502.438	88	47
502.438	502.623	91	50
502.441	502.528	76	41
502.532	502.624	88	47
502.626	502.808	91	52
502.627	502.714	84	50
502.718	502.811	88	47
502.812	502.906	79	42
502.812	503.001	91	51
502.91	503.002	88	47
503.005	503.091	83	46
503.096	503.19	89	42
503.194	503.284	79	37
503.194	503.379	91	45
503.288	503.379	89	41
503.38	503.564	92	44
503.383	503.469	83	43
503.47	503.565	89	40
503.565	503.75	91	42
503.568	503.659	79	36
503.659	503.75	89	39
503.751	503.928	92	42
503.754	503.841	83	41
503.842	503.932	89	38
503.932	504.113	91	40
503.933	504.023	79	32
504.023	504.118	89	37
504.118	504.208	83	39
504.118	504.296	92	40
504.209	504.296	89	36
504.297	504.481	91	39
504.299	504.387	79	31
504.387	504.482	89	35
504.482	504.66	92	37
504.486	504.569	83	36
504.57	504.66	89	34
504.664	504.747	79	30
504.664	504.838	91	36
504.748	504.842	89	34
504.843	505.021	92	37
504.845	504.933	83	36
504.933	505.021	89	34
505.024	505.115	79	31
505.024	505.206	91	36
505.116	505.207	89	34
505.209	505.391	92	37
505.21	505.301	83	36
505.301	505.392	89	34
505.392	505.577	91	36
505.395	505.486	79	29
505.487	505.577	89	34
505.58	505.769	92	38
505.581	505.668	83	36
505.672	505.77	89	34
505.77	505.955	91	37
505.774	505.864	79	30
505.865	505.955	89	34
505.959	506.018	83	37
505.959	506.147	93	37
506.022	506.084	84	32
506.053	506.151	89	34
506.085	506.152	83	36
506.152	506.333	91	36
506.153	506.214	84	31
506.215	506.277	83	36
506.238	506.333	89	35
506.277	506.337	84	33
506.337	506.522	93	38
506.338	506.395	83	37
506.396	506.459	84	33
506.431	506.525	89	36
506.46	506.526	83	37
506.529	506.711	91	38
506.53	506.589	84	33
506.589	506.645	83	38
506.617	506.711	89	36
506.648	506.712	84	34
506.714	506.897	93	40
506.715	506.774	83	38
506.775	506.837	84	35
506.802	506.898	89	37
506.838	506.898	83	39
506.9	507.089	91	40
506.901	506.96	84	35
506.963	507.022	83	39
506.995	507.09	89	38
507.025	507.09	84	36
507.092	507.275	93	43
507.093	507.145	83	40
507.149	507.208	84	36
507.18	507.275	89	39
507.211	507.276	83	40
507.276	507.46	91	43
507.278	507.338	84	36
507.338	507.397	83	41
507.365	507.461	89	40
507.398	507.461	84	37
507.461	507.551	93	44
507.463	507.519	83	41
507.52	507.583	84	36
507.583	507.642	83	42
507.646	507.736	89	43
507.649	507.701	84	37
507.649	507.74	91	43
507.702	507.764	83	42
507.764	507.831	84	37
507.831	507.922	89	46
507.832	507.926	91	46
507.834	507.894	83	43
507.894	507.954	84	38
507.954	508.017	83	43
508.017	508.111	89	46
508.018	508.112	91	46
508.019	508.079	84	39
508.08	508.139	83	44
508.14	508.202	84	39
508.203	508.293	89	49
508.203	508.293	91	49
508.206	508.265	83	44
508.265	508.325	84	38
508.325	508.387	83	45
508.388	508.482	89	49
508.388	508.483	91	49
508.392	508.45	84	38
508.451	508.51	83	45
508.51	508.573	84	40
508.573	508.663	89	54
508.577	508.668	83	50
508.577	508.668	91	54
508.67	508.758	84	44
508.759	508.857	89	53
508.763	508.86	81	52
508.763	508.86	91	53
508.861	508.954	83	47
508.955	510.099	84	82
508.958	511.982	60	52
508.962	509.728	72	62
509.729	510.477	64	38
509.731	510.478	67	38
509.732	510.481	70	45
510.099	510.194	84	58
510.194	510.285	82	57
510.285	510.379	80	56
510.38	510.481	79	55
510.482	510.568	80	58
510.484	511.225	65	39
510.484	511.23	68	47
510.572	510.662	79	57
510.663	510.753	77	56
510.757	510.848	76	55
510.852	510.942	77	51
510.943	511.033	79	52
511.038	511.128	80	53
511.128	511.23	82	54
511.23	511.32	84	56
511.231	511.983	64	39
511.233	511.983	67	39
511.233	511.984	70	46
511.321	511.411	85	57
511.412	511.51	84	57
511.513	511.604	83	56
511.605	511.698	84	56
511.699	511.79	82	56
511.79	511.884	80	56
511.884	511.985	79	56
511.986	512.349	68	48
511.986	512.066	80	57
511.989	512.353	65	40
512.069	512.168	82	57
512.168	512.258	80	57
512.259	512.356	79	53
512.357	512.451	77	56
512.451	512.542	76	52
512.546	512.636	77	56
512.637	512.735	79	52
512.736	513.532	68	45
512.738	513.532	80	59
512.742	513.532	61	39
512.742	513.532	65	47
512.743	513.532	53	39
512.743	513.532	56	39
513.127	513.532	77	52
513.316	513.532	73	52
513.526	514.314	67	45
513.527	514.314	79	57
513.529	514.31	55	39
513.529	514.314	60	39
513.53	514.314	63	46
513.908	514.314	75	52
514.1	514.314	72	52
514.307	515.095	65	45
514.309	515.095	77	57
514.31	515.095	55	37
514.31	515.095	59	37
514.313	515.095	62	44
514.699	515.095	74	52
514.891	515.095	71	52
515.091	516.224	72	72
515.094	518.093	48	45
515.094	515.853	60	56
515.854	516.595	52	38
515.856	516.596	55	38
515.857	516.596	58	45
516.225	516.319	72	58
516.32	516.41	70	57
516.413	516.504	69	56
516.505	516.598	67	55
516.599	516.69	69	58
516.602	517.351	53	39
516.602	517.351	57	47
516.69	516.78	67	57
516.781	516.871	65	56
516.876	516.973	64	55
516.974	517.067	65	51
517.068	517.158	67	52
517.159	517.249	69	53
517.253	517.352	70	54
517.355	518.094	55	39
517.355	517.443	72	56
517.356	518.097	52	39
517.356	518.094	58	46
517.445	517.536	74	57
517.537	517.628	72	57
517.631	517.722	71	56
517.726	517.816	72	56
517.817	517.908	70	56
517.908	518.002	69	56
518.002	518.097	67	56
518.097	518.184	69	57
518.101	518.471	53	48
518.101	518.472	57	48
518.187	518.279	70	57
518.279	518.38	69	57
518.38	518.472	67	53
518.474	518.562	65	56
518.566	518.664	64	52
518.664	518.754	65	56
518.755	518.852	67	52
518.853	519.647	57	45
518.856	519.647	69	59
518.857	519.647	41	39
518.859	519.647	50	47
518.86	519.647	45	39
519.239	519.647	65	52
519.434	519.647	62	52
519.644	521.212	55	45
519.644	520.428	67	57
519.645	520.428	48	39
519.647	521.215	43	39
519.647	520.428	52	46
520.029	520.428	64	52
520.218	520.428	60	52
520.425	521.215	65	57
520.427	521.215	50	37
520.428	521.215	53	44
520.81	521.215	62	52
521.009	521.215	59	52
521.212	521.604	55	51
521.213	521.607	48	37
521.213	521.607	60	55
521.215	521.611	52	44
521.611	521.803	72	68
521.612	522.002	40	42
521.612	522.199	48	51
521.803	522.003	71	64
522.003	522.394	69	66
522.004	522.794	41	42
522.199	522.395	50	49
522.398	522.594	65	61
522.399	522.594	52	51
522.594	522.797	62	54
522.595	522.798	53	55
522.798	523.592	67	51
522.801	524.387	43	35
522.802	523.592	52	35
522.802	523.592	55	41
523.193	523.592	64	46
523.388	523.592	60	46
523.589	524.387	65	51
523.59	524.387	50	33
523.592	524.387	53	39
523.981	524.387	62	46
524.176	524.387	59	46
524.383	524.768	60	55
524.386	524.771	52	44
524.387	524.772	48	37
524.772	524.974	77	68
524.775	525.17	45	42
524.776	525.366	53	51
524.975	525.17	76	64
525.174	525.964	46	42
525.174	525.565	74	66
525.367	525.566	55	49
525.566	525.762	70	61
525.569	525.762	57	51
525.765	525.965	58	55
525.765	525.965	67	54
525.968	526.773	72	51
525.969	526.773	60	41
525.971	526.773	57	35
525.972	527.575	48	35
526.367	526.773	69	46
526.564	526.773	65	46
526.77	527.575	70	51
526.771	527.575	55	33
526.771	527.575	58	39
527.169	527.575	67	46
527.365	527.575	64	46
527.572	527.981	56	44
527.572	527.977	65	55
527.574	527.984	53	37
527.984	528.183	77	67
527.985	528.38	44	42
527.985	528.579	53	51
528.184	528.38	75	63
528.383	529.174	46	42
528.383	528.776	73	66
528.579	528.776	55	49
528.776	528.971	70	61
528.779	528.971	56	51
528.975	529.177	58	55
528.975	529.175	67	54
529.178	529.983	72	51
529.181	530.792	48	35
529.182	529.983	56	35
529.182	529.983	60	41
529.578	529.983	68	46
529.773	529.983	65	46
529.98	530.792	55	33
529.98	530.792	70	51
529.983	530.792	58	39
530.378	530.792	67	46
530.575	530.792	64	46
530.788	530.875	49	25
530.788	530.97	65	40
530.791	530.879	56	28
530.792	530.88	53	25
530.97	531.065	49	28
530.971	531.065	53	33
530.973	531.066	37	22
530.973	531.066	44	26
531.155	531.246	49	28
531.156	531.25	44	26
531.156	531.246	53	33
531.158	531.25	37	22
531.341	531.431	49	28
531.341	531.435	53	34
531.342	531.436	44	27
531.344	531.436	37	22
531.526	531.617	49	28
531.527	531.621	53	34
531.53	531.621	37	22
531.53	531.624	44	27
531.712	531.809	49	28
531.716	531.814	37	23
531.716	531.814	44	28
531.716	531.813	53	34
531.904	531.995	49	29
531.904	531.999	53	35
531.908	532.003	37	23
531.908	531.999	44	28
532.089	532.184	49	29
532.09	532.185	53	35
532.093	532.185	37	24
532.094	532.185	44	29
532.275	532.369	49	30
532.275	532.37	53	36
532.276	532.37	37	25
532.279	532.371	44	30
532.46	532.552	49	30
532.461	532.555	44	27
532.461	532.555	53	36
532.464	532.559	37	22
532.645	532.737	49	31
532.646	532.741	53	37
532.649	532.741	37	23
532.65	532.744	44	28
532.832	532.926	49	32
532.835	532.926	53	38
532.836	532.93	37	24
532.836	532.93	44	29
533.024	533.115	49	33
533.025	533.118	53	39
533.027	533.119	37	25
533.028	533.122	44	30
533.21	533.305	49	34
533.211	533.305	53	40
533.213	533.305	37	25
533.213	533.308	44	30
533.395	533.49	51	34
533.398	533.491	55	40
533.399	533.491	37	25
533.399	533.491	46	30
533.581	533.675	51	34
533.581	533.676	55	40
533.582	533.676	37	25
533.584	533.677	46	30
533.766	534.33	56	46
533.767	533.906	36	25
533.769	533.91	39	25
533.769	533.906	44	30
533.952	534.098	36	25
533.956	534.099	39	25
533.956	534.099	44	30
534.144	534.285	36	25
534.145	534.285	39	25
534.148	534.288	44	30
534.33	534.424	60	40
534.334	534.47	36	25
534.334	534.471	39	25
534.334	534.473	44	30
534.425	534.515	58	40
534.515	534.61	56	45
534.518	534.655	36	25
534.518	534.655	39	25
534.52	534.655	44	30
534.704	534.84	44	30
534.705	534.842	36	25
534.705	534.842	39	25
534.893	535.033	36	25
534.893	535.033	39	25
534.894	535.033	44	30
535.077	535.226	36	25
535.078	535.226	39	25
535.078	535.226	44	30
535.228	535.271	86	72
535.271	535.732	87	89
535.272	535.41	41	38
535.274	535.411	36	38
535.274	535.411	39	38
535.274	535.411	45	47
535.456	535.596	36	38
535.456	535.593	39	38
535.457	535.596	45	47
535.459	535.6	41	38
535.641	535.781	39	38
535.642	535.782	36	38
535.644	535.785	41	38
535.645	535.785	45	47
535.736	535.827	85	75
535.827	535.918	84	73
535.83	535.973	39	38
535.83	535.97	41	38
535.831	535.974	36	38
535.834	535.974	45	47
535.922	536.015	82	70
536.019	536.205	81	69
536.022	536.156	41	38
536.023	536.16	36	38
536.023	536.163	39	38
536.023	536.159	45	47
536.205	536.344	36	37
536.206	536.345	39	37
536.208	536.345	41	37
536.208	536.346	45	45
536.39	536.53	41	37
536.391	536.531	36	37
536.391	536.53	39	37
536.394	536.534	45	45
536.575	536.723	41	37
536.576	536.724	39	37
536.576	536.724	45	45
536.579	536.724	36	37
536.768	536.904	41	25
536.768	537.331	58	46
536.769	536.905	37	25
536.769	536.909	46	30
536.953	537.094	41	25
536.954	537.095	37	25
536.954	537.095	46	30
537.136	537.275	41	25
537.139	537.28	37	25
537.143	537.28	46	30
537.332	537.465	41	25
537.332	537.423	61	40
537.335	537.465	37	25
537.336	537.466	46	30
537.423	537.511	60	40
537.511	537.604	58	45
537.512	537.65	46	30
537.514	537.651	37	25
537.514	537.651	41	25
537.703	537.842	37	25
537.704	537.843	41	25
537.704	537.843	46	30
537.889	538.028	37	25
537.889	538.029	41	25
537.889	538.029	46	30
538.074	538.218	37	25
538.074	538.218	46	30
538.075	538.22	41	25
538.221	538.266	88	72
538.267	538.728	89	89
538.268	538.406	41	38
538.268	538.406	47	47
538.27	538.407	38	38
538.452	538.591	38	38
538.452	538.588	41	38
538.453	538.592	47	47
538.637	538.774	41	38
538.638	538.777	38	38
538.638	538.777	47	47
538.732	538.823	87	75
538.823	538.913	86	73
538.824	538.962	41	38
538.827	538.963	38	38
538.827	538.963	47	47
538.918	539.008	84	70
539.008	539.194	83	69
539.009	539.149	41	37
539.012	539.149	38	37
539.012	539.15	47	45
539.194	539.335	41	37
539.194	539.334	47	45
539.198	539.335	38	37
539.386	539.527	41	37
539.387	539.528	38	37
539.387	539.527	47	45
539.571	539.712	38	37
539.572	539.713	41	37
539.572	539.713	47	45
539.761	539.9	43	37
539.761	539.95	60	82
539.764	539.901	39	37
539.764	539.904	47	45
539.951	540.083	39	37
539.951	540.083	43	37
539.951	540.041	63	70
539.953	540.086	47	45
540.041	540.129	62	70
540.129	540.314	60	74
540.132	540.269	39	37
540.132	540.268	43	37
540.132	540.269	48	45
540.314	540.464	39	37
540.315	540.468	48	45
540.317	540.468	43	37
540.509	540.604	80	78
540.514	540.65	41	37
540.514	540.653	48	45
540.516	540.654	44	37
540.605	540.699	79	75
540.699	540.79	77	73
540.7	540.835	41	38
540.702	540.838	44	38
540.702	540.836	48	46
540.79	540.884	75	70
540.885	541.024	44	38
540.885	541.07	74	74
540.886	541.024	41	38
540.887	541.025	50	46
541.07	541.209	41	38
541.07	541.206	50	46
541.071	541.21	44	38
541.255	541.441	64	82
541.256	541.396	43	38
541.256	541.396	46	38
541.259	541.397	50	47
541.441	541.531	67	70
541.445	541.581	43	38
541.445	541.582	46	38
541.445	541.582	50	47
541.536	541.626	65	70
541.626	541.811	64	74
541.627	541.767	43	39
541.63	541.767	46	39
541.63	541.768	52	47
541.812	541.966	43	39
541.812	541.962	46	39
541.815	541.966	52	48
542.008	542.103	84	78
542.011	542.147	44	39
542.011	542.148	52	48
542.015	542.151	48	39
542.103	542.196	82	75
542.197	542.33	44	39
542.197	542.288	80	73
542.198	542.33	52	48
542.2	542.331	48	39
542.289	542.376	79	70
542.376	542.568	77	74
542.377	542.518	44	40
542.379	542.522	48	40
542.379	542.519	53	49
542.568	542.705	48	40
542.569	542.708	44	40
542.569	542.708	53	49
542.757	542.89	54	51
542.757	542.844	87	90
542.761	542.893	45	42
542.761	542.894	48	42
542.847	542.939	86	86
542.939	543.03	84	84
542.94	543.079	54	51
542.942	543.079	45	42
542.942	543.079	48	42
543.034	543.124	83	80
543.125	543.264	48	42
543.125	543.31	84	85
543.128	543.264	45	42
543.128	543.265	54	51
543.31	543.453	48	42
543.311	543.454	45	42
543.313	543.456	54	51
543.502	543.593	75	90
543.503	543.642	48	42
543.503	543.642	54	51
543.506	543.643	45	42
543.593	543.688	74	86
543.688	543.771	72	84
543.689	543.821	45	42
543.689	543.82	48	42
543.692	543.824	54	51
543.776	543.866	71	80
543.866	544.058	72	85
543.87	544.007	48	42
543.871	544.01	45	42
543.871	544.01	54	51
544.059	544.202	48	42
544.062	544.206	45	42
544.063	544.206	54	51
544.248	544.343	63	90
544.251	544.387	48	42
544.251	544.392	54	51
544.255	544.392	44	42
544.346	544.436	62	86
544.437	544.577	54	51
544.437	544.528	60	84
544.44	544.577	44	42
544.441	544.578	48	42
544.531	544.622	59	80
544.622	544.808	60	85
544.623	544.762	48	42
544.626	544.763	44	42
544.626	544.763	54	51
544.809	544.948	44	42
544.809	544.948	48	42
544.811	544.949	54	51
544.994	545.13	48	42
544.994	545.084	75	90
544.995	545.133	44	42
544.997	545.137	51	51
545.087	545.179	74	86
545.179	545.27	72	84
545.182	545.319	48	42
545.182	545.319	51	51
545.183	545.323	44	42
545.273	545.364	71	80
545.365	545.459	72	85
545.368	545.504	44	42
545.368	545.505	48	51
545.46	545.557	74	85
545.557	545.654	75	85
545.56	545.708	44	42
545.56	545.707	48	51
545.655	545.752	78	85
545.753	545.935	79	85
545.756	545.935	43	42
545.757	545.936	47	51
545.953	546.131	67	38
545.953	546.132	79	45
546.148	546.32	67	38
546.149	546.324	79	45
546.34	546.519	67	38
546.341	546.519	79	45
546.537	546.718	67	38
546.537	546.719	79	45
546.729	546.908	67	38
546.73	546.912	79	45
546.929	547.104	67	38
546.929	547.107	79	45
547.125	547.304	67	38
547.126	547.304	79	45
547.314	547.496	67	37
547.318	547.496	70	37
547.318	547.497	73	37
547.318	547.497	79	45
547.506	547.681	67	39
547.51	547.682	70	39
547.51	547.682	73	39
547.51	547.684	79	47
547.695	547.874	67	41
547.699	547.874	70	41
547.702	547.875	73	41
547.703	547.875	79	49
547.888	548.063	67	43
547.892	548.064	70	43
547.892	548.066	73	43
547.892	548.066	79	52
548.08	548.256	67	45
548.081	548.256	70	45
548.084	548.257	73	45
548.085	548.259	79	54
548.273	548.451	67	46
548.273	548.455	70	46
548.276	548.456	73	46
548.277	548.456	79	55
548.472	548.647	67	49
548.473	548.651	70	49
548.473	548.654	73	49
548.473	548.655	79	59
548.668	548.854	67	51
548.669	548.854	70	51
548.669	548.854	73	51
548.671	548.858	79	61
548.865	549.067	67	41
548.865	549.068	71	41
548.868	549.071	74	41
548.868	549.072	79	49
548.872	549.015	47	29
548.872	549.016	50	35
549.072	549.456	91	58
549.074	549.459	79	49
549.075	549.215	47	29
549.075	549.215	50	35
549.264	549.41	50	35
549.267	549.411	47	29
549.459	549.852	89	53
549.46	549.855	77	53
549.463	549.607	47	29
549.463	549.607	50	35
549.651	549.799	47	29
549.656	549.799	50	35
549.855	550.239	88	55
549.856	550.243	76	46
549.859	549.999	47	29
549.859	549.998	50	35
550.044	550.188	47	29
550.045	550.191	50	35
550.244	550.624	74	45
550.244	550.622	86	53
550.245	550.38	47	29
550.247	550.381	50	35
550.432	550.576	47	29
550.432	550.58	50	35
550.628	551.02	84	52
550.629	550.768	47	29
550.629	550.768	50	35
550.629	551.021	72	44
550.821	550.964	47	29
550.821	550.965	50	35
551.021	551.405	83	50
551.022	551.409	71	42
551.024	551.164	47	29
551.025	551.164	50	35
551.21	551.36	50	35
551.213	551.363	47	29
551.41	551.798	81	49
551.412	551.552	47	29
551.412	551.798	69	41
551.413	551.553	50	35
551.605	551.745	52	35
551.606	551.745	49	29
551.798	551.986	79	47
551.801	551.941	49	29
551.801	551.942	52	35
551.801	551.986	67	39
551.99	552.081	65	38
551.993	552.081	77	45
551.994	552.924	50	42
551.994	552.549	53	42
552.082	552.172	62	37
552.176	552.266	64	39
552.267	552.357	65	40
552.361	552.452	67	42
552.456	552.553	69	44
552.554	552.638	57	40
552.554	552.637	71	45
552.641	552.732	73	47
552.642	552.732	55	40
552.733	552.826	74	48
552.736	552.925	53	45
552.827	552.925	65	42
552.928	553.015	67	43
553.016	553.11	69	45
553.11	553.2	71	46
553.201	553.295	73	48
553.296	553.394	74	49
553.394	553.488	76	50
553.488	553.579	77	52
553.489	553.953	69	46
553.58	553.67	74	46
553.673	553.765	76	46
553.765	553.863	77	47
553.863	553.957	79	48
553.96	554.048	81	49
553.961	554.052	67	40
554.052	554.139	65	40
554.052	554.136	83	50
554.139	554.23	85	51
554.14	554.231	64	40
554.231	554.321	86	52
554.233	554.423	62	45
554.321	554.423	85	46
554.424	554.513	86	47
554.514	554.604	88	48
554.605	554.699	89	49
554.699	554.793	85	51
554.794	554.884	86	52
554.885	554.982	88	53
554.983	555.185	89	49
554.986	555.136	45	29
554.987	555.137	48	35
555.189	555.574	89	58
555.19	555.574	77	49
555.192	555.333	45	29
555.193	555.333	48	35
555.378	555.528	48	35
555.382	555.529	45	29
555.577	555.966	88	53
555.578	555.966	76	53
555.581	555.721	45	29
555.582	555.721	48	35
555.773	555.917	45	29
555.774	555.918	48	35
555.967	556.358	74	46
555.967	556.358	86	55
555.969	556.113	45	29
555.969	556.109	48	35
556.162	556.306	45	29
556.163	556.309	48	35
556.362	556.743	72	45
556.362	556.743	84	53
556.365	556.498	45	29
556.365	556.501	48	35
556.543	556.691	48	35
556.547	556.691	45	29
556.743	557.131	83	52
556.747	556.886	45	29
556.747	556.887	48	35
556.747	557.132	71	44
556.939	557.085	45	29
556.94	557.086	48	35
557.132	557.523	81	50
557.135	557.527	69	42
557.136	557.286	45	29
557.136	557.282	48	35
557.328	557.474	45	29
557.331	557.475	48	35
557.53	557.915	79	49
557.531	557.671	45	29
557.531	557.671	48	35
557.531	557.915	67	41
557.719	557.863	47	29
557.72	557.864	50	35
557.915	558.108	77	47
557.919	558.062	47	29
557.919	558.063	50	35
557.919	558.109	65	39
558.109	558.199	64	38
558.111	558.2	76	45
558.112	559.035	48	42
558.112	558.664	52	42
558.2	558.294	64	37
558.294	558.384	65	39
558.385	558.475	67	40
558.479	558.57	69	42
558.574	558.665	71	44
558.668	558.76	55	40
558.668	558.755	72	45
558.76	558.85	74	47
558.762	558.85	53	40
558.853	558.945	76	48
558.854	559.036	52	45
558.945	559.036	69	42
559.038	559.13	71	43
559.131	559.221	72	45
559.222	559.322	74	46
559.323	559.413	76	48
559.414	559.504	78	49
559.504	559.606	80	50
559.554	559.606	48	36
559.607	560.068	64	46
559.607	559.696	81	52
559.697	559.791	76	46
559.792	559.883	78	46
559.883	559.977	80	47
559.977	560.069	81	48
560.071	560.159	83	49
560.072	560.162	62	40
560.166	560.254	84	50
560.167	560.257	60	40
560.257	560.348	86	51
560.261	560.349	59	40
560.349	560.442	88	52
560.351	560.534	57	45
560.443	560.534	86	46
560.535	560.627	84	47
560.628	560.719	83	48
560.72	560.817	81	49
560.817	560.912	83	51
560.912	561.002	84	52
561.003	561.1	81	53
561.101	561.66	53	44
561.104	562.031	50	44
561.195	561.289	65	38
561.29	561.38	67	41
561.381	561.471	69	42
561.475	561.566	71	44
561.566	561.661	72	47
561.661	561.751	74	48
561.664	561.752	57	43
561.755	561.846	76	50
561.756	561.846	55	43
561.847	561.936	77	52
561.85	562.032	53	49
561.941	562.032	71	45
562.035	562.122	72	47
562.123	562.217	74	49
562.217	562.315	76	51
562.316	562.406	77	53
562.407	562.501	79	54
562.501	562.601	81	56
562.553	562.602	50	35
562.602	562.693	83	58
562.603	563.064	65	55
562.694	562.784	77	51
562.784	562.879	79	52
562.879	562.969	81	53
562.974	563.065	83	55
563.067	563.155	84	56
563.068	563.159	64	46
563.159	563.249	86	58
563.162	563.253	62	46
563.253	563.344	88	59
563.254	563.345	60	46
563.345	563.435	89	60
563.347	563.53	59	52
563.435	563.53	88	54
563.531	563.62	86	55
563.621	563.715	84	57
563.715	563.813	83	58
563.813	563.907	84	61
563.908	563.998	86	62
563.999	564.121	83	64
564.044	564.121	52	40
564.122	564.583	67	64
564.211	564.306	79	56
564.307	564.398	81	56
564.401	564.492	83	57
564.492	564.587	84	59
564.587	564.677	86	60
564.59	564.681	65	52
564.681	564.772	88	62
564.682	564.772	64	51
564.773	564.863	89	63
564.776	564.867	62	51
564.867	564.957	91	65
564.868	565.049	61	56
564.958	565.049	89	57
565.05	565.15	88	59
565.15	565.241	86	60
565.242	565.335	85	62
565.336	565.427	86	65
565.427	565.518	88	66
565.52	565.643	85	68
565.573	565.644	53	46
565.644	566.018	69	73
565.735	565.825	73	59
565.828	565.92	74	59
565.921	566.018	76	61
566.022	566.109	77	63
566.023	566.113	67	60
566.116	566.207	65	60
566.116	566.203	79	64
566.208	566.299	64	60
566.208	566.298	81	66
566.301	566.508	77	67
566.302	566.414	62	59
566.347	566.414	55	47
566.417	566.785	71	75
566.509	566.599	75	61
566.603	566.694	76	61
566.694	566.785	77	64
566.785	566.879	79	65
566.788	566.88	69	62
566.88	566.97	81	66
566.882	566.971	67	62
566.973	567.068	83	69
566.974	567.068	65	63
567.072	567.18	64	62
567.072	567.271	79	70
567.117	567.181	57	50
567.183	567.551	72	78
567.274	567.366	76	63
567.366	567.459	77	64
567.46	567.555	79	66
567.555	567.646	81	68
567.556	567.646	71	64
567.647	567.737	69	64
567.647	567.737	83	69
567.738	567.838	84	72
567.74	567.839	67	65
567.839	568.038	81	73
567.84	567.946	65	64
567.883	567.947	59	54
567.947	568.318	74	81
568.041	568.131	78	66
568.132	568.223	79	66
568.226	568.318	81	68
568.321	568.412	72	67
568.321	568.412	83	70
568.412	568.51	84	71
568.413	568.511	71	67
568.513	568.601	86	74
568.514	568.604	69	67
568.605	568.713	67	66
568.605	568.804	83	75
568.65	568.713	60	56
568.714	569.083	76	84
568.805	568.898	80	69
568.899	568.99	81	69
568.993	569.084	83	71
569.087	569.175	84	73
569.088	569.178	74	69
569.179	569.27	86	74
569.182	569.273	72	70
569.273	569.368	88	77
569.274	569.371	71	70
569.371	569.574	84	79
569.372	569.479	69	69
569.42	569.48	62	58
569.48	569.857	77	87
569.575	569.665	82	71
569.665	569.763	83	71
569.764	569.858	84	74
569.858	569.949	86	75
569.859	569.949	76	71
569.95	570.039	88	77
569.952	570.043	74	72
570.043	570.134	89	79
570.047	570.135	72	72
570.137	570.236	86	81
570.138	571.005	71	71
570.237	570.617	64	78
570.299	570.68	72	74
570.362	570.747	76	74
570.425	570.81	79	76
570.491	570.873	84	69
570.555	570.936	91	70
570.617	570.999	64	79
570.68	571.005	72	74
570.747	571.005	76	75
570.81	571.005	79	78
570.873	571.005	84	72
570.936	571.005	91	71
570.999	571.384	64	81
571.065	571.447	72	77
571.129	571.517	76	77
571.194	571.583	80	80
571.254	571.646	84	73
571.321	571.713	92	74
571.384	571.782	64	81
571.447	571.78	72	78
571.517	571.782	76	79
571.583	571.782	80	82
571.646	571.782	84	75
571.713	571.782	92	75
571.779	572.161	81	85
571.78	572.161	72	75
571.78	572.161	77	75
571.782	572.161	65	75
571.878	572.161	93	88
571.975	572.161	91	87
572.07	572.161	89	86
572.16	572.539	88	86
572.252	572.539	86	85
572.347	572.539	84	84
572.44	572.539	83	83
572.532	572.913	81	82
572.626	572.913	79	81
572.72	572.913	77	80
572.812	572.913	76	79
572.913	573.288	74	78
573.005	573.288	72	77
573.096	573.288	71	77
573.19	573.288	69	76
573.281	573.665	68	75
573.376	573.665	69	78
573.466	573.665	67	77
573.564	573.665	65	77
573.659	574.037	64	77
573.662	574.418	29	75
573.75	574.037	62	77
573.844	574.037	60	76
573.942	574.037	59	76
574.037	574.418	57	76
574.131	574.418	55	75
574.132	574.418	31	68
574.226	574.418	33	69
574.226	574.418	53	75
574.317	574.418	52	75
574.32	574.418	35	70
574.408	574.797	50	75
574.411	574.796	36	71
574.509	574.797	48	74
574.51	574.797	38	73
574.601	574.797	47	74
574.603	574.797	40	74
574.695	574.797	41	75
574.695	574.797	45	74
574.793	574.884	43	75
574.794	575.167	31	63
574.796	575.171	36	63
574.797	575.171	40	75
574.884	574.974	48	75
574.979	575.069	47	47
575.07	575.172	50	47
575.172	575.261	48	47
575.262	575.359	52	48
575.36	575.451	51	48
575.454	575.545	53	48
575.545	575.643	52	48
575.647	575.738	55	49
575.739	575.829	54	49
575.832	575.927	57	49
575.931	576.021	55	50
576.022	576.116	60	50
576.116	576.207	59	50
576.207	576.304	62	51
576.305	576.399	60	51
576.4	576.494	64	51
576.494	576.584	63	52
576.585	576.675	65	52
576.676	576.77	64	52
576.771	576.868	67	53
576.868	576.959	66	53
576.963	577.054	69	53
577.055	577.148	67	54
577.148	577.239	72	54
577.242	577.333	71	54
577.334	577.425	74	55
577.428	577.523	72	55
577.527	577.617	76	55
577.618	577.712	75	56
577.713	577.803	77	56
577.806	577.897	76	56
577.898	577.995	79	58
577.996	578.09	78	60
578.09	578.191	81	62
578.195	578.236	79	70
578.285	578.472	84	62
578.286	578.475	76	52
578.381	578.58	75	52
578.381	578.58	83	62
578.472	578.58	84	63
578.475	578.58	76	53
578.577	578.621	79	70
578.579	578.622	67	60
578.667	578.863	88	63
578.671	578.864	72	54
578.769	578.962	87	64
578.77	578.962	71	55
578.863	578.962	88	65
578.864	578.962	72	55
578.961	579.003	79	72
578.962	579.007	67	61
579.052	579.245	76	56
579.052	579.245	84	65
579.147	579.347	75	56
579.147	579.347	83	66
579.245	579.347	76	56
579.245	579.347	84	66
579.346	579.388	67	63
579.346	579.388	79	74
579.434	579.624	72	57
579.434	579.623	88	67
579.529	579.724	87	68
579.531	579.724	71	58
579.623	579.724	88	68
579.624	579.724	72	58
579.721	579.766	79	76
579.722	579.766	67	65
579.812	580.002	76	59
579.812	580.001	84	69
579.907	580.1	83	69
579.909	580.1	75	59
580.001	580.1	84	70
580.002	580.1	76	59
580.099	580.148	67	67
580.099	580.147	79	78
580.193	580.382	88	71
580.196	580.386	72	60
580.291	580.477	87	71
580.292	580.477	71	60
580.382	580.477	88	71
580.386	580.477	72	61
580.477	580.523	67	69
580.477	580.518	79	80
580.567	580.778	84	72
580.568	580.779	76	62
580.667	580.907	83	73
580.669	580.91	75	62
580.778	580.91	84	73
580.779	580.91	76	63
580.904	582.392	89	87
580.907	583.018	74	73
580.907	582.402	83	87
580.908	583.256	67	73
580.91	582.881	77	73
582.392	583.256	89	73
582.458	583.256	88	73
582.524	583.256	86	72
582.594	583.256	84	71
582.668	583.256	83	70
582.738	583.256	81	69
582.808	583.256	79	68
582.881	583.249	77	68
582.948	583.256	76	66
583.018	583.256	74	66
583.091	583.256	72	65
583.162	583.246	71	65
583.246	585.121	71	78
583.249	585.115	77	78
583.25	585.87	55	65
583.25	585.752	65	65
583.252	585.875	62	65
585.115	585.875	77	64
585.192	585.875	76	62
585.282	585.875	74	60
585.37	585.875	72	60
585.455	585.875	71	60
585.548	585.875	69	59
585.64	585.875	67	56
585.752	585.875	65	54
585.87	586.756	55	42
585.87	586.757	60	42
585.871	586.757	64	50
585.874	586.759	36	33
585.874	586.759	48	39
586.76	587.19	53	40
586.76	587.19	59	40
586.763	587.193	44	29
586.763	587.193	62	48
586.764	587.194	32	29
587.197	587.655	52	40
587.197	587.656	57	40
587.198	587.656	60	48
587.2	587.659	33	29
587.2	587.658	45	35
587.659	588.548	50	42
587.66	588.548	56	42
587.662	588.552	59	50
587.663	588.552	40	39
588.552	589.461	48	40
588.555	589.462	41	34
588.555	589.461	57	48
589.462	590.361	65	45
589.465	590.362	67	45
589.465	590.362	71	53
589.466	590.362	53	41
589.468	590.364	55	34
589.468	590.364	59	41
589.469	590.365	50	34
590.365	590.799	67	47
590.368	590.802	72	56
590.369	590.802	55	38
590.369	590.805	60	46
590.371	590.805	52	38
590.805	591.288	69	51
590.809	591.292	62	51
590.809	591.289	72	51
590.809	591.289	74	62
590.81	591.292	53	43
590.813	591.295	57	43
590.813	591.293	60	43
591.295	592.632	67	56
591.296	592.18	72	56
591.299	592.185	76	67
591.3	593.105	55	46
591.3	592.185	60	46
591.301	592.185	64	56
592.188	593.109	71	50
592.188	593.109	74	60
592.189	593.109	59	41
592.191	593.11	62	49
592.636	592.866	79	50
592.87	593.112	77	49
593.112	593.987	76	50
593.113	593.99	72	42
593.545	593.99	88	52
593.546	593.991	84	44
593.991	594.41	86	50
593.994	594.414	83	42
593.995	594.414	77	42
593.997	594.417	68	40
593.997	594.418	71	40
593.997	594.415	74	48
594.418	594.865	84	50
594.419	594.866	81	42
594.42	594.866	76	42
594.421	594.869	69	40
594.421	594.869	72	48
594.87	595.737	74	45
594.87	595.737	80	45
594.872	595.738	83	53
594.873	595.738	64	42
594.873	595.74	68	42
594.873	595.741	71	50
595.741	596.64	72	42
595.742	596.64	81	50
595.744	596.641	65	40
595.744	596.644	69	48
596.644	597.094	72	45
596.647	597.095	64	34
596.647	597.095	76	45
596.647	597.564	79	53
596.651	599.398	55	34
596.651	597.095	67	40
597.098	599.399	74	40
597.099	599.401	69	35
597.099	599.399	77	48
597.101	599.402	65	29
597.564	598.099	81	53
598.1	599.402	83	51
599.405	599.885	60	45
599.406	599.888	64	45
599.406	600.378	67	53
599.408	603.867	43	34
599.409	599.889	52	34
599.409	599.888	55	40
599.892	603.868	62	40
599.892	603.868	65	48
599.893	603.871	53	29
599.895	603.871	57	35
601.365	602.401	68	56
602.401	603.874	71	46
603.875	604.35	48	45
603.875	604.351	52	45
603.876	604.85	55	53
603.878	608.33	31	34
603.878	604.351	40	34
603.878	604.354	43	40
604.354	608.334	50	40
604.355	608.334	53	48
604.357	608.337	41	29
604.357	608.337	45	35
605.834	606.87	57	56
606.871	608.337	59	46
608.338	608.424	52	28
608.341	608.428	36	25
608.341	608.427	48	25
608.341	608.519	60	40
608.519	608.606	60	28
608.52	608.606	64	33
608.522	608.607	48	22
608.522	608.607	55	26
608.697	608.785	60	28
608.698	608.788	55	26
608.698	608.786	64	33
608.701	608.789	48	22
608.876	608.967	60	28
608.879	608.968	55	27
608.879	608.967	64	34
608.883	608.968	48	22
609.058	609.146	48	22
609.058	609.145	60	28
609.058	609.146	64	34
609.062	609.149	55	27
609.236	609.331	60	28
609.24	609.335	55	28
609.24	609.331	64	34
609.241	609.335	48	23
609.418	609.509	60	29
609.419	609.51	55	28
609.419	609.509	64	35
609.421	609.513	48	23
609.597	609.688	60	29
609.597	609.692	64	35
609.601	609.695	48	24
609.601	609.694	55	29
609.779	609.87	60	30
609.78	609.873	48	25
609.78	609.87	64	36
609.782	609.873	55	30
609.958	610.048	60	30
609.958	610.051	64	36
609.959	610.052	48	22
609.961	610.052	55	27
610.143	610.23	60	31
610.144	610.234	64	37
610.146	610.234	48	23
610.146	610.235	55	28
610.318	610.409	60	32
610.318	610.41	64	38
610.319	610.413	48	24
610.319	610.412	55	29
610.503	610.591	60	33
610.504	610.595	55	30
610.504	610.591	64	39
610.507	610.595	48	25
610.682	610.769	60	34
610.686	610.773	48	25
610.686	610.773	55	30
610.686	610.77	64	40
610.864	610.955	62	34
610.864	610.955	66	40
610.867	610.959	48	25
610.867	610.959	57	30
611.042	611.137	62	34
611.043	611.137	66	40
611.046	611.138	48	25
611.047	611.14	57	30
611.225	611.36	47	28
611.225	611.403	67	52
611.226	611.361	50	28
611.226	611.364	55	34
611.406	611.494	71	46
611.407	611.54	47	28
611.407	611.54	50	28
611.407	611.536	55	34
611.497	611.585	69	46
611.585	611.675	67	52
611.586	611.714	47	28
611.586	611.714	50	28
611.589	611.718	55	34
611.763	611.904	47	28
611.764	611.904	50	28
611.764	611.905	55	35
611.942	612.131	72	65
611.946	612.082	46	34
611.946	612.083	48	34
611.946	612.085	55	42
612.131	612.215	76	58
612.132	612.257	46	34
612.132	612.257	55	42
612.134	612.26	48	34
612.215	612.302	74	58
612.303	612.393	72	64
612.305	612.435	55	42
612.306	612.439	46	35
612.306	612.435	48	35
612.484	612.621	46	35
612.484	612.62	55	43
612.485	612.624	48	35
612.662	612.845	77	75
612.663	612.803	45	38
612.666	612.803	48	38
612.667	612.804	53	48
612.845	612.935	81	65
612.846	612.974	45	38
612.846	612.981	48	38
612.849	612.982	53	48
612.936	613.02	79	65
613.023	613.114	77	73
613.024	613.16	45	39
613.027	613.164	48	39
613.028	613.164	53	49
613.206	613.342	45	39
613.206	613.343	48	39
613.206	613.343	53	49
613.38	613.57	89	87
613.381	613.573	44	62
613.384	614.112	48	62
613.387	614.112	53	62
613.475	613.658	88	79
613.57	613.749	32	55
613.57	613.748	89	79
613.573	613.751	44	55
613.658	613.836	88	79
613.748	613.927	89	79
613.749	613.93	32	55
613.751	613.93	44	55
613.836	614.017	88	79
613.927	614.108	89	79
613.93	614.112	32	55
613.93	614.112	44	55
614.017	614.112	88	79
614.108	614.833	89	78
614.109	614.743	43	56
614.112	614.833	31	56
614.204	614.833	88	78
614.207	614.833	33	57
614.288	614.833	86	79
614.291	614.833	35	57
614.382	614.833	84	80
614.385	614.833	36	58
614.469	614.833	83	81
614.473	614.833	38	59
614.564	614.833	40	59
614.564	614.833	81	82
614.655	614.833	79	83
614.658	614.833	41	60
614.743	614.833	43	62
614.743	614.833	77	84
614.83	615.589	76	85
614.831	615.589	45	62
614.924	615.589	47	63
614.924	615.589	74	86
615.016	615.589	72	88
615.018	615.589	48	63
615.11	615.589	71	89
615.111	615.589	50	64
615.201	615.589	69	90
615.204	615.589	52	65
615.295	615.589	67	92
615.296	615.586	53	66
615.387	615.589	55	67
615.387	615.589	65	92
615.488	615.589	57	68
615.488	615.589	64	93
615.585	615.775	62	100
615.586	615.776	41	66
615.586	615.775	53	78
615.97	616.163	67	85
615.971	616.163	71	85
615.974	616.163	74	100
615.975	616.167	43	66
615.975	616.167	79	100
615.977	616.167	47	66
615.978	616.17	50	78
615.978	616.17	55	78
617.147	617.335	64	89
617.147	617.336	67	89
617.148	617.336	72	106
617.148	617.339	76	106
617.15	617.34	55	78
617.15	617.339	60	78
617.151	617.342	48	66
617.151	617.342	52	66
617.92	618.12	67	89
617.923	618.12	71	89
617.924	618.121	74	106
617.924	618.123	79	106
617.927	618.123	47	66
617.928	618.123	43	66
617.93	618.127	50	78
617.931	618.127	55	78
618.736	618.949	79	106
618.736	618.949	84	106
618.737	618.952	72	89
618.737	618.95	76	89
618.739	618.953	36	65
618.739	618.956	40	65
618.739	618.956	43	77
618.742	618.957	48	77
