OnsetTime	OffsetTime	MidiPitch	Velocity
0.517989	2.79999	67	84
0.521985	2.80298	31	60
0.521985	2.80098	43	70
0.521985	2.80098	79	95
2.80398	3.21298	71	44
3.21399	3.35197	72	38
3.35298	3.74897	74	51
3.91697	4.29797	74	42
4.46196	4.84397	74	42
5.00497	5.42496	72	46
5.42596	5.55796	74	47
5.55796	6.38696	75	53
6.38797	6.66095	74	44
6.66395	7.20996	72	39
7.21395	7.62396	74	49
7.62396	7.76295	72	42
7.76394	8.31594	71	46
8.31695	8.72495	69	44
8.72895	8.86594	71	36
8.86594	9.43594	72	48
9.43594	9.85294	74	43
9.85294	10.0059	75	44
10.0069	11.781	74	51
11.781	12.0579	62	37
11.785	12.0539	55	35
11.785	12.0609	67	37
11.785	12.0609	71	44
12.1939	12.2639	63	35
12.1949	12.2649	67	35
12.1949	12.2649	72	42
12.1959	12.2649	55	33
12.3309	12.6079	65	43
12.3319	12.6079	67	43
12.3339	12.6029	55	40
12.3339	12.6079	74	51
12.8689	13.1489	65	35
12.8739	13.1499	67	35
12.8739	13.1529	74	42
12.8759	13.1459	55	33
13.4229	13.6989	65	35
13.4229	13.6989	67	35
13.4259	13.6959	55	33
13.4259	13.6999	74	42
13.9689	14.2489	63	39
13.9689	14.2489	67	39
13.9719	14.2419	55	46
13.9719	14.2499	72	39
14.3819	14.4509	65	39
14.3819	14.4519	67	39
14.3829	14.4519	74	47
14.3849	14.4549	55	47
14.5209	15.4659	67	45
14.5219	14.6619	55	53
14.5219	15.4669	75	53
15.0529	15.1899	57	53
15.4699	15.5289	65	37
15.4709	15.5329	67	37
15.4709	15.5339	74	44
15.4729	15.5339	59	43
15.5999	15.8729	63	33
15.6029	15.8738	67	33
15.6039	15.8769	60	49
15.6039	15.8758	72	39
16.1519	16.4258	65	41
16.1528	16.4258	68	41
16.1528	16.4288	74	49
16.1559	16.4248	53	45
16.5588	16.6288	63	35
16.5598	16.6288	68	42
16.5618	16.6318	53	36
16.5618	16.6318	72	42
16.6978	16.9788	62	39
16.6988	16.9788	67	39
16.7018	17.6688	55	44
16.7018	16.9798	71	46
17.2478	17.5278	60	37
17.2518	17.5278	67	37
17.2518	17.5288	69	44
17.6688	17.7308	62	30
17.6698	17.7318	67	30
17.6698	17.7318	71	36
17.6718	17.7348	53	30
17.6718	17.7338	55	36
17.8008	18.0838	63	40
17.8018	18.0848	67	40
17.8018	18.0878	72	48
17.8048	18.0888	51	40
17.8058	18.0888	55	48
18.3888	18.6718	67	45
18.3898	18.6648	43	45
18.3898	18.6728	75	53
18.3918	18.6658	55	53
18.8128	18.8858	65	37
18.8128	18.8898	67	37
18.8138	18.8908	55	44
18.8138	18.8898	74	44
18.8158	18.8908	43	37
18.9598	20.7378	63	43
18.9638	20.7388	67	43
18.9638	20.7408	72	51
18.9668	20.7408	48	46
18.9668	20.7418	55	55
20.7418	21.1508	74	44
21.1518	21.2898	75	38
21.2908	21.6748	77	51
21.8468	22.2328	77	42
22.3998	22.7818	77	42
22.9418	23.3558	75	46
23.3568	23.4958	74	47
23.4958	24.3178	79	53
24.3188	24.5978	77	44
24.5988	25.1578	75	39
25.1588	25.5598	74	49
25.5608	25.7078	72	42
25.7078	26.2568	71	46
26.2608	26.6698	69	44
26.6698	26.8098	71	36
26.8108	27.3848	72	48
27.3848	27.8038	77	43
27.8048	27.9508	75	44
27.9548	29.7288	74	51
29.7328	30.0098	65	37
29.7328	30.0098	70	37
29.7338	30.0098	74	44
29.7358	30.0028	58	35
30.1418	30.2118	67	35
30.1428	30.2118	70	35
30.1458	30.2158	75	42
30.1468	30.2158	58	33
30.2828	30.5588	68	43
30.2828	30.5618	70	43
30.2838	30.5618	77	51
30.2858	30.5588	58	40
30.8318	31.1148	68	35
30.8348	31.1148	70	35
30.8348	31.1158	77	42
30.8358	31.1118	58	33
31.3838	31.6578	68	35
31.3848	31.6578	70	35
31.3848	31.6618	77	42
31.3878	31.6578	58	33
31.9308	32.2108	67	39
31.9308	32.2108	70	39
31.9318	32.2138	75	46
31.9348	32.2068	58	46
32.3428	32.4138	65	39
32.3438	32.4148	70	39
32.3438	32.4148	74	47
32.3448	32.4148	58	47
32.4798	33.4288	70	47
32.4808	33.4298	79	56
32.4838	32.6648	58	53
33.0148	33.1558	60	53
33.4298	33.4948	68	41
33.4318	33.4988	70	41
33.4318	33.5018	77	49
33.4328	33.5018	62	43
33.5658	33.8418	67	35
33.5688	33.8418	70	35
33.5688	33.8428	75	42
33.5698	33.8428	63	49
34.1108	34.3887	65	44
34.1148	34.3887	68	44
34.1157	34.3887	74	52
34.1178	34.3878	53	45
34.5177	34.5867	63	35
34.5207	34.5907	68	35
34.5207	34.5907	72	42
34.5217	34.5917	53	36
34.6637	34.9367	62	39
34.6647	34.9377	67	39
34.6677	34.9377	71	46
34.6687	35.6267	55	44
35.2167	35.4907	60	37
35.2177	35.4907	67	37
35.2177	35.4917	69	44
35.6297	35.6967	62	30
35.6307	35.6997	67	30
35.6307	35.7007	71	36
35.6337	35.7007	53	30
35.6347	35.7037	55	36
35.7667	36.0467	63	40
35.7667	36.0477	67	40
35.7677	36.0477	72	48
35.7697	36.0497	51	40
35.7697	36.0497	55	48
36.3577	36.6387	67	45
36.3617	36.6417	75	53
36.3627	36.6387	43	45
36.3627	36.6377	55	53
36.7817	36.8507	65	37
36.7817	36.8517	67	37
36.7857	36.8557	55	44
36.7857	36.8557	74	44
36.7867	36.8587	43	37
36.9287	38.7037	63	43
36.9297	38.7067	67	43
36.9297	38.7067	72	51
36.9317	38.7077	48	46
36.9327	38.7107	55	55
38.7117	39.1167	71	48
39.1167	39.2557	72	41
39.2567	39.6447	74	56
39.8087	40.2257	68	39
39.8097	40.2257	71	46
39.8097	40.1977	74	46
39.8107	40.2267	65	36
40.3587	40.7707	69	39
40.3587	40.7717	72	39
40.3587	40.7437	74	46
40.3627	40.7747	66	36
40.9047	41.4577	69	39
40.9057	41.4587	66	36
40.9057	41.3217	72	50
40.9077	41.4587	62	30
41.3247	41.4597	74	51
41.4607	41.5277	72	50
41.4617	43.0997	66	39
41.4617	43.0987	69	49
41.4647	42.2737	60	46
41.5287	41.5907	74	53
41.5907	42.2767	75	58
42.2767	42.5497	74	48
42.2777	42.5507	62	46
42.5507	43.1027	63	46
42.5507	43.0997	72	42
43.1037	43.6447	69	40
43.1037	43.5047	74	55
43.1057	43.6457	54	31
43.1067	43.6457	62	37
43.5087	43.6487	72	48
43.6487	44.1947	67	44
43.6487	44.1977	71	52
43.6527	44.1977	55	35
43.6527	44.2017	62	42
44.2017	44.6147	67	46
44.2027	44.6147	53	35
44.2027	44.6147	69	54
44.2057	44.6187	55	35
44.2057	44.6157	62	43
44.6187	44.7477	67	36
44.6197	44.7486	71	44
44.6217	44.7517	53	29
44.6217	44.7507	55	29
44.6217	44.7517	62	35
44.7517	45.3116	67	50
44.7557	45.3136	51	39
44.7557	45.3116	55	39
44.7557	45.3116	72	59
44.7576	45.3146	60	47
45.3146	45.7346	67	51
45.3156	45.7356	74	61
45.3186	45.7376	50	40
45.3186	45.7376	55	40
45.3186	45.7356	59	48
45.7386	45.8857	67	52
45.7416	45.8886	48	41
45.7416	45.8857	75	62
45.7426	45.8896	55	41
45.7426	45.8886	60	49
45.8926	47.6627	67	61
45.8926	47.6636	74	73
45.8936	47.6647	55	48
45.8936	47.6636	59	57
47.6667	48.2176	62	64
47.6676	48.0756	67	64
47.6676	48.2176	71	77
47.6687	48.0766	55	61
47.6696	48.0766	43	51
48.0726	48.2176	63	61
48.0756	48.2126	67	61
48.0766	48.2166	43	48
48.0766	48.2166	55	57
48.0766	48.2176	72	73
48.2116	48.7626	65	74
48.2126	48.7656	67	74
48.2156	48.7666	74	89
48.2166	48.7696	43	59
48.2166	48.7696	55	70
48.7626	49.3146	65	68
48.7656	49.3156	67	68
48.7666	49.3186	74	81
48.7696	49.3216	43	55
48.7696	49.3196	55	64
49.3146	49.8786	65	68
49.3156	49.8616	67	68
49.3186	49.8786	74	81
49.3196	49.8646	55	66
49.3216	49.8646	43	56
49.8606	50.4176	63	68
49.8616	50.2746	67	68
49.8646	50.2776	43	68
49.8646	50.2786	55	80
49.8646	50.4176	72	80
50.2736	50.4176	65	69
50.2746	50.4146	67	69
50.2746	50.4176	74	82
50.2776	50.4176	43	56
50.2786	50.4156	55	66
50.4146	51.3596	67	78
50.4146	51.3596	75	92
50.4156	50.9636	55	73
50.4176	50.9636	43	61
50.9456	51.0866	57	84
50.9496	51.0866	45	70
51.3626	51.4986	65	64
51.3636	51.5036	47	56
51.3636	51.4996	67	64
51.3636	51.5026	74	77
51.3666	51.5036	59	68
51.5036	52.0556	63	57
51.5056	52.0556	67	57
51.5066	52.0556	48	64
51.5066	52.0556	72	68
51.5076	52.0556	60	78
52.0456	52.6026	65	72
52.0456	52.4516	68	72
52.0466	52.6026	74	85
52.0486	52.4546	41	52
52.0486	52.4546	53	62
52.4516	52.6026	63	61
52.4516	52.6026	68	61
52.4546	52.6026	41	41
52.4546	52.6026	53	49
52.4546	52.6026	72	73
52.5946	53.1506	62	68
52.5976	53.1436	67	68
52.5976	53.1506	71	80
52.5986	53.1506	43	51
52.6016	53.1446	55	61
53.1406	53.7145	60	64
53.1436	53.5616	67	64
53.1446	53.5616	55	61
53.1446	53.7145	69	77
53.5606	53.7145	62	52
53.5616	53.7046	55	49
53.5616	53.7006	67	52
53.5616	53.7145	71	62
53.5636	53.7145	53	41
53.7006	54.2925	63	70
53.7006	54.2815	67	70
53.7015	54.2925	51	56
53.7015	54.2925	72	83
53.7046	54.2925	55	66
54.2815	54.7055	67	78
54.2815	54.8595	75	92
54.2826	54.7075	31	61
54.2826	54.7065	43	73
54.7055	54.8595	65	64
54.7055	54.8555	67	64
54.7055	54.8595	74	77
54.7065	54.8585	43	61
54.7075	54.8595	31	51
54.8515	56.6305	63	74
54.8555	56.6305	67	74
54.8565	56.6315	72	89
54.8585	56.6335	36	64
54.8585	56.6335	43	77
56.6335	57.0425	74	55
57.0435	57.1835	75	47
57.1835	57.5685	77	64
57.7325	58.1455	71	44
57.7335	58.1455	68	44
57.7355	58.1465	74	44
57.7365	58.1205	77	52
57.7395	58.1495	65	41
58.2855	58.6665	68	44
58.2855	58.6675	70	44
58.2865	58.6455	77	52
58.2885	58.6675	62	34
58.2895	58.6705	65	41
58.8005	59.4055	70	39
58.8035	59.4065	68	39
58.8035	58.9265	75	47
58.8045	59.4065	58	34
58.8045	59.4085	65	41
58.8595	58.9355	77	47
58.9265	59.2375	75	70
59.2375	59.4085	74	58
59.4095	59.9445	70	56
59.4125	59.9455	67	56
59.4125	60.3535	79	66
59.4135	59.9485	63	52
59.9485	60.4975	68	36
59.9485	60.4945	74	44
59.9515	60.5015	59	30
59.9525	60.5025	62	30
59.9525	60.5015	65	36
60.3575	60.5025	77	55
60.5045	61.0475	67	56
60.5045	61.0475	75	48
60.5055	61.0505	60	44
60.5055	61.0505	63	52
61.0515	61.4605	65	53
61.0545	61.5995	68	46
61.0555	61.6005	53	43
61.0555	61.4605	74	63
61.4615	61.6005	63	46
61.4635	61.6015	72	54
61.6045	62.1495	62	50
61.6045	62.1535	67	50
61.6045	62.1535	71	59
61.6065	62.1545	55	48
62.1565	62.5625	60	52
62.1565	62.5635	67	52
62.1575	62.5665	55	49
62.1575	62.5655	69	61
62.5665	62.7025	62	42
62.5705	62.7065	53	34
62.5705	62.7035	67	42
62.5705	62.7065	71	50
62.5735	62.7075	55	40
62.7075	63.2655	63	57
62.7095	63.2665	67	57
62.7095	63.2665	72	68
62.7105	63.2695	51	45
62.7105	63.2705	55	53
63.2705	63.6895	67	59
63.2725	63.6905	50	46
63.2725	63.6905	77	78
63.2735	63.6935	55	46
63.2735	63.6935	59	55
63.6945	63.8325	67	60
63.6945	63.8335	75	71
63.6965	63.8375	55	47
63.6965	63.8375	60	56
63.6975	63.8395	48	47
63.8405	65.6145	67	71
63.8405	65.6154	74	84
63.8415	65.6184	55	55
63.8445	65.6184	59	64
65.6215	66.1714	65	70
65.6224	66.0274	70	70
65.6224	66.1714	74	83
65.6254	66.0314	34	56
65.6264	66.0314	46	66
66.0274	66.1714	67	67
66.0274	66.1684	70	67
66.0314	66.1714	34	52
66.0314	66.1704	46	60
66.0314	66.1714	75	79
66.1674	66.7204	68	64
66.1684	66.7214	70	81
66.1684	66.7214	77	96
66.1704	66.7244	46	76
66.1714	66.7244	34	64
66.7204	67.2704	68	60
66.7214	67.2734	70	75
66.7214	67.2734	77	88
66.7244	67.2744	34	57
66.7244	67.2744	46	69
67.2704	67.8294	68	60
67.2734	67.8194	70	75
67.2734	67.8294	77	88
67.2744	67.8204	34	59
67.2744	67.8204	46	71
67.8154	68.3734	67	58
67.8194	68.2294	70	73
67.8204	68.2324	34	73
67.8204	68.2334	46	86
67.8204	68.3734	75	86
68.2254	68.3734	65	60
68.2294	68.3654	70	76
68.2324	68.3694	34	59
68.2324	68.3734	74	89
68.2334	68.3724	46	71
68.3654	69.3134	70	84
68.3694	68.9114	34	67
68.3694	69.3144	79	99
68.3724	68.9114	46	79
68.9014	69.0334	36	76
68.9014	69.0374	48	91
69.3154	69.4464	68	70
69.3184	69.4514	38	60
69.3184	69.4474	70	70
69.3184	69.4504	77	83
69.3214	69.4514	50	74
69.4534	70.0104	67	62
69.4544	70.0104	70	62
69.4544	70.0104	75	74
69.4574	70.0104	39	71
69.4584	70.0104	51	84
69.9994	70.5494	65	77
70.0004	70.4064	68	77
70.0004	70.5494	74	92
70.0034	70.4094	41	57
70.0044	70.4104	53	67
70.4054	70.5494	63	67
70.4064	70.5494	68	67
70.4064	70.5494	72	79
70.4094	70.5494	41	44
70.4104	70.5494	53	53
70.5464	71.1094	62	73
70.5464	71.0994	67	73
70.5474	71.1004	55	66
70.5474	71.1094	71	86
70.5494	71.1094	43	56
71.0954	71.6694	60	70
71.0994	71.5124	67	70
71.1004	71.5194	55	66
71.1004	71.6694	69	83
71.5124	71.6694	62	57
71.5124	71.6494	67	57
71.5154	71.6694	71	67
71.5194	71.6694	53	44
71.5194	71.6524	55	53
71.6484	72.2644	63	76
71.6494	72.2514	67	76
71.6494	72.2644	72	90
71.6514	72.2644	51	59
71.6524	72.2644	55	71
72.2514	72.6744	67	84
72.2514	72.8313	75	99
72.2544	72.6803	31	67
72.2544	72.6783	43	79
72.6733	72.8313	65	70
72.6744	72.8243	67	70
72.6774	72.8313	74	83
72.6783	72.8283	43	66
72.6803	72.8313	31	56
72.8243	74.6123	63	81
72.8243	74.6123	67	81
72.8283	74.6123	43	83
72.8283	74.6123	72	96
72.8313	74.6123	36	70
74.6063	75.1803	75	78
75.0273	75.1803	74	70
75.1733	76.9473	63	71
75.1733	76.9513	68	71
75.1743	76.9523	72	83
75.1773	76.9523	44	61
75.1773	76.9523	51	61
75.1773	76.9543	56	72
76.9553	77.0283	72	69
77.0283	77.5463	75	78
77.3883	77.5463	74	70
77.5393	79.3273	67	71
77.5423	79.3273	72	83
77.5433	79.3273	39	61
77.5433	79.3213	48	61
77.5453	79.3273	51	72
79.3203	79.8753	74	78
79.3213	79.8753	48	48
79.3243	79.8753	60	57
79.7233	79.8753	75	67
79.8703	80.4293	68	62
79.8733	80.4203	72	62
79.8733	80.4293	77	73
79.8743	80.4293	41	47
79.8743	80.4293	53	56
80.4163	80.9903	67	59
80.4203	80.9733	72	59
80.4203	80.9903	75	70
80.4213	80.9743	43	47
80.4223	80.9733	55	56
80.8293	80.9903	65	48
80.8333	80.9903	44	38
80.8333	80.9903	74	57
80.8363	80.9903	56	45
80.9693	81.5643	63	64
80.9733	81.5643	55	60
80.9733	81.5643	72	76
80.9743	81.5583	43	51
81.5543	82.1313	67	60
81.5573	82.1383	62	60
81.5583	82.1343	43	56
81.5583	82.1393	71	71
81.5603	82.1353	31	47
82.1273	83.9163	63	57
82.1313	83.9163	67	57
82.1323	83.9163	48	59
82.1323	83.9163	72	68
82.1343	83.9163	36	50
82.1343	83.9163	43	50
83.9093	84.4973	75	60
84.3263	84.4973	74	54
84.4903	86.2643	63	55
84.4913	86.2653	68	55
84.4933	86.2673	44	47
84.4933	86.2683	51	47
84.4933	86.2653	72	65
84.4943	86.2683	56	56
86.2713	86.8632	75	59
86.6893	86.8632	74	52
86.8562	88.6512	67	51
86.8602	88.6512	39	50
86.8602	88.6512	48	50
86.8602	88.6512	72	61
86.8632	88.6512	51	59
88.6382	89.0362	73	54
89.0402	89.1832	75	46
89.1842	89.3162	73	40
89.1872	89.7262	49	39
89.1872	89.7232	68	40
89.2512	89.3162	75	43
89.3142	89.7272	77	51
89.7302	90.0032	68	41
89.7302	90.0062	75	49
89.7312	90.0022	51	39
90.1432	90.2102	53	31
90.1432	90.2052	68	33
90.1432	90.2062	73	39
90.2752	90.5592	68	44
90.2762	90.5622	72	53
90.2792	90.5632	51	42
90.8632	91.1462	63	37
90.8642	91.1512	61	37
90.8642	91.1472	67	37
90.8672	91.1512	70	44
90.8682	91.1502	39	28
90.8682	91.1472	51	35
91.4312	92.6132	60	39
91.4342	92.6132	63	39
91.4342	92.6132	68	47
91.4352	92.6132	44	40
91.6302	92.0262	48	33
91.8272	92.2152	51	33
92.0262	92.6132	48	40
92.2152	92.6132	51	29
92.4072	92.6132	56	30
92.6032	93.1772	47	40
92.7932	93.1772	50	33
92.9812	93.1772	56	33
93.1742	93.7402	48	40
93.1742	93.7402	68	53
93.3522	93.7402	51	35
93.5382	93.7402	56	35
93.5862	93.7402	72	47
93.7372	94.3042	75	57
93.7382	94.8572	44	40
93.9262	94.3042	48	33
94.1162	94.6652	56	33
94.3042	94.8572	48	40
94.3042	94.8502	75	51
94.4862	94.8572	51	29
94.6652	94.8572	56	30
94.8502	95.3972	75	53
94.8512	95.4032	47	40
95.0322	95.4032	50	33
95.2112	95.4032	56	33
95.3972	95.9742	48	40
95.3972	95.9742	75	52
95.5782	95.9742	51	35
95.7742	95.9742	56	35
95.9702	96.5162	49	40
95.9702	97.0792	77	58
96.1552	96.5272	53	33
96.3382	96.5272	56	33
96.5162	97.0792	49	40
96.6982	97.0792	55	29
96.8702	97.0792	58	30
97.0632	98.1652	75	55
97.0652	97.6152	48	40
97.2482	97.9762	56	33
97.4302	98.1652	60	33
97.6152	98.1652	48	40
97.7942	98.1652	51	35
97.9762	98.1652	56	35
98.1612	98.7142	46	40
98.1612	99.2742	73	58
98.3472	98.7152	51	33
98.5252	98.7152	56	33
98.7142	99.2742	46	40
98.8932	99.2742	51	29
99.0652	99.2742	55	30
99.2572	100.352	72	52
99.2592	99.8032	44	35
99.4352	99.8132	51	28
99.6182	99.8132	58	28
99.8032	100.352	44	35
99.9772	100.352	51	27
100.156	100.352	56	35
100.349	100.905	70	40
100.352	100.905	49	30
100.534	100.905	56	24
100.713	100.905	58	24
100.902	101.469	53	32
100.902	101.469	73	34
101.08	101.469	56	23
101.266	101.469	61	24
101.448	102.005	51	30
101.448	102.018	72	40
101.63	102.018	56	23
101.815	102.018	60	23
102.004	102.578	70	37
102.005	102.578	51	29
102.194	102.578	55	23
102.379	102.578	58	23
102.574	103.726	68	48
102.575	103.726	44	33
102.764	103.152	48	23
102.956	103.524	56	23
103.152	103.726	48	31
103.338	103.726	51	25
103.524	103.726	56	26
103.717	104.282	47	40
103.902	104.282	50	31
104.087	104.282	56	31
104.273	104.847	48	40
104.273	104.847	68	53
104.458	104.847	51	35
104.64	104.847	56	35
104.685	104.847	72	47
104.843	105.406	75	57
104.844	105.959	44	40
105.028	105.406	48	33
105.218	105.771	56	33
105.403	105.949	63	42
105.406	105.959	48	40
105.406	105.952	75	51
105.585	105.959	51	29
105.771	105.959	56	30
105.949	106.495	63	45
105.952	106.499	75	53
105.953	106.501	47	40
106.131	106.501	50	33
106.316	106.501	56	33
106.495	107.115	63	44
106.499	107.115	48	40
106.499	107.115	75	52
106.68	107.115	51	35
106.873	107.115	56	35
107.111	108.231	64	49
107.111	108.231	76	58
107.114	107.664	49	40
107.296	107.667	52	33
107.478	107.667	56	33
107.664	108.231	49	40
107.843	108.231	52	29
108.024	108.231	58	30
108.217	109.316	63	46
108.218	108.767	47	40
108.218	109.316	75	55
108.396	108.941	54	33
108.577	109.12	59	33
108.767	109.316	47	40
108.941	109.316	54	35
109.12	109.316	59	35
109.313	110.425	73	58
109.316	109.858	52	40
109.494	109.869	56	33
109.677	109.869	61	33
109.858	110.425	52	40
110.037	110.425	54	29
110.215	110.425	58	30
110.404	111.493	71	52
110.405	110.947	51	35
110.59	110.964	54	28
110.769	110.964	59	28
110.947	111.493	51	35
111.129	111.493	55	27
111.22	111.493	70	45
111.308	111.493	61	35
111.489	112.029	68	40
111.493	112.031	52	30
111.668	112.031	56	24
111.853	112.031	59	24
112.029	112.091	68	33
112.031	112.584	56	32
112.092	112.584	76	52
112.203	112.584	59	23
112.389	112.584	64	24
112.564	113.134	75	46
112.567	113.121	54	30
112.749	113.134	59	23
112.935	113.134	63	23
113.121	113.694	54	29
113.121	113.694	73	42
113.31	113.694	58	23
113.495	113.694	61	23
113.684	115.392	71	48
113.685	114.843	47	33
113.88	114.262	51	23
114.072	114.64	59	23
114.262	114.843	51	31
114.454	114.843	54	25
114.64	114.843	59	27
114.825	115.399	50	42
115.017	115.399	53	32
115.203	115.399	59	32
115.392	115.963	71	57
115.393	115.963	51	42
115.574	115.963	54	37
115.759	115.963	59	38
115.805	115.963	75	50
115.96	116.523	66	46
115.962	116.526	47	44
115.962	116.526	78	62
116.145	116.701	51	36
116.337	116.887	54	37
116.523	117.079	66	48
116.526	117.079	47	47
116.526	117.079	78	59
116.701	117.079	51	34
116.887	117.079	54	36
117.068	117.619	67	57
117.072	117.619	46	51
117.072	117.619	79	67
117.247	117.619	49	48
117.433	117.619	51	49
117.614	118.168	68	59
117.618	118.168	44	62
117.618	118.168	80	71
117.799	118.168	49	55
117.978	118.168	51	56
118.164	118.721	70	64
118.168	118.714	43	72
118.168	118.721	82	79
118.349	118.721	49	58
118.532	118.721	51	62
118.711	119.266	73	64
118.714	119.266	43	69
118.714	119.266	85	77
118.896	119.266	46	48
119.074	119.266	51	55
119.257	119.815	71	62
119.259	119.815	83	74
119.26	119.815	44	62
119.442	119.815	47	49
119.627	119.815	51	48
119.808	120.376	70	49
119.809	120.376	82	58
119.812	120.376	49	44
119.991	120.376	52	38
120.18	120.376	58	38
120.226	120.376	68	42
120.229	120.376	80	51
120.373	120.936	67	49
120.375	120.937	79	58
120.376	120.937	51	33
120.558	121.118	58	27
120.747	121.304	61	27
120.936	121.506	67	46
120.937	121.496	51	34
120.937	121.506	79	55
121.118	121.506	58	25
121.304	121.506	61	26
121.492	122.62	68	45
121.496	122.041	51	36
121.496	122.62	80	53
121.671	122.227	58	29
121.765	122.322	67	37
121.766	122.322	79	45
121.856	122.413	61	29
122.039	122.622	65	38
122.039	122.622	77	46
122.041	122.622	51	35
122.227	122.622	58	28
122.322	122.622	67	37
122.322	122.622	79	45
122.413	122.622	61	28
122.62	123.771	56	33
122.62	123.568	68	40
122.62	124.324	80	48
122.808	123.193	60	23
123.001	123.376	63	23
123.193	123.771	60	31
123.376	123.771	63	25
123.568	124.132	68	27
123.753	124.328	59	38
123.946	124.328	62	32
124.132	124.328	68	32
124.324	124.891	80	57
124.327	124.891	60	42
124.502	124.891	63	37
124.688	124.891	68	38
124.737	124.891	84	50
124.888	125.451	75	57
124.889	125.451	87	68
124.891	126.005	56	44
125.077	125.452	60	36
125.266	125.815	68	37
125.451	126.0	75	52
125.451	126.004	87	62
125.452	126.005	60	47
125.633	126.005	63	34
125.815	126.005	68	36
126.0	126.543	75	56
126.004	126.549	59	50
126.004	126.543	87	67
126.183	126.549	62	42
126.361	126.549	68	43
126.543	127.103	75	60
126.543	127.103	87	71
126.544	127.103	60	55
126.725	127.103	63	47
126.911	127.103	68	45
127.099	127.652	77	58
127.099	127.652	89	69
127.1	127.65	61	61
127.278	127.652	65	46
127.457	127.652	68	51
127.646	128.195	79	57
127.649	128.195	91	72
127.65	128.195	61	61
127.824	128.195	63	49
128.002	128.195	70	49
128.192	128.748	80	58
128.193	128.748	92	69
128.195	128.746	60	57
128.37	128.748	63	45
128.556	128.748	68	44
128.745	129.297	75	51
128.746	129.301	60	44
128.746	129.298	87	61
128.927	129.301	63	38
129.105	129.301	68	38
129.297	130.4	75	56
129.298	130.4	87	66
129.301	129.865	58	44
129.49	130.047	63	36
129.675	130.4	70	37
129.864	130.4	73	45
129.865	130.4	58	47
129.865	130.4	85	54
130.047	130.4	63	34
130.225	130.411	67	36
130.411	130.964	73	52
130.414	130.963	56	45
130.414	130.964	85	62
130.593	130.964	63	36
130.771	130.964	68	36
130.96	131.405	72	46
130.963	131.405	56	46
130.963	131.405	84	55
131.139	131.405	63	37
131.324	131.509	68	36
131.51	132.062	61	30
131.51	132.062	82	56
131.692	132.062	68	24
131.871	132.062	70	24
132.056	132.622	85	50
132.059	132.622	65	32
132.241	132.622	68	23
132.423	132.622	73	24
132.608	133.162	63	30
132.608	133.175	84	57
132.787	133.175	68	23
132.979	133.175	72	23
133.161	133.738	82	49
133.162	133.738	63	29
133.351	133.738	67	23
133.537	133.738	70	23
133.729	133.917	80	53
133.731	135.846	60	25
133.732	135.429	56	25
133.732	134.11	68	30
133.917	134.681	63	48
134.11	134.495	68	48
134.303	135.059	72	59
134.495	135.241	68	48
134.681	136.0	63	49
134.869	135.8	75	59
135.059	135.615	72	53
135.241	135.427	68	54
135.427	136.0	68	59
135.429	136.0	56	58
135.615	136.0	72	53
135.8	135.999	75	53
135.846	136.0	60	51
135.999	136.56	75	59
136.0	136.561	63	62
136.182	136.739	70	53
136.371	136.921	67	53
136.56	137.106	75	59
136.561	137.107	63	56
136.739	137.123	70	52
136.921	137.123	67	52
137.106	137.669	75	59
137.107	137.653	63	58
137.285	137.669	72	51
137.47	137.669	68	51
137.653	138.218	63	57
137.653	138.218	70	62
137.838	138.218	75	55
138.024	138.218	79	57
138.212	138.761	80	66
138.216	139.311	65	63
138.395	138.775	75	59
138.58	138.775	68	59
138.761	139.307	80	67
138.94	139.311	74	59
139.115	139.311	68	59
139.307	139.874	80	65
139.308	140.414	63	60
139.486	139.874	75	54
139.672	139.857	70	54
139.857	140.414	70	61
140.039	140.414	75	52
140.211	140.414	79	52
140.404	140.957	77	59
140.407	141.508	61	63
140.589	140.963	70	51
140.771	140.963	67	52
140.957	141.495	77	59
141.128	141.508	71	53
141.309	141.508	67	53
141.495	142.055	77	57
141.499	142.601	60	57
141.68	142.055	72	51
141.859	142.045	68	51
142.045	142.601	68	59
142.22	142.601	72	52
142.398	142.601	75	52
142.591	143.145	61	59
142.594	143.147	58	57
142.776	143.147	68	54
142.958	143.147	73	54
143.144	143.711	65	59
143.145	143.711	61	55
143.322	143.711	68	55
143.511	143.711	70	56
143.69	144.247	63	59
143.693	144.25	60	61
143.876	144.25	68	54
144.061	144.25	72	54
144.247	144.814	63	59
144.249	144.817	51	45
144.249	144.821	67	70
144.25	144.821	58	54
144.434	144.821	75	63
144.624	144.821	73	67
144.814	145.002	63	60
144.815	145.199	68	60
144.816	146.515	56	60
144.816	145.394	72	71
144.817	147.083	51	51
144.82	146.517	44	51
145.002	145.768	63	59
145.199	145.583	68	59
145.394	146.146	72	67
145.583	146.329	68	56
145.768	147.084	63	56
145.958	146.881	75	66
146.146	146.696	72	57
146.329	146.514	68	57
146.514	147.085	68	68
146.515	147.085	56	63
146.517	147.085	44	63
146.696	147.085	72	60
146.881	147.082	75	60
146.931	147.085	48	56
146.932	147.085	60	56
147.082	147.641	75	69
147.083	147.645	51	68
147.084	147.641	63	68
147.267	147.827	70	59
147.459	148.009	67	59
147.641	148.191	63	61
147.641	148.187	75	70
147.645	148.188	51	50
147.827	148.198	70	57
148.009	148.198	67	57
148.187	148.743	75	71
148.188	148.734	51	53
148.191	148.736	63	63
148.373	148.743	71	61
148.555	148.743	68	59
148.734	149.311	51	52
148.734	149.311	70	68
148.736	149.311	63	62
148.919	149.311	75	62
149.111	149.311	79	63
149.307	149.871	80	68
149.31	150.434	52	58
149.311	150.434	64	69
149.493	149.881	75	58
149.686	149.881	68	58
149.871	150.42	80	67
150.052	150.434	73	59
150.231	150.434	70	59
150.42	151.531	51	55
150.42	150.983	80	67
150.423	151.531	63	66
150.602	150.983	75	57
150.788	150.966	71	57
150.966	151.531	71	65
151.148	151.531	75	57
151.327	151.531	78	57
151.53	152.632	49	58
151.53	152.072	76	65
151.531	152.632	61	69
151.704	152.09	71	55
151.89	152.09	67	55
152.072	152.621	76	62
152.251	152.632	70	53
152.426	152.632	67	53
152.621	153.715	76	64
152.622	153.715	47	52
152.622	153.715	59	62
152.797	153.343	71	55
152.983	153.16	68	55
153.16	153.711	68	65
153.343	153.715	71	56
153.43	153.715	58	68
153.514	153.715	75	56
153.711	154.256	68	66
153.714	154.277	52	52
153.714	154.259	56	61
153.893	154.277	71	59
154.074	154.277	73	57
154.256	154.824	68	67
154.257	154.824	49	46
154.259	154.824	56	46
154.26	154.824	64	55
154.438	154.824	71	56
154.62	154.824	76	56
154.82	155.377	66	66
154.824	155.38	54	47
154.824	155.39	63	56
155.002	155.39	71	56
155.188	155.39	75	56
155.377	155.965	66	56
155.38	155.969	54	42
155.38	155.971	61	50
155.38	155.971	70	67
155.565	155.971	78	57
155.751	155.971	76	57
155.965	156.149	66	53
155.965	156.15	71	53
155.968	156.153	75	53
155.969	158.233	47	50
155.969	158.236	54	50
155.971	158.236	59	59
156.154	156.913	63	48
156.342	156.727	66	48
156.538	157.291	71	59
156.727	157.477	66	48
156.913	158.236	63	49
157.106	157.848	75	59
157.291	157.662	71	53
157.477	158.232	66	54
157.662	158.236	71	59
157.848	158.236	75	53
158.033	158.233	78	53
158.232	158.792	66	46
158.233	158.795	47	44
158.233	158.793	78	62
158.418	158.974	51	36
158.6	159.159	54	37
158.792	159.348	66	48
158.793	159.348	78	59
158.795	159.348	47	47
158.974	159.348	51	34
159.159	159.348	54	36
159.341	159.891	67	57
159.342	159.891	79	67
159.344	159.891	46	51
159.52	159.891	49	48
159.706	159.891	51	49
159.888	160.441	68	60
159.889	160.441	80	72
159.891	160.441	44	62
160.066	160.441	49	55
160.252	160.441	51	56
160.439	160.993	70	64
160.44	160.993	82	79
160.441	160.987	43	72
160.616	160.993	49	58
160.802	160.993	51	62
160.985	161.534	73	64
160.986	161.534	85	77
160.987	161.534	43	69
161.163	161.534	46	48
161.35	161.534	51	55
161.529	162.089	71	62
161.533	162.089	44	62
161.533	162.089	83	74
161.715	162.089	47	49
161.893	162.089	51	48
162.082	162.649	70	49
162.083	162.649	49	44
162.083	162.649	82	58
162.264	162.649	52	38
162.451	162.649	58	38
162.493	162.649	68	42
162.495	162.649	80	51
162.639	163.209	67	49
162.642	163.21	79	58
162.643	163.21	51	33
162.828	163.392	58	27
163.021	163.577	61	27
163.209	163.773	67	46
163.21	163.767	51	34
163.21	163.773	79	55
163.392	163.773	58	25
163.577	163.773	61	26
163.766	164.886	68	45
163.766	164.886	80	53
163.767	164.315	51	36
163.945	164.494	58	29
164.036	164.595	67	37
164.038	164.596	79	45
164.13	164.686	61	29
164.311	164.892	65	38
164.312	164.892	77	46
164.315	164.892	51	35
164.494	164.892	58	28
164.595	164.892	67	37
164.596	164.892	79	45
164.686	164.892	61	28
164.886	166.031	44	33
164.886	166.031	68	40
164.886	166.031	80	48
165.075	165.27	51	19
165.075	165.274	56	19
165.076	165.275	60	23
165.27	165.463	51	19
165.274	165.463	56	19
165.275	165.464	60	23
165.463	165.648	51	21
165.463	165.652	56	21
165.464	165.652	60	25
165.648	165.842	51	21
165.652	165.842	56	21
165.652	165.841	60	25
165.841	166.03	60	25
165.842	166.03	51	21
165.842	166.031	56	21
166.028	166.317	73	53
166.03	166.167	51	27
166.03	166.166	60	32
166.031	166.167	56	27
166.212	166.345	60	24
166.213	166.345	51	20
166.215	166.349	56	20
166.296	166.59	72	53
166.391	166.53	51	21
166.394	166.535	56	21
166.394	166.534	60	25
166.572	166.866	71	53
166.573	166.709	56	28
166.573	166.709	60	33
166.576	166.713	51	28
166.758	166.901	56	21
166.758	166.901	60	25
166.759	166.902	51	21
166.856	167.119	72	53
166.95	167.077	60	25
166.951	167.078	51	21
166.951	167.077	56	21
167.119	168.245	72	48
167.12	168.25	37	33
167.252	168.25	77	48
167.297	167.49	53	19
167.297	167.487	60	23
167.301	167.493	49	19
167.487	168.25	60	23
167.49	167.682	53	19
167.493	167.682	49	19
167.679	167.868	57	30
167.682	167.867	49	25
167.682	167.864	53	25
167.864	168.06	53	21
167.867	168.057	49	21
167.868	168.06	57	25
168.057	168.246	49	21
168.06	168.249	53	21
168.06	168.25	57	25
168.245	168.529	72	53
168.246	168.382	49	27
168.246	168.382	58	32
168.249	168.383	53	27
168.431	168.56	49	20
168.432	168.56	53	20
168.432	168.564	58	24
168.515	168.805	70	53
168.606	168.743	58	25
168.61	168.743	49	21
168.613	168.743	53	21
168.788	169.086	69	53
168.792	168.928	49	28
168.792	168.929	53	28
168.792	168.928	58	33
168.974	169.12	49	21
168.975	169.121	53	21
168.977	169.121	58	25
169.067	169.341	70	53
169.159	169.292	53	21
169.163	169.296	49	21
169.163	169.297	58	25
169.341	170.482	70	48
169.342	170.482	36	33
169.471	170.482	75	48
169.519	169.712	48	19
169.519	169.712	51	19
169.52	169.713	58	23
169.712	169.905	48	19
169.712	169.906	51	19
169.713	170.482	58	23
169.905	170.091	48	25
169.906	170.091	51	25
169.906	170.09	55	30
170.09	170.283	55	25
170.091	170.279	48	21
170.091	170.279	51	21
170.279	170.472	48	21
170.279	170.472	51	21
170.283	170.482	55	25
170.468	170.751	73	58
170.471	170.605	56	35
170.472	170.608	48	29
170.472	170.608	51	29
170.647	170.787	48	22
170.647	170.786	51	22
170.648	170.787	56	27
170.741	171.028	72	60
170.832	170.965	51	24
170.833	170.969	48	24
170.833	170.965	56	29
171.011	171.308	70	63
171.014	171.15	48	33
171.014	171.154	51	33
171.014	171.15	56	39
171.196	171.335	48	25
171.2	171.339	56	30
171.201	171.34	51	25
171.291	171.585	68	66
171.385	171.536	51	26
171.386	171.537	48	26
171.386	171.537	56	31
171.585	172.134	67	57
171.588	172.134	75	68
171.592	172.134	37	42
171.766	171.945	53	30
171.77	171.945	49	25
171.855	172.134	65	56
171.858	172.134	73	66
171.945	172.131	49	26
171.945	172.131	53	31
172.128	172.708	63	53
172.131	172.306	49	33
172.131	172.306	53	39
172.131	172.708	72	63
172.306	172.489	49	24
172.306	172.488	53	29
172.401	172.708	61	51
172.403	172.708	70	60
172.488	172.708	53	28
172.489	172.708	49	23
172.691	173.275	60	49
172.694	173.275	68	58
172.695	173.265	39	36
172.869	173.058	51	21
172.869	173.054	56	26
173.054	173.275	56	26
173.058	173.275	51	22
173.261	173.846	63	55
173.261	173.846	72	55
173.265	173.846	39	34
173.45	173.636	51	21
173.451	173.636	55	26
173.636	173.846	51	21
173.636	173.846	55	25
173.684	173.846	61	54
173.685	173.846	70	54
173.842	174.032	60	40
173.843	174.981	44	33
173.843	174.981	68	48
174.032	174.224	60	23
174.034	174.225	51	19
174.035	174.224	56	19
174.224	174.42	56	19
174.224	174.416	60	23
174.225	174.417	51	19
174.416	174.606	60	25
174.417	174.609	51	21
174.42	174.606	56	21
174.606	174.794	56	21
174.606	174.791	60	25
174.609	174.791	51	21
174.791	174.98	51	21
174.791	174.98	60	25
174.794	174.98	56	21
174.976	175.266	73	53
174.98	175.116	51	27
174.98	175.12	56	27
174.98	175.116	60	32
175.162	175.294	56	20
175.162	175.295	60	24
175.165	175.298	51	20
175.25	175.54	72	53
175.343	175.484	51	21
175.344	175.484	56	21
175.344	175.485	60	25
175.522	175.665	60	33
175.522	175.816	71	53
175.526	175.67	51	28
175.526	175.669	56	28
175.707	175.855	51	21
175.708	175.855	56	21
175.708	175.855	60	25
175.806	176.093	72	53
175.901	176.044	51	21
175.901	176.047	60	25
175.902	176.048	56	21
176.093	176.387	84	53
176.094	177.223	77	48
176.096	176.236	37	33
176.285	176.422	49	19
176.286	176.425	53	19
176.286	176.425	60	23
176.376	176.677	82	53
176.471	176.615	53	19
176.471	176.614	60	23
176.472	176.615	49	19
176.659	176.953	81	53
176.664	176.807	49	25
176.664	176.807	53	25
176.664	176.807	60	30
176.853	176.992	53	21
176.853	176.992	60	25
176.854	176.993	49	21
176.946	177.224	82	53
177.038	177.178	53	21
177.039	177.178	49	21
177.039	177.178	60	25
177.224	177.513	72	53
177.227	177.364	53	27
177.227	177.363	58	32
177.23	177.367	49	27
177.409	177.541	53	20
177.412	177.546	49	20
177.412	177.546	58	24
177.497	177.787	70	53
177.59	177.731	53	21
177.591	177.732	49	21
177.591	177.732	58	25
177.769	177.905	53	28
177.769	178.067	69	53
177.77	177.909	58	33
177.773	177.912	49	28
177.961	178.102	53	21
177.962	178.102	49	21
177.962	178.102	58	25
178.053	178.336	70	53
178.144	178.283	49	21
178.148	178.288	58	25
178.151	178.288	53	21
178.336	178.623	82	58
178.34	179.474	75	48
178.341	178.477	36	33
178.521	178.669	58	23
178.526	178.672	48	19
178.526	178.669	51	19
178.624	178.913	80	60
178.714	178.857	58	23
178.718	178.862	48	19
178.718	178.864	51	19
178.914	179.054	51	25
178.914	179.19	79	63
178.917	179.054	58	30
178.918	179.055	48	25
179.099	179.24	48	21
179.099	179.235	51	21
179.103	179.24	58	25
179.193	179.478	80	66
179.285	179.428	58	25
179.286	179.432	48	21
179.286	179.432	51	21
179.478	179.761	73	58
179.48	179.61	51	29
179.481	179.611	48	29
179.481	179.611	56	35
179.656	179.796	48	22
179.656	179.796	56	27
179.657	179.796	51	22
179.75	180.034	72	60
179.834	179.974	51	24
179.837	179.978	48	24
179.838	179.978	56	29
180.02	180.317	70	63
180.023	180.159	51	33
180.024	180.163	56	39
180.027	180.164	48	33
180.208	180.349	51	25
180.209	180.349	48	25
180.209	180.35	56	30
180.3	180.594	68	66
180.394	180.544	51	26
180.394	180.545	56	31
180.395	180.545	48	26
180.597	181.137	75	57
180.598	181.14	67	57
180.601	181.14	37	42
180.601	181.14	79	68
180.775	180.958	56	30
180.776	180.958	49	25
180.78	180.954	53	25
180.866	181.14	73	56
180.867	181.14	65	56
180.87	181.14	77	66
180.954	181.139	53	26
180.958	181.14	49	26
180.958	181.14	56	31
181.133	181.703	72	53
181.136	181.718	63	53
181.137	181.718	75	63
181.139	181.315	53	33
181.14	181.315	49	33
181.14	181.318	57	39
181.315	181.497	49	24
181.315	181.497	53	24
181.318	181.718	57	29
181.406	181.718	70	51
181.41	181.718	61	51
181.41	181.718	73	60
181.496	181.718	58	28
181.497	181.718	49	23
181.497	181.718	53	23
181.703	182.284	60	49
181.703	182.284	68	49
181.703	182.284	72	58
181.707	182.275	39	36
181.878	182.061	51	21
181.882	182.061	56	26
182.061	182.284	51	22
182.061	182.284	56	26
182.27	182.852	61	46
182.274	182.852	67	46
182.275	182.852	39	34
182.275	182.852	73	55
182.452	182.638	58	26
182.455	182.641	55	21
182.456	182.641	51	21
182.638	182.852	58	25
182.641	182.852	51	21
182.641	182.852	55	21
182.687	182.852	70	54
182.845	184.531	56	40
182.848	184.531	63	40
182.849	184.532	60	40
182.849	184.535	68	48
182.851	184.535	32	33
182.851	182.988	44	33
183.037	183.181	44	19
183.037	183.181	48	21
183.037	183.18	51	23
183.233	183.373	44	19
183.233	183.372	48	19
183.234	183.373	51	23
183.421	183.562	44	21
183.426	183.565	48	21
183.426	183.566	51	25
183.611	183.747	48	21
183.611	183.748	51	25
183.612	183.75	44	21
183.799	183.94	51	25
183.803	183.94	48	21
183.804	183.941	44	21
183.989	184.125	44	27
183.989	184.126	48	27
183.989	184.126	51	32
184.171	184.304	44	20
184.172	184.308	51	24
184.174	184.311	48	27
184.353	184.486	44	21
184.353	184.487	48	21
184.357	184.487	51	25
184.536	184.952	60	40
184.538	184.672	51	33
184.539	184.672	48	28
184.542	184.672	44	28
184.717	184.857	44	21
184.717	184.858	48	21
184.721	184.86	51	25
184.902	185.052	44	21
184.906	185.053	48	21
184.906	185.056	51	25
184.952	185.101	63	37
185.102	185.536	56	37
185.102	185.539	68	44
185.103	185.249	44	33
185.105	186.247	32	33
185.295	185.439	44	19
185.295	185.438	51	23
185.296	185.439	48	21
185.483	185.631	48	19
185.484	185.631	44	19
185.487	185.631	51	23
185.682	186.099	56	34
185.683	185.823	44	21
185.683	186.1	68	40
185.686	185.824	48	21
185.687	185.824	51	25
185.868	186.004	48	21
185.868	186.005	51	25
185.869	186.008	44	21
186.053	186.197	48	21
186.054	186.197	44	21
186.054	186.201	51	25
186.247	186.652	56	34
186.248	186.653	68	40
186.25	186.379	48	27
186.25	186.375	51	32
186.251	186.382	44	27
186.425	186.565	48	27
186.426	186.565	44	20
186.428	186.569	51	24
186.611	186.743	51	25
186.613	186.743	44	21
186.614	186.747	48	21
186.789	187.209	56	34
186.79	187.209	68	40
186.792	186.929	44	28
186.792	186.929	51	33
186.796	186.933	48	28
186.977	187.114	51	25
186.978	187.118	44	21
186.978	187.118	48	21
187.16	187.348	44	21
187.163	187.349	48	21
187.163	187.349	51	25
187.412	189.101	55	40
187.413	188.556	31	33
187.413	189.101	67	48
187.415	187.556	43	33
187.608	187.748	43	19
187.612	187.751	48	21
187.612	187.749	51	23
187.8	187.943	48	19
187.8	187.948	51	23
187.804	187.948	43	19
187.992	188.133	48	21
187.993	188.134	43	21
187.993	188.133	51	25
188.177	188.32	43	21
188.177	188.325	48	21
188.179	188.325	51	25
188.366	188.507	48	21
188.37	188.51	43	21
188.371	188.51	51	25
188.556	188.695	43	27
188.556	188.696	51	32
188.559	188.696	48	27
188.741	188.874	51	24
188.742	188.874	48	27
188.744	188.878	43	20
188.919	189.052	48	21
188.92	189.053	51	25
188.923	189.056	43	21
189.102	189.241	43	28
189.102	189.518	60	40
189.105	189.242	48	28
189.105	189.242	51	33
189.283	189.43	51	25
189.284	189.43	43	21
189.286	189.431	48	21
189.476	189.623	43	21
189.476	189.622	48	21
189.479	189.623	51	25
189.518	189.668	63	37
189.669	190.102	55	37
189.669	190.106	67	44
189.672	190.813	31	33
189.673	189.816	43	33
189.86	190.004	51	23
189.861	190.005	43	19
189.861	190.008	48	21
190.057	190.196	51	24
190.06	190.201	43	19
190.06	190.197	48	19
190.249	190.673	67	43
190.25	190.674	55	37
190.253	190.389	43	22
190.253	190.39	48	22
190.253	190.39	51	26
190.435	190.575	43	24
190.435	190.574	48	24
190.436	190.575	51	28
190.627	190.767	51	29
190.628	190.768	43	24
190.628	190.767	48	24
190.813	191.222	55	42
190.817	190.954	48	33
190.817	190.953	51	39
190.817	191.226	67	50
190.82	190.954	43	33
190.991	191.132	51	31
190.992	191.132	43	24
190.995	191.135	48	34
191.176	191.313	51	34
191.181	191.314	43	28
191.181	191.313	48	28
191.359	191.776	55	47
191.36	191.499	43	39
191.36	191.776	67	56
191.362	191.499	48	39
191.362	191.5	51	46
191.544	191.681	43	31
191.545	191.684	48	31
191.545	191.684	51	36
191.73	191.916	48	31
191.73	191.915	51	37
191.731	191.919	43	31
191.985	193.211	53	60
191.986	193.211	65	73
191.989	193.211	29	55
191.989	192.174	41	55
192.174	192.374	41	28
192.178	192.375	48	32
192.178	192.374	51	35
192.374	192.562	41	28
192.374	192.567	51	35
192.375	192.566	48	28
192.562	192.759	41	32
192.566	192.759	48	32
192.567	192.76	51	37
192.759	192.944	41	32
192.759	192.944	48	32
192.76	192.941	51	37
192.941	193.211	51	37
192.944	193.211	41	32
192.944	193.211	48	32
193.207	194.369	54	60
193.21	194.369	66	73
193.211	194.369	30	55
193.211	193.396	42	55
193.396	193.593	42	28
193.396	193.593	48	32
193.397	193.592	51	35
193.592	193.791	51	35
193.593	193.792	42	28
193.593	193.792	48	28
193.791	193.977	51	37
193.792	193.978	42	32
193.792	193.977	48	32
193.977	194.17	48	32
193.977	194.17	51	37
193.978	194.169	42	32
194.169	194.369	42	32
194.17	194.369	48	32
194.17	194.369	51	37
194.362	194.498	67	39
194.366	196.067	43	48
194.366	196.067	47	48
194.366	194.499	55	39
194.367	196.067	50	48
194.544	194.691	55	22
194.545	194.691	67	27
194.737	194.876	55	22
194.737	194.877	67	27
194.922	195.068	55	25
194.922	195.069	67	30
195.114	195.258	55	25
195.115	195.259	67	30
195.307	195.443	55	25
195.307	195.444	67	30
195.492	195.636	55	32
195.493	195.636	67	38
195.681	195.828	55	24
195.682	195.829	67	28
195.874	196.013	55	25
195.875	196.014	67	30
196.069	196.199	55	33
196.07	196.479	47	35
196.07	196.2	67	39
196.245	196.385	55	25
196.248	196.389	67	30
196.43	196.57	55	25
196.434	196.57	67	30
196.48	196.62	48	30
196.62	196.759	67	39
196.621	197.012	50	40
196.621	196.76	55	39
196.805	196.942	55	22
196.806	196.942	67	27
196.987	197.134	55	22
196.991	197.135	67	27
197.179	197.313	55	25
197.183	197.564	50	33
197.183	197.316	67	30
197.362	197.501	55	25
197.362	197.502	67	30
197.54	197.68	55	25
197.54	197.68	67	30
197.725	197.858	55	32
197.729	198.11	50	33
197.729	197.862	67	38
197.908	198.047	55	24
197.909	198.048	67	28
198.086	198.226	55	25
198.087	198.226	67	30
198.272	198.411	55	33
198.272	198.412	67	39
198.275	198.684	48	36
198.457	198.594	55	25
198.46	198.594	67	30
198.638	198.779	55	25
198.639	198.78	67	30
198.685	198.821	50	37
198.821	198.961	67	39
198.824	198.965	55	39
198.828	199.646	51	42
199.009	199.143	55	22
199.01	199.144	67	27
199.188	199.328	55	22
199.188	199.329	67	27
199.377	199.514	55	25
199.378	199.515	67	30
199.553	199.692	55	25
199.556	199.697	67	30
199.647	199.927	50	35
199.741	199.878	55	25
199.742	199.882	67	30
199.927	200.067	55	32
199.927	200.068	67	38
199.931	200.476	48	31
200.112	200.246	55	24
200.113	200.246	67	28
200.29	200.431	55	25
200.291	200.432	67	30
200.48	200.612	55	33
200.481	200.883	46	39
200.481	200.613	67	39
200.658	200.795	55	25
200.659	200.795	67	30
200.837	200.98	53	25
200.837	200.984	65	30
200.886	201.029	44	33
201.029	201.212	63	39
201.033	201.212	60	39
201.033	201.213	67	39
201.034	201.586	43	36
201.034	201.213	55	39
201.212	201.398	60	22
201.212	201.397	63	22
201.213	201.398	55	22
201.213	201.398	67	27
201.397	201.579	63	22
201.398	201.583	55	22
201.398	201.583	60	22
201.398	201.585	67	27
201.579	201.761	63	22
201.583	201.762	55	25
201.583	201.761	60	22
201.585	201.764	67	30
201.586	202.137	43	36
201.761	201.947	60	22
201.761	201.946	63	22
201.762	201.947	55	25
201.764	201.95	67	30
201.946	202.143	63	22
201.947	202.136	55	25
201.947	202.143	60	22
201.95	202.136	67	30
202.132	202.317	62	32
202.133	202.318	59	32
202.136	202.321	55	32
202.136	202.322	67	38
202.137	202.688	43	36
202.317	202.496	62	32
202.318	202.5	59	32
202.321	202.5	55	24
202.322	202.503	67	28
202.496	202.685	62	32
202.5	202.686	55	25
202.5	202.686	59	32
202.503	202.688	67	30
202.685	202.871	62	33
202.686	202.871	55	33
202.686	202.871	59	33
202.688	203.242	43	36
202.688	202.872	67	39
202.871	203.052	55	25
202.871	203.049	59	25
202.871	203.049	62	25
202.872	203.053	67	30
203.049	203.242	59	25
203.049	203.242	62	25
203.052	203.238	55	25
203.053	203.238	67	30
203.235	203.374	63	39
203.238	203.379	55	39
203.238	203.378	60	39
203.238	203.378	67	39
203.242	204.361	48	48
203.427	203.566	55	22
203.427	203.567	67	27
203.612	203.756	55	22
203.613	203.76	67	27
203.805	203.945	55	28
203.805	203.946	67	34
203.99	204.127	55	29
203.991	204.127	67	35
204.175	204.309	55	30
204.176	204.31	67	36
204.361	204.497	55	40
204.362	204.502	67	48
204.547	204.68	55	32
204.548	204.68	67	36
204.726	204.865	55	34
204.726	204.866	67	41
204.911	205.051	55	47
204.912	205.051	67	56
204.914	205.331	35	42
204.915	205.332	47	50
205.097	205.236	55	36
205.1	205.24	67	43
205.282	205.419	55	37
205.285	205.419	67	44
205.334	205.464	36	37
205.335	205.464	48	44
205.464	205.656	67	59
205.468	206.029	38	51
205.468	206.031	50	62
205.468	205.656	55	59
205.656	205.842	55	33
205.656	205.843	67	41
205.842	206.028	55	33
205.843	206.028	67	41
206.028	206.213	55	37
206.028	206.217	67	46
206.029	206.581	38	42
206.031	206.584	50	50
206.213	206.392	55	37
206.217	206.392	67	46
206.392	206.58	55	37
206.392	206.581	67	46
206.58	206.71	55	49
206.581	207.14	38	42
206.581	206.714	67	58
206.584	207.14	50	50
206.759	206.941	55	36
206.759	206.941	67	42
206.941	207.14	55	37
206.941	207.14	67	46
207.122	207.305	56	55
207.123	207.305	68	65
207.126	207.701	36	50
207.127	207.701	48	59
207.305	207.49	56	42
207.305	207.491	68	52
207.49	207.701	56	44
207.491	207.701	68	55
207.539	207.701	38	57
207.54	207.701	50	67
207.694	207.88	67	70
207.697	208.82	39	63
207.697	207.879	55	70
207.7	208.82	51	76
207.879	208.061	55	40
207.88	208.061	67	50
208.061	208.246	55	40
208.061	208.247	67	50
208.246	208.428	55	46
208.247	208.432	67	55
208.428	208.611	55	44
208.432	208.614	67	55
208.52	208.82	38	54
208.523	208.82	50	64
208.611	208.799	55	44
208.614	208.8	67	54
208.799	208.975	55	57
208.8	209.916	36	46
208.8	208.978	67	69
208.804	209.916	48	55
208.975	209.16	55	42
208.978	209.163	67	49
209.16	209.342	55	42
209.163	209.345	67	52
209.342	209.527	55	57
209.345	209.527	67	67
209.346	209.916	34	57
209.346	209.916	46	67
209.527	209.9	55	42
209.527	209.899	67	51
209.705	209.916	53	41
209.71	209.916	65	50
209.756	209.916	44	55
209.758	209.916	32	46
209.896	210.08	63	59
209.899	210.081	60	59
209.899	210.082	67	59
209.9	210.451	31	46
209.9	210.081	55	59
209.902	210.452	43	55
210.08	210.263	63	33
210.081	210.266	55	33
210.081	210.266	60	33
210.082	210.27	67	41
210.263	210.449	63	33
210.266	210.45	55	33
210.266	210.45	60	33
210.27	210.451	67	41
210.449	210.623	63	33
210.45	210.627	55	37
210.45	210.623	60	33
210.451	210.992	31	46
210.451	210.63	67	46
210.452	210.992	43	55
210.623	210.808	60	33
210.623	210.805	63	33
210.627	210.809	55	37
210.63	210.809	67	46
210.805	211.001	63	33
210.808	211.001	60	33
210.809	210.991	55	37
210.809	210.991	67	46
210.986	211.165	62	49
210.991	211.169	55	49
210.991	211.169	59	49
210.991	211.17	67	58
210.992	211.538	31	46
210.992	211.538	43	55
211.165	211.351	62	49
211.169	211.352	55	36
211.169	211.352	59	49
211.17	211.354	67	42
211.351	211.534	62	49
211.352	211.537	55	37
211.352	211.534	59	49
211.354	211.537	67	46
211.534	211.711	59	50
211.534	211.708	62	50
211.537	211.715	55	50
211.537	211.716	67	59
211.538	212.156	31	46
211.538	212.156	43	55
211.708	211.89	62	37
211.711	211.894	59	37
211.715	211.894	55	37
211.716	211.895	67	46
211.89	212.156	62	37
211.894	212.101	55	37
211.894	212.156	59	37
211.895	212.104	67	46
212.101	212.279	55	40
212.102	213.192	60	40
212.103	213.192	63	40
212.104	212.279	36	40
212.104	213.193	67	48
212.107	212.282	48	40
212.282	212.464	55	31
212.467	212.646	55	31
212.647	212.825	55	31
212.825	213.01	55	29
213.013	213.193	55	29
213.196	213.328	55	29
213.374	213.514	55	28
213.556	213.696	55	28
213.741	214.155	71	44
213.742	213.882	55	31
213.926	214.06	55	30
214.106	214.246	55	30
214.155	214.294	72	38
214.295	214.435	55	31
214.295	214.686	74	51
214.48	214.616	55	27
214.672	214.813	55	27
214.858	215.267	65	35
214.858	215.239	74	42
214.859	214.994	55	31
215.04	215.177	55	28
215.222	215.355	55	28
215.404	215.814	68	35
215.405	215.541	55	31
215.405	215.786	74	42
215.587	215.723	55	31
215.768	215.901	55	31
215.946	216.359	72	46
215.947	216.087	55	31
216.132	216.272	55	31
216.317	216.454	55	32
216.36	216.5	74	47
216.5	216.639	55	40
216.5	217.329	75	53
216.685	216.825	55	31
216.871	217.003	55	26
217.053	217.189	55	33
217.053	217.602	63	39
217.238	217.375	55	29
217.33	217.602	74	44
217.424	217.556	55	26
217.605	218.151	67	33
217.606	217.742	55	33
217.606	218.156	72	39
217.788	217.927	55	30
217.973	218.106	55	29
218.156	218.564	74	49
218.158	218.291	55	33
218.341	218.473	55	30
218.519	218.659	55	30
218.565	218.705	72	42
218.705	219.257	71	46
218.708	218.844	55	31
218.89	219.027	55	28
219.072	219.208	55	28
219.257	219.807	65	37
219.258	219.671	69	44
219.261	219.397	55	31
219.443	219.579	55	28
219.622	219.762	55	31
219.671	219.808	71	36
219.81	220.378	63	37
219.811	220.378	72	48
219.815	219.947	55	36
219.993	220.139	55	29
220.185	220.332	55	29
220.378	220.945	60	37
220.381	220.517	55	36
220.381	220.794	74	43
220.563	220.703	55	31
220.748	220.892	55	31
220.797	220.945	75	44
220.948	221.091	68	47
220.948	222.667	74	51
220.949	221.092	55	37
221.092	222.667	67	43
221.144	221.288	55	29
221.34	221.483	55	29
221.532	221.672	55	44
221.718	221.858	55	37
221.904	222.05	55	39
222.096	222.236	55	53
222.289	222.425	55	39
222.474	222.618	55	40
222.667	223.235	59	52
222.668	223.235	67	52
222.67	222.849	55	52
222.67	223.234	71	62
222.849	223.037	55	45
223.037	223.235	55	52
223.08	223.235	60	50
223.08	223.235	69	50
223.081	223.235	72	60
223.23	223.772	62	61
223.234	223.773	71	61
223.234	223.773	74	73
223.235	223.408	55	59
223.408	223.587	55	47
223.587	223.773	55	47
223.772	224.323	62	55
223.773	223.955	55	52
223.773	224.324	71	55
223.773	224.324	74	66
223.776	223.955	54	52
223.955	224.134	54	43
223.955	224.133	55	43
224.133	224.326	55	43
224.134	224.337	54	43
224.323	224.875	62	55
224.324	224.875	71	55
224.324	224.875	74	66
224.326	224.501	53	54
224.326	224.501	55	54
224.501	224.68	53	45
224.501	224.679	55	45
224.679	224.872	55	45
224.68	224.875	53	45
224.868	225.436	60	63
224.868	225.282	67	64
224.869	225.436	72	66
224.872	225.436	51	53
224.872	225.051	55	53
225.05	225.436	50	43
225.051	225.232	55	43
225.232	225.432	48	44
225.232	225.435	55	44
225.282	225.436	62	55
225.282	225.431	67	55
225.282	225.436	74	67
225.431	226.517	67	64
225.432	225.607	48	57
225.432	226.531	63	64
225.432	226.531	75	75
225.435	225.607	55	57
225.607	225.796	48	45
225.607	225.792	55	45
225.792	225.967	55	45
225.796	225.984	48	45
225.967	226.146	55	54
225.968	226.149	46	54
226.146	226.335	55	45
226.149	226.334	46	45
226.334	226.531	46	45
226.335	226.521	55	45
226.383	226.531	62	69
226.384	226.531	74	69
226.517	227.112	60	60
226.517	227.112	67	64
226.52	226.698	45	55
226.52	227.112	72	76
226.521	226.699	55	55
226.698	226.891	45	43
226.699	226.892	55	43
226.891	227.112	45	43
226.892	227.112	55	43
227.098	227.648	62	58
227.098	227.668	66	58
227.099	227.668	74	69
227.101	227.276	44	52
227.101	227.277	54	52
227.276	227.458	44	43
227.277	227.458	54	43
227.458	227.668	44	42
227.458	227.668	54	42
227.507	227.668	72	60
227.648	228.205	62	55
227.651	227.829	43	54
227.651	228.214	65	55
227.651	228.208	71	66
227.654	227.833	53	54
227.829	228.018	43	45
227.833	228.019	53	45
228.018	228.208	43	45
228.019	228.214	53	45
228.205	228.764	62	52
228.208	228.389	43	54
228.208	228.76	67	52
228.208	228.764	71	62
228.209	228.386	41	54
228.386	228.572	41	43
228.389	228.567	43	43
228.567	228.761	43	43
228.572	228.764	41	43
228.617	228.764	68	51
228.757	229.345	60	57
228.76	229.345	67	59
228.76	229.345	72	73
228.761	228.943	39	55
228.761	228.942	43	55
228.942	229.138	43	43
228.943	229.138	39	43
229.138	229.345	39	43
229.138	229.341	43	43
229.338	229.917	65	64
229.339	229.917	71	64
229.339	229.917	75	75
229.341	229.527	31	57
229.341	229.526	43	57
229.526	229.712	43	43
229.527	229.713	31	43
229.712	229.917	43	43
229.713	229.917	31	43
229.761	229.917	74	62
229.912	231.686	63	61
229.916	230.108	36	40
229.916	230.108	48	40
229.916	231.686	72	73
230.109	230.251	55	31
230.304	230.454	55	31
230.499	230.647	55	31
230.699	230.849	55	29
230.895	231.042	55	29
231.091	231.238	55	29
231.291	231.442	55	28
231.49	231.634	55	28
231.687	232.095	74	44
231.69	231.826	55	31
231.871	232.005	55	30
232.05	232.19	55	30
232.099	232.236	75	38
232.236	232.795	77	51
232.239	232.376	56	31
232.421	232.561	56	27
232.61	232.751	56	27
232.796	233.345	65	35
232.796	233.345	77	42
232.797	232.932	57	31
232.978	233.117	57	28
233.166	233.3	57	28
233.349	233.891	68	35
233.349	233.891	77	42
233.35	233.485	58	31
233.534	233.664	58	31
233.71	233.845	58	31
233.892	234.307	75	46
233.895	234.032	58	31
234.076	234.216	58	31
234.261	234.394	58	32
234.311	234.444	74	47
234.445	234.581	58	40
234.445	235.273	79	53
234.63	234.769	58	31
234.815	234.952	58	26
234.994	235.412	67	50
234.997	235.133	59	33
235.178	235.319	59	29
235.273	235.549	77	44
235.367	235.504	59	26
235.413	235.549	68	53
235.553	236.109	75	39
235.556	235.683	60	33
235.734	235.875	55	30
235.92	236.06	55	29
236.11	236.242	55	33
236.11	236.515	74	49
236.287	236.42	55	30
236.466	236.606	55	30
236.516	236.655	72	42
236.656	236.795	55	31
236.656	237.205	71	46
236.841	236.977	55	28
237.026	237.159	55	28
237.205	237.485	68	41
237.208	237.761	71	44
237.209	237.344	55	31
237.39	237.53	55	28
237.486	237.762	67	40
237.576	237.715	55	31
237.765	238.048	65	41
237.766	238.338	72	48
237.768	237.901	55	36
237.947	238.094	55	29
238.049	238.339	63	41
238.139	238.283	55	29
238.339	238.615	62	41
238.34	238.755	77	43
238.342	238.479	55	36
238.521	238.66	55	31
238.616	238.899	60	41
238.709	238.853	55	31
238.756	238.899	75	44
238.903	239.053	68	41
238.903	240.677	74	51
238.906	239.054	55	37
239.054	240.678	67	47
239.098	239.248	55	29
239.294	239.445	55	29
239.49	239.644	55	42
239.69	239.84	55	35
239.886	240.036	55	37
240.085	240.281	55	49
240.282	240.481	56	36
240.481	240.68	57	36
240.681	240.862	58	52
240.681	241.237	74	62
240.862	241.048	58	45
241.048	241.237	58	52
241.097	241.24	75	60
241.234	241.783	65	61
241.237	241.412	58	59
241.237	241.783	74	61
241.237	241.786	77	73
241.412	241.6	58	47
241.6	241.787	58	47
241.783	242.34	65	50
241.783	242.343	74	50
241.786	242.343	77	60
241.787	241.966	57	44
241.787	241.965	58	52
241.965	242.151	58	43
241.966	242.151	57	36
242.151	242.35	57	36
242.151	242.344	58	43
242.34	242.899	65	50
242.343	242.899	74	50
242.343	242.899	77	60
242.344	242.517	56	45
242.344	242.518	58	54
242.517	242.696	56	38
242.518	242.7	58	45
242.696	242.899	56	38
242.7	242.889	58	45
242.886	243.439	67	63
242.886	243.439	75	63
242.888	243.432	79	63
242.889	243.06	58	53
242.892	243.064	55	45
243.06	243.25	58	43
243.064	243.439	55	36
243.245	243.439	53	37
243.25	243.439	56	37
243.25	243.435	58	44
243.299	243.439	68	55
243.3	243.439	77	55
243.302	243.439	80	67
243.432	243.977	70	64
243.432	243.977	79	64
243.433	243.977	82	75
243.435	243.613	51	48
243.435	243.614	58	57
243.439	243.614	55	57
243.613	243.791	51	38
243.614	243.796	55	45
243.614	243.796	58	45
243.791	243.977	51	38
243.796	243.977	55	45
243.796	243.977	58	45
243.974	244.526	68	69
243.975	244.148	47	45
243.975	244.149	53	45
243.975	244.526	80	69
243.976	244.149	56	54
244.148	244.334	47	38
244.149	244.334	53	45
244.149	244.335	56	45
244.334	244.526	47	38
244.334	244.526	53	45
244.335	244.526	56	45
244.517	245.077	75	64
244.519	245.077	79	76
244.52	244.695	48	46
244.52	244.695	51	46
244.52	244.696	55	55
244.695	244.88	48	36
244.695	244.881	51	36
244.696	244.881	55	43
244.88	245.077	48	36
244.881	245.077	51	36
244.881	245.077	55	43
245.063	245.615	65	58
245.063	245.647	77	69
245.064	245.427	44	44
245.066	245.244	53	52
245.244	245.426	53	43
245.248	245.647	46	36
245.426	245.616	53	42
245.427	245.647	44	35
245.472	245.647	74	60
245.613	246.166	62	55
245.615	246.186	65	55
245.615	246.169	71	66
245.616	245.976	43	47
245.616	245.798	53	56
245.793	246.186	44	40
245.798	245.979	53	47
245.976	246.169	43	40
245.979	246.186	53	48
246.166	246.731	62	52
246.168	246.718	67	52
246.169	246.347	43	58
246.169	246.731	71	62
246.172	246.536	41	48
246.347	246.532	43	47
246.532	246.722	43	47
246.536	246.731	41	39
246.578	246.731	68	51
246.718	247.324	60	57
246.718	247.324	67	59
246.718	247.324	72	73
246.719	247.093	39	51
246.722	246.908	43	61
246.907	247.324	41	41
246.908	247.092	43	49
247.092	247.314	43	49
247.093	247.324	39	41
247.31	247.89	65	64
247.311	247.89	71	64
247.313	247.684	31	55
247.313	247.89	75	75
247.314	247.498	43	66
247.498	247.684	43	50
247.499	247.89	32	42
247.684	247.89	31	42
247.684	247.888	43	51
247.73	247.89	74	62
247.884	249.633	63	64
247.887	248.075	36	53
247.887	249.634	72	76
247.888	248.08	43	53
247.888	248.08	48	63
248.082	248.276	50	60
248.276	248.475	48	60
248.476	248.663	46	68
248.664	248.86	48	62
248.863	249.052	46	62
249.053	249.245	44	73
249.056	249.245	48	62
249.249	249.441	46	63
249.249	249.442	48	53
249.444	249.634	44	64
249.448	249.637	48	54
249.637	249.829	60	72
249.641	250.029	43	78
249.641	249.833	48	65
249.641	249.83	72	86
249.829	250.026	60	72
249.83	250.029	72	86
249.833	250.265	44	65
249.833	250.029	48	55
250.026	250.265	60	72
250.029	250.265	43	65
250.029	250.264	48	55
250.029	250.263	72	86
250.26	252.014	74	79
250.26	252.014	80	79
250.26	252.013	84	94
250.263	252.017	72	79
250.264	250.452	41	79
250.264	250.453	48	66
250.456	250.648	43	65
250.457	250.649	48	55
250.652	250.848	41	65
250.652	250.848	48	55
250.849	251.044	44	78
250.851	251.045	48	65
251.047	251.237	46	65
251.048	251.237	48	55
251.24	251.432	44	65
251.24	251.433	48	55
251.436	251.625	43	73
251.437	251.625	48	62
251.629	251.821	44	65
251.629	251.821	48	55
251.824	252.018	43	65
251.824	252.018	48	55
252.021	252.403	41	74
252.021	252.21	60	71
252.021	252.211	72	83
252.024	252.213	48	63
252.21	252.402	60	71
252.211	252.403	72	83
252.213	252.63	43	65
252.213	252.405	48	55
252.402	252.63	60	71
252.403	252.63	41	65
252.403	252.625	72	83
252.405	252.626	48	55
252.623	254.342	79	80
252.623	254.341	84	95
252.624	254.342	75	80
252.625	254.344	72	80
252.626	252.808	39	79
252.626	252.812	48	66
252.812	253.0	41	65
252.813	253.001	48	55
253.004	253.193	39	65
253.005	253.193	48	55
253.197	253.382	43	77
253.197	253.385	48	64
253.386	253.574	44	65
253.386	253.575	48	55
253.578	253.767	43	65
253.578	253.767	48	55
253.77	253.959	41	75
253.771	253.96	48	64
253.96	254.149	43	65
253.964	254.149	48	55
254.152	254.345	41	65
254.152	254.348	48	55
254.348	254.537	60	71
254.349	254.538	72	83
254.351	254.73	39	74
254.351	254.541	48	63
254.537	254.729	60	71
254.538	254.729	72	83
254.541	254.972	41	66
254.541	254.733	48	56
254.729	254.972	60	71
254.729	254.972	72	83
254.73	254.972	39	66
254.733	254.972	48	56
254.967	255.541	73	90
254.968	255.545	61	77
254.968	255.545	65	77
254.971	255.156	37	75
254.971	255.157	44	64
255.157	255.345	39	64
255.158	255.346	44	54
255.346	255.549	36	64
255.349	255.549	44	54
255.549	255.979	65	74
255.55	255.979	77	88
255.551	255.734	37	72
255.552	255.738	44	60
255.738	255.93	39	63
255.739	255.933	44	52
255.933	256.122	41	63
255.937	256.123	44	52
255.98	256.126	68	66
255.982	256.126	80	79
256.13	256.728	67	75
256.13	256.746	72	75
256.13	256.746	75	75
256.131	256.732	79	89
256.133	256.732	31	62
256.133	256.323	43	73
256.323	256.525	43	65
256.525	256.732	43	60
256.728	257.337	67	71
256.728	257.344	71	71
256.729	257.344	74	71
256.732	257.344	31	59
256.732	256.928	43	71
256.732	257.344	79	83
256.928	257.131	43	63
257.131	257.342	43	63
257.337	259.083	67	64
257.338	259.087	60	64
257.341	259.087	63	64
257.341	259.087	72	76
257.342	257.529	36	53
257.342	257.53	43	53
257.344	257.53	48	63
257.531	257.726	51	60
257.726	257.921	50	60
257.925	258.113	48	68
258.117	258.314	50	62
258.314	258.502	48	62
258.503	258.702	47	73
258.702	258.894	48	63
258.895	259.09	47	64
259.091	259.287	60	72
259.091	259.287	72	86
259.092	259.48	46	78
259.287	259.476	60	72
259.287	259.479	72	86
259.288	259.714	48	65
259.476	259.714	60	72
259.479	259.711	72	86
259.48	259.714	46	65
259.71	261.464	74	79
259.71	261.463	84	94
259.711	259.902	45	79
259.711	261.467	72	79
259.714	259.902	48	66
259.906	260.102	46	65
259.907	260.103	48	55
260.103	260.298	45	65
260.104	260.298	48	55
260.302	260.494	44	78
260.302	260.497	48	65
260.497	260.694	46	65
260.498	260.694	48	55
260.694	260.882	44	65
260.696	260.882	48	55
260.886	261.082	43	73
260.889	261.083	48	62
261.083	261.275	44	65
261.085	261.275	48	55
261.276	261.468	43	65
261.278	261.468	48	55
261.47	261.661	60	71
261.471	261.86	41	74
261.471	261.664	48	63
261.471	261.663	72	83
261.661	261.859	60	71
261.663	262.077	43	65
261.663	261.859	72	83
261.664	261.862	48	55
261.859	262.077	60	71
261.859	262.076	72	83
261.86	262.077	41	65
261.862	262.077	48	55
262.073	263.791	79	80
262.073	263.791	84	95
262.076	263.794	72	80
262.077	262.258	40	79
262.077	262.262	48	66
262.262	262.45	41	65
262.265	262.451	48	55
262.454	262.649	40	65
262.455	262.65	48	55
262.65	262.835	39	77
262.651	262.835	48	64
262.836	263.028	41	65
262.839	263.029	48	55
263.029	263.217	39	65
263.03	263.217	48	55
263.218	263.409	38	75
263.221	263.41	48	64
263.41	263.601	39	65
263.413	263.602	48	55
263.602	263.794	38	65
263.603	263.795	48	55
263.798	263.988	60	71
263.799	264.429	36	74
263.799	263.988	72	83
263.801	263.991	48	63
263.988	264.187	60	71
263.988	264.188	72	83
263.99	264.429	38	66
263.991	264.19	48	56
264.187	264.429	60	71
264.188	264.429	39	66
264.188	264.429	72	83
264.19	264.429	48	56
264.424	264.995	73	90
264.425	264.996	61	77
264.425	264.996	65	77
264.428	264.61	41	75
264.428	264.61	44	64
264.614	264.799	39	64
264.614	264.803	44	54
264.806	264.984	37	64
264.807	264.985	44	54
264.996	265.429	65	74
264.999	265.184	37	72
264.999	265.184	44	60
264.999	265.43	77	88
265.188	265.383	39	63
265.189	265.384	44	52
265.384	265.575	41	63
265.387	265.576	44	52
265.43	265.576	68	66
265.432	265.577	80	79
265.579	266.178	67	75
265.58	266.196	72	75
265.58	266.196	75	75
265.581	266.182	79	89
265.583	266.182	31	62
265.583	265.78	43	73
265.78	265.976	43	65
265.976	266.182	43	60
266.178	266.787	67	71
266.179	266.794	71	71
266.179	266.794	74	71
266.182	266.794	31	59
266.182	266.377	43	71
266.182	266.794	79	83
266.377	266.581	43	63
266.581	266.794	43	63
266.787	268.533	67	64
266.788	268.534	60	64
266.791	268.538	63	64
266.791	268.538	72	76
266.792	266.928	36	74
266.794	266.928	48	62
266.979	267.13	36	67
266.98	267.13	48	56
267.175	267.329	36	67
267.179	267.33	48	56
267.371	267.518	38	74
267.375	267.519	48	62
267.571	267.718	38	69
267.572	267.718	48	58
267.764	267.907	38	65
267.764	267.911	48	55
267.959	268.103	39	74
267.963	268.107	48	62
268.152	268.295	39	67
268.152	268.299	48	56
268.341	268.487	39	67
268.344	268.488	48	56
268.541	268.684	40	73
268.541	268.677	60	68
268.541	268.681	72	57
268.544	268.684	48	62
268.733	268.876	60	63
268.733	268.877	72	53
268.734	268.877	40	66
268.737	268.881	48	56
268.925	269.069	60	63
268.926	269.07	40	66
268.926	269.073	48	56
268.926	269.069	72	53
269.122	269.265	61	62
269.122	269.269	72	52
269.123	269.269	41	72
269.125	269.269	48	61
269.314	269.458	72	46
269.315	269.461	41	68
269.315	269.46	61	55
269.317	269.461	48	57
269.503	269.65	61	55
269.507	269.651	41	68
269.507	269.654	48	57
269.507	269.65	72	46
269.696	269.839	62	58
269.696	269.843	72	49
269.699	269.843	42	69
269.699	269.846	46	58
269.891	270.039	72	42
269.895	270.04	42	63
269.895	270.039	62	50
269.896	270.042	46	53
270.084	270.231	62	50
270.084	270.232	72	42
270.088	270.232	42	63
270.088	270.232	46	53
270.283	270.42	72	46
270.284	270.424	43	66
270.284	270.424	48	56
270.284	270.42	63	55
270.476	270.619	72	42
270.477	270.62	43	60
270.477	270.619	63	50
270.478	270.623	48	51
270.665	270.812	63	54
270.665	270.813	72	45
270.669	270.813	43	66
270.669	270.815	48	56
270.857	271.001	64	54
270.858	271.005	44	69
270.858	271.001	72	49
270.861	271.005	48	61
271.05	271.191	64	44
271.05	271.19	72	37
271.051	271.191	44	57
271.054	271.191	48	48
271.235	271.379	72	37
271.236	271.38	44	57
271.236	271.379	64	44
271.239	271.383	48	48
271.425	271.571	64	47
271.425	271.572	72	39
271.428	271.572	44	55
271.429	271.575	48	46
271.617	271.757	64	37
271.617	271.758	72	31
271.621	271.758	44	54
271.621	271.76	48	42
271.802	271.95	64	37
271.803	271.951	44	53
271.803	271.95	72	31
271.806	271.951	48	41
271.995	272.135	64	46
271.995	272.136	72	38
271.996	272.136	44	53
271.999	272.137	48	45
272.18	272.317	64	37
272.181	272.324	44	47
272.181	272.321	72	30
272.184	272.324	48	40
272.373	272.514	44	46
272.373	272.509	64	36
272.373	272.513	72	30
272.374	272.514	48	39
272.558	272.701	65	45
272.559	272.705	44	51
272.559	272.702	72	38
272.562	272.706	48	43
272.747	272.895	65	36
272.751	272.895	72	29
272.752	272.896	44	46
272.754	272.898	48	39
272.94	273.08	65	35
272.94	273.081	72	29
272.944	273.084	44	46
272.944	273.084	48	39
273.132	273.269	63	31
273.133	273.273	66	31
273.133	273.276	72	37
273.136	273.276	45	31
273.137	273.277	48	37
273.318	273.458	63	26
273.318	273.459	66	26
273.322	273.462	45	26
273.322	273.462	48	31
273.322	273.461	72	31
273.51	273.647	63	26
273.511	273.651	66	26
273.511	273.651	72	31
273.514	273.653	45	26
273.515	273.654	48	31
273.696	273.836	63	31
273.697	273.837	66	31
273.699	273.837	72	37
273.7	273.839	45	34
273.7	273.839	48	40
273.882	274.025	62	27
273.885	274.029	66	27
273.885	274.029	72	32
273.886	274.032	45	27
273.886	274.033	50	32
274.074	274.214	62	27
274.075	274.214	66	27
274.075	274.215	72	32
274.077	274.215	45	28
274.078	274.218	50	33
274.26	274.399	62	31
274.26	274.4	66	31
274.261	274.4	72	37
274.263	274.401	45	31
274.263	274.403	50	37
274.452	274.589	62	26
274.453	274.592	45	28
274.453	274.589	66	26
274.453	274.592	72	31
274.455	274.593	50	33
274.631	274.774	62	26
274.631	274.775	66	26
274.631	274.777	72	31
274.634	274.777	45	28
274.634	274.778	50	33
274.823	274.96	62	31
274.824	274.963	46	32
274.824	274.963	67	31
274.824	274.963	72	37
274.826	274.967	50	38
275.006	275.152	62	27
275.009	275.152	67	27
275.012	275.156	72	32
275.013	275.156	46	28
275.013	275.157	50	34
275.198	275.337	62	27
275.201	275.341	67	27
275.201	275.342	72	32
275.202	275.342	46	28
275.205	275.344	50	34
275.383	275.53	62	31
275.386	275.53	67	31
275.387	275.534	70	37
275.39	275.534	46	31
275.391	275.534	50	37
275.576	275.722	62	27
275.576	275.723	67	27
275.579	275.726	46	28
275.579	275.723	70	32
275.583	275.727	50	33
275.768	275.912	62	27
275.769	275.912	67	27
275.771	275.915	46	28
275.771	275.915	70	32
275.772	275.919	50	33
275.957	276.097	60	31
275.961	276.1	63	31
275.964	276.101	70	37
275.965	276.104	48	31
275.965	276.104	51	37
276.146	276.29	60	26
276.147	276.293	63	26
276.15	276.294	48	27
276.15	276.294	70	31
276.151	276.296	51	32
276.335	276.475	60	26
276.338	276.479	63	26
276.339	276.479	70	31
276.342	276.48	48	27
276.343	276.482	51	32
276.524	276.664	60	31
276.524	276.665	63	31
276.525	276.665	69	37
276.528	276.666	48	31
276.528	276.667	51	37
276.709	276.853	60	27
276.71	276.857	63	27
276.71	276.857	69	32
276.713	276.858	48	26
276.714	276.86	51	31
276.898	277.045	60	27
276.899	277.046	63	27
276.902	277.048	48	26
276.902	277.05	51	31
276.902	277.046	69	32
277.091	277.23	58	31
277.093	277.23	62	31
277.094	277.234	50	37
277.094	277.231	67	37
277.275	277.423	58	26
277.276	277.424	62	26
277.279	277.424	67	31
277.28	277.426	50	32
277.468	277.608	58	26
277.468	277.609	62	26
277.469	277.609	67	31
277.472	277.61	50	32
277.653	277.801	57	31
277.654	277.802	62	31
277.654	277.802	66	37
277.658	277.802	50	37
277.85	277.989	57	27
277.853	277.99	62	27
277.854	277.994	50	32
277.854	277.993	66	32
278.042	278.186	57	27
278.043	278.189	62	27
278.045	278.189	66	32
278.046	278.193	50	32
278.234	279.383	58	31
278.235	279.383	62	31
278.238	279.386	67	37
278.239	279.386	43	31
278.239	278.378	50	37
278.424	278.571	50	29
278.624	278.763	50	29
278.816	278.952	50	32
279.004	279.145	50	29
279.19	279.337	50	29
279.39	279.523	50	31
279.568	279.715	50	29
279.761	279.9	50	29
279.949	280.366	67	39
279.954	280.086	50	32
280.132	280.271	50	29
280.317	280.464	50	29
280.367	280.516	70	39
280.517	281.08	74	44
280.66	280.811	62	29
280.8	280.94	43	32
280.8	280.957	67	30
280.941	281.08	70	28
281.08	281.629	74	40
281.216	281.371	62	28
281.357	281.49	43	32
281.357	281.501	67	30
281.494	281.629	70	28
281.63	282.175	74	45
281.763	281.916	62	27
281.902	282.046	66	30
281.903	282.036	38	36
282.039	282.176	69	28
282.176	282.739	74	46
282.316	282.467	62	27
282.449	282.592	43	32
282.449	282.61	67	30
282.592	282.739	70	26
282.739	283.841	75	51
282.875	283.03	63	31
283.012	283.152	36	38
283.012	283.162	67	33
283.153	283.303	72	31
283.285	283.435	66	36
283.422	283.568	72	27
283.558	283.709	69	30
283.559	283.698	36	35
283.698	283.842	66	27
283.842	284.944	74	41
283.975	284.132	62	27
284.114	284.265	67	30
284.115	284.255	43	37
284.255	284.406	70	26
284.395	284.538	62	30
284.527	284.678	70	28
284.661	284.8	43	32
284.661	284.818	67	30
284.801	284.944	62	27
284.948	286.036	72	50
285.077	285.228	60	28
285.217	285.357	44	36
285.217	285.368	63	30
285.357	285.5	66	28
285.49	285.641	60	30
285.623	285.773	66	30
285.756	285.91	63	30
285.759	285.896	45	32
285.896	286.037	60	27
286.04	287.139	70	45
286.176	286.327	58	27
286.309	286.445	46	32
286.309	286.459	62	30
286.449	286.6	67	27
286.582	286.732	58	30
286.722	286.866	67	28
286.855	287.006	62	30
286.856	286.996	50	32
286.996	287.139	58	28
287.14	287.688	69	50
287.272	287.422	57	28
287.411	287.562	60	30
287.412	287.545	51	39
287.545	287.689	67	28
287.692	288.238	72	46
287.828	287.976	63	29
287.965	288.097	48	32
287.965	288.112	67	30
288.098	288.238	69	28
288.238	288.787	70	49
288.374	288.528	58	27
288.514	288.65	50	32
288.514	288.664	62	30
288.651	288.787	67	27
288.788	289.357	69	45
288.935	289.088	60	26
289.07	289.211	38	32
289.07	289.228	62	30
289.211	289.358	66	27
289.358	291.059	67	50
289.501	289.658	55	28
289.648	289.802	58	32
289.649	289.792	43	30
289.792	289.95	62	34
289.939	290.075	45	37
289.939	290.086	63	35
290.075	290.233	60	37
290.216	290.362	48	40
290.216	290.372	57	39
290.362	290.509	63	44
290.499	290.638	50	44
290.499	290.652	62	44
290.639	290.789	58	33
290.779	290.937	62	37
290.78	290.919	55	35
290.919	291.076	66	28
291.06	291.199	50	39
291.06	291.217	67	34
291.199	291.353	62	26
291.335	291.493	67	30
291.336	291.475	46	32
291.475	291.622	70	26
291.623	292.183	74	44
291.759	291.917	62	29
291.899	292.039	43	32
291.899	292.056	67	30
292.04	292.183	70	28
292.186	292.728	74	40
292.315	292.469	62	28
292.455	292.605	67	30
292.459	292.591	43	32
292.592	292.728	70	28
292.732	293.267	74	45
292.862	293.012	62	27
293.001	293.135	38	36
293.001	293.149	66	30
293.135	293.271	69	28
293.271	293.835	74	46
293.407	293.558	62	27
293.543	293.705	67	30
293.544	293.687	43	32
293.687	293.835	70	26
293.835	294.933	75	51
293.971	294.122	63	31
294.111	294.243	36	38
294.111	294.254	67	33
294.244	294.394	72	31
294.384	294.534	69	41
294.516	294.667	72	33
294.657	294.797	41	43
294.657	294.808	69	41
294.797	294.937	65	34
294.938	296.039	74	57
295.074	295.223	62	34
295.213	295.364	65	40
295.216	295.353	34	45
295.353	295.503	70	33
295.486	295.637	65	41
295.626	295.77	70	28
295.76	295.892	46	43
295.76	295.91	65	35
295.893	296.039	62	27
296.04	297.127	72	60
296.175	296.33	60	35
296.312	296.452	45	50
296.312	296.462	63	39
296.453	296.596	69	28
296.582	296.729	66	40
296.719	296.862	69	27
296.851	297.002	66	30
296.852	296.991	38	42
296.991	297.128	62	27
297.132	298.227	70	45
297.268	297.415	58	27
297.404	297.551	62	30
297.405	297.534	43	42
297.534	297.688	67	27
297.671	297.82	58	30
297.81	297.954	67	28
297.943	298.093	62	30
297.944	298.079	31	41
298.08	298.227	58	28
298.228	298.779	67	50
298.36	298.51	63	28
298.5	298.633	39	39
298.5	298.651	62	30
298.633	298.78	60	28
298.78	299.312	75	46
298.909	299.063	63	29
299.045	299.196	67	30
299.046	299.179	36	32
299.179	299.312	72	28
299.316	299.858	74	49
299.452	299.595	62	27
299.585	299.724	41	32
299.585	299.735	65	30
299.725	299.858	70	27
299.861	300.421	72	45
299.998	300.152	63	26
300.141	300.292	65	30
300.145	300.282	29	32
300.282	300.422	69	27
300.422	302.129	70	50
300.568	300.729	58	28
300.711	300.873	62	32
300.712	300.855	46	30
300.859	301.019	65	34
301.002	301.156	66	35
301.003	301.146	48	37
301.146	301.296	63	37
301.286	301.426	51	40
301.286	301.443	60	39
301.427	301.58	66	44
301.57	301.72	65	44
301.573	301.709	50	44
301.713	301.86	62	33
301.849	301.989	58	35
301.849	301.999	65	37
301.99	302.14	69	34
302.129	302.28	70	40
302.13	302.266	53	39
302.266	302.42	65	43
302.406	302.564	70	46
302.407	302.546	50	32
302.546	302.686	74	49
302.687	303.25	65	41
302.687	303.251	77	55
302.689	303.252	46	44
302.826	303.113	50	36
302.97	303.523	53	36
303.113	303.383	50	36
303.25	303.806	65	44
303.251	303.806	77	54
303.252	303.806	46	45
303.383	303.656	50	38
303.523	303.806	53	38
303.656	303.806	50	46
303.792	304.345	66	54
303.793	303.921	45	55
303.793	304.345	78	64
303.922	304.195	48	46
304.055	304.345	50	47
304.195	304.345	48	50
304.331	304.87	67	60
304.332	304.87	43	60
304.332	304.87	79	72
304.46	304.73	48	52
304.597	304.87	50	49
304.73	304.87	48	50
304.867	305.416	69	61
304.867	305.416	81	75
304.868	305.406	42	72
304.997	305.269	48	55
305.136	305.416	50	59
305.269	305.416	48	59
305.405	305.958	72	64
305.406	305.958	42	68
305.406	305.958	84	78
305.535	305.808	45	53
305.676	305.958	50	53
305.808	305.958	45	53
305.949	306.511	70	63
305.951	306.511	82	77
305.952	306.081	43	63
306.082	306.362	46	48
306.221	306.511	50	48
306.362	306.511	46	48
306.5	307.062	69	49
306.501	306.634	48	48
306.501	307.062	81	58
306.635	306.917	51	35
306.771	307.062	57	35
306.915	307.062	67	42
306.915	307.062	79	51
306.917	307.062	51	36
307.057	307.628	66	49
307.061	307.631	50	50
307.061	307.629	78	58
307.194	307.481	57	39
307.341	307.905	60	39
307.481	307.765	57	39
307.628	308.195	66	46
307.629	308.195	78	55
307.631	308.188	50	47
307.765	308.038	57	39
307.905	308.195	60	39
308.038	308.195	57	39
308.187	309.308	67	45
308.188	308.734	50	47
308.188	309.309	79	53
308.318	308.591	57	40
308.458	309.011	66	37
308.46	309.011	78	45
308.461	309.012	60	40
308.591	308.868	57	40
308.731	309.309	64	38
308.731	309.309	76	46
308.734	309.309	50	44
308.868	309.154	57	36
309.011	309.309	66	37
309.011	309.309	78	45
309.012	309.309	60	36
309.154	309.309	57	36
309.308	310.459	67	40
309.309	309.448	55	44
309.309	310.459	79	48
309.448	310.459	58	37
309.595	310.022	55	37
309.739	310.163	50	37
309.879	310.302	46	44
310.022	310.459	55	38
310.163	310.459	50	38
310.302	310.459	46	38
310.449	310.585	43	44
310.589	311.584	67	53
310.726	311.15	70	55
310.872	311.282	74	57
311.009	311.426	79	59
311.013	311.584	43	58
311.013	311.584	55	69
311.15	311.584	70	61
311.282	311.584	74	63
311.426	311.584	46	51
311.426	311.584	79	65
311.427	311.584	58	61
311.583	311.996	50	62
311.583	311.996	62	74
311.856	312.0	69	63
311.856	312.0	74	63
311.859	312.0	78	74
312.136	312.549	50	56
312.137	312.55	62	67
312.409	312.55	81	74
312.41	312.55	72	63
312.41	312.552	74	63
312.685	313.091	50	58
312.689	313.095	62	69
312.962	313.096	70	63
312.962	313.098	74	63
312.963	313.098	79	74
313.232	313.652	50	57
313.235	313.652	62	68
313.508	313.653	69	63
313.508	313.655	74	63
313.509	313.655	78	74
313.795	314.894	51	63
313.798	314.894	63	75
314.068	314.208	67	65
314.069	314.208	74	65
314.071	314.212	79	78
314.34	314.474	67	66
314.341	314.474	72	66
314.344	314.477	79	79
314.607	314.747	85	83
314.611	314.751	73	71
314.611	314.75	79	71
314.895	315.989	50	61
314.898	315.99	62	72
315.167	315.306	81	83
315.167	315.303	86	83
315.168	315.307	74	71
315.168	315.307	79	71
315.443	315.573	74	69
315.447	315.573	78	69
315.447	315.573	81	69
315.448	315.576	86	81
315.713	315.85	66	66
315.714	315.85	69	66
315.714	315.853	74	79
315.993	317.081	48	63
315.994	317.081	60	75
316.262	316.402	63	63
316.263	316.403	70	63
316.263	316.403	75	74
316.542	316.668	63	69
316.543	316.669	69	69
316.543	316.672	75	81
316.802	316.939	75	63
316.802	316.935	81	74
316.805	316.939	69	63
317.085	318.177	46	57
317.086	318.181	58	68
317.354	317.488	82	74
317.355	317.491	75	63
317.355	317.488	77	63
317.358	317.491	70	63
317.627	317.761	70	66
317.628	317.761	74	66
317.631	317.762	77	66
317.632	317.764	82	79
317.894	318.033	62	63
317.894	318.034	65	63
317.897	318.037	70	74
318.181	318.712	45	57
318.182	318.712	57	68
318.44	318.579	63	63
318.44	318.58	67	63
318.443	318.583	72	74
318.713	319.251	48	56
318.716	319.252	60	66
318.978	319.115	66	63
318.983	319.115	69	63
318.983	319.116	75	74
319.255	319.812	46	62
319.256	319.812	58	73
319.525	319.664	67	65
319.525	319.665	70	65
319.528	319.665	74	78
319.812	320.365	45	45
319.813	320.368	57	64
320.088	320.228	72	66
320.088	320.229	74	66
320.089	320.229	78	79
320.368	322.055	55	72
320.372	322.055	43	51
320.658	320.939	70	69
320.659	320.942	74	69
320.659	321.51	79	81
320.939	321.218	62	67
320.939	321.499	70	67
320.942	321.51	74	80
321.218	321.495	62	65
321.219	321.51	69	65
321.219	321.51	72	78
321.495	322.616	62	64
321.498	321.772	67	64
321.499	321.772	70	64
321.772	322.321	67	63
321.772	322.048	70	63
321.773	322.052	74	74
322.048	322.322	70	63
322.052	322.322	74	63
322.052	322.616	79	74
322.055	322.616	43	69
322.055	322.616	55	69
322.321	322.616	67	63
322.322	322.616	70	63
322.322	322.616	74	74
322.462	322.616	46	61
322.462	322.616	58	61
322.615	323.032	50	74
322.616	323.007	62	74
322.891	323.032	66	63
322.892	323.035	69	63
322.895	323.035	74	74
323.171	323.577	62	67
323.172	323.578	50	55
323.437	323.581	81	74
323.438	323.581	72	63
323.441	323.582	74	63
323.71	324.116	50	58
323.714	324.12	62	69
323.977	324.121	70	63
323.98	324.121	74	63
323.98	324.123	79	74
324.25	324.67	50	57
324.251	324.67	62	68
324.522	324.67	69	63
324.526	324.672	74	63
324.527	324.673	78	74
324.82	325.94	51	63
324.821	325.94	63	75
325.103	325.244	67	65
325.104	325.244	74	65
325.107	325.247	79	78
325.383	325.516	67	66
325.384	325.517	72	66
325.387	325.517	79	79
325.657	325.796	79	71
325.657	325.793	85	83
325.658	325.796	73	71
325.94	327.049	50	60
325.944	327.05	62	72
326.213	326.354	81	83
326.213	326.353	86	83
326.214	326.354	79	71
326.217	326.356	74	71
326.493	326.626	74	69
326.493	326.626	77	69
326.494	326.626	81	69
326.494	326.63	86	81
326.759	326.899	65	66
326.76	326.899	69	66
326.76	326.9	74	79
327.053	328.142	48	63
327.054	328.142	60	75
327.322	327.455	63	63
327.323	327.456	70	63
327.323	327.459	75	74
327.595	327.728	63	69
327.596	327.729	69	69
327.596	327.729	75	81
327.862	328.002	75	63
327.862	328.001	81	74
327.865	328.005	69	63
328.143	328.953	58	68
328.145	328.954	46	57
328.411	328.548	82	74
328.414	328.549	75	63
328.414	328.548	77	63
328.418	328.551	70	63
328.687	328.821	70	66
328.688	328.821	74	66
328.688	328.822	77	66
328.688	328.822	82	79
328.954	329.087	65	63
328.958	329.234	45	60
328.958	329.088	72	74
328.959	329.234	57	66
329.234	329.766	55	70
329.235	329.766	43	60
329.493	329.632	63	63
329.493	329.633	70	63
329.496	329.633	75	74
329.767	330.322	51	55
329.769	330.325	63	66
330.045	330.179	67	63
330.046	330.179	70	63
330.046	330.179	72	74
330.326	330.869	50	56
330.326	330.869	62	67
330.588	330.728	65	65
330.592	330.729	70	65
330.592	330.732	77	78
330.869	331.442	48	50
330.871	331.442	60	60
331.148	331.291	69	50
331.148	331.292	75	66
331.149	331.295	77	66
331.152	331.296	81	79
331.446	333.151	46	60
331.446	333.151	58	70
331.733	332.016	75	69
331.736	332.02	70	69
331.736	332.021	77	69
331.737	332.023	82	81
332.023	332.296	74	67
332.024	332.297	70	67
332.024	332.297	77	67
332.027	332.299	82	80
332.299	332.583	70	65
332.3	332.584	74	65
332.303	332.584	77	78
332.585	332.866	65	54
332.586	332.867	70	54
332.587	332.867	74	64
332.868	333.152	62	53
332.871	333.154	65	53
332.871	333.154	70	63
333.154	333.729	58	46
333.158	333.729	70	55
333.574	333.729	62	46
333.577	333.729	74	55
333.725	334.289	65	41
333.728	333.864	46	44
333.728	334.291	77	55
333.865	334.145	50	36
334.004	334.561	53	36
334.145	334.424	50	36
334.289	334.851	65	44
334.291	334.851	46	45
334.291	334.851	77	54
334.424	334.694	50	38
334.561	334.851	53	38
334.694	334.851	50	46
334.838	334.967	45	54
334.838	335.397	66	53
334.838	335.397	78	63
334.967	335.24	48	45
335.107	335.397	50	45
335.24	335.397	48	48
335.383	335.937	67	57
335.384	335.937	43	57
335.384	335.937	79	68
335.52	335.793	48	49
335.653	335.937	50	46
335.793	335.937	48	46
335.933	336.489	69	58
335.936	336.489	81	71
335.937	336.483	42	66
336.066	336.335	48	50
336.205	336.489	50	54
336.335	336.489	48	54
336.479	337.036	72	60
336.482	337.036	84	72
336.483	337.036	42	62
336.615	336.886	45	49
336.752	337.036	50	49
336.886	337.036	45	49
337.025	337.585	70	58
337.029	337.161	43	58
337.029	337.585	82	70
337.162	337.435	46	44
337.301	337.585	50	44
337.435	337.585	46	44
337.575	338.137	69	49
337.578	338.137	81	58
337.579	337.71	48	48
337.714	337.991	51	35
337.848	338.137	57	35
337.991	338.137	51	36
337.991	338.137	67	42
337.991	338.137	79	51
338.135	338.703	66	49
338.135	338.704	78	58
338.137	338.705	50	50
338.278	338.561	57	39
338.418	338.978	60	39
338.561	338.839	57	39
338.703	339.268	66	46
338.704	339.268	78	55
338.705	339.262	50	47
338.839	339.118	57	39
338.978	339.268	60	39
339.118	339.268	57	39
339.261	340.38	67	45
339.262	339.808	50	47
339.262	340.382	79	53
339.391	339.664	57	40
339.534	340.09	66	37
339.534	340.09	78	45
339.535	340.09	60	40
339.664	339.944	57	40
339.807	340.387	64	38
339.808	340.387	50	44
339.808	340.387	76	46
339.944	340.226	57	36
340.09	340.387	60	36
340.09	340.387	66	37
340.09	340.387	78	45
340.226	340.387	57	36
340.38	341.526	67	40
340.382	341.526	43	33
340.382	341.526	79	48
340.573	340.766	50	19
340.573	340.766	55	19
340.575	340.766	59	23
340.766	340.959	50	19
340.766	340.959	55	19
340.766	340.959	59	23
340.959	341.143	50	21
340.959	341.144	55	21
340.959	341.143	59	25
341.143	341.336	50	21
341.143	341.335	59	25
341.144	341.336	55	21
341.335	341.525	59	25
341.336	341.525	50	21
341.336	341.525	55	21
341.521	341.812	72	53
341.525	341.658	50	27
341.525	341.662	55	27
341.525	341.657	59	32
341.699	341.84	59	24
341.7	341.84	50	20
341.703	341.84	55	20
341.791	342.081	71	53
341.886	342.018	50	21
341.886	342.019	59	25
341.888	342.021	55	21
342.064	342.361	70	53
342.065	342.204	59	33
342.067	342.204	55	28
342.068	342.208	50	28
342.249	342.389	55	21
342.253	342.393	50	21
342.253	342.393	59	25
342.343	342.609	71	53
342.435	342.571	59	25
342.438	342.572	55	21
342.439	342.572	50	21
342.61	343.737	71	48
342.614	343.744	36	33
342.747	343.744	76	48
342.795	342.985	52	19
342.799	342.985	48	19
342.799	342.98	59	23
342.98	343.744	59	23
342.985	343.177	48	19
342.985	343.177	52	19
343.172	343.363	56	30
343.177	343.362	48	25
343.177	343.359	52	25
343.359	343.552	52	21
343.362	343.551	48	21
343.363	343.552	56	25
343.551	343.74	48	21
343.552	343.744	52	21
343.552	343.744	56	25
343.737	344.027	71	53
343.74	343.876	48	27
343.74	343.877	57	32
343.744	343.877	52	27
343.915	344.055	48	20
343.918	344.059	52	20
343.919	344.06	57	24
344.01	344.3	69	53
344.101	344.237	57	25
344.104	344.238	48	21
344.104	344.238	52	21
344.282	344.576	68	53
344.283	344.423	48	28
344.283	344.423	57	33
344.286	344.423	52	28
344.468	344.608	48	21
344.468	344.609	52	21
344.468	344.609	57	25
344.559	344.836	69	53
344.654	344.787	52	21
344.657	344.787	48	21
344.658	344.79	57	25
344.836	345.977	35	33
344.836	345.977	69	48
344.965	345.977	74	48
345.007	345.207	47	19
345.007	345.206	50	19
345.011	345.207	57	23
345.206	345.4	50	19
345.207	345.399	47	19
345.207	345.977	57	23
345.399	345.585	47	25
345.4	345.584	50	25
345.4	345.581	54	30
345.581	345.778	54	25
345.584	345.774	50	21
345.585	345.774	47	21
345.774	345.966	47	21
345.774	345.964	50	21
345.778	345.977	54	25
345.963	346.249	72	58
345.964	346.1	50	29
345.964	346.1	55	35
345.966	346.103	47	29
346.141	346.281	50	22
346.142	346.282	47	22
346.142	346.282	55	27
346.232	346.522	71	60
346.327	346.459	50	24
346.328	346.463	47	24
346.328	346.46	55	29
346.505	346.803	69	63
346.508	346.645	47	33
346.509	346.649	50	33
346.509	346.645	55	39
346.691	346.83	47	25
346.694	346.834	50	25
346.694	346.831	55	30
346.785	347.08	67	66
346.879	347.027	50	26
346.88	347.03	47	26
346.88	347.03	55	31
347.08	347.623	66	57
347.083	347.623	36	42
347.083	347.623	74	68
347.261	347.44	52	30
347.262	347.44	48	25
347.35	347.623	64	56
347.352	347.623	72	66
347.44	347.619	48	26
347.44	347.622	52	31
347.618	348.199	62	53
347.619	347.8	48	33
347.619	348.199	71	63
347.622	347.801	52	39
347.8	347.982	48	24
347.801	347.979	52	29
347.891	348.199	60	51
347.892	348.199	69	60
347.979	348.199	52	28
347.982	348.199	48	23
348.186	348.769	59	49
348.186	348.769	67	58
348.188	348.756	38	36
348.364	348.547	50	21
348.364	348.546	55	26
348.546	348.769	55	26
348.547	348.769	50	22
348.753	349.341	62	55
348.756	349.341	38	34
348.756	349.341	71	55
348.945	349.13	50	21
348.946	349.131	54	26
349.13	349.341	50	21
349.131	349.341	54	25
349.179	349.341	60	54
349.18	349.341	69	54
349.33	349.526	59	40
349.331	350.475	67	48
349.334	350.475	43	33
349.526	349.719	59	23
349.529	349.722	50	19
349.529	349.719	55	19
349.719	349.914	55	19
349.719	349.911	59	23
349.722	349.912	50	19
349.911	350.093	59	25
349.912	350.097	50	21
349.914	350.097	55	21
350.093	350.285	59	25
350.097	350.289	50	21
350.097	350.289	55	21
350.285	350.472	59	25
350.289	350.474	50	21
350.289	350.475	55	21
350.471	350.761	72	53
350.472	350.611	59	32
350.474	350.611	50	27
350.475	350.612	55	27
350.66	350.793	50	20
350.66	350.789	55	20
350.66	350.789	59	24
350.743	351.034	71	53
350.835	350.972	50	21
350.838	350.972	55	21
350.839	350.973	59	25
351.017	351.164	59	33
351.017	351.31	70	53
351.018	351.164	55	28
351.021	351.165	50	28
351.202	351.338	50	21
351.203	351.343	55	21
351.203	351.345	59	25
351.297	351.587	71	53
351.387	351.542	50	21
351.388	351.542	59	25
351.392	351.543	55	21
351.587	351.888	83	53
351.588	351.723	36	33
351.588	352.717	76	48
351.776	351.916	48	19
351.777	351.916	52	19
351.78	351.916	59	23
351.871	352.172	81	53
351.966	352.11	48	19
351.966	352.11	52	19
351.966	352.109	59	23
352.154	352.452	80	53
352.155	352.295	48	25
352.155	352.295	59	30
352.158	352.295	52	25
352.339	352.487	52	21
352.34	352.487	59	25
352.344	352.488	48	21
352.438	352.718	81	53
352.532	352.673	48	21
352.532	352.668	52	21
352.533	352.675	59	25
352.721	353.008	71	53
352.722	352.858	52	27
352.722	352.858	57	32
352.723	352.859	48	27
352.904	353.036	52	20
352.904	353.037	57	24
352.907	353.037	48	20
352.99	353.282	69	53
353.082	353.215	52	21
353.083	353.219	57	25
353.085	353.219	48	21
353.263	353.562	68	53
353.264	353.407	52	28
353.267	353.408	57	33
353.268	353.411	48	28
353.449	353.593	52	21
353.45	353.597	48	21
353.453	353.597	57	25
353.548	353.831	69	53
353.641	353.778	48	21
353.642	353.783	52	21
353.642	353.782	57	25
353.834	354.971	74	48
353.834	354.118	81	58
353.838	353.97	35	33
354.019	354.163	57	23
354.02	354.167	47	19
354.02	354.163	50	19
354.118	354.401	79	60
354.209	354.356	57	23
354.213	354.357	47	19
354.213	354.357	50	19
354.401	354.685	78	63
354.405	354.545	50	25
354.405	354.549	57	30
354.406	354.549	47	25
354.59	354.73	50	21
354.594	354.734	47	21
354.594	354.735	57	25
354.688	354.972	79	66
354.779	354.922	57	25
354.78	354.927	47	21
354.78	354.927	50	21
354.972	355.256	72	58
354.975	355.105	50	29
354.976	355.105	47	29
354.976	355.106	55	35
355.15	355.29	47	22
355.15	355.286	55	27
355.151	355.291	50	22
355.241	355.529	71	60
355.336	355.469	50	24
355.337	355.472	47	24
355.339	355.472	55	29
355.515	355.805	69	63
355.518	355.654	50	33
355.518	355.655	55	39
355.519	355.655	47	33
355.703	355.84	50	25
355.704	355.84	47	25
355.704	355.84	55	30
355.794	356.088	67	66
355.888	356.039	50	26
355.889	356.04	47	26
355.889	356.04	55	31
356.092	356.631	74	57
356.093	356.635	66	57
356.095	356.635	36	42
356.095	356.635	78	68
356.27	356.445	55	30
356.271	356.446	48	25
356.271	356.445	52	25
356.361	356.635	72	56
356.362	356.635	64	56
356.362	356.635	76	66
356.445	356.632	52	26
356.445	356.635	55	31
356.446	356.634	48	26
356.627	357.191	71	53
356.628	357.208	62	53
356.631	357.208	74	63
356.632	356.81	52	33
356.632	356.813	56	39
356.634	356.81	48	33
356.81	356.992	48	24
356.81	356.992	52	24
356.813	357.208	56	29
356.901	357.208	69	51
356.902	357.208	60	51
356.903	357.208	72	60
356.991	357.208	57	28
356.992	357.208	48	23
356.992	357.208	52	23
357.191	357.779	59	49
357.191	357.779	71	58
357.192	357.779	67	49
357.195	357.77	38	36
357.373	357.554	50	21
357.376	357.555	55	26
357.554	357.779	50	22
357.555	357.779	55	26
357.765	358.346	60	46
357.769	358.346	66	46
357.769	358.346	72	55
357.77	358.346	38	34
357.947	358.133	54	21
357.95	358.136	57	26
357.951	358.136	50	21
358.133	358.346	54	21
358.136	358.343	50	21
358.136	358.346	57	25
358.182	358.346	69	54
358.339	358.482	67	39
358.342	358.906	43	48
358.343	358.907	50	48
358.343	358.527	55	39
358.528	358.713	55	22
358.528	358.668	67	27
358.713	358.907	55	22
358.717	358.86	67	27
358.909	359.05	55	25
358.91	359.05	67	30
359.099	359.235	55	25
359.099	359.238	67	30
359.28	359.428	55	25
359.284	359.428	67	30
359.472	359.62	55	32
359.476	359.621	67	38
359.665	359.805	55	24
359.665	359.806	67	28
359.85	359.998	55	25
359.854	359.998	67	30
360.044	360.183	55	33
360.044	360.184	67	39
360.047	360.457	47	35
360.229	360.362	55	25
360.23	360.362	67	30
360.411	360.547	55	25
360.411	360.548	67	30
360.457	360.593	48	30
360.593	360.733	67	39
360.596	360.737	55	39
360.6	360.988	50	40
360.785	360.925	55	22
360.786	360.926	67	27
360.971	361.111	55	22
360.974	361.111	67	27
361.156	361.296	55	25
361.161	361.541	50	33
361.161	361.3	67	30
361.346	361.478	55	25
361.346	361.479	67	30
361.524	361.664	55	25
361.527	361.664	67	30
361.703	361.842	55	32
361.706	362.094	50	33
361.706	361.843	67	38
361.891	362.025	55	24
361.892	362.025	67	28
362.07	362.206	55	25
362.07	362.21	67	30
362.248	362.389	55	33
362.252	362.389	67	39
362.253	362.669	48	36
362.437	362.574	55	25
362.438	362.574	67	30
362.62	362.759	55	25
362.62	362.76	67	30
362.669	362.808	50	37
362.808	362.942	67	39
362.809	363.631	51	42
362.809	362.942	55	39
362.987	363.127	55	22
362.987	363.128	67	27
363.172	363.313	55	22
363.173	363.313	67	27
363.358	363.491	55	25
363.358	363.494	67	30
363.536	363.676	55	25
363.54	363.68	67	30
363.631	363.904	50	35
363.725	363.865	55	25
363.726	363.866	67	30
363.904	364.043	55	32
363.905	364.044	67	38
363.908	364.46	48	31
364.089	364.23	55	24
364.09	364.23	67	28
364.279	364.415	55	25
364.279	364.418	67	30
364.461	364.594	55	33
364.464	364.594	67	39
364.465	364.866	46	39
364.642	364.775	55	25
364.643	364.776	67	30
364.821	364.961	53	25
364.822	364.961	65	30
364.87	365.009	44	33
365.01	365.193	60	39
365.01	365.192	63	39
365.011	365.195	67	39
365.013	365.193	55	39
365.014	365.563	43	36
365.192	365.377	63	22
365.193	365.381	55	22
365.193	365.378	60	22
365.195	365.382	67	27
365.377	365.56	63	22
365.378	365.561	60	22
365.381	365.563	55	22
365.382	365.563	67	27
365.56	365.745	63	22
365.561	365.746	60	22
365.563	366.116	43	36
365.563	365.746	55	25
365.563	365.748	67	30
365.745	365.93	63	22
365.746	365.931	55	25
365.746	365.931	60	22
365.748	365.934	67	30
365.93	366.126	63	22
365.931	366.113	55	25
365.931	366.126	60	22
365.934	366.116	67	30
366.109	366.294	62	32
366.112	366.298	59	32
366.113	366.298	55	32
366.116	366.666	43	36
366.116	366.301	67	38
366.294	366.483	62	32
366.298	366.484	55	24
366.298	366.483	59	32
366.301	366.484	67	28
366.483	366.663	59	32
366.483	366.663	62	32
366.484	366.665	55	25
366.484	366.666	67	30
366.663	366.848	59	33
366.663	366.848	62	33
366.665	366.851	55	33
366.666	367.219	43	36
366.666	366.851	67	39
366.848	367.034	59	25
366.848	367.033	62	25
366.851	367.036	55	25
366.851	367.037	67	30
367.033	367.219	62	25
367.034	367.219	59	25
367.036	367.219	55	25
367.037	367.215	67	30
367.212	367.358	63	39
367.215	367.359	60	39
367.215	367.359	67	39
367.219	368.338	48	48
367.219	367.362	55	39
367.404	367.551	55	22
367.405	367.551	67	27
367.596	367.733	55	22
367.597	367.734	67	27
367.782	367.921	55	28
367.782	367.922	67	34
367.967	368.104	55	29
367.968	368.107	67	35
368.153	368.293	55	30
368.153	368.294	67	36
368.342	368.479	55	40
368.343	368.479	67	48
368.523	368.664	55	32
368.524	368.665	67	36
368.713	368.849	55	34
368.714	368.85	67	41
368.894	369.035	55	47
368.895	369.036	67	56
368.899	369.308	35	42
368.899	369.312	47	50
369.08	369.216	55	36
369.084	369.217	67	43
369.262	369.402	55	37
369.263	369.402	67	44
369.312	369.448	36	37
369.312	369.448	48	44
369.448	369.634	67	59
369.452	370.015	38	51
369.452	370.015	50	62
369.452	369.633	55	59
369.633	369.826	55	33
369.634	369.826	67	41
369.826	370.008	55	33
369.826	370.011	67	41
370.008	370.19	55	37
370.011	370.194	67	46
370.015	370.558	38	42
370.015	370.561	50	50
370.19	370.375	55	37
370.194	370.376	67	46
370.375	370.554	55	37
370.376	370.558	67	46
370.554	370.694	55	49
370.558	371.128	38	42
370.558	370.697	67	58
370.561	371.128	50	50
370.743	370.921	55	36
370.743	370.922	67	42
370.921	371.128	55	37
370.922	371.128	67	46
371.1	371.289	56	55
371.104	371.685	36	50
371.104	371.29	68	65
371.107	371.685	48	59
371.289	371.475	56	42
371.29	371.475	68	52
371.475	371.685	56	44
371.475	371.685	68	55
371.516	371.685	38	57
371.517	371.685	50	67
371.681	371.86	67	70
371.682	372.798	39	63
371.682	372.798	51	76
371.682	371.856	55	70
371.856	372.042	55	40
371.86	372.042	67	50
372.042	372.227	55	40
372.042	372.228	67	50
372.227	372.409	55	46
372.228	372.409	67	55
372.409	372.594	55	44
372.409	372.595	67	55
372.504	372.798	38	54
372.505	372.798	50	64
372.594	372.776	55	44
372.595	372.777	67	54
372.776	372.958	55	57
372.777	373.892	36	46
372.777	372.962	67	69
372.78	373.892	48	55
372.958	373.144	55	42
372.962	373.147	67	49
373.144	373.326	55	42
373.147	373.329	67	52
373.326	373.503	55	57
373.329	373.892	34	57
373.329	373.507	67	67
373.33	373.892	46	67
373.503	373.882	55	42
373.507	373.881	67	51
373.689	373.892	53	41
373.693	373.892	65	50
373.731	373.892	44	55
373.735	373.892	32	46
373.879	374.06	64	59
373.88	374.06	60	59
373.881	374.064	67	59
373.882	374.434	31	46
373.882	374.435	43	55
373.882	374.064	55	59
374.06	374.245	60	33
374.06	374.242	64	33
374.064	374.246	55	33
374.064	374.246	67	41
374.242	374.431	64	33
374.245	374.432	60	33
374.246	374.432	55	33
374.246	374.433	67	41
374.431	374.61	64	33
374.432	374.611	55	37
374.432	374.61	60	33
374.433	374.611	67	46
374.434	374.975	31	46
374.435	374.974	43	55
374.61	374.789	60	33
374.61	374.788	64	33
374.611	374.789	55	37
374.611	374.791	67	46
374.788	374.977	64	33
374.789	374.974	55	37
374.789	374.977	60	33
374.791	374.974	67	46
374.97	375.148	59	49
374.97	375.145	62	49
374.974	375.516	43	55
374.974	375.149	55	49
374.974	375.152	67	58
374.975	375.517	31	46
375.145	375.327	62	49
375.148	375.327	59	49
375.149	375.33	55	36
375.152	375.331	67	42
375.327	375.512	59	49
375.327	375.509	62	49
375.33	375.513	55	37
375.331	375.513	67	46
375.509	375.69	62	50
375.512	375.695	59	50
375.513	375.695	55	50
375.513	375.698	67	59
375.516	376.139	43	55
375.517	376.139	31	46
375.69	375.873	62	37
375.695	375.874	55	37
375.695	375.874	59	37
375.698	375.876	67	46
375.873	376.139	62	37
375.874	376.079	55	37
375.874	376.139	59	37
375.876	376.081	67	46
376.079	376.262	55	40
376.08	377.171	60	40
376.08	377.175	64	40
376.081	377.175	67	48
376.084	376.262	36	40
376.084	376.265	48	40
376.265	376.443	55	31
376.444	376.626	55	31
376.629	376.807	55	31
376.811	376.993	55	29
376.993	377.176	55	29
377.178	377.312	55	29
377.353	377.493	55	28
377.539	377.679	55	28
377.717	378.137	62	37
377.721	378.138	67	37
377.722	377.858	55	31
377.722	378.138	71	44
377.903	378.043	55	30
378.092	378.225	55	30
378.141	378.271	64	32
378.142	378.271	67	32
378.142	378.271	72	38
378.274	378.694	65	35
378.274	378.695	67	35
378.278	378.417	55	31
378.278	378.669	74	51
378.463	378.6	55	27
378.649	378.792	55	27
378.841	379.244	65	35
378.841	379.244	67	35
378.842	378.974	55	31
378.842	379.223	74	42
379.019	379.16	55	28
379.202	379.338	55	28
379.383	379.79	65	35
379.384	379.79	67	35
379.387	379.768	74	42
379.388	379.52	55	31
379.566	379.705	55	31
379.751	379.884	55	31
379.93	380.342	64	39
379.93	380.343	67	39
379.933	380.069	55	31
379.933	380.343	72	46
380.112	380.252	55	31
380.297	380.437	55	32
380.346	380.483	65	39
380.347	380.483	67	39
380.349	380.484	74	47
380.484	381.305	67	45
380.486	381.308	76	53
380.487	380.619	55	40
380.668	380.801	55	31
380.847	380.986	55	26
381.035	381.172	55	33
381.218	381.35	55	29
381.309	381.585	65	37
381.309	381.586	67	37
381.312	381.586	74	44
381.4	381.54	55	26
381.588	382.135	64	33
381.589	382.138	67	33
381.589	382.138	72	39
381.592	381.725	55	33
381.771	381.903	55	30
381.949	382.089	55	29
382.142	382.54	65	41
382.142	382.545	67	41
382.143	382.271	55	33
382.143	382.545	74	49
382.316	382.45	55	30
382.494	382.635	55	30
382.547	382.687	64	35
382.548	382.687	67	35
382.548	382.691	72	42
382.691	383.237	62	39
382.695	383.238	67	39
382.695	383.241	71	46
382.696	382.82	55	31
382.869	383.009	55	28
383.055	383.191	55	28
383.244	383.653	60	37
383.245	383.654	67	37
383.245	383.654	69	44
383.247	383.374	55	31
383.419	383.559	55	28
383.604	383.745	53	26
383.605	383.745	55	31
383.654	383.79	62	30
383.657	383.79	67	30
383.657	383.79	71	36
383.794	384.361	64	40
383.794	384.361	67	40
383.797	383.93	52	30
383.797	384.362	72	48
383.798	383.931	55	36
383.975	384.116	55	29
384.161	384.308	55	29
384.362	384.777	67	36
384.364	384.781	71	36
384.365	384.497	48	30
384.365	384.781	74	43
384.368	384.5	55	36
384.543	384.683	55	31
384.732	384.875	55	31
384.781	384.92	67	37
384.782	384.924	72	37
384.784	384.925	76	44
384.927	386.65	71	43
384.928	386.65	67	43
384.928	386.651	74	51
384.929	385.075	43	35
384.931	385.075	55	37
385.119	385.27	55	29
385.32	385.467	55	29
385.515	385.656	55	44
385.701	385.841	55	37
385.886	386.027	55	39
386.072	386.219	55	53
386.265	386.405	55	39
386.453	386.594	55	40
386.651	387.217	59	52
386.653	387.217	67	52
386.653	387.216	71	62
386.654	386.824	55	52
386.824	387.014	55	45
387.014	387.217	55	52
387.063	387.217	60	50
387.064	387.217	69	50
387.067	387.217	72	60
387.214	387.755	62	61
387.216	387.756	71	61
387.217	387.391	55	59
387.217	387.756	74	73
387.391	387.57	55	47
387.57	387.757	55	47
387.755	388.288	62	50
387.756	388.288	71	50
387.756	388.291	74	60
387.757	387.931	55	52
387.759	387.932	54	52
387.931	388.105	55	43
387.932	388.106	54	43
388.105	388.291	55	43
388.106	388.302	54	43
388.288	388.851	62	50
388.288	388.851	71	50
388.291	388.466	53	54
388.291	388.462	55	54
388.291	388.851	74	60
388.462	388.645	55	45
388.466	388.645	53	45
388.645	388.851	53	45
388.645	388.849	55	45
388.845	389.415	64	49
388.848	389.415	72	51
388.848	389.407	76	61
388.849	389.03	52	53
388.849	389.03	55	53
389.03	389.412	52	43
389.03	389.212	55	43
389.205	389.415	53	44
389.208	389.415	50	44
389.212	389.412	55	44
389.257	389.415	65	46
389.258	389.415	74	46
389.258	389.415	77	67
389.407	389.961	76	54
389.408	389.961	67	54
389.411	389.961	79	75
389.412	389.59	48	57
389.412	389.59	52	57
389.412	389.593	55	57
389.59	389.772	48	45
389.59	389.771	52	45
389.593	389.772	55	45
389.771	389.961	52	45
389.772	389.961	48	45
389.772	389.961	55	45
389.947	390.507	74	58
389.95	390.507	71	58
389.95	390.507	77	69
389.951	390.132	44	54
389.954	390.133	50	54
389.954	390.133	53	54
390.132	390.31	44	45
390.133	390.311	50	45
390.133	390.311	53	45
390.31	390.507	44	45
390.311	390.507	50	45
390.311	390.507	53	45
390.494	391.087	72	54
390.496	391.087	76	76
390.497	390.679	45	55
390.497	390.674	48	55
390.5	390.679	52	55
390.674	390.867	48	43
390.679	390.871	45	43
390.679	390.871	52	43
390.867	391.087	48	43
390.871	391.087	45	43
390.871	391.087	52	43
391.071	391.487	69	58
391.073	391.651	41	52
391.073	391.651	77	69
391.256	391.439	53	43
391.259	391.438	57	43
391.438	391.651	57	42
391.439	391.651	53	42
391.484	391.633	65	51
391.487	391.651	69	51
391.487	391.651	74	60
391.631	392.184	62	55
391.633	392.183	65	55
391.634	392.187	43	54
391.634	392.184	71	66
391.809	391.994	55	45
391.994	392.366	55	45
392.183	392.737	65	55
392.184	392.737	62	55
392.184	392.736	71	66
392.187	392.74	43	54
392.366	392.551	55	45
392.551	392.919	55	45
392.736	393.325	71	66
392.737	393.325	62	55
392.737	393.325	65	55
392.74	393.325	43	54
392.919	393.114	55	45
393.114	393.322	55	45
393.321	393.744	67	64
393.321	393.895	76	75
393.322	393.503	55	57
393.503	393.696	55	43
393.503	393.895	57	43
393.695	393.895	59	43
393.696	393.893	55	43
393.742	393.895	65	52
393.744	393.892	67	52
393.744	393.895	74	62
393.892	395.071	64	61
393.892	395.071	67	61
393.893	394.084	55	40
393.893	395.072	72	73
393.895	394.084	48	40
393.895	394.087	60	40
394.087	394.234	55	31
394.279	394.43	55	31
394.479	394.629	55	31
394.675	394.826	55	29
394.872	395.025	55	29
395.074	395.222	55	29
395.266	395.417	55	28
395.466	395.616	55	28
395.662	396.079	83	52
395.663	395.802	55	31
395.847	395.988	55	30
396.033	396.167	55	30
396.082	396.215	84	45
396.216	396.355	55	31
396.216	396.779	86	61
396.401	396.544	55	27
396.586	396.723	55	27
396.779	397.328	77	35
396.779	397.328	80	35
396.78	397.329	83	35
396.783	396.908	55	31
396.783	397.332	86	50
396.957	397.097	55	28
397.142	397.283	55	28
397.332	397.874	78	35
397.333	397.875	81	35
397.335	397.875	84	35
397.335	397.877	86	50
397.336	397.462	55	31
397.506	397.643	55	31
397.689	397.829	55	31
397.878	398.428	78	35
397.878	398.428	81	35
397.881	398.287	84	55
397.882	398.007	55	31
398.053	398.192	55	31
398.238	398.378	55	32
398.288	398.428	86	56
398.429	400.087	78	35
398.431	399.251	60	53
398.431	400.087	81	35
398.431	399.25	87	63
398.432	398.56	55	40
398.606	398.743	55	31
398.792	398.931	55	26
398.977	399.11	55	33
399.159	399.295	55	29
399.251	399.529	86	52
399.253	399.53	62	44
399.341	399.48	55	26
399.53	400.087	84	46
399.533	400.089	63	39
399.534	399.666	55	33
399.716	399.855	55	30
399.901	400.041	55	29
400.09	400.639	74	35
400.09	400.639	81	35
400.094	400.219	55	33
400.094	400.639	66	39
400.094	400.492	86	58
400.265	400.405	55	30
400.446	400.583	55	30
400.493	400.64	84	50
400.643	401.189	74	35
400.643	401.19	79	35
400.644	401.193	67	39
400.644	401.192	83	55
400.646	400.779	55	31
400.817	400.954	55	28
401.004	401.143	55	28
401.193	401.738	74	35
401.196	401.741	79	35
401.197	401.742	65	39
401.197	401.598	81	52
401.199	401.322	55	31
401.367	401.507	55	28
401.553	401.693	55	31
401.602	401.745	83	52
401.746	402.313	72	35
401.746	402.316	79	35
401.747	402.32	84	57
401.748	402.32	63	37
401.749	401.885	55	36
401.931	402.078	55	29
402.123	402.267	55	29
402.32	402.883	79	35
402.321	402.732	83	39
402.323	402.452	55	36
402.323	402.883	60	35
402.323	402.735	86	51
402.501	402.642	55	31
402.686	402.83	55	31
402.736	402.886	84	40
402.736	402.887	87	52
402.89	404.66	79	39
402.89	404.661	83	39
402.891	404.661	86	51
402.893	403.029	55	37
402.893	404.069	67	35
403.082	403.226	55	29
403.279	403.425	55	29
403.474	403.622	55	42
403.673	403.817	55	35
403.87	404.016	55	37
404.07	404.259	55	49
404.262	404.465	56	36
404.466	404.664	57	36
404.665	404.794	58	52
404.665	405.07	74	55
404.839	404.979	58	45
405.024	405.165	58	52
405.074	405.211	75	47
405.214	405.346	58	52
405.214	405.592	77	64
405.392	405.529	58	46
405.578	405.718	58	46
405.763	406.177	71	44
405.764	406.177	68	44
405.767	406.177	74	44
405.767	406.145	77	52
405.768	405.897	58	44
405.768	405.897	65	52
405.945	406.085	58	39
405.946	406.086	65	46
406.127	406.267	58	39
406.127	406.268	65	46
406.312	406.698	68	44
406.313	406.698	70	44
406.316	406.677	77	52
406.319	406.442	58	44
406.32	406.446	62	52
406.481	406.617	58	38
406.481	406.618	62	45
406.655	406.782	58	45
406.659	406.785	62	45
406.831	407.412	68	39
406.831	407.412	70	39
406.835	406.953	58	52
406.835	406.891	75	47
406.891	406.954	77	47
406.954	407.243	75	70
406.999	407.142	58	47
407.195	407.352	58	47
407.244	407.413	74	58
407.415	407.958	70	56
407.416	407.959	67	56
407.419	407.551	63	56
407.419	408.371	79	66
407.597	407.737	63	39
407.776	407.912	63	39
407.959	408.504	74	44
407.961	408.504	68	36
407.962	408.091	59	38
407.962	408.091	62	38
407.965	408.094	65	45
408.137	408.276	59	32
408.14	408.28	62	32
408.14	408.28	65	38
408.322	408.462	59	32
408.325	408.462	62	32
408.326	408.466	65	38
408.371	408.504	77	55
408.505	409.06	67	56
408.508	408.64	63	47
408.508	409.064	75	48
408.509	408.644	60	39
408.689	408.83	60	35
408.689	408.826	63	42
408.874	409.015	63	42
408.879	409.016	60	35
409.064	409.467	65	53
409.065	409.606	68	46
409.065	409.467	74	63
409.067	409.194	53	44
409.067	409.194	56	52
409.238	409.372	53	38
409.239	409.375	56	45
409.421	409.56	53	38
409.421	409.561	56	45
409.47	409.607	63	46
409.47	409.607	72	54
409.61	410.156	62	50
409.611	410.16	67	50
409.611	410.16	71	59
409.613	409.747	55	50
409.792	409.932	55	40
409.97	410.111	55	40
410.162	410.709	62	49
410.163	410.709	67	47
410.163	410.576	69	61
410.164	410.296	53	42
410.166	410.299	55	50
410.345	410.481	55	39
410.53	410.663	55	39
410.577	410.713	71	50
410.713	411.272	60	63
410.714	411.272	67	63
410.714	411.273	72	63
410.716	410.852	51	39
410.716	410.855	55	47
410.901	411.038	55	38
411.086	411.227	55	38
411.276	411.851	67	53
411.277	411.871	48	40
411.277	411.871	77	63
411.279	411.464	55	48
411.464	411.65	55	38
411.65	411.854	55	38
411.696	411.871	72	46
411.697	411.871	75	55
411.851	413.565	67	43
411.851	413.565	71	43
411.853	413.566	74	51
411.854	411.99	43	45
411.854	411.993	55	45
412.043	412.189	55	36
412.242	412.386	55	36
412.435	412.571	55	42
412.62	412.757	55	35
412.805	412.949	55	37
412.995	413.134	55	49
413.18	413.327	55	36
413.373	413.519	55	36
413.568	414.136	59	57
413.569	414.136	67	57
413.569	414.133	71	68
413.572	413.75	55	57
413.75	413.932	55	49
413.932	414.135	55	57
413.982	414.136	60	55
413.982	414.136	69	55
413.983	414.136	72	66
414.132	414.684	62	67
414.133	414.685	71	67
414.133	414.685	74	80
414.135	414.314	55	64
414.314	414.499	55	51
414.499	414.686	55	51
414.684	415.224	62	55
414.685	415.224	71	55
414.685	415.225	74	66
414.686	414.867	55	57
414.689	414.868	54	57
414.867	415.045	55	47
414.868	415.046	54	47
415.045	415.227	55	47
415.046	415.238	54	47
415.224	415.766	62	56
415.224	415.766	71	56
415.225	415.766	53	60
415.225	415.766	74	67
415.227	415.398	55	60
415.398	415.574	55	50
415.399	415.766	52	50
415.574	415.766	50	51
415.574	415.76	55	51
415.757	416.372	64	53
415.759	416.372	72	53
415.76	415.942	55	61
415.76	416.366	76	63
415.763	416.372	48	61
415.938	416.372	47	50
415.942	416.127	55	50
416.127	416.37	55	51
416.128	416.372	46	52
416.169	416.372	65	54
416.17	416.372	74	54
416.172	416.372	77	79
416.366	417.46	76	67
416.369	416.551	45	71
416.369	417.471	67	67
416.369	417.471	79	93
416.37	416.551	55	71
416.551	416.733	45	54
416.551	416.729	55	54
416.729	416.911	55	53
416.733	416.911	45	53
416.911	417.089	45	61
416.911	417.09	55	61
417.089	417.275	45	49
417.09	417.275	55	49
417.184	417.471	74	62
417.188	417.471	65	62
417.188	417.471	77	74
417.275	417.461	45	47
417.275	417.461	55	47
417.458	418.598	64	55
417.46	418.602	73	55
417.46	418.602	76	77
417.461	417.638	45	56
417.461	418.598	55	56
417.638	417.824	45	43
417.824	418.02	45	43
418.02	418.21	45	54
418.21	418.409	45	46
418.409	418.602	45	46
418.598	420.849	55	51
418.598	420.849	61	51
418.598	419.714	64	60
418.601	418.738	46	50
418.783	418.969	45	41
418.969	419.148	45	41
419.148	419.336	45	48
419.336	419.526	45	41
419.427	419.728	65	54
419.526	419.715	45	41
419.714	420.849	64	50
419.715	419.903	45	49
419.903	420.089	45	41
420.089	420.279	45	41
420.279	420.467	45	41
420.467	420.652	45	41
420.652	420.849	45	41
420.845	421.954	65	67
420.845	421.941	74	67
420.846	421.954	77	93
420.849	421.03	44	71
421.03	421.215	44	54
421.215	421.391	44	53
421.391	421.576	44	61
421.576	421.759	44	49
421.667	421.954	72	62
421.668	421.954	63	62
421.668	421.954	75	74
421.759	421.944	44	47
421.94	423.086	62	55
421.941	423.089	71	55
421.941	423.089	74	77
421.944	422.123	44	56
422.123	422.308	44	43
422.308	422.508	44	43
422.508	422.697	44	54
422.697	422.885	44	46
422.885	423.089	44	46
423.085	424.779	53	51
423.085	424.779	59	51
423.086	424.194	62	60
423.089	423.648	43	50
423.27	423.453	44	41
423.453	423.631	44	41
423.631	423.824	44	48
423.824	424.009	44	41
423.915	424.215	63	54
424.009	424.198	44	41
424.194	424.779	62	50
424.198	424.384	44	49
424.384	424.572	44	41
424.572	424.779	44	41
424.769	424.95	43	41
424.95	425.139	43	41
425.139	425.336	43	41
425.332	427.59	69	43
425.332	426.452	75	60
425.333	425.472	42	34
425.336	426.453	48	53
425.517	425.658	42	34
425.703	425.846	42	34
425.895	426.036	42	41
426.08	426.217	42	33
426.267	426.407	42	33
426.455	427.009	74	53
426.456	426.592	42	34
426.456	427.009	50	43
426.638	426.777	42	32
426.823	426.963	42	32
427.009	427.59	72	50
427.012	427.148	42	34
427.012	427.593	51	44
427.194	427.334	42	33
427.386	427.537	42	33
427.593	428.73	67	51
427.594	427.729	43	34
427.597	428.731	52	46
427.775	427.915	43	34
427.961	428.1	43	34
428.146	428.286	43	34
428.332	428.471	43	34
428.52	428.675	43	34
428.731	429.006	72	51
428.732	429.865	65	36
428.734	428.867	43	34
428.735	429.865	50	45
428.913	429.052	43	34
429.007	429.291	71	46
429.098	429.245	43	35
429.291	429.571	69	49
429.294	429.43	43	35
429.476	429.616	43	30
429.571	429.868	71	41
429.661	429.812	43	30
429.868	433.231	64	34
429.872	430.004	36	32
429.872	433.82	72	48
429.873	433.235	48	38
430.05	430.19	36	38
430.236	430.382	36	37
430.428	430.568	36	37
430.61	430.753	36	36
430.796	430.936	36	35
430.982	431.117	36	35
431.17	431.31	36	34
431.359	431.496	36	34
431.545	431.681	36	33
431.73	431.874	36	33
431.918	432.059	36	32
432.108	432.248	36	31
432.293	432.43	36	31
432.476	432.615	36	30
432.664	432.801	36	30
432.85	432.99	36	29
433.035	433.179	36	28
433.236	433.82	36	34
433.821	434.229	71	37
434.233	434.369	72	32
434.373	434.765	74	43
434.932	435.328	74	35
434.933	436.035	67	29
434.936	436.039	55	24
435.496	435.874	74	35
436.039	436.315	72	39
436.315	436.605	71	39
436.606	437.421	75	45
437.151	438.265	55	24
437.152	437.967	67	29
437.425	437.698	74	37
437.698	437.971	72	33
437.974	438.266	67	33
438.266	438.544	72	35
438.268	438.545	60	29
438.545	438.835	74	40
438.549	438.836	62	35
438.836	439.396	75	45
438.838	439.399	63	40
439.399	439.682	74	45
439.403	439.682	62	33
439.686	439.969	60	30
439.686	439.966	72	42
439.969	440.413	67	46
439.97	440.414	55	28
439.97	440.414	64	33
440.564	441.03	65	32
440.564	441.03	71	38
440.568	441.033	55	25
440.568	441.03	62	30
441.187	443.059	64	36
441.188	443.063	48	24
441.188	443.064	55	27
441.188	443.06	72	43
441.191	443.066	60	33
443.067	443.473	59	33
443.473	443.612	60	28
443.613	444.011	62	38
444.176	445.285	67	29
444.176	445.286	79	37
444.177	444.569	62	31
444.74	445.121	62	31
445.286	445.709	60	35
445.71	445.853	62	35
445.853	446.672	63	40
446.399	447.511	67	29
446.4	447.512	79	36
446.673	446.944	62	33
446.945	447.217	60	29
447.218	447.516	55	29
447.516	447.792	75	35
447.518	447.792	60	29
447.795	448.082	62	35
447.795	448.082	77	40
448.083	448.359	79	45
448.086	448.646	63	40
448.362	448.646	75	40
448.647	448.929	71	45
448.649	448.93	62	33
448.933	449.212	72	42
448.934	449.217	60	30
449.217	449.661	64	33
449.217	449.661	67	46
449.219	449.662	55	28
449.807	450.277	71	38
449.808	450.278	62	30
449.808	450.278	65	32
449.809	450.278	55	25
450.43	451.68	64	36
450.435	451.68	48	25
450.435	451.68	72	43
450.437	451.684	55	25
450.438	451.684	60	30
451.685	452.128	67	46
451.688	452.129	55	28
451.688	452.129	64	33
452.279	452.747	71	38
452.28	452.748	65	32
452.282	452.752	55	25
452.282	452.751	62	30
452.902	454.155	64	36
452.902	454.156	72	43
452.903	454.156	48	25
452.903	454.158	55	25
452.905	454.158	60	30
454.159	454.746	55	48
454.162	454.747	52	34
454.163	454.75	43	29
454.75	455.398	53	34
454.75	455.397	59	41
454.753	455.398	50	32
454.754	455.399	43	27
455.4	456.784	52	40
455.401	456.787	36	29
455.401	456.784	60	48
455.404	456.787	43	29
455.405	456.788	48	36
456.783	458.299	55	38
456.784	458.302	52	38
456.784	458.303	60	46
456.787	458.303	36	28
456.787	458.303	43	28
456.788	458.305	48	34
458.299	464.602	55	38
458.302	464.602	52	38
458.303	464.602	36	28
458.303	464.602	43	28
458.303	464.602	60	46
458.305	464.602	48	34
