OnsetTime	OffsetTime	MidiPitch	Velocity
0.500004	0.631352	35	61
0.500004	0.631352	47	77
0.631352	3.53308	35	73
0.631352	1.96813	47	92
1.48114	3.53308	37	38
1.48114	2.04101	49	48
1.57931	3.53308	39	39
1.57931	2.11318	51	50
1.66677	3.53308	40	40
1.66677	2.18462	52	51
1.7455	3.53308	42	41
1.7455	2.25538	54	52
1.82024	3.53308	44	42
1.82024	2.32556	56	53
1.89451	3.53308	45	43
1.89451	2.39512	57	54
1.96813	3.53308	47	44
1.96813	2.46403	59	55
2.04101	3.53308	49	45
2.04101	2.53229	61	56
2.11318	3.53308	51	45
2.11318	2.59995	63	57
2.18462	3.53308	52	46
2.18462	2.66695	64	58
2.25538	3.53308	54	46
2.25538	2.73347	66	59
2.32556	3.53308	56	48
2.32556	2.7994	68	61
2.39512	3.53308	57	49
2.39512	2.86474	69	62
2.46403	3.53308	59	50
2.46403	2.9295	71	63
2.53229	3.53308	61	50
2.53229	2.99375	73	63
2.59995	3.53308	63	51
2.59995	3.05737	75	64
2.66695	3.53308	64	53
2.66695	3.12058	76	66
2.73347	3.53308	66	54
2.73347	3.18325	78	67
2.7994	3.53308	68	54
2.7994	3.2459	80	68
2.86474	3.53308	69	54
2.86474	3.30856	81	69
2.9295	3.53308	71	55
2.9295	3.37122	83	70
2.99375	3.53308	73	57
2.99375	3.53308	85	72
3.05737	3.53308	75	57
3.05737	3.53308	87	72
3.12058	3.53308	76	58
3.12058	3.53308	88	73
3.18325	3.53308	78	59
3.18325	3.53308	90	74
3.2459	3.53308	80	60
3.2459	3.53308	92	75
3.30856	3.53308	81	61
3.30856	3.53308	93	77
3.37122	3.55919	83	78
3.37122	3.55919	95	98
5.22586	5.35721	35	51
5.22586	5.35721	40	61
5.22586	5.35721	47	64
5.22586	5.35721	49	77
5.35721	8.21521	35	61
5.35721	8.21521	40	73
5.35721	6.4298	47	78
5.35721	6.50789	49	92
6.18365	8.21521	42	38
6.18365	6.58412	51	48
6.26767	8.21521	44	40
6.26767	6.65857	52	50
6.34976	8.21521	45	40
6.34976	6.73134	54	51
6.4298	8.21521	47	41
6.4298	6.80249	56	52
6.50789	8.21521	49	42
6.50789	6.87292	57	53
6.58412	8.21521	51	43
6.58412	6.94285	59	54
6.65857	8.21521	52	44
6.65857	7.01226	61	55
6.73134	8.21521	54	44
6.73134	7.08104	63	56
6.80249	8.21521	56	45
6.80249	7.14933	64	57
6.87292	8.21521	57	46
6.87292	7.21713	66	58
6.94285	8.21521	59	47
6.94285	7.28433	68	59
7.01226	8.21521	61	48
7.01226	7.35103	69	61
7.08104	8.21521	63	49
7.08104	7.41726	71	62
7.14933	8.21521	64	50
7.14933	7.48306	73	63
7.21713	8.21521	66	50
7.21713	7.54826	75	63
7.28433	8.21521	68	51
7.28433	7.61303	76	64
7.35103	8.21521	69	52
7.35103	7.67736	78	66
7.41726	8.21521	71	53
7.41726	7.74117	80	67
7.48306	8.21521	73	54
7.48306	7.80451	81	68
7.54826	8.21521	75	55
7.54826	7.86743	83	69
7.61303	8.21521	76	56
7.61303	7.92982	85	70
7.67736	8.21521	78	57
7.67736	7.99209	87	72
7.74117	8.21521	80	57
7.74117	8.05436	88	72
7.80451	8.21521	81	58
7.80451	8.21521	90	73
7.86743	8.21521	83	59
7.86743	8.21521	92	74
7.92982	8.21521	85	60
7.92982	8.21521	93	75
7.99209	8.21521	87	61
7.99209	8.21521	95	77
8.05436	8.24116	88	78
8.05436	8.24116	97	98
9.90783	10.0392	35	51
9.90783	10.0392	45	61
9.90783	10.0392	52	64
9.90783	10.0392	54	77
10.0392	12.8088	35	61
10.0392	12.4336	45	73
10.0392	11.1706	52	78
10.0392	11.2568	54	92
10.889	12.3705	47	39
10.889	11.3397	56	52
10.987	12.307	49	40
10.987	11.4194	57	53
11.0808	12.2435	51	41
11.0808	11.4963	59	55
11.1706	12.1796	52	42
11.1706	11.5705	61	56
11.2568	12.1158	54	43
11.2568	11.6424	63	57
11.3397	12.0511	56	44
11.3397	11.7132	64	59
11.4194	11.9855	57	46
11.4194	13.4117	66	60
11.4963	11.919	59	47
11.4963	13.4117	68	61
11.5705	11.8514	61	48
11.5705	13.4117	69	62
11.6424	11.7828	63	49
11.6424	13.4117	71	64
11.7132	13.4117	64	50
11.7132	13.4117	73	65
11.7828	13.4117	63	51
11.7828	13.4117	75	66
11.8514	13.4117	61	52
11.8514	13.4117	76	68
11.919	13.4117	59	53
11.919	13.4117	78	69
11.9855	13.4117	57	54
11.9855	13.4117	80	70
12.0511	13.4117	56	55
12.0511	13.4117	81	72
12.1158	13.4117	54	56
12.1158	13.4117	83	73
12.1796	13.4117	52	58
12.1796	13.4117	85	74
12.2435	13.4117	51	59
12.2435	13.4117	87	76
12.307	13.4117	49	60
12.307	13.4117	88	77
12.3705	13.4117	47	61
12.3705	13.4117	90	78
12.4336	13.4117	45	62
12.4336	13.4117	92	80
12.4966	13.4117	44	63
12.4966	13.4117	93	81
12.5593	13.4117	42	64
12.5593	13.4117	95	82
12.622	13.4117	40	65
12.622	13.4117	97	83
12.6843	13.4117	39	66
12.6843	13.4117	99	85
12.7465	13.4117	37	67
12.7465	13.4117	100	86
12.8088	13.4117	35	83
12.8088	13.4117	102	98
13.8091	14.4395	47	54
13.8321	14.4395	52	56
13.8552	14.4395	54	57
13.8783	14.4395	61	59
13.9013	14.4395	64	66
13.9244	14.4395	69	68
13.9475	14.4395	73	70
13.9705	14.4395	78	72
14.4395	15.1726	47	57
14.4644	15.1726	52	59
14.4893	15.1726	54	61
14.5142	15.1726	60	62
14.5391	15.1726	76	70
14.564	15.1726	81	72
14.5889	15.1726	84	73
14.6138	15.1726	90	75
15.1726	17.228	35	59
15.2255	17.228	42	67
15.2784	17.228	51	76
15.2784	17.228	57	64
15.2784	15.6534	63	64
15.2784	17.228	71	76
15.5678	17.228	47	66
15.6106	17.228	54	70
15.6534	17.228	63	73
15.6534	17.228	69	67
15.6534	16.0981	75	67
15.6534	17.228	83	79
15.9931	17.228	59	69
16.0456	17.228	66	75
16.0981	17.228	75	82
16.0981	17.228	81	80
16.0981	17.228	87	80
16.0981	17.228	95	95
18.4013	18.5952	59	65
18.4013	18.5952	71	77
18.4982	19.3062	40	71
18.5467	19.3062	47	71
18.5952	19.3062	56	77
18.5952	19.1104	59	65
18.5952	19.2695	64	65
18.5952	19.3062	71	77
18.9511	19.3062	57	59
18.9511	19.2695	61	52
18.9511	19.3062	73	61
19.1104	19.3062	59	61
19.1104	19.3062	63	53
19.1104	19.3062	75	63
19.2695	19.3476	61	62
19.2695	19.3476	64	55
19.2695	19.3476	76	65
19.4254	19.5029	63	64
19.4254	19.5029	66	57
19.4254	19.5029	78	67
19.58	19.6569	64	65
19.58	19.6569	68	58
19.58	19.6569	80	69
19.7334	19.8097	66	67
19.7334	19.8097	69	71
19.7334	19.8097	81	71
19.8871	20.0653	68	68
19.8871	20.0653	71	61
19.8871	20.0653	83	73
20.228	20.3093	35	54
20.228	20.3093	47	64
20.3877	20.4661	36	50
20.3877	20.4661	48	59
20.3877	20.4661	69	55
20.3877	20.4661	78	65
20.3877	20.4661	81	65
20.5444	20.6576	37	54
20.5444	20.6576	49	64
20.5444	20.6576	68	59
20.5444	20.6576	76	59
20.5444	20.6576	80	71
20.8673	20.9893	39	52
20.8673	20.9893	51	61
20.8673	20.9893	66	55
20.8673	20.9893	71	55
20.8673	20.9893	78	65
21.1113	21.9009	40	54
21.152	21.828	47	54
21.1927	21.9009	56	64
21.1927	21.9009	66	61
21.1927	21.828	71	73
21.1927	21.7553	78	73
21.5086	21.828	64	56
21.5086	21.828	76	66
21.7553	21.9009	78	65
21.828	21.9566	47	50
21.828	21.9566	54	50
21.828	21.9566	57	50
21.828	21.9566	59	59
21.828	21.9566	64	61
21.828	21.9566	71	73
21.828	21.9566	76	73
22.171	22.3008	63	53
22.171	22.3008	75	62
22.5171	22.8534	52	50
22.5171	22.8534	56	50
22.5171	22.8534	59	59
22.5171	22.8534	64	57
22.5171	22.8534	71	57
22.5171	22.8534	76	68
23.7085	23.899	52	52
23.7085	24.5983	56	56
23.7085	24.5983	60	65
23.7085	24.5983	68	65
23.7085	24.5983	72	77
23.899	25.2853	45	63
23.899	25.2012	52	71
23.899	24.5983	57	77
23.899	24.4038	61	65
23.899	24.5983	69	65
23.899	24.4038	73	77
24.2458	24.5983	59	59
24.2458	24.562	63	52
24.2458	24.5983	71	52
24.2458	24.562	75	61
24.4038	24.5983	61	61
24.4038	24.5983	64	53
24.4038	24.5983	73	53
24.4038	24.5983	76	63
24.562	24.6398	63	62
24.562	24.6398	66	55
24.562	24.6398	75	55
24.562	24.6398	78	65
24.7174	24.7946	64	64
24.7174	24.7946	68	57
24.7174	24.7946	76	57
24.7174	24.7946	80	67
24.8714	24.948	66	65
24.8714	24.948	69	58
24.8714	24.948	78	58
24.8714	24.948	81	69
25.0272	25.1142	68	67
25.0272	25.1142	71	71
25.0272	25.1142	80	71
25.0272	25.1142	83	71
25.2012	25.3694	69	68
25.2012	25.3694	73	61
25.2012	25.3694	81	61
25.2012	25.3694	85	73
25.5375	25.6178	30	54
25.5375	25.6178	42	64
25.698	25.7783	32	50
25.698	25.7783	44	59
25.698	25.7783	71	55
25.698	25.7783	80	65
25.698	25.7783	83	65
25.8585	25.9708	33	54
25.8585	25.9708	45	64
25.8585	25.9708	69	59
25.8585	25.9708	78	59
25.8585	25.9708	81	71
26.1687	26.2949	34	52
26.1687	26.2949	46	61
26.1687	26.2949	68	55
26.1687	26.2949	76	55
26.1687	26.2949	80	65
26.5051	27.2408	35	54
26.5051	27.143	47	64
26.5051	27.2408	68	61
26.5051	27.2408	76	61
26.5051	27.0698	80	73
26.821	27.143	66	56
26.821	27.143	75	56
26.821	27.143	78	66
27.0698	27.2408	80	65
27.143	27.2705	47	50
27.143	27.2705	56	50
27.143	27.2705	59	59
27.143	27.2705	66	61
27.143	27.2705	75	61
27.143	27.2705	78	73
27.4831	27.6129	65	53
27.4831	27.6129	74	53
27.4831	27.6129	77	62
27.8291	28.1655	47	50
27.8291	28.1655	54	50
27.8291	28.1655	63	59
27.8291	28.1655	66	57
27.8291	28.1655	75	57
27.8291	28.1655	78	68
29.0063	30.4767	67	52
29.0063	30.4767	70	52
29.0063	30.4767	79	62
29.1754	30.4767	40	41
29.1754	30.4767	52	49
29.1754	29.8468	68	52
29.1754	29.6841	71	52
29.1754	30.1628	80	62
29.5214	30.4767	69	48
29.5214	29.8468	73	48
29.5214	30.3205	81	57
29.6841	30.4767	71	49
29.6841	30.0048	75	49
29.6841	30.4767	83	58
29.8468	30.4767	56	34
29.8468	30.4767	59	34
29.8468	30.4767	64	34
29.8468	30.4767	68	41
29.8468	30.4767	73	51
29.8468	30.1628	76	51
29.8468	30.4767	85	60
30.0048	30.4767	75	51
30.0048	30.3205	78	51
30.0048	30.4767	87	61
30.1628	30.4767	76	52
30.1628	30.4767	80	52
30.1628	30.4767	88	62
30.3205	30.4767	78	53
30.3205	30.4767	81	53
30.3205	30.4767	90	63
30.4767	31.7777	39	41
30.4767	31.7777	51	49
30.4767	31.1185	80	55
30.4767	31.7777	84	55
30.4767	31.7777	92	65
30.9503	31.0407	78	50
30.9503	31.0407	81	50
30.9503	31.0407	90	59
31.0407	31.4474	78	45
31.0407	31.7777	81	45
31.0407	31.7777	90	53
31.1185	31.7777	56	35
31.1185	31.7777	60	35
31.1185	31.7777	66	35
31.1185	31.7777	68	42
31.1185	31.7777	76	52
31.1185	31.7777	80	52
31.1185	31.7777	88	62
31.4474	31.7777	75	52
31.4474	31.7777	78	52
31.4474	31.7777	87	62
31.7777	33.0889	37	41
31.7777	33.0889	49	49
31.7777	32.432	76	49
31.7777	33.0589	80	49
31.7777	33.0589	88	58
32.1135	33.0889	72	47
32.1135	32.7454	75	47
32.1135	33.0889	84	56
32.432	33.0889	56	36
32.432	33.0889	61	36
32.432	33.0889	64	36
32.432	33.0889	68	43
32.432	33.0889	73	49
32.432	33.0589	76	49
32.432	33.0889	85	58
32.7454	33.0889	75	51
32.7454	33.0889	78	51
32.7454	33.0889	87	60
33.0589	34.3431	36	40
33.0589	34.3431	48	48
33.0589	34.3431	76	52
33.0589	33.6858	80	52
33.0589	34.3023	88	62
33.3724	34.3431	78	53
33.3724	34.0148	81	53
33.3724	34.3431	90	63
33.6858	34.3431	57	37
33.6858	34.3431	60	37
33.6858	34.3431	64	37
33.6858	34.3431	69	44
33.6858	34.2615	80	55
33.6858	34.3431	83	55
33.6858	34.3431	92	65
34.0148	34.3431	81	56
34.0148	34.3431	84	56
34.0148	34.3431	93	67
34.2615	34.8325	80	65
34.3023	34.8325	88	68
34.3431	35.6115	35	41
34.3431	35.6115	47	49
34.3431	35.6304	95	72
34.8325	35.6304	76	53
34.8325	35.2879	80	53
34.8325	35.6304	88	63
34.9792	35.6304	59	36
34.9792	35.6304	64	36
34.9792	35.6304	68	36
34.9792	35.6304	71	43
34.9792	35.6304	78	55
34.9792	35.6115	81	55
34.9792	35.6304	90	65
35.2879	35.6304	80	57
35.2879	35.6304	83	57
35.2879	35.6304	92	68
35.6115	36.8876	35	40
35.6115	36.8876	47	48
35.6115	36.8876	81	60
35.6115	36.2395	85	60
35.6115	36.8876	93	71
36.0969	36.8876	71	53
36.0969	36.5506	75	53
36.0969	36.8876	83	63
36.2395	36.8876	59	37
36.2395	36.8876	66	37
36.2395	36.8876	69	44
36.2395	36.8876	73	55
36.2395	36.8876	76	55
36.2395	36.8876	85	65
36.5506	36.8876	75	57
36.5506	36.8876	78	57
36.5506	36.8876	87	68
36.8876	37.6071	52	45
36.8876	37.4548	78	62
36.8876	37.4548	81	62
36.8876	37.4548	90	73
37.2081	37.6071	59	33
37.2081	37.6071	64	33
37.2081	37.6071	68	39
37.2081	37.537	76	56
37.2081	37.537	80	56
37.2081	37.537	88	66
37.4548	37.6071	78	51
37.4548	37.6071	81	51
37.4548	37.6071	90	60
37.537	37.6584	47	46
37.537	37.6584	76	56
37.537	37.6584	80	56
37.537	37.6584	88	67
37.8607	37.9915	57	34
37.8607	37.9915	66	34
37.8607	37.9915	71	40
37.8607	37.9915	75	52
37.8607	37.9915	78	52
37.8607	37.9915	87	62
38.2097	38.5302	40	47
38.2097	38.5302	76	56
38.2097	38.5302	80	56
38.2097	38.5302	88	66
38.6947	39.0654	56	49
38.7769	39.0654	64	52
38.8591	39.0654	71	55
39.3174	39.4914	40	67
39.3174	39.4914	47	67
39.3174	39.4914	56	80
39.3174	39.4914	59	80
39.4914	39.9085	40	71
39.4914	39.9085	47	71
39.4914	39.9085	56	72
39.4914	39.9085	59	86
39.8403	39.9985	57	61
39.8403	39.9985	61	73
39.9985	40.0763	59	65
39.9985	40.0763	63	76
40.1538	40.2303	61	67
40.1538	40.2303	64	79
40.3063	40.3818	63	67
40.3063	40.3818	66	79
40.4568	40.5313	64	70
40.4568	40.5313	68	82
40.6073	40.6895	66	72
40.6073	40.6895	69	86
40.7717	40.9499	68	75
40.7717	40.9499	71	89
40.9499	41.0312	73	66
41.0312	42.0711	75	66
41.1126	42.0711	76	67
41.1903	42.0711	78	68
41.2681	41.7511	66	67
41.2681	42.0711	69	79
41.2681	42.0711	80	69
41.3458	42.0711	81	69
41.4236	42.0711	64	72
41.4236	42.0711	68	86
41.4236	42.0711	83	70
41.5014	42.0711	85	71
41.5791	42.0711	87	72
41.6651	42.0711	88	72
41.7511	42.0671	59	63
41.7511	42.0671	66	74
41.7511	42.0711	90	73
41.8301	42.0711	92	74
41.9091	42.0711	93	75
41.9881	42.0711	94	75
42.0671	43.0588	59	70
42.0671	42.6244	66	82
42.0671	42.1467	95	75
42.1467	42.306	97	69
42.2263	42.3856	95	72
42.306	42.4652	97	69
42.3856	42.7041	56	65
42.3856	42.7041	64	76
42.3856	42.5448	95	72
42.4652	42.6244	97	68
42.5448	42.7041	95	72
42.6244	43.0588	66	75
42.6244	42.7872	97	69
42.7041	43.0588	56	71
42.7041	43.0588	64	85
42.7041	42.8704	95	72
42.7872	42.9535	97	70
42.8704	43.0367	95	72
42.9535	43.4188	97	70
43.0367	43.4188	54	61
43.0367	43.4188	63	73
43.0367	43.2578	95	72
43.1472	43.4188	94	70
43.2578	43.4188	95	71
43.3407	43.5365	88	73
43.3545	43.5365	92	76
43.3683	43.7047	56	65
43.3683	43.7047	64	77
43.3683	43.5365	100	80
44.5455	44.7195	52	67
44.5455	45.1366	56	80
44.5455	45.1366	60	80
44.7195	45.1366	45	71
44.7195	45.1366	52	71
44.7195	45.1366	57	72
44.7195	45.1366	61	86
45.0684	45.2289	59	61
45.0684	45.2289	63	73
45.2289	45.3091	61	65
45.2289	45.3091	64	76
45.3889	45.4665	63	67
45.3889	45.4665	66	79
45.5435	45.6197	64	67
45.5435	45.6197	68	79
45.6953	45.7702	66	70
45.6953	45.7702	69	82
45.8466	45.9288	68	72
45.8466	45.9288	71	86
46.0111	46.1892	69	75
46.0111	46.1892	73	89
46.1892	46.2676	75	66
46.2676	47.3081	76	66
46.346	47.3081	78	67
46.4243	47.3081	80	68
46.5027	46.9882	68	67
46.5027	47.3081	71	79
46.5027	47.3081	81	69
46.5811	47.3081	83	69
46.6595	47.3081	57	72
46.6595	47.3081	66	72
46.6595	47.3081	69	86
46.6595	47.3081	85	70
46.7378	47.3081	87	71
46.8162	47.3081	88	72
46.9022	47.3081	90	72
46.9882	47.3081	58	63
46.9882	47.3042	64	63
46.9882	47.3042	68	74
46.9882	47.3081	92	73
47.0672	47.3081	94	74
47.1462	47.3081	95	75
47.2252	47.3081	96	75
47.3042	48.2806	59	70
47.3042	47.8571	64	70
47.3042	47.8571	68	82
47.3042	47.3832	97	75
47.3832	47.5412	99	69
47.4622	47.6201	97	72
47.5412	47.6991	99	69
47.6201	47.9361	63	65
47.6201	47.9361	66	76
47.6201	47.7781	97	72
47.6991	47.8571	99	68
47.7781	47.9361	97	72
47.8571	48.2806	64	75
47.8571	48.2806	68	75
47.8571	48.0164	99	69
47.9361	48.2806	63	71
47.9361	48.2806	66	85
47.9361	48.0966	97	72
48.0164	48.1769	99	70
48.0966	48.2571	97	72
48.1769	48.2806	99	70
48.2571	48.6597	62	61
48.2571	48.6597	65	73
48.2571	48.4332	97	72
48.3451	48.6092	96	70
48.4332	48.6597	97	70
48.5212	48.6597	102	71
48.6092	48.9455	63	65
48.6092	48.9455	66	77
48.6092	48.8054	90	73
48.6092	48.7774	96	80
49.7864	51.2773	70	46
49.7864	51.2773	79	55
49.9555	51.2773	40	36
49.9555	51.2773	52	44
49.9555	51.2773	71	46
49.9555	50.9523	80	55
50.3015	51.2773	73	43
50.3015	51.1149	81	51
50.4642	51.2773	56	28
50.4642	51.2773	64	34
50.4642	51.2773	75	44
50.4642	51.2773	83	52
50.6269	51.2773	59	30
50.6269	51.2773	68	36
50.6269	51.2773	76	45
50.6269	51.2773	85	54
50.7896	51.2773	78	45
50.7896	51.2773	87	54
50.9523	51.2773	80	46
50.9523	51.2773	88	55
51.1149	51.2773	81	47
51.1149	51.2773	90	56
51.2773	52.5501	39	36
51.2773	52.5501	51	44
51.2773	52.5501	84	49
51.2773	51.5174	92	58
51.4396	52.5501	81	47
51.4396	51.5952	90	47
51.5174	52.5501	92	47
51.5952	51.8286	90	53
51.7508	52.5501	56	28
51.7508	52.5501	66	34
51.7508	52.3879	80	52
51.7508	51.9064	88	52
51.8286	52.5501	90	52
51.9064	52.5501	60	31
51.9064	52.5501	68	37
51.9064	52.4682	88	55
52.0669	52.5501	78	51
52.0669	52.2274	87	51
52.1472	52.5501	86	51
52.2274	52.3879	87	55
52.3879	52.6382	80	49
52.3879	52.5501	87	49
52.4682	52.5501	88	49
52.5501	53.8942	37	36
52.5501	53.8942	49	44
52.5501	53.7024	88	52
52.7262	53.8942	75	47
52.7262	52.8907	84	47
52.8084	53.8942	83	47
52.8907	53.1374	84	50
53.0551	53.8942	56	28
53.0551	53.8942	64	34
53.0551	53.8942	76	48
53.0551	53.2196	85	48
53.1374	53.8942	84	48
53.2196	53.8942	61	32
53.2196	53.8942	68	38
53.2196	53.461	85	52
53.3806	53.8942	78	51
53.3806	53.5415	87	51
53.461	53.8942	85	51
53.5415	53.7829	87	54
53.7024	53.9438	80	50
53.7024	53.8634	88	50
53.7829	53.8942	87	50
53.8634	55.165	36	36
53.8634	55.165	48	43
53.8634	54.1048	88	55
54.0243	55.165	81	53
54.0243	54.1852	90	53
54.1048	55.1239	88	53
54.1852	54.4266	90	56
54.3461	55.165	57	28
54.3461	55.165	64	34
54.3461	55.165	83	53
54.3461	54.5071	92	53
54.4266	55.165	90	53
54.5071	55.165	60	33
54.5071	55.165	69	39
54.5071	54.7538	92	58
54.6716	55.165	84	52
54.6716	54.836	93	52
54.7538	55.165	92	52
54.836	55.165	93	60
55.0827	55.7468	80	58
55.1239	56.1456	88	61
55.165	56.532	35	36
55.165	56.532	47	44
55.165	56.3897	95	64
55.4073	56.532	70	41
55.4645	56.532	71	41
55.5198	56.532	73	42
55.5729	56.532	75	43
55.6241	56.532	76	44
55.6735	56.532	56	37
55.6735	56.1456	64	45
55.6735	56.532	78	45
55.7468	56.532	80	45
55.8202	56.532	59	39
55.8202	56.471	66	45
55.8202	56.532	81	45
55.9016	56.532	83	45
55.9829	56.532	85	46
56.0643	56.532	87	47
56.1456	56.532	64	40
56.1456	56.532	68	48
56.1456	56.532	88	47
56.227	56.532	90	48
56.3083	56.532	92	49
56.3897	56.532	95	52
56.471	57.8223	66	42
56.471	57.8223	69	50
56.471	57.5431	93	42
56.7685	57.8223	70	42
56.8154	57.8223	71	43
56.8609	57.8223	73	44
56.9051	57.8223	75	45
56.948	57.8223	76	45
56.9897	57.8223	78	45
57.0101	57.8223	51	37
57.0101	57.8223	59	45
57.0386	57.8223	80	45
57.0956	57.8223	81	45
57.1527	57.8223	47	35
57.1527	57.7941	52	39
57.1527	57.8223	61	45
57.1527	57.8223	83	46
57.2178	57.8223	85	47
57.2828	57.8223	87	48
57.3479	57.8223	88	48
57.413	57.8223	90	49
57.478	57.8223	54	40
57.478	57.8223	63	48
57.478	57.8223	92	50
57.5431	57.8223	93	50
57.6122	57.8223	95	50
57.6826	57.8223	97	51
57.753	57.8223	99	51
57.7941	58.5851	52	29
57.8088	58.5851	56	29
57.8223	58.5851	59	35
57.8223	58.5851	66	41
57.8223	58.5851	90	50
57.8223	58.5088	95	50
57.8223	58.4208	102	59
58.1567	58.5088	64	36
58.1567	58.5088	88	42
58.1567	58.5088	100	50
58.4208	58.5851	102	50
58.4795	58.6849	47	29
58.4942	58.6849	54	29
58.5088	58.6849	57	35
58.5088	58.6849	64	42
58.5088	58.6849	88	46
58.5088	58.6849	95	46
58.5088	58.6849	100	55
58.861	59.0451	63	34
58.861	59.0451	87	44
58.861	59.0451	99	52
59.2293	59.5637	52	30
59.2293	59.5637	56	36
59.2293	59.5637	64	43
59.2293	59.5637	88	46
59.2293	59.5637	95	46
59.2293	59.5637	100	55
59.8927	61.7026	80	55
60.5246	62.045	40	44
60.7088	61.2269	66	45
60.7088	62.0152	78	53
60.8929	61.5447	54	30
60.8929	61.5447	61	35
61.0615	62.045	70	52
61.2269	62.045	58	30
61.2269	62.0152	66	35
61.3861	62.045	73	53
61.5447	62.045	54	31
61.5447	62.045	61	36
61.7026	62.045	68	45
61.7026	62.045	80	54
61.8593	63.2655	39	45
62.0152	62.4782	66	48
62.0152	63.2655	78	56
62.1703	62.7829	54	29
62.1703	62.7829	63	34
62.3247	63.2655	68	48
62.3247	63.2655	80	56
62.4782	63.2655	59	29
62.4782	63.2655	66	35
62.6309	63.2655	70	51
62.6309	63.2655	82	61
62.7829	63.2655	54	30
62.7829	63.2655	63	36
62.9339	63.2655	71	56
62.9339	63.2655	83	66
63.0983	64.5111	37	56
63.2527	64.5111	75	58
63.2527	64.5111	87	69
63.407	64.0267	54	33
63.407	64.0267	64	39
63.5613	64.5111	73	56
63.5613	64.4217	85	66
63.7156	64.5111	58	33
63.7156	64.5111	66	39
63.8699	64.5111	68	51
63.8699	64.5111	80	61
64.0267	64.5111	54	33
64.0267	64.5111	64	39
64.1859	64.5111	70	51
64.1859	64.5111	82	61
64.3452	65.6812	35	53
64.4217	64.5111	85	60
64.4983	65.1109	71	54
64.4983	65.1109	83	64
64.6514	65.264	54	30
64.6514	65.264	63	36
64.8046	65.6812	70	51
64.8046	65.6812	82	60
64.9577	65.6812	59	30
64.9577	65.6812	66	37
65.1109	65.6812	71	57
65.1109	65.6812	83	68
65.264	65.6812	54	32
65.264	65.6812	63	38
65.4235	65.6812	72	60
65.4235	65.6812	84	69
65.5524	66.2891	42	56
65.6812	65.9864	61	44
65.6812	65.9864	73	53
65.6812	65.9864	82	55
65.6812	65.9864	85	72
65.9092	65.9852	81	51
65.9092	65.9852	84	61
65.9852	66.1371	63	43
65.9852	66.1371	81	70
65.9852	66.1371	84	70
66.2131	66.2891	80	51
66.2131	66.2891	83	60
66.2891	66.4411	65	46
66.2891	66.4411	80	59
66.2891	66.4411	83	70
66.5171	66.5931	73	52
66.5171	66.5931	82	62
66.5931	66.7536	66	49
66.5931	66.7536	73	58
66.5931	66.7536	82	69
66.8338	67.522	49	49
66.8338	66.9141	71	51
66.8338	66.9141	80	61
66.9141	67.0661	65	50
66.9141	67.0661	71	57
66.9141	67.0661	80	68
67.1421	67.218	75	51
67.1421	67.218	83	60
67.218	67.37	68	44
67.218	67.37	75	57
67.218	67.37	83	68
67.446	67.522	66	50
67.446	67.522	75	59
67.522	67.674	66	55
67.522	67.674	71	52
67.522	67.674	75	65
67.7499	67.8259	68	51
67.7499	67.8259	77	61
67.8259	67.9822	61	46
67.8259	67.9822	68	56
67.8259	67.9822	77	67
68.0743	68.1663	71	48
68.0743	68.1663	80	57
68.1663	68.8084	54	48
68.1663	68.4848	61	48
68.1663	68.8084	71	52
68.1663	68.8084	80	62
68.3256	68.4848	70	44
68.3256	68.4848	78	52
68.4848	68.8084	61	32
68.4848	68.824	70	45
68.4848	68.824	78	53
68.6466	68.824	62	32
68.6466	68.824	68	45
68.6466	68.824	77	53
68.8084	69.5469	54	39
68.8084	69.1486	61	32
68.8084	69.5601	71	50
68.8084	69.5601	80	59
68.9785	69.1486	70	45
68.9785	69.1486	78	53
69.1486	69.5601	61	32
69.1486	69.5469	70	45
69.1486	69.5469	78	53
69.3262	69.5601	62	32
69.3262	69.5601	68	45
69.3262	69.5601	77	53
69.5469	70.2511	54	39
69.5469	70.0076	70	52
69.5469	70.0076	78	62
70.2511	70.6128	66	67
70.6128	70.9745	67	67
70.9745	71.624	68	70
71.1403	72.2819	60	50
71.2233	72.2819	42	48
71.3062	72.2819	56	52
71.3062	72.2819	63	50
71.472	72.2819	69	67
71.624	72.2751	68	69
71.797	72.2819	72	46
71.797	72.2819	81	50
71.9434	72.2819	75	46
71.9434	72.2819	80	46
72.2751	72.9164	68	69
72.4382	72.6013	61	50
72.5198	73.6118	40	46
72.6013	73.6118	56	50
72.6013	73.6118	64	50
72.7645	73.2366	73	62
72.9164	73.6118	68	66
73.088	73.6118	76	46
73.088	73.6118	85	50
73.2366	73.6118	73	45
73.2366	73.6118	80	45
73.518	73.6118	67	53
73.6118	74.2991	68	60
73.7313	74.2991	60	50
73.8508	74.3127	66	50
73.9684	74.3127	69	61
73.9684	74.3127	75	56
74.0807	74.3127	72	50
74.191	74.3127	78	50
74.2991	74.9679	60	52
74.2991	74.9679	63	52
74.2991	74.9679	68	65
74.2991	74.9679	87	56
74.4078	74.9679	84	49
74.5166	74.8428	90	49
74.6253	74.9679	66	62
74.6253	74.9679	99	56
74.7341	74.9679	92	50
74.8428	74.9679	90	50
74.9516	75.6363	61	52
74.9516	75.6126	64	66
74.9516	75.3608	88	56
75.0328	75.2779	92	47
75.1139	75.4442	100	47
75.1956	75.5283	99	47
75.2779	75.6363	63	62
75.2779	75.6363	92	57
75.3608	75.6363	88	50
75.4442	75.6363	100	50
75.5283	75.6363	99	50
75.6126	76.3799	60	52
75.6126	76.3378	64	62
75.6126	75.6965	93	59
75.6965	76.0491	88	52
75.7821	76.1457	100	52
75.8695	76.2512	99	52
75.9585	76.3799	66	62
75.9585	76.3799	94	59
76.0491	76.3673	88	53
76.1457	76.3799	100	53
76.2512	76.3799	99	53
76.3082	77.8023	59	55
76.3378	76.9221	64	55
76.3673	77.2743	68	69
76.3673	77.843	88	54
76.3673	77.843	95	65
76.7461	77.843	63	46
76.9221	77.2743	64	43
76.9221	77.843	66	51
77.0982	77.843	62	47
77.2743	77.6264	64	45
77.2743	77.843	68	53
77.4503	77.843	61	49
77.6264	77.977	64	46
77.6264	79.2519	69	55
77.8023	79.2519	56	51
77.8023	79.2519	59	51
77.977	78.3319	64	47
77.977	79.0638	71	56
78.1535	79.2519	55	44
78.1535	79.2519	58	52
78.3319	78.6939	64	49
78.3319	79.2519	72	58
78.5119	78.8779	54	54
78.6939	79.0638	64	51
78.6939	79.2519	73	60
78.8779	79.2519	47	47
78.8779	79.2519	54	47
78.8779	79.2519	57	56
79.0638	79.2519	64	52
79.0638	79.2519	71	52
79.0638	79.2519	75	62
79.2519	80.0316	52	49
79.2519	80.0316	56	58
79.4413	80.0316	66	51
79.4413	80.0316	71	55
79.4413	80.0316	78	68
79.6307	80.0316	59	52
79.8201	80.1989	64	50
79.8201	80.1989	76	59
80.0095	81.1259	47	44
80.0095	81.1259	54	53
80.1989	80.9766	64	56
80.1989	81.1096	76	66
80.3883	81.1259	57	50
80.5777	81.1259	63	51
80.5777	81.1259	75	60
80.8437	81.6683	40	47
80.9101	81.6683	56	56
80.9766	81.5286	64	55
81.0431	81.6683	71	55
81.1096	81.6683	76	65
81.9243	82.8355	79	56
82.0246	82.155	80	55
82.1005	82.2352	82	55
82.155	82.3129	80	59
82.2352	82.3886	82	55
82.3129	82.4633	80	59
82.3886	82.5374	82	54
82.4633	82.6111	80	59
82.5374	82.6848	82	60
82.6111	82.7578	80	63
82.6848	83.2548	82	68
82.7578	82.9238	80	59
82.8355	83.2548	79	60
82.9238	83.2548	80	63
83.0396	83.2548	92	68
83.2205	84.6767	40	49
83.2205	84.4965	78	59
83.385	84.6478	90	56
83.5495	84.1914	61	33
83.5495	84.6767	68	39
83.5495	84.6767	70	57
83.7181	84.6767	82	55
83.8833	84.6767	58	33
83.8833	84.6767	66	39
83.8833	84.6767	73	58
84.0377	84.6767	85	50
84.1914	84.6767	54	33
84.1914	84.6767	61	39
84.1914	84.6767	80	58
84.3445	84.6767	92	55
84.4965	85.8486	39	48
84.4965	85.8486	78	59
84.6478	85.8486	90	52
84.7987	85.3935	63	30
84.7987	85.8486	68	36
84.7987	85.8486	80	59
84.9484	85.8486	92	54
85.0975	85.8486	59	30
85.0975	85.8486	66	36
85.0975	85.8486	82	62
85.246	85.8486	94	57
85.3935	85.8486	54	30
85.3935	85.8486	63	36
85.3935	85.8486	83	66
85.5405	85.8486	95	59
85.6868	87.0625	37	56
85.6868	87.0498	87	69
85.8362	87.0625	99	63
85.9848	86.588	64	33
85.9848	87.0625	68	39
85.9848	87.0625	85	66
86.1334	87.0625	97	59
86.282	87.0625	58	33
86.282	87.0625	66	39
86.282	87.0625	80	61
86.4306	87.0625	92	56
86.588	87.0625	54	33
86.588	87.0625	64	39
86.588	87.0625	82	61
86.7423	87.0625	94	54
86.8966	88.1816	35	53
86.8966	87.509	83	64
87.0498	87.6649	87	59
87.0498	87.6649	95	59
87.2029	87.8268	63	30
87.2029	88.1816	68	36
87.2029	88.1816	82	60
87.3561	88.1816	90	56
87.3561	88.1816	94	56
87.509	88.1816	59	30
87.509	88.1816	66	37
87.509	88.1816	83	68
87.6649	88.1816	87	59
87.6649	88.1816	95	59
87.8268	88.1816	54	33
87.8268	88.1816	63	38
87.8268	88.1816	84	69
87.9947	88.1816	96	61
88.1816	88.5406	42	56
88.1816	88.298	85	53
88.298	88.5406	85	51
88.3561	88.5406	61	44
88.4138	88.5406	94	50
88.4138	88.5406	97	50
88.5291	88.6435	84	53
88.6435	88.8862	84	49
88.7007	88.8862	63	43
88.7574	88.8862	93	49
88.7574	88.8862	96	49
88.8707	88.9832	83	54
88.9832	89.2218	83	49
89.0394	89.2218	65	46
89.0951	89.2218	92	49
89.0951	89.2218	95	49
89.2066	89.3172	82	55
89.3172	89.5714	82	51
89.3724	89.5714	66	49
89.435	89.5714	90	51
89.435	89.5714	94	51
89.5569	89.9205	49	50
89.5569	89.6732	80	58
89.6732	89.9205	80	53
89.7314	89.9205	65	50
89.7896	89.9059	83	53
89.7896	89.9205	92	53
89.9059	90.0223	83	59
90.0223	90.2862	83	51
90.0805	90.2862	68	44
90.1386	90.2862	87	51
90.1386	90.2862	95	51
90.2545	90.3698	75	56
90.3698	90.6061	75	50
90.4275	90.6061	71	52
90.4854	90.6061	78	50
90.4854	90.6061	87	50
90.6017	90.7181	77	57
90.7181	90.967	77	51
90.777	90.967	61	46
90.8414	90.967	80	51
90.8414	90.967	89	51
90.967	91.1314	66	48
90.967	91.1314	80	52
90.967	91.1314	83	52
90.967	91.1314	92	62
91.1314	91.2548	78	44
91.1314	91.2548	82	44
91.1314	91.2548	90	52
91.2959	91.3772	82	45
91.2959	91.3772	85	45
91.2959	91.3772	90	53
91.4583	91.54	83	45
91.4583	91.54	86	45
91.4583	91.54	89	53
91.6223	91.7892	80	50
91.6223	91.7892	83	50
91.6223	91.7892	92	59
91.7892	91.9162	78	45
91.7892	91.9162	82	45
91.7892	91.9162	90	53
91.9585	92.0473	82	45
91.9585	92.0473	85	45
91.9585	92.0473	90	53
92.1362	92.2199	83	45
92.1362	92.2199	86	45
92.1362	92.2199	89	53
92.306	92.8567	78	52
92.34	92.8567	82	52
92.3739	92.8567	85	52
92.4079	92.8567	90	62
93.094	93.4557	66	67
93.4557	93.8162	67	67
93.8162	95.1661	42	50
93.8162	94.1534	68	70
93.9012	94.4917	60	39
93.9857	94.3987	63	40
94.0699	94.2197	69	40
94.1534	94.4917	68	41
94.2197	94.3987	69	42
94.2848	95.1661	70	43
94.3498	95.1661	71	43
94.3987	95.1661	63	48
94.3987	95.1661	69	57
94.4179	95.1661	72	44
94.4917	95.1661	60	51
94.4917	95.1661	68	61
94.4917	95.1661	73	45
94.5597	95.1661	74	45
94.6281	95.1661	75	46
94.6961	95.1661	76	46
94.7635	95.1661	77	47
94.8305	95.1661	78	48
94.897	95.1661	79	48
94.9631	95.1593	80	48
95.0288	95.1661	83	49
95.0941	95.1661	81	49
95.1593	96.4868	40	52
95.1593	95.4871	80	70
95.2409	95.7343	73	48
95.3226	96.4868	76	48
95.4049	95.9376	85	49
95.4871	95.6251	80	49
95.5698	96.4868	79	50
95.6251	96.4868	80	50
95.6804	96.4868	81	51
95.7343	96.4868	64	48
95.7343	96.4868	73	57
95.7659	96.4868	82	51
95.829	96.4868	61	51
95.829	96.4868	68	61
95.829	96.4868	83	52
95.8832	96.4868	84	52
95.9376	96.4868	85	53
95.992	96.4868	86	53
96.0463	96.4868	87	53
96.1007	96.4868	88	54
96.1551	96.4868	89	54
96.2104	96.4868	90	55
96.2657	96.4868	91	55
96.321	96.4868	92	55
96.3762	96.4868	95	56
96.4315	96.5144	93	56
96.4868	97.1636	39	52
96.4868	96.8193	92	56
96.5697	96.9038	84	47
96.6526	96.9871	90	47
96.7356	97.1636	93	47
96.8193	97.1636	66	55
96.8193	97.1636	75	61
96.8193	97.15	92	57
96.9038	97.1636	84	50
96.9871	97.1636	90	50
97.0692	97.1636	99	50
97.15	97.8188	60	52
97.15	97.8188	68	65
97.15	97.4763	92	59
97.2316	97.5578	84	52
97.3131	97.6394	90	52
97.3947	97.8188	93	52
97.4763	97.8188	56	52
97.4763	97.8188	66	62
97.4763	97.8025	92	59
97.5578	97.8188	84	53
97.6394	97.8188	90	53
97.721	97.8188	99	53
97.8025	98.4872	49	52
97.8025	98.4635	64	66
97.8025	97.9649	92	56
97.8837	98.2117	85	47
97.9649	98.1288	92	47
98.0466	98.4872	93	47
98.1288	98.4872	63	62
98.1288	98.2952	92	57
98.2117	98.4872	85	50
98.2952	98.4872	92	50
98.3792	98.4872	100	50
98.4635	99.2309	48	52
98.4635	99.2309	64	62
98.4635	98.5474	94	59
98.5474	98.9	88	52
98.633	98.8094	94	52
98.7205	99.2182	95	52
98.8094	99.2309	66	62
98.8094	98.9966	94	59
98.9	99.2309	88	53
98.9966	99.2309	94	53
99.1022	99.2309	100	53
99.2182	99.6851	47	55
99.2182	99.6851	68	69
99.2182	99.4076	95	56
99.3129	99.6851	88	46
99.4076	99.6851	95	47
99.5023	99.6851	100	47
99.597	99.9492	75	57
99.597	99.9492	78	57
99.597	99.7731	90	57
99.6851	99.7731	88	48
99.7731	99.9492	90	49
99.8611	99.9492	100	50
99.9492	100.301	74	60
99.9492	100.301	80	60
99.9492	100.301	92	59
100.037	100.125	88	50
100.125	100.213	93	50
100.213	100.301	100	51
100.301	100.645	73	62
100.301	100.645	76	62
100.301	100.645	81	62
100.301	100.477	93	59
100.389	100.477	88	52
100.477	100.696	93	52
100.589	100.696	100	52
100.645	101.004	71	58
100.663	101.004	76	61
100.681	101.004	80	66
100.696	101.004	83	63
100.696	100.872	95	62
100.784	100.872	88	53
100.872	101.048	95	54
100.96	101.048	99	55
101.004	101.361	70	63
101.019	101.361	76	65
101.033	101.361	79	68
101.048	101.361	84	70
101.048	101.227	96	62
101.137	101.227	88	56
101.227	101.407	96	56
101.316	101.407	100	56
101.361	101.727	70	63
101.377	101.727	76	65
101.392	101.727	79	67
101.407	101.727	85	69
101.407	101.589	97	63
101.497	101.589	88	55
101.589	101.773	97	55
101.681	101.773	100	55
101.727	102.147	71	64
101.742	102.147	78	66
101.757	102.147	81	69
101.773	102.147	87	71
101.773	101.959	99	61
101.865	101.959	90	55
101.959	102.147	99	55
102.052	102.147	102	55
102.147	102.867	76	58
102.147	102.503	80	69
102.147	102.236	95	67
102.236	102.325	90	54
102.325	102.414	95	54
102.414	102.503	102	54
102.503	102.867	83	63
102.503	102.592	95	66
102.592	102.681	88	55
102.681	102.77	95	55
102.77	102.867	100	55
102.867	103.599	71	57
102.867	103.599	78	57
102.867	103.044	81	68
102.867	102.956	95	66
102.956	103.044	88	56
103.044	103.133	95	56
103.133	103.222	100	56
103.222	103.4	83	60
103.222	103.311	95	67
103.311	103.4	87	57
103.4	103.488	95	57
103.488	103.599	99	57
103.599	104.321	76	57
103.599	103.955	80	68
103.599	103.688	95	67
103.688	103.777	90	54
103.777	103.866	95	54
103.866	103.955	102	54
103.955	104.321	83	60
103.955	104.044	95	66
104.044	104.133	88	55
104.133	104.222	95	55
104.222	104.321	100	55
104.321	105.05	71	56
104.321	105.05	78	56
104.321	104.498	81	67
104.321	104.41	95	66
104.41	104.498	88	56
104.498	104.587	95	56
104.587	104.676	100	56
104.676	104.854	83	61
104.676	104.765	95	67
104.765	104.854	87	57
104.854	104.942	95	57
104.942	105.05	99	57
105.05	105.754	76	55
105.05	105.223	80	65
105.05	105.223	90	65
105.05	105.136	95	63
105.136	105.223	102	51
105.223	105.311	95	50
105.311	105.399	102	49
105.399	105.576	83	57
105.399	105.576	88	63
105.399	105.487	95	60
105.487	105.576	100	50
105.576	105.665	95	49
105.665	105.754	100	49
105.754	106.506	71	51
105.754	106.506	78	51
105.754	105.935	81	60
105.754	105.935	88	61
105.754	105.844	95	58
105.844	105.935	100	49
105.935	106.025	95	49
106.025	106.117	100	49
106.117	106.301	83	52
106.117	106.301	87	59
106.117	106.209	95	57
106.209	106.301	99	49
106.301	106.395	95	48
106.395	106.506	99	48
106.506	107.256	76	48
106.506	106.69	80	57
106.506	106.69	90	58
106.506	106.598	95	57
106.598	106.69	102	45
106.69	106.783	95	44
106.783	106.876	102	44
106.876	107.065	83	49
106.876	107.065	88	57
106.876	106.97	95	54
106.97	107.065	100	44
107.065	107.16	95	44
107.16	107.256	100	43
107.256	110.745	71	44
107.256	110.577	78	44
107.256	107.451	81	53
107.256	107.451	88	54
107.256	107.353	95	52
107.353	107.451	100	44
107.451	107.55	95	43
107.55	107.651	100	42
107.651	107.853	83	47
107.651	107.853	87	53
107.651	107.752	95	51
107.752	107.853	99	43
107.853	107.955	95	42
107.955	111.57	99	38
108.058	110.41	76	49
108.16	110.074	80	49
108.26	109.377	88	49
108.359	108.648	95	49
108.457	111.57	102	49
108.553	111.57	100	49
108.648	108.927	95	49
108.742	111.57	94	49
108.835	111.57	97	50
108.927	111.57	95	50
109.018	109.288	92	50
109.108	111.57	91	50
109.198	111.57	93	51
109.288	111.57	92	51
109.377	109.642	88	51
109.466	111.57	87	51
109.554	111.57	90	52
109.642	111.57	88	52
109.73	109.989	83	52
109.816	111.57	82	53
109.903	111.57	85	53
109.989	111.57	83	53
110.074	110.326	80	53
110.158	111.57	79	54
110.242	111.57	81	54
110.326	111.57	80	54
110.41	110.661	76	54
110.493	111.57	75	55
110.577	111.57	78	55
110.661	111.57	76	55
110.745	110.993	71	55
110.829	111.57	70	56
110.912	111.57	73	56
110.993	111.57	71	56
111.073	111.317	68	57
111.154	111.57	67	57
111.235	111.57	69	57
111.317	111.57	68	58
111.398	111.57	64	59
111.48	111.57	63	60
111.563	111.662	66	60
111.646	111.745	64	60
111.729	111.829	59	60
111.812	111.913	58	61
111.896	111.996	61	61
111.98	112.081	59	61
112.064	112.165	56	62
112.149	112.251	55	62
112.233	112.319	57	62
112.319	112.404	56	63
112.404	112.49	52	66
112.49	112.577	51	64
112.577	112.663	54	62
112.663	112.75	52	60
112.75	112.838	47	58
112.838	112.927	46	56
112.927	113.017	49	54
113.017	113.108	47	52
113.108	113.207	44	50
113.207	113.308	39	49
113.308	115.668	40	44
113.417	115.562	47	46
113.52	115.456	52	49
113.617	115.354	56	51
113.712	115.255	59	49
113.803	115.158	64	50
113.894	115.063	68	51
113.984	114.969	71	52
114.074	114.878	76	53
114.165	114.787	80	54
114.254	114.696	83	56
114.342	114.607	88	57
114.429	115.668	95	58
114.517	115.668	92	59
114.607	115.668	88	59
114.696	115.668	83	58
114.787	115.668	80	57
114.878	115.668	76	56
114.969	115.668	71	55
115.063	115.668	68	54
115.158	115.668	64	52
115.255	115.668	59	51
115.354	115.668	56	42
115.456	115.668	52	42
115.562	115.668	47	42
115.668	115.752	40	72
115.835	115.919	42	43
115.999	116.078	44	43
116.158	116.251	45	43
116.251	116.332	49	44
116.332	116.413	47	47
116.494	116.575	46	40
116.656	116.737	47	40
116.823	116.91	50	40
116.996	117.141	50	48
117.383	118.266	48	47
117.825	118.708	52	29
117.825	118.708	56	29
117.825	118.708	62	29
117.825	118.708	64	36
118.266	118.708	47	43
119.05	119.139	40	43
119.221	119.302	42	43
119.384	119.477	44	43
119.477	119.558	47	44
119.558	119.639	45	50
119.72	119.801	44	40
119.881	119.962	45	40
120.049	120.136	48	40
120.222	120.363	47	48
120.598	121.468	45	47
121.016	122.264	52	29
121.016	122.264	57	29
121.016	122.264	60	29
121.016	122.264	64	36
121.468	122.264	45	43
122.264	122.357	35	54
122.451	122.544	36	44
122.632	122.72	39	44
122.808	122.91	40	45
122.91	122.997	45	46
122.997	123.083	43	54
123.169	123.255	42	43
123.342	123.428	43	43
123.52	123.611	45	43
123.703	123.852	43	51
124.1	125.057	42	49
124.541	125.958	54	29
124.541	125.958	58	29
124.541	125.958	64	29
124.541	125.958	66	36
125.057	125.958	42	46
125.958	126.065	35	49
126.173	126.281	37	43
126.377	126.473	39	43
126.569	126.676	40	43
126.676	126.772	43	44
126.772	126.873	42	50
126.973	127.074	40	40
127.174	127.275	42	40
127.386	127.497	47	40
127.695	127.948	57	28
127.695	127.948	63	30
127.695	127.948	71	36
129.722	130.375	40	43
129.722	130.375	52	43
129.722	130.375	76	57
129.722	130.375	88	65
129.883	130.375	78	49
129.883	130.375	90	56
130.039	130.375	62	33
130.039	130.375	64	33
130.039	130.375	80	49
130.039	130.375	92	56
130.19	130.375	81	49
130.19	130.375	93	56
130.283	130.375	85	57
130.364	130.986	56	40
130.364	130.666	83	54
130.364	130.666	95	62
130.515	130.986	82	46
130.515	130.986	94	52
130.666	130.986	62	32
130.666	130.986	64	32
130.666	130.986	83	46
130.666	130.986	95	52
130.823	130.986	86	46
130.823	130.986	98	52
130.986	131.163	52	43
130.986	131.163	86	55
130.986	131.163	98	63
131.339	131.726	62	34
131.339	131.726	64	34
131.339	132.332	85	59
131.339	132.332	97	67
131.687	132.332	56	43
132.009	132.332	62	36
132.009	132.332	64	36
132.009	132.893	83	49
132.009	132.985	95	56
132.332	132.985	45	43
132.493	132.985	76	49
132.493	132.985	88	56
132.649	132.985	60	33
132.649	132.985	64	33
132.649	132.985	78	49
132.649	132.985	90	56
132.8	132.985	80	49
132.8	132.985	92	56
132.893	132.985	83	57
132.974	133.597	57	40
132.974	133.276	81	54
132.974	133.276	93	62
133.125	133.597	80	46
133.125	133.597	92	52
133.276	133.597	60	32
133.276	133.597	64	32
133.276	133.597	81	46
133.276	133.597	93	52
133.433	133.597	84	46
133.433	133.597	96	52
133.597	133.774	52	43
133.597	133.774	83	55
133.597	133.774	95	63
133.952	134.336	60	34
133.952	134.336	64	34
133.952	134.623	81	59
133.952	134.623	93	67
134.297	134.952	57	43
134.623	134.952	60	36
134.623	134.952	64	36
134.623	134.952	81	49
134.623	134.952	93	56
134.948	135.601	47	43
134.948	135.601	71	57
134.948	135.601	83	65
135.109	135.601	72	49
135.109	135.601	84	56
135.265	135.601	59	33
135.265	135.601	64	33
135.265	135.601	75	49
135.265	135.601	87	56
135.416	135.601	76	49
135.416	135.601	88	56
135.509	135.601	81	57
135.59	136.212	55	40
135.59	135.892	79	54
135.59	135.892	91	62
135.741	136.212	78	46
135.741	136.212	90	52
135.892	136.212	59	32
135.892	136.212	64	32
135.892	136.212	79	46
135.892	136.212	91	52
136.049	136.212	81	46
136.049	136.212	93	52
136.212	136.393	49	43
136.212	136.393	79	55
136.212	136.393	91	63
136.574	136.962	58	34
136.574	136.962	64	34
136.574	137.248	78	59
136.574	137.248	90	67
136.922	137.577	48	43
137.248	137.577	58	36
137.248	137.577	64	36
137.248	137.577	78	49
137.248	137.577	90	56
137.573	138.204	47	43
137.573	138.204	71	57
137.573	138.204	83	65
137.734	138.204	72	49
137.734	138.204	84	56
137.89	138.204	59	33
137.89	138.204	63	33
137.89	138.204	75	49
137.89	138.204	87	56
138.041	138.204	76	49
138.041	138.204	88	56
138.192	138.848	57	40
138.192	138.66	78	54
138.192	138.66	90	62
138.347	138.837	76	39
138.347	138.837	88	52
138.501	138.848	59	32
138.501	138.848	63	32
138.501	138.848	79	51
138.501	138.848	91	60
138.66	138.848	78	47
138.66	138.848	90	56
138.837	139.503	52	33
138.837	139.503	55	34
138.837	139.468	64	40
138.837	139.468	76	54
138.837	139.468	88	64
138.991	139.503	75	46
138.991	139.503	87	55
139.146	139.503	59	32
139.146	139.503	63	32
139.146	139.503	69	32
139.146	139.503	79	51
139.146	139.503	91	60
139.305	139.503	78	46
139.305	139.503	90	55
139.468	139.632	64	32
139.468	139.632	67	32
139.468	139.55	76	50
139.468	139.55	88	59
140.041	140.122	64	57
140.122	140.283	40	43
140.122	140.203	64	65
140.283	140.364	66	56
140.439	140.59	56	33
140.439	140.59	62	33
140.439	140.515	68	56
140.59	140.683	69	56
140.683	140.764	73	57
140.764	140.919	52	40
140.764	140.842	71	62
140.919	140.996	70	52
141.074	141.23	56	32
141.074	141.23	62	32
141.074	141.151	71	52
141.23	141.308	74	52
141.387	141.55	74	65
141.387	141.469	76	65
141.55	141.632	78	56
141.708	142.342	62	48
141.708	142.342	64	48
141.708	142.342	68	48
141.708	142.583	73	58
141.708	142.07	80	56
141.859	142.07	81	56
141.952	142.07	85	57
142.033	142.11	83	66
142.187	142.583	82	58
142.342	142.665	62	44
142.342	142.665	64	44
142.342	142.665	68	44
142.342	142.665	71	50
142.342	142.583	83	57
142.501	142.583	88	57
142.665	142.825	45	43
142.825	142.906	64	56
142.981	143.133	57	33
142.981	143.133	60	33
142.981	143.057	66	56
143.133	143.226	68	56
143.226	143.306	71	57
143.306	143.461	52	40
143.306	143.384	69	62
143.461	143.538	68	52
143.616	143.772	57	32
143.616	143.772	60	32
143.616	143.693	69	52
143.772	143.851	72	52
143.929	144.091	71	65
144.091	144.172	76	56
144.248	144.882	60	48
144.248	144.882	64	48
144.248	144.882	69	59
144.248	144.61	78	56
144.399	144.61	80	56
144.492	144.61	83	57
144.573	144.65	81	66
144.728	145.123	80	56
144.882	145.205	60	44
144.882	145.205	64	44
144.882	145.205	69	50
144.882	145.123	81	56
145.041	145.123	88	56
145.205	145.366	47	43
145.205	145.285	59	65
145.366	145.446	60	56
145.522	145.673	55	33
145.522	145.673	59	33
145.522	145.597	63	56
145.673	145.766	64	56
145.766	145.806	67	57
145.806	145.847	69	57
145.847	146.001	52	40
145.847	145.924	67	62
146.001	146.079	66	52
146.156	146.312	55	32
146.156	146.312	59	32
146.156	146.233	67	52
146.312	146.391	69	52
146.47	146.633	49	43
146.47	146.633	67	65
146.633	146.714	70	56
146.79	147.424	58	48
146.79	147.424	64	48
146.79	147.424	66	58
146.79	147.152	76	56
146.941	147.152	77	56
147.034	147.115	78	57
147.075	147.152	79	57
147.115	147.665	48	43
147.115	147.192	78	66
147.27	147.665	77	53
147.424	147.747	58	44
147.424	147.747	64	44
147.424	147.747	66	50
147.424	147.665	78	53
147.583	147.665	90	59
147.747	148.391	47	43
147.747	148.403	83	57
147.747	148.403	95	65
147.918	148.403	84	49
147.918	148.403	96	56
148.081	148.403	54	33
148.081	148.403	57	33
148.081	148.403	63	33
148.081	148.403	87	49
148.081	148.403	99	56
148.236	148.403	88	49
148.236	148.403	100	56
148.391	149.108	47	40
148.391	148.883	90	54
148.391	148.883	102	62
148.551	149.094	88	39
148.551	149.094	100	52
148.711	149.108	54	32
148.711	149.108	57	32
148.711	149.108	63	32
148.711	149.108	91	51
148.711	149.108	103	60
148.883	149.108	90	47
148.883	149.108	102	56
149.094	149.985	52	33
149.094	149.985	55	34
149.094	149.933	64	40
149.094	149.933	88	54
149.094	149.933	100	64
149.279	149.985	87	46
149.279	149.985	99	55
149.477	149.985	59	32
149.477	149.985	63	32
149.477	149.985	69	32
149.477	149.985	91	51
149.477	149.985	103	60
149.696	149.985	90	46
149.696	149.985	102	55
149.933	150.181	64	32
149.933	150.181	67	32
149.933	150.057	88	50
149.933	150.057	100	59
150.798	150.922	76	63
150.922	151.554	57	43
150.922	151.228	72	59
150.922	151.554	76	70
151.076	151.38	69	33
151.076	151.228	81	61
151.228	151.554	64	38
151.228	151.554	72	51
151.228	151.554	81	61
151.38	151.554	69	33
151.38	151.542	84	61
151.542	152.156	52	44
151.542	151.855	74	57
151.542	152.156	84	68
151.699	152.005	68	33
151.699	151.855	83	59
151.855	152.156	64	37
151.855	152.156	74	50
151.855	152.081	83	59
152.005	152.156	68	33
152.005	152.081	76	59
152.081	152.156	72	45
152.081	152.156	76	45
152.081	152.156	83	56
152.156	152.468	57	43
152.156	152.234	81	68
152.312	152.39	69	33
152.468	152.807	64	38
152.468	153.082	72	54
152.468	153.383	76	54
152.468	153.082	81	64
152.619	152.807	69	33
152.769	153.387	57	44
152.926	153.232	69	33
153.082	153.387	64	37
153.082	153.383	72	56
153.082	153.387	81	66
153.232	153.387	69	33
153.232	153.383	84	64
153.383	154.003	55	43
153.383	154.015	72	59
153.383	153.689	76	70
153.383	154.015	84	70
153.537	153.84	67	33
153.537	153.689	79	61
153.689	154.015	60	32
153.689	154.015	64	38
153.689	154.015	76	51
153.689	154.015	79	61
153.84	154.015	67	33
153.84	154.003	77	51
153.84	154.003	81	61
154.003	154.648	55	44
154.003	154.648	71	57
154.003	154.316	77	57
154.003	154.648	81	68
154.159	154.466	67	33
154.159	154.316	74	59
154.316	154.648	59	31
154.316	154.648	65	37
154.316	154.648	74	50
154.316	154.648	77	59
154.466	154.648	67	33
154.466	154.569	79	59
154.569	154.648	79	56
154.648	154.98	60	43
154.648	154.731	72	57
154.648	154.731	76	68
154.814	154.897	67	33
154.897	154.98	71	47
154.897	154.98	75	56
154.98	155.319	64	38
154.98	155.594	72	54
154.98	155.594	76	64
155.13	155.319	67	33
155.281	155.894	60	44
155.437	155.744	67	33
155.594	155.898	64	37
155.594	155.894	72	56
155.594	155.894	76	62
155.669	155.898	79	61
155.744	155.898	67	33
155.894	156.515	60	43
155.894	156.201	72	59
155.894	156.515	76	70
156.048	156.352	70	33
156.048	156.201	79	61
156.201	156.526	64	38
156.201	156.526	67	38
156.201	156.526	72	51
156.201	156.526	79	61
156.352	156.526	70	33
156.352	156.515	84	61
156.515	157.128	60	44
156.515	156.827	76	57
156.515	156.827	84	68
156.671	156.978	70	33
156.671	156.978	79	50
156.671	157.128	83	59
156.827	157.128	64	37
156.827	157.128	67	37
156.827	157.128	76	50
156.827	157.128	84	59
156.978	157.128	70	33
156.978	157.128	79	50
156.978	157.053	82	59
157.053	157.128	82	56
157.128	157.452	57	43
157.128	157.209	81	68
157.29	157.371	69	33
157.452	157.791	60	30
157.452	157.791	65	38
157.452	158.066	72	54
157.452	158.37	77	54
157.452	158.37	81	64
157.603	157.791	69	33
157.753	157.831	57	44
157.909	158.216	69	33
158.066	158.37	65	37
158.066	158.37	72	56
158.066	158.37	84	66
158.216	158.37	69	33
158.367	158.987	59	43
158.367	158.999	71	59
158.367	158.999	83	70
158.52	158.824	67	33
158.52	158.669	76	61
158.669	158.999	76	51
158.673	158.999	64	38
158.824	158.999	67	33
158.824	158.987	75	61
158.987	159.622	59	44
158.987	159.45	75	68
159.143	159.45	69	33
159.143	159.299	83	59
159.299	159.622	63	31
159.299	159.622	66	37
159.299	159.622	71	50
159.299	159.622	83	59
159.45	159.622	69	33
159.45	159.622	75	59
159.622	160.248	64	43
159.622	160.342	72	57
159.622	160.094	78	68
159.781	160.248	67	33
159.781	160.248	76	61
159.94	160.342	59	43
159.94	160.342	66	38
159.94	160.248	71	54
159.94	160.342	75	64
160.094	160.342	69	33
160.094	160.342	78	61
160.248	160.407	64	44
160.248	160.407	67	47
160.248	160.407	71	51
160.248	160.407	76	55
160.791	160.915	76	57
160.791	160.915	88	63
160.915	161.547	57	43
160.915	161.547	76	70
160.915	161.547	88	59
161.069	161.372	72	33
161.069	161.221	81	61
161.221	161.547	64	35
161.221	161.547	69	38
161.221	161.547	81	61
161.221	161.547	93	51
161.372	161.547	72	33
161.372	161.535	84	61
161.535	162.149	52	44
161.535	162.149	84	57
161.535	162.149	96	68
161.691	161.998	68	33
161.691	161.848	95	59
161.848	162.149	62	34
161.848	162.149	64	37
161.848	162.149	83	50
161.848	162.073	95	59
161.998	162.149	68	33
161.998	162.149	88	59
162.073	162.149	95	56
162.149	162.47	57	43
162.149	162.229	81	62
162.149	162.229	93	68
162.309	162.39	72	33
162.47	162.809	64	33
162.47	162.809	69	38
162.47	163.388	81	54
162.47	163.083	84	54
162.47	163.083	93	64
162.62	162.809	72	33
162.771	163.388	57	44
162.927	163.234	72	33
163.083	163.388	64	34
163.083	163.388	69	37
163.083	163.384	84	56
163.083	163.388	93	66
163.234	163.388	72	33
163.234	163.384	88	60
163.234	163.384	96	64
163.384	164.005	55	43
163.384	164.016	84	59
163.384	163.691	88	70
163.384	164.016	96	70
163.538	163.842	72	33
163.538	163.691	91	61
163.691	164.016	64	32
163.691	164.016	67	38
163.691	164.016	79	59
163.691	164.016	88	51
163.691	164.016	91	61
163.842	164.016	72	33
163.842	164.005	89	51
163.842	164.005	93	61
164.005	164.65	55	44
164.005	164.65	83	57
164.005	164.317	89	57
164.005	164.65	93	68
164.161	164.468	71	33
164.161	164.317	86	59
164.317	164.65	62	31
164.317	164.65	65	37
164.317	164.65	77	59
164.317	164.65	86	50
164.317	164.65	89	59
164.468	164.65	71	33
164.468	164.571	91	59
164.571	164.65	91	56
164.65	164.973	60	43
164.65	164.731	76	57
164.65	164.731	84	57
164.65	164.731	88	68
164.812	164.893	72	33
164.973	165.312	64	38
164.973	165.312	67	38
164.973	165.888	76	54
164.973	165.888	84	54
164.973	165.587	88	64
165.124	165.312	72	33
165.274	165.888	60	44
165.431	165.737	72	33
165.587	165.892	64	40
165.587	165.892	67	40
165.587	165.892	79	59
165.587	165.892	88	67
165.662	165.892	91	65
165.737	165.892	72	36
165.888	166.508	60	47
165.888	166.52	76	64
165.888	166.345	84	77
166.042	166.345	70	36
166.042	166.194	79	55
166.042	166.194	88	67
166.194	166.52	64	41
166.194	166.52	67	41
166.194	166.52	79	56
166.194	166.52	88	67
166.345	166.52	70	36
166.345	166.508	84	55
166.345	166.508	91	67
166.508	167.122	60	48
166.508	167.122	84	62
166.508	166.971	91	74
166.665	166.971	70	36
166.665	166.821	88	55
166.665	166.821	96	64
166.821	167.122	64	40
166.821	167.122	67	40
166.821	167.122	88	55
166.821	167.122	96	64
166.971	167.122	70	36
166.971	167.047	91	55
166.971	167.047	94	64
167.047	167.122	91	55
167.047	167.122	94	61
167.122	167.434	57	47
167.122	167.2	89	67
167.122	167.2	93	74
167.278	167.356	69	36
167.434	167.773	60	33
167.434	167.773	65	41
167.434	168.048	84	59
167.434	168.353	89	59
167.434	168.353	93	70
167.585	167.773	69	36
167.735	167.813	57	48
167.892	168.198	72	36
168.048	168.353	65	41
168.048	168.353	69	46
168.048	168.353	84	61
168.048	168.353	96	72
168.198	168.353	72	41
168.349	168.951	59	48
168.349	168.648	83	58
168.349	168.648	95	69
168.5	168.795	71	36
168.5	168.648	88	60
168.648	168.963	64	43
168.648	168.963	67	43
168.648	168.963	83	55
168.648	168.963	88	51
168.648	168.963	95	70
168.795	168.963	71	38
168.795	168.951	87	61
168.951	169.56	59	50
168.951	169.402	87	69
169.107	169.402	71	38
169.107	169.254	83	56
169.107	169.254	95	61
169.254	169.564	66	36
169.254	169.564	69	44
169.254	169.56	83	52
169.254	169.56	95	61
169.402	169.564	71	39
169.402	169.564	87	62
169.56	170.152	59	52
169.56	169.857	83	54
169.56	170.163	90	72
169.56	169.857	95	71
169.709	170.001	71	40
169.709	169.857	88	65
169.857	170.163	64	47
169.857	170.163	67	47
169.857	170.163	83	60
169.857	170.163	88	55
169.857	170.163	95	76
170.001	170.163	71	40
170.001	170.152	87	67
170.152	170.738	59	55
170.152	170.585	87	76
170.299	170.585	71	41
170.299	170.442	83	60
170.299	170.442	95	66
170.442	170.738	66	39
170.442	170.738	69	48
170.442	170.735	83	56
170.442	170.735	95	67
170.585	170.738	71	42
170.585	170.738	87	67
170.735	171.312	64	57
170.735	171.312	67	49
170.735	171.02	83	59
170.735	171.162	90	79
170.735	171.02	95	78
170.878	171.162	71	42
170.878	171.322	88	70
171.02	171.322	59	50
171.02	171.322	66	50
171.02	171.322	69	50
171.02	171.312	83	65
171.02	171.322	87	60
171.02	171.312	95	83
171.162	171.322	71	45
171.162	171.312	90	72
171.312	171.881	64	61
171.312	171.881	67	51
171.312	171.592	83	69
171.312	171.733	90	69
171.312	171.592	95	82
171.452	171.733	71	45
171.452	171.881	88	72
171.592	171.881	59	54
171.592	171.881	66	43
171.592	171.881	69	51
171.592	171.881	83	62
171.592	171.881	87	69
171.592	171.881	95	73
171.733	171.881	71	47
171.733	171.881	90	73
171.881	172.029	64	60
171.881	171.955	67	54
171.881	172.029	83	63
171.881	172.029	88	85
171.881	172.029	95	83
172.77	172.985	71	52
172.985	176.449	45	48
173.056	176.449	52	53
173.128	176.449	57	57
173.199	176.449	60	56
173.271	176.449	64	63
173.342	174.564	72	70
174.478	174.81	71	45
174.564	174.731	72	40
174.564	174.731	76	40
174.649	174.961	75	40
174.731	174.887	72	40
174.731	174.887	76	40
174.81	175.104	71	45
174.887	175.033	72	42
174.887	175.033	76	42
174.961	175.24	75	42
175.033	175.172	72	43
175.033	175.172	76	43
175.104	175.376	71	47
175.172	175.308	72	43
175.172	175.308	76	43
175.24	175.513	75	44
175.308	175.445	72	44
175.308	175.445	76	44
175.376	175.649	71	49
175.445	175.581	72	45
175.445	175.581	76	45
175.513	175.785	75	45
175.581	175.717	72	45
175.581	175.717	76	45
175.649	175.926	71	50
175.717	175.855	72	47
175.717	175.855	76	47
175.785	176.074	75	48
175.855	175.999	72	48
175.855	175.999	76	48
175.926	176.449	71	52
175.999	176.15	72	48
175.999	176.15	76	48
176.074	176.449	75	48
176.15	176.449	72	49
176.15	176.449	76	49
176.227	176.449	84	69
177.351	181.014	45	48
177.423	181.014	54	53
177.494	181.014	60	57
177.566	181.014	63	56
177.637	181.014	66	63
177.709	178.931	75	70
178.845	179.177	74	45
178.931	179.097	75	40
178.931	179.097	78	40
179.016	179.328	77	40
179.097	179.254	75	40
179.097	179.254	78	40
179.177	179.471	74	45
179.254	179.4	75	42
179.254	179.4	78	42
179.328	179.607	77	42
179.4	179.539	75	43
179.4	179.539	78	43
179.471	179.743	74	47
179.539	179.675	75	43
179.539	179.675	78	43
179.607	179.879	77	44
179.675	179.811	75	44
179.675	179.811	78	44
179.743	180.016	74	49
179.811	179.947	75	45
179.811	179.947	78	45
179.879	180.152	77	45
179.947	180.083	75	45
179.947	180.083	78	45
180.016	180.293	74	50
180.083	180.222	75	47
180.083	180.222	78	47
180.152	180.44	77	48
180.222	180.366	75	48
180.222	180.366	78	48
180.293	181.014	74	52
180.366	180.517	75	48
180.366	180.517	78	48
180.44	181.014	77	48
180.517	181.014	75	49
180.517	181.014	78	49
180.595	181.014	87	72
181.79	185.885	40	65
181.862	185.885	55	68
181.933	185.885	64	72
182.005	185.885	71	76
182.076	183.299	76	84
183.213	183.544	75	49
183.299	183.621	76	44
183.299	183.465	83	44
183.383	183.695	78	44
183.383	183.695	82	44
183.465	183.767	79	44
183.465	183.621	83	44
183.544	183.838	75	54
183.621	183.906	76	47
183.621	183.767	83	47
183.695	183.974	78	47
183.695	183.974	82	47
183.767	184.043	79	47
183.767	183.906	83	47
183.838	184.111	75	56
183.906	184.179	76	47
183.906	184.043	83	47
183.974	184.247	78	49
183.974	184.247	82	49
184.043	184.315	79	49
184.043	184.179	83	49
184.111	184.383	75	58
184.179	184.451	76	50
184.179	184.315	83	50
184.247	184.519	78	50
184.247	184.519	82	50
184.315	184.589	79	50
184.315	184.451	83	50
184.383	185.885	75	61
184.451	185.885	76	53
184.451	184.589	83	53
184.519	184.66	78	53
184.519	184.808	82	53
184.589	184.733	79	53
184.589	184.884	83	53
184.66	185.885	78	66
184.733	185.885	79	55
184.733	184.884	88	55
184.808	184.961	82	55
184.808	185.115	87	55
184.884	185.038	83	55
184.884	185.192	88	55
184.961	185.885	82	68
185.038	185.885	83	59
185.038	185.192	91	59
185.115	185.269	87	60
185.115	185.423	90	60
185.192	185.346	88	61
185.192	185.654	91	61
185.269	185.885	87	73
185.346	185.5	88	60
185.346	185.5	95	60
185.423	185.577	90	64
185.423	185.731	94	64
185.5	185.885	88	65
185.5	185.808	95	65
185.577	185.885	90	77
185.654	185.885	91	68
185.654	185.808	100	68
185.731	185.885	94	69
185.731	185.885	99	69
185.808	185.885	95	71
185.808	185.885	100	71
187.452	187.631	71	45
187.631	187.81	71	45
187.81	187.989	72	49
187.989	188.168	71	45
188.168	188.346	70	45
188.346	188.525	71	45
188.522	188.677	76	48
188.73	188.875	75	45
188.918	189.044	74	45
189.087	189.204	73	51
189.242	189.356	72	44
189.394	189.506	71	44
189.542	189.654	70	50
189.691	189.99	52	25
189.691	189.99	55	32
189.691	189.99	64	38
189.691	189.916	71	48
189.916	190.102	72	48
190.102	194.178	45	48
190.194	194.178	52	53
190.296	194.178	57	57
190.363	194.178	60	56
190.43	193.748	64	63
190.496	191.719	72	70
191.633	191.964	71	45
191.719	191.885	72	40
191.719	191.885	76	40
191.803	192.115	75	40
191.885	192.041	72	40
191.885	192.041	76	40
191.964	192.258	71	45
192.041	192.188	72	42
192.041	192.188	76	42
192.115	192.395	75	42
192.188	192.327	72	43
192.188	192.327	76	43
192.258	192.531	71	47
192.327	192.463	72	43
192.327	192.463	76	43
192.395	192.667	75	44
192.463	192.599	72	44
192.463	192.599	76	44
192.531	192.803	71	49
192.599	192.735	72	45
192.599	192.735	76	45
192.667	192.939	75	45
192.735	192.871	72	45
192.735	192.871	76	45
192.803	193.077	71	50
192.871	193.007	72	47
192.871	193.007	76	47
192.939	193.219	75	48
193.007	193.147	72	48
193.007	193.147	76	48
193.077	194.178	71	52
193.147	193.291	72	48
193.147	193.291	76	48
193.219	194.178	75	48
193.291	193.365	72	49
193.291	193.439	76	49
193.365	193.669	72	56
193.439	193.591	76	59
193.515	194.178	84	64
193.591	194.178	76	65
193.669	193.828	72	56
193.748	194.178	64	62
193.828	194.178	72	57
194.45	198.409	45	48
194.521	198.409	54	53
194.593	198.409	60	57
194.664	198.409	63	56
194.736	198.076	66	63
194.807	196.03	75	70
195.944	196.275	74	45
196.03	196.196	75	40
196.03	196.196	78	40
196.114	196.426	77	40
196.196	196.352	75	40
196.196	196.352	78	40
196.275	196.569	74	45
196.352	196.499	75	42
196.352	196.499	78	42
196.426	196.706	77	42
196.499	196.638	75	43
196.499	196.638	78	43
196.569	196.842	74	47
196.638	196.774	75	43
196.638	196.774	78	43
196.706	196.978	77	44
196.774	196.91	75	44
196.774	196.91	78	44
196.842	197.114	74	49
196.91	197.046	75	45
196.91	197.046	78	45
196.978	197.25	77	45
197.046	197.182	75	45
197.046	197.182	78	45
197.114	197.391	74	50
197.182	197.32	75	47
197.182	197.32	78	47
197.25	197.539	77	48
197.32	197.464	75	48
197.32	197.464	78	48
197.391	198.409	74	52
197.464	197.615	75	48
197.464	197.615	78	48
197.539	198.409	77	48
197.615	197.693	75	49
197.615	197.768	78	49
197.693	197.997	75	56
197.768	197.92	78	59
197.843	198.409	87	64
197.92	198.409	78	61
197.997	198.156	75	58
198.076	198.409	66	64
198.156	198.409	75	59
198.765	199.228	76	80
198.942	209.136	40	65
199.013	209.136	55	68
199.085	209.136	64	72
199.156	209.136	71	76
199.228	200.45	76	84
200.364	200.696	75	49
200.45	200.772	76	44
200.45	200.616	83	44
200.534	200.847	78	44
200.534	200.847	82	44
200.616	200.919	79	44
200.616	200.772	83	44
200.696	200.989	75	54
200.772	201.058	76	47
200.772	200.919	83	47
200.847	201.126	78	47
200.847	201.126	82	47
200.919	201.194	79	47
200.919	201.058	83	47
200.989	201.262	75	56
201.058	201.33	76	47
201.058	201.194	83	47
201.126	201.398	78	49
201.126	201.398	82	49
201.194	201.466	79	49
201.194	201.33	83	49
201.262	201.534	75	58
201.33	201.603	76	50
201.33	201.466	83	50
201.398	201.671	78	50
201.398	201.671	82	50
201.466	201.74	79	50
201.466	201.603	83	50
201.534	201.809	75	61
201.603	201.876	76	53
201.603	201.74	83	53
201.671	201.945	78	53
201.671	201.945	82	53
201.74	202.015	79	53
201.74	201.876	83	53
201.809	209.136	75	61
201.876	209.136	76	53
201.876	202.015	83	53
201.945	202.086	78	53
201.945	202.232	82	53
202.015	202.159	79	53
202.015	202.304	83	53
202.086	209.136	78	66
202.159	209.136	79	55
202.159	202.304	88	55
202.232	202.376	82	55
202.232	202.518	87	55
202.304	202.447	83	55
202.304	202.588	88	55
202.376	203.475	82	68
202.447	203.544	83	59
202.447	202.588	91	59
202.518	202.658	87	60
202.518	202.797	90	60
202.588	202.728	88	61
202.588	202.866	91	61
202.658	203.205	87	73
202.728	203.272	88	60
202.728	202.866	95	60
202.797	202.935	90	64
202.797	203.07	94	64
202.866	203.003	91	65
202.866	203.272	95	65
202.935	203.339	90	77
203.003	203.138	91	68
203.003	203.138	100	68
203.07	203.339	94	69
203.07	204.173	99	69
203.138	203.407	91	71
203.138	204.104	100	71
203.205	203.614	87	77
203.272	203.683	88	67
203.272	203.407	95	67
203.339	203.614	90	67
203.339	203.895	94	67
203.407	203.544	91	67
203.407	203.824	95	67
203.475	204.586	82	68
203.544	204.657	83	60
203.544	203.683	91	60
203.614	203.754	87	60
203.614	203.895	90	60
203.683	203.824	88	60
203.683	203.965	91	60
203.754	204.31	87	73
203.824	204.378	88	60
203.824	203.965	95	60
203.895	204.034	90	64
203.895	204.173	94	64
203.965	204.104	91	65
203.965	204.241	95	65
204.034	204.447	90	77
204.104	204.516	91	68
204.104	204.241	100	68
204.173	204.447	94	69
204.173	205.305	99	69
204.241	204.378	95	71
204.241	205.234	100	71
204.31	204.728	87	73
204.378	204.8	88	65
204.378	204.516	95	65
204.447	204.728	90	65
204.447	205.019	94	65
204.516	204.657	91	65
204.516	204.947	95	65
204.586	209.136	82	68
204.657	209.136	83	59
204.657	204.8	91	59
204.728	204.873	87	60
204.728	205.019	90	60
204.8	204.947	88	61
204.8	205.092	91	61
204.873	205.444	87	73
204.947	205.513	88	60
204.947	205.092	95	60
205.019	205.163	90	64
205.019	205.305	94	64
205.092	205.234	91	65
205.092	205.375	95	65
205.163	205.583	90	77
205.234	205.653	91	68
205.234	205.375	100	68
205.305	205.583	94	69
205.305	205.866	99	69
205.375	205.513	95	71
205.375	205.795	100	71
205.444	206.011	87	73
205.513	206.084	88	60
205.513	205.653	95	60
205.583	205.724	90	64
205.583	205.866	94	64
205.653	205.795	91	65
205.653	205.939	95	65
205.724	206.157	90	77
205.795	206.229	91	68
205.795	205.939	100	68
205.866	206.157	94	69
205.866	206.449	99	69
205.939	206.084	95	71
205.939	206.375	100	71
206.011	206.596	87	73
206.084	206.67	88	60
206.084	206.229	95	60
206.157	206.302	90	64
206.157	206.449	94	64
206.229	206.375	91	65
206.229	206.522	95	65
206.302	206.744	90	77
206.375	206.819	91	68
206.375	206.522	100	68
206.449	206.744	94	69
206.449	207.044	99	69
206.522	206.67	95	71
206.522	206.969	100	71
206.596	209.136	87	73
206.67	209.136	88	60
206.67	206.819	95	60
206.744	206.894	90	64
206.744	207.044	94	64
206.819	206.969	91	65
206.819	207.12	95	65
206.894	207.196	90	77
206.969	207.273	91	68
206.969	207.12	100	68
207.044	207.349	94	69
207.044	207.349	99	69
207.12	207.426	95	71
207.12	207.273	100	71
207.196	207.504	90	77
207.273	207.581	91	64
207.273	207.426	100	64
207.349	207.659	94	63
207.349	207.659	99	63
207.426	207.738	95	62
207.426	207.581	100	62
207.504	207.817	90	69
207.581	207.896	91	60
207.581	207.738	100	60
207.659	207.975	94	59
207.659	207.975	99	59
207.738	208.055	95	59
207.738	207.896	100	59
207.817	208.135	90	64
207.896	208.216	91	57
207.896	208.055	100	57
207.975	208.297	94	56
207.975	208.297	99	56
208.055	208.378	95	55
208.055	208.216	100	55
208.135	208.46	90	57
208.216	208.542	91	46
208.216	208.378	100	46
208.297	208.625	94	46
208.297	208.625	99	46
208.378	208.708	95	45
208.378	208.542	100	45
208.46	209.136	90	52
208.542	209.136	91	44
208.542	208.708	100	44
208.625	209.136	94	44
208.625	209.136	99	44
208.708	209.136	95	40
208.708	209.136	100	44
209.468	209.791	64	42
209.468	209.791	67	42
209.468	209.791	71	50
209.468	209.791	76	50
209.791	210.488	62	36
209.791	210.488	69	36
209.791	210.477	71	43
209.791	210.488	77	59
209.834	210.488	79	47
209.871	210.488	81	49
209.908	210.488	83	50
209.945	210.488	84	52
209.982	210.488	86	54
210.018	210.488	88	55
210.054	210.488	89	57
210.09	210.488	91	59
210.124	211.013	93	72
210.477	211.013	55	42
210.477	211.013	65	42
210.477	211.013	71	54
210.517	211.013	91	52
210.558	211.013	89	50
210.599	211.013	88	48
210.641	211.013	86	47
210.683	211.013	84	45
210.726	211.013	83	43
210.769	211.013	81	41
210.814	211.013	79	40
210.858	211.013	77	38
210.901	211.013	76	36
210.945	211.013	74	50
211.167	211.939	60	43
211.167	211.939	64	51
211.167	211.939	72	57
211.193	211.939	74	46
211.219	211.939	76	47
211.244	211.939	77	49
211.269	211.939	79	50
211.295	211.939	81	52
211.32	211.939	83	53
211.345	211.939	84	55
211.37	211.939	86	57
211.395	211.939	88	58
211.419	211.939	89	60
211.444	211.939	91	61
211.469	211.939	93	63
211.493	211.939	95	64
211.517	211.939	96	66
211.542	211.939	98	69
211.564	211.946	100	76
211.946	211.966	98	49
211.966	212.558	96	48
211.987	212.558	95	47
212.008	212.558	93	46
212.028	212.558	91	45
212.048	212.558	89	45
212.069	212.558	88	44
212.089	212.558	86	43
212.111	212.558	84	42
212.131	212.558	83	41
212.152	212.558	81	40
212.173	212.558	79	40
212.193	212.558	77	39
212.215	212.558	76	38
212.236	212.558	74	37
212.257	212.558	72	36
212.278	212.558	71	36
212.299	212.558	69	35
212.321	212.558	52	42
212.321	212.558	55	42
212.321	212.558	60	50
212.321	212.558	67	56
212.683	213.487	50	45
212.683	213.487	57	45
212.683	213.487	60	54
212.683	213.487	65	54
212.703	212.724	67	39
212.723	213.487	69	40
212.743	213.487	71	41
212.764	213.487	72	43
212.784	213.487	74	44
212.804	213.487	76	45
212.824	213.487	77	47
212.844	213.487	79	48
212.864	213.487	81	49
212.884	213.487	83	51
212.904	213.487	84	52
212.923	213.487	86	53
212.943	213.487	88	54
212.963	213.487	89	56
212.983	213.487	91	57
213.002	213.487	93	58
213.021	213.487	95	59
213.041	213.487	96	60
213.06	213.487	98	62
213.079	213.479	100	63
213.1	213.487	101	72
213.461	213.975	43	42
213.461	213.975	53	42
213.461	213.975	59	50
213.479	213.496	100	47
213.496	213.514	98	46
213.514	213.975	96	46
213.532	213.975	95	45
213.549	213.975	93	45
213.567	213.975	91	44
213.585	213.975	89	44
213.603	213.975	88	43
213.622	213.975	86	42
213.64	213.975	84	42
213.658	213.975	83	41
213.677	213.975	81	41
213.695	213.975	79	40
213.714	213.975	77	39
213.733	213.975	76	39
213.752	213.975	74	38
213.771	213.975	72	38
213.79	213.975	71	37
213.809	213.975	69	36
213.828	213.975	67	36
213.848	213.975	65	35
213.868	213.975	64	35
213.885	213.975	62	56
214.25	215.139	48	43
214.25	215.139	52	51
214.25	214.546	60	57
214.288	214.326	62	45
214.326	214.362	64	46
214.362	214.399	65	47
214.399	214.437	67	47
214.437	214.473	69	48
214.473	214.51	71	49
214.51	214.546	72	50
214.546	214.582	74	51
214.582	214.619	76	52
214.619	214.654	77	53
214.654	214.691	79	53
214.691	214.726	81	54
214.726	214.761	83	55
214.761	214.797	84	56
214.797	214.831	86	57
214.831	214.867	88	58
214.867	214.901	89	59
214.901	214.936	91	60
214.936	214.971	93	60
214.971	215.005	95	61
215.005	215.039	96	62
215.039	215.073	98	63
215.073	215.107	100	64
215.107	215.139	101	65
215.139	215.185	103	75
215.501	215.683	52	42
215.501	215.683	55	42
215.501	215.683	60	50
215.501	215.683	64	50
215.866	216.66	50	45
215.866	216.66	57	45
215.866	216.652	59	54
215.866	216.66	65	54
215.885	215.904	67	39
215.904	216.66	69	40
215.923	216.66	71	40
215.942	216.66	72	41
215.961	216.66	74	42
215.98	216.66	76	43
215.998	216.66	77	43
216.017	216.66	79	44
216.036	216.66	81	45
216.054	216.66	83	46
216.072	216.66	84	46
216.09	216.66	86	47
216.108	216.66	88	48
216.126	216.66	89	49
216.145	216.66	91	49
216.163	216.66	93	50
216.181	216.66	95	51
216.199	216.66	96	52
216.217	216.66	98	52
216.235	216.66	100	53
216.253	216.66	101	54
216.272	216.66	103	54
216.287	216.66	105	68
216.652	217.217	43	42
216.652	217.217	53	42
216.652	217.217	59	50
216.674	216.691	103	49
216.692	217.217	101	48
216.709	217.217	100	48
216.726	217.217	98	47
216.743	217.217	96	46
216.76	217.217	95	46
216.778	217.217	93	45
216.795	217.217	91	44
216.812	217.217	89	44
216.83	217.217	88	43
216.847	217.217	86	42
216.865	217.217	84	42
216.883	217.217	83	41
216.9	217.217	81	40
216.919	217.217	79	40
216.937	217.217	77	39
216.955	217.217	76	39
216.973	217.217	74	38
216.991	217.217	72	37
217.009	217.217	71	37
217.027	217.217	69	36
217.046	217.217	67	35
217.063	217.217	65	35
217.081	217.217	64	34
217.096	217.217	62	56
217.457	218.393	48	43
217.457	218.393	52	51
217.457	218.393	60	57
217.495	218.393	62	48
217.534	218.393	64	49
217.571	218.393	65	50
217.61	218.393	67	50
217.647	218.393	69	51
217.685	218.393	71	52
217.722	218.393	72	53
217.76	218.393	74	54
217.797	218.393	76	55
217.833	218.393	77	56
217.87	218.393	79	56
217.907	218.393	81	57
217.943	218.393	83	58
217.979	218.393	84	59
218.016	218.393	86	60
218.051	218.393	88	61
218.088	218.393	89	62
218.123	218.393	91	63
218.159	218.393	93	63
218.194	218.393	95	64
218.229	218.393	96	65
218.264	218.393	98	66
218.299	218.393	100	79
218.66	218.824	52	50
218.66	218.824	55	50
218.66	218.824	58	59
218.66	218.824	60	54
218.66	218.824	64	54
218.66	218.824	70	64
218.984	219.72	47	56
218.984	219.72	56	61
218.984	219.173	59	62
218.984	219.206	64	62
218.984	219.313	71	73
219.153	219.179	60	47
219.179	219.72	62	48
219.206	219.72	64	50
219.233	219.72	65	51
219.26	219.72	67	53
219.287	219.72	69	54
219.313	219.72	71	56
219.34	219.72	72	57
219.366	219.72	74	59
219.392	219.72	76	60
219.419	219.72	77	62
219.445	219.72	79	63
219.471	219.72	81	64
219.497	219.72	83	66
219.523	219.72	84	67
219.548	219.72	86	69
219.575	219.72	88	70
219.6	219.72	89	72
219.625	219.72	91	73
219.651	219.72	93	75
219.674	219.72	95	81
219.975	220.131	47	51
219.975	220.131	54	51
219.975	220.131	57	61
219.975	220.131	59	56
219.975	220.131	63	56
219.977	220.133	71	67
220.287	221.043	47	59
220.287	221.043	56	64
220.287	220.469	59	64
220.287	220.5	64	64
220.287	220.605	71	76
220.45	220.474	60	53
220.474	221.043	62	54
220.5	221.043	64	55
220.526	221.043	65	56
220.553	221.043	67	57
220.579	221.043	69	58
220.605	221.043	71	60
220.631	221.043	72	61
220.656	221.043	74	62
220.682	221.043	76	63
220.709	221.043	77	64
220.734	221.043	79	65
220.76	221.043	81	67
220.785	221.043	83	68
220.81	221.043	84	69
220.836	221.043	86	70
220.862	221.043	88	71
220.887	221.043	89	73
220.912	221.043	91	74
220.937	221.043	93	75
220.961	221.043	95	85
221.263	221.419	47	56
221.263	221.419	51	56
221.263	221.419	54	67
221.263	221.419	59	67
221.263	221.419	71	62
221.263	221.419	75	62
221.263	221.419	78	73
221.263	221.419	83	73
221.575	221.756	47	65
221.575	221.756	52	65
221.575	221.756	56	70
221.575	221.756	59	70
221.575	221.756	71	70
221.575	221.756	76	70
221.575	221.756	80	83
221.575	221.756	83	83
221.914	222.286	69	51
221.914	222.286	72	58
221.94	222.286	67	52
221.94	222.286	74	60
221.966	222.286	65	53
221.966	222.286	76	61
221.991	222.286	64	56
221.992	222.286	77	63
222.017	222.286	62	57
222.017	222.286	79	64
222.043	222.286	60	58
222.043	222.286	81	66
222.068	222.286	59	59
222.068	222.286	83	67
222.093	222.286	57	60
222.093	222.286	84	69
222.118	222.286	55	61
222.118	222.286	86	70
222.143	222.286	53	62
222.144	222.286	88	71
222.168	222.286	52	63
222.169	222.286	89	73
222.194	222.286	50	64
222.194	222.286	91	74
222.219	222.286	48	66
222.219	222.286	93	76
222.243	222.286	47	88
222.243	222.286	95	93
222.545	222.703	47	58
222.545	222.703	51	58
222.545	222.703	54	70
222.545	222.703	59	70
222.545	222.703	71	65
222.545	222.703	75	65
222.545	222.703	78	76
222.545	222.703	83	76
222.861	223.512	52	68
222.861	223.692	56	68
222.861	223.692	59	73
222.861	223.692	64	73
222.861	223.692	76	73
222.861	223.692	80	73
222.861	223.692	83	87
222.861	223.512	88	87
223.512	223.702	40	71
223.512	223.702	44	71
223.512	223.702	47	76
223.512	223.702	52	76
223.512	223.702	88	76
223.512	223.702	92	76
223.512	223.702	95	91
223.512	223.702	100	91
223.892	224.074	64	42
223.892	224.074	68	42
223.892	224.074	71	50
223.892	224.074	76	50
224.256	224.98	62	36
224.256	224.98	69	36
224.256	224.949	71	43
224.256	224.98	77	59
224.301	224.98	79	44
224.339	224.98	81	46
224.377	224.98	83	48
224.415	224.98	84	50
224.453	224.98	86	53
224.491	224.98	88	55
224.528	224.98	89	57
224.565	224.98	91	59
224.6	224.991	93	66
224.949	225.518	55	42
224.949	225.518	65	42
224.949	225.518	71	54
224.991	225.518	91	52
225.033	225.518	89	50
225.076	225.518	88	48
225.119	225.518	86	47
225.162	225.518	84	45
225.206	225.518	83	43
225.25	225.518	81	41
225.294	225.518	79	40
225.337	225.518	77	38
225.381	225.518	76	36
225.424	225.518	74	50
225.649	226.419	60	43
225.649	226.419	64	51
225.649	226.419	72	57
225.675	226.419	74	45
225.702	226.419	76	46
225.728	226.419	77	47
225.754	226.419	79	48
225.78	226.419	81	50
225.806	226.419	83	51
225.831	226.419	84	52
225.857	226.419	86	54
225.882	226.419	88	55
225.908	226.419	89	56
225.933	226.419	91	57
225.958	226.419	93	59
225.983	226.419	95	60
226.008	226.419	96	61
226.033	226.419	98	62
226.057	226.439	100	76
226.439	226.974	98	49
226.46	226.974	96	48
226.481	226.974	95	47
226.503	226.974	93	46
226.524	226.974	91	45
226.545	226.974	89	45
226.566	226.974	88	44
226.588	226.974	86	43
226.61	226.974	84	42
226.631	226.974	83	41
226.653	226.974	81	40
226.675	226.974	79	40
226.696	226.974	77	39
226.719	226.974	76	38
226.741	226.974	74	37
226.763	226.974	72	36
226.785	226.974	71	36
226.807	226.974	69	35
226.832	227.012	52	42
226.832	227.012	55	42
226.832	227.012	60	50
226.832	226.974	67	56
227.199	227.797	50	45
227.199	227.797	57	45
227.199	227.797	60	54
227.199	227.797	65	54
227.22	227.797	67	38
227.24	227.797	69	39
227.261	227.797	71	40
227.282	227.797	72	41
227.303	227.797	74	42
227.324	227.797	76	43
227.344	227.797	77	44
227.364	227.797	79	45
227.385	227.797	81	46
227.405	227.797	83	47
227.426	227.797	84	48
227.445	227.797	86	49
227.465	227.797	88	49
227.486	227.797	89	50
227.506	227.797	91	51
227.526	227.797	93	52
227.545	227.797	95	53
227.565	227.797	96	54
227.584	227.797	98	55
227.604	227.797	100	56
227.625	227.82	101	68
227.985	228.531	43	42
227.985	228.531	53	42
227.985	228.531	59	50
228.004	228.531	100	47
228.023	228.531	98	46
228.042	228.531	96	46
228.062	228.531	95	45
228.081	228.531	93	45
228.1	228.531	91	44
228.12	228.531	89	44
228.14	228.531	88	43
228.16	228.531	86	42
228.18	228.531	84	42
228.2	228.531	83	41
228.22	228.531	81	41
228.241	228.531	79	40
228.261	228.531	77	39
228.282	228.531	76	39
228.303	228.531	74	38
228.324	228.531	72	38
228.345	228.531	71	37
228.367	228.531	69	36
228.388	228.531	67	36
228.41	228.531	65	35
228.431	228.531	64	35
228.449	228.531	62	56
228.811	229.709	48	43
228.811	229.709	52	51
228.811	229.111	60	57
228.849	228.887	62	45
228.887	228.925	64	46
228.925	228.962	65	46
228.962	229.0	67	47
229.0	229.037	69	48
229.037	229.075	71	49
229.075	229.111	72	50
229.111	229.148	74	51
229.148	229.185	76	51
229.185	229.221	77	52
229.221	229.258	79	53
229.258	229.293	81	54
229.293	229.329	83	55
229.329	229.365	84	56
229.365	229.4	86	57
229.4	229.436	88	57
229.436	229.47	89	58
229.47	229.505	91	59
229.505	229.54	93	60
229.54	229.574	95	61
229.574	229.609	96	62
229.609	229.643	98	62
229.643	229.677	100	63
229.677	229.709	101	64
229.709	229.755	103	75
230.073	230.254	52	42
230.073	230.254	55	42
230.073	230.254	60	50
230.073	230.254	64	50
230.438	230.972	50	45
230.438	230.972	57	45
230.438	230.972	59	54
230.438	230.972	65	54
230.46	230.972	67	39
230.481	230.972	69	40
230.503	230.972	71	40
230.524	230.972	72	41
230.545	230.972	74	42
230.566	230.972	76	43
230.588	230.972	77	44
230.609	230.972	79	44
230.629	230.972	81	45
230.65	230.972	83	46
230.67	230.972	84	47
230.69	230.972	86	47
230.711	230.972	88	48
230.731	230.972	89	49
230.752	230.972	91	50
230.772	230.972	93	51
230.792	230.972	95	51
230.812	230.972	96	52
230.832	230.972	98	53
230.852	230.972	100	54
230.873	230.972	101	55
230.893	230.972	103	55
230.908	231.106	105	68
231.276	231.877	43	42
231.276	231.877	53	42
231.276	231.877	59	50
231.299	231.877	103	49
231.317	231.877	101	48
231.334	231.877	100	48
231.351	231.877	98	47
231.369	231.877	96	46
231.386	231.877	95	46
231.404	231.877	93	45
231.422	231.877	91	44
231.439	231.877	89	44
231.457	231.877	88	43
231.475	231.877	86	42
231.493	231.877	84	42
231.511	231.877	83	41
231.529	231.877	81	40
231.548	231.877	79	40
231.566	231.877	77	39
231.584	231.877	76	39
231.602	231.877	74	38
231.62	231.877	72	37
231.639	231.877	71	37
231.657	231.877	69	36
231.676	231.877	67	35
231.694	231.877	65	35
231.713	231.877	64	34
231.728	231.877	62	56
232.092	233.018	48	43
232.092	233.018	52	51
232.092	233.018	60	57
232.13	233.018	62	46
232.169	233.018	64	47
232.206	233.018	65	47
232.245	233.018	67	48
232.282	233.018	69	49
232.32	233.018	71	50
232.357	233.018	72	51
232.395	233.018	74	51
232.432	233.018	76	52
232.468	233.018	77	53
232.505	233.018	79	54
232.542	233.018	81	55
232.579	233.018	83	56
232.614	233.018	84	56
232.651	233.018	86	57
232.686	233.018	88	58
232.723	233.018	89	59
232.758	233.018	91	60
232.794	233.018	93	61
232.829	233.018	95	61
232.864	233.018	96	62
232.899	233.018	98	63
232.934	233.018	100	74
233.295	233.459	52	50
233.295	233.459	55	50
233.295	233.459	58	59
233.295	233.459	60	54
233.295	233.459	64	54
233.295	233.459	70	64
233.619	234.328	47	56
233.619	234.328	56	61
233.619	233.803	59	62
233.619	233.834	64	62
233.619	233.939	71	73
233.784	233.808	60	44
233.808	233.834	62	45
233.834	234.328	64	46
233.86	234.328	65	47
233.887	234.328	67	48
233.913	234.328	69	50
233.939	234.328	71	51
233.965	234.328	72	52
233.991	234.328	74	53
234.017	234.328	76	54
234.043	234.328	77	56
234.069	234.328	79	57
234.094	234.328	81	58
234.12	234.328	83	59
234.145	234.328	84	60
234.17	234.328	86	61
234.196	234.328	88	63
234.221	234.328	89	64
234.246	234.328	91	65
234.271	234.328	93	66
234.294	234.328	95	81
234.595	234.751	47	51
234.595	234.751	54	51
234.595	234.751	57	61
234.595	234.751	59	56
234.595	234.751	63	56
234.597	234.753	71	67
234.907	235.606	47	59
234.907	235.606	56	64
234.907	235.088	59	64
234.907	235.12	64	64
234.907	235.226	71	76
235.069	235.094	60	48
235.094	235.12	62	50
235.12	235.606	64	51
235.147	235.606	65	52
235.174	235.606	67	53
235.2	235.606	69	55
235.226	235.606	71	56
235.251	235.606	72	57
235.277	235.606	74	59
235.303	235.606	76	60
235.329	235.606	77	61
235.354	235.606	79	62
235.38	235.606	81	64
235.405	235.606	83	65
235.43	235.606	84	66
235.455	235.606	86	67
235.481	235.606	88	69
235.506	235.606	89	70
235.531	235.606	91	71
235.555	235.606	93	73
235.58	235.606	95	85
235.881	236.037	47	56
235.881	236.037	51	56
235.881	236.037	54	67
235.881	236.037	59	67
235.881	236.037	71	62
235.881	236.037	75	62
235.881	236.037	78	73
235.881	236.037	83	73
236.194	236.374	47	65
236.194	236.374	52	65
236.194	236.374	56	70
236.194	236.374	59	70
236.194	236.374	71	70
236.194	236.374	76	70
236.194	236.374	80	83
236.194	236.374	83	83
236.534	236.883	69	51
236.534	236.883	72	60
236.559	236.883	67	52
236.559	236.883	74	61
236.584	236.883	65	53
236.584	236.883	76	63
236.609	236.883	64	56
236.61	236.883	77	64
236.634	236.883	62	57
236.635	236.883	79	65
236.66	236.883	60	58
236.66	236.883	81	67
236.685	236.883	59	59
236.685	236.883	83	68
236.709	236.883	57	60
236.709	236.883	84	69
236.734	236.883	55	61
236.734	236.883	86	71
236.759	236.883	53	62
236.759	236.883	88	72
236.783	236.883	52	63
236.784	236.883	89	73
236.808	236.883	50	64
236.808	236.883	91	75
236.832	236.883	48	66
236.832	236.883	93	76
236.856	236.894	47	88
236.856	236.883	95	93
237.158	237.316	47	63
237.158	237.316	51	63
237.158	237.316	54	77
237.158	237.316	59	77
237.158	237.316	71	71
237.158	237.316	75	71
237.158	237.316	78	83
237.158	237.316	83	83
237.474	237.649	47	71
237.474	237.649	52	71
237.474	237.649	56	77
237.474	237.649	59	77
237.474	237.649	71	77
237.474	237.649	76	77
237.474	237.649	80	91
237.474	237.649	83	91
237.808	238.153	69	56
237.808	238.153	72	63
237.833	238.153	67	57
237.833	238.153	74	65
237.859	238.153	65	58
237.859	238.153	76	67
237.884	238.153	64	61
237.884	238.153	77	69
237.909	238.153	62	62
237.91	238.153	79	70
237.935	238.153	60	63
237.935	238.153	81	72
237.96	238.153	59	64
237.96	238.153	83	74
237.985	238.153	57	66
237.985	238.153	84	76
238.01	238.153	55	67
238.01	238.153	86	77
238.035	238.153	53	68
238.035	238.153	88	79
238.059	238.153	52	69
238.06	238.153	89	81
238.085	238.153	50	70
238.085	238.153	91	82
238.11	238.153	48	72
238.11	238.153	93	84
238.134	238.172	47	96
238.134	238.157	95	102
238.436	238.594	47	63
238.436	238.594	51	63
238.436	238.594	54	77
238.436	238.594	59	77
238.436	238.594	71	71
238.436	238.594	75	71
238.436	238.594	78	83
238.436	238.594	83	83
238.751	239.309	40	68
238.751	239.309	52	81
238.751	239.32	76	81
238.751	239.32	88	92
238.894	239.32	78	69
238.894	239.32	90	79
239.034	239.32	56	49
239.034	239.32	64	58
239.034	239.32	80	69
239.034	239.32	92	79
239.172	239.32	81	69
239.172	239.32	93	79
239.309	239.871	40	60
239.309	239.871	52	71
239.309	239.586	83	77
239.309	239.586	95	88
239.448	239.871	82	64
239.448	239.871	94	73
239.586	239.871	56	46
239.586	239.871	64	55
239.586	239.871	83	64
239.586	239.871	95	73
239.727	239.871	86	64
239.727	239.871	98	73
239.871	240.022	40	64
239.871	240.022	52	77
239.871	240.022	86	78
239.871	240.022	98	89
240.171	240.51	56	50
240.171	240.51	64	60
240.171	241.038	85	77
240.171	241.038	97	88
240.476	241.038	40	61
240.476	241.038	52	72
240.757	241.038	56	50
240.757	241.038	64	60
240.757	241.613	83	69
240.757	241.613	95	79
241.038	241.603	33	66
241.038	241.603	45	78
241.183	241.613	76	69
241.183	241.613	88	79
241.325	241.613	52	49
241.325	241.613	60	49
241.325	241.613	64	58
241.325	241.613	78	69
241.325	241.613	90	79
241.464	241.613	80	69
241.464	241.613	92	79
241.603	242.171	33	60
241.603	242.171	45	71
241.603	241.884	81	77
241.603	241.884	93	88
241.743	242.171	80	64
241.743	242.171	92	73
241.884	242.171	52	49
241.884	242.171	60	49
241.884	242.171	64	58
241.884	242.171	81	64
241.884	242.171	93	73
242.026	242.171	84	64
242.026	242.171	96	73
242.171	242.323	33	60
242.171	242.323	45	71
242.171	242.323	83	78
242.171	242.323	95	89
242.473	242.807	52	51
242.473	242.807	60	51
242.473	242.807	64	61
242.473	243.065	81	77
242.473	243.065	93	88
242.771	243.362	36	61
242.771	243.362	48	73
243.065	243.362	52	52
243.065	243.362	57	52
243.065	243.362	64	62
243.065	243.362	81	69
243.065	243.362	93	79
243.358	243.932	35	64
243.358	243.932	47	77
243.358	243.942	71	81
243.358	243.942	83	92
243.503	243.942	72	69
243.503	243.942	84	79
243.644	243.942	55	49
243.644	243.942	59	49
243.644	243.942	64	58
243.644	243.942	75	69
243.644	243.942	87	79
243.783	243.942	76	69
243.783	243.942	88	79
243.932	244.506	35	58
243.932	244.506	47	69
243.932	244.213	79	77
243.932	244.213	91	88
244.072	244.506	78	64
244.072	244.506	90	73
244.213	244.506	55	46
244.213	244.506	59	46
244.213	244.506	64	55
244.213	244.506	79	64
244.213	244.506	91	73
244.358	244.506	81	64
244.358	244.506	93	73
244.506	244.654	37	72
244.506	244.654	49	85
244.506	244.654	79	78
244.506	244.654	91	89
244.802	245.139	54	50
244.802	245.139	58	50
244.802	245.139	64	60
244.802	245.393	78	77
244.802	245.393	90	88
245.104	245.686	36	63
245.104	245.686	48	75
245.393	245.686	54	52
245.393	245.686	58	52
245.393	245.686	64	62
245.393	245.686	78	69
245.393	245.686	90	79
245.683	246.258	35	69
245.683	246.258	47	82
245.683	246.269	71	81
245.683	246.269	83	92
245.834	246.269	72	69
245.834	246.269	84	79
245.979	246.269	54	49
245.979	246.269	57	49
245.979	246.269	63	59
245.979	246.269	75	69
245.979	246.269	87	79
246.119	246.269	76	69
246.119	246.269	88	79
246.258	246.86	35	61
246.258	246.86	47	73
246.258	246.698	78	77
246.258	246.698	90	88
246.403	246.85	76	55
246.403	246.85	88	73
246.547	246.86	54	48
246.547	246.86	57	48
246.547	246.86	63	57
246.547	246.86	79	72
246.547	246.86	91	85
246.698	246.86	78	67
246.698	246.86	90	79
246.85	247.456	52	61
246.85	247.456	55	61
246.85	247.456	64	73
246.85	247.456	76	77
246.85	247.456	88	91
246.994	247.49	75	64
246.994	247.49	87	78
247.066	247.49	47	47
247.103	247.49	57	47
247.139	247.49	63	56
247.139	247.49	79	72
247.139	247.49	91	85
247.293	247.49	78	64
247.293	247.49	90	78
247.456	247.62	52	51
247.456	247.62	55	51
247.456	247.62	64	61
247.456	247.538	76	71
247.456	247.538	88	83
248.028	248.11	40	81
248.028	248.11	52	92
248.11	248.4	40	81
248.11	248.4	52	92
248.253	248.4	42	69
248.253	248.4	54	79
248.393	248.681	44	69
248.393	248.681	56	79
248.53	248.681	45	69
248.53	248.681	57	79
248.668	248.945	47	77
248.668	248.945	59	88
248.807	248.958	46	64
248.807	248.958	58	73
248.945	249.24	47	64
248.945	249.24	59	73
249.086	249.24	50	64
249.086	249.24	62	73
249.158	249.24	64	81
249.158	249.24	76	92
249.24	249.382	50	78
249.24	249.382	62	89
249.24	249.311	64	81
249.24	249.311	76	92
249.382	249.528	66	69
249.382	249.528	78	79
249.522	250.087	48	77
249.522	250.075	52	77
249.522	250.075	56	77
249.522	250.087	60	88
249.522	249.809	68	69
249.522	249.809	80	79
249.66	249.809	69	69
249.66	249.809	81	79
249.797	249.867	71	77
249.797	249.867	83	88
249.936	250.087	70	64
249.936	250.087	82	73
250.075	250.379	47	69
250.075	250.379	52	69
250.075	250.379	56	69
250.075	250.379	59	79
250.075	250.379	71	64
250.075	250.359	83	73
250.216	250.359	74	64
250.216	250.359	86	73
250.359	250.659	74	78
250.359	250.659	80	78
250.359	250.659	83	78
250.359	250.659	86	89
250.507	250.659	40	69
250.507	250.659	52	79
250.65	250.939	42	69
250.65	250.939	54	79
250.65	251.202	72	77
250.65	251.202	81	77
250.65	251.211	84	88
250.787	250.939	44	69
250.787	250.939	56	79
250.925	251.202	45	77
250.925	251.202	57	88
251.064	251.211	44	64
251.064	251.211	56	73
251.202	251.516	45	64
251.202	251.516	57	73
251.202	251.516	69	69
251.202	251.516	72	69
251.202	251.516	76	69
251.202	251.516	81	79
251.343	251.516	48	64
251.343	251.516	60	73
251.497	251.639	50	78
251.497	251.639	62	89
251.639	251.788	64	69
251.639	251.788	76	79
251.779	252.332	45	77
251.779	252.332	48	77
251.779	252.332	52	77
251.779	252.332	57	88
251.779	252.068	66	69
251.779	252.068	78	79
251.917	252.068	68	69
251.917	252.068	80	79
252.054	252.332	69	77
252.054	252.332	81	88
252.193	252.341	68	64
252.193	252.341	80	73
252.332	252.636	45	69
252.332	252.636	48	69
252.332	252.636	52	69
252.332	252.636	57	79
252.332	252.636	69	64
252.332	252.636	81	73
252.473	252.616	72	64
252.473	252.616	84	73
252.616	252.691	35	81
252.616	252.691	47	92
252.616	252.918	72	78
252.616	252.918	84	89
252.765	252.918	36	69
252.765	252.918	48	79
252.908	253.197	39	69
252.908	253.197	51	79
252.908	253.461	71	77
252.908	253.461	76	77
252.908	253.461	79	77
252.908	253.47	83	88
253.046	253.197	40	69
253.046	253.197	52	79
253.184	253.461	43	77
253.184	253.461	55	88
253.322	253.47	42	64
253.322	253.47	54	73
253.461	253.755	43	64
253.461	253.755	55	73
253.461	253.778	67	69
253.461	253.778	71	69
253.461	253.778	76	69
253.461	253.778	79	79
253.602	253.778	45	64
253.602	253.778	57	73
253.755	254.049	43	78
253.755	254.049	55	89
253.755	253.827	58	81
253.755	253.827	70	92
253.898	254.049	61	69
253.898	254.049	73	79
254.038	254.6	42	77
254.038	254.59	46	77
254.038	254.6	49	77
254.038	254.6	54	88
254.038	254.334	64	69
254.038	254.334	76	79
254.176	254.334	65	69
254.176	254.334	77	79
254.313	254.59	66	77
254.313	254.59	78	88
254.452	254.6	65	64
254.452	254.6	77	73
254.59	254.875	34	69
254.59	254.875	46	79
254.59	254.875	66	64
254.59	254.875	78	73
254.731	254.875	64	64
254.731	254.875	76	73
254.875	255.474	35	33
254.875	255.023	47	39
254.875	255.474	63	51
254.875	255.474	75	51
255.023	255.171	47	34
255.023	255.171	51	34
255.023	255.171	54	34
255.023	255.171	59	40
255.023	255.474	64	52
255.023	255.474	76	52
255.171	255.317	47	35
255.171	255.317	51	35
255.171	255.317	54	35
255.171	255.317	59	42
255.171	255.474	66	54
255.171	255.474	78	54
255.317	255.463	47	36
255.317	255.463	51	36
255.317	255.463	54	36
255.317	255.463	59	43
255.317	255.474	68	55
255.317	255.474	80	55
255.463	255.607	47	38
255.463	255.607	51	38
255.463	255.607	54	38
255.463	255.607	59	45
255.463	256.044	69	57
255.463	256.044	81	57
255.607	255.75	47	39
255.607	255.75	51	39
255.607	255.75	54	39
255.607	255.75	59	46
255.607	256.044	70	58
255.607	256.044	82	58
255.75	255.891	47	40
255.75	255.891	51	40
255.75	255.891	54	40
255.75	255.891	59	48
255.75	256.044	71	60
255.75	256.044	83	60
255.891	256.032	47	41
255.891	256.032	51	41
255.891	256.032	54	41
255.891	256.032	59	49
255.891	256.044	72	61
255.891	256.044	84	61
256.032	256.169	47	43
256.032	256.169	51	43
256.032	256.169	54	43
256.032	256.169	59	51
256.032	256.597	73	63
256.032	256.597	85	63
256.169	256.303	47	44
256.169	256.303	51	44
256.169	256.303	54	44
256.169	256.303	59	52
256.169	256.597	74	64
256.169	256.597	86	64
256.303	256.433	47	45
256.303	256.433	51	45
256.303	256.433	54	45
256.303	256.433	59	54
256.303	256.597	75	66
256.303	256.597	87	66
256.433	256.561	47	46
256.433	256.561	51	46
256.433	256.561	54	46
256.433	256.561	59	55
256.433	256.597	76	67
256.433	256.597	88	67
256.561	257.076	47	48
256.561	257.076	51	48
256.561	257.076	54	48
256.561	257.076	59	57
256.561	256.657	77	72
256.561	256.657	89	72
256.69	257.076	78	70
256.69	257.076	90	70
256.818	257.076	79	71
256.818	257.076	91	71
256.947	257.076	80	74
256.947	257.076	92	74
257.076	257.463	47	70
257.076	257.463	81	65
257.076	257.463	93	77
257.198	257.463	63	61
257.321	257.463	51	61
257.321	257.463	85	57
257.321	257.463	97	68
257.447	257.581	66	61
257.581	257.912	54	70
257.581	257.912	73	64
257.581	257.912	85	76
257.703	257.912	69	63
257.826	257.948	57	63
257.826	257.948	75	59
257.826	257.948	87	70
257.948	258.578	73	63
258.071	258.564	56	70
258.071	258.578	76	57
258.071	258.578	88	68
258.188	258.578	71	59
258.188	258.578	78	59
258.188	258.578	90	70
258.306	258.578	52	61
258.306	258.578	80	61
258.306	258.578	92	72
258.429	258.578	68	63
258.429	258.578	81	62
258.429	258.578	93	74
258.564	258.685	56	73
258.564	258.685	83	64
258.564	258.685	95	76
258.685	258.807	71	62
258.807	258.932	52	62
258.807	258.932	85	61
258.807	258.932	97	72
258.932	259.45	68	62
259.063	259.45	47	70
259.063	259.45	81	65
259.063	259.45	93	77
259.186	259.45	63	61
259.308	259.45	51	61
259.308	259.45	85	57
259.308	259.45	97	68
259.434	259.568	66	61
259.568	259.846	54	70
259.568	259.846	73	64
259.568	259.846	85	76
259.689	259.846	69	63
259.81	259.931	57	63
259.81	259.931	75	59
259.81	259.931	87	70
259.931	260.052	73	63
260.052	260.549	56	70
260.052	260.566	76	57
260.052	260.566	88	68
260.171	260.566	71	59
260.171	260.566	78	59
260.171	260.566	90	70
260.29	260.566	52	61
260.29	260.566	80	61
260.29	260.566	92	72
260.414	260.566	68	63
260.414	260.566	81	62
260.414	260.566	93	74
260.549	260.671	56	73
260.549	260.671	83	64
260.549	260.671	95	76
260.671	260.792	71	62
260.792	260.914	52	62
260.792	260.914	85	61
260.792	260.914	97	72
260.914	261.16	68	62
261.036	261.307	52	70
261.036	261.307	86	65
261.036	261.307	98	77
261.16	261.307	68	61
261.284	261.411	56	61
261.284	261.411	90	57
261.284	261.411	102	68
261.411	261.545	71	61
261.545	261.818	59	70
261.545	261.818	78	64
261.545	261.818	90	76
261.667	261.818	74	63
261.79	261.912	62	63
261.79	261.912	80	59
261.79	261.912	92	70
261.912	262.521	78	63
262.035	262.521	61	70
262.035	262.521	81	57
262.035	262.521	93	68
262.157	262.521	76	59
262.157	262.521	83	59
262.157	262.521	95	70
262.28	262.521	57	61
262.28	262.521	85	61
262.28	262.521	97	72
262.406	262.541	73	63
262.406	262.521	87	62
262.406	262.521	99	74
262.541	262.663	61	73
262.541	262.663	88	64
262.541	262.663	100	76
262.663	262.784	76	62
262.784	262.906	58	62
262.784	262.906	90	61
262.784	262.906	102	72
262.906	263.028	73	62
263.028	263.538	63	70
263.028	263.541	83	57
263.028	263.541	95	68
263.152	263.541	78	59
263.152	263.541	85	59
263.152	263.541	97	70
263.276	263.541	59	61
263.276	263.541	87	61
263.276	263.541	99	72
263.403	263.541	75	63
263.403	263.541	88	62
263.403	263.541	100	74
263.538	263.667	63	73
263.538	263.667	90	64
263.538	263.667	102	76
263.667	263.796	71	62
263.796	263.925	59	62
263.796	263.925	92	61
263.796	263.925	104	72
263.925	264.057	69	62
264.057	264.194	64	48
264.057	264.194	68	57
264.057	264.194	88	63
264.057	264.194	100	75
264.316	264.445	59	45
264.316	264.445	63	45
264.316	264.445	66	45
264.316	264.445	71	53
264.316	264.445	83	62
264.316	264.445	87	62
264.316	264.445	90	62
264.316	264.445	95	73
264.575	264.804	52	45
264.575	264.804	56	45
264.575	264.804	59	45
264.575	264.804	64	54
264.575	264.804	88	65
264.575	264.804	92	65
264.575	264.804	95	65
264.575	264.804	100	77
264.834	265.108	66	66
264.834	265.108	78	76
264.964	265.108	68	63
264.964	265.108	80	71
265.093	265.519	35	77
265.093	265.519	69	71
265.093	265.519	81	84
265.216	265.519	51	67
265.338	265.519	39	67
265.338	265.519	73	62
265.338	265.519	85	74
265.464	265.598	54	67
265.598	265.873	42	77
265.598	265.873	61	70
265.598	265.873	73	83
265.725	265.873	57	69
265.851	265.977	45	69
265.851	265.977	63	64
265.851	265.977	75	77
265.977	266.104	61	69
266.104	266.598	44	77
266.104	266.598	64	62
266.104	266.598	76	74
266.225	266.598	59	64
266.225	266.598	66	64
266.225	266.598	78	77
266.346	266.598	40	67
266.346	266.598	68	67
266.346	266.598	80	79
266.471	266.606	56	69
266.471	266.598	69	68
266.471	266.598	81	81
266.606	266.73	44	80
266.606	266.73	71	70
266.606	266.73	83	83
266.73	266.854	59	68
266.854	266.98	40	68
266.854	266.98	73	67
266.854	266.98	85	79
266.98	267.538	56	68
267.112	267.538	35	77
267.112	267.538	69	71
267.112	267.538	81	84
267.237	267.538	51	67
267.363	267.538	39	67
267.363	267.538	73	62
267.363	267.538	85	74
267.491	267.625	54	67
267.625	267.92	42	77
267.625	267.92	61	70
267.625	267.92	73	83
267.75	267.92	57	69
267.876	268.002	45	69
267.876	268.002	63	64
267.876	268.002	75	77
268.002	268.127	61	69
268.127	268.625	44	77
268.127	268.625	64	62
268.127	268.625	76	74
268.248	268.625	59	64
268.248	268.625	66	64
268.248	268.625	78	77
268.369	268.625	40	67
268.369	268.625	68	67
268.369	268.625	80	79
268.495	268.629	56	69
268.495	268.625	69	68
268.495	268.625	81	81
268.629	268.754	44	80
268.629	268.754	71	70
268.629	268.754	83	83
268.754	268.879	59	68
268.879	269.004	40	68
268.879	269.004	73	67
268.879	269.004	85	79
269.004	269.255	56	68
269.128	269.376	40	77
269.128	269.383	74	71
269.128	269.383	86	84
269.255	269.383	56	67
269.383	269.512	44	67
269.383	269.512	78	62
269.383	269.512	90	74
269.512	269.646	59	67
269.646	269.915	47	77
269.646	269.915	66	70
269.646	269.915	78	83
269.771	269.915	62	69
269.897	270.023	50	69
269.897	270.023	68	64
269.897	270.023	80	77
270.023	270.148	66	69
270.148	270.648	49	77
270.148	270.697	69	62
270.148	270.697	81	74
270.268	270.697	64	64
270.268	270.697	71	64
270.268	270.697	83	77
270.389	270.697	45	67
270.389	270.697	73	67
270.389	270.697	85	79
270.514	270.697	61	69
270.514	270.697	75	68
270.514	270.697	87	81
270.648	270.774	49	80
270.648	270.774	76	70
270.648	270.774	88	83
270.774	270.9	64	68
270.9	271.033	46	68
270.9	271.033	78	67
270.9	271.033	90	79
271.033	272.189	61	68
271.167	272.189	47	51
271.167	272.189	59	60
271.167	272.189	71	61
271.167	272.189	83	72
271.296	272.189	46	52
271.296	272.189	58	62
271.296	272.189	73	62
271.296	272.189	85	74
271.425	272.189	45	54
271.425	272.189	57	64
271.425	272.189	75	64
271.425	272.189	87	76
271.553	272.189	44	56
271.553	272.189	56	66
271.553	272.189	76	65
271.553	272.189	88	77
271.681	272.189	42	57
271.681	272.189	54	68
271.681	272.189	78	67
271.681	272.189	90	79
271.809	272.189	40	59
271.809	272.189	52	70
271.809	272.189	80	68
271.809	272.189	92	81
271.936	272.189	39	61
271.936	272.189	51	72
271.936	272.189	81	70
271.936	272.189	93	83
272.063	272.189	37	62
272.063	272.189	49	74
272.063	272.189	82	71
272.063	272.189	94	84
272.189	272.316	35	64
272.189	272.316	47	76
272.189	272.316	83	71
272.189	272.316	95	84
272.444	272.573	33	60
272.444	272.573	45	71
272.444	272.573	84	75
272.444	272.573	87	75
272.444	272.573	96	89
272.704	272.837	32	64
272.704	272.837	44	76
272.704	272.837	85	79
272.704	272.837	88	79
272.704	272.837	97	94
272.971	273.107	30	62
272.971	273.107	42	73
272.971	273.107	87	84
272.971	273.107	90	84
272.971	273.107	99	99
273.245	273.383	28	64
273.245	273.383	40	76
273.245	273.383	88	88
273.245	273.383	92	88
273.245	273.383	100	104
273.799	273.937	33	63
273.799	273.937	37	63
273.799	273.937	41	63
273.799	273.937	45	75
273.799	273.937	89	87
273.799	273.937	93	87
273.799	273.937	96	87
273.799	273.937	101	103
274.648	274.705	35	47
274.648	274.705	39	47
274.648	274.705	42	47
274.648	274.705	47	57
274.648	274.705	83	65
274.648	274.705	87	65
274.648	274.705	90	65
274.648	274.705	95	77
274.705	274.9	35	59
274.705	274.9	39	59
274.705	274.9	42	59
274.705	274.9	47	71
274.705	274.9	83	82
274.705	274.9	87	82
274.705	274.9	90	82
274.705	274.9	95	97
274.978	275.035	40	47
274.978	275.035	44	47
274.978	275.035	47	47
274.978	275.035	52	57
274.978	275.035	76	65
274.978	275.035	80	65
274.978	275.035	83	65
274.978	275.035	88	77
275.035	275.243	40	59
275.035	275.243	44	59
275.035	275.243	47	59
275.035	275.243	52	71
275.035	275.243	76	82
275.035	275.243	80	82
275.035	275.243	83	82
275.035	275.243	88	97
275.307	275.364	45	47
275.307	275.364	48	47
275.307	275.364	53	47
275.307	275.364	57	57
275.307	275.364	77	65
275.307	275.364	81	65
275.307	275.364	84	65
275.307	275.364	89	77
275.364	275.526	45	59
275.364	275.526	48	59
275.364	275.526	53	59
275.364	275.526	57	71
275.364	275.526	77	82
275.364	275.526	81	82
275.364	275.526	84	82
275.364	275.526	89	97
275.633	275.686	47	47
275.633	275.686	51	47
275.633	275.686	54	47
275.633	275.686	59	57
275.633	275.686	71	65
275.633	275.686	75	65
275.633	275.686	78	65
275.633	275.686	83	77
275.686	275.875	47	59
275.686	275.875	51	59
275.686	275.875	54	59
275.686	275.875	59	71
275.686	275.875	71	82
275.686	275.875	75	82
275.686	275.875	78	82
275.686	275.875	83	97
275.951	276.005	40	47
275.951	276.005	44	47
275.951	276.005	47	47
275.951	276.005	52	57
275.951	276.005	64	65
275.951	276.005	68	65
275.951	276.005	71	65
275.951	276.005	76	77
276.005	276.169	40	59
276.005	276.169	44	59
276.005	276.169	47	59
276.005	276.169	52	71
276.005	276.169	64	82
276.005	276.169	68	82
276.005	276.169	71	82
276.005	276.169	76	97
276.271	276.325	33	42
276.271	276.325	36	42
276.271	276.325	41	42
276.271	276.325	45	51
276.271	276.325	65	58
276.271	276.325	69	58
276.271	276.325	72	58
276.271	276.325	77	69
276.325	276.502	33	53
276.325	276.502	36	53
276.325	276.502	41	53
276.325	276.502	45	63
276.325	276.502	65	74
276.325	276.502	69	74
276.325	276.502	72	74
276.325	276.502	77	87
276.606	276.665	35	42
276.606	276.665	39	42
276.606	276.665	42	42
276.606	276.665	47	51
276.606	276.665	59	58
276.606	276.665	63	58
276.606	276.665	66	58
276.606	276.665	71	69
276.665	276.9	35	53
276.665	276.9	39	53
276.665	276.9	42	53
276.665	276.9	47	63
276.665	276.9	59	74
276.665	276.9	63	74
276.665	276.9	66	74
276.665	276.9	71	87
276.994	277.041	28	42
276.994	277.041	32	42
276.994	277.041	35	42
276.994	277.041	40	51
276.994	277.041	52	58
276.994	277.041	56	58
276.994	277.041	59	58
276.994	277.041	64	69
277.041	282.452	28	53
277.041	282.452	32	53
277.041	282.452	35	53
277.041	277.4	40	63
277.041	277.4	52	74
277.041	277.748	56	74
277.041	277.748	59	74
277.041	277.4	64	87
277.4	282.452	40	59
277.4	282.452	44	59
277.4	282.452	47	59
277.4	277.748	52	71
277.4	277.748	64	82
277.4	278.166	68	82
277.4	278.166	71	82
277.4	277.748	76	97
277.748	282.452	52	65
277.748	282.452	56	65
277.748	282.452	59	65
277.748	278.166	64	77
277.748	278.166	76	90
277.748	282.452	80	90
277.748	282.452	83	90
277.748	278.166	88	107
278.166	282.452	64	65
278.166	282.452	68	65
278.166	282.452	71	65
278.166	282.452	76	77
278.166	282.452	88	90
278.166	282.452	92	90
278.166	282.452	95	90
278.166	282.452	100	107
