OnsetTime	OffsetTime	MidiPitch	Velocity
0.521985	6.70698	62	74
1.37998	5.74398	61	69
2.24099	6.73098	60	64
3.11499	6.73098	57	61
4.02198	6.73098	54	57
4.93898	5.78197	50	45
5.78298	5.85598	53	39
5.85697	6.73098	51	49
6.70698	7.08198	62	53
6.70998	7.47598	50	48
7.08198	7.20698	62	53
7.20698	7.47398	62	53
7.47297	8.21896	67	56
7.47398	8.21896	58	47
7.47398	8.21896	62	47
7.47598	8.22897	43	34
7.47598	8.22897	50	40
7.47998	8.23297	55	40
7.97798	8.23297	69	53
8.23297	9.00397	66	50
8.23597	9.00397	63	51
8.23597	9.00397	70	60
8.23696	9.00296	43	38
8.23997	9.00397	60	47
8.74397	9.00397	69	52
9.00096	9.78397	62	48
9.00197	9.52796	67	57
9.00296	9.78597	43	35
9.00296	9.78996	58	41
9.52796	9.78996	67	53
9.78297	10.155	60	53
9.78397	10.154	62	53
9.78597	10.55	43	35
9.78697	10.55	50	41
9.78697	10.553	57	41
10.154	10.283	62	53
10.155	10.28	60	53
10.28	10.553	60	53
10.283	10.55	62	53
10.546	11.2809	58	47
10.547	11.2809	67	56
10.55	11.2959	43	34
10.55	11.2949	50	40
10.55	11.2809	62	56
10.551	11.2959	55	40
11.0439	11.2979	69	53
11.2989	12.0759	63	60
11.2989	12.0759	66	51
11.3019	12.0759	70	60
11.3029	12.0729	43	38
11.3029	12.0759	60	47
11.8099	12.0759	69	51
12.0719	12.7339	62	41
12.0729	12.8629	43	35
12.0729	12.8629	58	41
12.0729	12.6009	67	57
12.6009	12.8629	67	53
12.8669	13.6609	54	41
12.8669	13.2449	58	53
12.8669	13.2489	62	53
12.8679	13.6609	42	35
13.2449	13.3819	58	53
13.2489	13.3809	62	53
13.3809	13.6609	62	53
13.3819	13.6569	58	53
13.6569	14.4519	58	60
13.6579	15.2849	41	39
13.6579	14.4689	50	48
13.6579	14.1829	65	60
14.1829	14.4729	65	58
14.4729	15.2849	57	58
14.4729	15.2849	65	58
14.4769	15.2849	51	42
15.0019	15.2849	62	57
15.2809	16.0909	53	61
15.2819	16.0899	46	48
15.2819	15.8179	58	61
15.2849	16.0909	50	48
15.8179	16.0869	58	62
16.0869	16.4789	58	59
16.0899	16.8989	39	39
16.0899	16.8989	46	48
16.0899	16.8989	55	59
16.4789	16.8959	58	59
16.6149	16.8989	60	53
16.8949	17.7189	53	49
16.8959	17.7179	58	49
16.8959	17.7189	62	49
16.8979	17.7189	34	36
16.8989	17.7179	46	42
17.7149	18.5199	54	46
17.7179	18.5199	39	48
17.7179	18.5189	46	48
17.7179	18.1069	58	55
18.1069	18.5159	58	50
18.2329	18.5199	60	56
18.5149	19.2749	62	57
18.5159	19.2749	53	48
18.5159	19.2749	58	57
18.5189	19.2959	34	38
18.5189	19.2959	46	46
19.0309	19.2969	65	60
19.2999	20.0839	57	56
19.2999	20.0839	63	66
19.3009	20.0839	48	46
19.3009	20.0839	67	66
19.3029	20.0839	41	38
19.8139	20.0839	65	56
20.0819	20.9589	62	58
20.0829	20.9589	53	49
20.0839	20.9589	46	48
20.0839	20.9309	58	52
20.6329	20.9589	60	52
20.9269	21.5119	55	49
20.9309	21.8129	39	33
20.9309	21.3549	58	49
20.9319	21.8129	51	39
21.3549	21.8129	58	48
21.5119	21.8129	55	41
21.5119	21.8129	60	41
21.5129	21.8129	45	37
21.8059	24.2069	57	40
21.8069	24.2069	54	36
21.8089	24.2109	62	49
21.8099	24.2109	38	31
21.8099	24.2109	50	38
24.2119	24.5839	74	53
24.5839	24.7049	74	53
24.7049	24.9739	74	53
24.9739	25.7189	70	47
24.9739	25.7189	74	47
24.9749	25.7189	79	56
24.9759	25.7329	55	34
24.9769	25.7339	62	40
24.9769	25.7339	67	40
25.4809	25.7359	81	53
25.7359	26.5139	75	47
25.7369	26.5139	78	51
25.7399	26.5139	82	60
25.7409	26.5099	55	36
25.7409	26.5139	72	44
26.2469	26.5139	81	51
26.5099	27.2909	55	35
26.5099	27.1949	74	48
26.5099	27.0349	79	57
26.5109	28.0509	70	41
27.0349	28.0499	79	53
27.2859	27.6549	72	53
27.2869	27.6579	74	53
27.2899	28.0529	62	41
27.2899	28.0529	69	41
27.2909	28.0509	55	35
27.6549	27.7849	72	53
27.6579	27.7839	74	53
27.7839	28.0509	74	53
27.7849	28.0529	72	53
28.0499	28.7838	79	56
28.0509	28.8019	55	34
28.0509	28.7838	70	47
28.0509	28.7838	74	56
28.0529	28.8049	62	40
28.0529	28.8029	67	40
28.5449	28.8059	81	53
28.8059	29.5829	78	52
28.8099	29.5829	75	52
28.8119	29.5829	82	60
28.8129	29.5798	55	33
28.8129	29.5829	72	44
29.3129	29.5829	81	51
29.5789	30.3528	74	57
29.5798	30.3628	55	35
29.5798	30.1078	79	57
29.5829	30.3668	70	41
30.1078	30.3668	79	53
30.3668	30.7518	70	53
30.3708	31.1618	54	35
30.3708	31.1618	66	41
30.3708	30.7488	74	53
30.7488	30.8858	74	53
30.7518	30.8848	70	53
30.8848	31.1578	70	53
30.8858	31.1618	74	53
31.1578	31.9558	70	60
31.1578	31.6898	77	60
31.1608	32.7928	53	36
31.1618	31.9728	62	48
31.6898	31.9728	77	55
31.9738	32.7928	69	51
31.9768	32.7928	63	42
31.9768	32.7928	77	58
32.5028	32.7888	70	61
32.7888	33.5968	65	55
32.7888	33.3208	70	61
32.7898	33.5968	62	48
32.7918	33.5968	58	48
33.3208	33.5898	70	62
33.5898	34.4028	67	59
33.5898	33.9828	70	59
33.5908	34.4028	63	48
33.5938	34.4028	51	39
33.9828	34.4018	70	59
34.1218	34.4028	72	58
34.3978	35.2218	65	49
34.3988	35.2218	74	49
34.4018	35.2188	70	49
34.4028	35.2218	46	36
34.4028	35.2218	58	42
35.2178	36.0228	66	46
35.2188	35.6068	70	55
35.2218	36.0228	51	48
35.2218	36.0218	58	48
35.6068	36.0198	70	50
35.7398	36.0228	72	56
36.0158	36.7788	74	57
36.0188	36.7788	65	48
36.0198	36.7958	46	38
36.0198	36.7788	70	57
36.0218	36.7958	58	46
36.5338	36.7968	77	57
36.7998	37.5938	69	56
36.7998	37.5938	75	56
36.8008	37.5938	79	66
36.8028	37.5938	53	38
36.8028	37.5938	60	46
37.3218	37.5938	77	56
37.5898	38.4628	74	58
37.5908	38.4628	65	49
37.5908	38.4308	70	58
37.5918	38.4628	58	48
38.1338	38.4628	72	52
38.4308	39.3128	67	49
38.4308	38.8578	70	49
38.4318	39.3128	63	39
38.4338	39.3128	51	33
38.8578	39.3128	70	48
39.0118	39.3128	72	41
39.0128	39.3128	57	37
39.3088	42.5368	74	49
39.3098	42.5368	50	31
39.3098	42.5368	66	40
39.3098	42.5368	69	40
39.3128	41.7698	62	38
41.7698	42.1448	62	53
42.1448	42.2638	62	53
42.2638	42.5338	62	53
42.5338	43.2778	59	47
42.5338	43.2778	62	47
42.5358	44.0728	56	40
42.5358	43.2778	65	56
42.5368	44.0728	43	34
43.0408	43.2778	67	54
43.2298	43.2988	70	51
43.2988	44.0698	62	60
43.2998	44.0688	59	51
43.3028	44.0728	68	60
43.8078	44.0728	67	55
44.0688	44.7828	59	48
44.0698	44.7828	62	48
44.0698	44.5978	65	57
44.0728	45.6308	43	35
44.0728	44.8458	55	41
44.5978	44.8468	65	53
44.8468	45.6308	56	53
44.8478	45.6308	53	41
44.8478	45.6248	59	53
45.2148	45.6308	60	53
45.2168	45.6308	51	39
45.3438	45.6238	62	53
45.3468	45.6308	50	40
45.6238	46.3748	62	47
45.6248	46.3748	59	47
45.6268	46.3748	65	56
45.6308	47.1608	43	34
45.6308	47.1598	56	40
46.1278	46.3748	67	58
46.3238	46.3858	70	51
46.3868	47.1568	59	51
46.3868	47.1598	62	53
46.3888	47.1608	68	60
46.9008	47.1608	67	55
47.1568	47.9438	59	48
47.1568	47.6848	65	57
47.1598	47.9478	56	41
47.1598	47.9478	62	48
47.1608	47.8738	43	35
47.6848	47.9478	65	53
47.8738	48.7288	43	66
47.9378	48.7288	74	67
47.9408	48.3148	67	67
47.9408	48.3148	77	79
47.9408	48.3148	79	79
47.9438	48.7288	59	62
48.3118	48.7288	70	61
48.3148	48.4438	67	61
48.3148	48.4418	77	72
48.3148	48.4418	79	72
48.3178	48.7288	61	55
48.4418	48.7288	77	72
48.4418	48.7238	79	72
48.4438	48.7288	67	61
48.4438	48.7288	71	61
48.4448	48.7288	62	57
48.7208	49.2328	87	70
48.7218	49.4348	91	84
48.7238	49.2318	79	70
48.7248	49.4348	84	70
48.7278	49.4348	36	69
48.7288	49.4348	48	69
49.2318	49.4908	75	68
49.2318	49.4948	79	68
49.2328	49.4948	87	81
49.2358	49.4978	60	50
49.2358	49.4988	67	50
49.2358	49.4978	72	60
49.4988	49.8658	79	72
49.5018	50.2508	75	72
49.5028	49.8668	67	53
49.5028	50.2508	87	85
49.5048	49.8688	60	53
49.5048	49.8688	72	64
49.8628	50.2468	74	67
49.8658	49.9948	79	67
49.8658	50.2478	86	79
49.8668	49.9958	67	52
49.8688	49.9958	60	52
49.8688	49.9958	72	62
49.9918	50.2508	84	79
49.9948	50.2508	79	67
49.9958	50.2498	60	52
49.9958	50.2508	67	62
49.9958	50.2508	72	67
50.2468	50.6148	74	72
50.2468	50.6148	77	72
50.2478	50.9048	86	85
50.2498	50.6158	60	53
50.2508	50.6178	68	53
50.2508	50.6138	71	64
50.6138	50.7368	71	62
50.6148	50.7338	74	62
50.6148	50.9048	77	74
50.6158	50.7368	60	49
50.6178	50.7378	68	59
50.7338	50.9188	74	62
50.7338	50.9178	79	74
50.7368	50.9228	60	49
50.7368	50.9218	71	62
50.7378	50.9228	68	59
50.9258	50.9888	82	66
50.9918	51.7558	80	78
50.9928	51.3698	74	64
50.9957	51.3708	60	50
50.9957	51.3678	71	64
50.9968	51.3698	68	61
51.3678	51.4977	71	62
51.3678	51.7558	79	73
51.3698	51.4977	68	58
51.3698	51.4968	74	62
51.3708	51.4998	60	48
51.4968	51.7558	74	58
51.4968	51.7558	77	69
51.4977	51.7558	68	55
51.4977	51.7558	71	58
51.4998	51.7558	60	45
51.7518	52.1207	72	66
51.7518	52.1198	75	80
51.7528	52.1227	67	61
51.7558	52.1238	60	50
52.1198	52.2497	75	62
52.1207	52.2517	72	62
52.1227	52.2528	67	57
52.1227	52.4308	78	74
52.1238	52.2528	60	47
52.2497	52.5007	75	62
52.2508	52.5007	79	74
52.2517	52.5007	72	62
52.2528	52.5047	60	47
52.2528	52.5018	67	57
52.5067	53.2607	75	72
52.5077	52.8757	79	72
52.5077	53.2607	87	85
52.5087	52.8827	67	53
52.5087	52.8808	72	64
52.5107	52.8797	60	53
52.8757	52.9987	79	67
52.8788	53.2537	74	67
52.8797	53.0017	60	52
52.8797	53.2577	86	79
52.8808	53.0007	72	62
52.8827	53.0017	67	52
52.9987	53.2607	79	63
52.9987	53.2607	84	75
53.0007	53.2607	72	63
53.0017	53.2597	60	49
53.0017	53.2607	67	49
53.2537	53.6277	74	72
53.2567	53.6247	77	72
53.2577	53.6287	68	53
53.2577	53.6277	71	64
53.2577	53.9147	86	85
53.2597	53.6287	60	53
53.6247	53.9147	77	74
53.6277	53.7508	71	62
53.6277	53.7477	74	62
53.6287	53.7508	60	49
53.6287	53.7508	68	59
53.7467	53.9317	79	74
53.7477	53.9357	74	62
53.7508	53.9368	60	49
53.7508	53.9368	68	59
53.7508	53.9357	71	62
53.9387	54.0058	82	67
54.0058	54.6708	80	78
54.0067	54.3808	71	64
54.0067	54.3817	74	64
54.0077	54.3838	60	50
54.0097	54.3817	68	61
54.3808	54.5067	71	62
54.3808	54.6708	79	73
54.3817	54.5107	68	58
54.3817	54.5098	74	62
54.3838	54.5107	60	48
54.5067	54.7577	71	62
54.5078	54.7588	77	73
54.5098	54.7588	74	62
54.5107	54.7617	60	48
54.5107	54.7617	68	58
54.7617	55.1257	75	80
54.7628	55.1257	72	66
54.7658	55.4998	60	50
54.7658	55.5007	67	61
55.1257	55.2487	72	62
55.1257	55.2487	75	62
55.1267	55.4397	78	74
55.2477	55.5038	79	74
55.2487	55.5047	72	62
55.2487	55.5047	75	62
55.5047	55.9938	74	68
55.5067	55.8777	79	68
55.5077	56.2528	58	50
55.5077	56.2528	67	50
55.5077	56.2487	86	81
55.8777	56.1858	79	74
55.9938	56.2487	74	74
56.2538	56.6288	79	68
56.2557	56.7468	72	68
56.2557	56.8758	84	81
56.2568	57.7608	57	50
56.2568	57.6988	63	50
56.6288	56.8718	79	70
56.7468	56.8768	72	68
56.8788	57.0158	81	62
56.9388	57.6988	84	62
57.0128	57.6988	72	51
57.0128	57.6988	74	51
57.0138	57.6988	78	51
57.0158	57.7658	62	50
57.0158	57.5098	81	72
57.3908	57.6988	79	69
57.5098	57.7678	81	69
57.7688	58.4608	70	68
57.7688	58.5308	82	81
57.7698	58.2688	74	68
57.7718	58.5318	62	50
57.7728	59.2978	55	50
58.1498	58.4608	79	74
58.2688	58.5318	74	74
58.5348	59.2348	82	72
58.5358	59.0428	74	72
58.5358	58.9178	79	72
58.5358	59.2348	86	72
58.5378	59.2978	64	50
58.9178	59.2348	79	69
59.0428	59.2988	74	69
59.2988	59.8088	69	57
59.3018	59.6827	74	68
59.3018	60.0638	81	68
59.3028	60.8627	57	50
59.3028	60.0647	65	50
59.6827	59.9948	74	74
59.8088	60.0647	69	56
60.0677	60.8627	73	61
60.0687	60.8627	79	61
60.0707	60.5867	81	72
60.0717	60.8627	64	50
60.4527	60.8627	82	69
60.5867	60.8587	81	69
60.5897	60.8627	67	45
60.8587	61.6177	81	67
60.8587	61.6187	86	79
60.8597	61.6227	74	67
60.8627	61.2357	62	53
60.8627	61.6227	66	45
61.2367	61.3627	61	50
61.3637	61.6227	62	50
61.6257	62.3917	62	53
61.9997	62.1297	74	63
62.1297	62.3927	74	63
62.3857	63.1617	75	71
62.3877	63.1757	72	60
62.3887	63.1757	69	60
62.3917	62.8937	62	49
62.3917	63.9327	67	49
62.7707	63.1757	61	42
62.7707	63.1627	79	61
62.8927	63.1757	82	61
62.8937	63.1657	62	49
63.1617	63.9327	75	58
63.1627	63.6587	79	58
63.1657	63.9317	62	50
63.1657	63.9327	86	69
63.5367	63.9327	84	63
63.6587	63.9327	79	63
63.9287	64.7267	72	56
63.9287	64.4367	81	71
63.9297	64.7267	74	56
63.9317	64.4367	62	49
63.9327	65.4767	66	49
64.3097	64.7267	82	61
64.3107	64.7267	61	42
64.4367	64.7057	62	49
64.4367	64.7267	81	61
64.6987	65.4767	75	58
64.7017	65.0777	78	58
64.7017	65.4767	84	69
64.7057	65.4757	62	50
65.0767	65.4757	74	53
65.0777	65.2057	78	53
65.0777	65.4767	82	63
65.2037	65.4767	72	53
65.2057	65.4767	78	53
65.2067	65.4767	81	63
65.4717	65.9827	70	60
65.4757	65.8577	62	49
65.4757	65.9837	74	60
65.4757	65.9837	79	71
65.8537	66.2517	72	51
65.8577	65.9857	62	42
65.8577	66.2797	75	51
65.8577	66.2797	81	61
65.9827	66.2797	70	51
65.9837	66.2797	74	51
65.9837	66.2797	79	61
65.9857	66.2527	62	49
66.2497	67.0407	69	55
66.2497	67.0437	77	64
66.2517	67.0437	72	55
66.2527	67.0437	62	50
66.6377	67.0397	74	49
66.6377	67.0437	79	58
66.6407	66.7667	70	49
66.7647	67.0437	75	58
66.7667	67.0437	67	49
66.7667	67.0437	70	49
67.0397	67.9177	74	61
67.0407	67.9177	66	51
67.0407	67.9177	69	51
67.0437	67.5687	62	49
67.4357	67.9177	63	39
67.5687	67.8407	62	44
67.8407	68.2437	62	44
68.2437	68.3767	62	47
68.3767	68.6427	62	47
68.6427	69.4506	60	53
68.6437	69.4506	57	53
68.6467	70.2006	55	44
68.6467	69.4276	63	63
68.6477	69.1636	50	44
69.0287	69.4506	49	38
69.0287	69.4276	67	55
69.1616	69.4506	70	55
69.1636	69.4296	50	44
69.4276	70.2006	63	51
69.4276	69.9276	67	51
69.4276	70.2006	74	61
69.4296	70.2006	50	45
69.7986	70.2006	72	57
69.9276	70.2006	67	57
70.1966	70.7076	69	63
70.1976	70.9946	62	48
70.1996	71.7466	54	44
70.1996	70.9946	60	45
70.2006	70.7086	50	44
70.5796	70.9946	49	38
70.5796	70.9946	70	55
70.7076	70.9946	69	55
70.7086	70.9736	50	44
70.9706	71.7466	66	51
70.9716	71.7466	63	51
70.9716	71.7466	72	61
70.9736	71.7446	50	45
71.3456	71.7466	70	57
71.4706	71.7466	69	57
71.7406	72.2626	67	63
71.7446	72.1326	50	44
71.7446	72.2656	58	53
71.7446	72.2656	62	53
72.1296	72.5906	69	55
72.1316	72.5396	60	46
72.1326	72.2666	50	38
72.1326	72.5906	63	46
72.2626	72.5906	67	55
72.2656	72.5906	58	46
72.2656	72.5906	62	46
72.2666	72.5396	50	44
72.5356	73.3646	65	58
72.5386	73.3616	57	49
72.5396	73.3636	50	45
72.5396	73.3646	60	49
72.9376	73.0706	58	42
72.9376	73.3646	67	51
72.9386	73.3616	62	42
73.0696	73.3646	63	51
73.0706	73.3646	55	42
73.0706	73.3646	58	42
73.3616	74.1726	57	58
73.3616	74.1696	62	58
73.3636	73.5956	50	38
73.3636	74.1696	54	38
73.4906	73.6266	49	38
73.6306	73.8786	50	38
73.7646	73.8966	49	37
73.8966	74.1726	50	38
74.0326	74.1726	49	33
74.1656	74.9676	60	53
74.1696	74.9676	54	38
74.1696	74.5616	62	53
74.1706	74.6946	51	38
74.2996	74.5616	50	33
74.4326	74.9676	49	38
74.5616	74.8236	50	34
74.5616	74.6946	62	53
74.6946	74.9676	51	38
74.6946	74.9646	62	53
74.8236	74.9676	50	30
74.9646	75.7586	58	47
74.9646	75.7586	62	47
74.9656	75.7586	67	56
74.9676	75.7586	43	37
74.9676	75.7586	55	37
75.0876	75.7586	54	40
75.2226	75.7586	53	41
75.3496	75.7586	52	42
75.4786	75.7586	69	56
75.4796	75.7586	51	44
75.6086	75.7586	50	47
75.7476	76.5356	63	51
75.7476	76.5356	66	60
75.7486	76.5356	49	47
75.7486	76.5356	70	60
75.8706	76.5356	50	44
76.0006	76.5356	51	42
76.1326	76.5356	52	41
76.2626	76.5356	53	40
76.2626	76.5356	69	55
76.3916	76.5356	54	40
76.5286	77.0636	58	48
76.5296	77.0636	62	48
76.5326	77.3576	43	41
76.5326	76.7946	55	41
76.5326	77.0676	67	57
76.6616	76.8296	54	36
76.7946	77.0286	55	41
76.9276	77.0686	50	37
77.0706	77.3576	67	53
77.0716	77.3576	49	41
77.1976	77.3576	50	36
77.3236	77.7076	60	53
77.3266	77.7086	62	53
77.3276	78.1066	54	41
77.4486	77.7116	50	40
77.5786	78.1066	49	41
77.7076	77.8376	60	53
77.7086	77.8376	62	53
77.7116	77.9675	50	36
77.8376	78.1066	51	42
77.8376	78.1066	60	49
77.8376	78.1035	62	49
77.9675	78.1066	50	41
78.1035	78.8656	58	47
78.1035	78.8656	62	56
78.1046	78.8656	55	37
78.1046	78.8656	67	56
78.1066	78.8695	43	37
78.2266	78.8656	54	40
78.3565	78.8656	53	42
78.4785	78.8656	52	44
78.6146	78.8656	51	44
78.6146	78.8706	69	53
78.7366	78.8726	50	42
78.8735	79.6675	63	60
78.8765	79.6675	66	60
78.8775	79.6675	49	42
78.8775	79.6675	70	60
79.0025	79.6675	50	41
79.1295	79.6675	51	40
79.2625	79.6675	52	37
79.3915	79.6675	69	52
79.3945	79.6675	53	41
79.5215	79.6675	54	41
79.6615	80.2065	58	43
79.6645	80.2075	62	48
79.6645	80.2075	67	57
79.6655	80.5145	43	41
79.6675	79.9345	55	41
79.7945	79.9375	54	36
79.9345	80.1995	55	41
80.0665	80.2095	50	37
80.2105	80.5145	67	53
80.2135	80.5145	49	47
80.3365	80.5145	50	42
80.4705	80.8655	58	53
80.4725	80.8675	62	53
80.4735	81.2825	42	47
80.5955	80.8685	50	41
80.7285	81.2825	49	40
80.8655	80.9985	58	53
80.8675	81.0015	62	53
80.8685	81.1345	50	41
80.9985	81.2775	58	49
81.0015	81.2825	51	41
81.0015	81.2825	62	49
81.1345	81.2815	50	41
81.2775	81.8205	58	60
81.2815	81.5505	50	49
81.2815	81.8175	65	60
81.2825	82.1115	41	49
81.4145	81.5645	49	40
81.5505	81.8195	50	49
81.6805	81.8205	49	40
81.8175	82.1075	65	58
81.8195	82.1115	50	48
81.9605	82.1115	49	42
82.1075	82.6705	57	58
82.1075	82.6705	65	58
82.1105	82.3735	51	47
82.1115	82.9305	41	47
82.2405	82.4125	50	41
82.3735	82.6705	51	48
82.5065	82.6705	48	41
82.6495	82.9275	53	47
82.6495	82.9305	62	55
82.7855	82.9305	51	41
82.9275	83.4685	53	61
82.9295	83.7485	46	47
82.9295	83.4695	58	61
82.9305	83.1965	50	47
83.0635	83.2135	49	38
83.1965	83.4435	50	47
83.3365	83.4695	49	38
83.4715	83.7495	58	62
83.4725	83.7075	50	47
83.6085	83.7495	49	41
83.7505	84.2925	55	59
83.7525	84.5724	39	47
83.7525	84.1515	58	59
83.8815	84.5724	45	41
84.0085	84.5724	46	48
84.1515	84.5714	58	59
84.1525	84.4235	51	44
84.2915	84.5724	60	58
84.2925	84.5724	55	52
84.4235	84.5724	51	41
84.5684	84.8404	53	49
84.5714	85.3904	58	49
84.5714	85.4674	62	49
84.5724	85.2504	46	49
84.7014	85.4674	52	44
84.8404	85.4674	53	48
84.9704	85.4674	49	41
85.1144	85.4674	50	49
85.2504	85.4674	46	41
85.3894	85.9294	54	46
85.3904	86.2094	39	47
85.3904	85.7894	58	55
85.5194	86.2094	45	41
85.6534	86.2094	46	42
85.7894	86.2064	58	50
85.7904	86.0614	52	41
85.9294	86.2094	54	47
85.9294	86.2094	60	56
86.0614	86.2094	52	41
86.2064	86.9864	53	48
86.2064	86.9864	58	57
86.2094	86.4644	46	48
86.2094	86.9864	62	57
86.3354	86.9864	45	41
86.4644	86.8634	46	48
86.5984	86.9864	49	44
86.7354	87.0034	65	60
86.7374	86.9864	50	47
86.8634	87.0044	46	41
87.0044	87.8684	57	56
87.0074	87.8684	63	66
87.0074	87.8684	67	66
87.0104	87.6724	41	52
87.1404	87.8684	47	41
87.2704	87.8684	48	44
87.4064	87.8684	50	47
87.5434	87.8684	51	48
87.5434	87.8684	65	56
87.6724	87.8684	41	41
87.8084	88.7084	62	58
87.8094	88.0924	46	49
87.8094	88.7084	53	49
87.8094	88.6734	58	51
87.9514	88.7084	45	41
88.0924	88.5194	46	47
88.2294	88.7084	49	40
88.3734	88.7084	50	47
88.3734	88.7084	60	52
88.5194	88.7084	46	41
88.6704	89.2654	55	49
88.6734	89.1144	58	49
88.6744	89.5834	39	44
88.8164	89.4154	45	41
88.9604	89.5834	46	44
89.1144	89.5834	58	48
89.1154	89.5834	48	37
89.2654	89.5834	55	41
89.2674	89.5834	60	41
89.2684	89.5834	51	41
89.4154	89.5834	45	37
89.5794	92.8804	54	40
89.5804	92.8804	57	40
89.5804	92.1104	62	49
89.5814	89.8804	38	47
89.7374	89.8974	49	41
89.9024	90.2124	50	47
90.0454	90.2124	44	41
90.1914	90.4404	46	47
90.3264	90.4584	45	41
90.4584	90.7034	41	47
90.5984	90.7314	42	41
90.7314	90.9694	37	47
90.8644	90.9974	38	41
90.9984	91.3414	32	47
91.1624	91.3414	33	41
91.3414	92.8804	38	49
92.1104	92.4854	62	53
92.4854	92.6084	62	53
92.6084	92.8774	62	53
92.8764	93.6224	59	47
92.8774	94.4104	43	34
92.8774	93.6224	62	47
92.8774	93.6224	65	56
92.8804	94.4114	56	40
93.3814	93.6224	67	56
93.5774	93.6394	70	51
93.6394	94.4074	59	51
93.6434	94.4104	62	60
93.6434	94.4134	68	60
94.1474	94.4134	67	56
94.4074	95.1874	59	48
94.4104	95.9714	43	35
94.4104	95.2004	62	48
94.4104	94.9384	65	57
94.4114	95.1874	56	41
94.9384	95.2004	65	53
95.1874	95.9724	53	41
95.1874	95.9714	56	53
95.1874	95.9654	59	53
95.5624	95.9724	60	53
95.5644	95.9724	51	39
95.6844	95.9674	62	53
95.6874	95.9724	50	40
95.9654	96.7154	59	47
95.9674	96.7154	62	47
95.9684	96.7154	65	56
95.9714	97.5014	43	34
95.9714	97.5014	56	40
96.4754	96.7154	67	58
96.6644	96.7264	70	51
96.7273	97.4963	59	51
96.7304	97.4973	62	60
96.7304	97.5034	68	60
97.2414	97.5034	67	59
97.4963	98.2883	59	48
97.4973	98.2883	62	48
97.5003	98.0243	65	57
97.5014	98.2143	43	35
97.5014	98.2883	56	41
98.0243	98.2883	65	53
98.2143	99.0653	43	66
98.2813	98.6553	67	67
98.2843	99.0653	74	67
98.2843	98.6563	77	79
98.2843	98.6583	79	79
98.2883	99.0653	59	62
98.6553	98.7823	67	61
98.6553	99.0653	70	61
98.6563	98.7843	77	72
98.6583	98.7853	79	72
98.6593	99.0653	61	55
98.7823	99.0653	67	61
98.7843	99.0653	71	61
98.7843	99.0653	77	72
98.7853	99.0653	62	57
98.7853	99.0653	79	72
99.0623	100.643	87	70
99.0623	101.378	91	84
99.0643	100.514	84	70
99.0653	101.378	36	69
99.0653	100.392	79	70
99.1943	101.378	43	61
99.3273	101.378	48	61
99.4683	101.378	51	61
99.6043	101.378	55	69
99.7413	101.378	60	61
99.8733	101.378	63	61
100.003	101.378	67	61
100.135	101.378	72	59
100.265	101.378	75	63
100.392	101.378	79	68
100.514	101.378	84	72
100.643	101.462	87	79
101.466	101.851	63	58
101.466	101.854	67	58
101.467	102.275	69	58
101.469	102.275	60	53
101.851	101.98	63	58
101.854	101.981	67	58
101.854	102.275	70	70
101.855	102.275	58	51
101.98	102.27	63	58
101.981	102.271	67	58
101.981	102.271	72	70
101.983	102.275	57	52
102.27	103.051	63	63
102.271	103.047	67	63
102.271	103.051	72	77
102.274	103.09	75	77
102.275	103.09	57	59
103.047	103.43	67	58
103.048	103.433	69	58
103.051	103.863	63	59
103.051	103.863	72	70
103.43	103.563	67	63
103.433	103.566	69	63
103.433	103.863	74	77
103.434	103.863	62	57
103.563	103.86	67	62
103.566	103.863	60	57
103.566	103.86	69	62
103.566	103.861	75	74
103.86	104.983	67	70
103.86	105.004	69	70
103.861	105.004	75	82
103.863	104.98	60	61
103.863	105.004	81	82
104.98	105.815	60	58
104.983	105.815	63	58
104.983	105.5	67	69
104.984	105.815	57	52
105.365	105.815	69	60
105.5	105.771	67	58
105.771	106.573	62	58
105.771	106.572	67	58
105.772	106.575	74	69
105.773	106.575	58	51
105.774	106.306	50	51
106.174	106.502	49	41
106.306	106.576	50	47
106.576	107.36	50	47
106.961	107.089	62	57
107.09	107.363	62	57
107.363	108.22	60	56
107.364	108.155	63	67
107.367	107.889	50	49
107.367	108.957	55	49
107.367	108.22	57	56
107.752	108.157	67	59
107.754	108.22	49	41
107.888	108.22	69	59
107.889	108.158	50	49
108.155	108.957	63	57
108.157	108.952	67	57
108.158	108.956	50	48
108.158	108.957	72	68
108.54	108.953	74	59
108.669	108.957	75	59
108.952	109.779	67	56
108.953	109.816	74	67
108.956	109.499	50	49
108.956	109.816	62	56
108.957	109.779	58	49
109.358	109.816	49	41
109.499	109.816	50	49
109.775	110.576	61	55
109.779	110.574	51	48
109.779	110.576	58	48
109.779	110.576	67	66
110.16	110.576	72	56
110.293	110.576	70	59
110.57	111.406	60	55
110.573	111.416	68	66
110.574	111.416	44	48
110.574	111.416	51	48
110.968	111.416	72	55
111.102	111.329	67	56
111.246	111.406	66	55
111.329	111.416	67	56
111.406	112.263	60	52
111.406	111.959	66	62
111.409	112.26	50	48
111.819	112.263	64	55
111.959	112.263	66	55
112.26	112.813	50	49
112.26	113.138	58	44
112.26	113.138	67	52
112.262	113.138	43	49
112.68	113.138	51	41
112.813	113.09	50	49
113.085	113.852	57	45
113.089	113.453	60	45
113.089	113.454	62	53
113.09	113.849	50	48
113.453	113.579	60	45
113.454	113.583	62	53
113.579	113.852	60	45
113.583	113.845	62	53
113.845	114.587	58	47
113.845	114.587	62	47
113.846	114.587	67	56
113.849	114.608	43	34
113.849	114.609	50	40
113.849	114.609	55	40
114.349	114.61	69	55
114.611	115.382	63	51
114.612	115.382	66	50
114.612	115.382	70	60
114.615	115.379	43	38
114.616	115.382	60	47
115.116	115.382	69	53
115.378	116.155	62	48
115.379	116.159	43	35
115.379	116.169	58	41
115.379	115.904	67	57
115.904	116.169	67	53
116.155	116.529	60	53
116.155	116.534	62	53
116.159	116.919	43	35
116.159	116.919	50	41
116.159	116.922	57	41
116.529	116.653	60	53
116.534	116.653	62	53
116.653	116.922	60	51
116.653	116.918	62	51
116.915	117.65	58	47
116.918	117.65	62	56
116.919	117.667	43	34
116.919	117.667	50	40
116.919	117.65	67	56
116.921	117.668	55	40
117.408	117.668	69	55
117.671	118.445	63	51
117.672	118.445	66	51
117.672	118.445	70	60
117.674	118.444	43	38
117.675	118.445	60	47
118.174	118.445	69	51
118.442	119.232	62	51
118.444	119.274	43	35
118.444	119.231	58	41
118.444	118.974	67	57
118.974	119.274	67	53
119.231	119.618	58	53
119.232	120.031	42	35
119.232	120.031	54	41
119.232	119.62	62	53
119.618	119.753	58	53
119.62	119.754	62	53
119.753	120.026	58	50
119.754	120.031	62	50
120.026	120.824	58	60
120.03	121.655	41	39
120.03	120.841	50	48
120.03	120.552	65	60
120.552	120.842	65	58
120.842	121.655	57	58
120.845	121.655	51	42
120.845	121.655	65	58
121.37	121.655	62	56
121.651	122.463	53	61
121.654	122.462	46	45
121.654	122.463	50	45
121.654	122.19	58	61
122.19	122.459	58	62
122.458	123.265	55	59
122.459	123.265	39	39
122.459	122.852	58	59
122.462	123.265	46	48
122.852	123.264	58	59
122.984	123.265	60	58
123.26	124.09	53	49
123.261	124.09	62	49
123.264	124.09	34	36
123.264	124.087	58	49
123.265	124.09	46	42
124.087	124.884	54	46
124.087	124.469	58	55
124.089	124.884	39	48
124.09	124.884	46	48
124.469	124.881	58	50
124.604	124.884	60	56
124.881	125.647	53	48
124.881	125.647	58	57
124.882	125.647	62	57
124.884	125.657	34	38
124.884	125.658	46	46
125.396	125.661	65	60
125.662	126.45	57	56
125.664	126.45	63	66
125.665	126.45	41	38
125.665	126.45	48	46
125.665	126.45	67	66
126.186	126.45	65	56
126.445	127.323	62	58
126.449	127.323	53	49
126.449	127.295	58	52
126.45	127.323	46	48
126.998	127.323	60	52
127.293	127.874	55	49
127.295	127.723	58	49
127.296	128.178	39	33
127.296	128.178	51	39
127.723	128.178	58	48
127.874	128.178	55	41
127.877	128.178	45	37
127.877	128.178	60	41
128.171	130.571	54	38
128.172	130.572	57	40
128.172	130.572	62	49
128.175	130.575	38	31
128.175	130.576	50	35
130.576	130.951	74	53
130.951	131.076	74	53
131.076	131.339	74	53
131.338	132.08	70	47
131.339	132.08	74	47
131.342	132.098	55	34
131.342	132.08	79	56
131.343	132.098	62	40
131.343	132.101	67	40
131.839	132.102	81	53
132.104	132.871	75	51
132.105	132.871	78	51
132.105	132.871	82	60
132.106	132.868	55	38
132.108	132.871	72	43
132.605	132.871	81	50
132.867	133.631	74	48
132.868	133.645	55	35
132.868	133.394	79	57
132.871	133.645	70	41
133.394	133.646	79	53
133.646	134.02	72	53
133.647	134.023	74	53
133.648	134.411	55	35
133.648	134.412	62	41
133.649	134.413	69	41
134.02	134.142	72	53
134.023	134.145	74	53
134.142	134.413	72	53
134.145	134.408	74	53
134.408	135.143	70	47
134.408	135.143	74	56
134.409	135.143	79	56
134.411	135.164	55	34
134.412	135.165	62	40
134.412	135.165	67	40
134.905	135.167	81	55
135.168	135.942	75	51
135.168	135.942	78	51
135.169	135.942	82	60
135.171	135.941	55	38
135.172	135.942	72	45
135.672	135.942	81	53
135.937	136.689	74	57
135.938	136.47	79	57
135.941	136.724	55	35
135.941	136.725	70	41
136.47	136.725	79	53
136.726	137.114	70	53
136.728	137.117	74	53
136.729	137.527	54	35
136.729	137.527	66	41
137.114	137.248	70	53
137.117	137.25	74	53
137.248	137.524	70	53
137.25	137.527	74	53
137.524	138.32	70	60
137.524	138.051	77	60
137.526	139.151	53	39
137.526	138.338	62	48
138.051	138.339	77	58
138.339	139.151	69	58
138.341	139.151	77	58
138.342	139.151	63	42
138.868	139.15	70	61
139.147	139.959	65	54
139.15	139.959	58	42
139.15	139.687	70	61
139.151	139.959	62	48
139.687	139.956	70	62
139.955	140.771	67	59
139.956	140.771	51	39
139.956	140.348	70	59
139.957	140.771	63	48
140.348	140.758	70	59
140.48	140.771	72	58
140.757	141.587	65	49
140.758	141.583	70	49
140.758	141.587	74	49
140.76	141.587	46	36
140.76	141.586	58	42
141.583	142.382	51	48
141.583	142.382	66	46
141.583	141.968	70	55
141.586	142.381	58	48
141.968	142.378	70	50
142.097	142.382	72	56
142.377	143.143	65	48
142.378	143.143	70	57
142.378	143.143	74	57
142.381	143.161	46	38
142.381	143.162	58	46
142.892	143.165	77	60
143.165	143.952	69	56
143.165	143.952	75	66
143.166	143.952	79	66
143.169	143.952	53	38
143.169	143.952	60	46
143.683	143.952	77	56
143.949	144.82	74	58
143.95	144.82	65	49
143.95	144.796	70	58
143.952	144.82	58	48
144.494	144.82	72	52
144.796	145.678	67	49
144.796	145.224	70	49
144.799	145.678	51	33
144.8	145.678	63	39
145.224	145.678	70	48
145.371	145.678	72	41
145.374	145.678	57	37
145.672	148.898	66	40
145.675	148.898	50	31
145.675	148.898	69	40
145.675	148.898	74	49
145.676	148.131	62	38
148.131	148.503	62	53
148.503	148.632	62	53
148.632	148.894	62	53
148.891	149.647	59	47
148.894	149.647	62	47
148.894	149.647	65	56
148.895	150.431	43	34
148.895	150.432	56	40
149.405	149.647	67	55
149.595	149.658	70	51
149.658	150.427	59	51
149.661	150.428	62	60
149.661	150.432	68	60
150.172	150.432	67	55
150.427	151.148	59	48
150.428	151.148	62	48
150.428	150.955	65	57
150.431	151.993	43	35
150.432	151.208	55	41
150.955	151.208	65	53
151.209	151.995	56	53
151.212	151.996	53	41
151.212	151.989	59	53
151.583	151.996	51	39
151.583	151.996	60	53
151.702	151.992	62	53
151.706	151.996	50	40
151.989	152.734	59	47
151.992	152.734	62	47
151.993	153.525	43	34
151.993	152.734	65	56
151.995	153.525	56	40
152.493	152.734	67	57
152.689	152.751	70	51
152.751	153.521	59	51
152.755	153.522	62	60
152.755	153.525	68	60
153.259	153.525	67	55
153.521	154.307	59	48
153.522	154.309	62	48
153.522	154.05	65	57
153.525	154.239	43	35
153.525	154.309	56	41
154.05	154.309	65	53
154.239	155.093	43	66
154.305	154.68	67	67
154.306	155.093	74	67
154.306	154.681	77	79
154.307	155.093	59	62
154.307	154.681	79	79
154.677	155.093	70	61
154.68	154.806	67	61
154.681	154.81	77	72
154.681	154.81	79	72
154.683	155.093	61	55
154.806	155.093	67	61
154.807	155.093	71	61
154.81	155.093	62	57
154.81	155.093	77	72
154.81	155.09	79	72
155.086	155.591	87	70
155.086	155.95	91	84
155.087	155.95	84	70
155.09	155.95	36	69
155.09	155.592	79	70
155.093	155.95	48	69
155.591	155.868	87	81
155.592	155.867	79	68
155.593	155.868	60	50
155.593	155.867	75	68
155.597	155.87	67	50
155.597	155.871	72	60
155.867	156.619	75	72
155.867	156.231	79	72
155.868	156.231	60	53
155.868	156.619	87	85
155.87	156.234	67	53
155.871	156.235	72	64
156.228	156.613	74	67
156.231	156.36	60	52
156.231	156.358	79	67
156.231	156.613	86	79
156.234	156.36	67	52
156.235	156.36	72	62
156.358	156.619	79	67
156.358	156.619	84	79
156.36	156.615	60	52
156.36	156.619	67	62
156.36	156.619	72	67
156.612	156.979	77	72
156.613	156.979	74	72
156.613	157.266	86	85
156.615	156.98	60	53
156.615	156.98	68	53
156.616	156.977	71	64
156.977	157.102	71	62
156.979	157.1	74	62
156.979	157.266	77	74
156.98	157.102	60	49
156.98	157.102	68	59
157.099	157.291	79	74
157.1	157.291	74	62
157.102	157.294	60	49
157.102	157.295	68	59
157.102	157.294	71	62
157.295	157.358	82	66
157.358	157.732	74	64
157.361	157.736	60	50
157.361	157.732	71	64
157.361	158.121	80	78
157.362	157.736	68	61
157.732	157.855	71	62
157.732	157.855	74	62
157.733	158.121	79	73
157.736	157.858	60	48
157.736	157.859	68	58
157.852	158.121	77	73
157.855	158.121	71	62
157.855	158.121	74	62
157.858	158.118	60	48
157.859	158.121	68	58
158.117	158.482	75	80
158.118	158.482	60	50
158.118	158.479	72	66
158.12	158.484	67	61
158.479	158.61	72	62
158.482	158.611	60	47
158.482	158.61	75	62
158.482	158.894	78	74
158.484	158.611	67	57
158.608	158.87	79	74
158.61	158.876	72	62
158.61	158.873	75	62
158.611	158.874	60	47
158.611	158.874	67	57
158.87	159.244	79	72
158.873	159.626	75	72
158.873	159.626	87	85
158.874	159.245	60	53
158.874	159.245	67	53
158.876	159.247	72	64
159.241	159.622	74	67
159.244	159.367	79	67
159.244	159.622	86	79
159.245	159.367	60	52
159.245	159.368	67	52
159.247	159.367	72	62
159.363	159.626	84	79
159.367	159.623	60	52
159.367	159.626	72	67
159.367	159.626	79	67
159.368	159.626	67	52
159.619	159.993	77	72
159.622	159.993	74	72
159.622	160.28	86	85
159.623	159.993	60	53
159.623	159.994	68	53
159.623	159.991	71	64
159.991	160.115	71	62
159.993	160.116	60	49
159.993	160.113	74	62
159.993	160.28	77	74
159.994	160.116	68	59
160.113	160.301	74	62
160.113	160.298	79	74
160.115	160.301	71	62
160.116	160.302	60	49
160.116	160.302	68	59
160.305	160.36	82	67
160.364	160.739	71	64
160.364	160.74	74	64
160.367	161.127	80	78
160.368	160.743	60	50
160.368	160.743	68	61
160.739	160.868	71	62
160.74	160.868	74	62
160.742	161.127	79	73
160.743	160.871	60	48
160.743	160.871	68	58
160.865	161.127	77	73
160.868	161.127	71	62
160.868	161.127	74	62
160.871	161.124	60	48
160.871	161.127	68	58
161.123	161.491	75	80
161.124	161.922	60	50
161.124	161.874	67	61
161.124	161.488	72	66
161.488	161.617	72	62
161.491	161.615	75	62
161.492	161.922	78	74
161.614	161.874	79	74
161.615	161.922	75	62
161.617	161.922	72	62
161.873	162.352	74	68
161.874	162.615	67	50
161.874	162.237	79	68
161.874	162.615	86	81
161.876	162.618	58	50
162.237	162.545	79	74
162.352	162.608	74	68
162.618	163.238	84	81
162.619	163.108	72	68
162.619	162.986	79	68
162.62	164.06	63	50
162.622	164.13	57	50
162.986	163.234	79	70
163.108	163.238	72	66
163.239	163.375	81	62
163.301	164.06	84	62
163.371	164.06	72	51
163.372	164.06	74	51
163.374	164.06	78	51
163.375	164.13	62	50
163.375	163.875	81	72
163.752	164.06	79	69
163.875	164.131	81	69
164.134	164.896	82	81
164.135	164.827	70	68
164.135	164.635	74	68
164.137	165.671	55	50
164.137	164.897	62	50
164.512	164.827	79	71
164.635	164.897	74	68
164.9	165.401	74	72
164.9	165.279	79	72
164.9	165.671	82	72
164.904	165.671	64	50
164.904	165.671	86	72
165.279	165.671	79	69
165.401	165.667	74	69
165.666	166.423	81	68
165.667	166.424	65	50
165.667	166.167	69	57
165.667	166.042	74	68
165.67	167.222	57	50
166.042	166.359	74	74
166.167	166.426	69	66
166.426	167.222	73	61
166.427	167.222	79	61
166.427	166.948	81	72
166.43	167.222	64	50
166.818	167.222	82	69
166.948	167.222	67	45
166.948	167.218	81	69
167.218	167.977	81	67
167.218	167.976	86	79
167.221	167.588	62	53
167.221	167.98	66	45
167.221	167.98	74	67
167.591	167.725	61	50
167.725	167.983	62	50
167.984	168.75	62	53
168.362	168.491	74	63
168.491	168.751	74	63
168.748	169.523	69	60
168.748	169.523	72	60
168.75	169.254	62	49
168.75	170.294	67	49
168.75	169.516	75	71
169.124	169.517	79	61
169.125	169.523	61	42
169.251	169.523	82	61
169.254	169.518	62	49
169.516	170.294	75	58
169.517	170.017	79	58
169.517	170.294	86	69
169.518	170.29	62	50
169.888	170.294	84	63
170.017	170.294	79	63
170.287	171.085	74	52
170.288	171.085	72	52
170.29	170.791	62	49
170.29	170.788	81	71
170.291	171.831	66	49
170.665	171.085	61	42
170.665	171.085	82	61
170.788	171.085	81	61
170.791	171.056	62	49
171.053	171.831	75	58
171.053	171.439	78	58
171.054	171.831	84	69
171.056	171.831	62	50
171.436	171.827	74	53
171.439	171.558	78	53
171.439	171.831	82	63
171.558	171.831	72	53
171.558	171.831	78	53
171.56	171.831	81	63
171.827	172.341	70	60
171.827	172.342	74	60
171.83	172.345	79	71
171.831	172.218	62	49
172.215	172.605	72	51
172.216	172.611	75	51
172.216	172.611	81	61
172.218	172.345	62	42
172.341	172.611	70	51
172.342	172.611	74	51
172.345	172.607	62	49
172.345	172.611	79	61
172.604	173.395	69	55
172.605	173.398	72	55
172.605	173.398	77	64
172.607	173.395	62	50
172.992	173.126	70	49
172.992	173.395	74	49
172.992	173.398	79	58
173.125	173.398	67	49
173.126	173.398	70	49
173.126	173.398	75	58
173.393	174.27	66	51
173.395	173.923	62	49
173.395	174.27	69	51
173.395	174.27	74	61
173.791	174.27	63	39
173.923	174.193	62	44
174.193	174.595	62	44
174.595	174.729	62	47
174.729	175.009	62	47
175.005	175.81	57	53
175.005	175.81	60	53
175.006	175.779	63	63
175.009	175.517	50	44
175.009	176.562	55	44
175.387	175.779	67	55
175.389	175.81	49	38
175.516	175.81	70	55
175.517	175.781	50	44
175.779	176.562	63	51
175.779	176.287	67	51
175.781	176.56	50	45
175.781	176.562	74	61
176.156	176.562	72	57
176.287	176.562	67	57
176.556	177.416	62	50
176.559	177.416	60	47
176.559	177.059	69	63
176.56	177.06	50	44
176.562	178.099	54	44
176.931	177.416	70	55
176.934	177.416	49	38
177.059	177.416	69	55
177.06	177.327	50	44
177.325	178.099	63	51
177.326	178.099	66	51
177.326	178.099	72	61
177.327	178.099	50	45
177.697	178.099	70	57
177.822	178.099	69	57
178.095	178.617	58	53
178.096	178.617	62	53
178.096	178.62	67	63
178.099	178.494	50	44
178.491	178.897	60	46
178.492	178.942	63	46
178.492	178.942	69	55
178.494	178.621	50	38
178.617	178.942	58	46
178.617	178.942	62	46
178.62	178.942	67	55
178.621	178.901	50	44
178.897	179.716	57	49
178.897	179.719	60	49
178.9	179.719	65	58
178.901	179.717	50	45
179.296	179.429	58	42
179.296	179.717	62	42
179.297	179.719	67	51
179.429	179.719	55	42
179.429	179.719	58	42
179.43	179.719	63	51
179.716	180.532	57	58
179.717	179.95	50	38
179.717	180.529	54	38
179.717	180.528	62	58
179.849	179.981	49	38
179.985	180.233	50	38
180.118	180.258	49	37
180.259	180.532	50	38
180.391	180.532	49	33
180.528	181.315	60	53
180.528	180.913	62	53
180.529	181.315	54	38
180.531	181.042	51	38
180.651	180.916	50	33
180.776	181.315	49	38
180.913	181.04	62	53
180.916	181.175	50	34
181.04	181.312	62	53
181.042	181.315	51	38
181.175	181.315	50	33
181.312	182.148	58	47
181.312	182.148	62	47
181.313	182.148	55	37
181.313	182.148	67	56
181.315	182.148	43	37
181.441	182.148	54	40
181.571	182.148	53	41
181.697	182.148	52	42
181.827	182.148	69	56
181.829	182.148	51	44
181.959	182.148	50	47
182.093	182.88	63	51
182.096	182.88	49	47
182.096	182.88	66	60
182.096	182.88	70	60
182.219	182.88	50	44
182.351	182.88	51	42
182.481	182.88	52	41
182.617	182.88	69	59
182.618	182.88	53	40
182.743	182.88	54	40
182.877	183.426	58	48
182.878	183.426	62	48
182.879	183.419	67	57
182.88	183.713	43	41
182.88	183.143	55	41
183.006	183.177	54	36
183.143	183.426	55	41
183.282	183.426	50	37
183.419	183.713	49	41
183.419	183.713	67	53
183.542	183.713	50	36
183.674	184.056	60	53
183.674	184.056	62	53
183.675	184.456	54	41
183.797	184.057	50	40
183.926	184.456	49	41
184.056	184.182	60	53
184.056	184.185	62	53
184.057	184.315	50	36
184.182	184.456	60	51
184.185	184.456	51	42
184.185	184.452	62	51
184.315	184.456	50	41
184.451	185.211	58	47
184.452	185.211	62	56
184.454	185.211	67	56
184.455	185.218	43	37
184.455	185.211	55	37
184.574	185.211	54	40
184.704	185.211	53	42
184.832	185.211	52	44
184.962	185.218	69	56
184.963	185.211	51	44
185.092	185.221	50	42
185.221	186.016	63	60
185.225	186.016	66	60
185.226	186.016	49	42
185.226	186.016	70	60
185.355	186.016	50	41
185.481	186.016	51	40
185.61	186.016	52	37
185.74	186.016	69	53
185.741	186.016	53	41
185.877	186.016	54	41
186.01	186.555	58	48
186.013	186.555	62	48
186.013	186.556	67	57
186.014	186.829	43	41
186.014	186.282	55	41
186.15	186.285	54	36
186.282	186.548	55	41
186.422	186.558	50	37
186.558	186.829	67	53
186.559	186.829	49	47
186.688	186.829	50	42
186.824	187.22	58	53
186.828	187.644	42	47
186.828	187.221	62	53
186.947	187.221	50	41
187.077	187.644	49	37
187.22	187.353	58	53
187.221	187.49	50	41
187.221	187.353	62	53
187.353	187.64	58	49
187.353	187.644	62	49
187.357	187.644	51	42
187.49	187.641	50	41
187.64	188.179	58	60
187.641	188.463	41	49
187.641	187.902	50	49
187.641	188.176	65	60
187.766	187.92	49	44
187.902	188.179	50	49
188.036	188.179	49	42
188.176	188.463	65	58
188.179	188.466	50	48
188.312	188.466	49	42
188.462	188.997	57	58
188.463	189.285	41	47
188.463	188.71	51	47
188.463	188.998	65	58
188.592	188.724	50	41
188.725	188.974	51	48
188.865	189.002	48	41
189.002	189.281	53	47
189.002	189.285	62	59
189.139	189.285	51	41
189.281	189.827	53	61
189.282	190.1	46	47
189.282	189.831	58	61
189.283	189.551	50	47
189.419	189.565	49	39
189.551	189.799	50	47
189.69	189.831	49	41
189.831	190.101	58	62
189.834	190.09	50	47
189.964	190.101	49	41
190.104	190.647	55	59
190.105	190.504	58	59
190.107	190.927	39	47
190.237	190.927	45	41
190.371	190.927	46	48
190.504	190.924	58	59
190.506	190.779	51	44
190.643	190.927	60	58
190.647	190.927	55	52
190.779	190.927	51	41
190.923	191.194	53	49
190.923	191.819	62	49
190.924	191.75	58	49
190.927	191.606	46	49
191.053	191.819	52	44
191.194	191.819	53	48
191.325	191.819	49	41
191.465	191.819	50	49
191.606	191.819	46	41
191.749	192.282	54	46
191.75	192.571	39	47
191.75	192.146	58	55
191.879	192.571	45	41
192.012	192.568	46	42
192.146	192.567	58	50
192.148	192.421	52	41
192.281	192.571	60	56
192.282	192.571	54	47
192.421	192.571	52	41
192.565	193.394	53	48
192.567	193.394	58	57
192.568	192.824	46	48
192.568	193.394	62	57
192.691	193.394	45	41
192.824	193.226	46	48
192.957	193.394	49	44
193.089	193.394	65	60
193.09	193.394	50	47
193.226	193.394	46	41
193.36	194.223	57	56
193.362	194.223	63	66
193.362	194.223	67	66
193.363	194.025	41	52
193.492	194.223	47	41
193.626	194.223	48	44
193.758	194.223	50	47
193.897	194.223	65	56
193.898	194.223	51	48
194.025	194.223	41	41
194.166	195.114	62	58
194.168	195.114	53	49
194.168	195.027	58	50
194.17	194.443	46	49
194.304	195.114	45	41
194.443	194.873	46	47
194.584	195.114	49	40
194.726	195.114	50	47
194.726	195.114	60	52
194.873	195.114	46	41
195.025	195.62	55	49
195.027	195.938	39	44
195.027	195.466	58	49
195.168	195.771	45	41
195.314	195.938	46	44
195.466	195.938	58	48
195.468	195.938	48	37
195.62	195.938	55	41
195.621	195.938	51	41
195.621	195.938	60	41
195.771	195.938	45	37
195.931	199.241	54	40
195.935	199.241	57	40
195.936	196.236	38	47
195.936	198.464	62	49
196.093	196.253	49	41
196.254	196.568	50	47
196.4	196.568	44	41
196.545	196.791	46	47
196.681	196.816	45	41
196.816	197.062	41	47
196.949	197.082	42	41
197.086	197.374	37	47
197.22	197.374	38	41
197.359	197.779	32	47
197.514	197.779	33	41
197.696	199.241	38	49
198.464	198.84	62	53
198.84	198.963	62	53
198.963	199.228	62	53
199.228	199.981	59	47
199.228	199.981	62	47
199.232	200.766	43	34
199.232	200.767	56	40
199.232	199.981	65	56
199.735	199.981	67	58
199.929	199.991	70	51
199.992	200.762	59	51
199.994	200.765	62	60
199.994	200.769	68	60
200.507	200.769	67	55
200.762	201.478	59	48
200.765	201.478	62	48
200.766	202.329	43	35
200.766	201.29	65	57
200.767	201.541	56	41
201.29	201.546	65	53
201.546	202.333	53	41
201.546	202.329	56	53
201.546	202.326	59	53
201.917	202.333	51	39
201.917	202.333	60	53
202.039	202.333	50	40
202.039	202.326	62	53
202.326	203.07	59	47
202.326	203.07	62	47
202.326	203.07	65	56
202.329	203.858	43	34
202.329	203.859	56	40
202.829	203.07	67	58
203.015	203.084	70	51
203.085	203.856	59	51
203.088	203.858	62	60
203.089	203.862	68	60
203.595	203.862	67	56
203.856	204.646	59	48
203.858	204.576	43	35
203.858	204.646	62	48
203.858	204.379	65	57
203.859	204.646	56	41
204.379	204.646	65	53
204.576	205.419	43	66
204.642	205.009	67	67
204.643	205.419	74	67
204.645	205.01	77	79
204.646	205.419	59	62
204.646	205.01	79	79
205.007	205.419	70	61
205.009	205.136	67	61
205.01	205.419	61	55
205.01	205.137	77	72
205.01	205.139	79	72
205.136	205.419	67	61
205.136	205.419	71	61
205.137	205.419	77	72
205.139	205.419	62	57
205.139	205.416	79	72
205.415	206.997	87	70
205.415	207.726	91	84
205.416	206.74	79	70
205.416	206.865	84	70
205.419	207.726	36	69
205.549	207.726	43	61
205.682	207.726	48	61
205.815	207.726	51	61
205.955	207.726	55	69
206.088	207.726	60	61
206.228	207.726	63	61
206.353	207.726	67	61
206.483	207.726	72	59
206.61	207.726	75	63
206.74	207.726	79	68
206.865	207.726	84	72
206.997	207.816	87	79
207.817	208.205	63	58
207.82	208.621	60	53
207.82	208.206	67	58
207.82	208.621	69	58
208.205	208.331	63	58
208.206	208.335	67	58
208.206	208.621	70	70
208.208	208.621	58	51
208.331	208.618	63	58
208.335	208.621	57	52
208.335	208.618	67	58
208.335	208.619	72	70
208.618	209.406	63	63
208.618	209.402	67	63
208.619	209.403	72	77
208.619	209.436	75	77
208.621	209.436	57	59
209.402	209.784	67	58
209.403	209.784	69	58
209.403	210.284	72	70
209.406	210.284	63	59
209.784	209.916	67	63
209.784	209.92	69	63
209.785	210.284	74	77
209.787	210.284	62	57
209.916	210.214	67	62
209.92	210.215	69	62
209.92	210.217	75	74
209.921	210.218	60	57
210.214	211.335	67	70
210.215	211.338	69	70
210.217	211.338	75	82
210.217	211.338	81	82
210.218	211.334	60	61
211.334	212.129	60	58
211.335	211.853	67	69
211.338	212.129	57	52
211.338	212.129	63	58
211.719	212.129	69	60
211.853	212.125	67	58
212.125	212.92	67	58
212.126	212.923	58	51
212.126	212.92	62	58
212.126	212.923	74	69
212.128	212.654	50	51
212.517	212.849	49	41
212.654	212.923	50	47
212.924	213.707	50	47
213.308	213.441	62	57
213.445	213.711	62	53
213.711	214.54	60	56
213.714	214.503	63	67
213.715	214.236	50	49
213.715	215.304	55	49
213.715	214.54	57	56
214.107	214.505	67	59
214.108	214.54	49	41
214.233	214.54	69	59
214.236	214.506	50	49
214.503	215.304	63	57
214.505	215.3	67	57
214.506	215.303	50	48
214.506	215.304	72	68
214.887	215.3	74	59
215.017	215.304	75	59
215.3	216.13	67	56
215.3	216.136	74	67
215.301	216.136	62	56
215.303	215.846	50	49
215.304	216.133	58	49
215.709	216.136	49	41
215.846	216.136	50	49
216.13	216.922	61	55
216.13	216.922	67	66
216.133	216.922	58	48
216.134	216.921	51	48
216.514	216.922	72	56
216.641	216.922	70	59
216.917	217.669	60	55
216.921	217.753	44	48
216.921	217.75	51	48
216.921	217.669	68	66
217.316	217.669	72	55
217.449	217.669	67	56
217.6	217.676	66	55
217.677	217.753	67	56
217.754	218.684	60	52
217.754	218.307	66	62
217.757	218.615	50	48
218.166	218.684	64	55
218.307	218.684	66	55
218.614	219.44	67	52
218.615	219.167	50	49
218.615	219.44	58	44
218.616	219.44	43	49
219.027	219.44	51	41
219.167	219.434	50	49
219.433	220.204	57	45
219.434	220.204	50	48
219.434	219.808	60	45
219.434	219.808	62	53
219.808	219.927	60	45
219.808	219.93	62	53
219.927	220.204	60	49
219.93	220.2	62	49
220.197	221.012	58	47
220.2	221.012	43	51
220.2	221.012	62	47
220.2	221.012	67	56
220.204	220.728	50	51
220.589	221.012	51	42
220.725	221.012	69	55
220.728	220.988	50	51
220.987	221.757	63	51
220.987	221.757	66	60
220.988	221.754	50	50
220.988	221.757	70	60
221.498	221.757	69	54
221.753	222.545	62	48
221.754	222.289	50	51
221.754	222.287	67	57
221.755	222.597	43	51
222.15	222.597	51	42
222.287	222.597	67	53
222.289	222.545	50	51
222.542	223.315	57	40
222.544	222.913	60	53
222.545	223.312	50	50
222.545	222.913	62	53
222.913	223.035	60	53
222.913	223.035	62	53
223.035	223.315	60	53
223.035	223.312	62	53
223.311	224.088	58	47
223.312	223.833	50	51
223.312	224.088	62	56
223.312	224.088	67	56
223.315	224.105	43	51
223.7	224.088	51	40
223.832	224.088	69	54
223.833	224.106	50	49
224.036	224.126	72	44
224.11	225.002	63	56
224.11	225.002	66	56
224.11	225.002	70	56
224.112	225.002	60	47
224.113	224.954	50	47
224.642	225.002	69	52
224.95	225.233	58	49
224.953	225.234	62	49
224.953	225.234	67	49
224.954	225.236	43	41
224.954	225.236	50	41
225.236	226.055	54	49
225.24	226.055	42	49
225.373	226.055	55	49
225.377	226.055	43	49
225.513	226.042	57	50
225.514	226.042	45	50
225.646	226.055	58	51
225.649	226.055	46	51
225.776	226.055	49	52
225.776	226.055	61	52
225.909	226.055	50	53
225.909	226.055	62	53
226.042	226.811	45	50
226.042	226.811	57	50
226.168	226.811	58	51
226.171	226.811	46	51
226.297	226.802	61	51
226.298	226.804	49	51
226.426	226.811	62	52
226.427	226.811	50	52
226.553	226.811	54	53
226.553	226.811	66	53
226.675	226.811	55	56
226.675	226.811	67	56
226.802	227.55	61	51
226.804	227.55	49	51
226.924	227.55	50	52
226.924	227.55	62	52
227.046	227.54	54	56
227.046	227.539	66	56
227.169	227.55	55	57
227.169	227.55	67	57
227.288	227.55	69	59
227.291	227.55	57	59
227.417	227.55	58	60
227.417	227.55	70	60
227.539	228.295	66	56
227.54	228.295	54	56
227.659	228.295	67	58
227.662	228.295	55	58
227.782	228.275	69	59
227.784	228.278	57	59
227.904	228.295	70	60
227.907	228.295	58	60
228.026	228.295	73	61
228.029	228.295	61	61
228.155	228.295	74	62
228.156	228.295	62	62
228.275	229.033	69	57
228.278	229.033	57	57
228.397	229.033	70	58
228.4	229.033	58	58
228.52	229.01	61	60
228.52	229.009	73	60
228.641	229.033	74	61
228.642	229.033	62	61
228.765	229.033	66	64
228.765	229.033	78	64
228.887	229.033	79	66
228.888	229.033	67	66
229.009	229.748	73	59
229.01	229.748	61	68
229.129	229.748	74	61
229.132	229.748	62	61
229.247	229.723	78	63
229.248	229.724	66	63
229.367	229.748	79	64
229.37	229.748	67	65
229.485	229.748	69	67
229.485	229.748	81	66
229.6	229.748	82	68
229.601	229.748	70	68
229.723	230.423	78	64
229.724	230.423	66	70
229.843	230.423	79	66
229.846	230.423	67	62
229.961	230.423	81	69
229.962	230.423	69	66
230.077	230.423	82	72
230.078	230.423	70	69
230.192	230.423	85	74
230.193	230.423	73	72
230.308	230.43	86	77
230.309	230.43	74	76
230.431	230.938	69	74
230.431	230.938	81	74
230.553	230.938	70	77
230.553	230.938	82	77
230.675	230.938	85	81
230.676	230.938	73	81
230.795	230.938	86	83
230.798	230.938	74	83
230.935	231.774	91	93
230.937	231.774	79	93
231.691	232.46	72	79
231.691	232.457	74	79
231.694	232.46	78	93
231.694	232.46	86	93
231.695	232.46	38	70
231.695	232.46	81	93
231.697	232.46	50	84
232.457	233.261	70	79
232.457	233.211	74	79
232.458	233.261	79	93
232.458	233.261	82	93
232.46	233.261	43	84
232.46	233.261	55	84
233.21	233.977	69	79
233.211	233.977	72	79
233.211	233.973	74	93
233.212	233.977	78	93
233.213	233.977	38	70
233.213	233.977	50	84
233.97	236.853	67	86
233.972	235.488	70	86
233.973	236.853	74	96
233.973	235.488	79	102
233.976	236.853	31	77
233.976	236.853	43	92
235.485	236.993	91	108
235.487	236.997	86	102
235.488	236.998	55	79
235.488	236.997	70	93
235.488	236.997	79	90
235.491	237.0	62	79
