OnsetTime	OffsetTime	MidiPitch	Velocity
0.500004	4.625	36	54
0.500004	4.625	39	54
0.500004	4.625	43	54
0.500004	4.625	48	63
0.500004	4.625	51	61
0.500004	4.625	55	61
0.500004	4.625	60	72
4.625	5.0	51	36
4.625	5.0	55	40
4.625	5.0	60	47
5.0	6.125	50	41
5.0	6.125	55	42
5.0	6.125	59	42
5.0	6.125	62	50
6.125	6.56617	48	36
6.125	6.56617	55	39
6.125	6.56617	60	46
6.125	6.56617	63	46
6.56617	9.85384	54	39
6.56617	9.85384	57	42
6.56617	9.85384	60	50
6.56617	9.85384	63	50
9.85384	11.3538	55	25
9.85384	11.3538	59	29
9.85384	11.3538	62	36
12.4788	12.8538	44	69
12.8538	16.9788	56	72
12.8538	16.9788	59	70
12.8538	16.9788	62	70
12.8538	16.9788	65	80
16.9788	17.3538	56	38
16.9788	17.3538	59	42
16.9788	17.3538	62	42
16.9788	17.3538	65	50
17.3538	18.4788	55	43
17.3538	18.4788	59	44
17.3538	18.4788	62	44
17.3538	18.4788	67	53
18.4788	18.9136	53	38
18.4788	18.9136	59	41
18.4788	18.9136	62	49
18.4788	18.9136	68	49
18.9136	23.7013	51	37
18.9136	22.2013	59	44
18.9136	22.2013	62	53
18.9136	22.2013	68	53
22.2013	23.7013	60	31
22.2013	23.7013	63	31
22.2013	23.7013	67	38
24.8263	25.2013	51	72
25.2013	29.3263	63	76
25.2013	29.3263	66	74
25.2013	29.3263	69	74
25.2013	29.3263	72	85
29.3263	29.7013	63	45
29.3263	29.7013	66	49
29.3263	29.7013	69	49
29.3263	29.7013	72	58
29.7013	30.8551	62	52
29.7013	30.8551	66	54
29.7013	30.8551	69	54
29.7013	30.8551	74	64
30.8551	31.2718	60	52
30.8551	31.2718	66	57
30.8551	31.2718	69	67
30.8551	31.2718	75	67
31.2718	34.4718	60	65
31.2718	34.4718	66	62
31.2718	34.4718	69	62
31.2718	34.4718	75	74
34.4718	34.8468	59	35
34.4718	34.8468	62	35
34.4718	34.8468	67	35
34.4718	34.8468	74	42
35.5968	35.9718	63	47
35.5968	35.9718	66	51
35.5968	35.9718	69	51
35.5968	35.9718	72	60
35.9718	37.1718	62	54
35.9718	37.1718	66	56
35.9718	37.1718	69	56
35.9718	37.1718	74	67
37.1718	37.5718	60	54
37.1718	37.5718	66	59
37.1718	37.5718	69	70
37.1718	37.5718	75	70
37.5718	40.5718	60	71
37.5718	40.5718	66	65
37.5718	40.5718	69	65
37.5718	40.5718	75	77
40.5718	42.0004	59	43
40.5718	42.0004	62	51
40.5718	42.0004	67	47
40.5718	42.0004	74	55
42.0004	43.6442	58	48
42.0004	43.6442	60	48
42.0004	43.6442	64	57
42.0004	43.6442	67	53
42.0004	43.6442	72	53
42.0004	43.6442	76	63
43.6442	44.3501	56	53
43.6442	44.3501	60	53
43.6442	44.3501	65	64
43.6442	44.3501	68	58
43.6442	44.3501	72	58
43.6442	44.3501	77	70
45.056	46.9785	80	84
46.556	49.7106	34	84
46.556	49.7106	46	84
46.9785	47.1676	79	61
47.1676	47.3527	80	63
47.3527	47.5372	82	65
47.5372	47.7186	80	67
47.7186	47.8965	79	67
47.8965	48.0716	77	67
48.0716	48.2495	75	67
48.2495	48.4332	74	67
48.4332	48.6247	72	67
48.6247	48.823	70	67
48.823	48.9145	68	63
48.9145	49.0076	67	62
49.0076	49.1025	65	60
49.1025	49.1997	63	59
49.1997	49.2998	62	58
49.2998	49.4019	65	57
49.4019	49.5063	68	55
49.5063	49.6138	65	54
49.6138	49.7106	62	53
49.7106	50.4606	39	45
49.7106	50.4606	51	50
49.7106	50.4606	63	50
50.4606	51.2106	51	22
50.4606	51.2106	55	27
50.4606	51.2106	58	32
51.2106	51.9606	51	22
51.2106	51.9606	55	27
51.2106	51.9606	58	32
51.2106	53.8356	63	46
51.2106	53.8356	75	55
51.9606	52.7106	51	22
51.9606	52.7106	55	27
51.9606	52.7106	58	32
52.7106	53.4606	51	22
52.7106	53.4606	55	27
52.7106	53.4606	58	32
53.4606	54.2106	51	22
53.4606	54.2106	55	27
53.4606	54.2106	58	32
53.8356	54.2106	63	46
53.8356	54.2106	75	55
54.2106	54.9606	51	22
54.2106	54.9606	55	27
54.2106	54.9606	58	32
54.2106	55.3356	65	48
54.2106	55.3356	77	57
54.9606	55.7523	51	22
54.9606	55.7523	55	27
54.9606	55.7523	58	32
55.3356	55.7523	67	49
55.3356	55.7523	79	59
55.7523	56.5023	51	23
55.7523	56.5023	56	27
55.7523	56.5023	60	33
55.7523	57.2523	67	49
55.7523	57.2523	79	59
56.5023	57.2523	51	24
56.5023	57.2523	56	28
56.5023	57.2523	60	34
57.2523	58.0023	51	24
57.2523	58.0023	56	28
57.2523	58.0023	60	34
57.2523	58.0023	65	42
57.2523	58.0023	77	50
58.0023	58.7523	51	24
58.0023	58.7523	56	28
58.0023	58.7523	60	34
58.3773	58.7523	65	90
58.7523	59.4752	38	68
58.7523	59.4752	50	81
58.7523	59.8366	53	81
58.7523	59.8366	56	81
58.7523	59.8366	59	81
58.7523	59.8366	65	96
59.4752	60.198	38	68
59.4752	60.198	50	81
59.8366	60.198	53	74
59.8366	60.198	56	74
59.8366	60.198	59	74
59.8366	60.198	65	89
60.198	60.9209	36	68
60.198	60.9209	48	81
60.198	61.2824	53	79
60.198	61.2824	56	79
60.198	61.2824	60	79
60.198	61.2824	65	93
60.9209	61.672	36	68
60.9209	61.672	48	81
61.2824	61.672	53	79
61.2824	61.672	56	79
61.2824	61.672	60	79
61.2824	61.672	65	93
61.672	62.422	35	68
61.672	62.422	47	81
61.672	62.422	53	79
61.672	62.422	56	79
61.672	63.172	62	79
61.672	63.172	65	93
62.422	63.172	47	18
62.422	63.172	50	18
62.422	63.172	53	23
62.422	63.172	56	28
63.172	63.922	47	18
63.172	63.922	50	18
63.172	63.922	53	23
63.172	63.922	56	28
63.172	65.797	65	46
63.172	65.797	77	55
63.922	64.672	47	18
63.922	64.672	50	18
63.922	64.672	53	23
63.922	64.672	56	28
64.672	65.422	46	18
64.672	65.422	50	18
64.672	65.422	53	23
64.672	65.422	56	28
65.422	66.172	46	18
65.422	66.172	50	18
65.422	66.172	53	23
65.422	66.172	56	28
65.797	66.172	65	46
65.797	66.172	77	55
66.172	66.922	46	18
66.172	66.922	50	18
66.172	66.922	53	23
66.172	66.922	56	28
66.172	67.297	67	48
66.172	67.297	79	57
66.922	67.7136	46	18
66.922	67.7136	50	18
66.922	67.7136	53	23
66.922	67.7136	56	28
67.297	67.7136	68	49
67.297	67.7136	80	59
67.7136	68.4636	46	19
67.7136	68.4636	49	19
67.7136	68.4636	52	24
67.7136	68.4636	55	28
67.7136	69.2136	68	49
67.7136	69.2136	80	59
68.4636	69.2136	46	19
68.4636	69.2136	49	19
68.4636	69.2136	52	25
68.4636	69.2136	55	29
69.2136	69.9636	46	19
69.2136	69.9636	49	19
69.2136	69.9636	52	25
69.2136	69.9636	55	29
69.2136	69.9636	67	46
69.2136	69.9636	79	55
69.9636	70.7136	46	19
69.9636	70.7136	49	19
69.9636	70.7136	52	25
69.9636	70.3386	55	29
70.3386	70.7136	55	75
70.3386	70.7136	61	75
70.3386	70.7136	64	75
70.3386	70.7136	67	90
70.7136	71.4365	33	68
70.7136	71.4365	45	81
70.7136	71.798	57	81
70.7136	71.798	61	81
70.7136	71.798	63	81
70.7136	71.798	69	96
71.4365	72.1594	33	68
71.4365	72.1594	45	81
71.798	72.1594	57	74
71.798	72.1594	61	74
71.798	72.1594	63	74
71.798	72.1594	69	89
72.1594	72.8823	31	68
72.1594	72.8823	43	81
72.1594	73.2438	58	79
72.1594	73.2438	61	79
72.1594	73.2438	63	79
72.1594	73.2438	70	93
72.8823	73.6052	31	68
72.8823	73.6052	43	81
73.2438	73.6052	58	79
73.2438	73.6052	61	79
73.2438	73.6052	63	79
73.2438	73.6052	70	93
73.6052	74.3459	30	68
73.6052	74.3459	42	81
73.6052	74.3459	57	79
73.6052	74.3459	62	79
73.6052	75.0867	66	79
73.6052	75.0867	69	93
74.3459	75.0867	54	24
74.3459	75.0867	57	28
74.3459	75.0867	62	34
75.0867	75.8274	54	24
75.0867	75.8274	57	28
75.0867	75.8274	62	34
75.0867	77.6793	69	46
75.0867	77.6793	81	55
75.8274	76.5682	54	24
75.8274	76.5682	57	28
75.8274	76.5682	62	34
76.5682	77.3089	54	24
76.5682	77.3089	57	28
76.5682	77.3089	62	34
77.3089	78.0497	54	24
77.3089	78.0497	57	28
77.3089	78.0497	62	34
77.6793	78.0497	69	46
77.6793	78.0497	81	55
78.0497	78.7904	54	24
78.0497	78.7904	57	28
78.0497	78.7904	62	34
78.0497	79.1608	71	48
78.0497	79.1608	83	57
78.7904	79.5775	54	24
78.7904	79.5775	57	28
78.7904	79.5775	62	34
79.1608	79.5775	72	49
79.1608	79.5775	84	59
79.5775	80.3275	53	25
79.5775	80.3275	56	29
79.5775	80.3275	62	35
79.5775	81.0775	72	49
79.5775	81.0775	84	59
80.3275	81.0775	53	25
80.3275	81.0775	56	30
80.3275	81.0775	62	36
81.0775	81.8004	53	25
81.0775	81.8004	56	30
81.0775	81.8004	62	36
81.0775	81.8004	71	46
81.0775	81.8004	83	55
81.8004	82.5233	53	25
81.8004	82.5233	56	30
81.8004	82.5233	62	36
82.5233	83.255	50	35
82.5233	83.255	53	42
82.5233	83.255	59	50
83.255	83.9764	50	35
83.255	83.9764	53	42
83.255	83.9764	59	50
83.9764	84.6879	50	35
83.9764	84.6879	53	42
83.9764	84.6879	59	50
83.9764	85.0583	71	71
83.9764	85.0583	83	71
84.6879	85.4287	50	35
84.6879	85.4287	53	42
84.6879	85.4287	59	50
85.0583	85.4287	72	62
85.0583	85.4287	84	74
85.4287	86.1604	47	47
85.4287	86.1604	50	47
85.4287	86.1604	56	56
85.4287	86.8921	73	80
85.4287	86.8921	85	80
86.1604	86.8921	47	49
86.1604	86.8921	50	49
86.1604	86.8921	56	58
86.8921	87.5897	47	44
86.8921	87.5897	50	44
86.8921	87.5897	56	52
86.8921	88.2874	74	85
86.8921	88.2874	86	85
87.5897	88.2874	47	44
87.5897	88.2874	50	44
87.5897	88.2874	56	52
88.2874	88.9851	44	45
88.2874	88.9851	47	53
88.2874	88.9851	53	63
88.9851	89.6994	44	45
88.9851	89.6994	47	53
88.9851	89.6994	53	63
89.6994	90.4137	44	45
89.6994	90.4137	47	53
89.6994	90.4137	53	63
89.6994	90.7708	74	90
89.6994	90.7708	86	91
90.4137	91.1708	44	45
90.4137	91.1708	47	53
90.4137	91.1708	53	63
90.7708	91.1708	75	80
90.7708	91.1708	87	82
91.1708	91.8851	43	45
91.1708	91.8851	47	53
91.1708	91.8851	53	64
91.1708	92.5994	76	88
91.1708	92.5994	88	88
91.8851	92.5994	43	45
91.8851	92.5994	47	53
91.8851	92.5994	53	64
92.5994	93.3136	43	45
92.5994	93.3136	47	53
92.5994	93.3136	53	64
92.5994	95.3861	77	88
92.5994	95.3861	89	90
93.3136	94.0225	43	45
93.3136	94.0225	47	53
93.3136	94.0225	53	64
94.0225	94.7043	44	46
94.0225	94.7043	48	55
94.0225	94.7043	53	66
94.7043	95.3861	44	48
94.7043	95.3861	48	57
94.7043	95.3861	53	68
95.3861	96.109	44	50
95.3861	96.109	48	60
95.3861	96.109	53	70
95.3861	96.9662	77	96
95.3861	96.9662	89	96
96.109	96.9662	44	51
96.109	96.9662	48	61
96.109	96.9662	53	73
96.9662	98.3948	43	75
96.9662	98.3948	47	75
96.9662	98.3948	53	75
96.9662	98.7519	77	96
96.9662	98.7519	89	96
98.7519	98.9305	87	62
98.9305	99.109	86	62
99.109	99.2876	89	62
99.2876	99.4662	87	62
99.4662	99.6447	86	62
99.6447	99.8233	84	62
99.8233	100.185	83	62
100.546	100.931	83	52
101.315	101.715	67	35
101.315	101.715	74	42
101.315	101.715	77	39
101.315	101.715	83	47
102.115	102.55	67	35
102.115	102.55	74	42
102.115	102.55	77	40
102.115	102.55	83	48
102.985	104.466	68	35
102.985	104.466	72	42
102.985	104.466	75	40
102.985	104.466	84	48
108.805	110.591	84	65
110.591	110.769	83	61
110.769	110.948	84	63
110.948	111.067	86	66
111.067	111.186	84	65
111.186	111.305	82	64
111.305	111.424	80	63
111.424	111.543	79	61
111.543	111.662	82	60
111.662	112.028	80	62
112.408	112.797	80	49
113.187	113.582	53	28
113.187	113.582	60	28
113.187	113.582	62	34
113.187	113.582	80	47
113.977	114.418	53	28
113.977	114.418	60	28
113.977	114.418	62	34
113.977	114.418	80	48
114.859	116.412	55	28
114.859	116.412	60	28
114.859	116.412	63	34
114.859	115.681	79	50
115.681	116.534	87	65
116.534	116.652	86	52
116.652	116.77	85	52
116.77	116.887	84	52
116.887	117.005	83	52
117.005	117.123	82	53
117.123	117.223	81	53
117.223	117.323	80	53
117.323	117.423	79	53
117.423	117.523	78	54
117.523	117.623	77	54
117.623	117.717	76	54
117.717	117.773	75	54
117.773	118.503	43	33
117.773	118.503	50	33
117.773	118.503	53	40
117.773	117.865	74	54
117.865	117.957	73	55
117.957	118.049	72	55
118.049	118.141	71	56
118.141	118.232	70	56
118.232	118.322	69	56
118.322	118.413	68	57
118.413	118.503	67	57
118.503	118.592	66	57
118.592	118.682	65	58
118.682	118.77	64	57
118.77	118.859	63	57
118.859	118.948	62	58
118.948	119.038	61	63
119.038	119.13	60	68
119.13	119.222	59	73
119.222	120.281	68	82
120.281	120.594	59	68
120.594	120.798	36	44
120.594	121.197	60	50
120.696	120.899	48	41
120.798	120.999	36	44
120.899	121.098	48	41
120.999	121.197	36	44
121.098	121.197	48	41
121.197	121.392	36	45
121.197	121.27	58	52
121.197	121.27	64	52
121.295	121.392	48	41
121.392	121.587	36	45
121.392	121.465	56	54
121.392	121.465	65	54
121.489	121.587	48	46
121.587	121.779	36	47
121.587	121.659	64	56
121.587	121.659	67	56
121.683	121.779	48	47
121.779	121.971	36	49
121.779	121.851	65	57
121.779	121.851	68	57
121.875	121.971	48	50
121.971	122.167	36	51
121.971	122.045	62	59
121.971	122.045	71	59
122.069	122.167	48	53
122.167	122.374	36	55
122.167	122.245	63	61
122.167	122.245	72	61
122.271	122.472	48	50
122.374	122.569	36	53
122.374	122.764	64	55
122.374	122.764	72	55
122.472	122.667	48	47
122.569	122.764	36	53
122.667	122.764	48	47
122.764	122.959	36	44
122.764	122.837	70	51
122.764	122.837	76	51
122.861	122.959	48	40
122.959	123.154	36	43
122.959	123.032	68	53
122.959	123.032	77	53
123.056	123.154	48	45
123.154	123.347	36	46
123.154	123.226	76	55
123.154	123.226	79	55
123.25	123.347	48	47
123.347	123.54	36	48
123.347	123.419	77	57
123.347	123.419	80	57
123.443	123.54	48	50
123.54	123.732	36	51
123.54	123.612	74	59
123.54	123.612	83	59
123.636	123.732	48	53
123.732	123.931	36	55
123.732	124.135	72	51
123.732	124.135	75	51
123.732	124.127	79	61
123.732	124.135	84	61
123.832	124.029	48	50
123.931	124.135	36	53
124.029	124.135	48	47
124.127	124.323	38	55
124.127	124.525	67	53
124.127	124.528	71	53
124.127	124.528	77	63
124.127	124.528	79	63
124.225	124.424	50	50
124.323	124.528	38	55
124.424	124.528	50	51
124.525	124.723	39	55
124.525	124.928	67	56
124.525	124.928	72	56
124.525	124.928	75	67
124.624	124.822	51	55
124.723	124.928	39	55
124.822	124.928	51	55
124.921	125.118	41	55
124.921	125.323	65	60
124.921	125.323	68	60
124.921	125.323	74	71
125.019	125.219	53	53
125.118	125.323	41	55
125.219	125.323	53	55
125.319	125.52	43	56
125.319	126.534	63	62
125.319	125.73	67	74
125.319	126.534	72	74
125.42	125.621	55	56
125.52	125.73	43	57
125.621	125.73	55	57
125.721	125.922	44	58
125.721	126.128	66	74
125.822	126.023	56	59
125.922	126.128	44	59
126.023	126.128	56	60
126.123	126.324	42	60
126.123	126.534	69	77
126.224	126.425	54	55
126.324	126.534	42	61
126.425	126.534	54	55
126.525	126.726	43	58
126.525	126.93	62	62
126.525	126.93	65	62
126.525	126.93	71	74
126.626	126.827	55	55
126.726	126.93	43	58
126.827	126.93	55	55
126.927	127.131	36	48
126.927	127.004	60	67
126.927	127.004	63	67
126.927	127.004	72	79
127.03	127.232	48	45
127.131	127.332	36	44
127.131	127.53	60	67
127.232	127.432	48	41
127.332	127.53	36	44
127.432	127.53	48	40
127.53	127.726	36	44
127.53	127.604	58	52
127.53	127.604	64	52
127.628	127.726	48	41
127.726	127.92	36	44
127.726	127.799	56	54
127.726	127.799	65	54
127.823	127.92	48	46
127.92	128.113	36	47
127.92	127.993	64	55
127.92	127.993	67	55
128.017	128.113	48	47
128.113	128.305	36	49
128.113	128.185	65	57
128.113	128.185	68	57
128.209	128.305	48	50
128.305	128.497	36	51
128.305	128.377	62	59
128.305	128.377	71	59
128.401	128.497	48	53
128.497	128.705	36	55
128.497	128.575	63	61
128.497	128.575	72	61
128.601	128.802	48	50
128.705	128.9	36	53
128.705	129.094	64	55
128.705	129.094	72	55
128.802	128.997	48	47
128.9	129.094	36	53
128.997	129.094	48	47
129.094	129.289	36	44
129.094	129.167	70	51
129.094	129.167	76	51
129.192	129.289	48	40
129.289	129.484	36	43
129.289	129.362	68	53
129.289	129.362	77	53
129.387	129.484	48	45
129.484	129.676	36	46
129.484	129.556	76	55
129.484	129.556	79	55
129.58	129.676	48	47
129.676	129.869	36	48
129.676	129.749	77	57
129.676	129.749	80	57
129.773	129.869	48	50
129.869	130.064	36	51
129.869	129.942	74	59
129.869	129.942	83	59
129.966	130.064	48	53
130.064	130.263	36	55
130.064	130.467	72	51
130.064	130.467	75	51
130.064	130.459	79	61
130.064	130.467	84	61
130.163	130.361	48	50
130.263	130.467	36	53
130.361	130.467	48	47
130.459	130.655	38	55
130.459	130.857	67	53
130.459	130.862	71	53
130.459	130.862	77	63
130.459	130.862	79	63
130.557	130.756	50	50
130.655	130.862	38	55
130.756	130.862	50	51
130.857	131.055	39	55
130.857	131.26	67	56
130.857	131.26	72	56
130.857	131.26	75	67
130.956	131.153	51	55
131.055	131.26	39	55
131.153	131.26	51	55
131.252	131.45	41	55
131.252	131.658	65	60
131.252	131.658	68	60
131.252	131.658	74	71
131.351	131.55	53	53
131.45	131.658	41	55
131.55	131.658	53	55
131.651	131.852	43	56
131.651	133.254	63	62
131.651	132.058	67	74
131.651	133.254	72	74
131.751	131.952	55	56
131.852	132.058	43	57
131.952	132.058	55	57
132.053	132.254	44	58
132.053	132.461	66	74
132.153	132.354	56	59
132.254	132.461	44	59
132.354	132.461	56	60
132.455	132.654	42	60
132.455	133.254	69	77
132.554	132.753	54	55
132.654	132.853	42	61
132.753	132.861	54	55
132.853	133.052	42	58
132.952	133.151	54	55
133.052	133.254	42	58
133.151	133.254	54	55
133.251	133.456	43	55
133.251	133.456	55	55
133.251	133.456	62	55
133.251	133.456	67	55
133.251	133.456	71	55
133.456	133.661	59	50
133.456	133.661	62	50
133.661	133.86	59	50
133.661	133.86	62	50
133.661	134.457	67	80
133.661	134.457	79	80
133.86	134.066	59	50
133.86	134.066	62	50
134.059	134.86	55	50
134.258	134.457	60	50
134.258	134.457	63	50
134.457	134.656	60	50
134.457	134.656	63	50
134.457	134.952	67	80
134.457	134.952	79	80
134.656	134.86	60	50
134.656	134.86	63	50
134.855	135.048	62	50
134.855	135.048	65	50
134.952	135.048	77	70
135.048	135.144	74	69
135.144	135.241	71	69
135.241	135.337	67	68
135.337	135.434	65	67
135.434	135.53	62	66
135.53	135.627	59	65
135.627	135.723	60	65
135.723	135.82	63	64
135.82	135.918	60	65
135.918	136.015	55	65
136.015	136.114	32	55
136.015	136.114	54	64
136.114	136.212	44	55
136.114	136.212	60	64
136.212	136.312	32	55
136.212	136.312	56	63
136.312	136.411	44	55
136.312	136.411	54	65
136.411	137.225	31	50
136.411	137.225	43	50
136.411	137.22	55	67
136.617	136.822	59	50
136.617	136.822	62	50
136.822	137.021	59	50
136.822	137.021	62	50
136.822	137.618	67	80
136.822	137.618	79	80
137.021	137.225	59	50
137.021	137.225	62	50
137.22	138.019	55	50
137.419	137.618	60	50
137.419	137.618	63	50
137.618	137.817	60	50
137.618	137.817	63	50
137.618	138.111	67	80
137.618	138.111	79	80
137.817	138.019	60	50
137.817	138.019	63	50
138.016	138.207	62	50
138.016	138.207	65	50
138.111	138.207	77	72
138.207	138.303	74	71
138.303	138.399	71	70
138.399	138.495	67	69
138.495	138.591	65	68
138.591	138.686	62	67
138.686	138.782	59	66
138.782	138.878	60	65
138.878	138.974	63	64
138.974	139.07	60	64
139.07	139.168	55	67
139.168	139.364	32	55
139.168	139.265	54	66
139.265	139.364	44	55
139.265	139.364	60	64
139.364	139.563	32	55
139.364	139.463	56	62
139.463	139.563	44	49
139.463	139.563	54	60
139.563	139.763	31	50
139.563	139.763	55	67
139.663	139.763	43	51
139.763	139.958	31	51
139.763	139.836	66	67
139.861	139.958	43	52
139.958	140.151	31	53
139.958	140.03	67	69
140.054	140.151	43	54
140.151	140.343	31	55
140.151	140.223	66	71
140.151	140.223	72	71
140.247	140.343	43	56
140.343	140.535	31	57
140.343	140.415	67	73
140.343	140.415	71	73
140.439	140.535	43	58
140.535	140.728	31	59
140.535	140.607	72	75
140.535	140.607	78	75
140.631	140.728	43	60
140.728	140.92	31	61
140.728	140.8	71	77
140.728	140.8	79	77
140.824	140.92	43	61
140.92	141.112	31	62
140.92	140.992	78	79
140.92	140.992	84	79
141.016	141.112	43	63
141.112	141.308	31	64
141.112	141.21	79	81
141.112	141.21	83	81
141.21	141.308	43	55
141.308	141.503	31	61
141.405	141.503	43	55
141.503	141.699	31	61
141.601	141.699	43	55
141.699	141.894	31	60
141.796	141.894	43	55
141.894	142.091	31	64
141.894	142.682	58	81
141.894	142.682	61	81
141.894	142.887	63	84
141.992	142.091	43	55
142.091	142.288	31	61
142.189	142.288	43	55
142.288	142.485	31	61
142.386	142.485	43	55
142.485	142.682	31	60
142.583	142.682	43	55
142.682	142.887	32	50
142.682	142.887	60	67
142.784	142.887	44	51
142.887	143.083	32	51
142.887	142.96	73	67
142.985	143.083	44	52
143.083	143.275	32	53
143.083	143.155	72	69
143.179	143.275	44	54
143.275	143.467	32	55
143.275	143.347	73	71
143.275	143.347	79	71
143.371	143.467	44	56
143.467	143.659	32	57
143.467	143.539	72	73
143.467	143.539	80	73
143.563	143.659	44	58
143.659	143.852	32	59
143.659	143.732	79	75
143.659	143.732	85	75
143.756	143.852	44	60
143.852	144.044	32	61
143.852	143.924	80	77
143.852	143.924	84	77
143.948	144.044	44	61
144.044	144.236	32	62
144.044	144.116	79	79
144.044	144.116	85	79
144.14	144.236	44	63
144.236	144.432	32	64
144.236	144.334	80	81
144.236	144.334	84	81
144.334	144.432	44	55
144.432	144.627	32	61
144.53	144.627	44	55
144.627	144.823	32	61
144.725	144.823	44	55
144.823	145.018	32	60
144.92	145.018	44	55
145.018	145.215	33	64
145.018	145.806	60	81
145.018	145.806	63	81
145.018	145.806	66	84
145.117	145.215	45	55
145.215	145.412	33	61
145.314	145.412	45	55
145.412	145.609	33	61
145.51	145.609	45	55
145.609	145.806	33	60
145.707	145.806	45	55
145.806	146.011	34	50
145.806	146.011	62	67
145.806	146.011	65	67
145.909	146.011	46	51
146.011	146.203	34	51
146.011	146.083	69	62
146.011	146.083	75	67
146.107	146.203	46	52
146.203	146.395	34	53
146.203	146.275	70	65
146.203	146.275	74	69
146.299	146.395	46	54
146.395	146.587	34	55
146.395	146.467	75	71
146.395	146.467	81	71
146.491	146.587	46	56
146.587	146.779	34	57
146.587	146.659	74	73
146.587	146.659	82	73
146.683	146.779	46	58
146.779	146.97	34	59
146.779	146.85	81	75
146.779	146.85	87	75
146.874	146.97	46	60
146.97	147.162	34	61
146.97	147.042	82	77
146.97	147.042	86	77
147.066	147.162	46	61
147.162	147.354	34	62
147.162	147.234	81	79
147.162	147.234	87	79
147.258	147.354	46	63
147.354	147.549	34	64
147.354	147.451	82	81
147.354	147.451	86	81
147.451	147.549	46	55
147.549	147.745	34	61
147.647	147.745	46	55
147.745	147.937	34	61
147.745	148.13	75	81
147.745	148.13	81	81
147.841	147.937	46	55
147.937	148.13	34	60
148.034	148.13	46	55
148.13	148.326	34	64
148.13	148.326	74	81
148.13	148.326	82	81
148.228	148.326	46	55
148.326	148.521	34	61
148.423	148.521	46	55
148.521	148.713	34	61
148.521	148.906	69	81
148.521	148.906	75	81
148.617	148.713	46	55
148.713	148.906	34	60
148.81	148.906	46	55
148.906	149.101	34	64
148.906	149.101	70	81
148.906	149.101	74	81
149.003	149.101	46	55
149.101	149.297	34	61
149.199	149.297	46	55
149.297	149.49	34	61
149.297	149.684	63	81
149.297	149.684	69	81
149.393	149.49	46	55
149.49	149.684	34	60
149.587	149.684	46	55
149.684	149.879	34	64
149.684	149.879	62	81
149.684	149.879	70	81
149.781	149.879	46	55
149.879	150.073	34	61
149.976	150.073	46	55
150.073	150.268	34	61
150.073	150.463	57	81
150.073	150.463	63	81
150.171	150.268	46	55
150.268	150.463	34	60
150.366	150.463	46	55
150.463	150.665	34	64
150.463	150.665	46	55
150.463	150.665	58	81
150.463	150.665	62	81
150.665	150.867	57	50
150.867	151.069	58	59
151.069	151.271	57	56
151.271	151.473	58	57
151.473	151.675	57	49
151.675	151.877	58	57
151.877	152.079	57	51
152.079	152.876	58	44
152.284	152.385	46	55
152.284	152.485	63	38
152.284	152.485	66	38
152.485	152.583	51	58
152.485	152.681	63	38
152.485	152.681	66	38
152.681	152.779	53	61
152.681	152.876	63	38
152.681	152.876	66	38
152.876	152.978	54	64
152.876	153.683	58	44
153.08	153.284	63	38
153.08	153.284	66	38
153.08	153.182	70	62
153.284	153.484	63	38
153.284	153.484	66	38
153.284	153.384	75	64
153.484	153.683	63	38
153.484	153.683	66	38
153.484	153.583	77	66
153.633	153.683	70	65
153.683	154.489	58	44
153.683	154.286	78	75
153.886	154.086	63	38
153.886	154.086	66	38
154.086	154.286	63	38
154.086	154.286	66	38
154.286	154.489	63	38
154.286	154.489	66	38
154.286	154.489	75	63
154.438	154.489	70	60
154.489	155.295	58	44
154.489	155.093	78	71
154.693	154.893	63	38
154.693	154.893	66	38
154.893	155.093	63	38
154.893	155.093	66	38
155.093	155.295	63	38
155.093	155.295	66	38
155.093	155.295	75	58
155.295	156.093	58	44
155.295	155.502	74	60
155.502	155.602	46	57
155.502	155.702	65	38
155.502	155.702	68	38
155.702	155.8	53	60
155.702	155.898	65	38
155.702	155.898	68	38
155.898	155.995	54	63
155.898	156.093	65	38
155.898	156.093	68	38
156.093	156.195	56	66
156.093	156.901	58	44
156.297	156.501	65	38
156.297	156.501	68	38
156.297	156.501	70	59
156.501	156.701	65	38
156.501	156.701	68	38
156.501	156.701	80	62
156.701	156.901	65	38
156.701	156.901	68	38
156.701	156.901	78	65
156.901	157.715	58	44
156.901	156.952	78	60
156.952	157.003	80	60
157.003	157.105	78	67
157.105	157.308	65	38
157.105	157.308	68	38
157.105	157.308	77	60
157.308	157.511	65	38
157.308	157.511	68	38
157.308	157.359	77	60
157.359	157.41	78	60
157.41	157.511	77	67
157.511	157.715	65	38
157.511	157.715	68	38
157.511	157.715	75	60
157.715	158.528	58	44
157.715	157.766	75	60
157.766	157.817	77	60
157.817	157.918	75	66
157.918	158.122	65	38
157.918	158.122	68	38
157.918	158.122	74	60
158.122	158.325	65	38
158.122	158.325	68	38
158.122	158.223	72	60
158.325	158.528	65	38
158.325	158.528	68	38
158.325	158.427	74	60
158.528	159.328	58	44
158.528	158.737	75	60
158.737	158.837	46	55
158.737	158.937	63	38
158.737	158.937	66	38
158.937	159.034	51	58
158.937	159.132	63	38
158.937	159.132	66	38
159.132	159.23	53	61
159.132	159.328	63	38
159.132	159.328	66	38
159.328	159.43	54	64
159.328	160.135	58	44
159.532	159.736	63	38
159.532	159.736	66	38
159.532	159.634	70	62
159.736	159.935	63	38
159.736	159.935	66	38
159.736	159.836	75	64
159.935	160.135	63	38
159.935	160.135	66	38
159.935	160.035	77	66
160.085	160.135	70	65
160.135	160.941	58	44
160.135	160.737	78	75
160.337	160.537	63	38
160.337	160.537	66	38
160.537	160.737	63	38
160.537	160.737	66	38
160.737	160.941	63	38
160.737	160.941	66	38
160.737	160.941	75	63
160.89	160.941	70	60
160.941	161.746	58	44
160.941	161.544	78	71
161.144	161.344	63	38
161.144	161.344	66	38
161.344	161.544	63	38
161.344	161.544	66	38
161.544	161.746	63	38
161.544	161.746	66	38
161.544	161.746	75	58
161.746	162.541	56	44
161.746	161.954	72	60
161.954	162.053	44	57
161.954	162.152	63	38
161.954	162.152	66	38
162.152	162.249	51	60
162.152	162.347	63	38
162.152	162.347	66	38
162.347	162.444	53	63
162.347	162.541	63	38
162.347	162.541	66	38
162.541	162.643	54	66
162.541	163.349	56	44
162.745	162.949	63	38
162.745	162.949	66	38
162.745	162.949	68	59
162.949	163.149	63	38
162.949	163.149	66	38
162.949	163.149	78	62
163.149	163.349	63	38
163.149	163.349	66	38
163.149	163.349	77	65
163.349	164.162	56	44
163.349	163.4	77	60
163.4	163.451	78	60
163.451	163.552	77	67
163.552	163.756	63	38
163.552	163.756	66	38
163.552	163.756	75	60
163.756	163.959	63	38
163.756	163.959	66	38
163.756	163.806	75	60
163.806	163.857	77	60
163.857	163.959	75	67
163.959	164.162	63	38
163.959	164.162	66	38
163.959	164.162	73	60
164.162	164.976	56	44
164.162	164.213	73	60
164.213	164.264	75	60
164.264	164.366	73	66
164.366	164.569	63	38
164.366	164.569	66	38
164.366	164.569	72	60
164.569	164.773	63	38
164.569	164.773	66	38
164.569	164.671	70	60
164.773	164.976	63	38
164.773	164.976	66	38
164.773	164.874	72	60
164.976	165.775	56	44
164.976	165.181	73	60
165.181	165.281	44	55
165.181	165.381	61	38
165.181	165.381	65	38
165.381	165.48	49	58
165.381	165.578	61	38
165.381	165.578	65	38
165.578	165.676	51	61
165.578	165.775	61	38
165.578	165.775	65	38
165.775	165.877	53	64
165.775	166.582	56	44
165.979	166.183	61	38
165.979	166.183	65	38
165.979	166.081	68	62
166.183	166.382	61	38
166.183	166.382	65	38
166.183	166.283	73	64
166.382	166.582	61	38
166.382	166.582	65	38
166.382	166.482	75	66
166.532	166.582	68	65
166.582	167.388	56	44
166.582	167.184	77	75
166.784	166.984	61	38
166.784	166.984	65	38
166.984	167.184	61	38
166.984	167.184	65	38
167.184	167.388	61	38
167.184	167.388	65	38
167.184	167.388	73	63
167.337	167.388	68	60
167.388	168.193	56	44
167.388	167.991	77	71
167.591	167.791	61	38
167.591	167.791	65	38
167.791	167.991	61	38
167.791	167.991	65	38
167.991	168.193	61	38
167.991	168.193	65	38
167.991	168.193	73	58
168.193	168.988	56	44
168.193	168.4	72	60
168.4	168.499	44	57
168.4	168.599	63	38
168.4	168.599	66	38
168.599	168.696	51	60
168.599	168.794	63	38
168.599	168.794	66	38
168.794	168.891	53	63
168.794	168.988	63	38
168.794	168.988	66	38
168.988	169.09	54	66
168.988	169.797	56	44
169.192	169.397	63	38
169.192	169.397	66	38
169.192	169.397	68	59
169.397	169.597	63	38
169.397	169.597	66	38
169.397	169.597	78	62
169.597	169.797	63	38
169.597	169.797	66	38
169.597	169.797	77	65
169.797	170.61	56	44
169.797	169.847	77	60
169.847	169.898	78	60
169.898	170.0	77	67
170.0	170.203	63	38
170.0	170.203	66	38
170.0	170.203	75	60
170.203	170.407	63	38
170.203	170.407	66	38
170.203	170.254	75	60
170.254	170.305	77	60
170.305	170.407	75	67
170.407	170.61	63	38
170.407	170.61	66	38
170.407	170.61	73	60
170.61	171.424	56	44
170.61	170.661	73	60
170.661	170.712	75	60
170.712	170.813	73	66
170.813	171.017	63	38
170.813	171.017	66	38
170.813	171.017	72	60
171.017	171.22	63	38
171.017	171.22	66	38
171.017	171.119	70	60
171.22	171.424	63	38
171.22	171.424	66	38
171.22	171.322	72	57
171.424	171.828	61	54
171.424	171.628	73	60
171.628	171.828	49	73
171.628	171.828	65	53
171.628	171.828	68	53
171.828	172.026	56	77
171.828	172.231	59	60
172.026	172.129	47	73
172.026	172.231	65	53
172.026	172.231	68	53
172.231	172.334	46	77
172.231	173.042	58	53
172.437	172.642	65	38
172.437	172.642	68	38
172.437	172.642	70	59
172.642	172.842	65	38
172.642	172.842	68	38
172.642	172.842	80	62
172.842	173.042	65	38
172.842	173.042	68	38
172.842	173.042	78	65
173.042	173.856	58	44
173.042	173.093	78	60
173.093	173.144	80	60
173.144	173.246	78	67
173.246	173.449	65	38
173.246	173.449	68	38
173.246	173.449	77	60
173.449	173.652	65	38
173.449	173.652	68	38
173.449	173.5	77	60
173.5	173.551	78	60
173.551	173.652	77	67
173.652	173.856	65	38
173.652	173.856	68	38
173.652	173.856	75	60
173.856	174.669	58	44
173.856	173.907	75	60
173.907	173.957	77	60
173.957	174.059	75	66
174.059	174.263	65	38
174.059	174.263	68	38
174.059	174.263	74	60
174.263	174.466	65	38
174.263	174.466	68	38
174.263	174.364	72	60
174.466	174.669	65	38
174.466	174.669	68	38
174.466	174.568	74	57
174.669	175.08	63	54
174.669	174.879	75	60
174.879	175.08	51	73
174.879	175.08	66	53
174.879	175.08	70	53
175.08	175.278	58	77
175.08	175.484	61	60
175.278	175.381	49	73
175.278	175.484	65	53
175.278	175.484	70	53
175.484	175.587	48	77
175.484	176.295	60	53
175.689	175.895	67	38
175.689	175.895	70	38
175.689	175.895	72	59
175.895	176.095	67	38
175.895	176.095	70	38
175.895	176.095	82	62
176.095	176.295	67	38
176.095	176.295	70	38
176.095	176.295	80	65
176.295	177.108	60	44
176.295	176.346	80	60
176.346	176.397	82	60
176.397	176.498	80	67
176.498	176.702	67	38
176.498	176.702	70	38
176.498	176.702	79	60
176.702	176.905	67	38
176.702	176.905	70	38
176.702	176.753	79	60
176.753	176.803	80	60
176.803	176.905	79	67
176.905	177.108	67	38
176.905	177.108	70	38
176.905	177.108	77	60
177.108	177.922	60	44
177.108	177.159	77	60
177.159	177.21	79	60
177.21	177.312	77	66
177.312	177.515	67	38
177.312	177.515	70	38
177.312	177.515	76	60
177.515	177.719	67	38
177.515	177.719	70	38
177.515	177.719	74	60
177.719	177.922	67	38
177.719	177.922	70	38
177.719	177.922	76	57
177.922	178.736	65	44
177.922	177.973	79	60
177.973	178.024	80	60
178.024	178.125	79	67
178.125	178.329	68	38
178.125	178.329	72	38
178.125	178.329	77	60
178.329	178.532	68	38
178.329	178.532	72	38
178.329	178.38	77	60
178.38	178.43	79	60
178.43	178.532	77	67
178.532	178.736	68	38
178.532	178.736	72	38
178.532	178.736	75	60
178.736	179.142	58	44
178.736	178.786	75	60
178.786	178.837	77	60
178.837	178.939	75	66
178.939	179.142	65	38
178.939	179.142	68	38
178.939	179.142	74	60
179.142	179.549	59	44
179.142	179.346	65	38
179.142	179.346	68	38
179.142	179.346	72	60
179.346	179.549	65	38
179.346	179.549	68	38
179.346	179.549	74	57
179.549	180.363	60	44
179.549	179.6	77	60
179.6	179.651	79	60
179.651	179.752	77	67
179.752	179.956	63	37
179.752	179.956	67	37
179.752	179.956	75	59
179.956	180.159	63	36
179.956	180.159	67	36
179.956	180.007	75	58
180.007	180.058	77	58
180.058	180.159	75	64
180.159	180.363	63	36
180.159	180.363	67	36
180.159	180.363	74	57
180.363	181.184	56	41
180.363	180.413	74	56
180.413	180.464	75	55
180.464	180.566	74	61
180.566	180.77	63	34
180.566	180.77	65	34
180.566	180.77	72	55
180.77	180.976	63	34
180.77	180.976	65	34
180.77	180.821	72	54
180.821	180.872	74	54
180.872	180.976	72	59
180.976	181.184	63	33
180.976	181.184	65	33
180.976	181.184	71	53
181.184	182.035	58	38
181.184	181.237	72	52
181.237	181.29	74	52
181.29	181.397	72	56
181.397	181.609	63	32
181.397	181.609	67	32
181.397	181.609	70	51
181.609	181.822	63	31
181.609	181.822	67	31
181.609	181.689	70	50
181.822	182.035	63	31
181.822	182.035	67	31
181.822	181.902	70	46
182.035	182.917	58	27
182.035	182.09	72	37
182.09	182.145	74	37
182.145	182.256	72	41
182.256	182.476	62	23
182.256	182.476	65	23
182.256	182.476	70	37
182.476	182.697	62	23
182.476	182.697	65	23
182.476	182.559	70	37
182.697	182.917	62	23
182.697	182.917	65	23
182.697	182.779	70	35
182.917	184.172	51	36
183.028	183.242	58	24
183.028	183.242	63	25
183.138	183.347	55	26
183.138	183.554	67	29
183.242	183.451	58	24
183.242	183.451	63	29
183.347	183.554	55	32
183.347	184.172	75	45
183.451	183.658	58	25
183.451	183.658	63	28
183.554	183.761	55	28
183.554	183.761	67	30
183.658	183.768	58	26
183.658	183.768	63	28
183.761	183.966	55	34
183.761	183.966	67	31
183.864	184.069	58	26
183.864	184.069	63	30
183.966	184.377	55	29
183.966	184.377	67	32
184.069	184.275	58	26
184.069	184.275	63	29
184.172	184.589	51	36
184.172	184.589	75	50
184.275	184.48	58	28
184.275	184.48	63	30
184.377	184.589	55	32
184.377	184.589	67	33
184.48	184.589	58	28
184.48	184.589	63	32
184.583	185.842	49	45
184.696	184.911	58	30
184.696	184.911	63	32
184.807	185.015	55	32
184.807	185.223	67	36
184.911	185.119	58	29
184.911	185.119	63	35
185.015	185.223	55	38
185.015	185.842	75	54
185.119	185.326	58	30
185.119	185.326	63	33
185.223	185.43	55	33
185.223	185.43	67	35
185.326	185.437	58	30
185.326	185.437	63	32
185.43	185.636	55	38
185.43	185.636	67	35
185.533	185.739	58	29
185.533	185.739	63	33
185.636	186.048	55	32
185.636	186.048	67	35
185.739	185.945	58	29
185.739	185.945	63	32
185.842	186.268	49	38
185.842	186.263	75	53
185.945	186.151	58	30
185.945	186.151	63	32
186.048	186.268	55	33
186.048	186.268	67	35
186.151	186.268	58	29
186.151	186.268	63	33
186.263	186.339	48	55
186.263	186.339	75	66
186.365	186.466	56	36
186.365	186.466	63	41
186.466	186.567	51	39
186.466	186.567	68	45
186.567	186.669	56	35
186.567	186.669	63	42
186.669	186.744	46	56
186.669	186.744	76	67
186.77	186.87	55	36
186.77	186.87	64	43
186.87	186.971	48	43
186.87	186.971	72	47
186.971	187.071	55	41
186.971	187.071	64	43
187.071	187.145	44	58
187.071	187.145	77	71
187.169	187.267	56	38
187.169	187.267	65	45
187.267	187.365	48	43
187.267	187.365	72	50
187.365	187.463	56	38
187.365	187.463	65	45
187.463	187.537	43	60
187.463	187.537	79	72
187.561	187.659	55	40
187.561	187.659	67	47
187.659	187.757	48	43
187.659	187.757	72	50
187.757	187.855	55	38
187.757	187.855	67	47
187.855	187.928	41	63
187.855	187.928	80	74
187.952	188.048	53	42
187.952	188.048	68	49
188.048	188.146	48	45
188.048	188.146	72	54
188.146	188.242	53	42
188.146	188.242	68	49
188.242	188.315	39	66
188.242	188.315	81	80
188.339	188.435	51	41
188.339	188.435	69	50
188.435	188.533	41	47
188.435	188.533	72	55
188.533	188.629	51	41
188.533	188.629	69	51
188.629	188.702	38	68
188.629	188.702	82	84
188.726	188.822	50	45
188.726	188.822	70	51
188.822	188.918	41	49
188.822	188.918	77	58
188.918	189.014	50	43
188.918	189.014	70	53
189.014	189.087	36	70
189.014	189.087	84	85
189.111	189.207	48	45
189.111	189.207	72	53
189.207	189.304	41	51
189.207	189.304	77	58
189.304	189.4	48	43
189.304	189.4	72	54
189.4	189.472	34	70
189.4	189.472	85	85
189.496	189.593	46	47
189.496	189.593	73	55
189.593	189.689	41	53
189.593	189.689	77	63
189.689	189.786	46	48
189.689	189.786	73	55
189.786	189.858	32	72
189.786	189.858	86	90
189.883	189.978	44	47
189.883	189.978	74	57
189.978	190.075	41	53
189.978	190.075	77	62
190.075	190.172	44	50
190.075	190.172	74	57
190.172	190.244	31	75
190.172	190.244	87	89
190.268	190.364	43	50
190.268	190.364	75	59
190.364	190.461	39	55
190.364	190.461	82	64
190.461	190.558	43	50
190.461	190.558	75	59
190.558	190.634	31	76
190.558	190.634	83	91
190.66	190.761	43	56
190.66	190.761	71	61
190.761	190.863	39	58
190.761	190.863	75	67
190.863	190.965	43	55
190.863	190.965	71	61
190.965	191.766	32	71
190.965	191.766	44	84
191.065	191.26	72	78
191.162	191.553	75	84
191.26	191.455	72	78
191.358	191.766	84	88
191.455	191.655	72	78
191.553	191.766	75	84
191.655	191.766	72	76
191.757	192.578	34	71
191.757	192.578	46	84
191.858	192.054	65	78
191.956	192.348	68	84
192.054	192.25	65	78
192.152	192.578	74	88
192.25	192.456	65	78
192.348	192.578	68	84
192.456	192.578	65	76
192.569	193.813	51	45
192.674	192.884	58	30
192.674	192.884	63	32
192.779	192.988	55	32
192.779	193.195	67	36
192.884	193.092	58	29
192.884	193.092	63	35
192.988	193.195	55	38
192.988	193.813	75	54
193.092	193.299	58	30
193.092	193.299	63	33
193.195	193.402	55	33
193.195	193.402	67	35
193.299	193.409	58	30
193.299	193.409	63	32
193.402	193.607	55	38
193.402	193.607	67	35
193.505	193.71	58	29
193.505	193.71	63	33
193.607	194.018	55	32
193.607	194.018	67	35
193.71	193.916	58	29
193.71	193.916	63	32
193.813	194.23	51	38
193.813	194.23	75	53
193.916	194.121	58	30
193.916	194.121	63	32
194.018	194.23	55	33
194.018	194.23	67	35
194.121	194.23	58	29
194.121	194.23	63	33
194.224	195.483	49	45
194.337	194.552	58	30
194.337	194.552	63	32
194.448	194.656	55	32
194.448	194.864	67	36
194.552	194.76	58	29
194.552	194.76	63	35
194.656	194.864	55	38
194.656	195.483	75	54
194.76	194.967	58	30
194.76	194.967	63	33
194.864	195.071	55	33
194.864	195.071	67	35
194.967	195.079	58	30
194.967	195.079	63	32
195.071	195.277	55	38
195.071	195.277	67	35
195.174	195.38	58	29
195.174	195.38	63	33
195.277	195.689	55	32
195.277	195.689	67	35
195.38	195.586	58	29
195.38	195.586	63	32
195.483	195.91	49	38
195.483	195.904	75	53
195.586	195.792	58	30
195.586	195.792	63	32
195.689	195.91	55	33
195.689	195.91	67	35
195.792	195.91	58	29
195.792	195.91	63	33
195.904	195.98	48	55
195.904	195.98	75	66
196.006	196.107	56	36
196.006	196.107	63	41
196.107	196.209	51	39
196.107	196.209	68	45
196.209	196.31	56	35
196.209	196.31	63	42
196.31	196.386	46	56
196.31	196.386	76	67
196.411	196.511	55	36
196.411	196.511	64	43
196.511	196.612	48	43
196.511	196.612	72	47
196.612	196.712	55	41
196.612	196.712	64	43
196.712	196.786	44	58
196.712	196.786	77	71
196.81	196.908	56	38
196.81	196.908	65	45
196.908	197.006	48	43
196.908	197.006	72	50
197.006	197.104	56	38
197.006	197.104	65	45
197.104	197.178	43	60
197.104	197.178	79	72
197.202	197.3	55	40
197.202	197.3	67	47
197.3	197.398	48	43
197.3	197.398	72	50
197.398	197.497	55	38
197.398	197.497	67	47
197.497	197.569	41	63
197.497	197.569	80	74
197.593	197.69	53	42
197.593	197.69	68	49
197.69	197.787	48	45
197.69	197.787	72	54
197.787	197.883	53	42
197.787	197.883	68	49
197.883	197.956	39	66
197.883	197.956	81	80
197.981	198.078	51	41
197.981	198.078	69	50
198.078	198.174	41	47
198.078	198.174	72	55
198.174	198.271	51	41
198.174	198.271	69	51
198.271	198.344	38	68
198.271	198.344	82	84
198.368	198.464	50	45
198.368	198.464	70	51
198.464	198.562	41	49
198.464	198.562	77	58
198.562	198.659	50	43
198.562	198.659	70	53
198.659	198.731	36	70
198.659	198.731	84	85
198.756	198.852	48	45
198.756	198.852	72	53
198.852	198.949	41	51
198.852	198.949	77	58
198.949	199.046	48	43
198.949	199.046	72	54
199.046	199.119	34	70
199.046	199.119	85	85
199.143	199.239	46	47
199.143	199.239	73	55
199.239	199.336	41	53
199.239	199.336	77	63
199.336	199.433	46	48
199.336	199.433	73	55
199.433	199.505	32	72
199.433	199.505	86	90
199.529	199.624	44	47
199.529	199.624	74	57
199.624	199.722	41	53
199.624	199.722	77	62
199.722	199.818	44	50
199.722	199.818	74	57
199.818	199.89	31	75
199.818	199.89	87	89
199.914	200.013	43	50
199.914	200.013	75	59
200.013	200.11	39	55
200.013	200.11	82	64
200.11	200.207	43	50
200.11	200.207	75	59
200.207	200.283	31	76
200.207	200.283	88	91
200.309	200.41	43	56
200.309	200.41	76	61
200.41	200.512	31	58
200.41	200.512	82	67
200.512	200.614	43	55
200.512	200.614	76	61
200.614	201.416	32	71
200.614	201.416	44	84
200.716	200.911	80	78
200.813	201.204	84	84
200.911	201.107	80	78
201.009	201.416	89	88
201.107	201.306	80	78
201.204	201.416	84	84
201.306	201.416	80	76
201.408	202.209	34	71
201.408	202.209	46	84
201.509	201.705	77	78
201.607	201.999	80	84
201.705	201.901	77	78
201.803	202.209	86	88
201.901	202.101	77	78
201.999	202.209	80	84
202.101	202.209	77	76
202.203	202.412	39	84
202.203	202.412	51	84
202.203	202.281	79	81
202.412	202.611	63	34
202.412	202.611	67	34
202.412	202.91	87	58
202.611	202.81	63	34
202.611	202.81	67	34
202.81	203.018	63	34
202.81	203.018	67	34
202.81	203.018	86	46
202.91	203.018	87	48
203.012	203.821	60	34
203.012	203.821	89	49
203.115	203.821	87	49
203.216	203.414	63	34
203.216	203.414	67	34
203.216	203.613	86	48
203.315	203.514	84	47
203.414	203.613	63	34
203.414	203.613	67	34
203.414	203.821	83	45
203.514	203.713	84	46
203.613	203.821	63	34
203.613	203.821	67	34
203.613	203.821	86	49
203.713	203.821	84	47
203.814	204.621	56	34
203.814	204.621	82	49
203.915	204.621	80	47
204.015	204.213	63	34
204.015	204.213	65	34
204.015	204.412	79	46
204.114	204.312	77	45
204.213	204.412	63	34
204.213	204.412	65	34
204.213	204.621	76	45
204.312	204.511	77	45
204.412	204.621	63	34
204.412	204.621	65	34
204.412	204.621	79	47
204.511	204.621	77	45
204.612	205.416	58	34
204.612	205.416	75	46
204.713	205.416	74	46
204.813	205.012	62	34
204.813	205.012	65	34
204.813	205.211	72	45
204.913	205.112	70	45
205.012	205.211	62	34
205.012	205.211	65	34
205.012	205.416	69	45
205.112	205.416	70	42
205.211	205.416	62	34
205.211	205.416	65	34
205.211	205.416	72	46
205.31	205.416	68	42
205.41	206.226	51	59
205.41	205.488	79	66
205.619	205.818	55	44
205.619	205.818	63	44
205.619	206.226	75	68
205.619	206.117	87	68
205.818	206.017	55	44
205.818	206.017	63	44
206.017	206.226	55	44
206.017	206.226	63	44
206.017	206.226	86	61
206.117	206.226	87	64
206.219	207.029	48	45
206.219	207.029	89	66
206.322	207.029	87	66
206.423	206.621	51	46
206.423	206.621	55	46
206.423	206.621	60	46
206.423	206.82	86	65
206.522	206.721	84	64
206.621	206.82	51	46
206.621	206.82	55	46
206.621	206.82	60	46
206.621	207.029	83	62
206.721	206.92	84	64
206.82	207.029	51	47
206.82	207.029	55	47
206.82	207.029	60	47
206.82	207.029	86	68
206.92	207.029	84	66
207.021	207.827	44	47
207.021	207.827	82	69
207.122	207.827	80	67
207.222	207.42	51	48
207.222	207.42	53	48
207.222	207.42	56	48
207.222	207.618	79	66
207.321	207.519	77	65
207.42	207.618	51	48
207.42	207.618	53	48
207.42	207.618	56	48
207.42	207.827	76	65
207.519	207.718	77	64
207.618	207.827	51	49
207.618	207.827	53	49
207.618	207.827	56	49
207.618	207.827	79	68
207.718	207.827	77	66
207.819	208.63	46	49
207.819	208.625	75	68
207.92	208.63	74	68
208.02	208.219	50	50
208.02	208.219	53	50
208.02	208.219	58	50
208.02	208.418	72	68
208.12	208.318	70	68
208.219	208.418	50	50
208.219	208.418	53	50
208.219	208.418	58	50
208.219	208.63	69	67
208.318	208.519	70	64
208.418	208.63	50	51
208.418	208.63	53	51
208.418	208.63	58	51
208.418	208.63	72	70
208.519	208.63	70	64
208.625	208.846	39	67
208.625	208.736	75	83
208.736	208.846	51	60
208.846	209.045	39	67
208.846	209.247	63	82
208.946	209.045	51	59
209.045	209.247	39	67
209.146	209.247	51	60
209.247	209.446	39	66
209.247	209.346	61	80
209.247	209.346	67	80
209.346	209.446	51	60
209.446	209.644	39	66
209.446	209.545	60	81
209.446	209.545	68	81
209.545	209.644	51	59
209.644	209.843	39	66
209.644	209.744	67	82
209.644	209.744	70	82
209.744	209.843	51	60
209.843	210.042	39	66
209.843	209.942	68	83
209.843	209.942	72	83
209.942	210.042	51	60
210.042	210.24	39	66
210.042	210.141	68	85
210.042	210.141	74	85
210.141	210.24	51	61
210.24	210.449	39	67
210.24	210.345	67	83
210.24	210.345	75	83
210.345	210.449	51	60
210.449	210.648	39	67
210.449	210.85	75	82
210.549	210.648	51	59
210.648	210.85	39	67
210.749	210.85	51	60
210.85	211.049	39	66
210.85	210.949	73	80
210.85	210.949	79	80
210.949	211.049	51	60
211.049	211.247	39	66
211.049	211.148	72	81
211.049	211.148	80	81
211.148	211.247	51	59
211.247	211.446	39	66
211.247	211.347	79	82
211.247	211.347	82	82
211.347	211.446	51	60
211.446	211.645	39	66
211.446	211.545	80	83
211.446	211.545	84	83
211.545	211.645	51	60
211.645	211.855	39	66
211.645	211.75	80	85
211.645	211.75	86	85
211.75	211.855	51	61
211.855	212.055	39	66
211.855	212.655	79	94
211.855	212.655	87	94
211.955	212.055	51	59
212.055	212.255	39	66
212.155	212.255	51	60
212.255	212.455	39	66
212.355	212.455	51	60
212.455	212.655	39	66
212.555	212.655	51	61
212.655	212.853	38	66
212.655	213.466	67	88
212.655	213.466	75	88
212.754	212.853	50	59
212.853	213.052	38	66
212.953	213.052	50	60
213.052	213.251	38	66
213.151	213.251	50	60
213.251	213.466	38	66
213.358	213.466	50	61
213.466	213.666	36	66
213.466	214.266	79	99
213.466	214.266	87	99
213.566	213.666	48	59
213.666	213.866	36	66
213.766	213.866	48	60
213.866	214.066	36	66
213.966	214.066	48	60
214.066	214.266	36	66
214.166	214.266	48	61
214.266	214.464	34	66
214.266	215.073	67	92
214.266	215.073	75	92
214.365	214.464	46	59
214.464	214.662	34	66
214.563	214.662	46	60
214.662	214.86	34	66
214.761	214.86	46	60
214.86	215.073	34	66
214.966	215.073	46	61
215.073	215.273	32	66
215.073	215.873	84	102
215.073	215.873	87	102
215.173	215.273	44	59
215.273	215.473	32	66
215.373	215.473	44	60
215.473	215.673	32	66
215.573	215.673	44	60
215.673	215.873	32	66
215.773	215.873	44	61
215.873	216.071	31	66
215.873	216.678	72	96
215.873	216.678	75	96
215.972	216.071	43	59
216.071	216.269	31	66
216.17	216.269	43	60
216.269	216.467	31	66
216.368	216.467	43	60
216.467	216.678	31	66
216.572	216.678	43	61
216.678	217.642	30	62
216.678	217.642	42	74
216.678	217.642	81	93
216.678	217.642	84	93
216.678	217.642	86	93
217.642	219.642	31	71
217.642	219.642	43	84
217.642	219.642	53	86
217.642	219.642	59	102
217.642	219.642	62	102
219.642	219.846	36	44
219.642	220.245	60	50
219.744	219.946	48	41
219.846	220.047	36	44
219.946	220.146	48	41
220.047	220.245	36	44
220.146	220.245	48	41
220.245	220.44	36	45
220.245	220.318	58	52
220.245	220.318	64	52
220.343	220.44	48	41
220.44	220.635	36	45
220.44	220.513	56	54
220.44	220.513	65	54
220.537	220.635	48	46
220.635	220.827	36	47
220.635	220.707	64	56
220.635	220.707	67	56
220.731	220.827	48	47
220.827	221.019	36	49
220.827	220.899	65	57
220.827	220.899	68	57
220.923	221.019	48	50
221.019	221.215	36	51
221.019	221.093	62	59
221.019	221.093	71	59
221.117	221.215	48	53
221.215	221.422	36	55
221.215	221.293	63	61
221.215	221.293	72	61
221.319	221.52	48	50
221.422	221.617	36	53
221.422	221.812	64	55
221.422	221.812	72	55
221.52	221.714	48	47
221.617	221.812	36	53
221.714	221.812	48	47
221.812	222.007	36	44
221.812	221.885	70	51
221.812	221.885	76	51
221.909	222.007	48	40
222.007	222.202	36	43
222.007	222.08	68	53
222.007	222.08	77	53
222.104	222.202	48	45
222.202	222.395	36	46
222.202	222.274	76	55
222.202	222.274	79	55
222.298	222.395	48	47
222.395	222.587	36	48
222.395	222.467	77	57
222.395	222.467	80	57
222.491	222.587	48	50
222.587	222.78	36	51
222.587	222.66	74	59
222.587	222.66	83	59
222.684	222.78	48	53
222.78	222.979	36	55
222.78	223.183	72	51
222.78	223.183	75	51
222.78	223.175	79	61
222.78	223.183	84	61
222.88	223.077	48	50
222.979	223.183	36	53
223.077	223.183	48	47
223.175	223.371	38	55
223.175	223.573	67	53
223.175	223.579	71	53
223.175	223.579	77	63
223.175	223.579	79	63
223.273	223.472	50	50
223.371	223.579	38	55
223.472	223.579	50	51
223.573	223.771	39	55
223.573	223.977	67	56
223.573	223.977	72	56
223.573	223.977	75	67
223.672	223.87	51	55
223.771	223.977	39	55
223.87	223.977	51	55
223.968	224.166	41	55
223.968	224.375	65	60
223.968	224.375	68	60
223.968	224.375	74	71
224.067	224.267	53	53
224.166	224.375	41	55
224.267	224.375	53	55
224.367	224.568	43	56
224.367	225.582	63	62
224.367	224.778	67	74
224.367	225.582	72	74
224.468	224.669	55	56
224.568	224.778	43	57
224.669	224.778	55	57
224.769	224.97	44	58
224.769	225.177	66	74
224.87	225.071	56	59
224.97	225.177	44	59
225.071	225.177	56	60
225.171	225.372	42	60
225.171	225.582	69	77
225.272	225.473	54	55
225.372	225.582	42	61
225.473	225.582	54	55
225.573	225.774	43	58
225.573	225.98	62	62
225.573	225.98	65	62
225.573	225.98	71	74
225.674	225.875	55	55
225.774	225.98	43	58
225.875	225.98	55	55
225.975	226.179	36	48
225.975	226.052	60	67
225.975	226.052	63	67
225.975	226.052	72	79
226.078	226.28	48	45
226.179	226.38	36	44
226.179	226.578	60	67
226.28	226.479	48	41
226.38	226.578	36	44
226.479	226.578	48	40
226.578	226.774	36	44
226.578	226.652	58	52
226.578	226.652	64	52
226.676	226.774	48	41
226.774	226.968	36	44
226.774	226.847	56	54
226.774	226.847	65	54
226.871	226.968	48	46
226.968	227.161	36	47
226.968	227.041	64	55
226.968	227.041	67	55
227.065	227.161	48	47
227.161	227.353	36	49
227.161	227.233	65	57
227.161	227.233	68	57
227.257	227.353	48	50
227.353	227.545	36	51
227.353	227.425	62	59
227.353	227.425	71	59
227.449	227.545	48	53
227.545	227.753	36	55
227.545	227.623	63	61
227.545	227.623	72	61
227.649	227.85	48	50
227.753	227.947	36	53
227.753	228.142	64	55
227.753	228.142	72	55
227.85	228.045	48	47
227.947	228.142	36	53
228.045	228.142	48	47
228.142	228.337	36	44
228.142	228.215	70	51
228.142	228.215	76	51
228.24	228.337	48	40
228.337	228.532	36	43
228.337	228.41	68	53
228.337	228.41	77	53
228.435	228.532	48	45
228.532	228.724	36	46
228.532	228.604	76	55
228.532	228.604	79	55
228.628	228.724	48	47
228.724	228.917	36	48
228.724	228.796	77	57
228.724	228.796	80	57
228.82	228.917	48	50
228.917	229.112	36	51
228.917	228.99	74	59
228.917	228.99	83	59
229.014	229.112	48	53
229.112	229.31	36	55
229.112	229.515	72	51
229.112	229.515	75	51
229.112	229.507	79	61
229.112	229.515	84	61
229.211	229.409	48	50
229.31	229.515	36	53
229.409	229.515	48	47
229.507	229.703	38	55
229.507	229.905	67	53
229.507	229.912	71	53
229.507	229.912	77	63
229.507	229.912	79	63
229.605	229.804	50	50
229.703	229.912	38	55
229.804	229.912	50	51
229.905	230.103	39	55
229.905	230.306	67	56
229.905	230.306	72	56
229.905	230.306	75	67
230.004	230.201	51	55
230.103	230.306	39	55
230.201	230.306	51	55
230.3	230.498	41	55
230.3	230.706	65	60
230.3	230.706	68	60
230.3	230.706	74	71
230.399	230.598	53	53
230.498	230.706	41	55
230.598	230.706	53	55
230.699	230.9	43	56
230.699	232.305	63	62
230.699	231.108	67	74
230.699	232.305	72	74
230.799	231.0	55	56
230.9	231.108	43	57
231.0	231.108	55	57
231.101	231.302	44	58
231.101	231.506	66	74
231.201	231.402	56	59
231.302	231.506	44	59
231.402	231.506	56	60
231.503	231.702	42	60
231.503	232.305	69	77
231.602	231.801	54	55
231.702	231.901	42	61
231.801	231.907	54	55
231.901	232.1	42	58
232.0	232.199	54	55
232.1	232.305	42	58
232.199	232.305	54	55
232.299	232.504	43	55
232.299	232.504	55	55
232.299	232.504	62	55
232.299	232.504	67	55
232.299	232.504	71	55
232.504	232.709	59	50
232.504	232.709	62	50
232.709	232.908	59	50
232.709	232.908	62	50
232.709	233.505	67	80
232.709	233.505	79	80
232.908	233.111	59	50
232.908	233.111	62	50
233.107	233.908	55	50
233.306	233.505	60	50
233.306	233.505	63	50
233.505	233.704	60	50
233.505	233.704	63	50
233.505	233.999	67	80
233.505	233.999	79	80
233.704	233.908	60	50
233.704	233.908	63	50
233.903	234.096	62	50
233.903	234.096	65	50
233.999	234.096	77	70
234.096	234.192	74	69
234.192	234.289	71	69
234.289	234.385	67	68
234.385	234.482	65	67
234.482	234.578	62	66
234.578	234.675	59	65
234.675	234.771	60	65
234.771	234.868	63	64
234.868	234.965	60	65
234.965	235.063	55	65
235.063	235.162	32	55
235.063	235.162	54	64
235.162	235.26	44	55
235.162	235.26	60	64
235.26	235.359	32	55
235.26	235.359	56	63
235.359	235.459	44	55
235.359	235.459	54	65
235.459	236.273	31	50
235.459	236.273	43	50
235.459	236.268	55	67
235.664	235.87	59	50
235.664	235.87	62	50
235.87	236.069	59	50
235.87	236.069	62	50
235.87	236.666	67	80
235.87	236.666	79	80
236.069	236.273	59	50
236.069	236.273	62	50
236.268	237.063	55	50
236.467	236.666	60	50
236.467	236.666	63	50
236.666	236.864	60	50
236.666	236.864	63	50
236.666	237.159	67	80
236.666	237.159	79	80
236.864	237.063	60	50
236.864	237.063	63	50
237.063	237.255	62	50
237.063	237.255	65	50
237.159	237.255	77	72
237.255	237.351	74	71
237.351	237.447	71	70
237.447	237.543	67	69
237.543	237.639	65	68
237.639	237.734	62	67
237.734	237.83	59	66
237.83	237.926	60	65
237.926	238.022	63	64
238.022	238.118	60	64
238.118	238.216	55	67
238.216	238.412	32	55
238.216	238.313	54	66
238.313	238.412	44	55
238.313	238.412	60	64
238.412	238.611	32	55
238.412	238.511	56	62
238.511	238.611	44	49
238.511	238.611	54	60
238.611	238.811	31	50
238.611	238.811	55	67
238.711	238.811	43	51
238.811	239.006	31	51
238.811	238.884	66	67
238.908	239.006	43	52
239.006	239.199	31	53
239.006	239.078	67	69
239.102	239.199	43	54
239.199	239.391	31	55
239.199	239.271	66	71
239.199	239.271	72	71
239.295	239.391	43	56
239.391	239.583	31	57
239.391	239.463	67	73
239.391	239.463	71	73
239.487	239.583	43	58
239.583	239.775	31	59
239.583	239.655	72	75
239.583	239.655	78	75
239.679	239.775	43	60
239.775	239.968	31	61
239.775	239.848	71	77
239.775	239.848	79	77
239.872	239.968	43	61
239.968	240.16	31	62
239.968	240.04	78	79
239.968	240.04	84	79
240.064	240.16	43	63
240.16	240.356	31	64
240.16	240.258	79	81
240.16	240.258	83	81
240.258	240.356	43	55
240.356	240.551	31	61
240.453	240.551	43	55
240.551	240.746	31	61
240.649	240.746	43	55
240.746	240.942	31	60
240.844	240.942	43	55
240.942	241.139	31	64
240.942	241.73	58	81
240.942	241.73	61	81
240.942	241.935	63	84
241.04	241.139	43	55
241.139	241.336	31	61
241.237	241.336	43	55
241.336	241.533	31	61
241.434	241.533	43	55
241.533	241.73	31	60
241.631	241.73	43	55
241.73	241.935	32	50
241.73	241.935	60	67
241.832	241.935	44	51
241.935	242.13	32	51
241.935	242.008	73	67
242.033	242.13	44	52
242.13	242.323	32	53
242.13	242.203	72	69
242.227	242.323	44	54
242.323	242.515	32	55
242.323	242.395	73	71
242.323	242.395	79	71
242.419	242.515	44	56
242.515	242.707	32	57
242.515	242.587	72	73
242.515	242.587	80	73
242.611	242.707	44	58
242.707	242.9	32	59
242.707	242.78	79	75
242.707	242.78	85	75
242.804	242.9	44	60
242.9	243.092	32	61
242.9	242.972	80	77
242.9	242.972	84	77
242.996	243.092	44	61
243.092	243.284	32	62
243.092	243.164	79	79
243.092	243.164	85	79
243.188	243.284	44	63
243.284	243.48	32	64
243.284	243.382	80	81
243.284	243.382	84	81
243.382	243.48	44	55
243.48	243.675	32	61
243.577	243.675	44	55
243.675	243.871	32	61
243.773	243.871	44	55
243.871	244.066	32	60
243.968	244.066	44	55
244.066	244.263	33	64
244.066	244.854	60	81
244.066	244.854	63	81
244.066	244.854	66	84
244.165	244.263	45	55
244.263	244.46	33	61
244.361	244.46	45	55
244.46	244.657	33	61
244.558	244.657	45	55
244.657	244.854	33	60
244.755	244.854	45	55
244.854	245.059	34	50
244.854	245.059	62	67
244.854	245.059	65	67
244.956	245.059	46	51
245.059	245.251	34	51
245.059	245.131	69	62
245.059	245.131	75	67
245.155	245.251	46	52
245.251	245.443	34	53
245.251	245.323	70	65
245.251	245.323	74	69
245.347	245.443	46	54
245.443	245.635	34	55
245.443	245.515	75	71
245.443	245.515	81	71
245.539	245.635	46	56
245.635	245.826	34	57
245.635	245.707	74	73
245.635	245.707	82	73
245.731	245.826	46	58
245.826	246.018	34	59
245.826	245.898	81	75
245.826	245.898	87	75
245.922	246.018	46	60
246.018	246.21	34	61
246.018	246.09	82	77
246.018	246.09	86	77
246.114	246.21	46	61
246.21	246.402	34	62
246.21	246.282	81	79
246.21	246.282	87	79
246.306	246.402	46	63
246.402	246.597	34	64
246.402	246.499	82	81
246.402	246.499	86	81
246.499	246.597	46	55
246.597	246.792	34	61
246.695	246.792	46	55
246.792	246.985	34	61
246.792	247.178	75	81
246.792	247.178	81	81
246.889	246.985	46	55
246.985	247.178	34	60
247.082	247.178	46	55
247.178	247.374	34	64
247.178	247.374	74	81
247.178	247.374	82	81
247.276	247.374	46	55
247.374	247.569	34	61
247.471	247.569	46	55
247.569	247.761	34	61
247.569	247.954	69	81
247.569	247.954	75	81
247.665	247.761	46	55
247.761	247.954	34	60
247.858	247.954	46	55
247.954	248.149	34	64
247.954	248.149	70	81
247.954	248.149	74	81
248.051	248.149	46	55
248.149	248.345	34	61
248.247	248.345	46	55
248.345	248.538	34	61
248.345	248.732	63	81
248.345	248.732	69	81
248.441	248.538	46	55
248.538	248.732	34	60
248.635	248.732	46	55
248.732	248.927	34	64
248.732	248.927	62	81
248.732	248.927	70	81
248.829	248.927	46	55
248.927	249.121	34	61
249.024	249.121	46	55
249.121	249.316	34	61
249.121	249.511	57	81
249.121	249.511	63	81
249.219	249.316	46	55
249.316	249.511	34	60
249.414	249.511	46	55
249.511	249.713	34	64
249.511	249.713	46	55
249.511	249.713	58	81
249.511	249.713	62	81
249.713	249.915	57	50
249.915	250.117	58	59
250.117	250.319	57	56
250.319	250.521	58	57
250.521	250.723	57	49
250.723	250.925	58	57
250.925	251.127	57	51
251.127	251.924	58	44
251.332	251.433	46	55
251.332	251.533	63	38
251.332	251.533	66	38
251.533	251.631	51	58
251.533	251.729	63	38
251.533	251.729	66	38
251.729	251.826	53	61
251.729	251.924	63	38
251.729	251.924	66	38
251.924	252.026	54	64
251.924	252.731	58	44
252.128	252.332	63	38
252.128	252.332	66	38
252.128	252.23	70	62
252.332	252.532	63	38
252.332	252.532	66	38
252.332	252.432	75	64
252.532	252.731	63	38
252.532	252.731	66	38
252.532	252.631	77	66
252.681	252.731	70	65
252.731	253.537	58	44
252.731	253.334	78	75
252.934	253.134	63	38
252.934	253.134	66	38
253.134	253.334	63	38
253.134	253.334	66	38
253.334	253.537	63	38
253.334	253.537	66	38
253.334	253.537	75	63
253.486	253.537	70	60
253.537	254.343	58	44
253.537	254.141	78	71
253.741	253.941	63	38
253.741	253.941	66	38
253.941	254.141	63	38
253.941	254.141	66	38
254.141	254.343	63	38
254.141	254.343	66	38
254.141	254.343	75	58
254.343	255.141	58	44
254.343	254.55	74	60
254.55	254.65	46	57
254.55	254.75	65	38
254.55	254.75	68	38
254.75	254.848	53	60
254.75	254.946	65	38
254.75	254.946	68	38
254.946	255.043	54	63
254.946	255.141	65	38
254.946	255.141	68	38
255.141	255.243	56	66
255.141	255.949	58	44
255.345	255.549	65	38
255.345	255.549	68	38
255.345	255.549	70	59
255.549	255.749	65	38
255.549	255.749	68	38
255.549	255.749	80	62
255.749	255.949	65	38
255.749	255.949	68	38
255.749	255.949	78	65
255.949	256.763	58	44
255.949	256.0	78	60
256.0	256.051	80	60
256.051	256.153	78	67
256.153	256.356	65	38
256.153	256.356	68	38
256.153	256.356	77	60
256.356	256.559	65	38
256.356	256.559	68	38
256.356	256.407	77	60
256.407	256.458	78	60
256.458	256.559	77	67
256.559	256.763	65	38
256.559	256.763	68	38
256.559	256.763	75	60
256.763	257.576	58	44
256.763	256.814	75	60
256.814	256.864	77	60
256.864	256.966	75	66
256.966	257.17	65	38
256.966	257.17	68	38
256.966	257.17	74	60
257.17	257.373	65	38
257.17	257.373	68	38
257.17	257.271	72	60
257.373	257.576	65	38
257.373	257.576	68	38
257.373	257.475	74	60
257.576	258.376	58	44
257.576	257.785	75	60
257.785	257.885	46	55
257.785	257.985	63	38
257.785	257.985	66	38
257.985	258.082	51	58
257.985	258.18	63	38
257.985	258.18	66	38
258.18	258.278	53	61
258.18	258.376	63	38
258.18	258.376	66	38
258.376	258.478	54	64
258.376	259.182	58	44
258.58	258.784	63	38
258.58	258.784	66	38
258.58	258.682	70	62
258.784	258.983	63	38
258.784	258.983	66	38
258.784	258.883	75	64
258.983	259.182	63	38
258.983	259.182	66	38
258.983	259.083	77	66
259.133	259.182	70	65
259.182	259.989	58	44
259.182	259.785	78	75
259.385	259.585	63	38
259.385	259.585	66	38
259.585	259.785	63	38
259.585	259.785	66	38
259.785	259.989	63	38
259.785	259.989	66	38
259.785	259.989	75	63
259.938	259.989	70	60
259.989	260.794	58	44
259.989	260.592	78	71
260.192	260.392	63	38
260.192	260.392	66	38
260.392	260.592	63	38
260.392	260.592	66	38
260.592	260.794	63	38
260.592	260.794	66	38
260.592	260.794	75	58
260.794	261.589	56	44
260.794	261.002	72	60
261.002	261.101	44	57
261.002	261.2	63	38
261.002	261.2	66	38
261.2	261.297	51	60
261.2	261.394	63	38
261.2	261.394	66	38
261.394	261.492	53	63
261.394	261.589	63	38
261.394	261.589	66	38
261.589	261.691	54	66
261.589	262.397	56	44
261.793	261.997	63	38
261.793	261.997	66	38
261.793	261.997	68	59
261.997	262.197	63	38
261.997	262.197	66	38
261.997	262.197	78	62
262.197	262.397	63	38
262.197	262.397	66	38
262.197	262.397	77	65
262.397	263.21	56	44
262.397	262.448	77	60
262.448	262.498	78	60
262.498	262.6	77	67
262.6	262.804	63	38
262.6	262.804	66	38
262.6	262.804	75	60
262.804	263.007	63	38
262.804	263.007	66	38
262.804	262.854	75	60
262.854	262.905	77	60
262.905	263.007	75	67
263.007	263.21	63	38
263.007	263.21	66	38
263.007	263.21	73	60
263.21	264.024	56	44
263.21	263.261	73	60
263.261	263.312	75	60
263.312	263.414	73	66
263.414	263.617	63	38
263.414	263.617	66	38
263.414	263.617	72	60
263.617	263.82	63	38
263.617	263.82	66	38
263.617	263.719	70	60
263.82	264.024	63	38
263.82	264.024	66	38
263.82	263.922	72	60
264.024	264.823	56	44
264.024	264.229	73	60
264.229	264.329	44	55
264.229	264.429	61	38
264.229	264.429	65	38
264.429	264.528	49	58
264.429	264.626	61	38
264.429	264.626	65	38
264.626	264.724	51	61
264.626	264.823	61	38
264.626	264.823	65	38
264.823	264.925	53	64
264.823	265.63	56	44
265.027	265.231	61	38
265.027	265.231	65	38
265.027	265.129	68	62
265.231	265.43	61	38
265.231	265.43	65	38
265.231	265.331	73	64
265.43	265.63	61	38
265.43	265.63	65	38
265.43	265.53	75	66
265.58	265.63	68	65
265.63	266.436	56	44
265.63	266.232	77	75
265.832	266.032	61	38
265.832	266.032	65	38
266.032	266.232	61	38
266.032	266.232	65	38
266.232	266.436	61	38
266.232	266.436	65	38
266.232	266.436	73	63
266.385	266.436	68	60
266.436	267.241	56	44
266.436	267.039	77	71
266.639	266.839	61	38
266.639	266.839	65	38
266.839	267.039	61	38
266.839	267.039	65	38
267.039	267.241	61	38
267.039	267.241	65	38
267.039	267.241	73	58
267.241	268.036	56	44
267.241	267.448	72	60
267.448	267.547	44	57
267.448	267.647	63	38
267.448	267.647	66	38
267.647	267.744	51	60
267.647	267.841	63	38
267.647	267.841	66	38
267.841	267.939	53	63
267.841	268.036	63	38
267.841	268.036	66	38
268.036	268.138	54	66
268.036	268.844	56	44
268.24	268.444	63	38
268.24	268.444	66	38
268.24	268.444	68	59
268.444	268.644	63	38
268.444	268.644	66	38
268.444	268.644	78	62
268.644	268.844	63	38
268.644	268.844	66	38
268.644	268.844	77	65
268.844	269.658	56	44
268.844	268.895	77	60
268.895	268.946	78	60
268.946	269.048	77	67
269.048	269.251	63	38
269.048	269.251	66	38
269.048	269.251	75	60
269.251	269.455	63	38
269.251	269.455	66	38
269.251	269.302	75	60
269.302	269.353	77	60
269.353	269.455	75	67
269.455	269.658	63	38
269.455	269.658	66	38
269.455	269.658	73	60
269.658	270.472	56	44
269.658	269.709	73	60
269.709	269.76	75	60
269.76	269.861	73	66
269.861	270.065	63	38
269.861	270.065	66	38
269.861	270.065	72	60
270.065	270.268	63	38
270.065	270.268	66	38
270.065	270.166	70	60
270.268	270.472	63	38
270.268	270.472	66	38
270.268	270.37	72	57
270.472	270.876	61	54
270.472	270.676	73	60
270.676	270.876	49	73
270.676	270.876	65	53
270.676	270.876	68	53
270.876	271.074	56	77
270.876	271.279	59	60
271.074	271.176	47	73
271.074	271.279	65	53
271.074	271.279	68	53
271.279	271.382	46	77
271.279	272.09	58	53
271.485	271.69	65	38
271.485	271.69	68	38
271.485	271.69	70	59
271.69	271.89	65	38
271.69	271.89	68	38
271.69	271.89	80	62
271.89	272.09	65	38
271.89	272.09	68	38
271.89	272.09	78	65
272.09	272.904	58	44
272.09	272.141	78	60
272.141	272.192	80	60
272.192	272.294	78	67
272.294	272.497	65	38
272.294	272.497	68	38
272.294	272.497	77	60
272.497	272.7	65	38
272.497	272.7	68	38
272.497	272.548	77	60
272.548	272.599	78	60
272.599	272.7	77	67
272.7	272.904	65	38
272.7	272.904	68	38
272.7	272.904	75	60
272.904	273.717	58	44
272.904	272.955	75	60
272.955	273.005	77	60
273.005	273.107	75	66
273.107	273.31	65	38
273.107	273.31	68	38
273.107	273.31	74	60
273.31	273.514	65	38
273.31	273.514	68	38
273.31	273.412	72	60
273.514	273.717	65	38
273.514	273.717	68	38
273.514	273.616	74	57
273.717	274.128	63	54
273.717	273.927	75	60
273.927	274.128	51	73
273.927	274.128	66	53
273.927	274.128	70	53
274.128	274.326	58	77
274.128	274.532	61	60
274.326	274.429	49	73
274.326	274.532	65	53
274.326	274.532	70	53
274.532	274.635	48	77
274.532	275.343	60	53
274.737	274.943	67	38
274.737	274.943	70	38
274.737	274.943	72	59
274.943	275.143	67	38
274.943	275.143	70	38
274.943	275.143	82	62
275.143	275.343	67	38
275.143	275.343	70	38
275.143	275.343	80	65
275.343	276.156	60	44
275.343	275.394	80	60
275.394	275.445	82	60
275.445	275.546	80	67
275.546	275.75	67	38
275.546	275.75	70	38
275.546	275.75	79	60
275.75	275.953	67	38
275.75	275.953	70	38
275.75	275.8	79	60
275.8	275.851	80	60
275.851	275.953	79	67
275.953	276.156	67	38
275.953	276.156	70	38
275.953	276.156	77	60
276.156	276.97	60	44
276.156	276.207	77	60
276.207	276.258	79	60
276.258	276.36	77	66
276.36	276.563	67	38
276.36	276.563	70	38
276.36	276.563	76	60
276.563	276.767	67	38
276.563	276.767	70	38
276.563	276.767	74	60
276.767	276.97	67	38
276.767	276.97	70	38
276.767	276.97	76	57
276.97	277.783	65	44
276.97	277.021	79	60
277.021	277.072	80	60
277.072	277.173	79	67
277.173	277.377	68	38
277.173	277.377	72	38
277.173	277.377	77	60
277.377	277.58	68	38
277.377	277.58	72	38
277.377	277.428	77	60
277.428	277.478	79	60
277.478	277.58	77	67
277.58	277.783	68	38
277.58	277.783	72	38
277.58	277.783	75	60
277.783	278.19	58	44
277.783	277.834	75	60
277.834	277.885	77	60
277.885	277.987	75	66
277.987	278.19	65	38
277.987	278.19	68	38
277.987	278.19	74	60
278.19	278.597	59	44
278.19	278.394	65	38
278.19	278.394	68	38
278.19	278.394	72	60
278.394	278.597	65	38
278.394	278.597	68	38
278.394	278.597	74	57
278.597	279.411	60	44
278.597	278.648	77	60
278.648	278.699	79	60
278.699	278.8	77	67
278.8	279.004	63	37
278.8	279.004	67	37
278.8	279.004	75	59
279.004	279.207	63	36
279.004	279.207	67	36
279.004	279.055	75	58
279.055	279.105	77	58
279.105	279.207	75	64
279.207	279.411	63	36
279.207	279.411	67	36
279.207	279.411	74	57
279.411	280.232	56	41
279.411	279.461	74	56
279.461	279.512	75	55
279.512	279.614	74	61
279.614	279.818	63	34
279.614	279.818	65	34
279.614	279.818	72	55
279.818	280.023	63	34
279.818	280.023	65	34
279.818	279.869	72	54
279.869	279.92	74	54
279.92	280.023	72	59
280.023	280.232	63	33
280.023	280.232	65	33
280.023	280.232	71	53
280.232	281.083	58	38
280.232	280.285	72	52
280.285	280.338	74	52
280.338	280.445	72	56
280.445	280.657	63	32
280.445	280.657	67	32
280.445	280.657	70	51
280.657	280.87	63	31
280.657	280.87	67	31
280.657	280.737	70	50
280.87	281.083	63	31
280.87	281.083	67	31
280.87	280.95	70	46
281.083	281.965	58	27
281.083	281.138	72	37
281.138	281.193	74	37
281.193	281.303	72	41
281.303	281.524	62	23
281.303	281.524	65	23
281.303	281.524	70	37
281.524	281.745	62	23
281.524	281.745	65	23
281.524	281.607	70	37
281.745	281.965	62	23
281.745	281.965	65	23
281.745	281.827	70	35
281.965	283.22	51	36
282.075	282.29	58	24
282.075	282.29	63	25
282.186	282.395	55	26
282.186	282.602	67	29
282.29	282.499	58	24
282.29	282.499	63	29
282.395	282.602	55	32
282.395	283.22	75	45
282.499	282.706	58	25
282.499	282.706	63	28
282.602	282.809	55	28
282.602	282.809	67	30
282.706	282.816	58	26
282.706	282.816	63	28
282.809	283.014	55	34
282.809	283.014	67	31
282.911	283.117	58	26
282.911	283.117	63	30
283.014	283.425	55	29
283.014	283.425	67	32
283.117	283.322	58	26
283.117	283.322	63	29
283.22	283.636	51	36
283.22	283.636	75	50
283.322	283.528	58	28
283.322	283.528	63	30
283.425	283.636	55	32
283.425	283.636	67	33
283.528	283.636	58	28
283.528	283.636	63	32
283.631	284.89	49	45
283.743	283.959	58	30
283.743	283.959	63	32
283.855	284.063	55	32
283.855	284.271	67	36
283.959	284.167	58	29
283.959	284.167	63	35
284.063	284.271	55	38
284.063	284.89	75	54
284.167	284.374	58	30
284.167	284.374	63	33
284.271	284.478	55	33
284.271	284.478	67	35
284.374	284.485	58	30
284.374	284.485	63	32
284.478	284.684	55	38
284.478	284.684	67	35
284.581	284.787	58	29
284.581	284.787	63	33
284.684	285.096	55	32
284.684	285.096	67	35
284.787	284.993	58	29
284.787	284.993	63	32
284.89	285.314	49	38
284.89	285.311	75	53
284.993	285.199	58	30
284.993	285.199	63	32
285.096	285.314	55	33
285.096	285.314	67	35
285.199	285.314	58	29
285.199	285.314	63	33
285.311	285.387	48	55
285.311	285.387	75	66
285.412	285.514	56	36
285.412	285.514	63	41
285.514	285.615	51	39
285.514	285.615	68	45
285.615	285.717	56	35
285.615	285.717	63	42
285.717	285.792	46	56
285.717	285.792	76	67
285.817	285.918	55	36
285.817	285.918	64	43
285.918	286.019	48	43
285.918	286.019	72	47
286.019	286.119	55	41
286.019	286.119	64	43
286.119	286.193	44	58
286.119	286.193	77	71
286.217	286.315	56	38
286.217	286.315	65	45
286.315	286.413	48	43
286.315	286.413	72	50
286.413	286.511	56	38
286.413	286.511	65	45
286.511	286.585	43	60
286.511	286.585	79	72
286.609	286.707	55	40
286.609	286.707	67	47
286.707	286.805	48	43
286.707	286.805	72	50
286.805	286.903	55	38
286.805	286.903	67	47
286.903	286.976	41	63
286.903	286.976	80	74
287.0	287.096	53	42
287.0	287.096	68	49
287.096	287.194	48	45
287.096	287.194	72	54
287.194	287.29	53	42
287.194	287.29	68	49
287.29	287.363	39	66
287.29	287.363	81	80
287.387	287.483	51	41
287.387	287.483	69	50
287.483	287.58	41	47
287.483	287.58	72	55
287.58	287.677	51	41
287.58	287.677	69	51
287.677	287.75	38	68
287.677	287.75	82	84
287.774	287.87	50	45
287.774	287.87	70	51
287.87	287.966	41	49
287.87	287.966	77	58
287.966	288.062	50	43
287.966	288.062	70	53
288.062	288.135	36	70
288.062	288.135	84	85
288.159	288.255	48	45
288.159	288.255	72	53
288.255	288.352	41	51
288.255	288.352	77	58
288.352	288.448	48	43
288.352	288.448	72	54
288.448	288.52	34	70
288.448	288.52	85	85
288.544	288.641	46	47
288.544	288.641	73	55
288.641	288.737	41	53
288.641	288.737	77	63
288.737	288.834	46	48
288.737	288.834	73	55
288.834	288.906	32	72
288.834	288.906	86	90
288.93	289.026	44	47
288.93	289.026	74	57
289.026	289.123	41	53
289.026	289.123	77	62
289.123	289.22	44	50
289.123	289.22	74	57
289.22	289.292	31	75
289.22	289.292	87	89
289.316	289.412	43	50
289.316	289.412	75	59
289.412	289.509	39	55
289.412	289.509	82	64
289.509	289.606	43	50
289.509	289.606	75	59
289.606	289.682	31	76
289.606	289.682	83	91
289.708	289.809	43	56
289.708	289.809	71	61
289.809	289.911	39	58
289.809	289.911	75	67
289.911	290.013	43	55
289.911	290.013	71	61
290.013	290.814	32	71
290.013	290.814	44	84
290.112	290.308	72	78
290.21	290.601	75	84
290.308	290.503	72	78
290.406	290.814	84	88
290.503	290.703	72	78
290.601	290.814	75	84
290.703	290.814	72	76
290.805	291.623	34	71
290.805	291.623	46	84
290.906	291.102	65	78
291.004	291.396	68	84
291.102	291.298	65	78
291.2	291.623	74	88
291.298	291.504	65	78
291.396	291.623	68	84
291.504	291.623	65	76
291.617	292.861	51	45
291.722	291.931	58	30
291.722	291.931	63	32
291.827	292.036	55	32
291.827	292.243	67	36
291.931	292.14	58	29
291.931	292.14	63	35
292.036	292.243	55	38
292.036	292.861	75	54
292.14	292.347	58	30
292.14	292.347	63	33
292.243	292.45	55	33
292.243	292.45	67	35
292.347	292.456	58	30
292.347	292.456	63	32
292.45	292.655	55	38
292.45	292.655	67	35
292.553	292.758	58	29
292.553	292.758	63	33
292.655	293.066	55	32
292.655	293.066	67	35
292.758	292.964	58	29
292.758	292.964	63	32
292.861	293.279	51	38
292.861	293.279	75	53
292.964	293.169	58	30
292.964	293.169	63	32
293.066	293.279	55	33
293.066	293.279	67	35
293.169	293.279	58	29
293.169	293.279	63	33
293.272	294.531	49	45
293.385	293.6	58	30
293.385	293.6	63	32
293.496	293.704	55	32
293.496	293.912	67	36
293.6	293.808	58	29
293.6	293.808	63	35
293.704	293.912	55	38
293.704	294.531	75	54
293.808	294.015	58	30
293.808	294.015	63	33
293.912	294.119	55	33
293.912	294.119	67	35
294.015	294.126	58	30
294.015	294.126	63	32
294.119	294.325	55	38
294.119	294.325	67	35
294.222	294.428	58	29
294.222	294.428	63	33
294.325	294.737	55	32
294.325	294.737	67	35
294.428	294.634	58	29
294.428	294.634	63	32
294.531	294.956	49	38
294.531	294.952	75	53
294.634	294.84	58	30
294.634	294.84	63	32
294.737	294.956	55	33
294.737	294.956	67	35
294.84	294.956	58	29
294.84	294.956	63	33
294.952	295.028	48	55
294.952	295.028	75	66
295.054	295.155	56	36
295.054	295.155	63	41
295.155	295.257	51	39
295.155	295.257	68	45
295.257	295.358	56	35
295.257	295.358	63	42
295.358	295.433	46	56
295.358	295.433	76	67
295.459	295.559	55	36
295.459	295.559	64	43
295.559	295.66	48	43
295.559	295.66	72	47
295.66	295.76	55	41
295.66	295.76	64	43
295.76	295.834	44	58
295.76	295.834	77	71
295.858	295.956	56	38
295.858	295.956	65	45
295.956	296.054	48	43
295.956	296.054	72	50
296.054	296.152	56	38
296.054	296.152	65	45
296.152	296.226	43	60
296.152	296.226	79	72
296.25	296.348	55	40
296.25	296.348	67	47
296.348	296.446	48	43
296.348	296.446	72	50
296.446	296.544	55	38
296.446	296.544	67	47
296.544	296.617	41	63
296.544	296.617	80	74
296.641	296.738	53	42
296.641	296.738	68	49
296.738	296.835	48	45
296.738	296.835	72	54
296.835	296.931	53	42
296.835	296.931	68	49
296.931	297.004	39	66
296.931	297.004	81	80
297.029	297.126	51	41
297.029	297.126	69	50
297.126	297.222	41	47
297.126	297.222	72	55
297.222	297.319	51	41
297.222	297.319	69	51
297.319	297.392	38	68
297.319	297.392	82	84
297.416	297.512	50	45
297.416	297.512	70	51
297.512	297.61	41	49
297.512	297.61	77	58
297.61	297.707	50	43
297.61	297.707	70	53
297.707	297.779	36	70
297.707	297.779	84	85
297.803	297.9	48	45
297.803	297.9	72	53
297.9	297.997	41	51
297.9	297.997	77	58
297.997	298.094	48	43
297.997	298.094	72	54
298.094	298.167	34	70
298.094	298.167	85	85
298.191	298.287	46	47
298.191	298.287	73	55
298.287	298.384	41	53
298.287	298.384	77	63
298.384	298.481	46	48
298.384	298.481	73	55
298.481	298.553	32	72
298.481	298.553	86	90
298.577	298.672	44	47
298.577	298.672	74	57
298.672	298.769	41	53
298.672	298.769	77	62
298.769	298.866	44	50
298.769	298.866	74	57
298.866	298.938	31	75
298.866	298.938	87	89
298.962	299.061	43	50
298.962	299.061	75	59
299.061	299.158	39	55
299.061	299.158	82	64
299.158	299.255	43	50
299.158	299.255	75	59
299.255	299.331	31	76
299.255	299.331	88	91
299.357	299.458	43	56
299.357	299.458	76	61
299.458	299.56	31	58
299.458	299.56	82	67
299.56	299.662	43	55
299.56	299.662	76	61
299.662	300.465	32	71
299.662	300.465	44	84
299.764	299.959	80	78
299.861	300.252	84	84
299.959	300.155	80	78
300.057	300.465	89	88
300.155	300.354	80	78
300.252	300.465	84	84
300.354	300.465	80	76
300.456	301.257	34	71
300.456	301.257	46	84
300.557	300.753	77	78
300.655	301.047	80	84
300.753	300.949	77	78
300.851	301.257	86	88
300.949	301.149	77	78
301.047	301.257	80	84
301.149	301.257	77	76
301.251	301.46	39	84
301.251	301.46	51	84
301.251	301.329	79	81
301.46	301.659	63	34
301.46	301.659	67	34
301.46	301.958	87	58
301.659	301.858	63	34
301.659	301.858	67	34
301.858	302.066	63	34
301.858	302.066	67	34
301.858	302.066	86	46
301.958	302.066	87	48
302.06	302.87	60	34
302.06	302.87	89	49
302.163	302.87	87	49
302.264	302.462	63	34
302.264	302.462	67	34
302.264	302.661	86	48
302.363	302.562	84	47
302.462	302.661	63	34
302.462	302.661	67	34
302.462	302.87	83	45
302.562	302.761	84	46
302.661	302.87	63	34
302.661	302.87	67	34
302.661	302.87	86	49
302.761	302.87	84	47
302.862	303.665	56	34
302.862	303.665	82	49
302.963	303.665	80	47
303.063	303.261	63	34
303.063	303.261	65	34
303.063	303.459	79	46
303.162	303.36	77	45
303.261	303.459	63	34
303.261	303.459	65	34
303.261	303.665	76	45
303.36	303.559	77	45
303.459	303.665	63	34
303.459	303.665	65	34
303.459	303.665	79	47
303.559	303.665	77	45
303.66	304.464	58	34
303.66	304.464	75	46
303.761	304.464	74	46
303.861	304.06	62	34
303.861	304.06	65	34
303.861	304.259	72	45
303.961	304.159	70	45
304.06	304.259	62	34
304.06	304.259	65	34
304.06	304.464	69	45
304.159	304.464	70	42
304.259	304.464	62	34
304.259	304.464	65	34
304.259	304.464	72	46
304.358	304.464	68	42
304.457	305.271	51	59
304.457	304.536	79	66
304.667	304.866	55	44
304.667	304.866	63	44
304.667	305.271	75	68
304.667	305.165	87	68
304.866	305.065	55	44
304.866	305.065	63	44
305.065	305.271	55	44
305.065	305.271	63	44
305.065	305.271	86	61
305.165	305.271	87	64
305.267	306.077	48	45
305.267	306.077	89	66
305.37	306.077	87	66
305.47	305.669	51	46
305.47	305.669	55	46
305.47	305.669	60	46
305.47	305.868	86	65
305.57	305.769	84	64
305.669	305.868	51	46
305.669	305.868	55	46
305.669	305.868	60	46
305.669	306.077	83	62
305.769	305.968	84	64
305.868	306.077	51	47
305.868	306.077	55	47
305.868	306.077	60	47
305.868	306.077	86	68
305.968	306.077	84	66
306.069	306.873	44	47
306.069	306.873	82	69
306.17	306.873	80	67
306.27	306.468	51	48
306.27	306.468	53	48
306.27	306.468	56	48
306.27	306.666	79	66
306.369	306.567	77	65
306.468	306.666	51	48
306.468	306.666	53	48
306.468	306.666	56	48
306.468	306.873	76	65
306.567	306.766	77	64
306.666	306.873	51	49
306.666	306.873	53	49
306.666	306.873	56	49
306.666	306.873	79	68
306.766	306.873	77	66
306.867	307.679	46	49
306.867	307.673	75	68
306.968	307.679	74	68
307.068	307.267	50	50
307.068	307.267	53	50
307.068	307.267	58	50
307.068	307.466	72	68
307.168	307.366	70	68
307.267	307.466	50	50
307.267	307.466	53	50
307.267	307.466	58	50
307.267	307.679	69	67
307.366	307.567	70	64
307.466	307.679	50	51
307.466	307.679	53	51
307.466	307.679	58	51
307.466	307.679	72	70
307.567	307.679	70	64
307.673	307.894	39	67
307.673	307.783	75	83
307.783	307.894	51	60
307.894	308.093	39	67
307.894	308.295	63	82
307.993	308.093	51	59
308.093	308.295	39	67
308.194	308.295	51	60
308.295	308.494	39	66
308.295	308.394	61	80
308.295	308.394	67	80
308.394	308.494	51	60
308.494	308.692	39	66
308.494	308.593	60	81
308.494	308.593	68	81
308.593	308.692	51	59
308.692	308.891	39	66
308.692	308.792	67	82
308.692	308.792	70	82
308.792	308.891	51	60
308.891	309.09	39	66
308.891	308.99	68	83
308.891	308.99	72	83
308.99	309.09	51	60
309.09	309.288	39	66
309.09	309.189	68	85
309.09	309.189	74	85
309.189	309.288	51	61
309.288	309.497	39	67
309.288	309.393	67	83
309.288	309.393	75	83
309.393	309.497	51	60
309.497	309.696	39	67
309.497	309.898	75	82
309.597	309.696	51	59
309.696	309.898	39	67
309.797	309.898	51	60
309.898	310.097	39	66
309.898	309.997	73	80
309.898	309.997	79	80
309.997	310.097	51	60
310.097	310.295	39	66
310.097	310.196	72	81
310.097	310.196	80	81
310.196	310.295	51	59
310.295	310.494	39	66
310.295	310.395	79	82
310.295	310.395	82	82
310.395	310.494	51	60
310.494	310.693	39	66
310.494	310.593	80	83
310.494	310.593	84	83
310.593	310.693	51	60
310.693	310.902	39	66
310.693	310.798	80	85
310.693	310.798	86	85
310.798	310.902	51	61
310.902	311.102	39	66
310.902	311.702	79	94
310.902	311.702	87	94
311.002	311.102	51	59
311.102	311.302	39	66
311.202	311.302	51	60
311.302	311.502	39	66
311.402	311.502	51	60
311.502	311.702	39	66
311.602	311.702	51	61
311.702	311.901	38	66
311.702	312.514	67	88
311.702	312.514	75	88
311.802	311.901	50	59
311.901	312.1	38	66
312.0	312.1	50	60
312.1	312.299	38	66
312.199	312.299	50	60
312.299	312.514	38	66
312.406	312.514	50	61
312.514	312.714	36	66
312.514	313.314	79	99
312.514	313.314	87	99
312.614	312.714	48	59
312.714	312.914	36	66
312.814	312.914	48	60
312.914	313.114	36	66
313.014	313.114	48	60
313.114	313.314	36	66
313.214	313.314	48	61
313.314	313.512	34	66
313.314	314.12	67	92
313.314	314.12	75	92
313.413	313.512	46	59
313.512	313.71	34	66
313.611	313.71	46	60
313.71	313.908	34	66
313.809	313.908	46	60
313.908	314.12	34	66
314.014	314.12	46	61
314.12	314.32	32	66
314.12	314.92	84	102
314.12	314.92	87	102
314.22	314.32	44	59
314.32	314.52	32	66
314.42	314.52	44	60
314.52	314.72	32	66
314.62	314.72	44	60
314.72	314.92	32	66
314.82	314.92	44	61
314.92	315.119	31	66
314.92	315.726	72	96
314.92	315.726	75	96
315.02	315.119	43	59
315.119	315.317	31	66
315.218	315.317	43	60
315.317	315.515	31	66
315.416	315.515	43	60
315.515	315.726	31	66
315.62	315.726	43	61
315.726	316.69	30	62
315.726	316.69	42	74
315.726	316.69	81	93
315.726	316.69	84	93
315.726	316.69	86	93
316.69	318.69	42	71
316.69	318.69	54	84
316.69	318.69	57	86
316.69	318.69	60	102
316.69	318.69	62	102
318.69	322.815	31	59
318.69	322.815	34	59
318.69	322.815	38	59
318.69	322.815	43	69
318.69	322.815	55	67
318.69	322.815	58	67
318.69	322.815	62	67
318.69	322.815	67	79
322.815	323.19	58	39
322.815	323.19	62	44
322.815	323.19	67	51
323.19	324.315	57	45
323.19	324.315	62	46
323.19	324.315	66	46
323.19	324.315	69	55
324.315	324.756	55	39
324.315	324.756	62	42
324.315	324.756	67	50
324.315	324.756	70	50
324.756	328.044	61	42
324.756	328.044	64	46
324.756	328.044	67	55
324.756	328.044	70	55
328.044	329.544	62	27
328.044	329.544	66	31
328.044	329.544	69	39
330.669	331.044	51	72
331.044	335.169	63	75
331.044	335.169	66	73
331.044	335.169	69	73
331.044	335.169	72	84
335.169	335.544	63	39
335.169	335.544	66	44
335.169	335.544	69	44
335.169	335.544	72	52
335.544	336.669	62	45
335.544	336.669	66	46
335.544	336.669	69	46
335.544	336.669	74	55
336.669	337.103	60	39
336.669	337.103	66	43
336.669	337.103	69	51
336.669	337.103	75	51
337.103	341.891	58	38
337.103	340.391	66	46
337.103	340.391	69	55
337.103	340.391	75	55
340.391	341.891	67	32
340.391	341.891	70	32
340.391	341.891	74	39
343.016	343.391	51	68
343.391	347.516	63	72
343.391	347.516	66	70
343.391	347.516	69	70
343.391	347.516	72	80
347.516	347.891	63	42
347.516	347.891	66	46
347.516	347.891	69	46
347.516	347.891	72	55
347.891	349.045	62	49
347.891	349.045	66	51
347.891	349.045	69	51
347.891	349.045	74	60
349.045	349.462	60	49
349.045	349.462	66	54
349.045	349.462	69	63
349.045	349.462	75	63
349.462	351.062	60	50
349.462	354.272	66	50
349.462	354.272	69	50
349.462	354.272	75	59
351.062	354.262	59	43
352.662	357.488	64	44
352.662	357.488	67	44
352.662	357.488	76	52
354.262	357.488	59	33
355.862	360.695	62	39
355.862	360.695	66	39
355.862	360.695	69	47
357.462	360.662	47	31
359.062	363.999	59	35
359.062	363.999	64	35
359.062	363.999	67	43
360.662	363.999	47	28
362.269	365.801	57	33
362.269	368.819	60	33
362.269	365.801	62	39
362.269	368.819	66	39
363.992	367.676	35	25
365.801	371.105	54	28
365.801	371.105	57	28
365.801	371.105	62	34
367.676	371.105	35	22
371.105	371.312	40	55
371.105	371.183	64	61
371.209	371.312	52	50
371.312	371.507	40	53
371.312	371.385	69	55
371.41	371.507	52	47
371.507	371.702	40	53
371.507	371.58	67	58
371.605	371.702	52	47
371.702	371.897	40	52
371.702	371.775	69	47
371.702	371.775	75	56
371.799	371.897	52	48
371.897	372.092	40	50
371.897	371.97	67	51
371.897	371.97	76	61
371.994	372.092	52	53
372.092	372.285	40	54
372.092	372.164	75	56
372.092	372.164	81	66
372.188	372.285	52	54
372.285	372.478	40	56
372.285	372.357	76	60
372.285	372.357	79	71
372.381	372.478	52	58
372.478	372.67	40	62
372.478	372.55	81	62
372.478	372.55	87	73
372.574	372.67	52	57
372.67	372.869	40	53
372.67	372.869	52	63
372.67	372.869	79	68
372.67	372.869	88	80
372.869	373.067	55	46
372.869	373.067	59	55
373.067	373.266	55	46
373.067	373.266	59	55
373.067	373.266	64	68
373.067	373.266	76	80
373.266	373.464	55	46
373.266	373.464	59	55
373.464	373.662	52	63
373.662	373.861	55	46
373.662	373.861	59	55
373.662	373.737	64	52
373.662	373.737	76	62
373.861	374.055	55	46
373.861	374.055	59	55
373.861	373.934	66	56
373.861	373.934	78	67
374.055	374.262	55	43
374.055	374.262	59	51
374.055	374.133	67	52
374.055	374.133	79	62
374.262	374.461	52	55
374.262	374.66	67	56
374.262	374.66	79	66
374.461	374.66	57	40
374.461	374.66	60	48
374.66	374.86	57	40
374.66	374.86	60	48
374.66	374.86	66	52
374.66	374.86	78	62
374.86	375.059	57	40
374.86	375.059	60	48
375.059	375.256	51	63
375.256	375.454	57	46
375.256	375.454	60	55
375.256	375.33	66	52
375.256	375.33	78	62
375.454	375.649	57	46
375.454	375.649	60	55
375.454	375.527	67	56
375.454	375.527	79	67
375.649	375.855	57	43
375.649	375.855	60	51
375.649	375.726	69	52
375.649	375.726	81	62
375.855	376.062	38	55
375.855	375.932	69	52
375.855	375.932	81	62
375.958	376.062	50	50
376.062	376.257	38	53
376.062	376.135	67	55
376.159	376.257	50	47
376.257	376.452	38	53
376.257	376.33	66	58
376.354	376.452	50	47
376.452	376.647	38	52
376.452	376.525	67	47
376.452	376.525	73	56
376.549	376.647	50	48
376.647	376.842	38	50
376.647	376.72	66	51
376.647	376.72	74	61
376.744	376.842	50	53
376.842	377.034	38	54
376.842	376.914	73	56
376.842	376.914	79	66
376.938	377.034	50	54
377.034	377.227	38	56
377.034	377.107	74	60
377.034	377.107	78	71
377.131	377.227	50	58
377.227	377.42	38	62
377.227	377.3	79	62
377.227	377.3	85	73
377.324	377.42	50	57
377.42	377.619	38	53
377.42	377.619	50	63
377.42	377.619	78	68
377.42	377.619	86	80
377.619	377.817	57	46
377.619	377.817	60	55
377.817	378.015	57	46
377.817	378.015	60	55
377.817	378.015	66	68
377.817	378.015	78	80
378.015	378.214	57	46
378.015	378.214	60	55
378.214	378.412	50	63
378.412	378.61	57	46
378.412	378.61	60	55
378.412	378.487	66	52
378.412	378.487	78	62
378.61	378.805	57	46
378.61	378.805	60	55
378.61	378.684	67	56
378.61	378.684	79	67
378.805	379.011	57	43
378.805	379.011	60	51
378.805	378.883	69	52
378.805	378.883	81	62
379.011	379.211	50	55
379.011	379.41	69	56
379.011	379.41	81	66
379.211	379.41	55	40
379.211	379.41	58	48
379.41	379.609	55	40
379.41	379.609	58	48
379.41	379.609	67	52
379.41	379.609	79	62
379.609	379.809	55	40
379.609	379.809	58	48
379.809	380.006	49	63
380.006	380.204	55	46
380.006	380.204	58	55
380.006	380.08	67	52
380.006	380.08	79	62
380.204	380.398	55	46
380.204	380.398	58	55
380.204	380.277	69	56
380.204	380.277	81	67
380.398	380.605	55	43
380.398	380.605	58	51
380.398	380.476	70	52
380.398	380.476	82	62
380.605	380.805	36	53
380.605	380.805	48	53
380.605	380.805	70	58
380.705	380.805	82	52
380.805	380.998	49	55
380.805	380.998	70	58
380.901	380.998	82	53
380.998	381.199	48	51
380.998	381.199	70	58
381.098	381.199	82	52
381.199	381.392	53	55
381.199	381.392	70	58
381.295	381.392	82	52
381.392	381.592	52	52
381.392	381.592	70	58
381.492	381.592	82	52
381.592	381.785	61	55
381.592	381.785	70	58
381.689	381.785	82	53
381.785	381.985	60	51
381.785	381.985	70	58
381.885	381.985	82	52
381.985	382.178	65	55
381.985	382.178	70	58
382.082	382.178	82	52
382.178	382.38	64	51
382.178	382.38	70	58
382.279	382.38	82	52
382.38	382.575	66	55
382.38	382.575	70	58
382.477	382.575	82	53
382.575	382.77	67	57
382.575	382.77	70	58
382.673	382.77	82	52
382.77	382.966	70	58
382.868	382.966	82	52
382.966	383.159	70	58
383.063	383.159	82	52
383.159	383.353	70	58
383.256	383.353	82	53
383.353	383.547	70	58
383.45	383.547	82	52
383.547	383.74	70	58
383.643	383.74	82	52
383.74	383.94	69	58
383.84	383.94	81	52
383.94	384.134	42	55
383.94	384.134	69	58
384.037	384.134	81	53
384.134	384.334	41	51
384.134	384.334	69	58
384.234	384.334	81	52
384.334	384.527	49	55
384.334	384.527	69	58
384.431	384.527	81	52
384.527	384.727	48	52
384.527	384.727	69	58
384.627	384.727	81	52
384.727	384.921	54	55
384.727	384.921	69	58
384.824	384.921	81	53
384.921	385.121	53	51
384.921	385.121	69	58
385.021	385.121	81	52
385.121	385.314	61	55
385.121	385.314	69	58
385.217	385.314	81	52
385.314	385.515	60	51
385.314	385.515	69	58
385.414	385.515	81	52
385.515	385.711	64	55
385.515	385.711	69	58
385.613	385.711	81	53
385.711	385.906	65	57
385.711	385.906	69	58
385.808	385.906	81	52
385.906	386.101	69	58
386.004	386.101	81	52
386.101	386.295	69	58
386.198	386.295	81	52
386.295	386.489	69	58
386.392	386.489	81	53
386.489	386.682	69	58
386.585	386.682	81	52
386.682	386.876	69	58
386.779	386.876	81	52
386.876	387.076	68	58
386.976	387.076	80	52
387.076	387.269	48	55
387.076	387.269	68	58
387.172	387.269	80	53
387.269	387.47	47	51
387.269	387.47	68	58
387.37	387.47	80	52
387.47	387.663	50	55
387.47	387.663	68	58
387.566	387.663	80	52
387.663	387.863	53	52
387.663	387.863	68	58
387.763	387.863	80	52
387.863	388.056	60	55
387.863	388.056	68	58
387.96	388.056	80	53
388.056	388.256	59	51
388.056	388.256	68	58
388.156	388.256	80	52
388.256	388.449	62	55
388.256	388.449	68	58
388.353	388.449	80	52
388.449	388.547	65	54
388.449	388.645	68	58
388.547	388.645	80	52
388.645	388.841	68	58
388.743	388.841	80	53
388.841	388.938	62	54
388.841	389.036	68	58
388.938	389.036	80	52
389.036	389.23	68	58
389.133	389.23	80	52
389.23	389.327	59	53
389.23	389.424	68	58
389.327	389.424	80	54
389.424	389.617	67	58
389.52	389.617	79	54
389.617	389.714	55	52
389.617	389.811	67	58
389.714	389.811	79	54
389.811	390.008	65	58
389.907	390.008	77	54
390.008	390.201	49	43
390.008	390.201	61	51
390.008	390.201	65	56
390.105	390.201	77	56
390.201	390.395	64	56
390.298	390.395	76	56
390.395	390.588	46	42
390.395	390.588	58	50
390.395	390.588	64	55
390.492	390.588	76	55
390.588	390.785	61	55
390.685	390.785	73	55
390.785	390.98	43	41
390.785	390.98	55	49
390.785	390.98	61	54
390.883	390.98	73	51
390.98	391.174	60	54
391.077	391.174	72	51
391.174	391.368	40	40
391.174	391.368	52	48
391.174	391.368	60	53
391.271	391.368	72	50
391.368	391.566	58	53
391.465	391.566	70	49
391.566	391.759	41	40
391.566	391.759	53	48
391.566	391.759	58	53
391.663	391.759	70	51
391.759	391.953	56	53
391.856	391.953	68	50
391.953	392.146	56	53
392.05	392.146	68	50
392.146	392.343	55	53
392.243	392.343	67	49
392.343	392.538	29	40
392.343	392.538	41	48
392.343	392.538	55	53
392.441	392.538	67	53
392.538	392.732	53	53
392.635	392.732	65	48
392.732	392.926	53	53
392.829	392.926	65	49
392.926	393.124	51	53
393.023	393.124	63	49
393.124	393.318	30	40
393.124	393.318	42	48
393.124	393.318	51	53
393.221	393.318	63	49
393.318	393.512	50	53
393.415	393.512	62	49
393.512	393.707	50	53
393.609	393.707	62	49
393.707	393.905	51	53
393.804	393.905	63	48
393.905	394.099	30	40
393.905	394.099	42	48
393.905	394.099	51	53
394.002	394.099	63	49
394.099	394.293	50	53
394.196	394.293	62	49
394.293	394.487	50	53
394.39	394.487	62	49
394.487	394.681	48	53
394.584	394.681	60	49
394.681	394.78	31	33
394.681	394.879	47	53
394.681	394.879	59	53
394.78	394.879	43	33
394.879	394.977	31	34
394.977	395.076	43	34
395.076	395.173	31	34
395.076	395.173	49	40
395.173	395.271	43	34
395.173	395.271	56	34
395.271	395.368	31	34
395.271	395.368	52	34
395.368	395.466	43	34
395.368	395.466	49	34
395.466	395.563	31	34
395.466	395.563	50	41
395.563	395.66	43	34
395.563	395.66	56	34
395.66	395.758	31	34
395.66	395.758	53	34
395.758	395.855	43	34
395.758	395.855	50	34
395.855	395.953	31	34
395.855	395.953	48	41
395.953	396.05	43	34
395.953	396.05	56	34
396.05	396.147	31	34
396.05	396.147	51	34
396.147	396.245	43	34
396.147	396.245	48	34
396.245	396.342	31	33
396.245	396.342	47	40
396.342	396.44	43	33
396.342	396.44	55	34
396.44	396.537	31	33
396.44	396.537	50	34
396.537	396.639	43	33
396.537	396.639	47	34
396.639	396.737	31	33
396.639	396.737	49	40
396.737	396.834	43	33
396.737	396.834	56	34
396.834	396.931	31	33
396.834	396.931	52	34
396.931	397.029	43	33
396.931	397.029	49	34
397.029	397.126	31	33
397.029	397.126	50	40
397.126	397.224	43	33
397.126	397.224	56	34
397.224	397.321	31	33
397.224	397.321	53	34
397.321	397.418	43	33
397.321	397.418	50	34
397.418	397.516	31	33
397.418	397.516	48	39
397.516	397.613	43	33
397.516	397.613	56	34
397.613	397.712	31	33
397.613	397.712	51	34
397.712	397.813	43	33
397.712	397.813	48	34
397.813	398.011	31	55
397.813	398.011	47	34
397.813	398.011	50	34
397.813	398.011	55	34
397.912	398.011	43	50
398.011	398.206	31	53
398.011	398.084	64	55
398.108	398.206	43	47
398.206	398.4	31	53
398.206	398.279	65	58
398.303	398.4	43	47
398.4	398.595	31	52
398.4	398.474	64	47
398.4	398.474	73	56
398.498	398.595	43	48
398.595	398.79	31	50
398.595	398.668	65	51
398.595	398.668	74	61
398.693	398.79	43	53
398.79	398.983	31	54
398.79	398.863	73	56
398.79	398.863	76	66
398.887	398.983	43	54
398.983	399.176	31	56
398.983	399.055	74	60
398.983	399.055	77	71
399.08	399.176	43	58
399.176	399.369	31	62
399.176	399.248	76	62
399.176	399.248	85	73
399.272	399.369	43	57
399.369	399.765	31	69
399.369	399.442	77	62
399.369	399.442	86	73
399.564	399.96	43	62
399.564	399.64	85	77
399.564	399.64	88	77
399.765	400.156	35	67
399.765	400.547	86	82
399.765	400.547	89	82
399.96	400.351	43	62
400.156	400.547	36	67
400.351	400.746	43	62
400.547	400.946	30	64
400.547	400.946	84	58
400.547	400.597	89	58
400.597	400.646	87	54
400.646	400.696	89	54
400.696	400.746	87	54
400.746	400.946	43	62
400.746	400.796	89	59
400.796	400.846	87	54
400.846	400.896	86	54
400.896	400.946	87	54
400.946	401.044	31	33
400.946	401.143	83	59
400.946	401.143	86	59
401.044	401.143	43	33
401.143	401.242	31	34
401.242	401.34	43	34
401.34	401.438	31	34
401.34	401.438	49	40
401.438	401.535	43	34
401.438	401.535	56	34
401.535	401.632	31	34
401.535	401.632	52	34
401.632	401.73	43	34
401.632	401.73	49	34
401.73	401.827	31	34
401.73	401.827	50	41
401.827	401.925	43	34
401.827	401.925	56	34
401.925	402.022	31	34
401.925	402.022	53	34
402.022	402.119	43	34
402.022	402.119	50	34
402.119	402.217	31	34
402.119	402.217	48	41
402.217	402.314	43	34
402.217	402.314	56	34
402.314	402.412	31	34
402.314	402.412	51	34
402.412	402.509	43	34
402.412	402.509	48	34
402.509	402.606	31	33
402.509	402.606	47	40
402.606	402.704	43	33
402.606	402.704	55	34
402.704	402.801	31	33
402.704	402.801	50	34
402.801	402.903	43	33
402.801	402.903	47	34
402.903	403.001	31	33
402.903	403.001	49	40
403.001	403.098	43	33
403.001	403.098	56	34
403.098	403.196	31	33
403.098	403.196	52	34
403.196	403.293	43	33
403.196	403.293	49	34
403.293	403.39	31	33
403.293	403.39	50	40
403.39	403.488	43	33
403.39	403.488	56	34
403.488	403.585	31	33
403.488	403.585	53	34
403.585	403.683	43	33
403.585	403.683	50	34
403.683	403.78	31	33
403.683	403.78	48	39
403.78	403.877	43	33
403.78	403.877	56	34
403.877	403.976	31	33
403.877	403.976	51	34
403.976	404.077	43	33
403.976	404.077	48	34
404.077	404.275	31	55
404.077	404.275	47	34
404.077	404.275	50	34
404.077	404.275	55	34
404.176	404.275	43	50
404.275	404.47	31	53
404.275	404.348	64	55
404.372	404.47	43	47
404.47	404.665	31	53
404.47	404.543	65	58
404.567	404.665	43	47
404.665	404.859	31	52
404.665	404.738	64	47
404.665	404.738	73	56
404.762	404.859	43	48
404.859	405.054	31	50
404.859	404.933	65	51
404.859	404.933	74	61
404.957	405.054	43	53
405.054	405.247	31	54
405.054	405.127	73	56
405.054	405.127	76	66
405.151	405.247	43	54
405.247	405.44	31	56
405.247	405.32	74	60
405.247	405.32	77	71
405.344	405.44	43	58
405.44	405.633	31	62
405.44	405.513	76	62
405.44	405.513	85	73
405.537	405.633	43	57
405.633	406.029	31	69
405.633	405.706	77	62
405.633	405.706	86	73
405.829	406.225	43	62
405.829	405.904	85	77
405.829	405.904	88	77
406.029	406.42	35	67
406.029	406.811	86	82
406.029	406.811	89	82
406.225	406.616	43	62
406.42	406.811	36	67
406.616	407.01	43	62
406.811	407.21	30	64
406.811	407.21	84	58
406.811	406.861	89	58
406.861	406.911	87	54
406.911	406.961	89	54
406.961	407.01	87	54
407.01	407.21	43	62
407.01	407.06	89	59
407.06	407.11	87	54
407.11	407.16	86	54
407.16	407.21	87	54
407.21	407.606	31	69
407.21	407.283	83	62
407.21	407.283	86	73
407.405	407.801	43	62
407.405	407.48	85	77
407.405	407.48	88	77
407.606	407.997	35	67
407.606	408.388	86	82
407.606	408.388	89	82
407.801	408.192	43	62
407.997	408.388	36	67
408.192	408.587	43	62
408.388	408.786	30	64
408.388	408.786	84	58
408.388	408.437	89	58
408.437	408.487	87	54
408.487	408.537	89	54
408.537	408.587	87	54
408.587	408.786	43	62
408.587	408.637	89	59
408.637	408.687	87	54
408.687	408.736	86	54
408.736	408.786	87	54
408.786	409.182	31	69
408.786	408.86	83	62
408.786	408.86	86	73
408.982	409.378	43	62
408.982	409.057	85	77
408.982	409.057	88	77
409.182	409.573	35	67
409.182	409.964	86	82
409.182	409.964	89	82
409.378	409.769	43	62
409.573	409.964	36	67
409.769	410.163	43	62
409.964	410.363	30	64
409.964	410.363	84	58
409.964	410.014	89	58
410.014	410.064	87	54
410.064	410.114	89	54
410.114	410.163	87	54
410.163	410.363	43	62
410.163	410.213	89	59
410.213	410.263	87	54
410.263	410.313	86	54
410.313	410.363	87	54
410.363	410.461	83	58
410.363	410.461	86	58
410.461	410.558	89	53
410.558	410.656	86	54
410.656	410.754	84	54
410.754	410.851	83	58
410.851	410.949	89	53
410.949	411.047	86	53
411.047	411.145	84	53
411.145	411.242	83	58
411.242	411.34	89	55
411.34	411.438	86	55
411.438	411.535	84	55
411.535	411.633	83	58
411.633	411.731	86	55
411.731	411.829	83	55
411.829	411.926	79	55
411.926	412.024	80	58
412.024	412.122	82	55
412.122	412.22	80	55
412.22	412.317	79	55
412.317	412.415	77	58
412.415	412.513	80	55
412.513	412.61	77	55
412.61	412.708	75	55
412.708	412.806	74	58
412.806	412.904	77	54
412.904	413.001	74	54
413.001	413.099	72	54
413.099	413.197	71	58
413.197	413.295	74	54
413.295	413.392	71	54
413.392	413.49	67	54
413.49	413.588	68	58
413.588	413.685	70	55
413.685	413.783	68	55
413.783	413.881	67	55
413.881	413.979	65	58
413.979	414.076	68	58
414.076	414.174	65	55
414.174	414.272	63	55
414.272	414.37	62	58
414.37	414.467	65	55
414.467	414.565	62	55
414.565	414.663	60	55
414.663	414.76	59	58
414.76	414.858	62	55
414.858	414.956	59	55
414.956	415.054	55	55
415.054	415.151	56	58
415.151	415.249	58	54
415.249	415.347	56	54
415.347	415.445	55	54
415.445	415.542	53	58
415.542	415.64	51	53
415.64	415.738	50	53
415.738	415.835	48	53
415.835	415.933	47	58
415.933	416.031	48	55
416.031	416.129	47	55
416.129	416.226	44	56
416.226	416.324	43	58
416.324	416.422	41	55
416.422	416.52	39	55
416.52	416.617	38	55
416.617	416.821	36	44
416.617	417.22	60	50
416.72	416.922	48	41
416.821	417.022	36	44
416.922	417.121	48	41
417.022	417.22	36	44
417.121	417.22	48	41
417.22	417.415	36	45
417.22	417.294	58	52
417.22	417.294	64	52
417.318	417.415	48	41
417.415	417.61	36	45
417.415	417.489	56	54
417.415	417.489	65	54
417.513	417.61	48	46
417.61	417.803	36	47
417.61	417.682	64	56
417.61	417.682	67	56
417.706	417.803	48	47
417.803	417.995	36	49
417.803	417.875	65	57
417.803	417.875	68	57
417.899	417.995	48	50
417.995	418.19	36	51
417.995	418.068	62	59
417.995	418.068	71	59
418.093	418.19	48	53
418.19	418.398	36	55
418.19	418.268	63	61
418.19	418.268	72	61
418.294	418.495	48	50
418.398	418.593	36	53
418.398	418.787	64	55
418.398	418.787	72	55
418.495	418.69	48	47
418.593	418.787	36	53
418.69	418.787	48	47
418.787	418.982	36	44
418.787	418.86	70	51
418.787	418.86	76	51
418.885	418.982	48	40
418.982	419.177	36	43
418.982	419.055	68	53
418.982	419.055	77	53
419.08	419.177	48	45
419.177	419.37	36	46
419.177	419.249	76	55
419.177	419.249	79	55
419.274	419.37	48	47
419.37	419.563	36	48
419.37	419.442	77	57
419.37	419.442	80	57
419.466	419.563	48	50
419.563	419.756	36	51
419.563	419.635	74	59
419.563	419.635	83	59
419.659	419.756	48	53
419.756	419.954	36	55
419.756	420.159	72	51
419.756	420.159	75	51
419.756	420.15	79	61
419.756	420.159	84	61
419.855	420.052	48	50
419.954	420.159	36	53
420.052	420.159	48	47
420.15	420.347	38	55
420.15	420.549	67	53
420.15	420.555	71	53
420.15	420.555	77	63
420.15	420.555	79	63
420.249	420.448	50	50
420.347	420.555	38	55
420.448	420.555	50	51
420.549	420.746	39	55
420.549	420.953	67	56
420.549	420.953	72	56
420.549	420.953	75	67
420.648	420.845	51	55
420.746	420.953	39	55
420.845	420.953	51	55
420.944	421.142	41	55
420.944	421.352	65	60
420.944	421.352	68	60
420.944	421.352	74	71
421.043	421.242	53	53
421.142	421.352	41	55
421.242	421.352	53	55
421.343	421.544	43	56
421.343	422.557	63	62
421.343	421.751	67	74
421.343	422.557	72	74
421.443	421.644	55	56
421.544	421.751	43	57
421.644	421.751	55	57
421.745	421.946	44	58
421.745	422.153	66	74
421.845	422.046	56	59
421.946	422.153	44	59
422.046	422.153	56	60
422.147	422.348	42	60
422.147	422.557	69	77
422.247	422.448	54	55
422.348	422.557	42	61
422.448	422.557	54	55
422.549	422.75	43	58
422.549	422.957	62	62
422.549	422.957	65	62
422.549	422.957	71	74
422.649	422.85	55	55
422.75	422.957	43	58
422.85	422.957	55	55
422.951	423.155	36	48
422.951	423.028	60	67
422.951	423.028	63	67
422.951	423.028	72	79
423.053	423.155	48	45
423.155	423.356	36	44
423.155	423.554	60	67
423.256	423.455	48	41
423.356	423.554	36	44
423.455	423.554	48	40
423.554	423.749	36	44
423.554	423.627	58	52
423.554	423.627	64	52
423.652	423.749	48	41
423.749	423.944	36	44
423.749	423.822	56	54
423.749	423.822	65	54
423.846	423.944	48	46
423.944	424.136	36	47
423.944	424.016	64	55
423.944	424.016	67	55
424.04	424.136	48	47
424.136	424.328	36	49
424.136	424.208	65	57
424.136	424.208	68	57
424.232	424.328	48	50
424.328	424.521	36	51
424.328	424.401	62	59
424.328	424.401	71	59
424.425	424.521	48	53
424.521	424.728	36	55
424.521	424.598	63	61
424.521	424.598	72	61
424.624	424.825	48	50
424.728	424.923	36	53
424.728	425.118	64	55
424.728	425.118	72	55
424.825	425.02	48	47
424.923	425.118	36	53
425.02	425.118	48	47
425.118	425.313	36	44
425.118	425.191	70	51
425.118	425.191	76	51
425.215	425.313	48	40
425.313	425.507	36	43
425.313	425.386	68	53
425.313	425.386	77	53
425.41	425.507	48	45
425.507	425.7	36	46
425.507	425.58	76	55
425.507	425.58	79	55
425.604	425.7	48	47
425.7	425.892	36	48
425.7	425.772	77	57
425.7	425.772	80	57
425.796	425.892	48	50
425.892	426.088	36	51
425.892	425.965	74	59
425.892	425.965	83	59
425.99	426.088	48	53
426.088	426.286	36	55
426.088	426.494	72	51
426.088	426.482	75	51
426.088	426.494	79	61
426.088	426.494	84	61
426.187	426.384	48	50
426.286	426.482	36	53
426.384	426.494	48	47
426.482	426.678	36	55
426.482	426.88	68	53
426.482	426.885	75	63
426.482	426.885	80	63
426.58	426.779	48	50
426.678	426.885	36	55
426.779	426.885	48	51
426.88	427.078	37	55
426.88	427.283	68	56
426.88	427.283	73	56
426.88	427.283	77	67
426.979	427.177	49	55
427.078	427.283	37	55
427.177	427.283	49	55
427.276	427.473	39	55
427.276	427.681	66	60
427.276	427.681	72	60
427.276	427.681	75	71
427.374	427.574	51	53
427.473	427.681	39	55
427.574	427.681	51	55
427.674	427.875	41	56
427.674	428.085	65	62
427.674	428.085	68	74
427.674	428.085	73	74
427.775	427.976	53	56
427.875	428.085	41	57
427.976	428.085	53	57
428.076	428.277	42	58
428.076	428.478	61	74
428.076	428.484	66	74
428.076	428.484	70	74
428.177	428.378	54	59
428.277	428.484	42	59
428.378	428.484	54	60
428.478	428.677	44	60
428.478	428.885	61	74
428.478	428.885	65	74
428.478	429.288	68	77
428.578	428.777	56	55
428.677	428.876	44	61
428.777	428.885	56	55
428.876	429.075	44	58
428.876	429.288	60	74
428.876	429.288	63	74
428.976	429.177	56	55
429.075	429.279	44	58
429.177	429.288	56	55
429.279	429.483	44	52
429.279	429.687	62	51
429.279	429.687	65	51
429.279	429.68	70	61
429.381	429.582	56	45
429.483	429.687	44	53
429.582	429.687	56	47
429.68	429.876	38	55
429.68	430.078	70	53
429.68	430.086	77	63
429.68	430.086	82	63
429.778	429.977	50	50
429.876	430.086	38	55
429.977	430.086	50	51
430.078	430.276	39	55
430.078	430.48	70	56
430.078	430.48	75	56
430.078	430.48	78	67
430.177	430.374	51	55
430.276	430.48	39	55
430.374	430.48	51	55
430.473	430.671	41	55
430.473	430.879	68	60
430.473	430.879	74	60
430.473	430.879	77	71
430.572	430.771	53	53
430.671	430.879	41	55
430.771	430.879	53	55
430.872	431.073	42	56
430.872	431.282	66	62
430.872	431.282	70	74
430.872	431.282	75	74
430.972	431.173	54	56
431.073	431.282	42	57
431.173	431.282	54	57
431.274	431.475	44	58
431.274	431.676	63	74
431.274	431.681	68	74
431.274	431.681	71	74
431.374	431.575	56	59
431.475	431.681	44	59
431.575	431.681	56	60
431.676	431.875	46	60
431.676	432.08	63	74
431.676	432.08	66	74
431.676	432.48	70	77
431.775	431.974	58	55
431.875	432.074	46	61
431.974	432.08	58	55
432.074	432.273	46	58
432.074	432.48	62	74
432.074	432.48	65	74
432.173	432.374	58	55
432.273	432.475	46	58
432.374	432.48	58	55
432.475	432.678	46	53
432.475	432.881	64	51
432.475	432.881	67	51
432.475	432.874	72	61
432.577	432.776	58	46
432.678	432.881	46	50
432.776	432.881	58	47
432.874	433.071	40	55
432.874	433.273	72	53
432.874	433.279	79	63
432.874	433.279	84	63
432.972	433.172	52	50
433.071	433.279	40	55
433.172	433.279	52	51
433.273	433.47	41	55
433.273	433.674	72	56
433.273	433.674	77	56
433.273	433.674	80	67
433.371	433.569	53	55
433.47	433.674	41	55
433.569	433.674	53	55
433.668	433.865	43	55
433.668	434.074	70	60
433.668	434.074	76	60
433.668	434.074	79	71
433.767	433.966	55	53
433.865	434.074	43	55
433.966	434.074	55	55
434.066	434.267	44	56
434.066	434.477	68	62
434.066	434.477	72	74
434.066	434.477	77	74
434.167	434.368	56	56
434.267	434.477	44	57
434.368	434.477	56	57
434.468	434.67	46	58
434.468	434.871	65	74
434.468	434.876	73	74
434.569	434.77	58	59
434.67	434.876	46	59
434.77	434.876	58	60
434.871	435.069	48	60
434.871	435.268	65	74
434.871	435.276	72	77
434.97	435.169	60	55
435.069	435.276	48	61
435.169	435.276	60	55
435.268	435.467	49	58
435.268	435.666	65	74
435.268	435.666	71	74
435.368	435.567	61	55
435.467	435.666	49	58
435.567	435.666	61	55
435.666	435.865	48	58
435.666	435.865	60	58
435.666	435.865	64	65
435.666	435.865	72	73
435.865	436.069	59	50
436.069	436.272	60	59
436.272	436.475	59	56
436.475	436.679	60	57
436.679	436.882	59	49
436.882	437.086	60	57
437.086	437.289	59	51
437.289	438.086	60	44
437.494	437.594	48	55
437.494	437.695	65	38
437.494	437.695	68	38
437.695	437.793	53	58
437.695	437.891	65	38
437.695	437.891	68	38
437.891	437.988	55	61
437.891	438.086	65	38
437.891	438.086	68	38
438.086	438.188	56	64
438.086	438.893	60	44
438.29	438.494	65	38
438.29	438.494	68	38
438.29	438.392	72	62
438.494	438.694	65	38
438.494	438.694	68	38
438.494	438.594	77	64
438.694	438.893	65	38
438.694	438.893	68	38
438.694	438.793	79	66
438.843	438.893	72	65
438.893	439.699	60	44
438.893	439.496	80	75
439.096	439.296	65	38
439.096	439.296	68	38
439.296	439.496	65	38
439.296	439.496	68	38
439.496	439.699	65	38
439.496	439.699	68	38
439.496	439.699	77	63
439.648	439.699	72	60
439.699	440.504	60	44
439.699	440.302	80	71
439.902	440.102	65	38
439.902	440.102	68	38
440.102	440.302	65	38
440.102	440.302	68	38
440.302	440.504	65	38
440.302	440.504	68	38
440.302	440.504	77	58
440.504	441.303	60	44
440.504	440.712	76	60
440.712	440.812	48	57
440.712	440.912	67	38
440.712	440.912	70	38
440.912	441.01	55	60
440.912	441.107	67	38
440.912	441.107	70	38
441.107	441.205	56	63
441.107	441.303	67	38
441.107	441.303	70	38
441.303	441.405	58	66
441.303	442.111	60	44
441.507	441.711	67	38
441.507	441.711	70	38
441.507	441.711	72	59
441.711	441.911	67	38
441.711	441.911	70	38
441.711	441.911	82	62
441.911	442.111	67	38
441.911	442.111	70	38
441.911	442.111	80	65
442.111	442.925	60	44
442.111	442.162	80	60
442.162	442.213	82	60
442.213	442.314	80	67
442.314	442.518	67	38
442.314	442.518	70	38
442.314	442.518	79	60
442.518	442.721	67	38
442.518	442.721	70	38
442.518	442.569	79	60
442.569	442.62	80	60
442.62	442.721	79	67
442.721	442.925	67	38
442.721	442.925	70	38
442.721	442.925	77	60
442.925	443.738	60	44
442.925	442.975	77	60
442.975	443.026	79	60
443.026	443.128	77	66
443.128	443.331	67	38
443.128	443.331	70	38
443.128	443.331	76	60
443.331	443.535	67	38
443.331	443.535	70	38
443.331	443.433	74	60
443.535	443.738	67	38
443.535	443.738	70	38
443.535	443.637	76	60
443.738	444.537	60	44
443.738	443.947	77	60
443.947	444.047	48	55
443.947	444.147	65	38
443.947	444.147	68	38
444.147	444.244	53	58
444.147	444.342	65	38
444.147	444.342	68	38
444.342	444.44	55	61
444.342	444.537	65	38
444.342	444.537	68	38
444.537	444.639	56	64
444.537	445.344	60	44
444.742	444.946	65	38
444.742	444.946	68	38
444.742	444.844	72	62
444.946	445.145	65	38
444.946	445.145	68	38
444.946	445.045	77	64
445.145	445.344	65	38
445.145	445.344	68	38
445.145	445.245	80	66
445.294	445.344	72	65
445.344	446.15	56	44
445.344	445.947	84	75
445.547	445.747	60	38
445.547	445.747	65	38
445.747	445.947	60	38
445.747	445.947	65	38
445.947	446.15	60	38
445.947	446.15	65	38
445.947	446.1	77	63
446.1	446.15	77	60
446.15	446.956	56	44
446.15	446.754	89	71
446.354	446.554	60	38
446.354	446.554	65	38
446.554	446.754	60	38
446.554	446.754	65	38
446.754	446.956	60	38
446.754	446.956	65	38
446.754	446.956	84	58
446.956	447.75	55	44
446.956	447.164	83	60
447.164	447.263	43	57
447.164	447.362	62	38
447.164	447.362	65	38
447.362	447.459	50	60
447.362	447.556	62	38
447.362	447.556	65	38
447.556	447.653	51	63
447.556	447.75	62	38
447.556	447.75	65	38
447.75	447.853	53	66
447.75	448.559	55	44
447.955	448.159	62	38
447.955	448.159	65	38
447.955	448.159	67	59
448.159	448.359	62	38
448.159	448.359	65	38
448.159	448.359	77	62
448.359	448.559	62	38
448.359	448.559	65	38
448.359	448.559	75	65
448.559	449.372	55	44
448.559	448.609	75	60
448.609	448.66	77	60
448.66	448.762	75	67
448.762	448.965	62	38
448.762	448.965	65	38
448.762	448.965	74	60
448.965	449.169	62	38
448.965	449.169	65	38
448.965	449.016	74	60
449.016	449.067	75	60
449.067	449.169	74	67
449.169	449.372	62	38
449.169	449.372	65	38
449.169	449.372	72	60
449.372	450.186	55	44
449.372	449.423	72	60
449.423	449.474	74	60
449.474	449.576	72	66
449.576	449.779	62	38
449.576	449.779	65	38
449.576	449.779	71	60
449.779	449.982	62	38
449.779	449.982	65	38
449.779	449.881	69	60
449.982	450.186	62	38
449.982	450.186	65	38
449.982	450.084	71	60
450.186	450.985	55	44
450.186	450.391	72	60
450.391	450.491	43	55
450.391	450.591	60	38
450.391	450.591	63	38
450.591	450.69	48	58
450.591	450.788	60	38
450.591	450.788	63	38
450.788	450.886	50	61
450.788	450.985	60	38
450.788	450.985	63	38
450.985	451.087	51	64
450.985	451.791	55	44
451.189	451.393	60	38
451.189	451.393	63	38
451.189	451.291	79	62
451.393	451.592	60	38
451.393	451.592	63	38
451.393	451.492	84	64
451.592	451.791	60	38
451.592	451.791	63	38
451.592	451.692	86	66
451.742	451.791	79	65
451.791	452.598	55	44
451.791	452.394	87	75
451.994	452.194	60	38
451.994	452.194	63	38
452.194	452.394	60	38
452.194	452.394	63	38
452.394	452.598	60	38
452.394	452.598	63	38
452.394	452.598	84	63
452.547	452.598	79	60
452.598	453.403	55	44
452.598	453.201	87	71
452.801	453.001	60	38
452.801	453.001	63	38
453.001	453.201	60	38
453.001	453.201	63	38
453.201	453.403	60	38
453.201	453.403	63	38
453.201	453.403	84	58
453.403	454.196	55	44
453.403	453.61	83	60
453.61	453.709	43	57
453.61	453.808	62	38
453.61	453.808	65	38
453.808	453.905	50	60
453.808	454.002	62	38
453.808	454.002	65	38
454.002	454.099	51	63
454.002	454.196	62	38
454.002	454.196	65	38
454.196	454.298	53	66
454.196	455.004	55	44
454.4	454.604	62	38
454.4	454.604	65	38
454.4	454.604	79	59
454.604	454.804	62	38
454.604	454.804	65	38
454.604	454.804	89	62
454.804	455.004	62	38
454.804	455.004	65	38
454.804	455.004	87	65
455.004	455.818	55	44
455.004	455.055	87	60
455.055	455.106	89	60
455.106	455.208	87	67
455.208	455.411	62	38
455.208	455.411	65	38
455.208	455.411	86	60
455.411	455.615	62	38
455.411	455.615	65	38
455.411	455.462	86	60
455.462	455.513	87	60
455.513	455.615	86	67
455.615	455.818	62	38
455.615	455.818	65	38
455.615	455.818	84	60
455.818	456.635	55	44
455.818	455.869	84	60
455.869	455.92	86	60
455.92	456.021	84	66
456.021	456.225	62	38
456.021	456.225	65	38
456.021	456.225	83	60
456.225	456.428	62	38
456.225	456.428	65	38
456.225	456.326	81	60
456.428	456.635	62	38
456.428	456.635	65	38
456.428	456.53	83	60
456.635	457.449	60	44
456.635	456.686	86	60
456.686	456.737	87	60
456.737	456.839	86	67
456.839	457.042	63	37
456.839	457.042	67	37
456.839	457.042	84	59
457.042	457.246	63	37
457.042	457.246	67	37
457.042	457.093	84	58
457.093	457.144	86	58
457.144	457.246	84	65
457.246	457.449	63	36
457.246	457.449	67	36
457.246	457.449	82	58
457.449	458.266	53	42
457.449	457.5	82	57
457.5	457.551	84	57
457.551	457.652	82	63
457.652	457.856	63	36
457.652	457.856	65	36
457.652	457.856	81	57
457.856	458.059	63	35
457.856	458.059	65	35
457.856	457.957	79	56
458.059	458.266	63	35
458.059	458.266	65	35
458.059	458.161	81	55
458.266	459.08	58	40
458.266	458.317	84	55
458.317	458.368	85	55
458.368	458.47	84	61
458.47	458.673	61	34
458.47	458.673	65	34
458.47	458.673	82	54
458.673	458.877	61	34
458.673	458.877	65	34
458.673	458.724	82	54
458.724	458.775	84	54
458.775	458.877	82	60
458.877	459.08	61	33
458.877	459.08	65	33
458.877	459.08	80	53
459.08	459.898	51	38
459.08	459.131	80	52
459.131	459.182	82	52
459.182	459.283	80	57
459.283	459.487	61	33
459.283	459.487	63	33
459.283	459.487	79	52
459.487	459.69	61	32
459.487	459.69	63	32
459.487	459.588	77	51
459.69	459.898	61	32
459.69	459.898	63	32
459.69	459.792	79	51
459.898	460.733	56	36
459.898	459.95	82	50
459.95	460.002	84	50
460.002	460.105	82	55
460.105	460.313	60	31
460.105	460.313	63	31
460.105	460.313	80	49
460.313	460.521	60	31
460.313	460.521	63	31
460.313	460.365	80	49
460.365	460.417	82	48
460.417	460.521	80	54
460.521	460.733	60	30
460.521	460.733	63	30
460.521	460.733	79	48
460.733	461.567	56	35
460.733	460.785	79	48
460.785	460.837	80	47
460.837	460.94	79	52
460.94	461.148	60	30
460.94	461.148	63	30
460.94	461.148	78	47
461.148	461.356	60	29
461.148	461.356	63	29
461.148	461.252	78	46
461.356	461.567	60	29
461.356	461.567	63	29
461.356	461.459	78	46
461.567	462.439	55	30
461.567	461.621	80	42
461.621	461.675	82	42
461.675	461.783	80	46
461.783	462.0	60	26
461.783	462.0	63	26
461.783	462.0	79	42
462.0	462.216	60	26
462.0	462.216	63	26
462.0	462.108	79	42
462.216	462.439	60	26
462.216	462.439	63	26
462.216	462.325	79	42
462.439	463.328	55	30
462.439	462.494	80	42
462.494	462.55	82	42
462.55	462.661	80	46
462.661	462.883	59	26
462.661	462.883	62	26
462.661	462.883	79	42
462.883	463.105	59	26
462.883	463.105	62	26
462.883	462.994	79	42
463.105	463.328	59	26
463.105	463.328	62	26
463.105	463.217	79	42
463.328	464.662	48	36
463.478	463.732	55	24
463.478	463.732	60	25
463.628	463.836	51	26
463.628	464.044	63	29
463.732	463.94	55	24
463.732	463.94	60	29
463.836	464.044	51	32
463.836	464.662	72	45
463.94	464.148	55	25
463.94	464.148	60	28
464.044	464.251	51	28
464.044	464.251	63	30
464.148	464.258	55	26
464.148	464.258	60	28
464.251	464.456	51	34
464.251	464.456	63	31
464.353	464.559	55	26
464.353	464.559	60	30
464.456	464.867	51	29
464.456	464.867	63	32
464.559	464.764	55	26
464.559	464.764	60	29
464.662	465.077	48	36
464.662	465.077	72	50
464.764	464.97	55	28
464.764	464.97	60	30
464.867	465.077	51	32
464.867	465.077	63	33
464.97	465.077	55	28
464.97	465.077	60	32
465.073	466.332	46	45
465.185	465.401	55	30
465.185	465.401	61	32
465.297	465.505	52	32
465.297	465.713	64	36
465.401	465.609	55	29
465.401	465.609	61	35
465.505	465.713	52	38
465.505	466.332	73	54
465.609	465.816	55	30
465.609	465.816	61	33
465.713	465.92	52	33
465.713	465.92	64	35
465.816	465.927	55	30
465.816	465.927	61	32
465.92	466.126	52	38
465.92	466.126	64	35
466.023	466.229	55	29
466.023	466.229	61	33
466.126	466.538	52	32
466.126	466.538	64	35
466.229	466.435	55	29
466.229	466.435	61	32
466.332	466.756	46	38
466.332	466.756	73	53
466.435	466.641	55	30
466.435	466.641	61	32
466.538	466.756	52	33
466.538	466.756	64	35
466.641	466.756	55	29
466.641	466.756	61	33
466.753	466.829	44	55
466.753	466.829	72	66
466.854	466.956	56	36
466.854	466.956	60	41
466.956	467.057	48	39
466.956	467.057	65	45
467.057	467.158	56	35
467.057	467.158	60	42
467.158	467.234	46	56
467.158	467.234	76	67
467.259	467.36	58	36
467.259	467.36	64	43
467.36	467.461	48	43
467.36	467.461	72	47
467.461	467.561	58	41
467.461	467.561	64	43
467.561	467.634	44	58
467.561	467.634	77	71
467.659	467.757	56	38
467.659	467.757	65	45
467.757	467.855	48	43
467.757	467.855	72	50
467.855	467.953	56	38
467.855	467.953	65	45
467.953	468.027	43	60
467.953	468.027	79	72
468.051	468.149	55	40
468.051	468.149	67	47
468.149	468.247	48	43
468.149	468.247	72	50
468.247	468.345	55	38
468.247	468.345	67	47
468.345	468.418	41	63
468.345	468.418	80	74
468.442	468.538	53	42
468.442	468.538	68	49
468.538	468.636	48	45
468.538	468.636	72	54
468.636	468.732	53	42
468.636	468.732	68	49
468.732	468.804	39	66
468.732	468.804	81	80
468.828	468.925	51	41
468.828	468.925	69	50
468.925	469.022	48	47
468.925	469.022	72	55
469.022	469.119	51	41
469.022	469.119	69	51
469.119	469.192	38	68
469.119	469.192	83	84
469.216	469.312	50	45
469.216	469.312	71	51
469.312	469.408	43	49
469.312	469.408	77	58
469.408	469.504	50	43
469.408	469.504	71	53
469.504	469.577	36	70
469.504	469.577	84	85
469.601	469.697	48	45
469.601	469.697	72	53
469.697	469.794	43	51
469.697	469.794	77	58
469.794	469.89	48	43
469.794	469.89	72	54
469.89	469.961	35	70
469.89	469.961	86	85
469.985	470.083	47	47
469.985	470.083	74	55
470.083	470.179	43	53
470.083	470.179	77	63
470.179	470.276	47	48
470.179	470.276	74	55
470.276	470.348	34	72
470.276	470.348	88	90
470.372	470.468	46	47
470.372	470.468	76	57
470.468	470.565	36	53
470.468	470.565	79	62
470.565	470.662	46	50
470.565	470.662	76	57
470.662	470.734	32	75
470.662	470.734	89	89
470.757	470.854	44	50
470.757	470.854	77	59
470.854	470.951	36	55
470.854	470.951	80	64
470.951	471.048	44	50
470.951	471.048	77	59
471.048	471.124	29	76
471.048	471.124	86	91
471.15	471.251	41	56
471.15	471.251	77	61
471.251	471.353	36	58
471.251	471.353	80	67
471.353	471.455	41	55
471.353	471.455	77	61
471.455	472.255	31	71
471.455	472.247	43	84
471.554	471.75	75	78
471.652	472.043	79	84
471.75	471.945	75	78
471.848	472.255	84	88
471.945	472.145	75	78
472.043	472.255	79	84
472.145	472.255	75	76
472.247	473.066	43	71
472.247	473.066	55	84
472.348	472.544	74	78
472.446	472.838	77	84
472.544	472.74	74	78
472.642	473.066	83	88
472.74	472.946	74	78
472.838	473.066	77	84
472.946	473.066	74	76
473.059	474.303	48	45
473.164	473.373	55	30
473.164	473.373	60	32
473.269	473.478	51	32
473.269	473.685	63	36
473.373	473.582	55	29
473.373	473.582	60	35
473.478	473.685	51	38
473.478	474.303	72	54
473.582	473.789	55	30
473.582	473.789	60	33
473.685	473.892	51	33
473.685	473.892	63	35
473.789	473.899	55	30
473.789	473.899	60	32
473.892	474.097	51	38
473.892	474.097	63	35
473.995	474.2	55	29
473.995	474.2	60	33
474.097	474.508	51	32
474.097	474.508	63	35
474.2	474.405	55	29
474.2	474.405	60	32
474.303	474.72	48	38
474.303	474.72	72	53
474.405	474.611	55	30
474.405	474.611	60	32
474.508	474.72	51	33
474.508	474.72	63	35
474.611	474.72	55	29
474.611	474.72	60	33
474.714	475.973	46	45
474.827	475.042	55	30
474.827	475.042	61	32
474.938	475.146	52	32
474.938	475.354	64	36
475.042	475.25	55	29
475.042	475.25	61	35
475.146	475.354	52	38
475.146	475.973	73	54
475.25	475.457	55	30
475.25	475.457	61	33
475.354	475.561	52	33
475.354	475.561	64	35
475.457	475.568	55	30
475.457	475.568	61	32
475.561	475.767	52	38
475.561	475.767	64	35
475.664	475.87	55	29
475.664	475.87	61	33
475.767	476.179	52	32
475.767	476.179	64	35
475.87	476.076	55	29
475.87	476.076	61	32
475.973	476.4	46	38
475.973	476.4	73	53
476.076	476.282	55	30
476.076	476.282	61	32
476.179	476.4	52	33
476.179	476.4	64	35
476.282	476.4	55	29
476.282	476.4	61	33
476.394	476.47	44	55
476.394	476.47	72	66
476.496	476.597	56	36
476.496	476.597	60	41
476.597	476.698	48	39
476.597	476.698	65	45
476.698	476.8	56	35
476.698	476.8	60	42
476.8	476.875	46	56
476.8	476.875	76	67
476.901	477.001	58	36
476.901	477.001	64	43
477.001	477.102	48	43
477.001	477.102	72	47
477.102	477.202	58	41
477.102	477.202	64	43
477.202	477.276	44	58
477.202	477.276	77	71
477.3	477.398	56	38
477.3	477.398	65	45
477.398	477.496	48	43
477.398	477.496	72	50
477.496	477.594	56	38
477.496	477.594	65	45
477.594	477.668	43	60
477.594	477.668	79	72
477.692	477.79	55	40
477.692	477.79	67	47
477.79	477.888	48	43
477.79	477.888	72	50
477.888	477.986	55	38
477.888	477.986	67	47
477.986	478.059	41	63
477.986	478.059	80	74
478.083	478.18	53	42
478.083	478.18	68	49
478.18	478.277	48	45
478.18	478.277	72	54
478.277	478.373	53	42
478.277	478.373	68	49
478.373	478.446	39	66
478.373	478.446	81	80
478.471	478.567	51	41
478.471	478.567	69	50
478.567	478.664	48	47
478.567	478.664	72	55
478.664	478.761	51	41
478.664	478.761	69	51
478.761	478.834	38	68
478.761	478.834	83	84
478.858	478.954	50	45
478.858	478.954	71	51
478.954	479.052	43	49
478.954	479.052	77	58
479.052	479.149	50	43
479.052	479.149	71	53
479.149	479.221	36	70
479.149	479.221	84	85
479.245	479.342	48	45
479.245	479.342	72	53
479.342	479.438	43	51
479.342	479.438	77	58
479.438	479.536	48	43
479.438	479.536	72	54
479.536	479.609	35	70
479.536	479.609	86	85
479.633	479.729	47	47
479.633	479.729	74	55
479.729	479.826	43	53
479.729	479.826	77	63
479.826	479.923	47	48
479.826	479.923	74	55
479.923	479.995	34	72
479.923	479.995	88	90
480.019	480.114	46	47
480.019	480.114	76	57
480.114	480.211	36	53
480.114	480.211	79	62
480.211	480.308	46	50
480.211	480.308	76	57
480.308	480.38	32	75
480.308	480.38	89	89
480.404	480.503	44	50
480.404	480.503	77	59
480.503	480.6	36	55
480.503	480.6	80	64
480.6	480.697	44	50
480.6	480.697	77	59
480.697	480.773	29	76
480.697	480.773	86	91
480.798	480.9	41	56
480.798	480.9	77	61
480.9	481.002	36	58
480.9	481.002	80	67
481.002	481.104	41	55
481.002	481.104	77	61
481.104	481.906	31	71
481.104	481.898	43	84
481.206	481.401	75	78
481.303	481.694	79	84
481.401	481.596	75	78
481.499	481.906	84	88
481.596	481.796	75	78
481.694	481.906	79	84
481.796	481.906	75	76
481.898	482.693	43	71
481.898	482.693	55	84
481.999	482.195	74	78
482.097	482.489	77	84
482.195	482.391	74	78
482.293	482.693	83	88
482.391	482.591	74	78
482.489	482.693	77	84
482.591	482.693	74	76
482.693	482.902	48	84
482.693	482.771	72	81
482.902	483.101	60	34
482.902	483.101	63	34
482.902	483.4	84	58
483.101	483.3	60	34
483.101	483.3	63	34
483.3	483.51	60	34
483.3	483.51	63	34
483.3	483.51	83	46
483.4	483.51	84	48
483.502	484.312	56	34
483.502	484.312	86	49
483.605	484.312	84	49
483.706	483.904	60	34
483.706	483.904	63	34
483.706	484.103	82	48
483.805	484.004	80	47
483.904	484.103	60	34
483.904	484.103	63	34
483.904	484.304	79	45
484.004	484.203	80	46
484.103	484.312	60	34
484.103	484.312	63	34
484.103	484.312	82	49
484.203	484.312	80	47
484.304	485.111	53	34
484.304	485.111	79	49
484.405	485.111	77	47
484.505	484.703	60	34
484.505	484.703	62	34
484.505	484.901	75	46
484.604	484.802	74	45
484.703	484.901	60	34
484.703	484.901	62	34
484.703	485.111	73	45
484.802	485.001	74	45
484.901	485.111	60	34
484.901	485.111	62	34
484.901	485.111	75	47
485.001	485.111	74	45
485.102	485.905	55	34
485.102	485.905	72	46
485.203	485.905	71	46
485.303	485.502	59	34
485.303	485.502	62	34
485.303	485.701	68	45
485.403	485.601	67	45
485.502	485.701	59	34
485.502	485.701	62	34
485.502	485.905	66	45
485.601	485.905	67	42
485.701	485.905	59	34
485.701	485.905	62	34
485.701	485.905	68	46
485.8	485.905	65	42
485.899	486.714	48	59
485.899	485.978	63	66
486.109	486.308	51	44
486.109	486.308	60	44
486.109	486.714	72	68
486.109	486.607	84	68
486.308	486.507	51	44
486.308	486.507	60	44
486.507	486.714	51	44
486.507	486.714	60	44
486.507	486.714	83	61
486.607	486.714	84	64
486.709	487.516	44	45
486.709	487.516	86	66
486.812	487.516	84	66
486.912	487.111	48	46
486.912	487.111	51	46
486.912	487.111	56	46
486.912	487.31	82	65
487.012	487.21	80	64
487.111	487.31	48	46
487.111	487.31	51	46
487.111	487.31	56	46
487.111	487.511	79	62
487.21	487.41	80	64
487.31	487.516	48	47
487.31	487.516	51	47
487.31	487.516	56	47
487.31	487.516	82	68
487.41	487.516	80	66
487.511	488.315	41	47
487.511	488.315	79	69
487.612	488.315	77	67
487.712	487.91	48	48
487.712	487.91	50	48
487.712	487.91	53	48
487.712	488.108	75	66
487.811	488.009	74	65
487.91	488.108	48	48
487.91	488.108	50	48
487.91	488.108	53	48
487.91	488.315	73	65
488.009	488.208	74	64
488.108	488.315	48	49
488.108	488.315	50	49
488.108	488.315	53	49
488.108	488.315	75	68
488.208	488.315	74	66
488.309	489.12	43	49
488.309	489.115	72	68
488.41	489.12	71	68
488.51	488.709	47	50
488.51	488.709	50	50
488.51	488.709	55	50
488.51	488.907	68	68
488.609	488.808	67	68
488.709	488.907	47	50
488.709	488.907	50	50
488.709	488.907	55	50
488.709	489.12	66	67
488.808	489.008	67	64
488.907	489.12	47	51
488.907	489.12	50	51
488.907	489.12	55	51
488.907	489.12	68	70
489.008	489.12	67	64
489.115	489.336	36	67
489.115	489.225	72	83
489.225	489.336	48	60
489.336	489.535	36	67
489.336	489.737	60	82
489.435	489.535	48	59
489.535	489.737	36	67
489.636	489.737	48	60
489.737	489.935	36	66
489.737	489.836	58	80
489.737	489.836	64	80
489.836	489.935	48	60
489.935	490.134	36	66
489.935	490.035	56	81
489.935	490.035	65	81
490.035	490.134	48	59
490.134	490.333	36	66
490.134	490.233	64	82
490.134	490.233	67	82
490.233	490.333	48	60
490.333	490.531	36	66
490.333	490.432	65	83
490.333	490.432	68	83
490.432	490.531	48	60
490.531	490.73	36	66
490.531	490.631	62	85
490.531	490.631	71	85
490.631	490.73	48	61
490.73	490.939	36	67
490.73	490.835	63	83
490.73	490.835	72	83
490.835	490.939	48	60
490.939	491.138	36	67
490.939	491.34	64	83
490.939	491.34	72	82
491.039	491.138	48	59
491.138	491.34	36	67
491.239	491.34	48	60
491.34	491.539	36	66
491.34	491.439	70	80
491.34	491.439	76	80
491.439	491.539	48	60
491.539	491.737	36	66
491.539	491.638	68	81
491.539	491.638	77	81
491.638	491.737	48	59
491.737	491.936	36	66
491.737	491.837	76	82
491.737	491.837	79	82
491.837	491.936	48	60
491.936	492.135	36	66
491.936	492.035	77	83
491.936	492.035	80	83
492.035	492.135	48	60
492.135	492.344	36	66
492.135	492.239	74	85
492.135	492.239	83	85
492.239	492.344	48	61
492.344	492.544	36	66
492.344	493.144	72	94
492.344	493.144	75	94
492.344	493.144	84	94
492.444	492.544	48	59
492.544	492.744	36	66
492.644	492.744	48	60
492.744	492.944	36	66
492.844	492.944	48	60
492.944	493.144	36	66
493.044	493.144	48	61
493.144	493.343	34	66
493.144	493.955	60	88
493.144	493.955	63	88
493.144	493.955	72	88
493.244	493.343	46	59
493.343	493.542	34	66
493.442	493.542	46	60
493.542	493.74	34	66
493.641	493.74	46	60
493.74	493.955	34	66
493.848	493.955	46	61
493.955	494.156	32	66
493.955	494.756	72	99
493.955	494.756	75	99
493.955	494.756	84	99
494.055	494.156	44	59
494.156	494.356	32	66
494.256	494.356	44	60
494.356	494.556	32	66
494.456	494.556	44	60
494.556	494.756	32	66
494.656	494.756	44	61
494.756	494.961	31	66
494.756	495.601	60	92
494.756	495.601	63	92
494.756	495.601	72	92
494.858	494.961	43	59
494.961	495.167	31	66
495.064	495.167	43	60
495.167	495.372	31	66
495.269	495.372	43	60
495.372	495.601	31	66
495.486	495.601	43	61
495.601	496.565	30	68
495.601	496.565	42	81
495.601	496.565	75	102
495.601	496.565	81	102
495.601	496.565	84	102
495.601	496.565	87	102
496.565	498.564	42	71
496.565	498.564	45	84
496.565	498.564	48	84
496.565	498.564	51	84
496.565	498.564	54	86
496.565	498.564	57	102
496.565	498.564	60	102
496.565	498.564	63	102
502.689	503.064	63	39
502.689	503.064	66	44
502.689	503.064	69	44
502.689	503.064	72	51
503.064	504.189	62	45
503.064	504.189	66	46
503.064	504.189	69	46
503.064	504.189	74	55
504.189	504.63	60	39
504.189	504.63	66	42
504.189	504.63	69	50
504.189	504.63	75	50
504.63	507.918	60	42
504.63	507.918	66	46
504.63	507.918	69	55
504.63	507.918	75	55
507.918	509.418	59	27
507.918	509.418	67	31
507.918	509.418	71	31
507.918	509.418	74	39
515.043	515.418	68	39
515.043	515.418	71	44
515.043	515.418	74	44
515.043	515.418	77	52
515.418	516.543	67	45
515.418	516.543	71	46
515.418	516.543	74	46
515.418	516.543	79	55
516.543	516.977	65	39
516.543	516.977	71	43
516.543	516.977	74	51
516.543	516.977	80	51
516.977	520.265	65	38
516.977	520.265	71	46
516.977	520.265	74	55
516.977	520.265	80	55
520.265	521.765	63	27
520.265	521.765	72	32
520.265	521.765	75	32
520.265	521.765	79	39
527.39	527.765	61	42
527.39	527.765	64	42
527.39	527.765	67	50
527.39	527.765	70	55
527.39	527.765	76	55
527.39	527.765	79	55
527.39	527.765	82	66
527.765	528.919	60	49
527.765	528.919	64	49
527.765	528.919	67	58
527.765	528.919	72	61
527.765	528.919	76	61
527.765	528.919	79	61
527.765	528.919	84	72
528.919	529.411	58	49
528.919	529.411	64	49
528.919	529.411	67	58
528.919	529.411	73	64
528.919	529.411	76	64
528.919	529.411	79	75
528.919	529.411	85	75
529.411	535.827	56	60
529.411	532.644	58	60
529.411	532.644	64	60
529.411	532.644	67	72
529.411	532.644	73	72
529.411	532.644	76	72
529.411	532.644	79	72
529.411	532.644	85	84
532.611	534.211	60	46
532.611	534.244	65	46
532.611	534.244	68	55
532.611	534.244	72	52
532.611	534.244	84	62
534.211	535.827	55	44
534.211	535.811	60	44
534.211	535.827	64	52
534.211	535.827	70	60
534.211	535.827	82	60
535.811	537.417	53	35
535.811	537.411	60	35
535.811	537.417	65	42
535.811	537.417	68	41
535.811	537.417	80	49
537.411	539.041	51	34
537.411	539.011	55	34
537.411	539.041	60	40
537.411	539.041	67	40
537.411	539.041	79	48
539.011	540.627	50	32
539.011	540.611	55	32
539.011	540.627	59	38
539.011	540.627	65	39
539.011	540.627	77	46
540.611	542.236	48	30
540.611	542.236	55	30
540.611	542.236	60	36
540.611	542.236	63	37
540.611	542.236	75	44
542.218	545.79	53	34
543.941	545.79	65	32
543.941	545.79	68	32
543.941	545.79	74	38
545.751	551.054	31	30
545.751	551.054	43	36
547.626	551.054	50	29
547.626	551.054	53	29
547.626	551.054	59	35
551.054	551.258	36	44
551.054	551.657	60	50
551.156	551.359	48	41
551.258	551.459	36	44
551.359	551.558	48	41
551.459	551.657	36	44
551.558	551.657	48	41
551.657	551.852	36	45
551.657	551.73	58	52
551.657	551.73	64	52
551.755	551.852	48	41
551.852	552.047	36	45
551.852	551.925	56	54
551.852	551.925	65	54
551.95	552.047	48	46
552.047	552.239	36	47
552.047	552.119	64	56
552.047	552.119	67	56
552.143	552.239	48	47
552.239	552.432	36	49
552.239	552.312	65	57
552.239	552.312	68	57
552.336	552.432	48	50
552.432	552.627	36	51
552.432	552.505	62	59
552.432	552.505	71	59
552.529	552.627	48	53
552.627	552.834	36	55
552.627	552.705	63	61
552.627	552.705	72	61
552.731	552.932	48	50
552.834	553.029	36	53
552.834	553.224	64	55
552.834	553.224	72	55
552.932	553.127	48	47
553.029	553.224	36	53
553.127	553.224	48	47
553.224	553.419	36	44
553.224	553.297	70	51
553.224	553.297	76	51
553.322	553.419	48	40
553.419	553.614	36	40
553.419	553.492	68	50
553.419	553.492	77	50
553.516	553.614	48	43
553.614	553.807	36	44
553.614	553.686	76	53
553.614	553.686	79	53
553.71	553.807	48	46
553.807	554.0	36	48
553.807	553.879	77	57
553.807	553.879	80	57
553.903	554.0	48	50
554.0	554.193	36	52
554.0	554.072	74	60
554.0	554.072	83	60
554.096	554.193	48	54
554.193	554.391	36	63
554.193	554.587	75	58
554.193	554.587	84	70
554.292	554.489	48	57
554.391	554.595	36	62
554.489	554.595	48	56
554.587	554.784	34	66
554.587	554.986	72	64
554.587	554.986	75	75
554.587	554.986	84	75
554.685	554.885	46	61
554.784	554.991	34	68
554.885	554.991	46	64
554.986	555.183	32	70
554.986	555.381	72	72
554.986	555.381	75	72
554.986	555.381	84	86
555.084	555.282	44	72
555.183	555.388	32	73
555.282	555.388	44	74
555.381	555.578	31	75
555.381	555.785	72	81
555.381	555.779	75	81
555.381	555.779	84	97
555.48	555.679	43	73
555.578	555.785	31	76
555.679	555.785	43	78
555.779	555.984	30	93
555.779	555.984	42	93
555.779	555.984	75	99
555.779	555.984	81	99
555.779	555.984	84	99
555.779	555.984	87	103
556.599	556.801	54	79
556.599	556.801	57	79
556.599	556.801	60	93
556.599	556.801	63	93
556.599	556.801	66	79
556.599	556.801	69	79
556.599	556.801	72	94
556.599	556.801	75	94
557.407	557.65	55	79
557.407	557.65	60	93
557.407	557.65	63	93
557.407	557.65	67	79
557.407	557.65	72	79
557.407	557.65	75	94
557.407	557.65	79	94
558.243	558.496	31	74
558.243	558.496	35	74
558.243	558.496	38	74
558.243	558.496	43	89
558.243	558.496	50	86
558.243	558.496	53	86
558.243	558.496	55	103
558.243	558.496	59	103
559.132	559.539	36	74
559.132	559.539	39	74
559.132	559.539	43	74
559.132	559.539	48	89
559.132	559.539	51	86
559.132	559.539	55	103
559.132	559.539	60	103
