OnsetTime	OffsetTime	MidiPitch	Velocity
0.50152	1.19458	63	81
0.590569	1.19458	69	81
0.681121	4.39184	29	70
0.681121	4.39184	41	84
0.681121	4.39184	78	96
1.19458	1.61625	48	47
1.19458	1.61625	53	53
1.19458	1.61625	60	71
1.19458	1.61625	63	62
1.19458	1.61625	69	68
1.19458	4.39184	77	80
1.61625	1.98594	48	46
1.61625	1.98594	53	52
1.61625	1.98594	60	70
1.61625	1.98594	63	64
1.61625	1.98594	69	67
1.61625	4.39184	76	80
1.98594	2.30438	48	47
1.98594	2.30438	53	53
1.98594	2.30438	60	72
1.98594	2.30438	63	63
1.98594	2.30438	69	69
1.98594	4.39184	75	81
2.30438	2.63672	48	48
2.30438	2.63672	53	55
2.30438	2.63672	60	74
2.30438	2.63672	63	62
2.30438	2.63672	69	69
2.30438	4.39184	73	83
2.63672	4.4883	48	46
2.63672	4.4883	53	52
2.63672	4.4883	60	70
2.63672	4.4883	63	58
2.63672	4.4883	69	65
2.63672	4.4883	72	78
4.64908	4.85616	46	53
4.64908	4.85616	77	39
4.73167	4.85616	75	40
4.81429	4.89404	53	23
4.81429	4.89404	61	29
4.81429	4.90733	72	41
4.89404	4.98697	73	42
4.97372	5.06647	65	43
5.05322	5.14593	69	45
5.13272	5.29124	41	40
5.13272	5.22519	70	45
5.21198	5.30466	72	46
5.29124	5.5122	46	57
5.29124	5.5122	73	48
5.37176	5.5122	75	49
5.45228	5.5313	53	27
5.45228	5.5313	61	34
5.45228	5.54446	77	51
5.5313	5.62339	79	51
5.6103	5.70191	81	52
5.68882	5.78055	82	53
5.76734	5.92586	41	47
5.76734	5.85981	84	54
5.8466	6.15216	85	56
5.92586	6.15216	46	65
5.92586	6.15216	87	56
6.00562	6.15216	89	57
6.08537	6.16318	53	28
6.08537	6.16318	61	35
6.08537	6.17615	91	58
6.16318	6.25392	93	59
6.24099	6.33149	94	61
6.31856	6.40902	96	62
6.39613	6.55079	41	50
6.39613	6.48635	97	64
6.47346	6.56392	99	65
6.55079	6.81166	46	68
6.55079	6.81166	100	67
6.62955	6.81166	101	65
6.70832	6.81166	53	34
6.70832	6.81166	61	41
6.70832	6.81166	99	65
6.78597	6.87591	97	63
6.86307	6.9532	96	62
6.94031	7.03053	94	61
7.01764	7.1727	41	46
7.01764	7.10806	93	60
7.09513	7.1727	94	59
7.1727	7.39021	46	60
7.1727	7.39021	92	58
7.25171	7.39021	90	57
7.33071	7.40907	53	32
7.33071	7.40907	61	38
7.33071	7.42208	89	56
7.40907	7.50013	88	56
7.48712	7.57837	89	55
7.56532	7.65665	87	54
7.6436	8.11555	41	42
7.6436	7.73513	85	53
7.72204	8.11555	84	52
7.80057	8.11555	46	54
7.80057	7.96107	82	51
7.88082	8.11555	81	50
7.96107	8.11555	53	28
7.96107	8.11555	61	34
7.96107	8.11555	82	49
8.04049	8.13268	80	49
8.11951	8.2119	78	48
8.19869	8.29116	77	48
8.27795	8.86129	41	39
8.27795	8.37062	75	46
8.35737	8.51802	73	45
8.43704	8.86129	46	51
8.43704	8.86129	72	45
8.51802	8.86129	73	45
8.59899	8.86129	51	22
8.59899	8.86129	54	22
8.59899	8.86129	63	28
8.59899	8.86129	75	45
8.67875	8.86129	77	46
8.7585	8.86129	78	47
8.8381	8.93102	80	47
8.9176	9.07869	34	43
8.9176	9.01157	82	48
8.99815	9.09212	84	49
9.07869	9.43285	46	59
9.07869	9.43285	82	48
9.15924	9.43285	80	48
9.23824	9.43285	51	29
9.23824	9.43285	54	29
9.23824	9.43285	63	35
9.23824	9.43285	78	49
9.31725	9.43285	77	49
9.39609	9.48799	75	50
9.47486	9.56682	73	51
9.55354	9.71289	34	39
9.55354	9.64649	72	51
9.63321	9.95167	75	51
9.71289	10.0261	46	56
9.71289	10.0261	78	51
9.79314	10.0261	74	48
9.87339	10.0261	51	26
9.87339	10.0261	54	26
9.87339	10.0261	63	31
9.87339	10.0261	77	51
9.95167	10.0434	75	45
10.03	10.1239	72	45
10.1105	10.2044	66	43
10.191	10.3515	34	37
10.191	10.2846	71	44
10.2713	10.3648	72	45
10.3515	10.6637	46	51
10.3515	10.6637	73	45
10.4315	10.6637	72	46
10.5115	10.6637	51	24
10.5115	10.6637	54	24
10.5115	10.6637	63	29
10.5115	10.6637	74	48
10.5913	10.6842	75	48
10.6709	10.7637	77	48
10.7504	10.8429	75	50
10.8299	10.9867	34	43
10.8299	10.9212	76	51
10.9081	10.9867	77	51
10.9867	11.3343	46	59
10.9867	11.3343	80	52
11.0672	11.3343	78	53
11.1471	11.3343	51	28
11.1471	11.3343	54	28
11.1471	11.3343	63	33
11.1471	11.3343	81	55
11.2256	11.3343	82	56
11.3042	11.3958	85	56
11.3827	11.4741	84	58
11.4611	11.6175	34	56
11.4611	11.5524	85	59
11.5393	11.631	86	60
11.6175	11.9813	46	68
11.6175	11.8579	89	61
11.6989	11.9813	87	62
11.7789	11.9813	51	29
11.7789	11.9813	54	29
11.7789	11.9813	63	36
11.7789	11.9813	88	62
11.8579	11.9813	89	63
11.9364	12.0278	93	64
12.0146	12.108	94	65
12.0942	12.2715	46	59
12.0942	12.1939	92	67
12.1789	12.6238	91	68
12.2715	12.6238	45	73
12.2715	12.6238	90	67
12.3503	12.6238	101	66
12.429	12.6238	54	36
12.429	12.6238	63	43
12.429	12.6238	99	66
12.5059	12.6238	87	65
12.5832	12.6734	97	63
12.6606	12.7508	96	62
12.7379	12.893	33	46
12.7379	12.8284	84	62
12.8155	12.9064	94	61
12.893	13.2457	45	60
12.893	13.2457	93	60
12.973	13.2457	81	59
13.053	13.2457	54	31
13.053	13.2457	63	37
13.053	13.2457	92	57
13.1308	13.2457	90	57
13.2087	13.2997	78	56
13.2867	13.3778	89	56
13.3647	13.5211	44	40
13.3647	13.4558	87	55
13.4428	13.5341	78	54
13.5211	13.7471	46	55
13.5211	13.7471	77	54
13.5994	13.7471	87	52
13.6777	13.7563	53	28
13.6777	13.7563	61	34
13.6777	13.7693	85	51
13.7563	13.8479	77	51
13.8348	13.9265	85	50
13.9134	14.0053	84	50
13.9921	14.1497	46	39
13.9921	14.084	75	49
14.0709	14.1629	84	47
14.1497	14.4054	49	49
14.1497	14.4054	73	46
14.2288	14.4054	82	46
14.3078	14.4054	53	25
14.3078	14.4054	58	25
14.3078	14.4054	65	29
14.3078	14.4054	80	45
14.3869	14.4793	72	45
14.4661	14.5586	80	44
14.5454	14.638	78	42
14.6247	14.7837	49	33
14.6247	14.7175	70	42
14.7042	14.7837	78	42
14.7837	15.0441	51	41
14.7837	15.0441	69	40
14.8632	15.0441	70	42
14.9426	15.0441	57	20
14.9426	15.0441	66	25
14.9426	15.0441	72	42
15.0218	15.1139	73	44
15.1008	15.1926	75	45
15.1795	15.2711	76	46
15.2581	15.4146	51	35
15.2581	15.3495	77	47
15.3364	15.7406	78	48
15.4146	15.7406	49	49
15.4146	15.7406	76	51
15.4939	15.7406	77	49
15.5731	15.7406	53	18
15.5731	15.7406	58	18
15.5731	15.7406	65	28
15.5731	15.7406	74	47
15.6512	15.7426	75	46
15.7295	15.8211	72	45
15.808	15.8998	73	44
15.8867	16.0447	49	40
15.8867	15.9788	72	43
15.9656	16.0447	70	41
16.0447	16.3376	51	50
16.0447	16.3376	69	39
16.1237	16.3376	70	41
16.2026	16.3376	57	22
16.2026	16.3376	66	27
16.2026	16.3376	72	42
16.2813	16.3729	73	44
16.3598	16.4513	75	45
16.4383	16.5296	76	47
16.5166	16.6727	51	36
16.5166	16.6077	77	49
16.5947	16.686	78	50
16.6727	17.01	49	51
16.6727	17.01	76	51
16.7527	17.01	77	50
16.8314	17.01	53	24
16.8314	17.01	58	24
16.8314	17.01	65	29
16.8314	17.01	74	48
16.9095	17.01	75	48
16.9878	17.0793	72	46
17.0662	17.1579	73	45
17.1448	17.3021	49	36
17.1448	17.2367	72	45
17.2236	17.3021	70	43
17.3021	17.5547	53	42
17.3021	17.5547	71	41
17.3803	17.5547	72	42
17.4583	17.5547	59	23
17.4583	17.5547	68	28
17.4583	17.5547	74	44
17.5359	17.6263	75	45
17.6134	17.7035	76	48
17.6906	17.7804	77	50
17.7676	17.9208	53	39
17.7676	17.8571	79	51
17.8444	17.9339	80	53
17.9208	18.2518	51	54
17.9208	18.2518	78	54
17.9993	18.2518	79	52
18.0771	18.2518	55	26
18.0771	18.2518	60	26
18.0771	18.2518	67	32
18.0771	18.2518	76	51
18.1535	18.2518	77	48
18.2301	18.3197	74	48
18.3069	18.3967	75	48
18.3838	18.7486	51	35
18.3838	18.4739	74	46
18.4611	18.616	72	45
18.5385	18.7486	53	42
18.5385	18.7486	71	43
18.616	18.7486	72	44
18.6934	18.7705	59	23
18.6934	18.7705	68	28
18.6934	18.7834	74	45
18.7705	18.8603	75	47
18.8475	18.9371	76	49
18.9243	19.0137	77	51
19.0009	19.4505	53	38
19.0009	19.0901	79	53
19.0774	19.4505	80	54
19.1536	19.4505	51	52
19.1536	19.4505	78	57
19.2317	19.4505	79	56
19.3091	19.4505	55	26
19.3091	19.4505	60	26
19.3091	19.4505	67	32
19.3091	19.4505	76	54
19.3852	19.474	77	51
19.4613	19.5504	74	51
19.5377	19.6269	75	51
19.6142	19.7671	51	45
19.6142	19.7034	74	49
19.6907	19.7671	72	48
19.7671	20.0903	53	55
19.7671	20.0903	73	46
19.8445	20.0903	75	45
19.9218	20.0903	56	23
19.9218	20.0903	61	23
19.9218	20.0903	68	28
19.9218	20.0903	77	47
19.9991	20.0903	78	49
20.0757	20.1643	80	50
20.1516	20.24	82	51
20.2275	20.3769	53	40
20.2275	20.3147	83	53
20.3022	20.3899	84	55
20.3769	20.7056	54	55
20.3769	20.7056	85	56
20.455	20.7056	86	57
20.5325	20.7056	57	28
20.5325	20.7056	60	28
20.5325	20.7056	69	34
20.5325	20.7056	89	58
20.6081	20.7056	87	56
20.684	20.773	84	56
20.7603	20.8497	81	54
20.8369	20.9915	54	39
20.8369	20.9268	78	53
20.9139	20.9915	75	51
20.9915	21.2833	53	51
20.9915	21.2833	73	48
21.0694	21.2833	75	51
21.1472	21.2833	56	27
21.1472	21.2833	61	27
21.1472	21.2833	68	30
21.1472	21.2833	77	51
21.2247	21.3148	78	53
21.302	21.3918	80	55
21.379	21.4685	82	56
21.4558	21.6085	53	45
21.4558	21.545	83	58
21.5323	21.6213	84	58
21.6085	21.9399	52	59
21.6085	21.8414	85	60
21.6865	21.9399	84	62
21.765	21.9399	58	29
21.765	21.9399	61	29
21.765	21.9399	67	34
21.765	21.9399	87	63
21.8414	21.9399	85	60
21.9181	22.0081	82	58
21.9952	22.0857	79	56
22.0727	22.2291	52	49
22.0727	22.1636	76	55
22.1506	22.2291	73	52
22.2291	22.5496	51	64
22.2291	22.5496	72	56
22.3078	22.5496	73	56
22.3863	22.5496	57	30
22.3863	22.5496	66	37
22.3863	22.5496	74	57
22.4645	22.5554	75	59
22.5425	22.6332	76	60
22.6203	22.7107	77	61
22.6978	22.8523	51	55
22.6978	22.788	78	61
22.7752	23.1652	79	62
22.8523	23.1652	49	66
22.8523	23.1652	80	62
22.9291	23.1652	81	62
23.0062	23.1652	53	30
23.0062	23.1652	58	30
23.0062	23.1652	65	37
23.0062	23.1652	84	61
23.0837	23.1743	82	61
23.1613	23.2523	78	59
23.2393	23.3306	77	58
23.3175	23.4091	75	57
23.396	23.4748	73	56
23.4748	24.824	41	91
23.4748	23.7171	72	66
23.5556	24.2801	70	65
23.6364	24.3602	69	65
23.7171	24.5252	72	65
23.7979	24.824	48	68
23.7979	24.824	51	68
23.7979	24.824	57	68
23.7979	24.824	63	81
23.7979	24.1209	66	64
23.8786	24.0402	65	65
23.9594	24.824	64	67
24.0402	24.2004	65	69
24.1209	24.824	66	70
24.2004	24.824	65	68
24.2801	24.824	70	72
24.3602	24.824	69	71
24.4404	24.824	73	74
24.5252	24.824	72	71
24.6186	24.824	80	74
24.7222	24.824	78	75
24.824	25.1029	34	77
24.824	25.1029	46	96
24.824	25.1029	77	77
24.9066	25.1029	72	77
24.9892	25.1029	49	43
24.9892	25.1029	53	51
24.9892	25.1029	61	62
24.9892	25.1029	75	78
25.069	25.1619	73	79
25.1487	25.2414	65	79
25.2282	25.3211	69	80
25.3077	25.4688	29	60
25.3077	25.4688	41	79
25.3077	25.4016	70	81
25.3882	25.4822	72	81
25.4688	25.7655	34	78
25.4688	25.7655	46	98
25.4688	25.7655	73	82
25.5495	25.7655	75	83
25.6303	25.7655	49	42
25.6303	25.7655	53	50
25.6303	25.7655	61	62
25.6303	25.7655	77	84
25.7091	25.8009	79	84
25.7878	25.8794	81	85
25.8664	25.9581	82	86
25.9449	26.1038	29	61
25.9449	26.1038	41	77
25.9449	26.0376	84	86
26.0244	26.4663	85	87
26.1038	26.4663	34	73
26.1038	26.4663	46	93
26.1038	26.4663	87	88
26.1833	26.4663	89	89
26.2628	26.4663	49	44
26.2628	26.4663	53	52
26.2628	26.4663	61	63
26.2628	26.4663	91	89
26.3406	26.4663	93	90
26.4184	26.5089	94	91
26.496	26.5866	96	91
26.5736	26.73	29	62
26.5736	26.73	41	79
26.5736	26.6648	97	92
26.6518	26.7431	99	93
26.73	26.9903	34	79
26.73	26.9903	46	96
26.73	26.9903	100	94
26.8085	26.9903	101	92
26.8871	26.9903	49	51
26.8871	26.9903	53	60
26.8871	26.9903	61	72
26.8871	26.9903	99	92
26.9646	27.0546	97	91
27.0417	27.1319	96	90
27.119	27.2092	94	88
27.1963	27.3514	29	56
27.1963	27.3514	41	74
27.1963	27.2867	93	87
27.2738	27.6592	94	86
27.3514	27.6592	34	70
27.3514	27.6592	46	92
27.3514	27.6592	92	86
27.4306	27.6592	90	85
27.5099	27.6592	49	49
27.5099	27.6592	53	58
27.5099	27.6592	61	68
27.5099	27.6592	89	83
27.5883	27.6794	88	82
27.6664	27.7576	89	79
27.7446	27.8359	87	77
27.8229	28.2913	29	49
27.8229	28.2913	41	65
27.8229	27.9144	85	76
27.9013	28.2913	84	74
27.9798	28.2913	34	62
27.9798	28.2913	46	77
27.9798	28.1373	82	72
28.0585	28.2913	81	69
28.1373	28.2913	49	40
28.1373	28.2913	53	48
28.1373	28.2913	61	57
28.1373	28.2913	82	68
28.2162	28.3084	80	67
28.2952	28.3876	78	66
28.3744	28.4671	77	65
28.4537	28.9838	29	45
28.4537	28.9838	41	59
28.4537	28.5481	75	63
28.5346	28.6985	73	61
28.6153	28.9838	34	56
28.6153	28.9838	46	67
28.6153	28.9838	72	61
28.6985	28.9838	73	61
28.7818	28.9838	51	33
28.7818	28.9838	54	39
28.7818	28.9838	63	47
28.7818	28.9838	75	62
28.8615	28.9838	77	64
28.9413	29.0341	78	66
29.0209	29.1136	80	66
29.1004	29.2591	29	47
29.1004	29.2591	41	62
29.1004	29.193	82	68
29.1798	29.2725	84	70
29.2591	29.6167	34	64
29.2591	29.6167	46	76
29.2591	29.6167	82	70
29.3396	29.6167	80	71
29.4201	29.6167	51	39
29.4201	29.6167	54	47
29.4201	29.6167	63	57
29.4201	29.6167	78	73
29.5006	29.6167	77	75
29.58	29.6719	75	75
29.6587	29.7505	73	73
29.7374	29.8945	29	51
29.7374	29.8945	41	67
29.7374	29.829	72	72
29.816	30.1345	75	73
29.8945	30.2105	33	69
29.8945	30.2105	45	89
29.8945	30.2105	78	77
29.9745	30.2105	74	68
30.0545	30.2105	51	42
30.0545	30.2105	54	50
30.0545	30.2105	63	61
30.0545	30.2105	76	74
30.1345	30.2279	75	66
30.2145	30.3084	72	72
30.295	30.3889	66	68
30.3755	30.536	27	48
30.3755	30.536	39	63
30.3755	30.4692	71	69
30.4558	30.5494	72	70
30.536	30.8482	33	61
30.536	30.8482	45	81
30.536	30.8482	73	72
30.616	30.8482	72	73
30.6961	30.8482	51	39
30.6961	30.8482	54	47
30.6961	30.8482	63	57
30.6961	30.8482	74	74
30.7758	30.8687	75	74
30.8555	30.9482	76	75
30.935	31.0276	75	76
31.0144	31.1728	27	64
31.0144	31.1728	39	82
31.0144	31.1069	76	78
31.0936	31.1728	77	79
31.1728	31.5208	33	78
31.1728	31.5208	45	98
31.1728	31.5208	80	80
31.2536	31.5208	78	81
31.3337	31.5208	51	42
31.3337	31.5208	54	50
31.3337	31.5208	63	61
31.3337	31.5208	83	82
31.4122	31.5208	84	84
31.4907	31.5824	85	85
31.5693	31.6607	84	86
31.6476	31.804	27	57
31.6476	31.804	39	77
31.6476	31.739	86	87
31.7259	31.8174	87	88
31.804	32.1636	33	74
31.804	32.1636	45	93
31.804	31.963	88	90
31.884	32.1636	87	91
31.963	32.1636	51	46
31.963	32.1636	54	55
31.963	32.1636	63	66
31.963	32.1636	88	92
32.041	32.1636	89	92
32.1185	32.2107	92	93
32.1973	32.2921	94	94
32.2783	32.4475	27	62
32.2783	32.4475	39	82
32.2783	32.3759	92	96
32.3617	32.8003	91	97
32.4475	32.8003	32	76
32.4475	32.8003	44	99
32.4475	32.6824	90	95
32.5258	32.8003	101	95
32.6041	32.8003	51	51
32.6041	32.8003	60	61
32.6041	32.8003	66	73
32.6041	32.7597	99	93
32.6824	32.8003	90	91
32.7597	32.8499	99	89
32.837	32.9277	97	87
32.9144	33.0741	27	53
32.9144	33.0741	39	69
32.9144	33.0076	89	85
32.9943	33.0874	97	83
33.0741	33.4266	32	63
33.0741	33.4266	44	82
33.0741	33.2331	96	81
33.1536	33.4266	87	80
33.2331	33.4266	51	43
33.2331	33.4266	60	51
33.2331	33.4266	66	61
33.2331	33.4266	96	78
33.3113	33.4266	94	76
33.3895	33.4805	85	74
33.4675	33.5586	94	73
33.5456	33.7019	32	58
33.5456	33.6367	92	71
33.6236	33.7019	84	69
33.7019	34.0745	44	73
33.7019	34.0745	92	68
33.7822	33.9404	90	67
33.8619	34.0745	53	43
33.8619	34.0745	61	43
33.8619	34.0745	65	52
33.8619	34.0745	82	65
33.9404	34.0745	90	64
34.0189	34.1106	89	62
34.0975	34.1894	80	61
34.1763	34.3339	32	51
34.1763	34.2682	89	60
34.255	34.347	87	59
34.3339	34.6872	44	58
34.3339	34.6872	78	57
34.4129	34.6872	87	56
34.4919	34.6872	53	38
34.4919	34.6872	61	45
34.4919	34.6872	85	55
34.571	34.6872	77	54
34.6502	34.7427	82	53
34.7295	34.8221	80	51
34.8088	34.9678	32	42
34.8088	34.9016	77	51
34.8883	34.9678	73	50
34.9678	35.2233	44	49
34.9678	35.2233	72	48
35.0467	35.2233	73	49
35.1253	35.2233	51	30
35.1253	35.2233	54	30
35.1253	35.2233	60	37
35.1253	35.2233	75	50
35.2037	35.2948	76	51
35.2818	35.3727	77	52
35.3597	35.4504	78	53
35.4374	35.5924	32	42
35.4374	35.5278	80	53
35.5149	35.8345	81	55
35.5924	35.8345	44	51
35.5924	35.8345	79	54
35.6717	35.8345	80	53
35.7509	35.8345	52	24
35.7509	35.8345	61	38
35.7509	35.8409	75	53
35.8281	35.9182	76	51
35.9053	35.9958	68	51
35.9828	36.0734	76	50
36.0604	36.2163	32	45
36.0604	36.1513	75	48
36.1383	36.2163	73	47
36.2163	36.4516	44	49
36.2163	36.4516	72	45
36.295	36.4516	73	47
36.3734	36.4516	51	30
36.3734	36.4516	54	30
36.3734	36.4516	60	37
36.3734	36.4645	75	48
36.4516	36.5424	76	50
36.5295	36.6201	77	51
36.6071	36.6975	78	52
36.6846	36.8393	44	42
36.6846	36.7748	80	53
36.7619	37.0722	81	53
36.8393	37.0722	49	51
36.8393	37.0722	79	55
36.9188	37.0722	80	53
36.9983	37.0754	52	24
36.9983	37.0754	61	38
36.9983	37.0883	75	53
37.0754	37.1658	76	52
37.1528	37.2435	68	51
37.2305	37.3215	76	51
37.3085	37.4653	43	45
37.3085	37.3998	73	50
37.3867	37.4653	71	48
37.4653	37.7263	42	49
37.4653	37.7263	70	47
37.5438	37.7263	71	48
37.6222	37.7263	54	30
37.6222	37.7263	58	30
37.6222	37.7263	64	37
37.6222	37.7263	73	50
37.7003	37.7911	74	51
37.7782	37.8688	75	51
37.8559	37.9463	76	53
37.9334	38.0877	30	42
37.9334	38.0235	78	53
38.0106	38.3395	79	54
38.0877	38.3395	42	51
38.0877	38.3395	77	55
38.1677	38.3395	78	54
38.2477	38.3395	54	24
38.2477	38.3395	59	24
38.2477	38.3395	62	38
38.2477	38.3395	75	53
38.3247	38.4148	76	53
38.4019	38.4923	73	52
38.4793	38.5701	74	51
38.5571	38.7135	41	45
38.5571	38.6482	71	50
38.6352	38.7135	69	49
38.7135	38.9767	40	49
38.7135	38.9767	68	48
38.7921	38.9767	69	49
38.8712	38.9767	52	30
38.8712	38.9767	56	30
38.8712	38.9767	62	37
38.8712	38.9767	71	50
38.9503	39.0425	72	51
39.0293	39.1212	73	52
39.1081	39.1997	74	53
39.1866	39.3432	28	42
39.1866	39.278	76	53
39.265	39.5963	77	55
39.3432	39.5963	40	51
39.3432	39.5963	75	56
39.4232	39.5963	76	53
39.5032	39.5963	52	24
39.5032	39.5963	57	24
39.5032	39.5963	60	38
39.5032	39.5963	73	54
39.5813	39.6726	74	52
39.6596	39.7512	71	53
39.7381	39.8299	72	51
39.8168	39.9748	28	38
39.8168	39.9748	40	45
39.8168	39.9089	71	51
39.8957	39.9748	69	50
39.9748	40.1832	29	48
39.9748	40.1832	41	57
39.9748	40.1832	68	59
40.0581	40.1832	69	57
40.1415	40.3368	73	63
40.2249	40.6502	48	41
40.2249	40.3368	72	58
40.2666	40.594	53	41
40.3082	40.6502	63	49
40.3082	40.4858	70	61
40.3899	40.4858	69	59
40.4715	40.6502	78	63
40.5532	40.9854	46	44
40.5532	40.6502	77	61
40.594	40.9854	53	44
40.6348	40.9854	61	52
40.6348	40.8256	75	61
40.715	40.8256	73	63
40.8007	40.9854	84	68
40.8825	41.2881	51	40
40.8825	40.9854	82	66
40.9225	41.2881	58	40
40.9625	41.2881	66	47
40.9625	41.2881	80	65
41.0435	41.2881	78	64
41.1245	41.2881	77	63
41.2063	41.611	44	48
41.2063	41.3017	75	63
41.2472	41.611	54	48
41.2881	41.611	60	57
41.2881	41.477	73	63
41.3696	41.477	72	57
41.4552	41.611	82	61
41.5368	41.8995	49	41
41.5368	41.6318	80	60
41.5776	41.9553	56	41
41.6185	41.9553	65	49
41.6185	41.9553	78	59
41.6982	41.9553	77	58
41.778	41.9553	75	57
41.859	42.2875	42	44
41.859	41.9553	73	61
41.8995	42.2875	49	44
41.94	42.2875	58	52
41.94	42.1165	72	61
42.0197	42.1165	70	58
42.1026	42.2875	80	62
42.182	42.5798	48	40
42.182	42.2875	78	61
42.2216	42.5798	54	40
42.2611	42.5798	63	47
42.2611	42.5798	77	60
42.3404	42.5798	75	59
42.42	42.5798	73	58
42.4998	42.5932	72	57
42.5798	42.9	49	40
42.5798	42.9	53	40
42.5798	42.9	58	40
42.5798	42.9	61	47
42.5798	42.6733	70	64
42.6599	42.7534	69	62
42.7401	42.8335	68	59
42.8202	42.9	67	57
42.9	43.2192	51	40
42.9	43.2192	54	40
42.9	43.2192	58	40
42.9	43.2192	60	47
42.9	42.9926	68	64
42.9793	43.0723	67	61
43.0589	43.1523	66	58
43.1389	43.2192	65	56
43.2192	43.3117	67	63
43.2985	43.3914	66	60
43.3781	43.4714	65	58
43.4581	43.5383	64	55
43.5383	43.6174	54	53
43.5383	43.6306	66	63
43.6174	43.6968	53	51
43.6174	43.7101	65	60
43.6968	43.7766	52	48
43.6968	43.7899	64	57
43.7766	43.8562	51	46
43.7766	43.8562	63	55
43.8562	43.9352	53	54
43.8562	43.9485	65	64
43.9352	44.0149	52	52
43.9352	44.0282	64	62
44.0149	44.095	51	49
44.0149	44.1085	63	58
44.095	44.1758	50	47
44.095	44.1758	62	56
44.1758	44.2558	52	52
44.1758	44.2692	64	62
44.2558	44.3361	51	49
44.2558	44.3495	63	59
44.3361	44.4167	50	47
44.3361	44.4302	62	56
44.4167	44.4977	49	45
44.4167	44.4977	61	53
44.4977	44.5774	51	50
44.4977	44.5907	63	59
44.5774	44.6575	50	48
44.5774	44.6709	62	57
44.6575	44.7379	49	46
44.6575	44.7514	61	54
44.7379	44.8188	48	43
44.7379	44.8188	60	51
44.8188	44.8991	51	49
44.8188	44.9125	63	58
44.8991	44.9795	49	46
44.8991	44.9929	61	55
44.9795	45.0603	48	44
44.9795	45.0738	60	52
45.0603	45.1417	46	41
45.0603	45.1417	58	50
45.1417	45.3006	39	39
45.1417	45.2345	57	40
45.2212	45.3138	58	42
45.3006	45.3798	45	23
45.3006	45.3798	54	28
45.3006	45.3929	60	42
45.3798	45.4719	61	44
45.4588	45.5506	63	45
45.5375	45.6291	64	46
45.616	45.7726	39	42
45.616	45.7075	65	47
45.6944	45.7858	66	48
45.7726	45.9311	37	54
45.7726	45.8651	64	51
45.8519	45.9442	65	49
45.9311	46.0092	46	21
45.9311	46.0092	53	32
45.9311	46.0222	62	47
46.0092	46.1006	63	46
46.0875	46.1791	60	45
46.166	46.2578	61	44
46.2447	46.4027	37	34
46.2447	46.3368	60	43
46.3236	46.4027	58	41
46.4027	46.5606	39	41
46.4027	46.4949	57	39
46.4817	46.5737	58	41
46.5606	46.6393	45	25
46.5606	46.6393	54	29
46.5606	46.6524	60	42
46.6393	46.7309	61	44
46.7178	46.8093	63	45
46.7963	46.8876	64	47
46.8746	47.0307	39	42
46.8746	46.9657	65	49
46.9527	47.044	66	51
47.0307	47.1894	37	56
47.0307	47.124	64	51
47.1107	47.2024	65	50
47.1894	47.2675	46	28
47.1894	47.2675	53	33
47.1894	47.2805	62	48
47.2675	47.3588	63	48
47.3458	47.4373	60	46
47.4242	47.516	61	45
47.5028	47.6601	37	36
47.5028	47.5948	60	45
47.5816	47.6601	58	43
47.6601	47.8166	39	39
47.6601	47.7515	60	39
47.7385	47.8296	61	41
47.8166	47.8945	46	25
47.8166	47.8945	54	29
47.8166	47.9075	63	42
47.8945	47.9852	65	44
47.9722	48.0626	66	45
48.0497	48.1402	72	47
48.127	48.285	39	41
48.127	48.2195	70	45
48.2062	48.2984	60	47
48.285	48.4434	41	49
48.285	48.3784	58	39
48.365	48.4563	60	41
48.4434	48.5208	49	26
48.4434	48.5208	58	30
48.4434	48.5337	61	43
48.5208	48.6108	63	45
48.598	48.6876	65	47
48.6748	48.7649	72	49
48.7516	48.911	29	38
48.7516	48.8446	70	47
48.8313	48.911	66	48
48.911	49.0678	41	39
48.911	49.0026	64	39
48.9895	49.0808	65	41
49.0678	49.1458	51	25
49.0678	49.1458	57	29
49.0678	49.1588	66	42
49.1458	49.2365	65	44
49.2236	49.314	70	47
49.3012	49.3916	69	45
49.3784	49.5365	41	40
49.3784	49.4709	78	54
49.4577	49.5498	77	52
49.5365	49.6945	46	57
49.5365	49.6298	75	56
49.6165	49.7073	73	53
49.6945	49.7714	53	28
49.6945	49.7714	61	33
49.6945	49.7842	70	51
49.7714	49.8615	65	47
49.8486	49.9392	63	47
49.9262	50.0175	61	45
50.0042	50.1631	37	36
50.0042	50.0971	58	44
50.0838	50.1631	53	42
50.1631	50.3197	39	43
50.1631	50.2545	57	40
50.2415	50.3327	58	42
50.3197	50.3977	45	23
50.3197	50.3977	54	28
50.3197	50.4107	60	42
50.3977	50.4886	61	44
50.4757	50.5663	63	45
50.5534	50.6439	64	46
50.631	50.7857	39	42
50.631	50.7213	65	47
50.7084	50.7989	66	48
50.7857	50.9442	37	56
50.7857	50.8781	64	51
50.8649	50.9572	65	49
50.9442	51.0218	46	21
50.9442	51.0218	53	32
50.9442	51.0347	62	47
51.0218	51.1122	63	46
51.0992	51.19	60	45
51.177	51.2681	61	44
51.255	51.4123	37	34
51.255	51.3464	60	43
51.3334	51.4123	58	41
51.4123	51.5694	39	48
51.4123	51.504	57	47
51.4909	51.5824	58	49
51.5694	51.6477	45	30
51.5694	51.6477	54	35
51.5694	51.6607	60	50
51.6477	51.7388	61	52
51.7258	51.8168	63	54
51.8038	51.8945	64	56
51.8816	52.0368	39	43
51.8816	51.9721	65	58
51.9592	52.0501	66	60
52.0368	52.1952	37	63
52.0368	52.1301	64	60
52.1168	52.2081	65	59
52.1952	52.2726	46	33
52.1952	52.2726	53	39
52.1952	52.2855	62	57
52.2726	52.3631	63	57
52.3501	52.4408	60	55
52.4278	52.5187	61	53
52.5057	52.6625	37	43
52.5057	52.5969	60	53
52.5837	52.6625	58	51
52.6625	52.977	39	48
52.6625	52.977	47	48
52.6625	52.977	54	57
52.6625	52.9731	59	52
52.7413	52.9731	61	53
52.82	52.9731	63	55
52.8986	52.9901	64	56
52.977	53.2907	66	58
53.0554	53.2907	68	60
53.1339	53.2907	70	62
53.2123	53.3041	71	63
53.2907	53.6112	51	52
53.2907	53.6112	54	52
53.2907	53.6112	59	52
53.2907	53.6112	66	61
53.2907	53.6072	73	66
53.3708	53.6072	75	68
53.4509	53.6072	76	70
53.5311	53.6245	78	72
53.6112	53.9316	49	46
53.6112	53.9316	54	46
53.6112	53.9316	58	46
53.6112	53.9316	64	55
53.6112	53.9316	80	73
53.6913	53.9316	82	76
53.7714	53.9316	83	77
53.8515	53.945	85	80
53.9316	54.893	47	55
53.9316	54.893	54	55
53.9316	54.6527	63	65
53.9316	54.893	88	81
54.0117	54.893	87	78
54.0919	54.893	83	78
54.172	54.893	80	77
54.2521	54.893	78	74
54.3322	54.893	75	72
54.4123	54.893	71	72
54.4925	54.893	68	70
54.5726	54.893	66	68
54.6527	54.893	63	64
54.7328	54.893	59	61
54.8129	54.9064	56	61
54.893	54.9865	54	59
54.9732	55.0666	51	59
55.0533	55.1467	47	57
55.1334	55.2129	44	56
55.2129	55.3058	28	52
55.2129	55.3058	40	62
55.2925	55.3855	29	52
55.2925	55.3855	41	63
55.3722	55.4652	34	52
55.3722	55.4652	46	64
55.4519	55.5447	33	53
55.4519	55.5447	45	64
55.5315	55.6242	30	53
55.5315	55.6242	42	65
55.611	55.7037	29	53
55.611	55.7037	41	65
55.6904	55.7832	37	54
55.6904	55.7832	49	65
55.7699	55.8625	36	54
55.7699	55.8625	48	65
55.8492	55.9417	34	54
55.8492	55.9417	46	67
55.9285	56.021	33	55
55.9285	56.021	45	67
56.0078	56.1002	42	55
56.0078	56.1002	54	69
56.087	56.1792	41	56
56.087	56.1792	53	70
56.1661	56.2583	37	56
56.1661	56.2583	49	70
56.2451	56.3373	36	56
56.2451	56.3373	48	70
56.3242	56.4163	46	56
56.3242	56.4163	58	71
56.4031	56.495	45	56
56.4031	56.495	57	71
56.482	56.5734	42	56
56.482	56.5734	54	71
56.5604	56.6518	41	57
56.5604	56.6518	53	72
56.6388	56.7301	49	57
56.6388	56.7301	61	72
56.7171	56.8083	48	57
56.7171	56.8083	60	72
56.7953	56.8865	46	58
56.7953	56.8865	58	73
56.8735	56.9645	45	58
56.8735	56.9645	57	73
56.9515	57.0424	54	58
56.9515	57.0424	66	73
57.0294	57.1202	53	59
57.0294	57.1202	65	74
57.1073	57.198	49	59
57.1073	57.198	61	74
57.185	57.2757	48	60
57.185	57.2757	60	75
57.2628	57.3533	58	60
57.2628	57.3533	70	75
57.3403	57.4308	57	60
57.3403	57.4308	69	75
57.4179	57.5082	54	60
57.4179	57.5082	66	76
57.4953	57.5855	53	60
57.4953	57.5855	65	76
57.5727	57.6628	61	60
57.5727	57.6628	73	76
57.6499	57.7271	60	61
57.6499	57.7271	72	77
57.7271	57.8171	58	61
57.7271	57.8171	70	77
57.8042	57.894	57	61
57.8042	57.894	69	77
57.8812	57.971	66	62
57.8812	57.971	78	78
57.9581	58.0478	65	62
57.9581	58.0478	77	78
58.035	58.1245	61	63
58.035	58.1245	73	79
58.1117	58.2012	60	63
58.1117	58.2012	72	79
58.1884	58.2777	70	63
58.1884	58.2777	82	79
58.2649	58.3542	69	64
58.2649	58.3542	81	80
58.3415	58.4306	66	64
58.3415	58.4306	78	80
58.4179	58.5069	65	64
58.4179	58.5069	77	80
58.4942	58.5832	73	64
58.4942	58.5832	85	81
58.5705	58.6593	72	64
58.5705	58.6593	84	81
58.6466	58.7354	70	64
58.6466	58.7354	82	81
58.7227	58.8113	69	65
58.7227	58.8113	81	82
58.7987	58.8872	78	65
58.7987	58.8872	90	82
58.8746	58.9631	77	65
58.8746	58.9631	89	82
58.9504	59.039	73	66
58.9504	59.039	85	83
59.0263	59.1152	72	66
59.0263	59.1152	84	83
59.1024	59.1918	82	67
59.1024	59.1918	94	84
59.179	59.2688	81	67
59.179	59.2688	93	84
59.256	59.3462	78	67
59.256	59.3462	90	84
59.3333	59.424	77	68
59.3333	59.424	89	85
59.411	59.5022	85	68
59.411	59.5022	97	85
59.4891	59.5818	84	68
59.4891	59.5818	96	85
59.5677	59.6662	89	74
59.5677	59.6662	101	93
59.9054	60.0461	41	64
59.9054	60.0461	53	75
59.9054	60.0461	63	85
59.9054	60.0461	69	85
59.9054	60.0461	77	100
60.1627	60.7369	34	91
60.2605	60.7369	46	72
60.2605	60.7369	53	72
60.2605	60.7369	61	86
60.2605	60.7369	70	100
60.2605	60.7369	82	113
