OnsetTime	OffsetTime	MidiPitch	Velocity
0.626135	0.804194	61	77
0.804194	2.92836	61	85
1.96578	2.14384	37	59
1.96578	2.14384	44	59
1.96578	2.14384	53	59
1.96578	2.14384	56	70
2.14384	2.92836	37	67
2.14384	2.92836	44	67
2.14384	2.92836	53	67
2.14384	2.92836	56	79
2.92836	3.23102	61	73
3.10155	3.38549	59	70
3.23102	3.38549	61	68
3.38549	5.66648	59	77
4.54707	4.72513	32	59
4.54707	4.72513	44	59
4.54707	4.72513	50	59
4.54707	4.72513	54	70
4.72513	5.61778	32	68
4.72513	5.61778	44	68
4.72513	5.61778	50	68
4.72513	5.61778	54	80
5.66648	6.14229	61	64
5.83342	6.35326	64	70
5.98596	6.35326	62	66
6.14229	6.35326	61	66
6.35326	8.38333	61	79
7.41358	7.59881	37	59
7.41358	7.59881	44	59
7.41358	7.59881	53	59
7.41358	7.59881	56	70
7.59881	8.38333	37	67
7.59881	8.38333	44	67
7.59881	8.38333	53	67
7.59881	8.38333	56	79
8.38333	8.65861	61	73
8.51032	8.83422	59	70
8.65861	8.83422	61	68
8.83422	10.9416	59	81
9.84748	10.0417	32	53
9.84748	10.0417	44	53
9.84748	10.0417	50	53
9.84748	10.0417	54	63
10.0417	10.8908	32	60
10.0417	10.8908	44	60
10.0417	10.8908	50	60
10.0417	10.8908	54	71
10.9416	11.4693	57	62
11.1383	11.658	56	67
11.2924	11.8644	59	59
11.4693	11.8644	57	63
11.658	11.8644	56	66
11.8644	14.4895	56	75
13.0892	13.2683	37	50
13.0892	13.2683	44	50
13.0892	13.2683	49	50
13.0892	13.2683	53	59
13.2683	14.3703	37	57
13.2683	14.3703	44	57
13.2683	14.3703	49	57
13.2683	14.3703	53	68
14.4895	14.7212	56	46
14.7212	17.2241	56	54
15.9982	16.2603	40	39
15.9982	16.2603	44	39
15.9982	16.2603	49	39
15.9982	16.2603	52	46
16.2603	17.2241	40	43
16.2603	17.2241	44	43
16.2603	17.2241	49	43
16.2603	17.2241	52	51
17.191	17.3562	57	48
17.4096	18.0222	56	47
17.6031	18.31	59	53
17.7842	18.31	57	47
18.0222	18.31	56	44
18.31	23.7441	56	60
19.6242	19.9352	44	36
19.6242	19.9352	49	36
19.6242	19.9352	51	44
19.9352	22.3203	44	43
19.9352	21.7402	49	43
19.9352	21.7402	51	51
21.7402	22.8926	48	36
21.7402	22.8926	51	36
21.7402	22.8926	54	42
22.3203	22.6719	45	50
22.6167	22.9449	44	44
22.8926	23.2101	47	50
23.1541	23.496	45	43
23.4339	23.8001	44	43
23.7441	24.0832	42	52
24.0239	24.3796	40	43
24.3203	24.6828	42	43
24.6167	25.1762	39	43
24.9474	26.2821	45	49
26.2821	27.4458	44	39
26.4726	28.7806	37	54
27.4458	29.7538	44	43
27.6197	29.9267	49	52
28.7806	31.0929	37	52
29.7538	32.0455	44	48
29.9267	32.2225	49	54
30.8895	30.9912	56	48
30.9912	32.2225	56	48
31.0929	33.2581	37	52
31.0929	32.2225	61	58
32.0455	33.2581	44	48
32.2225	33.2581	49	54
32.2225	33.2581	52	48
32.2225	33.2581	56	48
32.2225	33.7129	61	60
33.2581	35.1502	37	52
33.4812	34.115	60	48
33.7129	34.115	61	58
33.9598	34.1479	45	48
33.9598	34.115	63	62
34.0539	35.1808	54	52
34.1009	34.399	57	52
34.1479	35.1808	49	54
34.1479	34.6501	64	65
34.399	35.1808	57	55
34.6501	35.1808	64	61
34.9012	35.1808	63	48
35.1502	37.1477	37	52
35.1502	35.9364	61	62
35.9364	37.18	44	48
35.9364	36.1093	61	54
36.0228	37.18	63	54
36.1093	37.18	49	54
36.1093	37.18	52	47
36.1093	37.18	56	47
36.1093	37.1477	61	59
36.9664	37.18	60	55
37.1477	39.2047	37	52
37.1477	39.2047	61	62
37.9774	39.2047	44	48
38.1533	39.2047	49	54
38.1533	39.2047	52	47
38.1533	39.2047	56	47
38.983	39.2047	63	60
39.1676	41.3142	35	53
39.1676	40.2972	64	63
40.1202	41.3142	47	48
40.2972	41.3142	52	54
40.2972	41.3142	56	48
40.2972	41.3142	59	48
40.2972	41.7622	64	66
41.3142	43.1824	35	53
41.534	42.1613	63	52
41.7622	42.1613	64	63
42.0061	42.1942	47	48
42.0061	42.1942	66	68
42.1942	43.1824	51	53
42.1942	43.1824	57	52
42.1942	43.1824	59	52
42.1942	42.6666	68	71
42.4304	43.1824	63	60
42.6666	43.1824	68	67
42.9028	43.1824	66	52
43.1518	45.1375	40	55
43.1518	43.938	64	68
43.938	45.1647	47	48
43.938	44.1109	64	56
44.0245	45.1647	66	56
44.1109	45.1647	52	58
44.1109	45.1647	56	47
44.1109	45.1647	59	47
44.1109	45.1375	64	64
44.9562	45.1647	63	60
45.1375	47.0299	40	52
45.1375	46.0139	64	68
45.8379	47.0299	47	48
45.9259	47.1263	32	54
46.0139	47.1263	48	54
46.0139	47.0299	54	37
46.0139	47.0151	56	37
46.0139	47.0299	60	47
46.0139	47.0299	64	57
46.0139	47.0985	68	67
46.8436	47.0299	63	60
47.0151	47.0707	56	35
47.0429	47.0985	61	37
47.0707	47.1263	64	40
47.0985	47.1602	68	42
47.1263	49.0152	37	62
47.1263	48.1179	73	77
47.9409	49.0152	44	52
48.1179	49.0152	49	50
48.1179	49.0152	52	59
48.1179	49.4563	61	55
48.1179	49.0152	64	55
48.1179	49.0152	68	55
48.1179	49.4563	73	69
49.0152	50.8353	30	59
49.2264	49.8293	60	48
49.2264	49.8293	72	57
49.4563	49.8293	61	58
49.4563	49.8293	73	69
49.6663	49.8638	49	58
49.6663	49.8638	63	62
49.6663	49.8638	75	73
49.8638	50.8353	54	53
49.8638	50.8353	57	63
49.8638	50.3111	64	65
49.8638	50.3111	76	77
50.0783	50.8353	69	67
50.3111	50.8353	64	62
50.3111	50.8353	76	74
50.5287	50.8353	63	49
50.5287	50.8353	75	58
50.8067	52.673	25	64
50.8067	51.7145	61	61
50.8067	51.5416	73	72
51.5416	52.673	44	57
51.5416	51.7145	73	64
51.628	52.673	75	64
51.7145	52.673	49	57
51.7145	52.673	52	68
51.7145	52.6458	61	61
51.7145	52.673	68	61
51.7145	52.6458	73	72
52.4645	52.673	60	52
52.4645	52.673	72	62
52.6458	54.3519	37	70
52.6458	54.3519	61	59
52.6458	54.3519	73	70
53.3463	54.3519	44	59
53.5222	54.3519	49	63
53.5222	54.3519	56	74
53.5222	54.3519	64	56
53.5222	54.3519	68	67
54.3519	54.5365	38	50
54.3519	54.5365	50	59
54.3519	54.5365	64	62
54.3519	54.5365	68	62
54.3519	54.5365	71	62
54.3519	54.5365	76	74
54.5365	56.6215	39	54
54.5365	55.3777	51	64
54.5365	55.5547	68	71
54.5365	56.6215	71	71
54.5365	56.6215	80	84
55.3777	56.6215	51	49
55.3777	56.6215	56	58
55.5547	57.151	59	51
55.5547	57.151	63	61
55.5547	56.6215	68	86
56.6215	56.798	68	60
56.798	56.9745	67	54
56.9745	57.151	68	54
57.151	59.0726	39	54
57.151	58.1416	51	64
57.151	57.3496	67	53
57.2521	59.0726	64	55
57.3496	59.0726	67	57
57.4443	59.0726	68	59
57.5364	59.0726	70	61
57.6258	59.0726	71	63
57.7132	59.0726	73	64
57.8	59.0726	75	66
57.8863	59.0726	76	68
57.9719	58.9714	79	70
58.057	58.887	80	72
58.1416	59.0726	51	49
58.1416	59.0726	58	58
58.1416	59.0726	82	74
58.2256	58.7204	83	76
58.3092	58.6382	85	81
58.3921	58.5566	87	84
58.4746	59.6589	61	61
58.4746	59.6589	63	74
58.4746	59.0726	88	87
58.5566	59.0726	87	83
58.6382	59.0726	85	81
58.7204	59.0618	83	80
58.8034	59.0726	81	78
58.887	59.0726	80	77
58.9714	59.0726	79	75
59.0618	59.6589	83	80
59.1431	59.6589	81	78
59.2254	59.6589	80	75
59.3088	59.6589	79	73
59.3934	59.6589	76	70
59.4792	59.6589	75	68
59.5659	59.6589	73	65
59.6589	60.2251	76	71
59.743	60.2251	75	67
59.8283	60.2251	73	63
59.9146	60.2251	71	58
60.0021	60.2251	69	54
60.0904	60.2251	68	50
60.1873	60.2782	67	46
60.2782	60.3691	68	42
60.3691	60.46	67	46
60.46	60.5509	64	34
60.5509	62.9928	67	33
60.6693	60.8785	71	38
60.8785	60.9812	71	34
60.9812	61.0826	71	30
61.0826	61.1829	71	34
61.1829	61.2821	71	28
61.2821	62.9928	71	36
62.8025	62.9928	70	30
62.9612	64.9715	32	28
62.9612	63.772	44	34
62.9612	63.772	68	42
63.772	64.9715	44	24
63.772	63.945	51	29
63.772	63.945	68	35
63.8585	65.0079	70	35
63.945	65.0079	51	30
63.945	65.0079	56	36
63.945	65.0079	59	28
63.945	65.0079	63	28
63.945	64.9715	68	39
64.7902	65.0079	67	37
64.9715	67.183	32	23
64.9715	65.909	44	28
64.9715	67.183	68	35
65.909	67.183	44	20
65.909	66.1509	51	24
66.1509	67.4366	51	25
66.1509	67.4366	56	30
66.1509	67.183	59	23
66.1509	67.183	63	23
67.4366	67.5878	68	41
67.5878	67.8046	68	41
67.8046	69.9119	40	35
67.8046	69.9119	52	42
67.8046	68.8899	76	45
67.8046	68.9342	80	54
68.7572	69.9654	56	27
68.7572	68.9342	59	27
68.7572	68.9342	64	33
68.8457	69.9654	71	48
68.8899	70.3913	76	48
68.9342	69.9654	59	33
68.9342	69.9654	64	33
68.9342	69.9654	68	39
68.9342	70.3913	80	57
69.9119	71.7931	40	35
69.9119	71.7931	52	42
70.1413	71.7931	75	40
70.1413	70.619	78	48
70.3913	71.0853	76	43
70.3913	70.861	80	51
70.619	71.7931	56	27
70.619	70.861	59	27
70.619	70.861	64	33
70.619	71.3253	78	45
70.619	71.3253	81	53
70.861	71.7931	59	33
70.861	71.7931	64	33
70.861	71.7931	68	39
70.861	71.5492	80	47
70.861	71.7931	83	56
71.0853	71.7931	71	42
71.0853	71.5492	76	50
71.3253	71.7931	78	46
71.3253	71.7931	81	55
71.5492	71.7931	76	41
71.5492	71.7931	80	49
71.7931	73.8106	35	35
71.7931	73.7768	47	42
71.7931	72.7684	75	45
71.7931	72.5914	78	54
72.5914	73.8106	54	27
72.5914	72.7684	59	27
72.5914	72.7684	63	33
72.5914	72.6504	78	48
72.6504	72.7684	78	44
72.7094	73.8106	80	44
72.7684	73.8106	59	33
72.7684	73.8106	63	33
72.7684	73.8106	66	39
72.7684	73.7768	75	48
72.7684	73.7768	78	57
73.6508	73.8106	74	46
73.6508	73.8106	77	51
73.7768	74.8495	47	42
73.7768	74.8214	75	45
73.7768	74.8495	78	54
74.6444	74.8495	54	29
74.6444	74.8495	59	29
74.6444	74.8495	63	36
74.8214	75.8745	48	52
74.8214	75.6646	68	48
74.8214	75.8745	75	48
74.8214	75.8745	80	61
75.6646	75.8745	56	27
75.6646	75.8745	63	27
75.6646	75.8745	68	33
75.8598	77.9078	37	35
75.8598	77.9078	49	42
75.8598	76.8771	73	45
75.8598	76.9214	76	54
76.7444	77.8535	52	27
76.7444	76.9214	56	27
76.7444	76.9214	61	33
76.8329	77.9078	68	48
76.8771	78.3361	73	48
76.9214	77.9078	56	33
76.9214	77.9078	61	33
76.9214	77.9078	64	39
76.9214	78.3361	76	57
77.8535	79.7367	40	35
77.8535	79.7367	52	42
78.0861	79.7367	72	40
78.0861	78.5655	75	48
78.3361	78.6865	73	43
78.3361	78.6865	76	51
78.5655	79.7367	56	27
78.5655	78.8075	61	27
78.5655	78.8075	64	33
78.5655	78.747	75	45
78.5655	78.747	78	53
78.6865	79.1501	73	40
78.6865	78.8075	76	47
78.747	79.2701	75	40
78.747	79.2701	78	47
78.8075	79.7367	61	33
78.8075	79.7367	64	33
78.8075	79.1501	68	39
78.8075	79.4928	76	47
78.8075	79.7367	80	56
79.1501	79.7367	68	42
79.1501	79.4928	73	50
79.2701	79.7367	75	46
79.2701	79.7367	78	55
79.4928	79.7367	73	41
79.4928	79.7367	76	49
79.7367	81.7478	44	42
79.7367	80.7394	72	45
79.7367	80.5624	75	54
80.5624	81.7849	51	27
80.5624	80.7394	56	27
80.5624	80.7394	60	33
80.5624	80.6214	75	48
80.6214	80.7394	75	44
80.6804	81.7849	76	44
80.7394	81.7849	56	33
80.7394	81.7849	60	33
80.7394	81.7849	63	39
80.7394	81.7478	72	48
80.7394	81.7478	75	57
81.6218	81.7849	70	46
81.6218	81.7849	73	51
81.7478	82.9482	44	42
81.7478	82.9482	72	45
81.7478	82.9482	75	54
82.7004	82.9482	56	27
82.7004	82.9151	60	27
82.7004	82.9151	63	33
82.9151	84.1125	60	33
82.9151	84.1125	63	33
82.9151	84.1125	68	33
83.7112	83.87	75	42
83.87	84.1125	75	42
83.9703	84.8121	80	42
84.1125	84.7066	32	42
84.1125	84.7066	75	54
84.6898	84.7509	51	31
84.6898	85.4825	68	44
84.7509	85.4825	56	31
84.7509	84.8733	72	35
84.8121	85.4825	63	31
84.8121	85.5096	80	35
84.8733	86.0958	60	42
84.8733	85.4825	72	52
85.4012	85.4825	75	44
85.4554	85.5096	73	36
85.5096	86.1996	80	36
85.5638	86.0958	44	42
85.5638	86.0958	75	54
86.0918	86.1457	56	29
86.0918	86.8636	78	46
86.1457	86.8636	60	29
86.1457	86.2535	76	36
86.1996	86.8636	68	29
86.1996	86.891	80	36
86.2535	87.5004	63	42
86.2535	86.8636	76	53
86.7814	87.5004	75	49
86.8362	86.891	73	38
86.891	87.5974	80	37
86.9458	87.5004	32	42
86.9458	87.5004	73	54
87.4866	87.542	52	30
87.4866	88.2516	68	46
87.542	88.2516	56	30
87.542	87.6528	73	37
87.5974	88.2516	64	30
87.5974	88.2898	80	37
87.6528	88.8886	61	42
87.6528	88.2516	73	53
88.1807	88.8886	75	49
88.2353	88.2898	76	37
88.2898	88.8722	80	37
88.3443	88.8886	44	42
88.3443	88.8886	76	54
88.8722	88.927	56	30
88.8722	88.9818	80	46
88.927	89.6248	61	30
88.927	89.0366	78	36
88.9818	89.6248	68	30
88.9818	89.6741	80	36
89.0366	90.2785	64	42
89.0366	89.6248	78	53
89.5645	90.2785	76	49
89.6193	89.6741	75	38
89.6741	90.0203	80	38
89.7289	90.2785	32	42
89.7289	90.2785	75	54
89.9635	90.0751	68	38
90.0203	90.3604	80	38
90.0751	91.0233	68	46
90.247	90.3043	51	29
90.3043	91.0233	56	29
90.3043	90.4152	72	38
90.3604	91.0233	63	29
90.3604	90.7068	80	38
90.4152	91.6489	60	42
90.4152	91.0233	72	53
90.6498	90.7622	73	38
90.7068	91.0535	80	38
90.7622	91.6489	73	49
90.9969	91.0535	75	37
91.0535	91.3949	80	37
91.108	91.6489	44	42
91.108	91.6489	75	54
91.3385	91.45	78	36
91.3949	91.7368	80	36
91.45	92.4994	78	46
91.6229	91.6806	56	30
91.6806	92.4994	60	30
91.6806	91.7916	76	36
91.7368	92.4994	68	30
91.7368	92.0847	80	40
91.7916	92.4994	63	42
91.7916	92.4994	76	53
92.0276	92.1398	75	38
92.0847	92.4936	80	38
92.1398	92.4994	75	49
92.4936	93.8711	32	42
92.4936	93.1834	73	54
92.4936	92.5815	80	44
92.5815	92.7558	81	39
92.6688	92.8422	80	44
92.7558	92.9282	81	39
92.8422	93.0137	80	44
92.9282	93.0988	81	39
93.0137	93.8711	52	30
93.0137	93.1834	80	44
93.0704	93.8711	56	30
93.0988	93.2655	81	39
93.127	93.8711	64	30
93.1834	93.8711	61	42
93.1834	93.8711	73	53
93.1834	93.3483	80	44
93.2655	93.4321	81	39
93.3483	93.514	80	44
93.4321	93.5973	81	39
93.514	93.6782	80	44
93.5973	93.7596	81	39
93.6782	93.8711	75	49
93.6782	93.8424	80	44
93.7596	93.8711	81	39
93.8424	95.2173	44	42
93.8424	95.2173	76	50
93.8424	94.0068	80	44
93.9237	94.0913	81	39
94.0068	94.1728	80	44
94.0913	94.2548	81	39
94.1728	94.3376	80	60
94.2548	94.4201	81	39
94.3376	95.2173	56	30
94.3376	94.5029	80	44
94.3924	95.2173	61	30
94.4201	94.5843	81	39
94.4478	95.2173	68	30
94.5029	95.2173	64	42
94.5029	94.6662	80	44
94.5029	95.2173	85	65
94.5843	94.7492	81	39
94.6662	94.8307	80	44
94.7492	94.9145	81	39
94.8307	94.9971	80	44
94.8307	95.2173	88	66
94.9145	95.084	81	39
94.9971	95.1717	80	44
95.084	95.2173	81	39
95.1717	96.5111	32	46
95.1717	95.2399	80	59
95.2399	95.3745	87	42
95.3076	95.6775	92	51
95.3745	96.0156	87	45
95.4408	95.5065	80	39
95.5065	95.592	80	58
95.592	95.763	80	40
95.6775	96.5111	56	31
95.6775	95.932	92	51
95.7345	96.5111	60	31
95.763	96.4294	80	40
95.7915	96.5111	68	31
95.8484	96.5111	63	46
95.8484	96.0992	84	65
95.932	96.2657	92	52
96.0156	96.5111	87	41
96.0992	96.5111	84	41
96.1827	96.3479	85	61
96.2657	96.5111	92	49
96.3479	96.5111	85	39
96.4294	96.5111	80	39
96.5111	97.8967	44	46
96.5111	96.6773	87	63
96.5942	96.9266	92	51
96.6773	97.5159	87	41
96.7604	97.0928	80	41
96.8435	97.0097	90	58
96.9266	97.2609	92	48
97.0097	97.8967	63	33
97.0097	97.8967	90	41
97.0651	97.8967	72	33
97.0928	97.4309	80	41
97.1205	97.8967	75	33
97.1759	97.8967	68	46
97.1759	97.3459	88	63
97.2609	97.5991	92	49
97.3459	97.8967	88	40
97.4309	97.7653	80	40
97.5159	97.6822	87	60
97.5991	97.8967	92	48
97.6822	97.8967	87	41
97.7653	97.8504	80	41
97.8504	99.1936	32	46
97.8504	97.9193	80	65
97.9193	98.0536	85	42
97.9868	98.3555	92	51
98.0536	98.5265	85	45
98.1195	98.1846	80	39
98.1846	98.27	80	58
98.27	98.441	80	40
98.3555	99.1936	56	31
98.3555	98.6105	92	51
98.4125	99.1936	61	31
98.441	98.7786	80	40
98.4695	99.1936	68	31
98.5265	99.1936	64	46
98.5265	98.6946	85	65
98.6105	98.9467	92	52
98.6946	99.1936	85	41
98.7786	99.112	80	41
98.8627	99.0298	87	63
98.9467	99.1936	92	49
99.0298	99.1936	87	39
99.112	99.1936	80	39
99.1936	100.596	44	46
99.1936	99.3598	88	64
99.2767	99.526	92	51
99.3598	100.198	88	41
99.4429	99.6091	80	41
99.526	99.6922	92	53
99.6091	99.7753	80	44
99.6922	100.596	64	33
99.6922	99.9435	92	51
99.7476	100.596	73	33
99.7753	100.113	80	41
99.803	100.596	76	33
99.8585	100.596	68	46
99.8585	100.028	90	63
99.9435	100.286	92	49
100.028	100.596	90	40
100.113	100.462	80	40
100.198	100.374	88	63
100.286	100.596	92	48
100.374	100.596	88	41
100.462	100.596	80	41
100.55	101.89	32	46
100.55	100.619	87	64
100.619	100.753	92	46
100.686	101.022	93	51
100.753	100.954	92	45
100.819	101.89	87	39
100.885	101.159	80	63
100.954	101.09	92	46
101.022	101.361	93	52
101.056	101.89	56	31
101.09	101.294	92	46
101.113	101.89	60	31
101.159	101.495	80	40
101.17	101.89	68	31
101.227	101.89	63	47
101.227	101.89	84	60
101.294	101.428	92	47
101.361	101.694	93	53
101.428	101.628	92	46
101.495	101.824	80	40
101.561	101.89	85	61
101.628	101.759	92	48
101.694	101.89	93	54
101.759	101.89	92	47
101.824	101.89	80	41
101.89	103.218	44	49
101.89	102.884	87	66
101.958	102.093	92	49
102.026	102.355	93	55
102.093	102.29	92	48
102.159	102.485	80	42
102.225	103.218	90	64
102.29	102.42	92	50
102.355	102.683	93	56
102.387	103.218	63	34
102.42	102.617	92	49
102.441	103.218	72	34
102.485	102.817	80	42
102.496	103.218	75	34
102.55	103.218	68	51
102.55	103.218	88	65
102.617	102.75	92	51
102.683	103.016	93	57
102.75	102.95	92	50
102.817	103.147	80	43
102.884	103.218	87	66
102.95	103.082	92	51
103.016	103.218	93	57
103.082	103.212	92	51
103.147	103.218	80	44
103.212	104.59	32	48
103.212	103.902	85	67
103.212	103.3	92	55
103.3	103.475	93	48
103.388	103.561	92	55
103.475	103.647	93	48
103.561	103.732	92	55
103.647	103.818	93	48
103.732	104.59	56	34
103.732	103.902	92	55
103.789	104.59	61	34
103.818	103.984	93	48
103.846	104.59	68	34
103.902	104.59	64	48
103.902	104.561	85	66
103.902	104.067	92	55
103.984	104.151	93	48
104.067	104.233	92	55
104.151	104.316	93	48
104.233	104.397	92	55
104.316	104.478	93	48
104.397	104.59	84	60
104.397	104.561	92	55
104.478	104.59	93	48
104.561	105.908	44	48
104.561	105.723	85	63
104.561	104.726	92	55
104.642	104.81	93	48
104.726	104.892	92	55
104.81	104.974	93	48
104.892	105.057	92	58
104.974	105.147	93	48
105.057	105.908	64	34
105.057	105.303	92	55
105.115	105.908	73	34
105.147	105.908	93	48
105.181	105.849	76	34
105.24	105.908	68	42
105.24	105.601	88	52
105.303	105.54	92	47
105.36	105.908	100	54
105.42	105.908	99	51
105.48	105.908	97	49
105.54	105.908	92	47
105.601	105.908	88	45
105.661	105.908	87	42
105.723	105.908	85	40
105.786	105.908	80	38
105.849	105.908	76	41
105.908	105.991	44	42
105.908	105.991	75	53
106.073	106.153	51	34
106.153	106.233	76	37
106.233	106.313	54	34
106.233	106.313	78	47
106.393	106.472	60	34
106.472	106.551	80	43
106.551	106.629	63	42
106.551	106.629	81	51
106.708	106.787	68	35
106.787	106.865	80	42
106.865	106.944	63	35
106.865	106.944	83	51
107.023	107.101	68	35
107.101	107.18	81	46
107.18	107.406	44	42
107.18	107.406	80	54
107.351	107.428	51	34
107.428	107.659	68	51
107.505	107.618	54	34
107.505	107.659	80	55
107.659	107.736	60	34
107.736	107.971	70	53
107.813	107.971	63	42
107.813	107.971	80	58
107.967	108.044	68	35
108.044	108.317	72	55
108.121	108.317	63	35
108.121	108.317	80	60
108.275	108.471	68	35
108.366	108.457	73	37
108.411	108.471	75	37
108.457	108.624	44	42
108.457	108.624	73	50
108.613	108.692	52	34
108.692	108.77	72	37
108.77	108.906	56	34
108.77	108.906	73	48
108.928	109.007	61	34
109.007	109.119	75	39
109.046	109.086	76	34
109.066	109.119	78	35
109.086	109.165	64	42
109.086	109.165	76	51
109.243	109.322	68	35
109.322	109.4	75	42
109.4	109.48	64	35
109.4	109.48	76	53
109.56	109.644	68	35
109.644	109.728	78	42
109.728	109.821	44	43
109.728	109.821	79	55
109.885	109.964	52	34
109.964	110.042	80	45
110.042	110.19	56	39
110.042	110.19	81	54
110.198	110.275	61	34
110.275	110.353	80	48
110.353	110.519	64	45
110.353	110.519	78	55
110.508	110.586	68	35
110.586	110.664	76	42
110.664	110.935	64	41
110.664	110.935	75	52
110.664	110.935	80	52
110.842	110.935	68	35
110.931	110.975	73	42
110.975	111.669	72	49
111.019	111.669	44	43
111.019	111.669	87	57
111.178	111.669	51	34
111.257	111.669	88	55
111.336	111.669	54	39
111.336	111.669	90	62
111.489	111.669	60	34
111.566	111.669	92	55
111.642	111.952	63	45
111.642	112.19	93	61
111.796	112.11	68	35
111.874	112.271	92	49
111.952	112.277	63	41
111.952	112.277	95	57
112.11	112.277	68	35
112.19	112.277	93	51
112.271	112.965	44	42
112.271	112.965	92	60
112.443	112.965	51	34
112.529	112.965	68	51
112.614	112.965	54	34
112.614	112.945	80	58
112.78	112.965	60	34
112.862	113.531	70	53
112.945	113.295	63	42
112.945	113.295	80	62
112.945	113.531	82	62
113.12	113.487	68	35
113.207	113.531	72	55
113.295	113.531	63	35
113.295	113.531	80	65
113.295	113.531	84	65
113.487	113.583	68	35
113.583	113.665	73	61
113.665	113.747	80	55
113.747	113.826	87	66
113.826	115.193	37	46
113.826	114.013	85	62
113.92	114.103	87	40
114.013	115.193	44	37
114.013	114.189	85	50
114.103	114.275	87	40
114.189	115.193	53	37
114.189	114.36	85	49
114.275	114.444	87	40
114.36	115.193	56	37
114.36	114.528	85	47
114.444	114.611	87	39
114.528	114.859	61	45
114.528	114.694	85	47
114.611	114.777	87	39
114.694	115.023	68	37
114.694	114.859	85	46
114.777	114.94	87	39
114.859	115.193	61	37
114.859	115.023	85	46
114.94	115.107	87	39
115.023	115.193	68	37
115.023	115.193	85	45
115.107	115.193	87	39
115.193	116.475	49	44
115.193	115.353	85	51
115.274	115.431	87	38
115.353	116.475	56	35
115.353	115.509	85	48
115.431	115.589	87	38
115.509	116.475	65	35
115.509	115.668	85	46
115.589	115.746	87	38
115.668	116.475	68	35
115.668	115.825	85	45
115.746	115.904	87	38
115.825	116.14	73	43
115.825	115.983	85	45
115.904	116.06	87	38
115.983	116.302	80	35
115.983	116.14	85	43
116.06	116.221	87	37
116.14	116.475	73	35
116.14	116.302	85	43
116.221	116.389	87	37
116.302	116.475	80	35
116.302	116.475	85	43
116.389	116.475	87	37
116.475	116.64	73	31
116.475	116.64	77	31
116.475	116.64	85	44
116.558	116.722	80	26
116.558	116.722	87	33
116.64	116.804	73	31
116.64	116.804	77	31
116.64	116.804	85	41
116.722	116.886	80	26
116.722	116.886	87	33
116.804	116.967	73	33
116.804	116.967	77	33
116.804	116.967	85	42
116.886	117.048	80	27
116.886	117.048	87	35
116.967	117.128	73	33
116.967	117.128	77	33
116.967	117.128	85	42
117.048	117.207	80	28
117.048	117.207	87	36
117.128	117.286	73	35
117.128	117.286	77	35
117.128	117.286	85	44
117.207	117.365	80	30
117.207	117.365	87	37
117.286	117.443	73	36
117.286	117.443	77	36
117.286	117.443	85	44
117.365	117.522	80	32
117.365	117.522	87	38
117.443	117.599	73	36
117.443	117.599	77	36
117.443	117.599	85	45
117.522	117.677	80	33
117.522	117.677	87	40
117.599	117.754	73	38
117.599	117.754	77	38
117.599	117.754	85	47
117.677	117.831	80	34
117.677	117.831	87	41
117.754	117.908	73	40
117.754	117.908	77	40
117.754	117.908	85	56
117.831	117.986	80	33
117.831	117.986	87	42
117.908	118.063	73	39
117.908	118.063	77	39
117.908	118.063	85	51
117.986	118.14	80	31
117.986	118.14	87	40
118.063	118.218	73	37
118.063	118.218	77	37
118.063	118.218	85	48
118.14	118.296	80	30
118.14	118.296	87	39
118.218	118.374	73	36
118.218	118.374	77	36
118.218	118.374	85	45
118.296	118.452	80	29
118.296	118.452	87	37
118.374	118.531	73	35
118.374	118.531	77	35
118.374	118.531	85	44
118.452	118.61	80	29
118.452	118.61	87	36
118.531	118.689	73	33
118.531	118.689	77	33
118.531	118.689	85	41
118.61	118.769	80	29
118.61	118.769	87	35
118.689	118.85	73	32
118.689	118.85	77	32
118.689	118.85	85	39
118.769	118.931	80	28
118.769	118.931	87	33
118.85	119.013	73	31
118.85	119.013	77	31
118.85	119.013	85	38
118.931	119.013	80	26
118.931	119.013	87	32
119.013	119.054	73	31
119.013	119.682	77	39
119.013	119.259	85	39
119.054	119.595	80	31
119.095	122.286	84	33
119.177	119.431	87	42
119.259	119.513	85	37
119.349	120.66	89	47
119.431	120.58	87	44
119.513	120.5	85	41
119.595	120.42	80	39
119.682	120.339	77	44
119.765	120.258	75	39
119.848	120.176	73	39
119.93	120.095	68	39
120.013	122.286	65	42
120.095	122.286	68	36
120.176	122.286	73	39
120.258	122.286	75	43
120.339	122.286	77	46
120.42	122.205	80	42
120.5	121.878	85	44
120.58	121.798	87	46
120.66	121.474	89	52
120.74	120.899	92	46
120.819	121.062	97	53
120.899	121.394	92	46
120.98	121.234	99	59
121.062	121.315	97	52
121.152	122.286	101	59
121.234	122.286	99	53
121.315	121.56	97	59
121.394	121.639	92	54
121.474	121.718	89	59
121.56	122.286	97	59
121.639	122.286	92	65
121.718	121.966	89	56
121.798	122.045	87	56
121.878	122.125	85	40
121.966	122.286	89	58
122.045	122.286	87	51
122.125	122.286	85	50
122.205	122.286	80	50
122.286	122.535	77	62
122.375	124.481	85	52
122.454	124.481	80	59
122.535	122.785	77	55
122.616	122.865	75	63
122.698	122.946	73	56
122.785	124.481	77	57
122.865	124.481	75	58
122.946	123.196	73	69
123.027	123.286	68	60
123.109	123.379	65	63
123.196	124.481	73	58
123.286	124.481	68	69
123.379	123.699	65	64
123.476	123.906	63	66
123.577	124.158	61	68
123.699	124.481	65	70
123.906	124.481	63	77
124.158	124.481	61	82
124.481	126.606	61	85
125.643	125.821	37	59
125.643	125.821	44	59
125.643	125.821	49	59
125.643	125.821	53	59
125.643	125.821	56	70
125.821	126.606	37	67
125.821	126.606	44	67
125.821	126.606	49	67
125.821	126.606	53	67
125.821	126.606	56	79
126.606	126.887	61	73
126.755	127.041	59	70
126.887	127.041	61	68
127.041	129.187	59	77
128.203	128.381	38	59
128.203	128.381	42	59
128.203	128.381	47	59
128.203	128.381	50	59
128.203	128.381	54	70
128.381	129.138	38	68
128.381	129.138	42	68
128.381	129.138	47	68
128.381	129.138	50	68
128.381	129.138	54	80
129.187	129.663	61	64
129.354	129.874	64	70
129.506	129.874	62	66
129.663	129.874	61	66
129.874	131.719	61	74
130.818	131.004	37	59
130.818	131.004	44	59
130.818	131.004	49	59
130.818	131.004	53	59
130.818	131.004	56	70
131.004	131.719	37	67
131.004	131.719	44	67
131.004	131.719	49	67
131.004	131.719	53	67
131.004	131.719	56	79
131.719	131.994	61	73
131.846	132.17	59	70
131.994	132.17	61	68
132.17	134.154	59	77
133.183	133.377	38	53
133.183	133.377	42	53
133.183	133.377	47	53
133.183	133.377	50	53
133.183	133.377	54	63
133.377	134.104	38	60
133.377	134.104	42	60
133.377	134.104	47	60
133.377	134.104	50	60
133.377	134.104	54	71
134.154	134.684	57	54
134.351	134.885	56	62
134.505	135.117	59	56
134.684	135.117	57	56
134.885	135.117	56	56
135.117	137.768	56	65
136.341	136.521	37	50
136.341	136.521	44	50
136.341	136.521	49	50
136.341	136.521	53	59
136.521	137.645	37	57
136.521	137.645	44	57
136.521	137.645	49	57
136.521	137.645	53	68
137.768	137.984	56	46
137.984	140.414	56	54
139.219	139.458	40	39
139.219	139.458	44	39
139.219	139.458	49	39
139.219	139.458	52	46
139.458	140.414	40	43
139.458	140.414	44	43
139.458	140.414	49	43
139.458	140.414	52	51
140.383	140.542	57	45
140.598	141.262	56	44
140.771	141.609	59	50
140.989	141.609	57	44
141.262	141.609	56	41
141.609	148.003	56	56
143.078	143.41	44	33
143.078	143.41	49	33
143.078	143.41	51	40
143.41	144.363	44	39
143.41	144.363	49	39
143.41	144.363	51	46
146.211	147.745	44	26
146.211	147.745	48	26
146.211	147.745	51	26
146.211	147.745	54	30
149.558	150.177	32	39
150.177	151.155	33	42
151.155	151.481	35	46
151.481	151.799	37	55
152.522	152.611	37	42
152.611	154.153	49	52
152.611	153.678	52	32
152.611	153.678	56	32
152.611	153.678	61	32
152.611	153.678	64	40
153.678	154.181	30	47
153.906	154.181	48	43
154.153	154.659	49	52
154.408	154.659	51	55
154.634	155.136	52	57
154.634	155.636	57	32
154.634	155.636	61	32
154.634	155.636	66	32
154.634	155.636	69	40
154.885	155.157	45	48
155.136	155.636	52	55
155.387	155.636	51	43
155.636	155.855	49	51
156.293	156.375	37	43
156.375	156.456	44	45
156.456	156.538	49	46
156.538	156.619	51	48
156.619	157.658	49	56
156.619	157.674	52	32
156.619	157.674	56	32
156.619	157.674	61	32
156.619	157.674	64	40
157.476	157.674	48	48
157.658	159.585	49	56
158.663	159.585	37	43
158.663	159.678	52	32
158.663	159.876	56	32
158.663	159.876	61	32
158.663	159.876	64	40
159.493	159.585	51	49
159.585	159.961	35	53
159.678	159.961	52	57
160.81	162.342	52	63
160.81	162.791	56	32
160.81	162.791	59	32
160.81	162.805	64	32
160.81	162.805	68	40
161.882	162.805	32	48
162.11	162.805	51	46
162.342	162.805	52	56
162.586	162.805	54	61
162.791	163.264	56	66
162.791	163.749	57	32
162.791	163.749	59	32
162.791	163.749	63	32
162.791	163.749	71	40
163.028	163.749	47	53
163.264	163.749	56	60
163.5	163.749	54	48
163.749	164.011	52	61
164.535	164.954	37	48
164.616	164.954	47	49
164.697	164.858	52	50
164.777	164.954	54	51
164.858	165.88	52	64
164.858	165.931	56	32
164.858	165.931	59	32
164.858	165.931	64	32
164.858	165.931	68	40
165.699	165.931	51	51
165.88	166.133	52	59
166.813	168.364	44	48
166.813	167.802	52	44
166.813	168.364	54	44
166.813	168.364	56	44
166.813	168.364	60	44
166.813	167.802	64	56
166.813	168.364	68	56
167.642	167.814	51	45
167.642	168.364	63	57
167.814	167.869	37	39
167.869	168.364	49	41
167.925	168.468	61	64
169.011	170.542	49	57
169.011	170.542	61	55
169.011	170.078	64	60
169.011	170.078	68	66
169.011	171.042	73	75
170.078	171.042	30	47
170.078	171.042	66	58
170.078	171.042	69	65
170.306	171.042	48	43
170.306	171.042	60	67
170.542	171.042	49	52
170.542	171.042	61	69
170.797	171.042	51	55
170.797	171.042	63	72
171.016	171.503	52	57
171.016	171.503	64	74
171.259	172.028	45	48
171.259	172.028	57	65
171.503	172.028	52	55
171.503	172.028	64	74
171.746	172.028	51	43
171.746	172.028	63	66
171.995	172.227	49	51
171.995	172.227	61	78
172.682	172.904	61	63
172.793	172.931	63	63
172.904	173.907	37	61
172.904	173.907	49	56
172.904	173.907	61	70
172.904	173.907	64	56
172.904	173.907	68	56
172.904	173.907	73	70
173.673	173.907	48	57
173.673	173.907	60	72
173.907	174.153	49	81
173.907	174.153	61	78
174.891	175.663	46	66
174.891	175.728	52	52
174.891	176.214	55	52
174.891	176.214	61	66
174.891	175.851	64	62
174.891	176.214	67	62
174.891	175.851	73	62
174.891	176.214	76	78
175.356	175.667	45	77
175.667	176.214	44	55
175.728	176.214	52	55
175.79	176.214	56	55
175.851	176.214	64	69
175.851	176.214	68	68
175.851	176.214	73	68
175.851	176.214	80	85
176.849	178.314	32	77
177.66	180.834	66	64
177.747	180.834	72	67
177.835	180.834	75	71
177.922	180.834	81	86
178.196	180.834	31	38
178.314	180.834	32	39
178.431	180.834	33	39
178.548	180.834	36	42
178.664	180.834	37	43
178.78	180.834	39	45
178.894	180.834	40	47
179.008	180.834	42	49
179.122	179.477	44	51
179.253	180.834	47	53
179.367	179.818	45	46
179.477	179.695	44	43
179.587	180.834	43	43
179.695	180.834	44	45
179.818	180.834	45	46
179.923	180.834	48	47
180.026	180.834	49	49
180.127	180.834	51	50
180.226	180.834	52	51
180.324	180.834	54	52
180.419	180.834	55	57
180.518	180.82	56	62
180.619	180.834	59	69
180.719	180.834	57	58
180.82	183.015	56	47
180.915	183.015	57	48
181.01	183.015	60	49
181.105	183.015	61	50
181.2	183.015	63	51
181.295	183.015	64	52
181.39	183.015	66	53
181.485	183.015	67	71
181.585	181.885	68	76
181.685	183.015	71	80
181.785	181.977	69	71
181.885	183.015	68	64
181.977	183.015	69	65
182.07	183.015	72	67
182.163	183.015	73	69
182.255	183.015	75	70
182.36	183.015	76	72
182.467	183.015	78	74
182.572	183.015	79	80
182.68	183.015	80	83
182.792	183.015	83	88
182.903	183.015	81	82
183.015	183.182	80	69
183.099	183.265	81	61
183.182	183.348	80	69
183.265	183.43	81	63
183.348	183.512	80	72
183.43	183.594	81	64
183.512	183.675	80	72
183.594	183.756	81	65
183.675	183.837	80	74
183.756	183.917	81	66
183.837	183.997	80	74
183.917	184.077	81	67
183.997	184.156	80	76
184.077	184.235	81	68
184.156	184.314	80	77
184.235	184.392	81	69
184.314	184.47	80	79
184.392	184.548	81	70
184.47	184.625	80	79
184.548	184.702	81	70
184.625	184.779	80	81
184.702	184.856	81	72
184.779	184.932	80	82
184.856	185.008	81	73
184.932	185.083	80	83
185.008	185.159	81	74
185.083	185.234	80	84
185.159	185.308	81	76
185.234	185.383	80	87
185.308	185.457	81	76
185.383	185.53	80	86
185.457	185.604	81	77
185.53	185.677	80	88
185.604	185.75	81	78
185.677	185.823	80	88
185.75	185.896	81	79
185.823	185.968	80	91
185.896	186.04	81	81
185.968	186.111	80	91
186.04	186.182	81	81
186.111	186.253	80	93
186.182	186.324	81	82
186.253	186.395	80	93
186.324	186.466	81	83
186.395	186.537	80	95
186.466	186.608	81	85
186.537	186.679	80	95
186.608	186.751	81	85
186.679	186.822	80	97
186.751	186.894	81	86
186.822	186.966	80	97
186.894	187.038	81	87
186.966	187.11	80	99
187.038	187.183	81	88
187.11	187.255	80	100
187.183	187.328	81	90
187.255	187.401	80	101
187.328	187.474	81	88
187.401	187.548	80	95
187.474	187.621	81	82
187.548	187.695	80	91
187.621	187.769	81	80
187.695	187.843	80	86
187.769	187.919	81	75
187.843	187.995	80	83
187.919	188.073	81	71
187.995	188.151	80	79
188.073	188.231	81	68
188.151	188.312	80	74
188.231	188.394	81	64
188.312	188.477	80	70
188.394	188.562	81	61
188.477	188.648	80	66
188.562	188.737	81	57
188.648	188.827	80	61
188.737	188.92	81	53
188.827	189.015	80	59
188.92	189.112	81	50
189.015	189.211	80	54
189.112	189.211	81	46
189.211	189.413	80	47
189.413	189.598	81	45
189.617	189.806	80	44
189.826	190.018	79	42
190.038	190.231	80	41
190.253	190.449	81	39
190.471	190.67	82	38
190.69	190.9	83	37
190.923	191.148	84	35
191.174	193.312	45	36
191.174	192.304	85	48
192.127	193.367	61	27
192.127	192.304	64	27
192.127	192.304	69	33
192.215	193.367	76	44
192.26	193.795	81	46
192.304	193.367	64	33
192.304	193.367	69	33
192.304	193.367	73	39
192.304	193.795	85	57
193.312	195.208	45	42
193.545	195.208	80	40
193.545	195.208	84	48
193.795	194.5	81	43
193.795	194.271	85	51
194.029	195.208	61	27
194.029	194.271	64	27
194.029	194.271	69	33
194.029	194.74	83	45
194.029	194.74	87	53
194.271	195.208	64	33
194.271	195.208	69	33
194.271	195.208	73	39
194.271	194.964	85	47
194.271	195.208	88	56
194.5	195.208	76	42
194.5	194.964	81	50
194.74	195.208	83	46
194.74	195.208	87	55
194.964	195.208	81	41
194.964	195.208	85	49
195.208	197.21	40	42
195.208	196.211	80	45
195.208	196.034	83	54
196.034	197.21	59	27
196.034	196.211	64	27
196.034	196.211	68	33
196.034	196.211	83	48
196.122	197.21	85	44
196.211	197.21	64	33
196.211	197.21	68	33
196.211	197.21	71	39
196.211	197.173	80	48
196.211	197.173	83	57
196.967	197.21	79	46
196.967	197.21	82	51
197.173	198.302	80	45
197.173	198.327	83	54
198.302	199.324	53	39
198.302	199.324	61	39
198.302	199.324	68	52
198.302	199.311	73	48
198.302	199.324	80	48
198.302	199.324	85	57
199.311	201.361	42	42
199.311	200.299	73	45
199.311	200.299	78	45
199.311	200.299	81	54
200.122	201.361	57	27
200.122	200.299	61	27
200.122	200.299	66	33
200.299	201.361	61	33
200.299	201.361	66	33
200.299	201.361	69	39
200.299	202.495	73	48
200.299	201.79	78	48
200.299	201.79	81	57
201.307	203.203	45	42
201.54	203.203	77	40
201.54	202.024	80	48
201.79	202.495	78	43
201.79	202.266	81	51
202.024	203.203	57	27
202.024	202.266	61	27
202.024	202.266	66	33
202.024	202.735	80	45
202.024	202.735	83	53
202.266	203.203	61	33
202.266	203.203	66	33
202.266	203.203	69	39
202.266	202.959	81	47
202.266	203.203	85	56
202.495	203.203	73	42
202.495	202.959	78	50
202.735	203.203	80	46
202.735	203.203	83	55
202.959	203.203	78	41
202.959	203.203	81	49
203.203	205.244	49	42
203.203	204.205	76	45
203.203	204.028	80	54
204.028	205.244	56	27
204.028	204.205	61	27
204.028	204.205	64	33
204.028	204.205	80	48
204.117	205.244	81	48
204.205	205.244	61	33
204.205	205.244	64	33
204.205	205.244	68	39
204.205	205.214	76	48
204.205	205.214	80	57
204.962	205.244	75	46
204.962	205.244	79	51
205.214	206.285	76	45
205.214	206.285	80	54
206.939	207.076	37	39
207.076	207.208	39	43
207.208	207.341	40	47
207.341	207.902	42	50
208.183	209.397	69	48
208.242	208.36	74	48
208.301	209.397	80	48
208.36	209.868	54	33
208.36	209.868	57	33
208.36	209.868	62	33
208.36	209.868	66	39
208.36	209.368	74	48
208.36	209.368	78	57
209.116	209.397	73	46
209.116	209.397	77	51
209.368	209.868	74	45
209.368	209.868	78	54
211.005	211.141	38	39
211.141	211.274	40	43
211.274	211.407	42	47
211.407	211.687	44	50
212.248	212.425	66	48
212.307	212.425	69	48
212.366	213.467	76	48
212.425	215.51	54	33
212.425	215.51	57	33
212.425	215.51	60	33
212.425	215.51	62	39
212.425	213.433	66	48
212.425	216.27	69	48
212.425	213.433	74	57
213.181	213.467	65	46
213.181	213.467	73	51
213.433	215.51	66	45
213.433	215.51	74	54
215.481	215.825	64	31
215.481	215.825	73	37
215.825	216.456	45	28
215.825	216.456	64	31
215.825	216.456	73	37
217.087	218.096	52	26
217.087	218.096	57	26
217.087	218.096	61	31
217.087	219.284	64	35
217.087	218.578	69	36
217.087	218.578	73	45
218.096	219.992	49	37
218.328	219.992	68	36
218.328	219.992	72	43
218.578	219.284	69	38
218.578	219.055	73	45
218.813	219.524	71	40
218.813	219.524	75	47
219.055	219.992	52	29
219.055	219.992	57	29
219.055	219.992	61	35
219.055	219.748	73	42
219.055	219.992	76	50
219.284	219.992	64	37
219.284	219.748	69	45
219.524	219.992	71	41
219.524	219.992	75	49
219.748	219.992	69	36
219.748	219.992	73	44
219.992	221.993	40	37
219.992	220.994	68	40
219.992	220.817	71	48
220.817	220.994	71	43
220.906	221.993	73	39
220.994	221.993	52	29
220.994	221.993	56	29
220.994	221.993	59	35
220.994	221.956	68	43
220.994	221.956	71	51
221.751	221.993	67	41
221.751	221.993	70	45
221.956	223.086	68	40
221.956	223.111	71	48
223.086	224.108	41	35
223.086	224.108	49	35
223.086	224.108	56	46
223.086	224.094	61	43
223.086	224.108	68	43
223.086	224.108	73	51
224.094	224.761	42	37
224.094	224.761	61	40
224.094	224.761	66	40
224.094	224.761	69	48
225.082	226.145	49	29
225.082	226.145	54	29
225.082	226.145	57	35
225.082	227.318	61	43
225.082	226.573	66	43
225.082	226.573	69	51
226.09	228.026	45	37
226.323	228.026	65	36
226.323	226.807	68	43
226.573	226.942	66	38
226.573	226.942	69	45
226.807	227.016	68	40
226.807	227.016	71	47
226.942	227.318	66	40
226.942	227.089	69	40
227.016	227.558	68	40
227.016	227.558	71	40
227.089	228.026	49	29
227.089	228.026	54	29
227.089	228.026	57	35
227.089	227.782	69	42
227.089	228.026	73	50
227.318	228.026	61	37
227.318	227.782	66	45
227.558	228.026	68	41
227.558	228.026	71	49
227.782	228.026	66	36
227.782	228.026	69	44
228.026	230.068	37	37
228.026	229.029	64	40
228.026	228.852	68	48
228.852	229.029	68	43
228.94	230.068	69	43
229.029	230.068	49	29
229.029	230.068	52	29
229.029	230.068	56	35
229.029	230.037	64	43
229.029	230.037	68	51
229.785	230.068	63	41
229.785	230.068	67	45
230.037	231.108	64	40
230.037	231.108	68	48
231.763	231.899	37	35
231.899	232.032	39	38
232.032	232.165	40	42
232.165	232.726	30	45
233.006	233.183	57	43
233.065	233.183	62	43
233.124	234.222	68	43
233.183	234.713	42	29
233.183	234.713	45	29
233.183	234.713	50	29
233.183	234.713	54	35
233.183	234.713	57	35
233.183	234.191	62	43
233.183	234.191	66	51
233.939	234.222	61	41
233.939	234.222	65	45
234.191	234.713	62	40
234.191	234.713	66	48
235.887	236.042	38	35
236.042	236.189	40	38
236.189	236.336	42	42
236.336	236.858	32	45
237.379	238.945	42	26
237.379	238.945	45	26
237.379	238.945	48	26
237.379	238.945	50	31
237.379	238.423	54	38
237.379	238.423	57	45
238.162	238.454	53	36
238.162	238.454	56	40
238.423	241.554	54	36
238.423	241.554	57	43
241.554	242.894	48	32
241.554	242.894	50	32
241.554	242.894	54	32
241.554	242.894	56	38
242.32	242.894	32	30
242.481	242.894	33	31
242.642	242.894	36	33
242.803	244.668	37	31
243.924	245.101	49	32
243.924	245.101	53	32
243.924	245.101	56	38
244.668	244.957	37	30
244.813	245.101	35	31
244.957	245.101	37	33
245.101	246.591	35	31
246.255	247.488	50	32
246.255	247.488	54	32
246.255	247.488	56	38
246.5	247.238	37	31
246.768	247.488	40	35
247.001	247.488	38	33
247.238	247.488	37	35
247.488	249.571	37	31
248.738	250.1	49	32
248.738	250.1	53	32
248.738	250.1	56	38
249.571	249.924	37	30
249.748	250.1	35	31
249.924	250.1	37	31
250.1	252.13	35	31
251.404	252.958	50	32
251.404	252.958	54	32
251.404	252.958	56	38
251.653	252.357	33	35
251.903	252.613	32	30
252.13	252.958	35	35
252.357	252.958	33	31
252.613	252.958	32	31
252.958	255.993	32	31
254.475	255.993	49	28
254.475	255.993	53	28
254.475	255.993	56	34
255.993	259.789	32	39
257.57	259.789	48	32
257.57	259.789	51	32
257.57	259.789	54	32
257.57	259.789	56	38
259.789	265.842	25	23
259.789	265.842	32	23
259.789	265.842	37	27
259.789	265.842	44	28
259.789	265.842	49	28
259.789	265.842	53	32
259.789	265.842	56	38
266.356	266.381	73	39
266.381	266.406	80	42
266.406	267.453	85	45
266.431	266.928	80	50
266.815	267.401	73	44
266.928	267.427	80	50
267.323	267.493	81	46
267.401	267.493	73	39
267.427	267.479	80	42
267.453	268.491	85	45
267.479	268.365	80	50
267.86	268.533	83	53
267.975	268.533	81	51
268.365	268.533	80	46
268.441	268.533	73	39
268.466	268.516	78	42
268.491	269.53	85	45
268.516	269.013	78	50
268.897	269.478	73	44
269.013	269.573	78	50
269.4	269.573	80	46
269.478	269.573	73	39
269.504	269.556	81	42
269.53	269.935	85	45
269.556	270.437	81	50
269.935	270.564	85	54
270.048	270.602	83	50
270.437	270.602	81	46
270.514	270.602	73	39
270.539	270.589	80	42
270.564	271.611	85	45
270.589	271.086	80	50
270.974	271.559	73	44
271.086	271.585	80	50
271.481	271.65	81	46
271.559	271.65	73	39
271.585	271.637	80	42
271.611	272.65	85	45
271.637	272.523	80	50
272.018	272.686	83	53
272.134	272.686	81	51
272.523	272.686	80	46
272.6	272.686	73	39
272.625	272.675	78	42
272.65	273.688	85	45
272.675	273.171	78	50
273.056	273.637	73	44
273.171	273.663	78	50
273.559	273.727	80	46
273.637	273.727	73	39
273.663	273.714	78	42
273.688	274.723	85	45
273.714	274.759	78	50
274.094	274.596	73	54
274.207	274.759	81	50
274.596	274.672	73	46
274.672	274.759	73	39
274.698	274.748	80	42
274.723	275.754	85	45
274.748	275.237	80	50
275.124	275.237	68	29
275.124	275.703	73	44
275.18	275.795	77	29
275.237	275.795	68	38
275.237	275.729	80	50
275.625	275.795	81	46
275.703	275.795	73	39
275.729	275.78	80	42
275.754	276.776	85	45
275.78	276.649	80	50
276.154	276.818	83	53
276.154	276.27	92	36
276.212	276.818	97	33
276.27	276.818	81	51
276.27	276.818	92	45
276.649	276.818	80	46
276.726	276.818	73	39
276.751	276.801	78	42
276.776	277.799	85	45
276.801	277.29	78	50
277.174	277.29	61	29
277.174	277.747	73	44
277.232	277.842	69	29
277.29	277.842	61	38
277.29	277.842	78	50
277.669	277.842	80	46
277.747	277.842	73	39
277.773	277.825	81	42
277.799	278.197	85	45
277.825	278.688	81	50
278.197	278.815	85	54
278.197	278.31	90	36
278.253	278.852	97	36
278.31	278.852	83	50
278.31	278.852	90	45
278.688	278.852	81	46
278.764	278.852	73	39
278.79	278.84	80	42
278.815	279.837	85	45
278.84	279.321	80	50
279.208	279.321	68	29
279.208	279.785	73	44
279.265	279.875	77	29
279.321	279.875	68	38
279.321	279.811	80	50
279.707	279.875	81	46
279.785	279.875	73	39
279.811	279.863	80	42
279.837	280.862	85	45
279.863	280.735	80	50
280.236	280.898	83	53
280.236	280.352	92	36
280.294	280.898	97	33
280.352	280.898	81	51
280.352	280.898	92	45
280.735	280.898	80	46
280.812	280.898	73	39
280.837	280.887	78	42
280.862	281.885	85	45
280.887	281.374	78	50
281.259	281.374	61	29
281.259	281.833	73	44
281.316	281.923	69	29
281.374	281.923	61	38
281.374	281.859	78	50
281.755	281.923	80	46
281.833	281.923	73	39
281.859	281.911	78	42
281.885	282.898	85	45
281.911	282.931	78	50
282.283	282.785	73	54
282.283	282.396	90	36
282.339	282.931	97	36
282.396	282.931	81	50
282.396	282.931	90	45
282.785	282.931	73	46
282.861	282.931	80	42
282.898	282.931	85	45
282.931	283.86	80	50
283.292	283.404	68	29
283.292	283.782	73	44
283.348	283.93	77	29
283.404	283.93	68	38
283.404	283.898	85	50
283.782	283.93	73	46
283.86	283.93	80	42
283.898	283.93	85	45
283.93	284.939	80	50
284.292	284.783	73	44
284.292	284.405	92	36
284.349	284.939	97	36
284.405	284.9	85	50
284.405	284.939	92	45
284.783	284.939	73	46
284.861	284.939	78	42
284.9	284.939	85	45
284.939	285.941	78	50
285.301	285.418	61	29
285.301	285.793	73	44
285.357	285.941	69	29
285.418	285.941	61	38
285.418	285.908	85	50
285.793	285.941	73	46
285.871	285.941	81	42
285.908	285.941	85	45
285.941	286.939	81	50
286.298	286.792	73	44
286.298	286.418	90	36
286.354	286.939	97	36
286.418	286.907	85	50
286.418	286.939	90	45
286.792	286.939	73	46
286.869	286.939	80	42
286.907	286.939	85	45
286.939	287.865	80	50
287.296	287.413	68	29
287.296	287.787	73	44
287.353	287.935	77	29
287.413	287.935	68	38
287.413	287.903	85	50
287.787	287.935	73	46
287.865	287.935	80	42
287.903	287.935	85	45
287.935	288.919	80	50
288.292	288.778	73	44
288.292	288.405	92	36
288.348	288.919	97	36
288.405	288.887	85	50
288.405	288.919	92	45
288.778	288.919	73	46
288.856	288.919	78	42
288.887	288.919	85	45
288.919	289.919	78	50
289.279	289.396	61	29
289.279	289.771	73	44
289.335	289.919	69	29
289.396	289.919	61	38
289.396	289.886	85	50
289.771	289.919	73	46
289.849	289.919	81	42
289.886	289.919	85	45
289.919	290.962	81	50
290.288	290.806	73	44
290.288	290.406	90	36
290.345	290.962	97	36
290.406	290.962	85	50
290.406	290.962	90	45
290.806	290.962	73	46
290.962	291.424	68	50
291.082	291.143	73	45
291.201	291.313	52	44
291.201	291.257	73	46
291.313	291.368	73	46
291.424	291.534	59	44
291.424	291.479	73	46
291.534	291.59	73	46
291.645	291.754	65	44
291.645	291.699	73	46
291.754	291.808	73	46
291.863	291.971	69	50
291.971	292.025	73	43
292.079	292.188	61	46
292.079	292.134	73	43
292.188	292.242	73	43
292.296	292.407	68	50
292.407	292.462	73	45
292.517	292.632	61	46
292.517	292.575	73	45
292.632	292.689	73	45
292.746	293.2	66	50
292.862	292.919	73	44
292.976	293.089	49	44
292.976	293.033	73	44
293.089	293.145	73	44
293.2	293.311	57	44
293.2	293.255	73	44
293.311	293.366	73	44
293.42	293.53	61	44
293.42	293.475	73	44
293.53	293.584	68	46
293.638	293.746	69	50
293.746	293.8	73	44
293.854	293.962	61	46
293.854	293.908	73	44
293.962	294.016	73	44
294.07	294.183	66	50
294.183	294.239	73	45
294.295	294.408	61	46
294.295	294.352	73	45
294.408	294.464	73	45
294.52	294.975	68	50
294.637	294.695	73	44
294.754	294.865	49	44
294.754	294.81	73	44
294.865	294.92	73	44
294.975	295.085	59	44
294.975	295.03	73	44
295.085	295.14	73	44
295.194	295.303	65	44
295.194	295.249	73	44
295.303	295.357	71	49
295.411	295.519	69	50
295.519	295.573	73	46
295.627	295.735	61	46
295.627	295.681	73	46
295.735	295.788	73	46
295.842	295.954	68	50
295.954	296.009	73	45
296.065	296.181	61	46
296.065	296.123	73	45
296.181	296.238	73	45
296.295	296.748	66	50
296.411	296.47	73	42
296.528	296.639	49	44
296.528	296.584	73	42
296.639	296.694	73	42
296.748	296.858	57	44
296.748	296.803	73	42
296.858	296.912	73	42
296.967	297.075	61	44
296.967	297.021	73	42
297.075	297.13	68	50
297.184	297.292	69	50
297.292	297.346	73	45
297.4	297.508	61	46
297.4	297.454	73	45
297.508	297.562	73	45
297.616	297.725	66	50
297.725	297.78	73	44
297.836	297.947	61	46
297.836	297.891	73	44
297.947	298.002	73	44
298.057	298.515	68	57
298.057	298.515	80	57
298.175	298.234	73	45
298.292	298.405	49	44
298.292	298.35	73	45
298.405	298.46	73	45
298.515	298.624	59	44
298.515	298.569	73	45
298.624	298.678	73	45
298.732	298.841	65	44
298.732	298.787	73	45
298.841	298.895	73	45
298.948	299.163	69	54
298.948	299.163	81	54
299.056	299.109	73	45
299.163	299.27	65	46
299.163	299.216	73	45
299.27	299.323	73	45
299.377	299.486	59	50
299.377	299.596	68	54
299.377	299.596	80	54
299.486	299.541	73	46
299.596	299.71	49	46
299.596	299.653	73	46
299.71	299.766	73	46
299.823	300.274	66	55
299.823	300.274	78	55
299.937	299.993	73	42
300.05	300.163	49	44
300.05	300.108	73	42
300.163	300.219	73	42
300.274	300.383	57	44
300.274	300.329	73	42
300.383	300.438	73	42
300.492	300.6	66	44
300.492	300.546	73	42
300.6	300.654	68	50
300.6	300.654	80	50
300.708	301.135	69	55
300.708	301.135	81	55
300.815	300.868	73	43
300.922	301.028	66	46
300.922	300.975	73	43
301.028	301.082	73	43
301.135	301.247	57	50
301.135	301.583	66	50
301.135	301.583	78	50
301.247	301.303	73	43
301.359	301.471	49	46
301.359	301.415	73	43
301.471	301.527	73	43
301.583	302.034	68	57
301.583	302.034	80	57
301.7	301.758	73	41
301.815	301.925	49	44
301.815	301.87	73	41
301.925	301.98	73	41
302.034	302.143	59	44
302.034	302.089	73	41
302.143	302.197	73	41
302.25	302.358	65	44
302.25	302.464	71	49
302.25	302.464	83	49
302.358	302.411	73	43
302.464	302.678	69	56
302.464	302.678	81	56
302.571	302.624	73	44
302.678	302.784	65	46
302.678	302.731	73	44
302.784	302.837	73	44
302.89	303.001	59	50
302.89	303.112	68	54
302.89	303.112	80	54
303.001	303.057	73	44
303.112	303.229	49	46
303.112	303.17	73	44
303.229	303.288	73	44
303.347	303.798	66	55
303.347	303.798	78	55
303.46	303.517	73	44
303.573	303.687	49	44
303.573	303.631	73	44
303.687	303.743	73	44
303.798	303.909	57	44
303.798	303.854	73	44
303.909	303.964	73	44
304.018	304.127	66	44
304.018	304.073	73	44
304.127	304.181	68	50
304.127	304.181	80	50
304.235	304.664	69	57
304.235	304.664	81	57
304.342	304.396	73	43
304.45	304.557	66	46
304.45	304.503	73	44
304.557	304.61	73	44
304.664	304.777	57	50
304.664	305.126	66	54
304.664	305.126	78	54
304.777	304.836	73	44
304.894	305.01	49	46
304.894	304.952	73	44
305.01	305.068	73	44
305.126	305.243	56	62
305.126	305.184	85	57
305.243	305.296	73	43
305.35	305.404	73	44
305.458	305.512	73	44
305.565	306.017	61	50
305.565	306.017	65	50
305.565	306.017	71	60
305.565	305.621	85	54
305.678	305.734	73	44
305.791	305.848	73	44
305.904	305.961	73	44
306.017	306.128	49	57
306.017	306.072	85	57
306.128	306.183	73	43
306.238	306.291	61	39
306.238	306.291	65	39
306.238	306.291	69	46
306.238	306.291	73	44
306.343	306.396	73	44
306.449	306.502	59	46
306.449	306.502	85	54
306.555	306.608	73	44
306.66	306.713	61	39
306.66	306.713	65	39
306.66	306.713	68	46
306.66	306.713	73	44
306.766	306.822	73	44
306.877	306.99	54	64
306.877	306.934	85	57
306.99	307.043	73	43
307.097	307.15	73	44
307.203	307.256	73	44
307.309	307.764	61	50
307.309	307.764	66	50
307.309	307.764	69	60
307.309	307.367	85	54
307.424	307.48	73	44
307.537	307.594	73	44
307.651	307.708	73	44
307.764	307.874	49	61
307.764	307.819	85	57
307.874	307.928	73	43
307.983	308.035	57	39
307.983	308.035	61	39
307.983	308.035	68	46
307.983	308.035	73	44
308.088	308.14	73	44
308.193	308.246	54	46
308.193	308.246	85	54
308.298	308.351	73	44
308.404	308.456	57	39
308.404	308.456	61	39
308.404	308.456	66	46
308.404	308.456	73	44
308.509	308.565	73	44
308.62	308.742	56	60
308.62	308.681	85	57
308.742	308.795	73	43
308.849	308.903	73	44
308.956	309.01	73	44
309.063	309.527	61	50
309.063	309.527	65	50
309.063	309.527	71	60
309.063	309.121	85	54
309.179	309.237	73	44
309.295	309.353	73	44
309.411	309.469	73	44
309.527	309.637	49	57
309.527	309.582	85	57
309.637	309.691	73	43
309.746	309.799	61	39
309.746	309.799	65	39
309.746	309.799	69	46
309.746	309.799	73	44
309.851	309.904	73	44
309.956	310.008	59	46
309.956	310.008	85	54
310.061	310.113	73	44
310.166	310.218	61	39
310.166	310.218	65	39
310.166	310.218	68	46
310.166	310.218	73	44
310.271	310.328	73	44
310.384	310.497	54	62
310.384	310.441	85	57
310.497	310.551	73	43
310.605	310.658	73	44
310.712	310.765	73	44
310.819	311.283	61	50
310.819	311.283	66	50
310.819	311.283	69	60
310.819	310.876	85	54
310.934	310.992	73	44
311.051	311.109	73	44
311.167	311.225	73	44
311.283	311.394	49	57
311.283	311.338	85	57
311.394	311.449	73	43
311.505	311.558	57	39
311.505	311.558	61	39
311.505	311.558	68	46
311.505	311.558	73	44
311.61	311.663	73	44
311.716	311.768	54	46
311.716	311.768	85	54
311.821	311.873	73	44
311.926	311.979	57	39
311.926	311.979	61	39
311.926	311.979	66	46
311.926	311.979	73	44
312.031	312.088	73	44
312.145	312.312	56	55
312.145	312.312	85	57
312.266	312.318	73	43
312.371	312.423	85	51
312.475	312.528	85	51
312.58	313.182	61	46
312.58	313.182	65	46
312.58	313.182	71	55
312.58	312.75	97	63
312.689	312.75	85	44
312.799	312.853	85	44
312.908	312.963	73	44
313.018	313.182	49	55
313.018	313.182	85	57
313.135	313.188	73	43
313.241	313.293	73	44
313.346	313.398	73	44
313.451	313.891	61	46
313.451	313.891	65	46
313.451	313.891	71	56
313.451	313.652	85	55
313.561	313.652	73	45
313.671	313.726	73	45
313.781	313.836	73	45
313.891	314.031	54	57
313.891	314.031	85	59
314.009	314.063	73	44
314.116	314.17	85	53
314.223	314.277	85	53
314.331	314.78	61	48
314.331	314.78	66	48
314.331	314.78	70	58
314.331	314.486	97	65
314.443	314.499	85	46
314.555	314.611	85	47
314.667	314.724	73	47
314.78	314.898	49	58
314.78	314.884	85	60
314.898	314.952	73	46
315.006	315.06	73	47
315.113	315.167	73	47
315.221	315.772	61	49
315.221	315.772	66	49
315.221	315.772	70	60
315.221	315.371	85	59
315.332	315.388	73	47
315.443	315.499	73	48
315.554	315.61	73	48
315.665	315.774	56	60
315.665	315.772	85	63
315.774	315.828	73	48
315.882	315.936	61	46
315.882	315.936	65	46
315.882	315.936	71	55
315.882	315.936	85	60
315.99	316.044	85	60
316.098	316.245	49	61
316.098	316.245	97	76
316.206	316.26	85	49
316.314	316.367	61	47
316.314	316.367	65	47
316.314	316.367	71	56
316.314	316.367	85	49
316.422	316.477	73	49
316.532	316.667	56	62
316.532	316.667	85	65
316.639	316.693	73	48
316.747	316.801	61	47
316.747	316.801	65	47
316.747	316.801	71	57
316.747	316.801	73	49
316.856	316.911	73	50
316.966	317.104	49	63
316.966	317.104	85	62
317.074	317.127	73	51
317.181	317.236	61	49
317.181	317.236	65	49
317.181	317.236	71	58
317.181	317.236	73	51
317.292	317.347	73	51
317.403	317.865	54	65
317.403	317.615	85	67
317.509	317.865	73	50
317.615	317.865	61	49
317.615	317.865	66	49
317.615	317.865	70	58
317.615	317.725	85	64
317.725	317.865	85	63
317.835	318.264	49	65
317.835	317.888	97	82
317.94	318.046	85	61
318.046	318.264	61	50
318.046	318.264	66	50
318.046	318.264	70	60
318.046	318.264	85	61
318.154	318.264	73	52
318.264	318.71	54	66
318.264	318.695	85	69
318.37	318.476	73	51
318.476	318.71	61	51
318.476	318.71	66	51
318.476	318.71	70	61
318.476	318.586	73	53
318.586	318.71	73	53
318.695	319.127	49	67
318.695	319.127	85	66
318.801	318.907	73	54
318.907	319.127	61	51
318.907	319.127	66	51
318.907	319.127	70	62
318.907	319.017	73	54
319.017	319.127	73	54
319.127	319.573	56	69
319.127	319.338	85	71
319.233	319.573	73	53
319.338	319.573	61	52
319.338	319.573	65	52
319.338	319.573	71	62
319.338	319.446	85	68
319.446	319.573	85	68
319.556	319.983	49	69
319.556	319.608	97	83
319.661	319.766	85	64
319.766	319.983	61	53
319.766	319.983	65	53
319.766	319.983	71	63
319.766	319.983	85	64
319.873	319.983	73	56
319.983	320.422	56	71
319.983	320.035	85	74
320.087	320.422	73	56
320.192	320.422	61	54
320.192	320.422	65	54
320.192	320.422	71	65
320.192	320.299	85	65
320.299	320.422	85	65
320.407	320.835	49	73
320.407	320.459	97	83
320.512	320.618	85	64
320.618	320.835	61	56
320.618	320.835	65	56
320.618	320.835	71	67
320.618	320.831	85	64
320.724	320.835	73	59
320.831	321.27	54	75
320.831	321.04	85	77
320.935	321.27	73	58
321.04	321.27	61	57
321.04	321.27	66	57
321.04	321.27	70	68
321.04	321.146	85	72
321.146	321.27	85	72
321.252	321.673	49	76
321.252	321.673	97	92
321.357	321.461	85	68
321.461	321.673	61	58
321.461	321.673	66	58
321.461	321.673	70	70
321.461	321.673	85	68
321.567	321.673	73	62
321.673	322.098	54	77
321.673	321.882	85	80
321.778	322.098	73	61
321.882	322.098	61	60
321.882	322.098	66	60
321.882	322.098	70	71
321.882	321.988	85	72
321.988	322.098	85	72
322.094	322.554	49	79
322.094	322.554	97	93
322.198	322.306	85	76
322.306	322.554	61	61
322.306	322.554	66	61
322.306	322.554	70	72
322.306	322.554	85	76
322.42	322.554	73	63
322.554	322.681	44	61
322.554	322.681	56	73
322.554	322.681	72	72
322.554	322.681	77	72
322.554	322.681	84	85
322.821	322.946	56	57
322.821	322.946	61	57
322.821	322.946	65	68
322.821	322.946	73	68
322.821	322.946	80	68
322.821	322.946	85	81
323.072	323.343	37	61
323.072	323.343	49	73
323.072	323.421	71	72
323.072	323.421	77	72
323.072	323.421	83	85
323.304	323.421	56	58
323.304	323.421	61	58
323.304	323.421	65	69
323.421	323.538	73	67
323.421	323.538	85	79
323.538	323.649	44	61
323.538	323.649	56	73
323.538	323.649	72	72
323.538	323.649	77	72
323.538	323.649	84	85
323.772	323.889	56	57
323.772	323.889	61	57
323.772	323.889	65	68
323.772	323.889	73	68
323.772	323.889	80	68
323.772	323.889	85	81
324.006	324.29	37	61
324.006	324.29	49	73
324.006	324.35	71	72
324.006	324.35	77	72
324.006	324.35	83	85
324.235	324.35	56	58
324.235	324.35	61	58
324.235	324.35	65	69
324.35	324.469	73	67
324.35	324.469	85	79
324.469	324.578	42	61
324.469	324.578	54	73
324.469	324.578	72	72
324.469	324.578	81	72
324.469	324.578	84	85
324.698	324.813	58	57
324.698	324.813	61	57
324.698	324.813	66	68
324.698	324.813	73	68
324.698	324.813	82	68
324.698	324.813	85	81
324.927	325.136	37	61
324.927	325.136	49	73
324.927	325.265	70	72
324.927	325.265	78	72
324.927	325.265	82	85
325.152	325.265	58	58
325.152	325.265	61	58
325.152	325.265	66	69
325.265	325.376	73	67
325.265	325.376	82	67
325.265	325.376	85	79
325.376	325.484	42	61
325.376	325.484	54	73
325.376	325.484	72	72
325.376	325.484	81	72
325.376	325.484	84	85
325.603	325.716	58	57
325.603	325.716	61	57
325.603	325.716	66	68
325.603	325.716	73	68
325.603	325.716	82	68
325.603	325.716	85	81
325.83	326.086	37	61
325.83	326.086	49	73
325.83	326.167	70	72
325.83	326.167	78	72
325.83	326.167	82	85
326.054	326.167	58	58
326.054	326.167	61	58
326.054	326.167	66	69
326.167	326.281	73	67
326.167	326.281	82	67
326.167	326.281	85	79
326.281	326.366	44	61
326.281	326.366	56	73
326.281	326.366	72	72
326.281	326.366	84	85
326.504	326.618	61	57
326.504	326.618	65	68
326.504	326.618	73	68
326.504	326.618	80	68
326.504	326.618	85	81
326.731	327.014	37	61
326.731	327.014	49	73
326.731	327.068	75	72
326.731	327.068	83	72
326.731	327.068	87	85
326.955	327.068	59	58
326.955	327.068	61	58
326.955	327.068	65	69
327.068	327.182	73	67
327.068	327.182	80	67
327.068	327.182	85	79
327.182	327.261	44	61
327.182	327.261	56	73
327.182	327.261	72	72
327.182	327.261	84	85
327.406	327.519	61	57
327.406	327.519	65	68
327.406	327.519	73	68
327.406	327.519	80	68
327.406	327.519	85	81
327.632	327.916	37	61
327.632	327.916	49	73
327.632	327.969	75	72
327.632	327.969	83	72
327.632	327.969	87	85
327.857	327.969	59	58
327.857	327.969	61	58
327.857	327.969	65	69
327.969	328.083	73	67
327.969	328.083	80	67
327.969	328.083	85	79
328.083	328.141	42	61
328.083	328.141	54	73
328.083	328.141	72	72
328.083	328.141	81	72
328.083	328.141	84	85
328.31	328.422	58	57
328.31	328.422	61	57
328.31	328.422	66	68
328.31	328.422	73	68
328.31	328.422	82	68
328.31	328.422	85	81
328.535	328.807	37	61
328.535	328.807	49	73
328.535	328.872	78	72
328.535	328.872	82	72
328.535	328.872	90	85
328.76	328.872	58	58
328.76	328.872	61	58
328.76	328.872	66	69
328.872	328.988	73	67
328.872	328.988	85	79
328.988	329.116	42	61
328.988	329.116	54	73
328.988	329.116	72	72
328.988	329.116	81	72
328.988	329.116	84	85
329.213	329.326	58	57
329.213	329.326	61	57
329.213	329.326	66	68
329.213	329.326	73	68
329.213	329.326	82	68
329.213	329.326	85	81
329.439	329.699	37	61
329.439	329.699	49	73
329.439	329.782	78	72
329.439	329.782	82	72
329.439	329.782	90	85
329.667	329.782	58	58
329.667	329.782	61	58
329.667	329.782	66	69
329.782	329.902	73	61
329.782	329.902	85	72
329.902	330.018	56	53
329.902	330.018	72	52
329.902	330.018	77	52
329.902	330.018	84	62
330.16	330.281	61	41
330.16	330.281	65	49
330.16	330.281	73	49
330.16	330.281	80	49
330.16	330.281	85	59
330.401	330.666	49	53
330.401	330.742	71	52
330.401	330.742	77	52
330.401	330.742	83	62
330.629	330.742	56	42
330.629	330.742	61	42
330.629	330.742	65	50
330.742	330.859	73	48
330.742	330.859	85	57
330.859	330.967	44	53
330.859	330.967	72	52
330.859	330.967	77	52
330.859	330.967	84	62
331.086	331.2	56	41
331.086	331.2	61	41
331.086	331.2	65	49
331.086	331.2	73	49
331.086	331.2	80	49
331.086	331.2	85	59
331.313	331.591	37	53
331.313	331.65	71	52
331.313	331.65	77	52
331.313	331.65	83	62
331.538	331.65	56	42
331.538	331.65	61	42
331.538	331.65	65	50
331.65	331.767	73	48
331.65	331.767	85	57
331.767	331.864	54	53
331.767	331.864	72	52
331.767	331.864	81	52
331.767	331.864	84	62
331.994	332.107	58	41
331.994	332.107	61	41
331.994	332.107	66	49
331.994	332.107	73	49
331.994	332.107	82	49
331.994	332.107	85	59
332.221	332.429	49	53
332.221	332.558	70	52
332.221	332.558	78	52
332.221	332.558	82	62
332.445	332.558	58	42
332.445	332.558	61	42
332.445	332.558	66	50
332.558	332.667	73	48
332.558	332.667	82	48
332.558	332.667	85	57
332.667	332.775	42	53
332.667	332.775	72	52
332.667	332.775	81	52
332.667	332.775	84	62
332.895	333.008	58	41
332.895	333.008	61	41
332.895	333.008	66	49
332.895	333.008	73	49
332.895	333.008	82	49
332.895	333.008	85	59
333.122	333.378	37	53
333.122	333.459	70	52
333.122	333.459	78	52
333.122	333.459	82	62
333.346	333.459	58	42
333.346	333.459	61	42
333.346	333.459	66	50
333.459	333.572	73	48
333.459	333.572	82	48
333.459	333.572	85	57
333.572	333.641	56	53
333.572	333.641	72	52
333.572	333.641	84	62
333.796	333.909	61	41
333.796	333.909	65	49
333.796	333.909	73	49
333.796	333.909	80	49
333.796	333.909	85	59
334.023	334.306	49	53
334.023	334.359	75	52
334.023	334.359	83	52
334.023	334.359	87	62
334.247	334.359	56	42
334.247	334.359	61	42
334.247	334.359	65	50
334.359	334.474	73	48
334.359	334.474	80	48
334.359	334.474	85	57
334.474	334.53	44	53
334.474	334.53	72	52
334.474	334.53	84	62
334.699	334.811	56	41
334.699	334.811	61	41
334.699	334.811	65	49
334.699	334.811	73	49
334.699	334.811	80	49
334.699	334.811	85	59
334.924	335.196	37	53
334.924	335.261	75	52
334.924	335.261	83	52
334.924	335.261	87	62
335.149	335.261	56	42
335.149	335.261	61	42
335.149	335.261	65	50
335.261	335.377	73	48
335.261	335.377	80	48
335.261	335.377	85	57
335.377	335.5	54	53
335.377	335.5	72	52
335.377	335.5	81	52
335.377	335.5	84	62
335.602	335.715	58	41
335.602	335.715	61	41
335.602	335.715	66	49
335.602	335.715	73	49
335.602	335.715	82	49
335.602	335.715	85	59
335.828	336.085	49	53
335.828	336.165	78	52
335.828	336.165	82	52
335.828	336.165	90	62
336.053	336.165	58	42
336.053	336.165	61	42
336.053	336.165	66	50
336.165	336.281	73	48
336.165	336.281	85	57
336.281	336.388	42	53
336.281	336.388	72	52
336.281	336.388	81	52
336.281	336.388	84	62
336.506	336.619	58	41
336.506	336.619	61	41
336.506	336.619	66	49
336.506	336.619	73	49
336.506	336.619	82	49
336.506	336.619	85	59
336.732	336.989	37	53
336.732	337.069	78	52
336.732	337.069	82	52
336.732	337.069	90	62
336.957	337.069	58	42
336.957	337.069	61	42
336.957	337.069	66	50
337.069	337.185	73	48
337.069	337.185	85	57
337.185	337.291	54	42
337.185	337.291	75	49
337.185	337.291	83	49
337.185	337.291	87	64
337.396	337.501	59	29
337.396	337.501	63	35
337.396	337.501	78	44
337.396	337.501	83	56
337.606	337.713	49	33
337.606	337.713	75	44
337.606	337.713	78	56
337.819	337.923	63	28
337.819	337.923	66	33
337.819	337.923	71	44
337.819	337.923	75	56
338.027	338.132	54	42
338.027	338.132	75	44
338.027	338.132	78	56
338.237	338.342	59	30
338.237	338.342	63	36
338.237	338.342	78	46
338.237	338.342	83	58
338.447	338.55	49	36
338.447	338.55	83	48
338.447	338.55	87	60
338.653	338.759	63	30
338.653	338.759	66	36
338.653	338.759	87	49
338.653	338.759	90	62
338.865	338.969	54	42
338.865	338.969	73	51
338.865	338.969	82	51
338.865	338.969	85	64
339.073	339.177	58	30
339.073	339.177	61	36
339.073	339.177	78	44
339.073	339.177	82	55
339.28	339.385	49	36
339.28	339.385	73	44
339.28	339.385	78	55
339.491	339.597	61	30
339.491	339.597	66	36
339.491	339.597	70	44
339.491	339.597	73	55
339.704	339.809	54	42
339.704	339.809	73	45
339.704	339.809	78	57
339.913	340.017	58	30
339.913	340.017	61	37
339.913	340.017	78	44
339.913	340.017	82	56
340.122	340.227	49	37
340.122	340.332	73	49
340.122	340.332	78	49
340.122	340.332	82	49
340.122	340.332	85	62
340.332	340.437	61	31
340.332	340.437	66	37
340.464	340.646	75	49
340.49	340.646	78	49
340.516	340.646	83	49
340.543	340.646	54	42
340.543	340.646	87	64
340.75	340.853	59	29
340.75	340.853	63	35
340.75	340.853	78	44
340.75	340.853	83	56
340.957	341.063	49	33
340.957	341.063	75	44
340.957	341.063	78	56
341.169	341.272	63	28
341.169	341.272	66	33
341.169	341.272	71	44
341.169	341.272	75	56
341.376	341.48	54	42
341.376	341.48	75	44
341.376	341.48	78	56
341.583	341.687	59	30
341.583	341.687	63	36
341.583	341.687	78	46
341.583	341.687	83	58
341.791	341.892	49	36
341.791	341.892	83	48
341.791	341.892	87	60
341.994	342.096	63	30
341.994	342.096	66	36
341.994	342.096	87	49
341.994	342.096	90	62
342.199	342.303	54	42
342.199	342.303	82	51
342.199	342.303	85	64
342.407	342.51	58	30
342.407	342.51	61	36
342.407	342.51	78	44
342.407	342.51	82	55
342.613	342.719	49	36
342.613	342.719	73	44
342.613	342.719	78	55
342.824	342.932	61	30
342.824	342.932	66	36
342.824	342.932	70	44
342.824	342.932	73	55
343.039	343.144	54	42
343.039	343.144	73	45
343.039	343.144	78	57
343.248	343.353	58	30
343.248	343.353	61	37
343.248	343.353	78	44
343.248	343.353	82	56
343.457	343.563	49	37
343.457	343.668	73	49
343.457	343.668	78	49
343.457	343.668	82	49
343.457	343.668	85	62
343.668	343.773	61	31
343.668	343.773	66	37
343.878	344.297	56	42
343.878	344.297	84	65
343.98	344.183	97	50
344.082	344.297	61	31
344.082	344.297	65	37
344.082	344.297	85	59
344.183	344.297	97	50
344.284	344.689	49	42
344.284	344.689	83	65
344.384	344.584	97	50
344.485	344.689	61	31
344.485	344.689	65	37
344.485	344.689	85	60
344.584	344.689	97	50
344.689	345.094	68	42
344.689	345.094	84	65
344.788	344.986	97	50
344.887	345.094	73	31
344.887	345.094	77	37
344.887	345.094	85	59
344.986	345.094	97	50
345.086	345.482	61	42
345.086	345.482	83	65
345.185	345.383	97	50
345.284	345.482	73	31
345.284	345.482	77	37
345.284	345.482	85	60
345.383	345.482	97	50
345.482	345.898	54	42
345.482	345.898	84	65
345.584	345.787	97	50
345.685	345.898	58	31
345.685	345.898	61	31
345.685	345.898	66	37
345.685	345.898	85	59
345.787	345.898	97	50
345.888	346.293	49	42
345.888	346.293	82	65
345.988	346.188	97	50
346.088	346.293	58	31
346.088	346.293	61	31
346.088	346.293	66	37
346.088	346.293	85	60
346.188	346.293	97	50
346.293	346.698	70	42
346.293	346.698	84	65
346.392	346.59	97	50
346.491	346.698	73	31
346.491	346.698	78	37
346.491	346.698	85	59
346.59	346.698	97	50
346.689	347.086	66	42
346.689	347.086	82	65
346.788	346.987	97	50
346.887	347.086	73	31
346.887	347.086	78	37
346.887	347.086	85	60
346.987	347.086	97	50
347.086	347.505	56	42
347.086	347.505	84	65
347.188	347.391	97	50
347.289	347.505	61	31
347.289	347.505	65	37
347.289	347.505	85	59
347.391	347.505	97	50
347.491	347.897	49	42
347.491	347.897	83	56
347.491	347.897	89	65
347.592	347.792	97	50
347.692	347.897	61	31
347.692	347.897	65	37
347.692	347.897	85	60
347.792	347.897	97	50
347.897	348.301	68	42
347.897	348.301	84	65
347.996	348.194	97	50
348.095	348.301	73	31
348.095	348.301	77	37
348.095	348.301	85	59
348.194	348.301	97	50
348.293	348.689	61	42
348.293	348.689	83	55
348.293	348.689	89	65
348.392	348.59	97	50
348.491	348.689	73	31
348.491	348.689	77	37
348.491	348.689	85	60
348.59	348.689	97	50
348.689	349.105	54	42
348.689	349.105	84	65
348.791	348.994	97	50
348.893	349.105	58	31
348.893	349.105	61	31
348.893	349.105	66	37
348.893	349.105	85	59
348.994	349.105	97	50
349.095	349.501	49	42
349.095	349.501	82	53
349.095	349.501	90	65
349.196	349.396	97	50
349.296	349.501	58	31
349.296	349.501	61	31
349.296	349.501	66	37
349.296	349.501	85	60
349.396	349.501	97	50
349.501	349.905	70	42
349.501	349.905	84	65
349.6	349.798	97	50
349.699	349.905	73	31
349.699	349.905	78	37
349.699	349.905	85	59
349.798	349.905	97	50
349.897	350.293	66	42
349.897	350.293	82	58
349.897	350.293	90	65
349.996	350.194	97	50
350.095	350.293	73	31
350.095	350.293	78	37
350.095	350.293	85	60
350.194	350.293	97	50
350.293	351.07	66	42
350.293	351.07	87	65
350.391	350.586	97	47
350.488	351.081	71	31
350.488	350.875	75	37
350.488	350.875	83	60
350.586	350.779	97	47
350.683	351.081	61	42
350.683	351.081	82	60
350.779	350.972	97	47
350.875	351.081	75	31
350.875	351.081	78	37
350.875	351.081	83	62
350.972	351.081	97	47
351.07	351.849	66	42
351.07	351.648	87	65
351.166	351.359	97	48
351.263	351.648	75	31
351.263	351.648	78	37
351.263	351.849	83	62
351.359	351.552	97	47
351.456	351.849	71	42
351.456	351.849	90	65
351.552	351.749	97	46
351.648	351.849	75	31
351.648	351.849	78	37
351.648	351.849	87	61
351.749	351.849	97	48
351.849	352.626	66	42
351.849	352.626	85	65
351.947	352.141	97	47
352.044	352.637	70	31
352.044	352.431	73	37
352.044	352.431	82	60
352.141	352.335	97	47
352.239	352.637	61	42
352.239	352.637	81	60
352.335	352.528	97	47
352.431	352.637	73	31
352.431	352.637	78	37
352.431	352.637	82	62
352.528	352.637	97	47
352.626	353.405	66	42
352.626	353.204	85	65
352.722	352.915	97	48
352.819	353.204	73	31
352.819	353.204	78	37
352.819	353.405	82	62
352.915	353.108	97	47
353.012	353.405	70	42
353.012	353.405	90	65
353.108	353.305	97	46
353.204	353.405	73	31
353.204	353.405	78	37
353.204	353.405	85	61
353.305	353.405	97	48
353.405	354.182	66	42
353.405	354.182	87	65
353.503	353.697	97	47
353.6	354.193	71	31
353.6	353.987	75	37
353.6	353.987	83	60
353.697	353.891	97	47
353.795	354.193	61	42
353.795	354.193	82	60
353.891	354.084	97	47
353.987	354.193	75	31
353.987	354.193	78	37
353.987	354.193	83	62
354.084	354.193	97	47
354.182	354.961	66	42
354.182	354.76	87	65
354.278	354.471	97	48
354.375	354.76	75	31
354.375	354.76	78	37
354.375	354.961	83	62
354.471	354.664	97	47
354.568	354.961	71	42
354.568	354.961	90	65
354.664	354.861	97	46
354.76	354.961	75	31
354.76	354.961	78	37
354.76	354.961	87	61
354.861	354.961	97	48
354.961	355.738	66	42
354.961	355.738	85	65
355.059	355.253	97	47
355.156	355.749	70	31
355.156	355.543	73	37
355.156	355.543	82	60
355.253	355.447	97	47
355.351	355.749	61	42
355.351	355.749	81	60
355.447	355.64	97	47
355.543	355.749	73	31
355.543	355.749	78	37
355.543	355.749	82	62
355.64	355.749	97	47
355.738	356.528	66	42
355.738	356.316	85	65
355.834	356.027	97	48
355.931	356.316	73	31
355.931	356.316	78	37
355.931	356.528	82	62
356.027	356.22	97	47
356.124	356.528	70	42
356.124	356.528	90	65
356.22	356.417	97	46
356.316	356.528	73	31
356.316	356.528	78	37
356.316	356.528	85	61
356.417	356.528	97	48
356.517	356.755	83	55
356.517	356.755	89	65
356.611	356.755	97	48
356.657	356.755	60	42
356.704	356.798	61	48
356.704	356.821	85	52
356.704	356.821	92	62
356.798	356.891	97	47
356.891	357.151	83	55
356.891	357.151	89	65
356.986	357.151	97	46
357.034	357.151	64	48
357.081	357.179	65	49
357.081	357.204	85	51
357.081	357.204	92	61
357.179	357.278	97	48
357.278	357.515	83	55
357.278	357.515	89	65
357.371	357.515	97	48
357.418	357.515	69	50
357.465	357.558	70	51
357.465	357.582	85	52
357.465	357.582	92	62
357.558	357.652	97	47
357.652	357.913	83	55
357.652	357.913	89	65
357.747	357.913	97	46
357.795	357.913	67	42
357.842	357.943	68	49
357.842	357.968	85	51
357.842	357.968	92	61
357.943	358.04	97	48
358.04	358.276	82	55
358.04	358.276	90	65
358.133	358.276	97	48
358.179	358.276	65	42
358.226	358.319	66	50
358.226	358.342	85	52
358.226	358.342	94	62
358.319	358.412	97	47
358.366	358.412	64	42
358.412	358.675	65	48
358.412	358.675	82	55
358.412	358.675	90	65
358.508	358.675	97	46
358.556	358.675	63	42
358.603	358.704	64	54
358.603	358.729	85	51
358.603	358.729	94	61
358.704	358.804	97	48
358.804	359.043	82	55
358.804	359.043	90	65
358.898	359.043	97	48
358.945	359.043	62	42
358.992	359.086	63	49
358.992	359.11	85	52
358.992	359.11	94	62
359.086	359.181	97	47
359.133	359.181	61	42
359.181	359.444	62	49
359.181	359.444	82	55
359.181	359.444	90	65
359.277	359.444	97	46
359.325	359.444	60	54
359.373	359.473	61	56
359.373	359.498	85	51
359.373	359.498	94	61
359.473	359.574	97	48
359.574	359.811	83	55
359.574	359.811	89	65
359.667	359.811	97	48
359.714	359.811	60	42
359.761	359.854	61	48
359.761	359.878	85	52
359.761	359.878	92	62
359.854	359.948	97	47
359.948	360.207	83	55
359.948	360.207	89	65
360.043	360.207	97	46
360.09	360.207	64	48
360.138	360.236	65	49
360.138	360.261	85	51
360.138	360.261	92	61
360.236	360.334	97	48
360.334	360.572	83	55
360.334	360.572	89	65
360.428	360.572	97	48
360.475	360.572	69	50
360.521	360.615	70	51
360.521	360.638	85	52
360.521	360.638	92	62
360.615	360.708	97	47
360.708	360.97	83	55
360.708	360.97	89	65
360.804	360.97	97	46
360.851	360.97	67	42
360.899	360.999	68	49
360.899	361.024	85	51
360.899	361.024	92	61
360.999	361.1	97	48
361.1	361.339	82	55
361.1	361.339	90	65
361.194	361.339	97	48
361.241	361.339	65	42
361.288	361.382	66	50
361.288	361.405	85	52
361.288	361.405	94	62
361.382	361.476	97	47
361.429	361.476	64	42
361.476	361.738	65	48
361.476	361.738	82	55
361.476	361.738	90	65
361.572	361.738	97	46
361.619	361.738	63	42
361.667	361.768	64	54
361.667	361.793	85	51
361.667	361.793	94	61
361.768	361.868	97	48
361.868	362.107	82	55
361.868	362.107	90	65
361.962	362.107	97	48
362.009	362.107	62	42
362.056	362.15	63	49
362.056	362.174	85	52
362.056	362.174	94	62
362.15	362.244	97	47
362.197	362.244	61	42
362.244	362.508	62	49
362.244	362.508	82	55
362.244	362.508	90	65
362.341	362.508	97	46
362.389	362.508	60	54
362.437	362.537	61	56
362.437	362.562	85	51
362.437	362.562	94	61
362.537	362.637	97	48
362.637	363.412	56	42
362.637	363.003	83	55
362.637	363.003	89	65
362.729	362.912	97	48
362.82	363.192	61	37
362.82	363.192	65	37
362.82	363.192	85	52
362.82	363.192	92	62
362.912	363.098	97	47
363.003	363.412	49	42
363.003	363.4	83	55
363.003	363.4	89	65
363.098	363.296	97	46
363.192	363.412	61	37
363.192	363.412	65	37
363.192	363.412	85	51
363.192	363.412	92	61
363.296	363.412	97	48
363.4	363.833	68	37
363.4	363.841	72	42
363.4	363.841	83	55
363.4	363.833	89	65
363.501	363.711	97	48
363.602	363.841	65	37
363.602	363.841	73	37
363.602	363.833	85	52
363.602	363.841	92	62
363.711	363.841	97	47
363.833	364.262	68	42
363.833	364.262	71	48
363.833	364.262	77	55
363.833	364.262	85	55
363.833	364.262	89	65
364.143	364.262	65	37
364.143	364.262	73	37
364.251	365.035	54	42
364.251	364.626	82	55
364.251	364.626	90	65
364.345	364.532	97	48
364.439	364.815	61	37
364.439	364.815	66	37
364.439	364.815	85	52
364.439	364.815	94	62
364.532	364.72	97	47
364.626	365.035	49	42
364.626	365.023	82	55
364.626	365.023	90	65
364.72	364.919	97	46
364.815	365.035	61	37
364.815	365.035	66	37
364.815	365.035	85	51
364.815	365.035	94	61
364.919	365.035	97	48
365.023	365.464	69	37
365.023	365.464	72	42
365.023	365.464	82	55
365.023	365.456	90	65
365.124	365.335	97	48
365.225	365.456	70	37
365.225	365.464	73	37
365.225	365.456	85	52
365.225	365.464	94	62
365.335	365.464	97	47
365.456	365.892	66	42
365.456	365.892	70	48
365.456	365.892	78	55
365.456	365.892	85	55
365.456	365.892	90	65
365.767	365.892	73	37
365.881	366.668	56	42
365.881	366.26	83	55
365.881	366.26	89	65
365.976	366.165	97	48
366.07	366.448	61	37
366.07	366.448	65	37
366.07	366.448	85	52
366.07	366.448	92	62
366.165	366.354	97	47
366.26	366.668	49	42
366.26	366.656	83	55
366.26	366.656	89	65
366.354	366.552	97	46
366.448	366.668	61	37
366.448	366.668	65	37
366.448	366.668	85	51
366.448	366.668	92	61
366.552	366.668	97	48
366.656	367.089	68	37
366.656	367.097	72	42
366.656	367.097	83	55
366.656	367.089	89	65
366.757	366.968	97	48
366.858	367.097	65	37
366.858	367.097	73	37
366.858	367.089	85	52
366.858	367.097	92	62
366.968	367.097	97	47
367.089	367.518	68	42
367.089	367.518	71	48
367.089	367.518	77	55
367.089	367.518	85	55
367.089	367.518	89	65
367.4	367.518	65	37
367.4	367.518	73	37
367.507	368.316	54	42
367.507	367.887	82	55
367.507	367.887	90	65
367.602	367.792	97	48
367.697	368.081	61	37
367.697	368.081	66	37
367.697	368.081	85	52
367.697	368.081	94	62
367.792	367.984	97	47
367.887	368.316	49	42
367.887	368.304	82	55
367.887	368.304	90	65
367.984	368.193	97	46
368.081	368.316	61	37
368.081	368.316	66	37
368.081	368.316	85	51
368.081	368.316	94	61
368.193	368.316	97	48
368.304	368.762	69	37
368.304	368.762	72	42
368.304	368.762	82	55
368.304	368.753	90	65
368.408	368.627	97	48
368.513	368.753	70	37
368.513	368.762	73	37
368.513	368.753	85	52
368.513	368.762	94	62
368.627	368.762	97	47
368.753	369.338	66	42
368.753	369.143	70	48
368.753	369.338	78	55
368.753	369.338	85	55
368.753	369.338	90	65
369.118	369.338	73	37
369.181	369.338	83	66
369.245	369.367	56	42
369.245	369.367	99	82
369.488	369.606	61	30
369.488	369.606	65	30
369.488	369.606	71	36
369.724	369.833	49	36
369.724	370.372	80	65
369.943	370.053	61	30
369.943	370.053	65	30
369.943	370.053	71	36
370.163	370.268	56	42
370.372	370.476	61	36
370.372	370.476	65	36
370.372	370.476	71	36
370.372	370.476	82	65
370.58	370.683	49	36
370.58	370.683	83	69
370.785	370.887	61	30
370.785	370.887	65	30
370.785	370.887	71	36
370.785	370.887	80	65
370.941	371.128	82	63
370.995	371.128	54	42
370.995	371.128	97	83
371.202	371.305	61	28
371.202	371.305	66	28
371.202	371.305	70	34
371.409	371.512	49	34
371.409	372.022	78	65
371.615	371.717	61	28
371.615	371.717	66	28
371.615	371.717	70	34
371.819	371.921	54	42
372.022	372.122	61	30
372.022	372.122	66	30
372.022	372.122	70	36
372.022	372.122	80	65
372.222	372.32	49	36
372.222	372.32	82	69
372.419	372.518	61	30
372.419	372.518	66	30
372.419	372.518	70	36
372.419	372.518	78	59
372.617	372.716	56	42
372.617	372.716	77	65
372.816	372.913	61	28
372.816	372.913	65	28
372.816	372.913	71	34
372.816	372.913	78	61
373.01	373.106	49	34
373.01	373.106	80	65
373.202	373.298	61	28
373.202	373.298	65	28
373.202	373.298	71	34
373.202	373.298	82	61
373.393	373.492	56	42
373.393	373.492	83	65
373.59	373.686	61	31
373.59	373.686	65	31
373.59	373.686	71	37
373.59	373.686	85	60
373.78	373.875	49	37
373.78	373.875	87	65
373.97	374.064	61	30
373.97	374.064	65	30
373.97	374.064	71	36
373.97	374.064	89	59
374.112	374.159	90	61
374.135	374.213	92	61
374.159	374.256	54	42
374.159	374.256	90	75
374.353	374.447	61	33
374.353	374.447	66	33
374.353	374.447	70	39
374.353	374.447	89	65
374.541	374.634	49	39
374.541	374.634	90	71
374.728	374.822	61	33
374.728	374.822	66	33
374.728	374.822	70	39
374.728	374.822	92	65
374.918	375.012	54	42
374.918	375.012	94	73
375.105	375.198	61	32
375.105	375.198	66	32
375.105	375.198	70	38
375.105	375.198	92	65
375.292	375.387	49	38
375.292	375.387	94	73
375.481	375.576	61	32
375.481	375.576	66	32
375.481	375.576	70	38
375.481	375.576	90	65
375.639	375.803	83	50
375.66	375.803	89	54
375.681	375.803	92	57
375.703	375.813	56	42
375.703	375.813	99	82
375.924	376.035	61	30
375.924	376.035	65	30
375.924	376.035	71	36
376.146	376.251	49	36
376.146	376.772	77	55
376.146	376.772	80	65
376.356	376.462	61	30
376.356	376.462	65	30
376.356	376.462	71	36
376.567	376.669	56	42
376.772	376.871	61	36
376.772	376.871	65	36
376.772	376.871	71	36
376.772	376.871	78	56
376.772	376.871	82	66
376.971	377.067	49	36
376.971	377.067	80	59
376.971	377.067	83	70
377.164	377.261	61	30
377.164	377.261	65	30
377.164	377.261	71	37
377.164	377.261	77	56
377.164	377.261	80	66
377.314	377.455	82	46
377.332	377.455	85	58
377.35	377.455	90	61
377.368	377.47	54	43
377.368	377.47	97	85
377.572	377.673	61	29
377.572	377.673	66	29
377.572	377.673	70	35
377.775	377.875	49	35
377.775	378.383	70	57
377.775	378.383	78	67
377.976	378.077	61	29
377.976	378.077	66	35
378.179	378.281	54	44
378.383	378.481	61	31
378.383	378.481	66	38
378.383	378.481	71	58
378.383	378.481	80	68
378.579	378.676	49	38
378.579	378.676	73	61
378.579	378.676	82	73
378.773	378.87	61	32
378.773	378.87	66	38
378.773	378.87	70	53
378.773	378.87	78	63
378.967	379.067	56	44
378.967	379.067	68	58
378.967	379.067	77	69
379.167	379.263	59	29
379.167	379.263	61	29
379.167	379.263	65	36
379.167	379.263	70	54
379.167	379.263	78	65
379.358	379.453	49	36
379.358	379.453	71	59
379.358	379.453	80	70
379.547	379.642	59	30
379.547	379.642	61	30
379.547	379.642	65	36
379.547	379.642	73	55
379.547	379.642	82	65
379.737	379.835	56	45
379.737	379.835	75	59
379.737	379.835	83	70
379.934	380.028	59	33
379.934	380.028	61	33
379.934	380.028	65	40
379.934	380.028	77	55
379.934	380.028	85	65
380.122	380.215	49	40
380.122	380.215	78	60
380.122	380.215	87	71
380.308	380.401	59	33
380.308	380.401	61	33
380.308	380.401	65	39
380.308	380.401	80	55
380.308	380.401	89	64
380.494	380.591	54	46
380.494	380.591	82	69
380.494	380.591	90	83
380.688	380.78	61	36
380.688	380.78	66	36
380.688	380.78	70	43
380.688	380.78	80	61
380.688	380.78	89	72
380.872	380.964	49	43
380.872	380.964	82	67
380.872	380.964	90	79
381.056	381.15	61	36
381.056	381.15	66	36
381.056	381.15	70	43
381.056	381.15	83	61
381.056	381.15	92	72
381.244	381.338	54	47
381.244	381.338	85	70
381.244	381.338	94	82
381.43	381.522	61	36
381.43	381.522	66	36
381.43	381.522	70	42
381.43	381.522	83	62
381.43	381.522	92	73
381.614	381.706	49	43
381.614	381.706	85	70
381.614	381.706	94	83
381.798	381.89	61	36
381.798	381.89	66	36
381.798	381.89	70	43
381.798	381.89	82	62
381.798	381.89	90	74
381.936	382.126	87	58
381.968	382.126	94	62
381.999	382.126	51	53
381.999	382.126	102	93
382.221	382.332	56	37
382.221	382.332	60	37
382.221	382.332	66	44
382.442	382.858	44	48
382.442	383.13	66	65
382.442	383.13	75	77
382.65	382.858	56	37
382.65	382.858	60	44
382.858	383.13	54	52
383.058	383.159	56	36
383.058	383.159	60	43
383.058	383.159	68	63
383.058	383.159	77	75
383.257	383.352	44	48
383.257	383.352	70	66
383.257	383.352	78	78
383.447	383.541	56	37
383.447	383.541	60	44
383.447	383.541	66	60
383.447	383.541	75	71
383.588	383.62	85	58
383.62	383.652	92	62
383.652	383.763	49	53
383.652	383.763	101	93
383.873	383.984	56	37
383.873	383.984	61	37
383.873	383.984	65	44
384.095	384.51	44	48
384.095	384.782	65	65
384.095	384.782	73	77
384.303	384.51	56	37
384.303	384.51	61	44
384.51	384.611	49	52
384.711	384.812	56	36
384.711	384.812	61	43
384.711	384.812	66	63
384.711	384.812	75	75
384.909	385.007	44	48
384.909	385.007	68	66
384.909	385.007	77	78
385.104	385.202	56	37
385.104	385.202	61	44
385.104	385.202	65	60
385.104	385.202	73	71
385.299	385.403	51	52
385.299	385.403	63	59
385.299	385.403	72	70
385.494	385.59	54	38
385.494	385.59	56	38
385.494	385.59	60	45
385.494	385.59	65	61
385.494	385.59	73	72
385.686	385.808	44	45
385.686	385.808	66	62
385.686	385.808	75	74
385.877	385.973	54	38
385.877	385.973	56	38
385.877	385.973	60	45
385.877	385.973	68	65
385.877	385.973	77	77
386.069	386.165	51	54
386.069	386.165	70	67
386.069	386.165	78	79
386.261	386.355	56	39
386.261	386.355	60	47
386.261	386.355	66	47
386.261	386.355	72	63
386.261	386.355	80	75
386.449	386.543	44	47
386.449	386.543	73	65
386.449	386.543	82	77
386.636	386.73	60	39
386.636	386.73	63	46
386.636	386.73	75	68
386.636	386.73	84	80
386.823	387.207	49	56
386.823	387.199	77	69
386.823	387.199	85	82
387.01	387.207	56	43
387.01	387.207	61	43
387.01	387.207	65	51
387.01	387.207	75	67
387.01	387.207	84	79
387.199	387.589	44	51
387.199	387.589	77	67
387.199	387.589	85	79
387.388	387.589	56	43
387.388	387.589	61	51
387.388	387.589	78	68
387.388	387.589	87	80
387.579	387.961	49	57
387.579	387.952	80	73
387.579	387.952	89	87
387.765	387.961	56	43
387.765	387.961	61	43
387.765	387.961	65	51
387.765	387.961	78	68
387.765	387.961	87	80
387.952	388.221	44	51
387.952	388.221	80	73
387.952	388.221	89	87
388.141	388.238	56	43
388.141	388.238	61	51
388.141	388.238	77	68
388.141	388.238	85	80
388.286	388.633	87	58
388.318	388.633	94	62
388.35	388.633	51	55
388.35	388.633	102	97
388.571	388.682	56	38
388.571	388.682	60	38
388.571	388.682	66	46
388.793	389.208	44	50
388.793	389.476	66	68
388.793	389.476	75	80
389.0	389.208	56	38
389.0	389.208	60	46
389.208	389.476	51	54
389.406	389.504	56	38
389.406	389.504	60	45
389.406	389.504	68	66
389.406	389.504	77	79
389.6	389.693	44	50
389.6	389.693	70	69
389.6	389.693	78	82
389.787	389.881	56	39
389.787	389.881	60	46
389.787	389.881	66	63
389.787	389.881	75	75
389.928	389.959	85	61
389.959	389.991	92	65
389.991	390.102	49	56
389.991	390.102	101	98
390.213	390.323	56	39
390.213	390.323	61	39
390.213	390.323	65	46
390.434	390.843	44	51
390.434	391.11	65	69
390.434	391.11	73	82
390.639	390.843	56	39
390.639	390.843	61	47
390.843	390.942	49	55
391.04	391.139	56	38
391.04	391.139	61	46
391.04	391.139	66	67
391.04	391.139	75	80
391.234	391.328	44	51
391.234	391.328	68	70
391.234	391.328	77	83
391.423	391.517	56	39
391.423	391.517	61	47
391.423	391.517	65	64
391.423	391.517	73	76
391.611	391.71	51	56
391.611	391.71	63	63
391.611	391.71	72	75
391.797	391.889	54	41
391.797	391.889	56	41
391.797	391.889	60	48
391.797	391.889	65	65
391.797	391.889	73	77
391.982	392.101	44	48
391.982	392.101	66	66
391.982	392.101	75	79
392.169	392.262	54	41
392.169	392.262	56	41
392.169	392.262	60	48
392.169	392.262	68	70
392.169	392.262	77	83
392.355	392.447	51	58
392.355	392.447	70	73
392.355	392.447	78	86
392.539	392.63	56	42
392.539	392.63	60	51
392.539	392.63	66	51
392.539	392.63	72	68
392.539	392.63	80	81
392.721	392.812	44	51
392.721	392.812	73	70
392.721	392.812	82	83
392.902	392.991	60	42
392.902	392.991	63	50
392.902	392.991	75	74
392.902	392.991	84	87
393.081	393.419	49	51
393.081	393.419	56	51
393.081	393.419	61	60
393.081	393.419	73	73
393.081	393.419	77	73
393.081	393.419	85	87
393.259	393.419	50	40
393.259	393.419	62	48
393.259	393.419	72	64
393.259	393.419	84	76
393.441	393.772	48	51
393.441	393.772	60	60
393.441	393.772	74	73
393.441	393.772	86	87
393.617	393.772	49	41
393.617	393.772	61	49
393.617	393.772	73	64
393.617	393.772	85	76
393.798	394.123	47	52
393.798	394.123	59	61
393.798	394.123	75	74
393.798	394.123	87	88
393.973	394.123	48	44
393.973	394.123	60	52
393.973	394.123	74	64
393.973	394.123	86	77
394.153	394.461	46	52
394.153	394.461	58	61
394.153	394.461	76	75
394.153	394.461	88	89
394.328	394.461	47	44
394.328	394.461	59	53
394.328	394.461	75	66
394.328	394.461	87	79
394.508	394.836	45	53
394.508	394.836	57	63
394.508	394.836	77	76
394.508	394.836	89	91
394.682	394.836	46	46
394.682	394.836	58	54
394.682	394.836	76	66
394.682	394.836	88	78
394.862	395.137	44	54
394.862	395.137	56	63
394.862	395.137	78	77
394.862	395.137	90	92
395.035	395.137	45	46
395.035	395.137	57	55
395.035	395.137	77	67
395.035	395.137	89	80
395.214	395.517	43	54
395.214	395.517	55	64
395.214	395.517	79	78
395.214	395.517	91	93
395.384	395.517	44	46
395.384	395.517	56	55
395.384	395.517	78	69
395.384	395.517	90	82
395.559	395.872	42	55
395.559	395.872	54	64
395.559	395.872	80	78
395.559	395.872	92	93
395.728	395.872	43	46
395.728	395.872	55	55
395.728	395.872	79	68
395.728	395.872	91	81
395.9	396.215	41	56
395.9	396.215	53	66
395.9	396.215	81	80
395.9	396.215	93	95
396.068	396.215	42	48
396.068	396.215	54	57
396.068	396.215	80	69
396.068	396.215	92	82
396.24	396.539	40	56
396.24	396.539	52	66
396.24	396.539	82	81
396.24	396.539	94	96
396.407	396.539	41	48
396.407	396.539	53	57
396.407	396.539	81	68
396.407	396.539	93	82
396.576	396.866	39	57
396.576	396.866	51	67
396.576	396.866	83	81
396.576	396.866	95	97
396.742	396.866	40	49
396.742	396.866	52	58
396.742	396.866	82	71
396.742	396.866	94	84
396.911	397.186	38	57
396.911	397.186	50	67
396.911	397.186	83	82
396.911	397.186	95	98
397.077	397.186	39	50
397.077	397.186	51	59
397.077	397.186	84	70
397.077	397.186	96	84
397.253	397.591	37	60
397.253	397.591	49	71
397.253	397.591	85	86
397.253	397.591	89	86
397.253	397.591	97	102
397.419	397.622	38	54
397.419	397.622	50	64
397.419	397.622	84	80
397.419	397.622	96	95
397.591	397.926	37	61
397.591	397.926	44	61
397.591	397.926	49	72
397.591	397.926	85	86
397.591	397.926	89	86
397.591	397.926	97	102
397.756	397.93	38	56
397.756	397.93	50	66
397.756	397.93	84	80
397.756	397.93	90	80
397.756	397.93	96	95
397.926	398.265	37	60
397.926	398.265	44	60
397.926	398.265	49	71
397.926	398.265	85	86
397.926	398.265	89	86
397.926	398.265	97	102
398.092	398.297	38	54
398.092	398.297	50	64
398.092	398.297	84	80
398.092	398.297	90	80
398.092	398.297	96	95
398.265	398.611	37	61
398.265	398.611	44	61
398.265	398.611	49	72
398.265	398.611	85	86
398.265	398.611	89	86
398.265	398.611	97	102
398.434	398.615	38	56
398.434	398.615	50	66
398.434	398.615	84	80
398.434	398.615	90	80
398.434	398.615	96	95
398.611	398.809	37	60
398.611	398.809	44	60
398.611	398.809	49	71
398.611	398.809	85	86
398.611	398.809	89	86
398.611	398.809	97	102
398.785	398.968	48	56
398.785	398.968	60	67
398.785	398.968	72	68
398.785	398.968	84	81
398.954	399.138	49	61
398.954	399.138	61	72
398.954	399.138	73	74
398.954	399.138	85	88
399.124	399.308	48	56
399.124	399.308	60	67
399.124	399.308	72	68
399.124	399.308	84	81
399.293	399.385	49	61
399.293	399.385	61	73
399.293	399.385	73	74
399.293	399.385	85	88
399.476	399.664	36	56
399.476	399.664	48	67
399.476	399.664	60	62
399.476	399.664	72	74
399.649	399.838	37	61
399.649	399.838	49	72
399.649	399.838	61	68
399.649	399.838	73	80
399.822	400.009	36	56
399.822	400.009	48	67
399.822	400.009	60	61
399.822	400.009	72	72
400.009	400.705	37	70
400.009	400.705	49	82
400.009	400.528	61	77
400.009	400.528	73	93
400.182	400.355	53	55
400.182	400.528	56	66
400.182	400.355	65	64
400.182	400.528	68	76
400.355	400.705	41	64
400.355	400.705	53	75
400.355	400.705	65	71
400.355	400.705	77	84
400.528	400.705	56	55
400.528	400.705	61	66
400.528	400.705	68	64
400.528	400.705	73	76
400.705	401.394	46	76
400.705	401.394	58	90
400.705	401.394	70	85
400.705	401.394	82	100
400.877	401.049	61	55
400.877	401.049	65	66
400.877	401.049	73	64
400.877	401.049	77	76
401.049	401.394	61	55
401.049	401.394	65	66
401.049	401.394	73	64
401.049	401.394	77	76
401.222	401.394	44	67
401.222	401.394	56	80
401.222	401.394	68	77
401.222	401.394	80	92
401.394	401.878	42	57
401.394	401.893	46	57
401.394	402.078	49	72
401.394	402.078	54	85
401.394	401.878	66	64
401.394	401.893	70	64
401.394	402.078	73	81
401.394	402.078	78	96
401.564	402.078	41	63
401.564	402.078	53	75
401.564	402.078	65	74
401.564	402.078	77	88
401.733	402.078	40	63
401.733	402.078	52	75
401.733	402.078	64	74
401.733	402.078	76	88
401.864	402.078	39	60
401.864	402.078	63	69
401.878	402.078	42	62
401.878	402.078	66	71
401.893	402.078	46	64
401.893	402.078	70	73
401.908	402.078	51	78
401.908	402.078	75	89
402.078	402.779	38	62
402.078	402.779	50	74
402.078	402.779	62	74
402.078	402.779	74	88
402.205	402.593	37	55
402.205	402.593	61	63
402.219	402.779	42	57
402.219	402.779	66	67
402.233	402.779	46	58
402.233	402.779	70	70
402.247	402.593	49	74
402.247	402.593	73	83
402.421	402.779	36	59
402.421	402.779	48	75
402.421	402.779	60	76
402.421	402.779	72	91
402.593	402.779	37	61
402.593	402.779	49	72
402.593	402.779	61	74
402.593	402.779	73	88
402.779	403.474	37	70
402.779	403.474	49	82
402.779	403.298	61	77
402.779	403.298	73	93
402.952	403.125	53	55
402.952	403.298	56	55
402.952	403.125	65	64
402.952	403.298	68	76
403.125	403.474	41	64
403.125	403.474	53	75
403.125	403.474	65	71
403.125	403.474	77	84
403.298	403.474	56	55
403.298	403.474	61	55
403.298	403.474	68	64
403.298	403.474	73	76
403.474	404.164	46	76
403.474	404.164	58	90
403.474	404.164	70	85
403.474	404.164	82	100
403.647	403.819	61	55
403.647	403.819	65	66
403.647	403.819	73	64
403.647	403.819	77	76
403.819	404.164	61	55
403.819	404.164	65	66
403.819	404.164	73	64
403.819	404.164	77	76
403.992	404.164	44	67
403.992	404.164	56	80
403.992	404.164	68	77
403.992	404.164	80	92
404.164	404.674	42	57
404.164	404.674	46	57
404.164	404.674	49	72
404.164	404.858	54	85
404.164	404.674	66	64
404.164	404.674	70	64
404.164	404.674	73	81
404.164	404.858	78	96
404.334	404.866	41	63
404.334	404.866	53	75
404.334	404.866	65	74
404.334	404.866	77	88
404.503	404.866	39	63
404.503	404.866	51	75
404.503	404.866	63	74
404.503	404.866	75	88
404.674	404.866	37	50
404.674	404.858	42	52
404.674	404.858	46	55
404.674	404.858	49	66
404.674	404.866	61	58
404.674	404.858	66	60
404.674	404.858	70	61
404.674	404.858	73	74
404.858	405.631	42	67
404.858	405.238	46	67
404.858	405.238	49	67
404.858	405.238	54	79
404.858	405.631	66	74
404.858	405.238	70	74
404.858	405.238	73	74
404.858	405.238	78	89
405.238	405.631	46	61
405.238	405.631	49	61
405.238	405.631	54	61
405.238	405.631	58	72
405.238	405.631	70	68
405.238	405.631	73	68
405.238	405.631	78	68
405.238	405.631	82	80
405.631	406.358	37	51
405.631	405.821	49	61
405.631	406.358	83	55
405.631	406.001	89	55
405.727	405.911	97	56
405.821	406.358	49	65
405.821	406.358	61	77
405.821	406.18	85	57
405.821	406.18	92	57
405.911	406.091	97	59
406.001	406.358	44	51
406.001	406.358	84	60
406.001	406.358	89	60
406.007	406.358	56	61
406.091	406.269	97	61
406.18	406.358	53	67
406.18	406.358	65	80
406.18	406.358	85	63
406.18	406.358	92	63
406.269	406.358	97	64
406.358	406.902	49	54
406.358	406.902	61	65
406.358	406.902	83	66
406.358	406.708	89	66
406.446	406.622	97	67
406.534	406.902	58	73
406.534	406.902	70	87
406.534	406.881	85	69
406.534	406.881	92	69
406.622	406.795	97	69
406.708	406.902	84	68
406.708	406.902	89	68
406.795	406.902	97	67
406.881	407.054	56	64
406.881	407.054	68	75
406.881	406.968	85	67
406.881	406.968	92	67
406.968	407.054	97	66
407.054	407.408	54	71
407.054	407.408	66	84
407.054	407.408	82	71
407.054	407.396	90	71
407.139	407.309	97	64
407.223	407.408	53	58
407.223	407.408	65	70
407.223	407.408	85	67
407.223	407.408	94	67
407.309	407.408	97	63
407.396	407.747	52	58
407.396	407.747	64	70
407.396	407.747	84	68
407.396	407.743	90	68
407.481	407.654	97	62
407.566	407.747	51	58
407.566	407.747	63	70
407.566	407.747	85	68
407.566	407.747	94	68
407.654	407.747	97	61
407.743	408.095	50	71
407.743	408.095	62	85
407.743	408.095	82	69
407.743	408.083	90	69
407.827	407.997	97	60
407.911	408.095	49	58
407.911	408.095	61	69
407.911	408.095	85	63
407.911	408.095	94	63
407.997	408.095	97	58
408.083	408.434	46	58
408.083	408.434	58	69
408.083	408.434	84	61
408.083	408.434	90	61
408.168	408.344	97	57
408.253	408.434	42	58
408.253	408.434	54	69
408.253	408.434	85	61
408.253	408.434	94	61
408.344	408.434	97	56
408.434	409.152	37	57
408.434	408.616	49	67
408.434	409.152	83	60
408.434	408.795	89	60
408.525	408.706	97	60
408.616	409.152	49	71
408.616	409.152	61	84
408.616	408.974	85	61
408.616	408.974	92	61
408.706	408.885	97	62
408.795	409.152	44	53
408.795	409.152	84	62
408.795	409.152	89	62
408.801	409.152	56	64
408.885	409.063	97	63
408.974	409.152	53	70
408.974	409.152	65	82
408.974	409.152	85	64
408.974	409.152	92	64
409.063	409.152	97	66
409.152	409.696	49	54
409.152	409.696	61	65
409.152	409.696	83	66
409.152	409.503	89	66
409.24	409.416	97	67
409.328	409.696	58	73
409.328	409.696	70	87
409.328	409.676	85	69
409.328	409.676	92	69
409.416	409.589	97	69
409.503	409.696	84	68
409.503	409.696	89	68
409.589	409.696	97	67
409.676	409.848	56	64
409.676	409.848	68	75
409.676	409.762	85	67
409.676	409.762	92	67
409.762	409.848	97	66
409.848	410.202	54	71
409.848	410.202	66	84
409.848	410.202	82	71
409.848	410.19	90	71
409.933	410.104	97	64
410.017	410.202	53	58
410.017	410.202	65	70
410.017	410.202	85	67
410.017	410.202	94	67
410.104	410.202	97	63
410.19	410.541	52	58
410.19	410.541	64	70
410.19	410.541	84	68
410.19	410.537	90	68
410.275	410.449	97	62
410.36	410.541	51	58
410.36	410.541	63	70
410.36	410.541	85	68
410.36	410.541	94	68
410.449	410.541	97	61
410.537	410.889	50	64
410.537	410.889	62	76
410.537	410.877	82	69
410.537	410.877	90	69
410.621	410.791	97	59
410.705	410.889	49	55
410.705	410.889	61	66
410.705	410.889	85	61
410.705	410.889	94	61
410.791	410.889	97	56
410.877	411.238	48	54
410.877	411.238	60	65
410.877	411.238	82	58
410.877	411.238	90	58
410.962	411.138	97	52
411.047	411.238	49	52
411.047	411.238	61	63
411.047	411.238	85	57
411.047	411.238	94	57
411.138	411.238	97	50
411.228	411.978	56	42
411.228	411.576	83	55
411.228	411.576	89	65
411.315	411.489	97	48
411.402	411.758	61	37
411.402	411.758	65	37
411.402	411.758	71	37
411.402	411.758	85	52
411.402	411.758	92	62
411.489	411.667	97	47
411.576	411.978	49	42
411.576	411.966	83	55
411.576	411.966	89	65
411.667	411.862	97	46
411.758	411.978	61	37
411.758	411.978	65	37
411.758	411.978	71	37
411.758	411.978	85	51
411.758	411.978	92	61
411.862	411.978	97	48
411.966	412.399	68	37
411.966	412.407	72	42
411.966	412.407	83	55
411.966	412.399	89	65
412.067	412.278	97	48
412.168	412.407	65	37
412.168	412.407	73	37
412.168	412.399	85	52
412.168	412.407	92	62
412.278	412.407	97	47
412.399	412.828	68	42
412.399	412.828	71	48
412.399	412.828	77	55
412.399	412.828	85	55
412.399	412.828	89	65
412.71	412.828	65	37
412.71	412.828	73	37
412.817	413.585	54	42
412.817	413.179	82	55
412.817	413.179	90	65
412.907	413.088	97	48
412.998	413.365	61	37
412.998	413.365	66	37
412.998	413.365	70	37
412.998	413.365	85	52
412.998	413.365	94	62
413.088	413.272	97	47
413.179	413.585	49	42
413.179	413.573	82	55
413.179	413.573	90	65
413.272	413.469	97	46
413.365	413.585	61	37
413.365	413.585	66	37
413.365	413.585	70	37
413.365	413.585	85	51
413.365	413.585	94	61
413.469	413.585	97	48
413.573	414.014	69	37
413.573	414.014	72	42
413.573	414.014	82	55
413.573	414.006	90	65
413.674	413.885	97	48
413.775	414.006	70	37
413.775	414.014	73	37
413.775	414.006	85	52
413.775	414.014	94	62
413.885	414.014	97	47
414.006	414.435	66	42
414.006	414.435	70	48
414.006	414.435	78	55
414.006	414.435	85	55
414.006	414.435	90	65
414.317	414.435	73	37
414.424	415.2	56	42
414.424	414.792	83	55
414.424	414.792	89	65
414.516	414.7	97	48
414.608	414.98	61	37
414.608	414.98	65	37
414.608	414.98	71	37
414.608	414.98	85	52
414.608	414.98	92	62
414.7	414.886	97	47
414.792	415.2	49	42
414.792	415.188	83	55
414.792	415.188	89	65
414.886	415.084	97	46
414.98	415.2	61	37
414.98	415.2	65	37
414.98	415.2	71	37
414.98	415.2	85	51
414.98	415.2	92	61
415.084	415.2	97	48
415.188	415.621	68	37
415.188	415.629	72	42
415.188	415.629	83	55
415.188	415.621	89	65
415.289	415.5	97	48
415.39	415.629	65	37
415.39	415.629	73	37
415.39	415.621	85	52
415.39	415.629	92	62
415.5	415.629	97	47
415.621	416.05	68	42
415.621	416.05	71	48
415.621	416.05	77	55
415.621	416.05	85	55
415.621	416.05	89	65
415.932	416.05	65	37
415.932	416.05	73	37
416.039	416.866	54	42
416.039	416.418	82	55
416.039	416.418	90	65
416.134	416.323	97	48
416.229	416.619	61	37
416.229	416.619	66	37
416.229	416.619	70	37
416.229	416.619	85	52
416.229	416.619	94	62
416.323	416.519	97	47
416.418	416.866	49	42
416.418	416.852	82	55
416.418	416.852	90	65
416.519	416.735	97	46
416.619	416.866	61	37
416.619	416.866	66	37
416.619	416.866	70	37
416.619	416.866	85	51
416.619	416.866	94	61
416.735	416.866	97	48
416.852	417.356	69	37
416.852	417.356	72	42
416.852	417.356	82	55
416.852	417.347	90	65
416.97	417.21	97	48
417.088	417.347	70	37
417.088	417.356	73	37
417.088	417.347	85	52
417.088	417.356	94	62
417.21	417.356	97	47
417.347	417.786	66	42
417.347	417.786	70	48
417.347	417.786	78	55
417.347	417.786	85	55
417.347	417.786	90	65
417.719	417.786	73	37
417.846	418.64	66	42
417.846	418.64	87	65
417.952	418.156	97	47
418.057	418.651	71	31
418.057	418.446	75	37
418.057	418.446	83	60
418.156	418.351	97	47
418.255	418.651	61	42
418.255	418.651	82	60
418.351	418.542	97	47
418.446	418.651	75	31
418.446	418.651	78	37
418.446	418.651	83	62
418.542	418.651	97	47
418.64	419.366	66	42
418.64	419.184	87	65
418.732	418.914	97	48
418.823	419.184	75	31
418.823	419.184	78	37
418.823	419.366	83	62
418.914	419.095	97	47
419.005	419.366	71	42
419.005	419.366	90	65
419.095	419.275	97	46
419.184	419.366	75	31
419.184	419.366	78	37
419.184	419.366	87	61
419.275	419.366	97	48
419.366	420.061	66	42
419.366	420.061	85	65
419.453	419.627	97	47
419.54	420.07	70	31
419.54	419.886	73	37
419.54	419.886	82	60
419.627	419.8	97	47
419.715	420.07	61	42
419.715	420.07	81	60
419.8	419.971	97	47
419.886	420.07	73	31
419.886	420.07	78	37
419.886	420.07	82	62
419.971	420.07	97	47
420.061	420.74	66	42
420.061	420.569	85	65
420.145	420.314	97	48
420.23	420.569	73	31
420.23	420.569	78	37
420.23	420.74	82	62
420.314	420.484	97	47
420.399	420.74	70	42
420.399	420.74	90	65
420.484	420.655	97	46
420.569	420.74	73	31
420.569	420.74	78	37
420.569	420.74	85	61
420.655	420.74	97	48
420.74	421.414	66	42
420.74	421.414	87	65
420.825	420.995	97	47
420.91	421.424	71	31
420.91	421.246	75	37
420.91	421.246	83	60
420.995	421.163	97	47
421.079	421.424	61	42
421.079	421.424	82	60
421.163	421.329	97	47
421.246	421.424	75	31
421.246	421.424	78	37
421.246	421.424	83	62
421.329	421.424	97	47
421.414	422.088	66	42
421.414	421.917	87	65
421.498	421.665	97	48
421.581	421.917	75	31
421.581	421.917	78	37
421.581	422.088	83	62
421.665	421.833	97	47
421.749	422.088	71	42
421.749	422.088	90	65
421.833	422.003	97	46
421.917	422.088	75	31
421.917	422.088	78	37
421.917	422.088	87	61
422.003	422.088	97	48
422.088	422.764	66	42
422.088	422.764	85	65
422.171	422.339	97	47
422.255	422.774	70	31
422.255	422.588	73	37
422.255	422.588	82	60
422.339	422.505	97	47
422.422	422.774	61	42
422.422	422.774	81	60
422.505	422.672	97	47
422.588	422.774	73	31
422.588	422.774	78	37
422.588	422.774	82	62
422.672	422.774	97	47
422.764	423.506	66	42
422.764	423.506	85	65
422.853	423.032	97	48
422.943	423.31	73	31
422.943	423.31	78	37
422.943	423.506	82	62
423.032	423.218	97	47
423.126	423.506	70	42
423.126	423.506	90	65
423.218	423.506	97	46
423.31	423.506	73	31
423.31	423.506	78	37
423.486	423.571	49	46
423.486	423.571	56	42
423.654	423.736	51	48
423.654	423.736	65	28
423.654	423.736	71	33
423.819	423.902	53	50
423.819	423.902	61	36
423.986	424.07	54	53
423.986	424.07	65	28
423.986	424.07	71	33
424.112	424.154	58	50
424.154	424.237	56	55
424.319	424.402	55	46
424.319	424.402	65	28
424.319	424.402	71	33
424.484	424.565	56	50
424.484	424.565	61	38
424.647	424.73	53	46
424.647	424.73	65	28
424.647	424.73	71	33
424.814	424.896	54	46
424.814	424.896	58	42
424.978	425.061	56	48
424.978	425.061	66	28
424.978	425.061	70	33
425.144	425.226	58	50
425.144	425.226	61	36
425.31	425.394	59	53
425.31	425.394	66	28
425.31	425.394	70	33
425.436	425.478	63	50
425.478	425.56	58	44
425.478	425.56	61	55
425.643	425.725	60	46
425.643	425.725	66	28
425.643	425.725	70	33
425.807	425.889	61	50
425.971	426.056	58	46
425.971	426.056	66	28
425.971	426.056	70	33
426.14	426.222	56	44
426.14	426.222	59	55
426.262	426.303	62	50
426.303	426.345	63	46
426.303	426.345	65	28
426.303	426.345	71	33
426.471	426.552	56	50
426.471	426.552	61	38
426.593	426.633	58	50
426.633	426.675	59	46
426.633	426.675	65	28
426.633	426.675	71	33
426.802	426.882	53	55
426.802	426.882	56	44
426.923	426.963	55	50
426.963	427.005	56	46
426.963	427.005	65	28
426.963	427.005	71	33
427.132	427.213	49	50
427.132	427.213	61	38
427.253	427.293	52	50
427.293	427.336	53	46
427.293	427.336	65	28
427.293	427.336	71	33
427.462	427.543	54	55
427.462	427.543	58	44
427.583	427.623	57	50
427.623	427.665	58	46
427.623	427.665	66	28
427.623	427.665	70	33
427.792	427.873	49	50
427.792	427.873	61	38
427.914	427.955	53	50
427.955	427.998	54	46
427.955	427.998	66	28
427.955	427.998	70	33
428.127	428.209	46	55
428.127	428.209	58	44
428.25	428.29	48	50
428.29	428.335	49	46
428.29	428.335	66	28
428.29	428.335	70	33
428.468	428.551	42	50
428.468	428.551	61	38
428.634	428.676	66	28
428.634	428.676	70	33
428.803	428.888	56	42
428.803	428.888	61	40
428.803	428.888	73	48
428.969	429.051	59	28
428.969	429.051	63	42
428.969	429.051	65	33
428.969	429.051	75	50
429.133	429.215	49	36
429.133	429.215	65	44
429.133	429.215	77	52
429.298	429.381	59	28
429.298	429.381	61	33
429.298	429.381	66	47
429.298	429.381	78	55
429.423	429.465	82	52
429.465	429.546	56	44
429.465	429.546	68	48
429.465	429.546	80	57
429.628	429.709	59	28
429.628	429.709	65	33
429.628	429.709	67	40
429.628	429.709	79	48
429.791	429.872	49	38
429.791	429.872	68	44
429.791	429.872	80	52
429.954	430.037	59	28
429.954	430.037	61	33
429.954	430.037	65	40
429.954	430.037	77	48
430.121	430.202	54	42
430.121	430.202	66	40
430.121	430.202	78	48
430.284	430.365	58	28
430.284	430.365	66	33
430.284	430.365	68	42
430.284	430.365	80	50
430.447	430.528	49	36
430.447	430.528	70	44
430.447	430.528	82	52
430.612	430.696	58	28
430.612	430.696	61	33
430.612	430.696	71	47
430.612	430.696	83	55
430.738	430.78	90	52
430.78	430.862	54	44
430.78	430.862	73	48
430.78	430.862	85	57
430.943	431.025	58	28
430.943	431.025	66	33
430.943	431.025	72	40
430.943	431.025	84	48
431.106	431.188	49	38
431.106	431.188	73	44
431.106	431.188	85	52
431.269	431.354	58	28
431.269	431.354	61	33
431.269	431.354	70	40
431.269	431.354	82	48
431.439	431.519	75	50
431.439	431.519	83	66
431.441	431.521	56	44
431.559	431.599	86	60
431.599	431.64	59	28
431.599	431.64	65	33
431.599	431.64	87	55
431.764	431.844	49	38
431.764	431.844	71	50
431.764	431.844	80	60
431.884	431.924	82	60
431.924	431.965	59	28
431.924	431.965	61	33
431.924	431.965	83	55
432.089	432.169	56	44
432.089	432.169	68	50
432.089	432.169	77	66
432.209	432.249	79	60
432.249	432.29	59	28
432.249	432.29	65	33
432.249	432.29	80	55
432.414	432.493	49	38
432.414	432.493	65	50
432.414	432.493	73	60
432.533	432.572	76	60
432.572	432.613	59	28
432.572	432.613	61	33
432.572	432.613	77	55
432.736	432.816	54	44
432.736	432.816	70	50
432.736	432.816	78	66
432.856	432.896	81	60
432.896	432.937	58	28
432.896	432.937	66	33
432.896	432.937	82	55
433.061	433.142	49	38
433.061	433.142	66	50
433.061	433.142	73	60
433.183	433.224	77	60
433.224	433.268	58	28
433.224	433.268	61	33
433.224	433.268	78	55
433.4	433.484	54	44
433.4	433.484	61	50
433.4	433.484	70	66
433.526	433.568	72	60
433.568	433.612	58	28
433.568	433.612	66	33
433.568	433.612	73	55
433.745	433.831	49	38
433.745	433.916	58	50
433.745	434.089	66	60
433.916	434.089	58	28
433.916	433.959	61	33
434.089	434.192	44	46
434.089	434.192	51	42
434.286	434.373	46	48
434.286	434.373	60	28
434.286	434.373	66	33
434.459	434.545	48	50
434.459	434.545	56	36
434.628	434.711	49	53
434.628	434.711	60	28
434.628	434.711	66	33
434.752	434.794	53	50
434.794	434.875	51	55
434.957	435.038	50	46
434.957	435.038	60	28
434.957	435.038	66	33
435.12	435.201	51	50
435.12	435.201	56	38
435.283	435.366	48	46
435.283	435.366	60	28
435.283	435.366	66	33
435.45	435.531	49	46
435.45	435.531	53	42
435.612	435.693	51	48
435.612	435.693	61	28
435.612	435.693	65	33
435.774	435.855	53	50
435.774	435.855	56	36
435.938	436.021	54	53
435.938	436.021	61	28
435.938	436.021	65	33
436.063	436.104	58	50
436.104	436.185	53	44
436.104	436.185	56	55
436.265	436.346	55	46
436.265	436.346	61	28
436.265	436.346	65	33
436.427	436.507	56	50
436.588	436.672	53	46
436.588	436.672	61	28
436.588	436.672	65	33
436.757	436.837	51	44
436.757	436.837	54	55
436.878	436.918	57	50
436.918	436.959	58	46
436.918	436.959	60	28
436.918	436.959	66	33
437.084	437.164	51	50
437.084	437.164	56	38
437.204	437.244	53	50
437.244	437.285	54	46
437.244	437.285	60	28
437.244	437.285	66	33
437.409	437.489	48	55
437.409	437.489	51	44
437.529	437.569	50	50
437.569	437.611	51	46
437.569	437.611	60	28
437.569	437.611	66	33
437.737	437.818	44	50
437.737	437.818	56	38
437.858	437.898	47	50
437.898	437.94	48	46
437.898	437.94	60	28
437.898	437.94	66	33
438.067	438.147	49	55
438.067	438.147	53	44
438.188	438.228	52	50
438.228	438.27	53	46
438.228	438.27	61	28
438.228	438.27	65	33
438.396	438.478	44	50
438.396	438.478	56	38
438.519	438.56	48	50
438.56	438.603	49	46
438.56	438.603	61	28
438.56	438.603	65	33
438.732	438.814	41	55
438.732	438.814	53	44
438.855	438.895	43	50
438.895	438.94	44	46
438.895	438.94	61	28
438.895	438.94	65	33
439.073	439.156	37	50
439.073	439.156	56	38
439.239	439.281	61	28
439.239	439.281	65	33
439.407	439.495	51	46
439.407	439.495	68	44
439.407	439.495	72	44
439.407	439.495	80	52
439.581	439.665	56	30
439.581	439.665	60	30
439.581	439.665	66	36
439.581	439.665	70	46
439.581	439.665	73	46
439.581	439.665	82	55
439.749	439.832	44	39
439.749	439.832	72	48
439.749	439.832	75	48
439.749	439.832	84	57
439.914	439.996	56	30
439.914	439.996	60	30
439.914	439.996	66	36
439.914	439.996	73	51
439.914	439.996	77	51
439.914	439.996	85	60
440.079	440.159	51	48
440.079	440.159	75	52
440.079	440.159	78	52
440.079	440.159	87	62
440.24	440.321	56	30
440.24	440.321	60	30
440.24	440.321	66	36
440.24	440.321	74	44
440.24	440.321	77	44
440.24	440.321	86	52
440.401	440.482	44	41
440.401	440.482	75	48
440.401	440.482	78	48
440.401	440.482	87	57
440.563	440.646	56	30
440.563	440.646	60	30
440.563	440.646	66	36
440.563	440.646	72	44
440.563	440.646	75	44
440.563	440.646	84	52
440.73	440.81	49	46
440.73	440.81	73	44
440.73	440.81	77	44
440.73	440.81	85	52
440.89	440.97	56	30
440.89	440.97	61	30
440.89	440.97	65	36
440.89	440.97	75	46
440.89	440.97	80	46
440.89	440.97	87	55
441.051	441.131	44	39
441.051	441.131	77	48
441.051	441.131	85	48
441.051	441.131	89	57
441.213	441.296	56	30
441.213	441.296	61	30
441.213	441.296	65	36
441.213	441.296	78	51
441.213	441.296	87	51
441.213	441.296	90	60
441.379	441.459	49	48
441.379	441.459	80	52
441.379	441.459	83	52
441.379	441.459	92	62
441.539	441.619	56	30
441.539	441.619	61	30
441.539	441.619	65	36
441.539	441.619	79	44
441.539	441.619	88	44
441.539	441.619	91	52
441.7	441.78	44	41
441.7	441.78	80	48
441.7	441.78	89	48
441.7	441.78	92	57
441.86	441.944	56	30
441.86	441.944	61	30
441.86	441.944	65	36
441.86	441.944	77	44
441.86	441.944	85	44
441.86	441.944	89	52
442.029	442.109	82	55
442.029	442.109	90	72
442.031	442.111	51	48
442.149	442.189	93	66
442.189	442.23	56	30
442.189	442.23	60	30
442.189	442.23	66	36
442.189	442.23	94	60
442.354	442.434	44	41
442.354	442.434	78	55
442.354	442.434	87	66
442.474	442.514	89	66
442.514	442.555	56	30
442.514	442.555	60	30
442.514	442.555	66	36
442.514	442.555	90	60
442.679	442.759	51	48
442.679	442.759	75	55
442.679	442.759	84	72
442.799	442.839	86	66
442.839	442.88	56	30
442.839	442.88	60	30
442.839	442.88	66	36
442.839	442.88	87	60
443.004	443.083	44	41
443.004	443.083	72	55
443.004	443.083	80	66
443.123	443.162	83	66
443.162	443.203	56	30
443.162	443.203	60	30
443.162	443.203	66	36
443.162	443.203	84	60
443.326	443.406	49	48
443.326	443.406	77	55
443.326	443.406	85	72
443.446	443.486	88	66
443.486	443.527	56	30
443.486	443.527	61	30
443.486	443.527	65	36
443.486	443.527	89	60
443.651	443.732	44	41
443.651	443.732	73	55
443.651	443.732	80	66
443.773	443.814	84	66
443.814	443.858	56	30
443.814	443.858	61	30
443.814	443.858	65	36
443.814	443.858	85	60
443.99	444.073	49	48
443.99	444.073	68	55
443.99	444.073	77	72
444.114	444.156	79	66
444.156	444.2	56	30
444.156	444.2	61	30
444.156	444.2	65	36
444.156	444.2	80	60
444.333	444.416	44	41
444.333	444.499	65	55
444.333	444.668	73	66
444.499	444.541	56	30
444.499	444.541	61	30
444.499	444.668	65	36
444.668	445.323	51	52
444.668	445.323	80	50
444.668	444.999	84	50
444.668	445.323	92	59
444.835	445.161	56	34
444.835	445.161	60	34
444.835	445.161	66	41
444.835	445.323	82	52
444.835	445.161	85	52
444.835	445.323	94	63
444.999	445.323	44	44
444.999	445.323	84	55
444.999	445.323	87	55
444.999	445.323	96	65
445.161	445.323	56	34
445.161	445.323	60	34
445.161	445.323	66	41
445.161	445.323	85	58
445.161	445.323	89	58
445.161	445.323	97	69
445.323	445.971	51	55
445.323	445.644	87	64
445.323	445.644	90	64
445.323	445.644	99	78
445.484	445.804	56	34
445.484	445.804	60	34
445.484	445.804	66	41
445.484	445.971	86	55
445.484	445.971	89	55
445.484	445.971	98	64
445.644	445.971	44	47
445.644	445.804	87	60
445.644	445.971	90	60
445.644	445.971	99	71
445.804	445.971	56	34
445.804	445.971	60	34
445.804	445.971	66	41
445.804	445.971	84	55
445.804	445.971	87	55
445.804	445.971	96	64
445.971	446.62	49	57
445.971	446.62	85	55
445.971	446.292	89	55
445.971	446.292	97	64
446.132	446.455	56	37
446.132	446.455	61	37
446.132	446.455	65	45
446.132	446.62	87	57
446.132	446.62	92	57
446.132	446.455	99	69
446.292	446.62	44	48
446.292	446.62	89	60
446.292	446.62	97	60
446.292	446.62	101	71
446.455	446.62	56	37
446.455	446.62	61	37
446.455	446.62	65	45
446.455	446.62	90	63
446.455	446.62	99	63
446.455	446.62	102	75
446.62	447.268	49	60
446.62	446.939	92	64
446.62	447.268	95	64
446.62	446.939	104	78
446.78	447.099	56	37
446.78	447.099	61	37
446.78	447.099	65	45
446.78	447.268	91	55
446.78	447.268	100	55
446.78	447.268	103	64
446.939	447.268	44	51
446.939	447.268	92	60
446.939	447.099	101	60
446.939	447.268	104	71
447.099	447.268	56	37
447.099	447.268	61	37
447.099	447.268	65	45
447.099	447.268	89	55
447.099	447.268	97	55
447.099	447.268	101	64
447.226	447.268	93	82
447.268	447.915	94	69
447.268	447.915	102	90
447.27	447.915	51	60
447.427	447.75	56	37
447.427	447.75	60	37
447.427	447.75	66	45
447.427	447.592	90	75
447.55	447.915	89	82
447.592	447.915	44	51
447.592	447.75	90	69
447.592	447.915	99	82
447.75	447.915	56	37
447.75	447.915	60	37
447.75	447.915	66	45
447.75	447.915	90	75
447.874	447.915	86	82
447.915	448.519	51	60
447.915	448.519	87	69
447.915	448.519	96	90
448.074	448.396	56	37
448.074	448.396	60	37
448.074	448.396	66	45
448.074	448.239	84	75
448.197	448.519	83	82
448.239	448.519	44	51
448.239	448.519	84	69
448.239	448.519	92	82
448.396	448.519	56	37
448.396	448.519	60	37
448.396	448.519	66	45
448.396	448.519	80	75
448.56	449.193	49	42
448.56	449.193	61	50
448.56	449.193	73	59
448.56	449.193	77	59
448.56	449.193	85	70
448.719	449.193	48	45
448.719	449.193	60	53
448.719	449.193	74	61
448.719	449.193	78	61
448.719	449.193	86	72
448.878	449.193	47	47
448.878	449.193	59	56
448.878	449.193	75	62
448.878	449.193	79	62
448.878	449.193	87	74
449.036	449.193	46	49
449.036	449.193	58	59
449.036	449.193	76	66
449.036	449.193	80	66
449.036	449.193	88	78
449.193	449.828	45	52
449.193	449.828	57	62
449.193	449.828	77	67
449.193	449.828	81	79
449.193	449.828	89	79
449.349	449.828	46	49
449.349	449.828	58	58
449.349	449.828	76	64
449.349	449.828	80	64
449.349	449.828	88	77
449.507	449.823	47	45
449.507	449.823	59	53
449.507	449.823	75	61
449.507	449.823	79	61
449.507	449.823	87	73
449.664	449.828	48	41
449.664	449.828	60	49
449.664	449.828	74	59
449.664	449.828	78	59
449.664	449.828	86	70
449.823	450.456	47	42
449.823	450.456	59	50
449.823	450.456	75	59
449.823	450.449	79	59
449.823	450.456	87	70
449.981	450.456	46	45
449.981	450.456	58	53
449.981	450.456	76	61
449.981	450.456	80	61
449.981	450.456	88	72
450.138	450.456	45	47
450.138	450.456	57	56
450.138	450.456	77	62
450.138	450.456	81	62
450.138	450.456	89	74
450.294	450.456	44	49
450.294	450.456	56	59
450.294	450.456	78	66
450.294	450.456	82	66
450.294	450.456	90	78
450.449	451.077	43	52
450.449	451.077	55	62
450.449	451.077	79	67
450.449	451.077	83	79
450.449	451.077	91	79
450.605	451.077	44	49
450.605	451.077	56	58
450.605	451.077	78	64
450.605	451.077	82	64
450.605	451.077	90	77
450.761	451.077	45	45
450.761	451.077	57	54
450.761	451.077	77	62
450.761	451.077	81	62
450.761	451.077	89	74
450.919	451.077	46	41
450.919	451.077	58	49
450.919	451.077	76	60
450.919	451.077	80	60
450.919	451.077	88	71
451.077	451.706	45	42
451.077	451.706	57	51
451.077	451.706	77	60
451.077	451.702	81	60
451.077	451.706	89	71
451.234	451.706	44	45
451.234	451.706	56	54
451.234	451.706	78	62
451.234	451.706	82	62
451.234	451.706	90	73
451.391	451.706	43	47
451.391	451.706	55	57
451.391	451.706	79	63
451.391	451.706	83	63
451.391	451.706	91	75
451.547	451.706	42	49
451.547	451.706	54	60
451.547	451.706	80	67
451.547	451.706	84	67
451.547	451.706	92	79
451.702	452.334	41	53
451.702	452.334	53	63
451.702	452.334	81	68
451.702	452.334	85	80
451.702	452.334	93	80
451.856	452.334	42	50
451.856	452.334	54	59
451.856	452.334	80	65
451.856	452.334	84	65
451.856	452.334	92	79
452.012	452.326	43	46
452.012	452.326	55	54
452.012	452.326	79	62
452.012	452.326	83	62
452.012	452.326	91	75
452.168	452.334	44	42
452.168	452.334	56	50
452.168	452.334	78	60
452.168	452.334	82	60
452.168	452.334	90	72
452.326	452.959	43	43
452.326	452.959	55	51
452.326	452.959	79	61
452.326	452.954	83	61
452.326	452.959	91	74
452.484	452.959	42	45
452.484	452.959	54	53
452.484	452.959	80	64
452.484	452.959	84	64
452.484	452.959	92	76
452.641	452.959	41	47
452.641	452.959	53	55
452.641	452.959	81	65
452.641	452.959	85	65
452.641	452.959	93	78
452.798	452.959	40	48
452.798	452.959	52	58
452.798	452.959	82	68
452.798	452.959	86	68
452.798	452.959	94	82
452.954	453.576	39	50
452.954	453.576	51	61
452.954	453.576	83	71
452.954	453.571	87	71
452.954	453.576	95	85
453.109	453.576	38	54
453.109	453.576	50	64
453.109	453.576	84	74
453.109	453.576	88	74
453.109	453.576	96	88
453.264	453.576	37	55
453.264	453.576	49	66
453.264	453.576	85	75
453.264	453.576	89	75
453.264	453.576	97	90
453.418	453.576	36	58
453.418	453.576	48	68
453.418	453.576	86	79
453.418	453.576	90	79
453.418	453.576	98	93
453.571	454.177	35	61
453.571	454.177	47	71
453.571	454.177	87	81
453.571	454.177	91	81
453.571	454.177	99	95
453.723	454.026	34	63
453.723	454.026	46	75
453.723	454.026	88	83
453.723	454.026	92	83
453.723	454.026	100	100
453.875	454.181	33	66
453.875	454.181	45	78
453.875	454.181	89	87
453.875	454.181	93	87
453.875	454.181	101	103
454.026	454.181	34	64
454.026	454.181	46	76
454.026	454.181	88	85
454.026	454.181	92	85
454.026	454.181	100	101
454.177	454.792	35	64
454.177	454.792	47	75
454.177	454.785	87	84
454.177	454.792	91	98
454.177	454.792	99	98
454.328	454.792	36	63
454.328	454.792	48	73
454.328	454.792	86	82
454.328	454.792	90	82
454.328	454.792	98	97
454.48	454.792	37	59
454.48	454.792	49	71
454.48	454.792	85	81
454.48	454.792	89	81
454.48	454.792	97	96
454.632	454.792	38	58
454.632	454.792	50	70
454.632	454.792	84	80
454.632	454.792	88	80
454.632	454.792	96	95
454.785	455.401	39	55
454.785	455.401	51	67
454.785	455.401	83	78
454.785	455.401	87	78
454.785	455.401	95	94
454.938	455.246	40	55
454.938	455.246	52	66
454.938	455.246	82	77
454.938	455.246	86	77
454.938	455.246	94	93
455.092	455.408	41	53
455.092	455.408	53	64
455.092	455.408	81	77
455.092	455.408	85	77
455.092	455.408	93	92
455.246	455.408	40	51
455.246	455.408	52	60
455.246	455.408	82	76
455.246	455.408	86	76
455.246	455.408	94	90
455.401	456.027	39	53
455.401	456.027	51	64
455.401	456.027	83	75
455.401	456.021	87	75
455.401	456.027	95	89
455.557	456.027	38	55
455.557	456.027	50	66
455.557	456.027	84	77
455.557	456.027	88	77
455.557	456.027	96	92
455.712	456.027	37	57
455.712	456.027	49	69
455.712	456.027	85	78
455.712	456.027	89	78
455.712	456.027	97	94
455.867	456.027	36	59
455.867	456.027	48	71
455.867	456.027	86	81
455.867	456.027	90	81
455.867	456.027	98	96
456.021	456.632	35	63
456.021	456.632	47	73
456.021	456.632	87	84
456.021	456.632	91	84
456.021	456.632	99	98
456.174	456.48	34	64
456.174	456.48	46	76
456.174	456.48	88	85
456.174	456.48	92	85
456.174	456.48	100	101
456.327	456.638	33	66
456.327	456.638	45	78
456.327	456.638	89	88
456.327	456.638	93	88
456.327	456.638	101	105
456.48	456.638	34	64
456.48	456.638	46	76
456.48	456.638	88	85
456.48	456.638	92	85
456.48	456.638	100	101
456.632	457.251	35	64
456.632	457.251	47	75
456.632	457.251	87	84
456.632	457.251	91	98
456.632	457.251	99	98
456.785	457.251	36	63
456.785	457.251	48	73
456.785	457.251	86	82
456.785	457.092	90	82
456.785	457.251	98	97
456.938	457.247	37	59
456.938	457.247	44	59
456.938	457.247	49	71
456.938	457.247	85	81
456.938	457.247	89	81
456.938	457.247	97	96
457.092	457.251	38	58
457.092	457.251	50	70
457.092	457.251	84	80
457.092	457.251	90	80
457.092	457.251	96	95
457.247	457.586	37	63
457.247	457.586	44	63
457.247	457.586	49	74
457.247	457.586	85	90
457.247	457.586	89	90
457.247	457.586	97	107
457.413	457.618	38	56
457.413	457.618	50	67
457.413	457.618	84	84
457.413	457.618	90	84
457.413	457.618	96	99
457.586	457.932	37	64
457.586	457.932	44	64
457.586	457.932	49	75
457.586	457.932	85	90
457.586	457.932	89	90
457.586	457.932	97	107
457.756	457.937	38	58
457.756	457.937	50	69
457.756	457.937	84	84
457.756	457.937	90	84
457.756	457.937	96	99
457.932	458.13	37	63
457.932	458.13	44	63
457.932	458.13	49	74
457.932	458.13	85	90
457.932	458.13	89	90
457.932	458.13	97	107
458.106	458.29	48	56
458.106	458.29	60	67
458.106	458.29	72	68
458.106	458.29	84	81
458.276	458.459	49	61
458.276	458.459	61	72
458.276	458.459	73	74
458.276	458.459	85	88
458.445	458.63	48	56
458.445	458.63	60	67
458.445	458.63	72	68
458.445	458.63	84	81
458.615	458.706	49	61
458.615	458.706	61	73
458.615	458.706	73	74
458.615	458.706	85	88
458.798	458.985	37	56
458.798	458.985	49	67
458.798	458.985	61	62
458.798	458.985	73	74
458.971	459.159	38	61
458.971	459.159	50	72
458.971	459.159	62	68
458.971	459.159	74	80
459.144	459.331	39	56
459.144	459.331	51	67
459.144	459.331	63	61
459.144	459.331	75	72
459.331	460.026	40	73
459.331	460.026	52	86
459.331	459.849	64	80
459.331	459.849	76	97
459.504	459.677	56	57
459.504	459.849	59	69
459.504	459.677	68	67
459.504	459.849	71	79
459.677	460.026	44	67
459.677	460.026	56	78
459.677	460.026	68	74
459.677	460.026	80	88
459.849	460.026	59	57
459.849	460.026	64	69
459.849	460.026	71	67
459.849	460.026	76	79
460.026	460.716	49	79
460.026	460.716	61	94
460.026	460.716	73	89
460.026	460.716	85	105
460.198	460.371	64	57
460.198	460.371	68	69
460.198	460.371	76	67
460.198	460.371	80	79
460.371	460.716	64	57
460.371	460.716	68	69
460.371	460.716	76	67
460.371	460.716	80	79
460.543	460.716	47	70
460.543	460.716	59	84
460.543	460.716	71	80
460.543	460.716	83	96
460.716	461.2	45	75
460.716	461.214	49	75
460.716	461.399	52	75
460.716	461.399	57	89
460.716	461.2	69	85
460.716	461.214	73	85
460.716	461.399	76	85
460.716	461.399	81	100
460.885	461.399	44	66
460.885	461.399	56	78
460.885	461.399	68	77
460.885	461.399	80	92
461.055	461.399	43	66
461.055	461.399	55	78
461.055	461.399	67	77
461.055	461.399	79	92
461.185	461.399	42	63
461.185	461.399	66	72
461.2	461.399	45	65
461.2	461.399	69	74
461.214	461.399	49	67
461.214	461.399	73	76
461.229	461.399	54	81
461.229	461.399	78	93
461.399	462.101	41	65
461.399	462.101	53	77
461.399	462.101	65	77
461.399	462.101	77	92
461.526	461.871	40	52
461.526	461.871	64	60
461.541	461.886	45	54
461.541	461.886	69	64
461.555	461.9	49	55
461.555	461.9	73	67
461.569	461.914	52	71
461.569	461.914	76	80
461.742	462.101	39	63
461.742	462.101	51	74
461.742	462.101	63	75
461.742	462.101	75	90
461.871	462.101	40	53
461.871	462.101	64	65
461.886	462.101	45	53
461.886	462.101	69	65
461.9	462.101	49	53
461.9	462.101	73	65
461.914	462.101	52	64
461.914	462.101	76	77
462.101	462.796	40	73
462.101	462.796	52	86
462.101	462.619	64	80
462.101	462.619	76	97
462.273	462.446	56	57
462.273	462.619	59	57
462.273	462.446	68	67
462.273	462.619	71	79
462.446	462.796	44	67
462.446	462.796	56	78
462.446	462.796	68	74
462.446	462.796	80	88
462.619	462.796	59	57
462.619	462.796	64	57
462.619	462.796	71	67
462.619	462.796	76	79
462.796	463.485	49	79
462.796	463.485	61	94
462.796	463.485	73	89
462.796	463.485	85	105
462.968	463.141	64	57
462.968	463.141	68	69
462.968	463.141	76	67
462.968	463.141	80	79
463.141	463.485	64	57
463.141	463.485	68	69
463.141	463.485	76	67
463.141	463.485	80	79
463.313	463.485	47	70
463.313	463.485	59	84
463.313	463.485	71	80
463.313	463.485	83	96
463.485	463.996	45	71
463.485	463.996	49	71
463.485	463.996	52	71
463.485	464.174	57	84
463.485	463.996	69	79
463.485	463.996	73	79
463.485	463.996	76	79
463.485	464.174	81	95
463.655	464.181	44	66
463.655	464.181	56	78
463.655	464.181	68	77
463.655	464.181	80	92
463.824	464.181	42	66
463.824	464.181	54	78
463.824	464.181	66	77
463.824	464.181	78	92
463.996	464.181	40	52
463.996	464.174	45	54
463.996	464.174	49	57
463.996	464.174	52	69
463.996	464.181	64	60
463.996	464.174	69	63
463.996	464.174	73	64
463.996	464.174	76	77
464.174	464.93	45	70
464.174	464.547	49	70
464.174	464.547	52	70
464.174	464.547	57	82
464.174	464.93	69	77
464.174	464.547	73	77
464.174	464.547	76	77
464.174	464.547	81	93
464.547	464.93	49	64
464.547	464.93	52	64
464.547	464.93	57	64
464.547	464.93	61	75
464.547	464.93	73	71
464.547	464.93	76	71
464.547	464.93	81	71
464.547	464.93	85	84
464.93	465.656	40	53
464.93	465.119	52	64
464.93	465.3	86	57
464.93	465.3	92	57
465.026	465.21	100	58
465.119	465.656	52	68
465.119	465.656	64	80
465.119	465.479	88	59
465.119	465.479	95	59
465.21	465.389	100	61
465.3	465.656	47	53
465.3	465.656	86	63
465.3	465.656	92	63
465.305	465.656	59	64
465.389	465.567	100	64
465.479	465.656	56	70
465.479	465.656	68	84
465.479	465.656	88	66
465.479	465.656	95	66
465.567	465.656	100	67
465.656	466.2	52	56
465.656	466.2	64	68
465.656	466.007	86	69
465.656	466.007	92	69
465.744	465.92	100	70
465.832	466.2	61	76
465.832	466.2	73	91
465.832	466.18	88	72
465.832	466.18	95	72
465.92	466.093	100	72
466.007	466.2	86	71
466.007	466.2	92	71
466.093	466.2	100	70
466.18	466.353	59	67
466.18	466.353	71	78
466.18	466.266	88	70
466.18	466.266	95	70
466.266	466.353	100	69
466.353	466.706	57	74
466.353	466.706	69	88
466.353	466.694	85	74
466.353	466.694	93	74
466.437	466.608	100	67
466.522	466.706	56	60
466.522	466.706	68	73
466.522	466.706	88	70
466.522	466.706	97	70
466.608	466.706	100	66
466.694	467.045	55	60
466.694	467.045	67	73
466.694	467.041	85	71
466.694	467.041	93	71
466.779	466.953	100	65
466.864	467.045	54	60
466.864	467.045	66	73
466.864	467.045	88	71
466.864	467.045	97	71
466.953	467.045	100	64
467.041	467.393	53	66
467.041	467.393	65	80
467.041	467.381	85	72
467.041	467.381	93	72
467.125	467.295	100	63
467.209	467.393	52	60
467.209	467.393	64	72
467.209	467.393	88	66
467.209	467.393	97	66
467.295	467.393	100	60
467.381	467.732	49	60
467.381	467.732	61	72
467.381	467.732	85	64
467.381	467.732	93	64
467.466	467.642	100	59
467.551	467.732	45	60
467.551	467.732	57	72
467.551	467.732	88	64
467.551	467.732	97	64
467.642	467.732	100	58
467.732	468.45	40	59
467.732	467.914	52	70
467.732	468.094	86	63
467.732	468.094	92	63
467.824	468.004	100	63
467.914	468.45	52	74
467.914	468.45	64	88
467.914	468.273	88	64
467.914	468.273	95	64
468.004	468.183	100	65
468.094	468.45	47	55
468.094	468.45	86	65
468.094	468.45	92	65
468.099	468.45	59	67
468.183	468.362	100	66
468.273	468.45	56	73
468.273	468.45	68	86
468.273	468.45	88	67
468.273	468.45	95	67
468.362	468.45	100	69
468.45	468.994	52	56
468.45	468.994	64	68
468.45	468.801	86	69
468.45	468.801	92	69
468.539	468.714	100	70
468.627	468.994	61	76
468.627	468.994	73	91
468.627	468.974	88	72
468.627	468.974	95	72
468.714	468.887	100	72
468.801	468.994	86	71
468.801	468.994	92	71
468.887	468.994	100	70
468.974	469.147	59	67
468.974	469.147	71	78
468.974	469.06	88	70
468.974	469.06	95	70
469.06	469.147	100	69
469.147	469.5	57	74
469.147	469.5	69	88
469.147	469.488	85	74
469.147	469.488	93	74
469.231	469.402	100	67
469.316	469.5	56	60
469.316	469.5	68	73
469.316	469.5	88	70
469.316	469.5	97	70
469.402	469.5	100	66
469.488	469.839	55	60
469.488	469.839	67	73
469.488	469.836	85	71
469.488	469.836	93	71
469.573	469.747	100	65
469.658	469.839	54	60
469.658	469.839	66	73
469.658	469.839	88	71
469.658	469.839	97	71
469.747	469.839	100	64
469.836	470.187	53	60
469.836	470.187	65	71
469.836	470.176	85	72
469.836	470.176	93	72
469.919	470.089	100	61
470.003	470.187	52	57
470.003	470.187	64	69
470.003	470.187	88	64
470.003	470.187	97	64
470.089	470.187	100	58
470.176	470.526	51	56
470.176	470.526	63	68
470.176	470.526	85	60
470.176	470.526	93	60
470.261	470.436	100	54
470.346	470.526	52	54
470.346	470.526	64	66
470.346	470.526	88	59
470.346	470.526	97	59
470.436	470.526	100	52
470.526	470.86	56	57
470.526	470.86	62	57
470.526	470.86	64	68
470.526	470.568	90	71
470.526	470.568	98	71
470.568	470.866	100	75
470.609	470.866	102	79
470.691	470.866	52	67
470.86	471.193	56	57
470.86	471.193	62	57
470.86	471.193	64	68
470.86	471.193	86	71
470.86	471.193	95	71
470.901	471.193	97	75
470.942	471.193	98	80
471.025	471.193	47	66
471.193	471.527	56	57
471.193	471.527	62	57
471.193	471.527	64	68
471.193	471.533	83	71
471.193	471.533	92	71
471.234	471.533	93	75
471.275	471.533	95	80
471.358	471.533	40	67
471.527	471.869	56	57
471.527	471.869	62	57
471.527	471.864	64	68
471.527	471.568	80	71
471.527	471.568	88	71
471.568	471.869	90	75
471.61	471.869	92	80
471.693	471.869	47	66
471.864	472.209	57	57
471.864	472.209	61	57
471.864	472.209	64	68
471.864	471.913	69	66
471.913	472.55	71	67
471.963	472.55	73	68
472.012	472.55	74	69
472.037	472.55	52	67
472.061	472.55	76	70
472.11	472.55	78	71
472.159	472.55	80	72
472.208	472.55	81	73
472.209	472.548	57	57
472.209	472.548	61	57
472.209	472.548	64	68
472.257	472.55	83	74
472.305	472.55	85	75
472.354	472.55	86	76
472.379	472.55	49	66
472.402	472.55	88	77
472.451	472.55	90	78
472.498	472.55	92	79
472.548	472.884	57	57
472.548	472.884	61	57
472.548	472.884	64	68
472.548	473.056	93	80
472.596	473.228	95	81
472.644	473.056	97	82
472.692	473.228	98	84
472.716	473.228	40	67
472.739	473.228	100	85
472.788	473.228	102	86
472.835	473.228	104	87
472.884	473.228	57	57
472.884	473.228	61	57
472.884	473.228	64	68
472.884	473.228	105	88
473.056	473.228	49	66
473.056	473.228	93	71
473.056	473.228	97	71
473.228	473.562	56	57
473.228	473.562	62	57
473.228	473.562	64	68
473.228	473.269	90	71
473.228	473.269	98	71
473.269	473.567	100	75
473.31	473.567	102	79
473.392	473.567	52	67
473.562	473.894	56	57
473.562	473.894	62	57
473.562	473.894	64	68
473.562	473.894	86	71
473.562	473.894	95	71
473.603	473.894	97	75
473.644	473.894	98	80
473.726	473.894	47	66
473.894	474.228	56	57
473.894	474.228	62	57
473.894	474.228	64	68
473.894	474.234	83	71
473.894	474.234	92	71
473.936	474.234	93	75
473.977	474.234	95	80
474.059	474.234	40	67
474.228	474.571	56	57
474.228	474.571	62	57
474.228	474.565	64	68
474.228	474.27	80	71
474.228	474.27	88	71
474.27	474.571	90	75
474.311	474.571	92	80
474.395	474.571	47	66
474.565	474.91	57	57
474.565	474.91	61	57
474.565	474.91	64	68
474.565	474.614	69	66
474.614	475.252	71	67
474.664	475.252	73	68
474.713	475.252	74	69
474.738	475.252	52	67
474.762	475.252	76	70
474.811	475.252	78	71
474.86	475.252	80	72
474.909	475.252	81	73
474.91	475.25	57	57
474.91	475.25	61	57
474.91	475.25	64	68
474.958	475.252	83	74
475.006	475.252	85	75
475.055	475.252	86	76
475.081	475.252	49	66
475.103	475.252	88	77
475.152	475.252	90	78
475.2	475.252	92	79
475.25	475.585	57	57
475.25	475.585	61	57
475.25	475.585	64	68
475.25	475.929	93	80
475.297	475.929	95	81
475.345	475.929	97	82
475.393	475.929	98	84
475.418	475.929	40	67
475.441	475.929	100	85
475.489	475.929	102	86
475.536	475.929	104	87
475.585	475.929	57	57
475.585	475.929	61	57
475.585	475.929	64	68
475.585	475.929	105	88
475.757	475.929	49	66
475.929	476.263	56	57
475.929	476.263	61	57
475.929	476.263	65	68
475.929	475.97	87	71
475.929	475.97	95	71
475.97	476.268	97	75
476.011	476.268	99	79
476.094	476.268	49	67
476.263	476.596	56	57
476.263	476.596	61	57
476.263	476.596	65	68
476.263	476.596	83	71
476.263	476.596	92	71
476.304	476.596	94	75
476.345	476.596	95	80
476.427	476.596	44	66
476.596	476.93	56	57
476.596	476.93	61	57
476.596	476.93	65	68
476.596	476.935	80	71
476.596	476.935	89	71
476.637	476.935	90	75
476.678	476.935	92	80
476.76	476.935	37	67
476.93	477.272	56	57
476.93	477.266	61	57
476.93	477.272	65	68
476.93	476.971	77	71
476.93	476.971	85	71
476.971	477.272	87	75
477.012	477.272	89	80
477.096	477.272	49	66
477.266	477.611	58	57
477.266	477.611	61	68
477.266	477.315	66	66
477.315	477.953	68	67
477.365	477.953	70	68
477.414	477.953	71	69
477.439	477.953	49	67
477.463	477.953	73	70
477.513	477.953	75	71
477.561	477.953	77	72
477.611	477.951	58	57
477.611	477.951	61	57
477.611	477.951	66	68
477.611	477.953	78	73
477.659	477.953	80	74
477.707	477.953	82	75
477.756	477.953	83	76
477.782	477.953	46	66
477.804	477.953	85	77
477.853	477.953	87	78
477.901	477.953	89	79
477.951	478.286	58	57
477.951	478.286	61	57
477.951	478.286	66	68
477.951	478.458	90	80
477.998	478.63	92	81
478.047	478.458	94	82
478.094	478.63	95	84
478.119	478.63	37	67
478.142	478.63	97	85
478.19	478.63	99	86
478.237	478.63	101	87
478.286	478.63	58	57
478.286	478.63	61	57
478.286	478.63	66	68
478.286	478.63	102	88
478.458	478.63	49	66
478.458	478.63	90	71
478.458	478.63	94	71
478.63	478.964	56	57
478.63	478.964	61	57
478.63	478.964	65	68
478.63	478.671	87	71
478.63	478.671	95	71
478.671	478.969	97	75
478.713	478.969	99	79
478.795	478.969	49	67
478.964	479.297	56	57
478.964	479.297	61	57
478.964	479.297	65	68
478.964	479.297	83	71
478.964	479.297	92	71
479.005	479.297	94	75
479.046	479.297	95	80
479.128	479.297	44	66
479.297	479.631	56	57
479.297	479.631	61	57
479.297	479.631	65	68
479.297	479.636	80	71
479.297	479.636	89	71
479.338	479.636	90	75
479.379	479.636	92	80
479.461	479.636	37	67
479.631	479.973	56	57
479.631	479.967	61	57
479.631	479.973	65	68
479.631	479.672	77	71
479.631	479.672	85	71
479.672	479.973	87	75
479.713	479.973	89	80
479.797	479.973	49	66
479.967	480.313	58	57
479.967	480.313	61	68
479.967	480.016	66	66
480.016	480.654	68	67
480.066	480.654	70	68
480.115	480.654	71	69
480.141	480.654	49	67
480.164	480.654	73	70
480.214	480.654	75	71
480.263	480.654	77	72
480.312	480.654	78	73
480.313	480.652	58	57
480.313	480.652	61	57
480.313	480.652	66	68
480.36	480.654	80	74
480.409	480.654	82	75
480.458	480.654	83	76
480.483	480.654	46	66
480.506	480.654	85	77
480.554	480.654	87	78
480.602	480.654	89	79
480.652	480.988	58	57
480.652	480.988	61	57
480.652	480.988	66	68
480.652	481.406	90	80
480.719	481.406	92	81
480.786	481.406	94	82
480.82	481.406	37	67
480.853	481.406	95	84
480.921	481.058	97	85
480.988	481.406	58	57
480.988	481.406	61	57
480.988	481.406	66	68
480.988	481.279	99	88
481.058	481.204	97	86
481.13	481.406	96	80
481.167	481.406	49	66
481.204	481.406	97	86
481.279	481.406	99	88
481.397	482.115	56	42
481.397	482.105	101	89
481.481	481.566	97	67
481.566	481.911	61	37
481.566	481.911	65	37
481.566	481.911	71	37
481.566	481.651	97	83
481.651	481.823	97	64
481.736	482.115	49	42
481.736	482.115	89	82
481.823	481.911	97	66
481.911	482.115	61	37
481.911	482.115	65	37
481.911	482.115	71	37
481.911	482.008	97	76
482.008	482.115	97	60
482.105	482.491	68	37
482.105	482.498	72	42
482.105	482.498	101	80
482.195	482.286	97	61
482.286	482.498	65	37
482.286	482.498	73	37
482.286	482.386	97	78
482.386	482.498	97	60
482.491	482.898	68	42
482.491	482.898	71	48
482.491	482.898	89	77
482.584	482.678	97	63
482.678	482.771	97	77
482.771	482.898	73	37
482.771	482.898	97	63
482.888	483.614	54	42
482.888	483.603	102	85
482.973	483.059	97	64
483.059	483.409	61	37
483.059	483.409	66	37
483.059	483.409	70	37
483.059	483.145	97	83
483.145	483.32	97	64
483.23	483.614	49	42
483.23	483.614	90	82
483.32	483.409	97	66
483.409	483.614	61	37
483.409	483.614	66	37
483.409	483.614	70	37
483.409	483.506	97	76
483.506	483.614	97	60
483.603	483.995	69	37
483.603	483.995	72	42
483.603	483.995	102	80
483.694	483.784	97	61
483.784	483.988	70	37
483.784	483.995	73	37
483.784	483.881	97	78
483.881	483.995	97	60
483.988	484.394	66	42
483.988	484.394	70	48
483.988	484.394	90	77
484.081	484.174	97	63
484.174	484.268	97	77
484.268	484.394	73	37
484.268	484.394	97	63
484.384	485.119	56	42
484.384	485.108	101	87
484.471	484.558	97	67
484.558	484.912	61	37
484.558	484.912	65	37
484.558	484.912	71	37
484.558	484.645	97	83
484.645	484.822	97	64
484.733	485.119	49	42
484.733	485.119	89	82
484.822	484.912	97	66
484.912	485.119	61	37
484.912	485.119	65	37
484.912	485.119	71	37
484.912	485.01	97	76
485.01	485.119	97	60
485.108	485.497	68	37
485.108	485.504	72	42
485.108	485.504	101	80
485.2	485.291	97	61
485.291	485.504	65	37
485.291	485.504	73	37
485.291	485.39	97	78
485.39	485.504	97	60
485.497	485.906	68	42
485.497	485.906	71	48
485.497	485.906	89	77
485.591	485.685	97	63
485.685	485.788	97	77
485.788	485.906	73	37
485.788	485.906	97	63
485.896	486.626	54	42
485.896	486.615	102	87
485.982	486.068	97	67
486.068	486.42	61	37
486.068	486.42	66	37
486.068	486.42	70	37
486.068	486.154	97	83
486.154	486.33	97	64
486.24	486.626	49	42
486.24	486.626	90	82
486.33	486.42	97	66
486.42	486.626	61	37
486.42	486.626	66	37
486.42	486.626	70	37
486.42	486.518	97	76
486.518	486.626	97	60
486.615	487.001	69	37
486.615	487.001	72	42
486.615	487.001	102	80
486.705	486.794	97	61
486.794	486.994	70	37
486.794	487.001	73	37
486.794	486.89	97	78
486.89	487.001	97	60
486.994	487.408	66	42
486.994	487.408	70	48
486.994	487.408	90	77
487.086	487.178	97	63
487.178	487.27	97	77
487.27	487.408	73	37
487.27	487.408	97	63
487.398	488.14	56	42
487.398	488.129	101	89
487.486	487.574	97	67
487.574	487.935	61	37
487.574	487.935	65	37
487.574	487.935	71	37
487.574	487.662	97	83
487.662	487.841	97	64
487.75	488.14	49	42
487.75	488.14	89	82
487.841	487.935	97	66
487.935	488.14	61	37
487.935	488.14	65	37
487.935	488.14	71	37
487.935	488.032	97	76
488.032	488.14	97	60
488.129	488.528	68	37
488.129	488.536	72	42
488.129	488.536	101	80
488.222	488.315	97	61
488.315	488.536	65	37
488.315	488.536	73	37
488.315	488.414	97	78
488.414	488.536	97	60
488.528	488.95	68	42
488.528	488.95	71	48
488.528	488.95	89	77
488.626	488.724	97	63
488.724	488.822	97	77
488.822	488.95	73	37
488.822	488.95	97	63
488.939	489.36	80	37
488.939	489.384	84	48
488.939	489.384	101	76
489.038	489.138	97	57
489.138	489.384	77	37
489.138	489.384	85	48
489.138	489.245	97	74
489.245	489.384	97	57
489.36	489.785	80	42
489.36	489.797	83	56
489.36	489.797	89	73
489.463	489.566	97	59
489.566	489.676	97	68
489.676	489.797	85	37
489.676	489.797	97	54
489.785	490.225	80	37
489.785	490.225	84	48
489.785	490.225	101	72
489.888	489.992	97	54
489.992	490.225	77	37
489.992	490.225	85	49
489.992	490.094	97	70
490.094	490.225	97	54
490.217	490.674	83	42
490.217	490.674	87	56
490.217	490.674	89	69
490.324	490.431	97	56
490.431	490.538	97	69
490.538	490.674	80	38
490.538	490.674	85	37
490.538	490.674	97	56
490.661	491.536	101	78
490.769	490.876	97	60
490.876	490.985	97	73
490.985	491.203	97	56
491.094	491.549	89	71
491.203	491.313	97	56
491.313	491.424	97	65
491.424	491.549	97	51
491.536	492.463	101	67
491.648	491.762	97	50
491.762	491.876	97	63
491.876	492.108	97	49
491.991	492.477	89	62
492.108	492.225	97	50
492.225	492.343	97	60
492.343	492.477	97	49
492.463	493.496	101	67
492.583	492.706	97	51
492.706	492.832	97	63
492.832	493.09	97	48
492.96	493.512	89	60
493.09	493.223	97	48
493.223	493.358	97	55
493.358	493.512	97	43
493.496	494.696	101	56
493.635	493.774	97	42
493.774	493.914	97	53
493.914	494.197	97	41
494.055	494.696	89	52
494.197	494.34	97	42
494.34	494.506	97	50
494.506	494.696	97	40
494.696	494.862	54	42
494.696	494.862	102	82
495.028	495.182	61	30
495.028	495.182	66	30
495.028	495.182	70	36
495.337	495.482	49	36
495.337	495.627	78	58
495.627	495.772	61	30
495.627	495.772	66	30
495.627	495.772	70	36
495.917	496.056	54	42
495.917	497.01	81	67
496.196	496.33	61	36
496.196	496.33	66	36
496.196	496.33	69	36
496.464	496.601	49	36
496.737	496.873	61	30
496.737	496.873	66	30
496.737	496.873	69	36
497.01	497.141	56	42
497.01	497.141	80	65
497.272	497.398	61	36
497.272	497.398	65	36
497.272	497.398	71	36
497.398	497.524	81	59
497.524	497.651	49	36
497.524	497.651	83	65
497.776	497.902	61	30
497.776	497.902	65	30
497.776	497.902	71	36
497.902	498.041	86	70
498.041	498.164	56	42
498.041	498.164	85	65
498.286	498.409	61	36
498.286	498.409	65	36
498.286	498.409	71	36
498.409	498.531	73	59
498.531	498.65	49	36
498.531	498.65	75	65
498.769	498.888	61	30
498.769	498.888	65	30
498.769	498.888	71	36
498.888	498.955	77	60
498.955	498.988	78	49
498.988	499.022	80	50
499.022	499.148	54	42
499.022	499.148	78	65
499.27	499.389	61	36
499.27	499.389	66	36
499.27	499.389	70	36
499.389	499.508	77	59
499.508	499.626	49	36
499.508	499.626	78	65
499.744	499.861	61	30
499.744	499.861	66	30
499.744	499.861	70	36
499.861	499.992	80	70
499.992	500.128	54	42
499.992	501.018	81	65
500.263	500.389	61	36
500.263	500.389	66	36
500.263	500.389	69	36
500.514	500.639	49	36
500.764	500.891	61	30
500.764	500.891	66	30
500.764	500.891	69	36
501.018	501.141	56	42
501.018	501.141	80	65
501.263	501.384	61	36
501.263	501.384	65	36
501.263	501.384	71	36
501.384	501.505	81	59
501.505	501.623	49	36
501.505	501.623	83	65
501.74	501.866	61	30
501.74	501.866	65	30
501.74	501.866	71	36
501.866	502.0	86	70
502.0	502.123	56	42
502.0	502.123	85	65
502.244	502.365	61	36
502.244	502.365	65	36
502.244	502.365	71	36
502.365	502.485	73	59
502.485	502.602	49	36
502.485	502.602	75	65
502.72	502.837	61	30
502.72	502.837	65	30
502.72	502.837	71	36
502.837	502.902	77	60
502.902	502.934	78	49
502.934	502.966	80	50
502.966	503.091	54	42
502.966	503.091	78	65
503.215	503.335	61	36
503.215	503.335	66	36
503.215	503.335	70	36
503.335	503.454	77	59
503.454	503.574	49	36
503.454	503.574	78	65
503.693	503.813	61	30
503.693	503.813	66	30
503.693	503.813	70	36
503.813	503.881	80	70
503.881	503.915	78	60
503.915	503.949	80	60
503.949	504.076	54	42
503.949	504.2	81	65
504.2	504.321	61	36
504.2	504.321	66	36
504.2	504.321	69	36
504.441	504.565	49	36
504.441	504.966	81	65
504.689	504.813	61	30
504.689	504.813	66	30
504.689	504.813	69	36
504.966	505.112	56	42
504.966	505.112	80	59
505.258	505.405	61	36
505.258	505.405	65	36
505.258	505.405	71	36
505.405	505.551	81	47
505.551	505.712	49	36
505.551	505.712	83	53
505.874	506.035	61	30
505.874	506.035	65	30
505.874	506.035	71	36
506.035	506.249	86	57
506.249	507.959	85	51
507.959	508.016	37	39
508.034	508.091	49	48
508.034	508.091	61	48
508.109	508.165	39	41
508.184	508.24	51	49
508.184	508.24	63	49
508.258	508.314	41	42
508.333	508.388	53	51
508.333	508.388	65	51
508.407	508.462	42	44
508.48	508.536	54	52
508.48	508.536	66	52
508.554	508.609	44	46
508.554	508.609	49	46
508.628	508.683	56	54
508.628	508.683	61	54
508.628	508.683	68	54
508.701	508.757	43	44
508.776	508.832	55	53
508.776	508.832	67	53
508.851	508.907	44	43
508.926	508.982	56	51
508.926	508.982	68	51
509.001	509.063	41	41
509.084	509.145	53	49
509.084	509.145	65	49
509.165	509.22	42	39
509.239	509.294	54	48
509.239	509.294	66	48
509.312	509.367	44	41
509.385	509.44	56	49
509.385	509.44	68	49
509.458	509.513	46	42
509.531	509.585	58	51
509.531	509.585	70	51
509.603	509.658	47	44
509.676	509.73	59	52
509.676	509.73	71	52
509.748	509.802	49	46
509.748	509.802	54	46
509.82	509.874	61	54
509.82	509.874	66	54
509.82	509.874	73	54
509.892	509.947	48	44
509.965	510.02	60	53
509.965	510.02	72	53
510.038	510.094	49	43
510.112	510.168	61	51
510.112	510.168	73	51
510.186	510.248	46	41
510.268	510.33	58	49
510.268	510.33	70	49
510.35	510.404	47	49
510.421	510.475	59	59
510.421	510.475	71	59
510.493	510.55	51	43
510.569	510.626	63	51
510.569	510.626	75	51
510.645	510.698	44	50
510.716	510.77	56	60
510.716	510.77	68	60
510.788	510.845	47	46
510.864	510.921	59	55
510.864	510.921	71	55
510.94	510.993	41	50
511.011	511.065	53	60
511.011	511.065	65	60
511.083	511.14	44	44
511.159	511.215	56	52
511.159	511.215	68	52
511.234	511.288	37	51
511.306	511.36	49	62
511.306	511.36	61	62
511.378	511.435	41	47
511.454	511.511	53	56
511.454	511.511	65	56
511.529	511.583	42	51
511.601	511.655	54	62
511.601	511.655	66	62
511.672	511.729	46	45
511.748	511.805	58	53
511.748	511.805	70	53
511.824	511.877	37	53
511.895	511.949	49	63
511.895	511.949	61	63
511.966	512.023	42	48
512.042	512.099	54	58
512.042	512.099	66	58
512.118	512.172	34	52
512.189	512.243	46	63
512.189	512.243	58	63
512.261	512.317	37	46
512.336	512.392	49	55
512.336	512.392	61	55
512.411	512.464	30	54
512.411	512.464	42	54
512.482	512.536	54	64
512.482	512.536	66	64
512.554	512.61	34	50
512.554	512.61	46	50
512.629	512.703	58	59
512.629	512.703	70	59
512.724	513.313	37	44
512.724	513.021	41	44
512.724	513.313	44	44
512.724	513.313	49	44
512.799	513.313	61	55
512.799	513.094	65	55
512.799	513.313	68	55
512.799	513.313	73	55
512.873	513.313	39	47
512.873	513.313	51	47
512.947	513.313	63	56
512.947	513.313	75	56
513.021	513.313	41	48
513.021	513.313	53	48
513.094	513.313	65	59
513.094	513.313	77	59
513.167	513.313	42	51
513.167	513.313	54	51
513.24	513.313	66	61
513.24	513.313	78	61
513.313	513.605	44	54
513.313	513.917	49	54
513.313	513.605	56	54
513.385	513.679	68	64
513.385	513.679	73	64
513.385	513.679	80	64
513.458	513.917	43	52
513.458	513.917	55	52
513.532	513.917	67	63
513.532	513.917	79	63
513.605	513.917	44	51
513.605	513.917	56	51
513.679	513.917	68	61
513.679	513.917	73	61
513.679	513.917	80	61
513.754	513.917	41	49
513.754	513.917	53	49
513.836	513.917	65	59
513.836	513.917	77	59
513.917	514.501	42	47
513.917	514.211	46	47
513.917	514.501	49	47
513.917	514.501	54	47
513.991	514.501	66	58
513.991	514.284	70	58
513.991	514.501	73	58
513.991	514.501	78	58
514.065	514.501	44	50
514.065	514.501	56	50
514.138	514.501	68	60
514.138	514.501	80	60
514.211	514.501	46	52
514.211	514.501	58	52
514.284	514.501	70	63
514.284	514.501	82	63
514.357	514.501	47	55
514.357	514.501	59	55
514.429	514.501	71	65
514.429	514.501	83	65
514.501	514.793	49	57
514.501	514.793	54	57
514.501	514.793	61	57
514.574	514.867	73	68
514.574	514.867	78	68
514.574	514.867	85	68
514.646	515.097	48	55
514.646	515.097	60	55
514.719	515.097	72	67
514.719	515.097	84	67
514.793	515.09	49	55
514.793	515.097	54	55
514.793	515.09	61	55
514.867	515.097	73	65
514.867	515.097	78	65
514.867	515.097	85	65
514.941	515.097	46	52
514.941	515.097	58	52
515.016	515.097	70	63
515.016	515.097	82	63
515.09	515.684	49	50
515.09	515.387	53	50
515.09	515.678	56	50
515.09	515.678	61	50
515.165	515.684	73	62
515.165	515.46	77	62
515.165	515.684	80	62
515.165	515.684	85	62
515.239	515.684	51	53
515.239	515.684	63	53
515.313	515.684	75	64
515.313	515.684	87	64
515.387	515.684	53	55
515.387	515.684	65	55
515.46	515.684	77	67
515.46	515.684	89	67
515.533	515.684	54	58
515.533	515.684	66	58
515.605	515.684	78	69
515.605	515.684	90	69
515.678	515.969	56	61
515.678	516.281	61	61
515.678	515.969	68	61
515.75	516.044	80	72
515.75	516.044	85	72
515.75	516.044	92	72
515.822	516.29	55	58
515.822	516.29	67	58
515.896	516.29	79	71
515.896	516.29	91	71
515.969	516.29	56	58
515.969	516.29	68	58
516.044	516.29	80	69
516.044	516.29	85	69
516.044	516.29	92	69
516.118	516.29	53	55
516.118	516.29	65	55
516.2	516.29	77	67
516.2	516.29	89	67
516.281	516.867	54	53
516.281	516.574	58	53
516.281	516.862	61	53
516.281	516.862	66	53
516.355	516.867	78	65
516.355	516.647	82	65
516.355	516.867	85	65
516.355	516.867	90	65
516.428	516.867	56	56
516.428	516.867	68	56
516.502	516.867	80	67
516.502	516.867	92	67
516.574	516.867	58	58
516.574	516.867	70	58
516.647	516.867	82	70
516.647	516.867	94	70
516.719	516.867	59	61
516.719	516.867	71	61
516.791	516.867	83	72
516.791	516.867	95	72
516.862	517.152	61	64
516.862	517.152	66	64
516.862	517.152	73	64
516.934	517.227	85	76
516.934	517.227	90	76
516.934	517.227	97	76
517.006	517.49	60	62
517.006	517.49	72	62
517.079	517.49	84	75
517.079	517.49	96	75
517.152	517.49	61	61
517.152	517.49	66	61
517.152	517.49	73	61
517.227	517.49	85	72
517.227	517.49	90	72
517.227	517.49	97	72
517.301	517.49	58	59
517.301	517.49	70	59
517.379	517.49	82	70
517.379	517.49	94	70
517.482	517.966	59	68
517.482	517.966	71	68
517.564	518.044	83	82
517.564	518.044	95	82
517.647	518.137	63	59
517.647	518.137	75	59
517.73	518.137	87	71
517.73	518.137	99	71
517.814	518.137	56	69
517.814	518.137	68	69
517.89	518.137	80	82
517.89	518.137	92	82
517.966	518.137	59	63
517.966	518.137	71	63
518.044	518.137	83	75
518.044	518.137	95	75
518.123	518.574	53	69
518.123	518.574	65	69
518.198	518.651	77	83
518.198	518.651	89	83
518.272	518.74	56	60
518.272	518.74	68	60
518.35	518.74	80	72
518.35	518.74	92	72
518.427	518.74	49	71
518.427	518.74	61	71
518.501	518.74	73	84
518.501	518.74	85	84
518.574	518.74	53	64
518.574	518.74	65	64
518.651	518.74	77	78
518.651	518.74	89	78
518.728	519.17	46	70
518.728	519.17	58	70
518.801	519.246	70	85
518.801	519.246	82	85
518.873	519.329	49	61
518.873	519.329	61	61
518.95	519.329	73	74
518.95	519.329	85	74
519.026	519.329	42	72
519.026	519.329	54	72
519.098	519.329	66	86
519.098	519.329	78	86
519.17	519.329	46	66
519.17	519.329	58	66
519.246	519.329	70	79
519.246	519.329	82	79
519.322	519.76	39	72
519.322	519.76	51	72
519.394	519.835	63	86
519.394	519.835	75	86
519.465	519.918	42	62
519.465	519.918	54	62
519.541	519.918	66	75
519.541	519.918	78	75
519.616	519.918	35	73
519.616	519.918	47	73
519.688	519.918	59	87
519.688	519.918	71	87
519.76	519.918	39	68
519.76	519.918	51	68
519.835	519.918	63	81
519.835	519.918	75	81
519.911	519.983	32	73
519.911	519.983	44	73
519.983	520.424	56	88
519.983	520.424	68	88
520.055	520.508	35	64
520.055	520.508	47	64
520.13	520.508	59	77
520.13	520.508	71	77
520.205	520.508	29	75
520.205	520.508	41	75
520.277	520.508	53	89
520.277	520.508	65	89
520.349	520.508	32	69
520.349	520.508	44	69
520.424	520.508	56	82
520.424	520.508	68	82
520.5	520.941	37	74
520.572	521.017	49	90
520.572	521.017	61	90
520.644	521.099	41	65
520.72	521.099	53	78
520.72	521.099	65	78
520.796	521.099	34	76
520.868	521.099	46	91
520.868	521.099	58	91
520.941	521.099	37	70
521.017	521.099	49	84
521.017	521.099	61	84
521.093	521.547	30	76
521.093	521.547	42	76
521.166	521.636	54	92
521.239	521.724	34	66
521.239	521.724	46	66
521.317	521.724	58	80
521.395	521.724	27	77
521.395	521.724	39	77
521.471	521.724	51	93
521.547	521.724	30	71
521.547	521.724	42	71
521.636	521.724	54	85
521.724	521.927	23	90
521.724	521.927	35	90
521.724	521.927	47	103
522.517	522.992	35	59
522.517	522.992	47	70
522.517	522.633	63	80
522.517	522.633	71	80
522.517	522.633	75	95
522.633	522.992	51	64
522.633	522.992	54	64
522.633	522.992	59	77
522.633	522.992	63	85
522.633	522.982	71	85
522.633	522.992	75	101
522.982	523.459	37	72
522.982	523.099	49	85
522.982	523.099	65	79
522.982	523.099	68	79
522.982	523.099	71	79
522.982	523.099	77	93
523.099	523.459	49	64
523.099	523.459	53	64
523.099	523.459	56	64
523.099	523.459	61	77
523.099	523.459	65	85
523.099	523.459	68	85
523.099	523.459	71	85
523.099	523.459	77	101
523.448	525.194	30	83
523.448	525.194	42	99
523.448	523.578	66	80
523.448	523.578	70	80
523.448	523.578	73	80
523.448	523.578	78	95
523.578	525.395	49	64
523.578	525.194	54	64
523.578	525.395	58	64
523.578	524.614	61	77
523.578	524.614	66	85
523.578	524.614	70	85
523.578	524.614	73	85
523.578	524.614	78	101
524.614	525.395	61	64
524.614	525.194	66	85
524.614	525.395	70	85
524.614	524.904	73	85
524.614	524.904	78	101
524.904	525.395	73	64
524.904	525.395	78	64
524.904	525.395	82	64
524.904	525.395	85	77
524.904	525.395	90	85
524.904	525.395	94	85
524.904	525.395	97	85
524.904	525.395	102	101
525.194	525.395	30	74
525.194	525.395	42	88
525.194	525.395	54	91
525.194	525.395	66	107
