OnsetTime	OffsetTime	MidiPitch	Velocity
0.501131	1.0422	55	54
0.501131	1.0422	67	60
0.974434	1.04872	57	44
0.974434	1.04872	69	50
1.0422	1.55224	55	54
1.0422	1.55224	67	60
1.2161	1.56384	52	50
1.2161	1.56384	64	57
1.38417	1.56384	48	47
1.38417	1.56384	60	53
1.55224	2.13672	55	54
1.55224	2.13672	67	60
1.97691	2.13672	64	51
1.97691	2.13672	76	56
2.13672	3.38463	64	54
2.13672	3.38463	76	60
3.31584	3.61063	60	40
3.31584	3.61063	72	44
3.90542	4.45779	67	59
4.37985	4.45779	65	50
4.44763	4.99448	64	60
4.62837	4.97926	60	56
4.80381	4.99448	55	52
4.97926	5.50101	60	60
5.15318	5.50101	64	57
5.3271	5.50101	67	54
5.50101	5.64253	43	51
5.50101	5.64253	55	56
5.50101	5.64253	64	56
5.50101	5.64253	67	56
5.78404	5.91917	45	46
5.78404	5.91917	55	53
5.78404	5.91917	62	53
5.78404	5.91917	65	53
5.91917	6.0543	47	46
6.0543	6.16144	48	51
6.0543	6.16144	55	56
6.0543	6.16144	60	56
6.0543	6.16144	64	56
6.34001	6.45251	43	45
6.34001	6.45251	55	50
6.34001	6.45251	59	50
6.34001	6.45251	62	50
6.64001	6.74744	48	51
6.64001	6.74744	55	56
6.64001	6.74744	60	56
6.64001	6.74744	64	56
7.21292	7.50418	43	36
7.21292	7.35855	55	41
7.21292	7.35855	63	41
7.21292	7.35855	67	41
7.50418	7.64437	45	34
7.50418	7.64437	55	37
7.50418	7.64437	62	37
7.50418	7.64437	65	37
7.64437	7.78455	47	35
7.78455	7.89169	48	36
7.78455	7.89169	55	41
7.78455	7.89169	60	41
7.78455	7.89169	63	41
8.07026	8.17844	43	33
8.07026	8.17844	55	38
8.07026	8.17844	59	38
8.07026	8.17844	62	38
8.35872	8.46486	48	36
8.35872	8.46486	55	43
8.35872	8.46486	60	43
8.35872	8.46486	63	43
8.64175	8.74496	46	33
8.64175	8.74496	58	38
8.64175	8.74496	62	38
8.64175	8.74496	65	38
8.91698	9.20466	46	49
8.91698	9.18013	58	53
8.91698	9.20466	62	53
8.91698	9.20466	65	53
9.18013	9.39041	51	43
9.18013	9.39041	58	49
9.18013	9.39041	63	49
9.18013	9.39041	67	49
9.46051	9.74271	51	50
9.46051	9.74271	58	58
9.46051	9.74271	63	58
9.46051	9.74271	67	58
9.73078	9.94562	50	47
9.73078	9.94562	62	53
9.73078	9.94562	66	53
9.73078	9.94562	69	53
10.0172	10.295	50	56
10.0172	10.295	62	63
10.0172	10.295	66	63
10.0172	10.295	69	63
10.295	10.5093	55	54
10.295	10.5093	62	58
10.295	10.5093	67	58
10.295	10.5093	70	58
10.5807	10.8664	55	59
10.5807	10.8664	62	68
10.5807	10.8664	67	68
10.5807	10.8895	70	68
10.8664	11.2126	43	57
10.8664	11.2126	53	57
10.8664	11.2126	55	57
10.8664	11.2126	62	66
10.8664	11.2126	67	66
10.8664	11.2126	71	66
11.2126	12.1921	43	61
11.2126	12.5616	53	61
11.2126	12.1921	55	61
11.2126	12.5616	62	71
11.2126	12.5616	67	71
11.2126	12.1921	71	71
12.1921	12.5616	43	48
12.1921	12.5616	50	48
12.1921	12.5493	55	48
12.1921	12.5616	65	54
12.1921	12.5616	71	54
12.1921	12.5616	77	54
12.5493	14.318	48	48
12.5493	14.318	55	48
12.5493	14.318	64	54
12.5493	14.318	72	54
12.5493	14.318	76	54
14.318	14.8602	55	54
14.318	14.8602	67	60
14.7924	14.8679	57	44
14.7924	14.8679	69	50
14.8602	15.3761	55	54
14.8602	15.3761	67	60
15.0356	15.3877	52	50
15.0356	15.3877	64	57
15.2066	15.3877	48	47
15.2066	15.3877	60	53
15.3761	15.963	55	54
15.3761	15.963	67	60
15.8008	15.9606	64	51
15.8008	15.9606	76	56
15.9606	17.1397	64	54
15.9606	17.1397	76	60
17.1397	17.4345	60	40
17.1397	17.4345	72	44
17.7293	18.2828	67	59
18.2037	18.2828	65	50
18.2715	18.8184	64	60
18.4522	18.8031	60	56
18.6276	18.8184	55	52
18.8031	19.3544	60	60
18.9785	19.3294	64	57
19.154	19.3294	67	57
19.3294	19.4723	43	51
19.3294	19.4723	55	56
19.3294	19.4723	64	56
19.3294	19.4723	67	56
19.6151	19.7503	45	46
19.6151	19.7503	55	53
19.6151	19.7503	62	53
19.6151	19.7503	65	53
19.7503	19.8854	47	46
19.8854	19.9936	48	51
19.8854	19.9936	55	56
19.8854	19.9936	60	56
19.8854	19.9936	64	56
20.1738	20.2852	43	45
20.1738	20.2852	55	50
20.1738	20.2852	59	50
20.1738	20.2852	62	50
20.4709	20.5783	48	51
20.4709	20.5783	55	56
20.4709	20.5783	60	56
20.4709	20.5783	64	56
21.0438	21.3351	43	36
21.0438	21.1894	55	41
21.0438	21.1894	63	41
21.0438	21.1894	67	41
21.3351	21.4752	45	34
21.3351	21.4752	55	37
21.3351	21.4752	62	37
21.3351	21.4752	65	37
21.4752	21.6154	47	35
21.6154	21.7226	48	36
21.6154	21.7226	55	41
21.6154	21.7226	60	41
21.6154	21.7226	63	41
21.9011	22.0063	43	33
21.9011	22.0063	55	38
21.9011	22.0063	59	38
21.9011	22.0063	62	38
22.1815	22.2886	48	38
22.1815	22.2886	55	45
22.1815	22.2886	60	45
22.1815	22.2886	63	45
22.4672	22.6061	46	36
22.4672	22.6061	58	41
22.4672	22.6061	62	41
22.4672	22.6061	65	41
22.745	23.0165	46	47
22.745	23.0081	58	51
22.745	23.0165	62	51
22.745	23.0165	65	51
23.0081	23.2224	51	43
23.0081	23.2224	58	48
23.0081	23.2224	63	48
23.0081	23.2224	67	48
23.2938	23.5713	51	50
23.2938	23.5713	58	57
23.2938	23.5713	63	57
23.2938	23.5713	67	57
23.5641	23.779	50	48
23.5641	23.779	62	54
23.5641	23.779	66	54
23.5641	23.779	69	54
23.8506	24.138	50	56
23.8506	24.1309	62	64
23.8506	24.138	66	64
23.8506	24.138	69	64
24.1309	24.3412	55	52
24.1309	24.3412	62	57
24.1309	24.3412	67	57
24.1309	24.3412	70	57
24.4113	24.697	55	59
24.4113	24.697	62	66
24.4113	24.697	67	66
24.4113	24.7171	70	66
24.697	25.0412	43	56
24.697	25.0412	53	56
24.697	25.0412	55	56
24.697	25.0412	62	66
24.697	25.0412	67	66
24.697	25.0412	71	66
25.0412	26.0206	43	63
25.0412	26.443	53	63
25.0412	26.0206	55	63
25.0412	26.443	62	69
25.0412	26.443	67	69
25.0412	26.0206	71	69
26.0206	26.443	43	48
26.0206	26.443	50	48
26.0206	26.3779	55	48
26.0206	26.443	65	54
26.0206	26.443	71	54
26.0206	26.443	77	54
26.3779	28.1466	48	48
26.3779	28.1466	55	48
26.3779	28.1466	64	54
26.3779	28.1466	72	54
26.3779	28.1466	76	54
28.1466	28.7088	76	54
28.6386	28.7166	77	44
28.7088	29.2572	76	54
28.8858	29.2504	72	50
29.0628	29.2572	69	47
29.1807	29.2572	74	44
29.2504	29.8054	72	54
29.4306	29.8054	69	51
29.6108	29.8054	64	47
29.8054	30.3625	52	52
29.8054	30.3625	64	54
29.8054	30.3731	69	54
29.8054	30.3731	72	54
30.084	30.3625	68	43
30.084	30.3625	71	51
30.2929	30.3731	53	44
30.3625	30.9989	52	58
30.3625	30.6783	64	45
30.3625	30.9989	68	45
30.3625	30.9989	71	54
30.5731	31.015	47	57
30.6783	30.9989	64	43
30.6783	31.015	66	43
30.6783	31.015	69	51
30.7836	31.015	40	54
30.9989	31.5943	52	59
30.9989	31.5943	64	45
30.9989	31.5943	68	45
30.9989	31.5943	71	54
31.5943	32.1672	52	52
31.5943	32.1672	64	45
31.5943	32.1672	67	45
31.5943	32.171	72	54
31.8807	32.1672	71	51
32.0955	32.171	53	44
32.1672	32.7939	52	59
32.1672	32.4764	64	45
32.1672	32.4764	67	45
32.1672	32.7735	71	54
32.3733	32.7939	55	55
32.4764	32.7939	64	44
32.4764	32.7735	67	44
32.4764	32.7939	72	52
32.5754	32.7939	60	53
32.7735	33.3857	62	45
32.7735	33.3857	65	53
32.7735	33.3857	67	45
32.7735	33.3857	71	54
33.0796	33.3857	77	53
33.3857	34.0082	60	44
33.3857	34.0082	64	52
33.3857	34.0082	76	54
33.9214	34.0082	74	43
33.998	34.3041	62	46
33.998	34.3041	66	55
33.998	34.6288	72	53
34.202	34.6102	71	51
34.3041	34.6102	62	45
34.3041	34.6288	66	53
34.4061	34.6288	69	52
34.6102	35.2485	55	47
34.6102	35.2485	62	47
34.6102	35.2485	67	56
34.6102	35.2485	71	55
35.2485	35.8207	59	61
35.2485	35.8207	71	68
35.7582	35.8262	60	51
35.7582	35.8262	72	58
35.8207	36.276	59	61
35.8207	36.276	71	68
35.9961	36.276	55	59
35.9961	36.276	67	66
36.1642	36.3084	52	56
36.1642	36.3084	64	64
36.3565	36.7163	67	74
36.3565	36.7163	79	82
36.6317	36.7454	64	64
36.6317	36.7454	76	72
36.9348	37.4983	59	62
36.9348	37.4983	71	70
37.4348	37.5049	60	53
37.4348	37.5049	72	60
37.4983	37.8728	59	64
37.4983	37.8728	71	71
37.6738	37.8728	55	61
37.6738	37.8728	67	69
37.8418	37.9847	52	57
37.8418	37.9847	64	66
38.0323	38.3738	67	76
38.0323	38.3738	79	85
38.3059	38.4151	64	66
38.3059	38.4151	76	74
38.5971	38.9817	47	77
38.5971	38.9817	75	90
38.5971	38.9817	78	90
38.5971	38.9817	83	90
38.8829	38.99	59	72
38.8829	38.99	71	87
39.0971	39.1586	63	57
39.0971	39.1586	81	70
39.1586	39.3281	64	73
39.1586	39.3281	79	87
39.3281	39.4976	66	67
39.3281	39.4976	78	83
39.4976	39.69	67	78
39.4976	39.69	76	78
39.69	40.0499	47	79
39.69	40.0499	75	93
39.69	40.0499	78	93
39.69	40.0499	83	93
39.9677	40.0719	59	73
39.9677	40.0719	71	86
40.1761	40.2375	63	57
40.1761	40.2375	81	74
40.2375	40.407	64	75
40.2375	40.407	79	89
40.407	40.5765	66	68
40.407	40.5765	78	85
40.5765	40.7745	67	66
40.5765	40.7745	76	82
40.7745	41.242	47	80
40.7745	41.242	75	95
40.7745	41.242	78	95
40.7745	41.242	83	95
41.0685	41.242	59	75
41.0685	41.242	71	89
41.3598	41.8151	35	81
41.3598	41.8151	95	117
41.6684	41.8151	47	70
41.6684	41.8151	83	93
43.6135	44.0465	64	36
43.6135	44.0465	79	45
43.8939	44.0465	67	25
43.8939	44.0465	76	30
44.1823	44.5454	64	34
44.1823	44.5454	79	43
44.4601	44.6043	67	25
44.4601	44.6043	76	31
44.7485	45.2085	64	33
44.7485	45.2085	79	42
45.0289	45.2085	67	26
45.0289	45.2085	76	31
45.3202	45.7517	64	33
45.3202	45.7517	79	41
45.6005	45.7517	67	24
45.6005	45.7517	76	29
45.8862	46.3345	64	31
45.8862	46.3345	79	38
46.1666	46.3345	67	23
46.1666	46.3345	76	27
46.4523	46.9256	64	30
46.4523	46.9256	79	37
46.7327	46.9256	67	21
46.7327	46.9256	76	26
47.0184	47.5606	55	48
47.0184	47.5606	76	36
47.0184	47.5606	79	36
47.2895	47.5753	67	27
47.4928	47.5753	57	40
47.5606	48.1028	55	48
47.5606	48.1028	76	36
47.5606	48.1028	79	36
47.7414	48.1156	52	45
47.8317	48.1156	67	27
47.9221	48.1156	48	39
48.1028	48.6873	55	48
48.1028	48.6873	76	36
48.1028	48.6873	79	36
48.3814	48.6873	67	27
48.5275	48.6873	64	45
48.6873	50.2094	64	48
48.6873	49.2678	76	38
48.6873	49.2678	79	38
48.9821	49.5535	67	29
49.2678	49.8392	76	38
49.2678	49.8392	79	38
49.5535	50.1249	67	27
49.8392	50.2094	60	36
49.8392	50.2094	76	34
49.8392	50.2094	79	34
50.1249	50.2678	67	26
50.4106	50.9528	67	51
50.8851	50.9641	69	48
50.9528	51.4844	67	57
51.1336	51.503	64	53
51.309	51.503	60	46
51.4844	52.0802	67	57
51.9091	52.0689	76	52
52.0689	52.6095	55	48
52.0689	53.1486	76	57
52.5419	52.6174	57	40
52.6095	53.1405	55	48
52.7896	53.1486	52	45
52.9651	53.1486	48	41
53.1405	53.7124	55	48
53.1405	53.7124	72	35
53.5654	53.7124	64	45
53.7124	54.8047	64	48
53.7124	54.2648	79	72
54.1869	54.2648	77	56
54.2546	54.8047	76	68
54.4354	54.7968	72	63
54.6161	54.8047	67	59
54.7968	55.339	60	38
54.7968	55.339	72	69
54.9776	55.339	76	65
55.1583	55.339	79	61
55.339	55.4805	43	61
55.339	55.4805	67	70
55.339	55.4805	76	70
55.339	55.4805	79	70
55.622	55.7584	45	55
55.622	55.7584	67	66
55.622	55.7584	74	66
55.622	55.7584	77	66
55.7584	55.8948	47	55
55.8948	56.0019	48	61
55.8948	56.0019	67	70
55.8948	56.0019	72	70
55.8948	56.0019	76	70
56.1805	56.2886	43	53
56.1805	56.2886	67	63
56.1805	56.2886	71	63
56.1805	56.2886	74	63
56.4689	56.5764	48	61
56.4689	56.5764	67	70
56.4689	56.5764	72	70
56.4689	56.5764	76	70
57.0418	57.1875	51	38
57.0418	57.1875	55	38
57.0418	57.3331	67	45
57.3331	57.4733	50	35
57.3331	57.4733	53	35
57.3331	57.4733	55	35
57.3331	57.4733	69	41
57.4733	57.6135	71	41
57.6135	57.7216	48	38
57.6135	57.7216	51	38
57.6135	57.7216	55	38
57.6135	57.7216	72	45
57.9019	58.0081	47	35
57.9019	58.0081	50	35
57.9019	58.0081	55	35
57.9019	58.0081	67	39
58.185	58.2921	48	42
58.185	58.2921	51	42
58.185	58.2921	55	42
58.185	58.2921	72	48
58.4707	58.6083	50	51
58.4707	58.6083	53	51
58.4707	58.6083	58	51
58.4707	58.6083	70	67
58.4707	58.6083	82	67
58.7459	58.8798	53	55
58.7459	58.8798	56	55
58.7459	58.8798	58	55
58.7459	58.8798	70	68
58.7459	58.8798	82	68
59.0137	59.1526	51	50
59.0137	59.1526	55	50
59.0137	59.1526	58	50
59.0137	59.1526	75	73
59.0137	59.1526	87	73
59.2915	59.4266	51	55
59.2915	59.4266	55	55
59.2915	59.4266	58	55
59.2915	59.4266	75	78
59.2915	59.4266	87	78
59.5618	59.7006	54	51
59.5618	59.7006	57	51
59.5618	59.7006	62	51
59.5618	59.7006	74	74
59.5618	59.7006	86	74
59.8395	59.9824	57	64
59.8395	59.9824	60	64
59.8395	59.9824	62	64
59.8395	59.9824	74	81
59.8395	59.9824	86	81
60.1252	60.2681	55	60
60.1252	60.2681	58	60
60.1252	60.2681	62	60
60.1252	60.2681	79	79
60.1252	60.2681	91	79
60.411	60.5538	55	65
60.411	60.5538	58	65
60.411	60.5538	62	65
60.411	60.5538	79	83
60.411	60.5538	91	83
60.6967	60.8516	43	49
60.6967	60.8516	50	49
60.6967	60.8516	59	49
60.6967	60.8516	77	70
60.6967	60.8516	89	70
61.0065	62.3468	43	47
61.0065	62.3468	50	47
61.0065	62.3468	59	47
61.0065	62.3468	77	66
61.0065	62.3468	89	66
61.9859	62.3468	55	37
61.9859	62.3468	65	37
61.9859	62.3431	67	37
61.9859	62.3468	71	50
61.9859	62.3468	83	50
62.3431	64.0952	60	35
62.3431	64.0952	64	35
62.3431	64.0952	67	35
62.3431	64.0952	72	45
62.3431	64.0952	84	45
64.0952	64.6575	76	54
64.5872	64.6654	77	44
64.6575	65.2156	76	54
64.8382	65.2065	72	50
65.0189	65.2156	69	47
65.1368	65.2156	74	44
65.2065	65.7615	72	54
65.3867	65.7615	69	51
65.5669	65.7615	64	47
65.7615	66.3187	52	52
65.7615	66.3187	64	45
65.7615	66.3279	69	45
65.7615	66.3279	72	54
66.0401	66.3187	68	43
66.0401	66.3187	71	51
66.249	66.3279	53	44
66.3187	66.955	52	58
66.3187	66.6344	64	45
66.3187	66.955	68	45
66.3187	66.955	71	54
66.5292	66.9637	47	57
66.6344	66.955	64	43
66.6344	66.9637	66	43
66.6344	66.9637	69	51
66.7397	66.9637	40	54
66.955	67.5504	52	59
66.955	67.5504	64	45
66.955	67.5504	68	45
66.955	67.5504	71	54
67.5504	68.1233	52	52
67.5504	68.1233	64	45
67.5504	68.1233	67	45
67.5504	68.1297	72	54
67.8368	68.1233	71	51
68.0517	68.1297	53	44
68.1233	68.7417	52	59
68.1233	68.4326	64	45
68.1233	68.4326	67	45
68.1233	68.7238	71	54
68.3295	68.7417	55	55
68.4326	68.7417	64	44
68.4326	68.7238	67	44
68.4326	68.7417	72	52
68.5296	68.7417	60	53
68.7238	69.3361	62	45
68.7238	69.3361	65	53
68.7238	69.3361	67	45
68.7238	69.3361	71	54
69.0299	69.3361	77	53
69.3361	69.9611	60	44
69.3361	69.9611	64	52
69.3361	69.9611	76	54
69.8718	69.9611	74	43
69.9483	70.2544	62	46
69.9483	70.2544	66	55
69.9483	70.5765	72	53
70.1524	70.5606	71	51
70.2544	70.5606	62	45
70.2544	70.5765	66	53
70.3565	70.5765	69	52
70.5606	71.1989	55	47
70.5606	71.1989	62	47
70.5606	71.1989	67	56
70.5606	71.1989	71	55
71.1989	71.7086	59	61
71.1989	71.7086	71	68
71.7086	71.7716	60	51
71.7086	71.7716	72	58
71.7716	72.1711	59	61
71.7716	72.1711	71	68
71.9486	72.1711	55	59
71.9486	72.1711	67	66
72.1167	72.2652	52	56
72.1167	72.2652	64	64
72.3147	72.6984	67	76
72.3147	72.6984	79	82
72.5924	72.7147	64	64
72.5924	72.7147	76	72
72.9185	73.4864	59	62
72.9185	73.4864	71	70
73.4233	73.4897	60	53
73.4233	73.4897	72	56
73.4864	73.8677	59	64
73.4864	73.8677	71	71
73.6634	73.8677	55	61
73.6634	73.8677	67	69
73.8314	73.9814	52	57
73.8314	73.9814	64	66
74.0314	74.4547	67	76
74.0314	74.4547	79	85
74.3017	74.4547	64	66
74.3017	74.4547	76	74
74.6078	74.996	47	77
74.6078	74.996	75	90
74.6078	74.996	78	90
74.6078	74.996	83	90
74.8963	75.0044	59	72
74.8963	75.0044	71	87
75.1126	75.1746	63	58
75.1126	75.1746	81	71
75.1746	75.3427	64	73
75.1746	75.3427	79	87
75.3427	75.5107	66	67
75.3427	75.5107	78	83
75.5107	75.7165	67	78
75.5107	75.7165	76	78
75.7165	76.0833	47	79
75.7165	76.0833	75	93
75.7165	76.0833	78	93
75.7165	76.0833	83	93
75.9995	76.1057	59	73
75.9995	76.1057	71	86
76.2118	76.2728	63	58
76.2118	76.2728	81	74
76.2728	76.4437	64	75
76.2728	76.4437	79	89
76.4437	76.609	66	68
76.4437	76.609	78	85
76.609	76.8032	67	66
76.609	76.8032	76	82
76.8032	77.2581	47	80
76.8032	77.2581	75	95
76.8032	77.2581	78	95
76.8032	77.2581	83	95
77.0862	77.2581	59	75
77.0862	77.2581	71	89
77.3747	77.83	35	81
77.3747	77.83	95	114
77.6833	77.83	47	70
77.6833	77.83	83	93
79.6284	80.0614	64	36
79.6284	80.0614	79	45
79.9087	80.0614	67	25
79.9087	80.0614	76	30
80.1972	80.5595	64	34
80.1972	80.5595	79	43
80.475	80.6178	67	25
80.475	80.6178	76	31
80.7607	81.2207	64	33
80.7607	81.2207	79	42
81.0411	81.2207	67	26
81.0411	81.2207	76	31
81.3323	81.7639	64	33
81.3323	81.7639	79	41
81.6127	81.7639	67	24
81.6127	81.7639	76	29
81.8984	82.3466	64	31
81.8984	82.3466	79	38
82.1788	82.3466	67	23
82.1788	82.3466	76	27
82.4645	82.9377	64	30
82.4645	82.9377	79	37
82.7449	82.9377	67	21
82.7449	82.9377	76	26
83.0306	83.5728	55	48
83.0306	83.5728	76	36
83.0306	83.5728	79	36
83.3017	83.5841	67	27
83.505	83.5841	57	40
83.5728	84.1013	55	48
83.5728	84.1013	76	36
83.5728	84.1013	79	36
83.7535	84.1129	52	45
83.8405	84.1129	67	27
83.9274	84.1129	48	39
84.1013	84.6895	55	48
84.1013	84.6858	76	36
84.1013	84.6858	79	36
84.3799	84.6895	67	27
84.526	84.6858	64	45
84.6858	86.208	64	48
84.6858	85.2663	76	38
84.6858	85.2663	79	38
84.9806	85.552	67	29
85.2663	85.8377	76	38
85.2663	85.8377	79	38
85.552	86.1234	67	27
85.8377	86.208	60	36
85.8377	86.208	76	34
85.8377	86.208	79	34
86.1234	86.2663	67	26
86.4091	86.9513	67	51
86.8836	86.9626	69	48
86.9513	87.483	67	57
87.1321	87.498	64	53
87.3075	87.498	60	46
87.483	88.0674	67	57
87.9076	88.0674	76	52
88.0674	88.608	55	48
88.0674	89.1495	76	57
88.5404	88.6192	57	40
88.608	89.139	55	48
88.7881	89.1495	52	45
88.9636	89.1495	48	41
89.139	89.7154	55	48
89.139	89.7154	72	35
89.5639	89.7109	64	45
89.7109	90.8066	64	48
89.7109	90.2644	79	72
90.1854	90.2644	77	56
90.2531	90.8066	76	68
90.4339	90.7953	72	63
90.6146	90.8066	67	59
90.7953	91.3375	60	38
90.7953	91.3375	72	69
90.976	91.3375	76	65
91.1568	91.3375	79	61
91.3375	91.4804	43	61
91.3375	91.4804	67	70
91.3375	91.4804	76	70
91.3375	91.4804	79	70
91.6232	91.7608	45	55
91.6232	91.7608	67	66
91.6232	91.7608	74	66
91.6232	91.7608	77	66
91.7608	91.8984	47	55
91.8984	92.0066	48	61
91.8984	92.0066	67	70
91.8984	92.0066	72	70
91.8984	92.0066	76	70
92.1869	92.2972	43	53
92.1869	92.2972	67	63
92.1869	92.2972	71	63
92.1869	92.2972	74	63
92.481	92.5884	48	61
92.481	92.5884	67	70
92.481	92.5884	72	70
92.481	92.5884	76	70
93.0539	93.2039	51	38
93.0539	93.2039	55	38
93.0539	93.3539	67	45
93.3539	93.4907	50	35
93.3539	93.4907	53	35
93.3539	93.4907	55	35
93.3539	93.4907	69	41
93.4907	93.6275	71	41
93.6275	93.7356	48	38
93.6275	93.7356	51	38
93.6275	93.7356	55	38
93.6275	93.7356	72	45
93.9159	94.0231	47	35
93.9159	94.0231	50	35
93.9159	94.0231	55	35
93.9159	94.0231	67	39
94.2016	94.3078	48	42
94.2016	94.3078	51	42
94.2016	94.3078	55	42
94.2016	94.3078	72	48
94.4847	94.6236	50	49
94.4847	94.6236	53	49
94.4847	94.6236	58	49
94.4847	94.6236	70	64
94.4847	94.6236	82	64
94.7624	94.8968	53	52
94.7624	94.8968	56	52
94.7624	94.8968	58	52
94.7624	94.8968	70	66
94.7624	94.8968	82	66
95.0311	95.17	51	52
95.0311	95.17	55	52
95.0311	95.17	58	52
95.0311	95.17	75	71
95.0311	95.17	87	71
95.3089	95.444	51	56
95.3089	95.444	55	56
95.3089	95.444	58	56
95.3089	95.444	75	74
95.3089	95.444	87	74
95.5792	95.7195	54	54
95.5792	95.7195	57	54
95.5792	95.7195	62	54
95.5792	95.7195	74	70
95.5792	95.7195	86	70
95.8584	96.0012	57	59
95.8584	96.0012	60	59
95.8584	96.0012	62	59
95.8584	96.0012	74	79
95.8584	96.0012	86	79
96.1441	96.287	55	56
96.1441	96.287	58	56
96.1441	96.287	62	56
96.1441	96.287	79	81
96.1441	96.287	91	81
96.4298	96.5727	55	64
96.4298	96.5727	58	64
96.4298	96.5727	62	64
96.4298	96.5727	79	85
96.4298	96.5727	91	85
96.7155	96.8704	43	49
96.7155	96.8704	50	49
96.7155	96.8704	59	49
96.7155	96.8704	77	70
96.7155	96.8704	89	70
97.0253	98.362	43	47
97.0253	98.362	50	47
97.0253	98.362	59	47
97.0253	98.362	77	66
97.0253	98.362	89	66
98.0048	98.362	55	37
98.0048	98.362	65	37
98.0048	98.362	67	37
98.0048	98.362	71	50
98.0048	98.362	83	50
98.362	100.114	60	35
98.362	100.114	64	35
98.362	100.114	67	35
98.362	100.114	72	45
98.362	100.114	84	45
100.114	101.758	43	31
100.114	100.655	47	45
100.114	100.655	67	50
100.294	100.835	50	36
100.294	100.835	62	40
100.474	101.015	55	31
100.474	101.015	59	34
100.655	101.212	47	42
100.655	101.212	67	47
100.835	101.212	50	33
100.835	101.212	62	37
101.015	101.212	55	27
101.015	101.212	59	32
101.195	101.38	45	41
101.195	101.38	66	47
101.38	101.762	50	33
101.38	101.762	62	38
101.565	101.762	54	27
101.565	101.762	57	33
101.758	103.955	43	31
101.758	102.298	48	45
101.758	102.298	69	50
101.938	102.479	50	36
101.938	102.479	62	41
102.118	102.659	57	29
102.118	102.659	60	33
102.298	102.847	48	43
102.298	102.847	69	48
102.479	102.847	50	33
102.479	102.847	62	38
102.659	102.847	57	28
102.659	102.847	60	30
102.839	103.379	47	43
102.839	103.379	67	48
103.019	103.56	50	33
103.019	103.56	62	38
103.199	103.748	55	28
103.199	103.748	59	31
103.379	103.955	47	42
103.379	103.955	67	47
103.56	103.942	50	33
103.56	103.942	62	38
103.748	103.955	55	28
103.748	103.955	59	31
103.942	104.24	50	42
103.942	104.571	54	42
103.942	104.562	57	50
103.942	104.24	62	47
103.942	104.571	66	47
103.942	104.562	69	56
104.24	104.562	50	45
104.24	104.571	55	45
104.24	104.571	59	53
104.24	104.562	62	51
104.24	104.571	67	51
104.24	104.571	71	61
104.562	105.019	50	48
104.562	105.186	57	48
104.562	105.186	60	57
104.562	105.019	62	55
104.562	105.186	69	55
104.562	105.186	72	64
105.019	105.176	50	42
105.019	105.176	55	42
105.019	105.176	59	51
105.019	105.176	62	49
105.019	105.176	67	49
105.019	105.176	71	59
105.176	105.801	50	38
105.176	105.815	55	38
105.176	105.815	59	45
105.176	105.801	62	45
105.176	105.815	67	45
105.176	105.815	71	53
105.801	106.134	50	27
105.801	106.453	54	27
105.801	106.453	57	32
105.801	106.134	62	31
105.801	106.453	66	31
105.801	106.453	69	37
106.134	106.453	50	26
106.134	106.46	52	26
106.134	106.46	55	31
106.134	106.453	62	29
106.134	106.46	64	29
106.134	106.46	67	35
106.453	107.092	50	28
106.453	107.092	54	28
106.453	107.092	57	33
106.453	107.092	62	31
106.453	107.092	66	31
106.453	107.092	69	37
107.092	108.735	43	31
107.092	107.632	47	45
107.092	107.632	67	50
107.092	108.735	74	53
107.272	107.812	50	36
107.272	107.812	62	40
107.452	107.993	55	31
107.452	107.993	71	34
107.632	108.187	47	42
107.632	108.187	67	47
107.812	108.187	50	33
107.812	108.187	62	37
107.993	108.187	55	27
107.993	108.187	71	32
108.173	108.74	45	41
108.173	108.74	66	47
108.358	108.74	50	33
108.358	108.74	62	38
108.543	108.74	54	27
108.543	108.735	69	33
108.735	110.385	43	31
108.735	109.276	48	45
108.735	109.276	69	50
108.735	110.385	74	53
108.916	109.456	50	36
108.916	109.456	62	41
109.096	109.636	57	29
109.096	109.636	72	33
109.276	109.825	48	43
109.276	109.825	69	48
109.456	109.825	50	33
109.456	109.825	62	38
109.636	109.825	57	28
109.636	109.825	72	30
109.816	110.385	47	43
109.816	110.385	67	48
110.002	110.385	50	33
110.002	110.385	62	38
110.187	110.385	55	28
110.187	110.385	71	31
110.385	110.989	43	39
110.385	111.009	47	39
110.385	111.009	50	46
110.385	111.009	62	70
110.673	111.009	74	68
110.989	111.287	43	46
110.989	111.629	48	46
110.989	111.629	52	55
110.989	111.629	64	56
110.989	111.629	76	66
111.287	111.62	43	49
111.287	111.629	45	49
111.287	111.629	54	58
111.287	111.629	66	61
111.287	111.629	78	72
111.62	112.245	43	57
111.62	112.245	47	57
111.62	112.084	55	68
111.62	112.084	67	69
111.62	112.245	79	82
112.084	112.238	50	41
112.084	112.245	55	41
112.084	112.238	59	49
112.084	112.238	62	46
112.084	112.245	67	46
112.084	112.238	71	55
112.238	112.874	50	45
112.238	112.886	59	45
112.238	112.874	62	51
112.238	112.886	71	51
112.238	112.886	74	61
112.874	113.538	50	39
112.874	113.538	57	39
112.874	113.538	60	46
112.874	113.366	62	42
112.874	113.538	66	42
112.874	113.538	72	50
113.366	113.526	55	31
113.366	113.526	59	37
113.366	113.526	62	37
113.366	113.526	67	37
113.366	113.526	71	44
113.526	114.17	55	28
113.526	114.17	59	34
113.526	114.17	62	34
113.526	114.164	67	34
113.526	114.17	71	41
114.164	115.808	43	31
114.164	114.705	47	45
114.164	114.705	67	50
114.344	114.885	50	36
114.344	114.885	62	40
114.525	115.065	55	31
114.525	115.065	59	34
114.705	115.261	47	42
114.705	115.261	67	47
114.885	115.261	50	33
114.885	115.261	62	37
115.065	115.261	55	27
115.065	115.261	59	32
115.245	115.814	45	41
115.245	115.814	66	47
115.43	115.814	50	33
115.43	115.814	62	38
115.616	115.814	54	27
115.616	115.814	57	33
115.808	118.001	43	31
115.808	116.348	48	45
115.808	116.348	69	50
115.988	116.529	50	36
115.988	116.529	62	41
116.168	116.709	57	29
116.168	116.709	60	33
116.348	116.897	48	43
116.348	116.897	69	48
116.529	116.897	50	33
116.529	116.897	62	38
116.709	116.897	57	28
116.709	116.897	60	30
116.889	117.429	47	43
116.889	117.429	67	48
117.069	117.61	50	33
117.069	117.61	62	38
117.249	117.798	55	28
117.249	117.798	59	31
117.429	118.001	47	42
117.429	118.001	67	47
117.61	117.993	50	33
117.61	117.993	62	38
117.798	118.001	55	28
117.798	118.001	59	31
117.993	118.29	50	42
117.993	118.619	54	42
117.993	118.613	57	50
117.993	118.29	62	49
117.993	118.619	66	49
117.993	118.613	69	59
118.29	118.613	50	45
118.29	118.619	55	45
118.29	118.619	59	53
118.29	118.613	62	51
118.29	118.619	67	51
118.29	118.619	71	61
118.613	119.07	50	48
118.613	119.229	57	57
118.613	119.229	60	57
118.613	119.07	62	53
118.613	119.229	69	53
118.613	119.229	72	63
119.07	119.226	50	42
119.07	119.226	55	42
119.07	119.226	59	51
119.07	119.226	62	49
119.07	119.226	67	49
119.07	119.226	71	59
119.226	119.851	50	38
119.226	119.858	55	38
119.226	119.858	59	45
119.226	119.851	62	45
119.226	119.858	67	45
119.226	119.858	71	53
119.851	120.184	50	27
119.851	120.503	54	27
119.851	120.503	57	32
119.851	120.184	62	31
119.851	120.503	66	31
119.851	120.503	69	37
120.184	120.503	50	26
120.184	120.518	52	26
120.184	120.518	55	31
120.184	120.503	62	29
120.184	120.518	64	29
120.184	120.518	67	29
120.503	121.144	50	28
120.503	121.144	54	28
120.503	121.144	57	33
120.503	121.144	62	31
120.503	121.144	66	31
120.503	121.144	69	37
121.142	122.786	43	31
121.142	121.682	47	45
121.142	121.682	67	50
121.142	122.786	74	53
121.322	121.863	50	36
121.322	121.863	62	40
121.502	122.043	55	31
121.502	122.043	71	34
121.682	122.238	47	42
121.682	122.238	67	47
121.863	122.238	50	33
121.863	122.238	62	37
122.043	122.238	55	27
122.043	122.238	71	32
122.223	122.79	45	41
122.223	122.79	66	47
122.408	122.79	50	33
122.408	122.79	62	38
122.593	122.79	54	27
122.593	122.786	69	33
122.786	124.435	43	31
122.786	123.326	48	45
122.786	123.326	69	50
122.786	124.435	74	53
122.966	123.506	50	36
122.966	123.506	62	41
123.146	123.686	57	29
123.146	123.686	72	33
123.326	123.882	48	43
123.326	123.882	69	48
123.506	123.882	50	33
123.506	123.882	62	38
123.686	123.882	57	28
123.686	123.882	72	30
123.867	124.435	47	43
123.867	124.435	67	48
124.052	124.435	50	33
124.052	124.435	62	38
124.237	124.435	55	28
124.237	124.435	71	31
124.435	125.039	43	39
124.435	125.055	47	39
124.435	125.055	50	46
124.435	125.055	62	70
124.723	125.055	74	68
125.039	125.337	43	46
125.039	125.679	48	46
125.039	125.679	52	55
125.039	125.679	64	56
125.039	125.679	76	66
125.337	125.67	43	49
125.337	125.679	45	49
125.337	125.679	54	58
125.337	125.679	66	61
125.337	125.679	78	72
125.67	126.296	43	57
125.67	126.296	47	57
125.67	126.134	55	68
125.67	126.134	67	68
125.67	126.296	79	81
126.134	126.289	50	41
126.134	126.296	55	41
126.134	126.289	59	49
126.134	126.289	62	46
126.134	126.296	67	46
126.134	126.289	71	55
126.289	126.924	50	45
126.289	126.943	59	45
126.289	126.924	62	51
126.289	126.943	71	51
126.289	126.943	74	61
126.924	127.584	50	39
126.924	127.584	57	39
126.924	127.584	60	46
126.924	127.416	62	42
126.924	127.584	66	42
126.924	127.584	72	50
127.416	127.576	55	31
127.416	127.576	59	37
127.416	127.576	62	37
127.416	127.576	67	37
127.416	127.576	71	44
127.576	128.214	55	28
127.576	128.214	59	34
127.576	128.214	62	34
127.576	128.214	67	34
127.576	128.214	71	41
128.214	128.602	38	30
128.214	128.796	57	37
128.214	128.813	66	37
128.214	128.813	69	44
128.408	128.813	45	26
128.602	128.813	38	27
128.796	129.183	33	30
128.796	129.232	57	32
128.796	129.394	64	32
128.796	129.394	67	38
128.989	129.377	38	26
129.183	129.394	33	26
129.232	129.377	57	30
129.232	129.377	62	30
129.232	129.377	66	36
129.377	129.764	38	30
129.377	129.958	57	32
129.377	129.958	62	32
129.377	129.958	66	38
129.571	129.958	45	26
129.764	129.958	38	26
129.958	130.346	33	32
129.958	130.539	66	37
129.958	130.539	74	44
130.152	130.539	38	27
130.346	130.553	33	27
130.394	130.553	67	35
130.394	130.553	76	41
130.539	130.927	38	33
130.539	131.128	66	40
130.539	131.128	74	48
130.733	131.128	45	29
130.927	131.128	38	29
131.121	131.508	33	34
131.121	131.702	69	37
131.121	131.702	76	44
131.315	131.702	37	29
131.508	131.702	33	29
131.702	132.082	37	30
131.702	132.272	57	47
131.702	132.285	67	47
131.702	132.285	71	56
131.892	132.285	45	27
132.082	132.285	37	27
132.272	132.652	33	30
132.272	132.699	57	40
132.272	132.857	66	40
132.272	132.857	69	48
132.462	132.842	37	27
132.652	132.857	33	27
132.699	132.842	57	32
132.699	132.842	64	32
132.699	132.842	67	38
132.842	133.231	37	33
132.842	133.439	57	35
132.842	133.439	64	35
132.842	133.439	67	42
133.032	133.439	45	29
133.231	133.439	37	29
133.439	133.825	33	34
133.439	134.017	69	42
133.439	134.017	76	50
133.633	134.017	37	30
133.825	134.03	33	30
133.873	134.03	74	39
133.873	134.03	78	47
134.017	134.401	37	35
134.017	134.598	69	44
134.017	134.598	76	52
134.209	134.598	45	30
134.401	134.598	37	30
134.592	134.981	33	35
134.592	135.183	74	41
134.592	135.183	78	49
134.784	135.183	38	30
134.981	135.183	33	30
135.183	135.57	38	34
135.183	135.773	66	56
135.183	135.773	74	67
135.377	135.773	45	29
135.57	135.773	38	31
135.764	136.164	33	34
135.764	136.37	69	38
135.764	136.387	73	45
135.962	136.37	38	29
136.061	136.387	67	38
136.061	136.387	71	45
136.164	136.387	33	29
136.37	136.769	38	39
136.37	136.969	57	48
136.37	136.975	66	48
136.37	136.975	69	57
136.569	136.975	45	34
136.769	136.975	38	34
136.969	137.368	33	36
136.969	137.265	57	38
136.969	137.588	64	38
136.969	137.574	67	45
137.166	137.588	38	31
137.265	137.574	57	38
137.265	137.588	62	38
137.265	137.588	66	45
137.368	137.588	33	31
137.574	137.978	37	37
137.574	138.179	57	49
137.574	138.186	67	49
137.574	138.186	71	58
137.776	138.186	45	33
137.978	138.186	37	33
138.179	138.591	33	35
138.179	138.488	57	42
138.179	138.797	66	42
138.179	138.803	69	50
138.385	138.803	37	31
138.488	138.803	57	41
138.488	138.803	64	41
138.488	138.803	67	49
138.591	138.803	33	30
138.797	139.209	38	36
138.797	139.415	62	44
138.797	139.436	66	52
139.003	139.436	45	29
139.106	139.436	57	40
139.106	139.436	64	48
139.209	139.436	38	31
139.415	139.804	33	37
139.415	140.599	54	45
139.415	140.599	62	53
139.611	139.998	38	30
139.804	140.598	33	30
139.998	140.392	38	36
140.192	140.599	45	32
140.392	140.599	38	32
140.598	140.985	33	42
140.598	141.179	57	42
140.598	141.188	66	42
140.598	141.188	69	50
140.792	141.188	38	39
140.985	141.188	33	39
141.179	141.774	35	43
141.179	141.615	57	39
141.179	141.774	64	39
141.179	141.774	67	47
141.373	141.774	38	39
141.567	141.76	36	40
141.615	141.76	57	39
141.615	141.76	62	39
141.615	141.76	66	46
141.76	142.148	36	46
141.76	142.342	57	40
141.76	142.345	62	40
141.76	142.342	66	48
141.954	142.345	38	42
142.148	142.345	36	42
142.342	142.729	33	48
142.342	142.923	57	48
142.342	142.944	66	48
142.342	142.944	69	57
142.535	142.944	38	43
142.729	142.944	33	43
142.923	143.519	35	49
142.923	143.359	57	45
142.923	143.519	64	45
142.923	143.519	67	54
143.117	143.519	38	44
143.311	143.504	36	44
143.359	143.504	57	45
143.359	143.504	62	45
143.359	143.504	66	45
143.504	143.9	36	54
143.504	144.115	57	47
143.504	144.111	62	47
143.504	144.111	66	56
143.698	144.115	38	44
143.9	144.115	36	46
144.111	144.498	33	57
144.111	144.692	62	59
144.111	144.709	66	59
144.111	144.709	72	70
144.304	144.709	38	51
144.498	144.709	33	51
144.692	145.282	35	64
144.692	145.128	62	54
144.692	145.282	67	54
144.692	145.282	71	64
144.886	145.282	38	54
145.079	145.273	36	54
145.128	145.273	62	50
145.128	145.273	66	50
145.128	145.273	69	59
145.273	145.671	36	71
145.273	145.886	62	51
145.273	145.891	66	51
145.273	145.891	69	61
145.467	145.886	38	55
145.671	145.891	36	55
145.886	146.294	38	72
145.886	146.498	62	62
145.886	146.507	72	62
145.886	146.507	76	74
146.09	146.507	50	62
146.294	146.507	38	62
146.498	147.138	40	69
146.498	146.971	62	59
146.498	147.138	71	59
146.498	147.138	74	70
146.708	147.138	50	57
146.919	147.129	42	60
146.971	147.129	62	56
146.971	147.129	69	56
146.971	147.129	72	67
147.129	147.55	42	66
147.129	147.76	62	59
147.129	147.76	69	59
147.129	147.76	72	70
147.34	147.76	50	60
147.55	147.76	42	60
147.76	148.172	42	43
147.76	148.382	57	44
147.76	148.378	62	44
147.76	148.382	72	52
147.966	148.378	50	36
148.172	148.382	42	37
148.378	148.79	50	37
148.378	149.011	59	39
148.378	148.842	62	39
148.378	149.011	71	46
148.584	148.996	42	33
148.79	149.011	50	33
148.842	148.996	60	35
148.842	148.996	62	35
148.842	148.996	69	42
148.996	149.392	42	37
148.996	151.283	60	35
148.996	151.283	62	35
148.996	151.283	69	42
149.194	149.589	50	31
149.392	149.778	42	31
149.589	149.966	50	35
149.778	150.154	42	30
149.966	150.342	50	30
150.154	150.53	42	35
150.342	150.718	50	30
150.53	150.907	42	30
150.718	151.095	50	35
150.907	151.283	42	29
151.095	151.283	50	29
151.283	152.927	43	31
151.283	151.823	46	45
151.283	151.823	67	50
151.463	152.004	50	36
151.463	152.004	62	40
151.643	152.184	55	31
151.643	152.184	58	34
151.823	152.378	46	42
151.823	152.378	67	47
152.004	152.378	50	33
152.004	152.378	62	37
152.184	152.378	55	27
152.184	152.378	58	32
152.364	152.933	45	41
152.364	152.933	66	47
152.549	152.933	50	33
152.549	152.933	62	38
152.734	152.933	54	27
152.734	152.933	57	33
152.927	155.117	43	31
152.927	153.467	48	45
152.927	153.467	69	50
153.107	153.647	50	36
153.107	153.647	62	41
153.287	153.828	57	29
153.287	153.828	60	33
153.467	154.023	48	43
153.467	154.023	69	48
153.647	154.023	50	33
153.647	154.023	62	38
153.828	154.023	57	28
153.828	154.023	60	30
154.008	154.548	46	43
154.008	154.548	67	48
154.188	154.728	50	33
154.188	154.728	62	38
154.368	154.917	55	28
154.368	154.917	58	31
154.548	155.117	46	42
154.548	155.117	67	47
154.728	155.111	50	33
154.728	155.111	62	38
154.917	155.117	55	28
154.917	155.117	58	31
155.111	155.409	50	39
155.111	155.738	54	39
155.111	155.731	57	39
155.111	155.409	62	45
155.111	155.738	66	45
155.111	155.731	69	53
155.409	155.731	50	41
155.409	155.738	55	41
155.409	155.738	58	49
155.409	155.731	62	47
155.409	155.738	67	47
155.409	155.738	70	56
155.731	156.182	50	44
155.731	156.336	57	44
155.731	156.336	60	52
155.731	156.182	62	49
155.731	156.336	69	49
155.731	156.336	72	58
156.182	156.332	50	39
156.182	156.332	55	39
156.182	156.332	58	47
156.182	156.332	62	45
156.182	156.332	67	45
156.182	156.332	70	54
156.332	156.958	50	38
156.332	156.968	55	38
156.332	156.968	58	45
156.332	156.958	62	45
156.332	156.968	67	45
156.332	156.968	70	53
156.958	157.291	50	27
156.958	157.611	54	27
156.958	157.611	57	32
156.958	157.291	62	31
156.958	157.611	66	31
156.958	157.611	69	37
157.291	157.611	50	26
157.291	157.627	52	26
157.291	157.627	55	31
157.291	157.611	62	29
157.291	157.627	64	29
157.291	157.627	67	35
157.611	158.252	50	28
157.611	158.252	54	28
157.611	158.252	57	33
157.611	158.252	62	31
157.611	158.252	66	31
157.611	158.252	69	37
158.249	159.893	43	31
158.249	158.789	47	45
158.249	158.789	67	50
158.249	159.893	74	53
158.429	158.97	50	36
158.429	158.97	62	40
158.609	159.15	55	31
158.609	159.15	71	34
158.789	159.338	47	42
158.789	159.338	67	47
158.97	159.338	50	33
158.97	159.338	62	37
159.15	159.338	55	27
159.15	159.338	71	32
159.33	159.899	45	41
159.33	159.899	66	47
159.515	159.899	50	33
159.515	159.899	62	38
159.7	159.899	54	27
159.7	159.893	69	33
159.893	161.542	43	31
159.893	160.433	48	45
159.893	160.433	69	50
159.893	161.544	74	53
160.073	160.613	50	36
160.073	160.613	62	41
160.253	160.793	57	29
160.253	160.793	72	33
160.433	160.982	48	43
160.433	160.982	69	48
160.613	160.982	50	33
160.613	160.982	62	38
160.793	160.982	57	28
160.793	160.982	72	30
160.974	161.542	47	43
160.974	161.544	67	48
161.159	161.542	50	33
161.159	161.542	62	38
161.344	161.544	55	28
161.344	161.544	71	31
161.542	162.146	43	39
161.542	162.161	47	39
161.542	162.161	50	46
161.542	162.161	62	70
161.83	162.161	74	68
162.146	162.444	43	46
162.146	162.784	48	46
162.146	162.784	52	55
162.146	162.784	64	56
162.146	162.784	76	66
162.444	162.777	43	49
162.444	162.784	45	49
162.444	162.784	54	58
162.444	162.784	66	62
162.444	162.784	78	74
162.777	163.401	43	57
162.777	163.401	47	57
162.777	163.241	55	68
162.777	163.241	67	70
162.777	163.401	79	83
163.241	163.396	50	41
163.241	163.401	55	41
163.241	163.396	59	49
163.241	163.396	62	46
163.241	163.401	67	46
163.241	163.396	71	55
163.396	164.031	50	45
163.396	164.041	59	45
163.396	164.031	62	51
163.396	164.041	71	51
163.396	164.041	74	61
164.031	164.695	50	39
164.031	164.695	57	39
164.031	164.695	60	46
164.031	164.523	62	42
164.031	164.695	66	42
164.031	164.695	72	50
164.523	164.683	55	31
164.523	164.683	59	37
164.523	164.683	62	37
164.523	164.683	67	37
164.523	164.683	71	44
164.683	165.326	55	28
164.683	165.326	59	34
164.683	165.326	62	34
164.683	165.326	67	34
164.683	165.326	71	41
165.321	165.709	38	30
165.321	165.903	57	37
165.321	165.91	66	37
165.321	165.91	69	44
165.515	165.91	45	26
165.709	165.91	38	27
165.903	166.29	33	30
165.903	166.339	57	32
165.903	166.492	64	32
165.903	166.492	67	38
166.096	166.484	38	26
166.29	166.492	33	26
166.339	166.484	57	30
166.339	166.484	62	30
166.339	166.484	66	36
166.484	166.871	38	30
166.484	167.069	57	32
166.484	167.069	62	32
166.484	167.065	66	38
166.678	167.069	45	26
166.871	167.069	38	26
167.065	167.453	33	32
167.065	167.646	66	37
167.065	167.646	74	44
167.259	167.646	38	27
167.453	167.652	33	27
167.501	167.652	67	35
167.501	167.652	76	41
167.646	168.034	38	33
167.646	168.231	66	40
167.646	168.231	74	48
167.84	168.231	45	29
168.034	168.231	38	29
168.228	168.615	33	34
168.228	168.809	69	37
168.228	168.809	76	44
168.421	168.809	37	29
168.615	168.809	33	29
168.809	169.189	37	30
168.809	169.379	57	46
168.809	169.387	67	46
168.809	169.387	71	55
168.999	169.387	45	27
169.189	169.387	37	27
169.379	169.759	33	30
169.379	169.806	57	39
169.379	169.964	66	39
169.379	169.964	69	47
169.569	169.949	37	27
169.759	169.964	33	27
169.806	169.949	57	32
169.806	169.949	64	32
169.806	169.949	67	38
169.949	170.338	37	33
169.949	170.55	57	35
169.949	170.55	64	35
169.949	170.55	67	42
170.139	170.55	45	29
170.338	170.55	37	29
170.546	170.932	33	34
170.546	171.124	69	42
170.546	171.124	76	50
170.74	171.124	37	30
170.932	171.137	33	30
170.98	171.137	74	39
170.98	171.137	78	47
171.124	171.508	37	35
171.124	171.716	69	44
171.124	171.716	76	52
171.316	171.716	45	30
171.508	171.716	37	30
171.699	172.088	33	35
171.699	172.29	74	41
171.699	172.293	78	49
171.891	172.29	38	30
172.088	172.293	33	30
172.29	172.677	38	34
172.29	172.886	66	51
172.29	172.886	74	61
172.484	172.886	45	29
172.677	172.886	38	31
172.871	173.271	33	34
172.871	173.477	69	38
172.871	173.489	73	45
173.069	173.477	38	29
173.168	173.489	67	38
173.168	173.489	71	45
173.271	173.489	33	29
173.477	173.876	38	39
173.477	174.076	57	48
173.477	174.083	66	48
173.477	174.083	69	57
173.676	174.083	45	34
173.876	174.083	38	34
174.076	174.475	33	36
174.076	174.372	57	38
174.076	174.695	64	38
174.076	174.681	67	45
174.273	174.695	38	31
174.372	174.681	57	38
174.372	174.695	62	38
174.372	174.695	66	38
174.475	174.695	33	31
174.681	175.085	37	37
174.681	175.286	57	49
174.681	175.303	67	49
174.681	175.303	71	58
174.883	175.303	45	33
175.085	175.303	37	33
175.286	175.698	33	35
175.286	175.595	57	42
175.286	175.904	66	42
175.286	175.91	69	50
175.492	175.91	37	31
175.595	175.91	57	41
175.595	175.91	64	41
175.595	175.91	67	49
175.698	175.91	33	30
175.904	176.316	38	36
175.904	176.522	62	44
175.904	176.539	66	52
176.11	176.539	45	29
176.213	176.539	57	40
176.213	176.539	64	48
176.316	176.539	38	31
176.522	176.911	33	37
176.522	177.705	54	45
176.522	177.705	62	53
176.718	177.105	38	30
176.911	177.705	33	30
177.105	177.499	38	36
177.299	177.705	45	32
177.499	177.705	38	32
177.705	178.092	33	42
177.705	178.286	57	44
177.705	178.304	66	44
177.705	178.304	69	52
177.899	178.304	38	39
178.092	178.304	33	39
178.286	178.883	35	43
178.286	178.722	57	41
178.286	178.883	64	41
178.286	178.883	67	49
178.48	178.883	38	39
178.674	178.867	36	40
178.722	178.867	57	39
178.722	178.867	62	39
178.722	178.867	66	46
178.867	179.255	36	46
178.867	179.449	57	40
178.867	179.455	62	40
178.867	179.449	66	48
179.061	179.455	38	42
179.255	179.455	36	42
179.449	179.836	33	48
179.449	180.03	57	48
179.449	180.038	66	57
179.449	180.038	69	57
179.642	180.038	38	43
179.836	180.038	33	43
180.03	180.628	35	49
180.03	180.466	57	45
180.03	180.628	64	45
180.03	180.628	67	54
180.224	180.628	38	44
180.417	180.611	36	44
180.466	180.611	57	45
180.466	180.611	62	45
180.466	180.611	66	53
180.611	181.007	36	54
180.611	181.218	57	47
180.611	181.218	62	47
180.611	181.218	66	56
180.805	181.218	38	44
181.007	181.218	36	46
181.218	181.605	33	57
181.218	181.799	62	59
181.218	181.806	66	59
181.218	181.806	72	70
181.411	181.806	38	51
181.605	181.806	33	51
181.799	182.389	35	64
181.799	182.235	62	56
181.799	182.389	67	66
181.799	182.389	71	66
181.993	182.389	38	54
182.186	182.38	36	54
182.235	182.38	62	50
182.235	182.38	66	50
182.235	182.38	69	59
182.38	182.778	36	71
182.38	182.993	62	51
182.38	183.002	66	51
182.38	183.002	69	61
182.574	182.993	38	55
182.778	183.002	36	55
182.993	183.401	38	72
182.993	183.605	62	61
182.993	183.621	72	61
182.993	183.621	76	72
183.197	183.621	50	62
183.401	183.621	38	62
183.605	184.243	40	69
183.605	184.078	62	59
183.605	184.243	71	59
183.605	184.243	74	70
183.815	184.243	50	57
184.026	184.236	42	60
184.078	184.236	62	56
184.078	184.236	69	56
184.078	184.236	72	67
184.236	184.657	42	66
184.236	184.867	62	59
184.236	184.871	69	59
184.236	184.867	72	70
184.447	184.871	50	60
184.657	184.867	42	60
184.867	185.279	42	43
184.867	185.494	57	44
184.867	185.485	62	44
184.867	185.494	72	52
185.073	185.485	50	36
185.279	185.494	42	37
185.485	185.897	50	37
185.485	186.118	59	39
185.485	185.949	62	39
185.485	186.118	71	46
185.691	186.103	42	33
185.897	186.118	50	33
185.949	186.103	60	35
185.949	186.103	62	35
185.949	186.103	69	42
186.103	186.499	42	37
186.103	188.39	60	35
186.103	188.39	62	35
186.103	188.39	69	42
186.301	186.696	50	31
186.499	186.885	42	31
186.696	187.073	50	35
186.885	187.261	42	30
187.073	187.449	50	30
187.261	187.637	42	35
187.449	187.825	50	30
187.637	188.014	42	30
187.825	188.202	50	35
188.014	188.39	42	29
188.202	188.39	50	29
188.39	190.034	43	31
188.39	188.93	46	45
188.39	188.93	67	50
188.57	189.111	50	36
188.57	189.111	62	40
188.75	189.291	55	31
188.75	189.291	58	34
188.93	189.485	46	42
188.93	189.485	67	47
189.111	189.485	50	33
189.111	189.485	62	37
189.291	189.485	55	27
189.291	189.485	58	32
189.471	190.041	45	41
189.471	190.041	66	47
189.656	190.041	50	33
189.656	190.041	62	38
189.841	190.041	54	27
189.841	190.041	57	33
190.034	192.232	43	31
190.034	190.574	48	45
190.034	190.574	69	50
190.214	190.754	50	36
190.214	190.754	62	41
190.394	190.935	57	29
190.394	190.935	60	33
190.574	191.13	48	43
190.574	191.13	69	48
190.754	191.13	50	33
190.754	191.13	62	38
190.935	191.13	57	28
190.935	191.13	60	30
191.115	191.655	46	43
191.115	191.655	67	48
191.295	191.835	50	33
191.295	191.835	62	38
191.475	192.024	55	28
191.475	192.024	58	31
191.655	192.232	46	42
191.655	192.232	67	47
191.835	192.218	50	33
191.835	192.218	62	38
192.024	192.232	55	28
192.024	192.232	58	31
192.218	192.516	50	39
192.218	192.845	54	39
192.218	192.838	57	46
192.218	192.516	62	45
192.218	192.845	66	45
192.218	192.838	69	53
192.516	192.838	50	41
192.516	192.845	55	41
192.516	192.845	58	49
192.516	192.838	62	46
192.516	192.845	67	46
192.516	192.845	70	55
192.838	193.289	50	44
192.838	193.447	57	44
192.838	193.447	60	52
192.838	193.289	62	50
192.838	193.447	69	59
192.838	193.447	72	59
193.289	193.439	50	39
193.289	193.439	55	39
193.289	193.439	58	47
193.289	193.439	62	45
193.289	193.439	67	45
193.289	193.439	70	54
193.439	194.065	50	38
193.439	194.074	55	38
193.439	194.074	58	45
193.439	194.065	62	45
193.439	194.074	67	45
193.439	194.074	70	53
194.065	194.398	50	27
194.065	194.718	54	27
194.065	194.718	57	32
194.065	194.398	62	31
194.065	194.718	66	31
194.065	194.718	69	37
194.398	194.718	50	26
194.398	194.73	52	26
194.398	194.73	55	26
194.398	194.718	62	29
194.398	194.73	64	29
194.398	194.73	67	35
194.718	195.356	50	28
194.718	195.356	54	28
194.718	195.356	57	33
194.718	195.356	62	31
194.718	195.356	66	31
194.718	195.356	69	37
195.356	197.0	43	31
195.356	195.896	47	45
195.356	195.896	67	50
195.356	197.0	74	53
195.536	196.077	50	36
195.536	196.077	62	40
195.716	196.257	55	31
195.716	196.257	71	34
195.896	196.454	47	42
195.896	196.454	67	47
196.077	196.454	50	33
196.077	196.454	62	37
196.257	196.454	55	27
196.257	196.454	71	32
196.437	197.005	45	41
196.437	197.005	66	47
196.622	197.005	50	33
196.622	197.005	62	38
196.807	197.005	54	27
196.807	197.0	69	33
197.0	198.649	43	31
197.0	197.54	48	45
197.0	197.54	69	50
197.0	198.657	74	53
197.18	197.72	50	36
197.18	197.72	62	41
197.36	197.9	57	29
197.36	197.9	72	33
197.54	198.095	48	43
197.54	198.095	69	48
197.72	198.095	50	33
197.72	198.095	62	38
197.9	198.095	57	28
197.9	198.095	72	30
198.081	198.649	47	43
198.081	198.657	67	48
198.266	198.649	50	33
198.266	198.649	62	38
198.451	198.657	55	28
198.451	198.657	71	31
198.649	199.253	43	39
198.649	199.264	47	39
198.649	199.264	50	46
198.649	199.264	62	70
198.938	199.264	74	68
199.253	199.551	43	46
199.253	199.893	48	46
199.253	199.893	52	55
199.253	199.893	64	56
199.253	199.893	76	66
199.551	199.884	43	49
199.551	199.893	45	49
199.551	199.893	54	58
199.551	199.893	66	62
199.551	199.893	78	73
199.884	200.51	43	57
199.884	200.51	47	57
199.884	200.348	55	68
199.884	200.348	67	69
199.884	200.51	79	82
200.348	200.503	50	41
200.348	200.51	55	41
200.348	200.503	59	49
200.348	200.503	62	46
200.348	200.51	67	46
200.348	200.503	71	55
200.503	201.138	50	45
200.503	201.15	59	45
200.503	201.138	62	54
200.503	201.15	71	61
200.503	201.15	74	61
201.138	201.805	50	39
201.138	201.805	57	39
201.138	201.805	60	46
201.138	201.631	62	42
201.138	201.805	66	42
201.138	201.805	72	50
201.631	201.79	55	31
201.631	201.79	59	37
201.631	201.79	62	37
201.631	201.79	67	37
201.631	201.79	71	44
201.79	202.428	55	28
201.79	202.428	59	34
201.79	202.428	62	34
201.79	202.428	67	34
201.79	202.428	71	41
202.428	202.816	43	30
202.428	203.015	64	40
202.428	203.01	67	40
202.428	203.015	72	40
202.622	203.01	55	26
202.816	203.015	43	27
203.01	203.397	55	30
203.01	203.605	62	38
203.01	203.446	67	38
203.01	203.605	71	38
203.203	203.591	43	26
203.397	203.605	55	26
203.446	203.591	60	36
203.446	203.591	67	36
203.446	203.591	69	36
203.591	203.978	43	30
203.591	204.177	60	38
203.591	204.177	67	38
203.591	204.177	69	38
203.785	204.177	55	26
203.978	204.172	43	26
204.172	204.56	43	30
204.172	204.754	62	40
204.172	204.768	71	40
204.366	204.754	55	26
204.56	204.768	43	27
204.754	205.141	55	30
204.754	205.343	60	38
204.754	205.189	62	38
204.754	205.343	69	38
204.947	205.335	43	26
205.141	205.343	55	26
205.189	205.335	59	36
205.189	205.335	62	36
205.189	205.335	67	36
205.335	205.727	43	30
205.335	205.936	59	38
205.335	205.932	62	38
205.335	205.936	67	38
205.529	205.936	55	26
205.727	205.936	43	26
205.932	206.319	31	30
205.932	206.533	60	40
205.932	206.513	62	40
205.932	206.533	69	40
206.125	206.513	43	26
206.319	206.533	31	27
206.513	206.9	43	30
206.513	207.111	59	38
206.513	207.111	62	38
206.513	207.111	67	38
206.707	207.094	31	26
206.9	207.111	43	26
206.949	207.094	57	36
206.949	207.094	60	36
206.949	207.094	66	36
207.094	207.482	31	30
207.094	207.68	57	38
207.094	207.68	60	38
207.094	207.68	66	38
207.288	207.68	43	26
207.482	207.675	31	26
207.675	208.063	31	30
207.675	208.271	59	40
207.675	208.271	67	40
207.869	208.257	43	26
208.063	208.271	31	27
208.257	208.644	43	30
208.257	208.846	57	38
208.257	208.846	62	38
208.45	208.838	31	26
208.644	208.846	43	26
208.693	208.838	55	36
208.693	208.838	59	36
208.838	209.23	31	30
208.838	209.432	55	38
208.838	209.435	59	38
209.032	209.435	43	26
209.23	209.432	31	26
209.432	209.832	31	28
209.432	210.032	55	38
209.432	210.042	62	38
209.432	210.042	65	38
209.632	210.032	43	24
209.832	210.042	31	25
210.032	210.432	43	28
210.032	210.482	55	36
210.032	210.648	60	36
210.032	210.648	64	36
210.232	210.632	31	24
210.432	210.648	43	24
210.482	210.632	55	34
210.482	210.632	59	34
210.482	210.632	62	34
210.632	211.032	31	28
210.632	211.237	55	36
210.632	211.232	59	36
210.632	211.237	62	36
210.832	211.237	43	24
211.032	211.232	31	24
211.232	211.628	31	28
211.232	211.825	59	38
211.232	211.842	65	38
211.232	211.842	69	38
211.43	211.825	43	24
211.628	211.842	31	24
211.825	212.213	43	27
211.825	212.262	59	34
211.825	212.416	64	34
211.825	212.416	67	34
212.019	212.407	31	23
212.213	212.416	43	22
212.262	212.407	59	31
212.262	212.407	62	31
212.262	212.407	65	31
212.407	212.801	31	25
212.407	213.005	59	32
212.407	213.009	62	32
212.407	213.005	65	32
212.601	213.009	43	21
212.801	213.005	31	21
213.005	213.437	31	27
213.005	215.117	59	36
213.005	215.117	65	36
213.005	214.342	69	36
213.222	213.652	43	23
213.437	213.871	31	24
213.652	214.094	43	27
213.871	214.32	31	23
213.982	214.342	68	36
214.094	214.342	43	23
214.32	214.839	31	27
214.32	215.117	67	36
214.573	215.117	43	23
214.7	215.117	69	36
214.839	215.117	31	23
215.117	217.666	43	23
215.117	217.666	50	23
215.117	217.666	59	36
215.117	217.666	65	36
215.117	217.666	69	36
215.999	217.666	67	36
217.667	218.208	55	54
217.667	218.208	67	60
218.14	218.218	57	44
218.14	218.218	69	50
218.208	218.722	55	54
218.208	218.722	67	60
218.383	218.734	52	50
218.383	218.734	64	57
218.553	218.734	48	47
218.553	218.734	60	53
218.722	219.314	55	54
218.722	219.314	67	60
219.147	219.307	64	51
219.147	219.307	76	56
219.307	220.503	64	54
219.307	220.503	76	60
220.486	220.781	60	40
220.486	220.781	72	44
221.075	221.631	67	59
221.55	221.631	65	50
221.618	222.174	64	60
221.798	222.16	60	56
221.979	222.174	55	52
222.16	222.691	60	60
222.337	222.691	64	57
222.514	222.691	67	54
222.691	222.835	43	51
222.691	222.835	55	56
222.691	222.835	64	56
222.691	222.835	67	56
222.979	223.117	45	46
222.979	223.117	55	53
222.979	223.117	62	53
222.979	223.117	65	53
223.117	223.255	47	46
223.255	223.362	48	51
223.255	223.362	55	56
223.255	223.362	60	56
223.255	223.362	64	56
223.54	223.651	43	45
223.54	223.651	55	50
223.54	223.651	59	50
223.54	223.651	62	50
223.834	223.978	48	51
223.834	223.978	55	56
223.834	223.978	60	56
223.834	223.978	64	56
224.407	224.699	43	36
224.407	224.553	55	41
224.407	224.553	63	41
224.407	224.553	67	41
224.699	224.839	45	34
224.699	224.839	55	37
224.699	224.839	62	37
224.699	224.839	65	37
224.839	224.979	47	35
224.979	225.12	48	36
224.979	225.085	55	41
224.979	225.085	60	41
224.979	225.085	63	41
225.262	225.369	43	33
225.262	225.369	55	38
225.262	225.369	59	38
225.262	225.369	62	38
225.548	225.655	48	36
225.548	225.655	55	41
225.548	225.655	60	41
225.548	225.655	63	41
225.833	225.937	46	33
225.833	225.937	58	38
225.833	225.937	62	38
225.833	225.937	65	38
226.109	226.389	46	46
226.109	226.377	58	50
226.109	226.389	62	50
226.109	226.389	65	50
226.377	226.586	51	43
226.377	226.586	58	48
226.377	226.586	63	48
226.377	226.586	67	48
226.655	226.941	51	48
226.655	226.941	58	52
226.655	226.941	63	52
226.655	226.941	67	52
226.931	227.146	50	46
226.931	227.146	62	54
226.931	227.146	66	54
226.931	227.146	69	54
227.217	227.506	50	54
227.217	227.495	62	60
227.217	227.506	66	60
227.217	227.506	69	60
227.495	227.71	55	51
227.495	227.71	62	57
227.495	227.71	67	57
227.495	227.71	70	57
227.781	228.067	55	59
227.781	228.067	62	66
227.781	228.067	67	66
227.781	228.09	70	66
228.067	228.419	43	55
228.067	228.419	53	55
228.067	228.419	55	55
228.067	228.419	62	64
228.067	228.419	67	64
228.067	228.419	71	64
228.419	229.398	43	61
228.419	229.772	53	61
228.419	229.398	55	61
228.419	229.772	62	70
228.419	229.772	67	70
228.419	229.398	71	70
229.398	229.772	43	48
229.398	229.772	50	48
229.398	229.756	55	48
229.398	229.772	65	54
229.398	229.772	71	54
229.398	229.772	77	54
229.756	231.524	48	48
229.756	231.524	55	48
229.756	231.524	64	54
229.756	231.524	72	54
229.756	231.524	76	54
231.524	232.087	76	54
232.016	232.095	77	44
232.087	232.644	76	54
232.267	232.636	72	50
232.448	232.644	69	47
232.566	232.644	74	44
232.636	233.191	72	54
232.816	233.191	69	51
232.996	233.191	64	47
233.191	233.748	52	52
233.191	233.748	64	45
233.191	233.761	69	45
233.191	233.761	72	54
233.469	233.748	68	43
233.469	233.748	71	51
233.678	233.761	53	44
233.748	234.384	52	58
233.748	234.064	64	45
233.748	234.384	68	54
233.748	234.384	71	54
233.958	234.393	47	57
234.064	234.384	64	43
234.064	234.393	66	43
234.064	234.393	69	51
234.169	234.393	40	54
234.384	234.98	52	59
234.384	234.98	64	45
234.384	234.98	68	45
234.384	234.98	71	54
234.98	235.552	52	52
234.98	235.552	64	45
234.98	235.552	67	45
234.98	235.565	72	54
235.266	235.552	71	51
235.481	235.565	53	44
235.552	236.165	52	59
235.552	235.865	64	45
235.552	235.865	67	45
235.552	236.156	71	54
235.761	236.165	55	55
235.865	236.165	64	44
235.865	236.156	67	44
235.865	236.165	72	52
235.962	236.165	60	53
236.156	236.795	62	45
236.156	236.795	65	53
236.156	236.795	67	45
236.156	236.795	71	54
236.462	236.795	77	53
236.768	237.39	60	44
236.768	237.39	64	52
236.768	237.39	76	54
237.304	237.39	74	43
237.381	237.687	62	46
237.381	237.687	66	55
237.381	238.017	72	53
237.585	237.993	71	51
237.687	237.993	62	45
237.687	238.017	66	53
237.789	238.017	69	52
237.993	238.631	55	47
237.993	238.631	62	47
237.993	238.631	67	56
237.993	238.631	71	55
238.631	239.141	59	61
238.631	239.141	71	68
239.141	239.204	60	51
239.141	239.204	72	58
239.204	239.638	59	61
239.204	239.638	71	68
239.379	239.638	55	59
239.379	239.638	67	66
239.549	239.697	52	56
239.549	239.697	64	64
239.747	240.166	67	76
239.747	240.166	79	82
240.022	240.166	64	64
240.022	240.166	76	72
240.348	240.844	59	62
240.348	240.844	71	70
240.844	241.302	60	53
240.844	241.302	72	60
240.907	241.302	59	64
240.907	241.302	71	71
241.081	241.302	55	61
241.081	241.302	67	69
241.249	241.394	52	57
241.249	241.394	64	66
241.443	241.883	67	76
241.443	241.883	79	85
241.715	241.883	64	66
241.715	241.883	76	74
242.022	242.402	47	77
242.022	242.402	75	90
242.022	242.402	78	90
242.022	242.402	83	90
242.305	242.411	59	72
242.305	242.411	71	87
242.517	242.579	63	55
242.517	242.579	81	70
242.579	242.75	64	73
242.579	242.75	79	87
242.75	242.916	66	67
242.75	242.916	78	83
242.916	243.121	67	78
242.916	243.121	76	78
243.121	243.488	47	79
243.121	243.488	75	93
243.121	243.488	78	93
243.121	243.488	83	93
243.404	243.511	59	73
243.404	243.511	71	86
243.617	243.679	63	58
243.617	243.679	81	72
243.679	243.847	64	75
243.679	243.847	79	89
243.847	244.013	66	68
243.847	244.013	78	85
244.013	244.205	67	66
244.013	244.205	76	82
244.205	244.662	47	80
244.205	244.662	75	95
244.205	244.662	78	95
244.205	244.662	83	95
244.485	244.662	59	75
244.485	244.662	71	89
244.782	245.238	35	81
244.782	245.238	95	115
245.091	245.238	47	70
245.091	245.238	83	93
247.036	247.47	64	36
247.036	247.47	79	45
247.316	247.47	67	25
247.316	247.47	76	30
247.608	247.97	64	34
247.608	247.97	79	43
247.885	248.028	67	25
247.885	248.028	76	31
248.171	248.628	64	33
248.171	248.628	79	42
248.451	248.628	67	26
248.451	248.628	76	31
248.737	249.169	64	33
248.737	249.169	79	41
249.018	249.169	67	24
249.018	249.169	76	29
249.303	249.752	64	31
249.303	249.752	79	38
249.584	249.752	67	23
249.584	249.752	76	27
249.869	250.343	64	30
249.869	250.343	79	37
250.15	250.343	67	21
250.15	250.343	76	26
250.435	250.978	55	48
250.435	250.978	76	36
250.435	250.978	79	36
250.707	250.983	67	27
250.91	250.983	57	40
250.978	251.52	55	48
250.978	251.52	76	36
250.978	251.52	79	36
251.158	251.531	52	45
251.249	251.531	67	27
251.339	251.531	48	39
251.52	252.108	55	48
251.52	252.104	76	36
251.52	252.104	79	36
251.798	252.108	67	27
251.944	252.104	64	45
252.104	253.626	64	48
252.104	252.685	76	38
252.104	252.685	79	38
252.399	252.971	67	29
252.685	253.256	76	38
252.685	253.256	79	38
252.971	253.542	67	27
253.256	253.626	60	36
253.256	253.626	76	34
253.256	253.626	79	34
253.542	253.685	67	26
253.828	254.37	67	47
254.302	254.38	69	44
254.37	254.901	67	52
254.551	254.911	64	49
254.726	254.911	60	42
254.901	255.499	67	52
255.326	255.486	76	48
255.486	256.027	55	48
255.486	256.586	76	52
255.959	256.036	57	40
256.027	256.567	55	48
256.207	256.586	52	45
256.387	256.586	48	41
256.567	257.158	55	48
256.567	257.158	72	35
256.992	257.139	64	45
257.139	258.23	64	48
257.139	257.691	79	70
257.613	257.691	77	51
257.681	258.23	76	61
257.862	258.223	72	57
258.043	258.23	67	55
258.223	258.766	60	38
258.223	258.766	72	63
258.404	258.766	76	59
258.585	258.766	79	56
258.766	258.908	43	61
258.766	258.908	67	70
258.766	258.908	76	70
258.766	258.908	79	70
259.051	259.186	45	55
259.051	259.186	67	66
259.051	259.186	74	66
259.051	259.186	77	66
259.186	259.321	47	55
259.321	259.428	48	61
259.321	259.428	67	70
259.321	259.428	72	70
259.321	259.428	76	70
259.605	259.715	43	53
259.605	259.715	67	63
259.605	259.715	71	63
259.605	259.715	74	63
259.899	260.042	48	61
259.899	260.042	67	70
259.899	260.042	72	70
259.899	260.042	76	70
260.472	260.617	51	38
260.472	260.617	55	38
260.472	260.763	67	45
260.763	260.904	50	35
260.763	260.904	53	35
260.763	260.904	55	35
260.763	260.904	69	41
260.904	261.046	71	41
261.046	261.156	48	38
261.046	261.156	51	38
261.046	261.156	55	38
261.046	261.156	72	45
261.34	261.448	47	35
261.34	261.448	50	35
261.34	261.448	55	35
261.34	261.448	67	39
261.628	261.735	48	42
261.628	261.735	51	42
261.628	261.735	55	42
261.628	261.735	72	48
261.911	262.048	50	49
261.911	262.048	53	49
261.911	262.048	58	49
261.911	262.048	70	65
261.911	262.048	82	65
262.184	262.318	53	52
262.184	262.318	56	52
262.184	262.318	58	52
262.184	262.318	70	67
262.184	262.318	82	67
262.452	262.595	51	49
262.452	262.595	55	49
262.452	262.595	58	49
262.452	262.595	75	70
262.452	262.595	87	70
262.738	262.877	51	53
262.738	262.877	55	53
262.738	262.877	58	53
262.738	262.877	75	73
262.738	262.877	87	73
263.015	263.159	54	51
263.015	263.159	57	51
263.015	263.159	62	51
263.015	263.159	74	71
263.015	263.159	86	71
263.302	263.445	57	57
263.302	263.445	60	57
263.302	263.445	62	57
263.302	263.445	74	78
263.302	263.445	86	78
263.588	263.735	55	55
263.588	263.735	58	55
263.588	263.735	62	55
263.588	263.735	79	77
263.588	263.735	91	77
263.882	264.03	55	62
263.882	264.03	58	62
263.882	264.03	62	62
263.882	264.03	79	84
263.882	264.03	91	84
264.177	264.332	43	49
264.177	264.332	50	49
264.177	264.332	59	49
264.177	264.332	77	70
264.177	264.332	89	70
264.486	265.946	43	47
264.486	265.946	50	47
264.486	265.946	59	47
264.486	265.946	77	66
264.486	265.946	89	66
265.571	265.946	55	37
265.571	265.946	65	37
265.571	265.941	67	37
265.571	265.946	71	48
265.571	265.946	83	48
265.941	267.71	60	35
265.941	267.71	64	35
265.941	267.71	67	35
265.941	267.71	72	45
265.941	267.71	84	45
