OnsetTime	OffsetTime	MidiPitch	Velocity
0.500004	1.11306	53	62
1.11179	1.72485	51	60
1.72485	2.33952	56	58
2.32593	2.93242	58	54
2.62229	2.93242	63	54
2.91865	3.51972	60	57
3.51972	4.1263	58	52
3.81608	4.1263	63	55
4.11243	4.71775	60	50
4.71775	5.31668	56	57
5.31668	5.92201	58	55
5.92201	6.52735	53	57
6.52735	7.15065	51	57
7.15065	7.77777	53	61
7.15065	7.77777	61	48
7.15065	7.77777	65	48
7.15065	7.77777	68	48
7.76371	8.49153	51	60
7.76371	8.49153	58	43
7.76371	8.49153	67	43
7.76371	8.49153	70	43
8.37677	8.98211	56	61
8.37677	8.98211	63	50
8.37677	8.98211	68	50
8.37677	8.98211	72	50
8.98211	9.56731	58	66
8.98211	9.58103	67	56
8.98211	9.58103	70	56
8.98211	9.58103	75	56
9.28158	9.58103	63	67
9.58103	10.1706	60	65
9.58103	10.1706	72	55
9.58103	10.1706	75	55
9.58103	10.1706	80	55
10.1706	10.8416	58	70
10.1706	10.8416	70	56
10.1706	10.7696	75	56
10.1706	10.8416	79	56
10.4701	10.8416	63	66
10.7696	11.3766	60	69
10.7696	11.3766	67	54
10.7696	11.3766	72	54
10.7696	11.3766	75	54
11.3766	12.0462	56	52
11.3766	12.0462	68	47
11.3766	12.0462	72	47
11.3766	11.9868	77	47
11.9868	12.6814	58	54
11.9868	12.6814	73	45
11.9868	12.6068	77	45
11.9868	12.6814	82	45
12.6068	13.2351	53	49
12.6068	13.2351	77	39
12.6068	13.2351	80	39
12.6068	13.2351	84	39
13.2351	13.6035	51	45
13.2351	13.6035	79	39
13.2351	13.6035	82	39
13.2351	13.6035	87	39
13.8804	14.4762	51	62
14.4762	15.0719	53	60
15.0719	15.673	48	58
15.673	16.2238	51	57
15.9694	16.2657	53	50
16.2657	16.8668	46	56
16.8668	17.5022	53	52
17.1632	17.5022	55	49
17.4595	18.0616	51	50
18.0616	18.6606	63	68
18.6606	19.2659	60	62
19.2659	19.8132	58	63
19.5686	19.8712	56	57
19.8712	20.4831	51	57
20.4831	21.095	51	67
20.4831	21.095	67	48
20.4831	21.095	70	48
20.4831	21.095	75	48
20.4831	21.095	79	48
21.095	21.7068	53	63
21.095	21.7068	65	48
21.095	21.7068	68	48
21.095	21.7068	73	48
21.095	21.7068	77	48
21.7068	22.3079	48	61
21.7068	22.3079	68	48
21.7068	22.3079	72	48
21.7068	22.3079	75	48
21.7068	22.3079	80	48
22.3079	22.8733	51	61
22.3079	22.9164	70	48
22.3079	22.9164	75	48
22.3079	22.9164	79	48
22.3079	22.9164	82	48
22.6122	22.9164	53	56
22.9164	23.5186	46	63
22.9164	23.5186	73	50
22.9164	23.5186	77	50
22.9164	23.5186	82	50
22.9164	23.5186	85	50
23.5186	24.1134	53	61
23.5186	24.1434	77	55
23.5186	24.1434	82	55
23.5186	24.1434	85	55
23.5186	24.1434	89	55
23.831	24.1434	55	56
24.1434	24.7682	51	61
24.1434	24.7682	79	52
24.1434	24.7682	82	52
24.1434	24.7682	87	52
24.1434	24.7682	91	52
24.7682	25.4038	63	66
24.7682	25.4038	72	57
24.7682	25.4038	75	57
24.7682	25.4038	79	57
24.7682	25.4038	84	57
25.4038	26.0286	60	59
25.4038	26.0286	68	55
25.4038	26.0286	72	55
25.4038	26.0286	75	55
25.4038	26.0286	80	55
26.0286	26.6033	58	58
26.0286	26.6642	70	54
26.0286	26.6642	73	54
26.0286	26.6642	77	54
26.0286	26.6642	82	54
26.3464	26.6642	56	50
26.6642	27.1725	51	57
26.6642	27.1725	67	48
26.6642	27.1725	70	48
26.6642	27.1725	75	48
26.6642	27.1725	79	48
27.3308	29.2053	51	63
27.3308	27.9725	56	56
27.3308	27.9725	61	56
27.3308	27.9725	65	56
27.9725	28.5975	55	54
27.9725	28.5975	58	54
27.9725	28.5975	63	54
28.5975	29.2053	60	54
28.5975	29.2053	63	54
28.5975	29.2053	68	52
29.2053	30.4412	44	67
29.2053	30.3254	63	46
29.2053	29.8301	67	46
29.2053	29.7859	70	46
29.5177	29.8301	75	39
29.8301	30.3254	68	50
29.8301	30.3254	72	50
30.4412	32.2815	39	66
30.4412	31.0625	61	46
30.4412	31.0625	65	46
30.4412	31.0328	70	46
30.7519	31.0625	75	40
31.0625	31.677	63	45
31.0625	31.677	67	45
31.0625	31.677	72	45
31.677	32.2815	60	50
31.677	32.2815	63	50
31.677	32.2815	68	50
32.2815	33.5219	32	61
32.2815	32.8969	62	50
32.2815	32.8969	65	50
32.2815	32.8969	70	50
32.8969	33.5219	58	48
32.8969	33.5219	62	48
32.8969	33.5219	65	48
33.5219	34.7525	55	44
33.5219	34.7525	58	44
33.5219	34.7525	63	44
34.1776	34.8134	56	50
34.1776	34.8134	61	50
34.1776	34.8134	65	50
34.1776	35.4492	70	56
34.1776	35.4492	82	56
34.8134	35.4492	55	54
34.8134	35.4492	58	54
34.8134	35.4492	63	54
35.4492	36.0643	60	48
35.4492	36.0643	63	48
35.4492	36.0643	68	48
35.4492	36.3686	75	62
35.4492	37.288	87	62
36.0643	37.1714	63	48
36.0643	36.6728	67	48
36.0643	36.6297	70	48
36.3686	37.288	75	40
36.6728	37.1714	68	50
36.6728	37.1714	72	50
37.288	37.9065	61	46
37.288	37.9065	65	46
37.288	37.8769	70	46
37.288	38.5495	79	46
37.288	38.5495	91	46
37.5972	37.9065	75	40
37.9065	38.5495	63	45
37.9065	38.5495	67	45
37.9065	38.5495	72	45
38.5495	39.2317	60	40
38.5495	39.2317	63	40
38.5495	39.2317	68	40
38.5495	39.2317	80	45
38.5495	39.2317	92	45
39.2317	39.9681	62	42
39.2317	39.9681	65	42
39.2317	39.9681	70	42
39.2317	41.7293	82	44
39.2317	41.7293	94	44
39.9681	40.7771	58	38
39.9681	40.7771	62	38
39.9681	40.7771	65	38
40.7771	41.7293	55	37
40.7771	41.7293	58	37
40.7771	41.7293	63	37
44.0388	47.0664	44	39
44.0388	46.7135	51	54
46.7135	47.0664	51	49
47.0664	48.134	44	37
47.0664	47.4238	51	54
47.4238	47.7811	51	49
47.7811	48.134	51	45
48.134	49.193	44	40
48.134	48.8357	51	54
48.6656	48.8774	52	49
48.8357	49.193	51	54
49.193	50.2412	44	39
49.193	49.8944	54	56
49.5353	49.8944	52	54
49.8839	50.2412	51	48
50.2412	51.2866	44	40
50.2412	50.9099	49	54
50.7631	50.9293	51	48
50.9293	51.245	49	50
51.2866	52.3431	44	40
51.2866	51.914	52	57
51.6331	51.986	51	50
51.986	52.3431	49	49
52.3431	54.2039	44	40
52.3431	53.3501	47	54
53.0578	53.4085	49	57
53.4085	53.7903	51	62
53.7508	54.2039	49	60
54.1016	54.4681	47	49
54.4681	56.2539	44	40
54.4681	55.1402	46	54
54.9926	55.1597	47	49
55.1597	55.5171	46	54
55.5171	55.9433	49	57
55.8615	56.2539	47	49
56.2122	56.5695	46	48
56.5695	57.2842	44	40
56.5695	58.4849	47	54
57.2842	57.6415	44	34
57.6415	58.3561	44	46
58.3561	58.7424	44	37
58.3561	60.5245	63	63
58.7424	59.457	44	43
58.7424	62.8952	51	49
58.7424	61.6134	68	69
59.457	59.8099	44	35
59.8099	60.5245	44	39
60.5245	60.8731	44	35
60.8731	61.5727	44	38
61.2304	61.6134	71	68
61.5727	61.9213	44	39
61.5727	61.8632	70	63
61.8051	61.9213	68	56
61.8632	62.8952	70	54
61.9213	62.6272	44	43
61.9213	62.9845	52	49
61.9213	62.6272	68	72
62.2699	62.8952	64	60
62.6272	62.9845	44	40
62.6272	62.9845	68	56
62.9845	63.6992	44	43
62.9845	66.1659	51	49
62.9845	63.8585	68	63
63.6992	64.0565	44	39
63.6992	64.0863	63	60
64.0565	64.7711	44	43
64.0565	65.5059	66	66
64.7711	65.1197	44	39
65.1197	65.8194	44	43
65.477	65.8486	64	60
65.8194	66.1659	44	39
65.8194	66.1089	63	56
66.1089	66.1938	63	51
66.1659	66.8531	44	43
66.1659	67.206	52	49
66.1659	66.734	64	66
66.5002	66.8825	63	55
66.8531	67.206	44	39
66.8531	67.2354	61	51
67.206	67.9162	44	43
67.206	69.9708	51	49
67.206	68.7241	63	63
67.5589	69.9708	56	57
67.9162	68.267	44	36
68.267	68.9816	44	39
68.9816	69.3324	44	36
69.3324	70.0416	44	40
69.3324	71.4448	52	49
69.6897	70.071	58	60
70.0416	70.3945	44	39
70.0416	70.3062	59	60
70.2768	70.3651	61	55
70.3357	70.4232	63	49
70.3945	71.0875	44	43
70.3945	71.0265	61	67
70.7389	71.1172	59	55
71.0875	71.4448	44	39
71.0875	71.474	58	51
71.4448	72.4932	44	43
71.4448	72.0969	51	54
71.4448	72.4932	59	66
71.9688	72.1657	52	45
72.1359	72.4932	51	51
72.4932	73.5413	44	40
72.4932	72.8685	54	54
72.4932	74.2303	56	56
72.8397	73.2157	52	51
73.1861	73.5413	51	54
73.5413	75.6586	44	43
73.5413	74.1816	49	54
74.0632	74.2601	51	51
74.2303	74.5876	49	51
74.5876	74.9614	52	56
74.932	75.3161	51	51
75.2849	75.6586	49	46
75.2849	75.6586	68	61
75.6586	77.7746	44	44
75.6586	76.6071	47	54
75.6586	79.8735	75	75
76.3732	76.7525	49	50
76.724	77.0952	51	56
77.0663	77.4429	49	50
77.4128	77.7746	47	48
77.7746	79.8735	44	45
77.7746	78.3586	46	51
78.2997	78.4976	47	45
78.4678	78.8251	46	54
78.8251	79.1947	49	55
79.1654	79.546	47	50
79.5162	79.8735	46	48
79.8735	80.5881	44	45
79.8735	81.3921	47	50
79.8735	81.3921	80	67
80.5881	80.9454	44	43
80.9454	81.66	44	43
81.66	82.0463	44	37
81.66	84.8168	63	63
82.0463	82.761	44	43
82.0463	86.162	51	49
82.0463	84.8168	68	68
82.761	83.1139	44	36
83.1139	83.8285	44	38
83.8285	84.1771	44	35
84.1771	84.8767	44	40
84.5344	84.9058	71	68
84.8767	85.2253	44	39
84.8767	85.1672	70	63
85.1091	85.2253	68	56
85.1672	86.162	70	54
85.2253	85.9312	44	43
85.2253	87.0031	52	49
85.2253	85.9312	68	72
85.5739	86.162	64	60
85.9312	86.2885	44	40
85.9312	86.2885	68	56
86.2885	87.0031	44	43
86.2885	87.3604	51	49
86.2885	87.0329	68	63
87.0031	87.3604	44	39
87.0031	87.3902	63	60
87.3604	88.0751	44	43
87.3604	89.459	56	49
87.3604	89.459	59	50
87.3604	88.7972	64	66
88.0751	88.4258	44	35
88.4258	89.1167	44	39
88.7681	89.1452	66	68
89.1167	89.459	44	39
89.1167	89.4877	68	70
89.459	90.1478	44	43
89.459	90.4922	52	49
89.459	90.4922	61	50
89.459	90.4922	64	50
89.459	90.4104	69	74
89.8034	90.4104	71	69
90.1478	90.4922	44	39
90.1478	90.4922	73	69
90.4922	91.2068	44	43
90.4922	94.0224	51	49
90.4922	94.0224	57	44
90.4922	94.0224	61	44
90.4922	91.8999	66	74
91.2068	91.5576	44	39
91.5576	92.2485	44	43
91.8999	92.4439	68	71
92.2485	92.5908	44	39
92.2485	94.0224	69	69
92.5908	93.301	44	42
92.5908	94.7196	48	49
92.5908	94.7196	56	50
92.5908	93.301	63	50
92.5908	93.6651	68	74
93.301	93.6651	44	39
93.301	94.7196	63	66
93.6651	94.371	44	43
93.6651	94.371	68	72
94.371	94.7196	44	39
94.371	94.7196	66	66
94.7196	95.4343	44	40
94.7196	95.785	49	45
94.7196	96.8487	56	50
94.7196	95.785	64	69
95.4343	95.785	44	39
95.785	96.4822	44	42
95.785	96.8487	51	48
95.785	96.443	63	66
96.1336	96.4822	61	63
96.4822	96.8487	44	36
96.4822	96.8487	59	57
96.8487	97.5451	44	42
96.8487	97.898	52	48
96.8487	97.898	56	50
96.8487	97.4859	58	60
97.3759	97.5451	59	55
97.5451	97.898	44	39
97.5451	97.898	58	61
97.898	98.5909	44	40
97.898	103.056	51	45
97.898	98.9438	55	50
97.898	98.4278	61	57
98.2444	98.5909	59	55
98.5909	98.9438	44	34
98.5909	98.9438	58	54
98.9438	99.6767	44	42
98.9438	100.034	56	50
98.9438	100.841	59	55
99.6767	100.034	44	34
100.034	100.762	44	37
100.034	103.056	56	51
100.762	101.119	44	34
101.119	101.847	44	37
101.847	102.206	44	33
102.206	102.934	44	36
102.934	103.299	44	32
103.299	104.0	44	37
103.299	104.341	49	42
103.299	104.341	52	42
103.299	104.0	64	54
103.299	104.341	69	48
103.299	104.341	73	48
103.299	104.0	76	54
104.0	104.341	44	34
104.0	104.341	64	51
104.0	104.341	76	51
104.341	105.01	44	36
104.341	105.356	51	39
104.341	105.356	54	39
104.341	104.98	66	57
104.341	105.356	69	51
104.341	105.356	73	51
104.341	104.98	78	57
104.841	105.01	64	55
104.841	105.01	76	55
105.01	105.356	44	34
105.01	105.356	63	50
105.01	105.356	75	50
105.356	106.054	44	36
105.356	106.395	49	42
105.356	106.395	52	42
105.356	106.054	64	57
105.356	106.395	69	51
105.356	106.395	73	51
105.356	106.054	76	57
106.054	106.395	44	33
106.054	106.395	64	54
106.054	106.395	76	54
106.395	107.071	44	36
106.395	107.431	51	38
106.395	107.431	54	38
106.395	106.992	66	55
106.395	107.431	69	49
106.395	107.431	73	49
106.395	106.992	78	55
106.901	107.358	64	48
106.901	107.358	76	48
107.071	107.431	44	32
107.071	107.431	63	48
107.071	107.431	75	48
107.431	108.132	44	39
107.431	108.483	49	42
107.431	108.483	52	42
107.431	108.483	64	54
107.431	108.483	69	54
107.431	108.483	73	54
107.431	108.483	76	54
108.132	108.483	44	37
108.483	109.189	44	42
108.483	111.624	50	42
108.483	111.624	54	42
108.483	109.542	62	55
108.483	109.542	66	55
108.483	109.542	69	55
108.483	109.542	74	55
109.189	110.243	44	37
109.542	111.12	69	61
109.542	111.624	74	61
109.542	111.268	78	61
109.542	111.12	81	61
110.243	110.594	44	34
110.594	111.268	44	40
110.935	111.505	68	60
110.935	111.505	80	60
111.268	111.624	44	34
111.268	111.624	66	56
111.268	111.624	78	56
111.624	112.308	44	37
111.624	112.65	52	44
111.624	112.65	56	44
111.624	112.65	64	60
111.624	112.65	68	60
111.624	112.65	73	60
111.624	112.65	76	60
112.308	112.65	44	34
112.65	113.335	44	37
112.65	113.677	49	46
112.65	113.677	52	46
112.65	113.677	68	64
112.65	113.677	73	64
112.65	113.677	76	64
112.65	113.677	80	64
113.335	113.677	44	34
113.677	114.362	44	37
113.677	114.704	51	43
113.677	114.704	54	43
113.677	114.704	66	63
113.677	114.704	68	63
113.677	114.704	75	63
113.677	114.704	78	63
114.362	114.704	44	33
114.704	115.389	44	36
114.704	115.755	52	39
114.704	115.755	56	39
114.704	115.755	64	56
114.704	115.755	68	56
114.704	115.755	73	56
114.704	115.755	76	56
115.389	115.755	44	33
115.755	116.457	44	38
115.755	117.845	51	48
115.755	117.303	63	60
115.755	117.845	67	54
115.755	117.845	70	54
115.755	117.303	75	60
116.457	116.808	44	28
116.808	117.492	44	36
116.808	117.747	61	57
116.808	117.747	73	57
117.492	117.845	44	33
117.492	117.845	59	55
117.492	117.845	71	55
117.845	118.528	44	36
117.845	119.904	55	39
117.845	118.45	58	60
117.845	119.904	63	54
117.845	119.904	67	54
117.845	118.45	70	60
118.36	118.528	59	49
118.36	118.528	71	49
118.528	118.879	44	32
118.528	118.879	58	42
118.528	118.879	70	42
118.879	119.555	44	34
118.879	119.215	61	51
118.879	119.215	73	51
119.215	119.76	59	45
119.215	119.76	71	45
119.555	119.904	44	28
119.555	119.904	58	42
119.555	119.904	70	42
119.904	120.601	44	34
119.904	121.666	56	39
119.904	121.666	59	54
119.904	121.666	63	54
119.904	120.95	68	54
119.904	121.666	71	54
120.601	120.95	44	34
120.95	121.647	44	38
120.95	121.666	68	49
121.647	121.996	44	35
121.996	122.681	44	38
121.996	123.022	49	42
121.996	123.022	52	42
121.996	122.681	64	54
121.996	123.022	69	48
121.996	123.022	73	48
121.996	122.681	76	54
122.681	123.022	44	31
122.681	123.022	64	51
122.681	123.022	76	51
123.022	123.682	44	36
123.022	124.028	51	39
123.022	124.028	54	39
123.022	123.653	66	57
123.022	124.028	69	51
123.022	124.028	73	51
123.022	123.653	78	57
123.516	123.682	64	55
123.516	123.682	76	55
123.682	124.028	44	33
123.682	123.941	63	50
123.682	123.941	75	50
124.028	124.714	44	37
124.028	125.053	49	42
124.028	125.053	52	42
124.028	124.714	64	57
124.028	125.053	69	51
124.028	125.053	73	51
124.028	124.714	76	57
124.714	125.053	44	33
124.714	125.053	64	54
124.714	125.053	76	54
125.053	125.721	44	36
125.053	126.081	51	38
125.053	126.081	54	38
125.053	125.642	66	55
125.053	126.081	69	49
125.053	126.081	73	49
125.053	125.642	78	55
125.552	126.008	64	48
125.552	126.008	76	48
125.721	126.081	44	34
125.721	126.008	63	48
125.721	126.008	75	48
126.081	126.782	44	40
126.081	127.133	49	42
126.081	127.133	52	42
126.081	127.133	64	54
126.081	127.133	69	54
126.081	127.133	73	54
126.081	127.133	76	54
126.782	127.133	44	34
127.133	127.839	44	38
127.133	130.277	50	42
127.133	130.277	54	42
127.133	128.192	62	55
127.133	128.192	66	55
127.133	128.192	69	55
127.133	128.192	74	55
127.839	128.893	44	39
128.192	129.244	69	61
128.192	130.277	74	61
128.192	129.922	78	61
128.192	129.244	81	61
128.893	129.244	44	37
129.244	129.922	44	40
129.244	129.773	68	60
129.244	129.773	80	60
129.587	130.159	69	53
129.587	130.159	81	53
129.922	130.277	44	34
129.922	130.277	66	55
129.922	130.277	78	55
130.277	130.962	44	42
130.277	131.304	52	44
130.277	131.304	56	44
130.277	131.304	64	60
130.277	131.304	68	60
130.277	131.304	73	60
130.277	131.304	76	60
130.962	131.304	44	34
131.304	131.989	44	43
131.304	132.331	49	42
131.304	132.331	52	42
131.304	132.331	68	56
131.304	132.331	73	56
131.304	132.331	76	56
131.304	132.331	80	56
131.989	132.331	44	34
132.331	133.005	44	38
132.331	133.349	51	42
132.331	133.349	54	42
132.331	133.196	66	57
132.331	132.663	68	57
132.331	133.005	75	57
132.331	133.196	78	57
132.663	133.349	68	53
132.663	133.196	80	53
133.005	133.349	44	33
133.005	133.349	63	54
133.005	133.349	75	54
133.349	134.03	44	36
133.349	134.396	52	39
133.349	134.396	56	39
133.349	134.03	64	56
133.349	134.396	68	56
133.349	134.396	73	56
133.349	134.03	76	56
133.687	134.111	63	51
133.687	134.111	75	51
134.03	134.396	44	33
134.03	134.396	64	50
134.03	134.396	76	50
134.396	135.098	44	38
134.396	136.486	55	48
134.396	135.943	63	60
134.396	136.486	67	54
134.396	136.486	70	54
134.396	135.943	75	60
135.098	135.448	44	32
135.448	136.133	44	36
135.448	136.387	61	57
135.448	136.387	73	57
136.133	136.486	44	32
136.133	136.486	59	55
136.133	136.486	71	55
136.486	137.164	44	37
136.486	138.535	51	39
136.486	137.087	58	60
136.486	138.535	63	54
136.486	138.535	67	54
136.486	137.087	70	60
136.998	137.164	59	49
136.998	137.164	71	49
137.164	137.515	44	34
137.164	137.427	58	42
137.164	137.427	70	42
137.515	138.187	44	37
137.515	137.846	61	51
137.515	137.846	73	51
137.846	138.391	59	45
137.846	138.391	71	45
138.187	138.535	44	28
138.187	138.448	58	42
138.187	138.448	70	42
138.535	142.749	44	38
138.535	139.187	51	54
138.535	140.277	59	48
138.535	140.277	63	48
138.535	139.584	68	54
138.535	139.584	71	54
139.059	139.256	52	45
139.226	139.584	51	51
139.584	139.959	54	54
139.584	140.277	68	49
139.93	140.306	52	51
140.277	140.632	51	54
140.632	141.272	49	54
141.154	141.351	51	51
141.321	141.678	49	51
141.678	142.052	52	56
141.678	142.749	68	61
142.022	142.407	51	51
142.375	142.749	49	46
142.749	144.865	44	39
142.749	143.698	47	54
142.749	146.964	75	75
143.464	143.843	49	50
143.814	144.186	51	56
144.157	144.533	49	50
144.503	144.865	47	48
144.865	146.964	44	42
144.865	145.449	46	51
145.39	145.588	47	45
145.558	145.916	46	54
145.916	146.285	49	55
146.256	146.636	47	50
146.607	146.964	46	48
146.964	147.679	44	40
146.964	148.483	47	50
146.964	148.483	80	67
147.679	148.036	44	32
148.036	148.75	44	38
148.75	149.137	44	35
148.75	150.919	63	60
149.137	149.851	44	33
149.137	153.29	51	49
149.137	152.008	68	67
149.851	150.204	44	27
150.204	150.919	44	31
150.919	151.268	44	24
151.268	151.967	44	31
151.625	152.008	71	63
151.967	152.316	44	24
151.967	152.258	70	60
152.2	152.316	68	54
152.258	153.29	70	50
152.316	153.022	44	31
152.316	153.379	52	49
152.316	153.022	68	67
152.664	153.29	64	56
153.022	153.379	44	24
153.022	153.379	68	54
153.379	154.087	44	30
153.379	154.43	51	49
153.379	154.24	68	63
154.087	154.43	44	27
154.087	154.46	75	57
154.43	155.144	44	31
154.43	157.315	56	48
154.43	157.315	68	59
155.144	155.493	44	27
155.493	156.19	44	31
156.19	156.539	44	27
156.539	157.236	44	33
157.236	157.593	44	27
157.593	158.295	44	32
157.593	159.657	60	49
157.593	159.319	63	43
157.593	159.319	66	43
157.593	158.987	69	60
158.295	158.646	44	33
158.646	159.319	44	36
158.987	159.319	68	56
159.319	159.657	44	33
159.319	159.657	69	52
159.657	160.334	44	38
159.657	161.711	58	49
159.657	161.367	62	43
159.657	161.367	65	43
159.657	160.612	70	68
160.334	160.678	44	37
160.334	160.707	77	57
160.678	161.367	44	42
160.678	161.367	70	59
161.367	161.711	44	28
161.711	162.413	44	31
161.711	163.777	57	49
161.711	163.439	63	43
161.711	163.439	66	43
161.711	163.106	72	60
162.413	162.763	44	32
162.763	163.439	44	35
163.106	163.439	71	56
163.439	163.777	44	36
163.439	163.777	72	53
163.777	164.466	44	38
163.777	165.843	56	49
163.777	165.499	65	43
163.777	165.499	68	43
163.777	164.744	73	68
164.466	164.81	44	37
164.466	164.839	80	59
164.81	165.499	44	41
164.81	165.499	73	59
165.499	165.843	44	27
165.843	166.532	44	38
165.843	169.932	54	49
165.843	169.932	63	61
165.843	169.932	70	61
165.843	169.932	74	61
166.532	166.865	44	32
166.865	167.547	44	34
167.547	167.884	44	30
167.884	168.566	44	34
168.566	168.903	44	30
168.903	169.589	44	34
169.589	169.932	44	30
169.932	170.621	44	38
169.932	170.966	53	43
169.932	170.966	63	66
169.932	170.966	68	43
169.932	170.966	75	66
170.621	170.966	44	31
170.966	171.636	44	37
170.966	171.979	52	43
170.966	171.299	62	57
170.966	171.979	68	43
170.966	171.299	74	57
171.299	171.636	61	55
171.299	171.636	73	55
171.636	171.979	44	28
171.636	171.979	62	54
171.636	171.979	74	54
171.979	172.668	44	36
171.979	173.013	53	43
171.979	173.013	63	63
171.979	173.013	68	43
171.979	173.013	75	63
172.668	173.013	44	31
173.013	173.679	44	34
173.013	174.02	52	43
173.013	173.346	62	56
173.013	174.02	68	43
173.013	173.346	74	56
173.346	173.679	61	55
173.346	173.679	73	55
173.679	174.02	44	31
173.679	174.02	62	54
173.679	174.02	74	54
174.02	174.709	44	35
174.02	176.086	53	43
174.02	175.053	63	62
174.02	176.086	68	43
174.02	175.053	75	62
174.709	175.053	44	28
175.053	175.742	44	32
175.053	176.086	62	56
175.053	176.086	74	56
175.742	176.086	44	30
176.086	176.775	44	32
176.086	177.12	52	43
176.086	177.12	61	55
176.086	177.12	68	55
176.086	177.12	73	55
176.775	177.12	44	28
177.12	177.804	44	39
177.12	178.147	49	51
177.12	178.147	68	68
177.12	178.147	76	68
177.12	178.147	80	68
177.804	178.147	44	34
178.147	178.831	44	42
178.147	179.174	51	50
178.147	179.174	66	67
178.147	179.174	75	67
178.147	179.174	78	67
178.831	179.174	44	37
179.174	179.858	44	42
179.174	180.225	56	48
179.174	180.225	64	65
179.174	180.225	73	65
179.174	180.225	76	65
179.858	180.225	44	37
180.225	180.926	44	37
180.225	181.772	51	48
180.225	181.772	63	60
180.225	182.314	67	54
180.225	182.314	70	54
180.225	181.772	75	60
180.926	181.277	44	28
181.277	181.961	44	32
181.277	182.314	55	48
181.277	182.216	61	57
181.277	182.216	73	57
181.961	182.314	44	28
181.961	182.314	59	55
181.961	182.314	71	55
182.314	182.997	44	34
182.314	183.348	51	39
182.314	182.919	58	60
182.314	184.373	63	45
182.314	184.373	67	45
182.314	182.919	70	60
182.829	182.997	59	49
182.829	182.997	71	49
182.997	183.348	44	28
182.997	183.26	58	42
182.997	183.26	70	42
183.348	184.025	44	32
183.348	184.373	55	39
183.348	183.684	61	51
183.348	183.684	73	51
183.684	184.229	59	45
183.684	184.229	71	45
184.025	184.373	44	28
184.025	184.373	58	42
184.025	184.373	70	42
184.373	185.07	44	34
184.373	186.135	51	39
184.373	186.135	59	44
184.373	186.135	63	43
184.373	185.419	68	44
184.373	186.135	71	54
185.07	185.419	44	28
185.419	186.116	44	32
185.419	188.208	56	39
185.419	186.135	68	49
186.116	186.465	44	26
186.465	187.162	44	33
187.162	187.511	44	31
187.511	188.208	44	35
188.208	188.589	44	27
188.208	190.371	63	60
188.589	189.304	44	31
188.589	192.727	51	45
188.589	191.451	68	67
189.304	189.656	44	32
189.656	190.371	44	36
190.371	190.72	44	28
190.72	191.411	44	32
191.068	191.451	71	63
191.411	191.759	44	27
191.411	191.701	70	60
191.643	191.759	68	54
191.701	192.727	70	50
191.759	192.465	44	32
191.759	192.814	52	49
191.759	192.465	68	67
192.108	192.727	64	56
192.465	192.814	44	24
192.465	192.814	68	54
192.814	193.516	44	31
192.814	196.749	59	45
192.814	193.516	68	63
193.343	193.671	76	57
193.516	193.864	44	32
193.516	193.864	68	54
193.864	194.579	44	35
193.864	196.749	68	58
194.579	194.928	44	32
194.928	195.625	44	35
195.625	195.973	44	32
195.973	196.671	44	35
196.671	197.028	44	27
197.028	197.729	44	33
197.028	199.09	60	49
197.028	198.751	63	43
197.028	198.751	66	43
197.028	198.419	69	60
197.729	198.08	44	27
198.08	198.751	44	30
198.419	198.751	68	56
198.751	199.09	44	26
198.751	199.09	69	57
199.09	199.747	44	33
199.09	201.125	58	49
199.09	200.78	62	43
199.09	200.78	65	43
199.09	199.747	70	68
199.578	200.025	77	60
199.747	200.091	44	32
199.747	200.091	70	60
200.091	200.78	44	35
200.091	200.78	70	56
200.78	201.125	44	33
201.125	201.826	44	37
201.125	203.183	57	49
201.125	202.844	63	43
201.125	202.844	66	43
201.125	202.512	72	60
201.826	202.177	44	26
202.177	202.844	44	32
202.512	202.844	71	56
202.844	203.183	44	26
202.844	203.183	72	55
203.183	203.845	44	33
203.183	205.222	56	49
203.183	204.878	65	43
203.183	204.878	68	43
203.183	203.845	73	68
203.675	204.123	80	60
203.845	204.189	44	32
203.845	204.189	73	60
204.189	204.878	44	35
204.189	204.878	73	57
204.878	205.222	44	27
205.222	205.911	44	33
205.222	209.33	54	49
205.222	209.33	63	61
205.222	209.33	70	61
205.222	209.33	74	61
205.911	206.246	44	32
206.246	206.932	44	35
206.932	207.268	44	30
207.268	207.957	44	35
207.957	208.295	44	30
208.295	208.985	44	32
208.985	209.33	44	30
209.33	210.019	44	33
209.33	210.358	53	43
209.33	210.358	63	66
209.33	210.358	68	43
209.33	210.358	75	66
210.019	210.358	44	30
210.358	211.026	44	28
210.358	211.368	52	43
210.358	210.69	62	57
210.358	211.368	68	43
210.358	210.69	74	57
210.69	211.026	61	55
210.69	211.026	73	55
211.026	211.368	44	27
211.026	211.368	62	52
211.026	211.368	74	52
211.368	212.057	44	31
211.368	212.394	53	43
211.368	212.394	63	63
211.368	212.394	68	43
211.368	212.394	75	63
212.057	212.394	44	27
212.394	213.058	44	34
212.394	213.403	52	43
212.394	212.722	62	56
212.394	213.403	68	43
212.394	212.722	74	56
212.722	213.058	61	55
212.722	213.058	73	55
213.058	213.403	44	27
213.058	213.403	62	53
213.058	213.403	74	53
213.403	214.092	44	32
213.403	215.469	53	43
213.403	214.436	63	62
213.403	215.469	68	43
213.403	214.436	75	62
214.092	214.436	44	32
214.436	215.125	44	36
214.436	215.469	62	56
214.436	215.469	74	56
215.125	215.469	44	30
215.469	216.158	44	35
215.469	216.502	52	43
215.469	216.502	61	55
215.469	216.502	68	55
215.469	216.502	73	55
216.158	216.502	44	28
216.502	217.187	44	37
216.502	217.529	49	42
216.502	217.529	68	68
216.502	217.529	76	68
216.502	217.529	80	68
217.187	217.529	44	34
217.529	218.214	44	39
217.529	218.556	51	42
217.529	218.556	66	67
217.529	218.556	75	67
217.529	218.556	78	67
218.214	218.556	44	33
218.556	219.229	44	37
218.556	219.575	56	39
218.556	219.229	64	62
218.556	219.575	73	62
218.556	219.229	76	62
218.889	219.305	68	51
218.889	219.305	80	51
219.229	219.575	44	33
219.229	219.575	64	56
219.229	219.575	76	56
219.575	220.277	44	39
219.575	221.117	51	48
219.575	220.964	63	56
219.575	221.659	67	56
219.575	221.659	70	56
219.575	220.964	75	56
220.277	220.628	44	28
220.628	221.306	44	32
220.628	221.659	55	48
220.628	221.117	61	57
220.628	221.117	73	57
220.964	221.561	63	54
220.964	221.561	75	54
221.306	221.659	44	28
221.306	221.659	59	50
221.306	221.659	71	50
221.659	222.342	44	34
221.659	222.693	51	39
221.659	222.264	58	56
221.659	223.787	63	37
221.659	223.787	67	37
221.659	222.264	70	56
222.174	222.342	59	44
222.174	222.342	71	44
222.342	222.693	44	26
222.342	222.693	58	38
222.342	222.693	70	38
222.693	223.369	44	30
222.693	223.614	55	37
222.693	223.029	61	48
222.693	223.029	73	48
223.029	223.614	59	39
223.029	223.614	71	39
223.369	223.787	44	28
223.369	223.614	58	36
223.369	223.614	70	36
223.787	224.501	44	33
224.501	224.859	44	29
224.859	225.587	44	33
225.587	225.968	44	30
225.968	226.669	44	33
225.968	227.03	49	33
225.968	227.03	52	33
225.968	226.669	64	44
225.968	227.02	69	39
225.968	227.02	73	39
225.968	226.669	76	44
226.669	227.02	44	28
226.669	227.03	64	43
226.669	227.03	76	43
227.02	227.697	44	27
227.02	228.043	51	32
227.02	228.043	54	32
227.02	227.667	66	49
227.02	228.043	69	43
227.02	228.043	73	43
227.02	227.667	78	49
227.528	227.697	64	45
227.528	227.697	76	45
227.697	228.043	44	31
227.697	227.941	63	42
227.697	227.941	75	42
228.043	228.749	44	27
228.043	229.156	49	33
228.043	229.156	52	33
228.043	228.749	64	49
228.043	229.088	69	43
228.043	229.088	73	43
228.043	228.749	76	49
228.749	229.088	44	28
228.749	229.156	64	44
228.749	229.156	76	44
229.088	229.762	44	27
229.088	230.072	51	32
229.088	230.072	54	32
229.088	229.683	66	45
229.088	230.151	69	42
229.088	230.151	73	42
229.088	229.683	78	45
229.592	230.072	64	39
229.592	230.072	76	39
229.762	230.151	44	30
229.762	230.072	63	39
229.762	230.072	75	39
230.151	230.866	44	34
230.866	231.223	44	30
231.223	231.951	44	33
231.951	232.332	44	30
232.332	233.038	44	37
232.332	233.391	52	42
232.332	233.391	56	42
232.332	233.391	61	56
232.332	233.391	64	56
232.332	233.391	68	56
232.332	233.391	73	56
233.038	233.391	44	33
233.391	234.084	44	39
233.391	234.431	49	50
233.391	234.431	52	50
233.391	234.431	68	67
233.391	234.431	73	67
233.391	234.431	76	67
233.391	234.431	80	67
234.084	234.431	44	33
234.431	235.123	44	39
234.431	235.47	51	45
234.431	235.47	54	45
234.431	235.47	66	62
234.431	235.47	68	62
234.431	235.47	75	62
234.431	235.47	78	62
235.123	235.47	44	31
235.47	236.18	44	30
235.47	236.559	52	43
235.47	236.559	56	43
235.47	236.559	64	56
235.47	236.559	68	56
235.47	236.559	73	56
235.47	236.559	76	56
236.18	236.559	44	28
236.559	237.273	44	34
237.273	237.631	44	29
237.631	238.359	44	32
238.359	238.74	44	29
238.74	239.464	44	31
238.74	239.821	51	32
238.74	239.379	58	50
238.74	239.821	63	44
238.74	239.821	67	44
238.74	239.379	70	50
239.283	239.464	59	42
239.283	239.464	71	42
239.464	239.821	44	22
239.464	239.821	58	33
239.464	239.821	70	33
239.821	240.54	44	27
239.821	240.914	55	32
239.821	240.174	61	43
239.821	240.914	63	44
239.821	240.914	67	44
239.821	240.174	73	43
240.174	240.76	59	38
240.174	240.76	71	38
240.54	240.914	44	22
240.54	240.914	58	33
240.54	240.914	70	33
240.914	241.638	44	30
241.638	242.009	44	24
242.009	242.737	44	27
242.737	243.129	44	30
242.737	244.959	63	61
243.129	243.862	44	36
243.129	247.38	51	48
243.129	246.062	68	65
243.862	244.222	44	30
244.222	244.959	44	34
244.959	245.317	44	30
245.317	246.02	44	34
245.67	246.062	71	66
246.02	246.378	44	30
246.02	246.318	70	61
246.259	246.378	68	54
246.318	247.38	70	50
246.378	247.104	44	34
246.378	247.473	52	48
246.378	247.104	68	68
246.735	247.38	64	57
247.104	247.473	44	27
247.104	247.473	68	54
247.473	248.21	44	34
247.473	248.375	59	50
247.473	248.375	68	61
248.21	248.579	44	30
248.21	248.609	63	57
248.579	251.868	44	34
248.579	250.04	58	48
248.579	250.071	66	62
249.303	250.04	57	45
249.674	250.04	56	55
250.04	250.77	55	51
250.04	250.438	64	57
250.408	250.71	63	54
250.71	250.8	63	49
250.77	251.489	48	57
250.77	251.367	64	62
251.127	251.521	63	51
251.489	251.868	49	49
251.489	251.899	61	49
251.868	252.625	44	34
251.868	256.076	63	61
252.246	256.076	56	55
252.625	252.993	44	28
252.993	253.748	44	34
253.748	254.12	44	28
254.12	254.875	44	34
254.875	255.239	44	28
255.239	255.984	44	34
255.984	256.353	44	28
256.353	257.107	44	34
256.353	257.107	49	45
256.353	257.107	56	40
256.353	257.107	58	40
256.353	257.107	61	40
256.353	257.107	64	45
257.107	257.48	44	28
257.48	258.235	44	34
257.48	258.603	51	45
257.48	258.603	55	40
257.48	258.603	58	40
257.48	258.603	61	40
257.48	258.603	63	45
258.235	258.603	44	28
258.603	259.339	44	34
259.339	259.705	44	28
259.705	260.446	44	34
260.446	260.816	44	28
260.816	261.571	44	34
260.816	261.571	48	45
260.816	261.571	54	40
260.816	261.571	57	40
260.816	261.571	62	45
261.571	261.943	44	28
261.943	262.698	44	34
261.943	262.698	49	45
261.943	262.698	52	40
261.943	262.698	56	40
261.943	262.698	61	45
262.698	263.071	44	28
263.071	265.349	44	33
263.071	263.448	55	45
263.071	263.448	58	45
264.958	271.631	63	81
264.958	271.631	75	81
265.349	267.186	44	60
265.52	271.631	51	60
265.705	271.631	59	60
265.705	271.631	68	86
265.705	271.631	80	86
267.186	269.409	44	33
269.409	271.631	44	33
