OnsetTime	OffsetTime	MidiPitch	Velocity
0.500004	0.80001	38	46
0.500004	0.80001	50	64
0.500004	0.80001	62	82
0.80001	1.38967	40	44
0.80001	1.38967	52	61
0.80001	1.38967	64	78
0.948148	1.24298	38	41
0.948148	1.24298	50	59
0.948148	1.24298	62	75
1.09629	1.43541	37	45
1.09629	1.43541	49	62
1.09629	1.43541	61	79
1.24298	1.43541	38	40
1.24298	1.43541	50	58
1.24298	1.43541	62	73
1.38967	1.46698	40	45
1.38967	1.46698	52	63
1.38967	1.46698	64	81
1.69894	1.77548	43	37
1.69894	1.77548	55	52
1.69894	1.77548	67	75
2.00391	2.08103	42	40
2.00391	2.08103	54	58
2.00391	2.08103	66	73
2.3124	2.5749	38	46
2.3124	2.5749	50	64
2.3124	2.5749	62	82
2.5749	3.22697	42	39
2.5749	3.22697	54	56
2.5749	3.22697	66	71
2.61239	3.1999	40	42
2.61239	3.1999	52	59
2.61239	3.1999	64	75
2.75981	3.05356	38	40
2.75981	3.05356	50	57
2.75981	3.05356	62	73
2.90722	3.22697	37	44
2.90722	3.22697	49	60
2.90722	3.22697	61	77
3.05356	3.22697	38	39
3.05356	3.22697	50	56
3.05356	3.22697	62	71
3.1999	3.27722	40	45
3.1999	3.27722	52	63
3.1999	3.27722	64	80
3.50918	3.58532	43	37
3.50918	3.58532	55	52
3.50918	3.58532	67	74
3.81376	3.89048	42	40
3.81376	3.89048	54	58
3.81376	3.89048	66	73
4.12065	4.42066	38	59
4.12065	4.42066	50	63
4.12065	4.42066	62	80
4.42066	5.00891	52	58
4.42066	5.00891	64	73
4.56844	5.00891	54	59
4.56844	5.00891	66	74
4.71623	5.00891	57	60
4.71623	5.00891	69	77
4.86257	5.00891	60	61
4.86257	5.00891	72	78
5.00891	5.60149	64	62
5.00891	5.60149	76	79
5.3052	5.60149	67	61
5.3052	5.60149	79	78
5.60149	5.90607	66	60
5.60149	5.90607	78	78
5.90607	6.80087	55	55
5.90607	6.80087	59	57
5.90607	6.26509	62	60
5.90607	6.26509	66	60
5.90607	6.26509	78	79
6.20383	6.80087	67	57
6.20383	6.80087	79	72
6.35235	6.80087	66	57
6.35235	6.80087	78	72
6.50086	6.80087	64	56
6.50086	6.80087	76	71
6.65086	6.80087	62	56
6.65086	6.80087	74	71
6.80087	7.11114	55	58
6.80087	7.11114	57	58
6.80087	7.10312	61	60
6.80087	7.11114	67	70
6.80087	7.10312	73	77
7.06535	7.11114	74	64
7.10312	7.54943	61	58
7.10312	7.54943	73	73
7.25128	7.69943	57	53
7.25128	7.69943	69	67
7.39943	7.69943	59	57
7.39943	7.69943	71	72
7.54943	7.69943	61	55
7.54943	7.69943	73	69
7.69943	8.00478	54	59
7.69943	8.00478	57	59
7.69943	8.00478	62	59
7.69943	8.00478	66	74
7.69943	8.00478	74	74
8.00478	8.59518	40	44
8.00478	8.59518	52	61
8.00478	8.59518	64	78
8.15291	8.44812	38	41
8.15291	8.44812	50	59
8.15291	8.44812	62	75
8.30105	8.61337	37	45
8.30105	8.61337	49	62
8.30105	8.61337	61	79
8.44812	8.61337	38	40
8.44812	8.61337	50	58
8.44812	8.61337	62	73
8.59518	8.67312	40	45
8.59518	8.67312	52	63
8.59518	8.67312	64	81
8.90688	8.98303	43	37
8.90688	8.98303	55	52
8.90688	8.98303	67	74
9.21146	9.28839	42	40
9.21146	9.28839	54	58
9.21146	9.28839	66	73
9.51915	9.78165	38	46
9.51915	9.78165	50	64
9.51915	9.78165	62	82
9.78165	10.4248	42	39
9.78165	10.4248	54	56
9.78165	10.4248	66	71
9.81914	10.4067	40	42
9.81914	10.4067	52	59
9.81914	10.4067	64	75
9.96656	10.2603	38	40
9.96656	10.2603	50	57
9.96656	10.2603	62	73
10.114	10.4248	37	44
10.114	10.4248	49	60
10.114	10.4248	61	77
10.2603	10.4248	38	39
10.2603	10.4248	50	56
10.2603	10.4248	62	71
10.4067	10.4844	40	45
10.4067	10.4844	52	63
10.4067	10.4844	64	80
10.7175	10.7939	43	37
10.7175	10.7939	55	52
10.7175	10.7939	67	74
11.0229	11.0988	42	40
11.0229	11.0988	54	58
11.0229	11.0988	66	73
11.3267	11.6267	38	58
11.3267	11.6267	50	63
11.3267	11.6267	62	80
11.6267	12.2128	52	58
11.6267	12.2128	64	73
11.7741	12.2128	54	59
11.7741	12.2128	66	74
11.9215	12.2128	57	60
11.9215	12.2128	69	77
12.0672	12.2128	60	61
12.0672	12.2128	72	78
12.2128	12.8054	64	62
12.2128	12.8054	76	79
12.5091	12.8054	67	61
12.5091	12.8054	79	78
12.8054	13.1099	66	60
12.8054	13.1099	78	78
13.1099	14.0047	55	55
13.1099	14.0047	59	57
13.1099	13.469	62	60
13.1099	13.469	66	60
13.1099	13.469	78	79
13.4077	14.0047	67	57
13.4077	14.0047	79	72
13.5562	14.0047	66	57
13.5562	14.0047	78	72
13.7047	14.0047	64	56
13.7047	14.0047	76	71
13.8547	14.0047	62	56
13.8547	14.0047	74	71
14.0047	14.315	55	58
14.0047	14.315	57	58
14.0047	14.307	61	60
14.0047	14.315	67	70
14.0047	14.307	73	77
14.2692	14.315	74	64
14.307	14.7533	61	58
14.307	14.7533	73	73
14.4552	14.9033	57	53
14.4552	14.9033	69	67
14.6033	14.9033	59	57
14.6033	14.9033	71	72
14.7533	14.9033	61	55
14.7533	14.9033	73	69
14.9033	15.2079	54	59
14.9033	15.2079	57	59
14.9033	15.2079	62	59
14.9033	15.1698	66	74
14.9033	15.1698	74	74
15.1698	15.2079	64	73
15.2079	15.5042	38	44
15.2079	15.5042	50	61
15.2079	15.5042	62	78
15.356	15.6085	37	41
15.356	15.6085	49	59
15.356	15.6085	61	75
15.5042	15.6085	38	45
15.5042	15.6085	50	62
15.5042	15.6085	62	79
15.8005	16.063	38	52
15.8005	16.063	50	59
15.8005	16.063	62	74
16.1005	16.5467	45	44
16.1005	16.5467	57	61
16.1005	16.5467	69	78
16.2486	16.5467	42	41
16.2486	16.5467	54	59
16.2486	16.5467	66	75
16.3967	16.5467	38	45
16.3967	16.5467	50	62
16.3967	16.5467	62	79
16.6592	16.6967	76	64
16.6967	16.7717	60	46
16.6967	16.7717	62	46
16.6967	16.7717	66	46
16.6967	16.7717	69	46
16.6967	16.7717	74	55
16.6967	16.7717	86	64
16.8467	16.9217	60	42
16.8467	16.9217	62	42
16.8467	16.9217	66	42
16.8467	16.9217	69	42
16.8467	16.9217	73	50
16.8467	16.9217	85	60
16.9967	17.0723	60	45
16.9967	17.0723	62	45
16.9967	17.0723	66	45
16.9967	17.0723	69	45
16.9967	17.0723	74	53
16.9967	17.0723	86	63
17.299	17.374	60	44
17.299	17.374	62	44
17.299	17.374	66	44
17.299	17.374	69	44
17.299	17.374	74	52
17.299	17.374	86	62
17.449	17.524	60	41
17.449	17.524	62	41
17.449	17.524	66	41
17.449	17.524	69	41
17.449	17.524	73	49
17.449	17.524	85	59
17.599	17.6739	59	44
17.599	17.6739	62	44
17.599	17.6739	67	44
17.599	17.6739	71	44
17.599	17.6739	74	52
17.599	17.6739	86	62
17.8989	18.0489	59	41
17.8989	18.0489	62	41
17.8989	18.0489	67	49
17.8989	18.0489	71	49
17.8989	18.3622	83	59
18.0489	18.1989	59	39
18.0489	18.1989	62	39
18.0489	18.1989	67	47
18.0489	18.1989	71	47
18.0489	18.3622	79	56
18.1989	18.4303	59	41
18.1989	18.4303	62	41
18.1989	18.4303	67	49
18.1989	18.4303	71	49
18.1989	18.4303	74	59
18.5074	19.4132	58	53
18.5074	19.4132	67	53
18.5074	18.8374	74	59
18.6593	18.8374	76	59
18.8132	19.4132	62	53
18.8132	19.0694	77	63
19.0365	19.0738	76	52
19.0738	19.111	77	49
19.111	19.3755	64	48
19.111	19.3755	76	59
19.2621	19.4132	65	49
19.2621	19.4132	74	59
19.4132	19.4902	57	56
19.4132	19.4902	62	56
19.4132	19.4902	66	56
19.4132	19.4902	72	58
19.7209	20.0919	50	59
19.7209	20.0919	81	63
19.8717	20.0919	78	57
20.0224	20.099	57	52
20.0224	20.099	62	52
20.0224	20.099	66	52
20.0224	20.099	72	59
20.3286	20.4051	58	55
20.3286	20.4051	62	55
20.3286	20.4051	67	55
20.3286	20.4051	70	59
20.6347	21.0025	50	59
20.6347	21.0025	79	63
20.7858	21.0025	74	57
20.937	21.0133	58	51
20.937	21.0133	62	51
20.937	21.0133	67	51
20.937	21.0133	70	59
21.2423	21.4306	62	55
21.2423	21.4306	66	55
21.2423	22.1663	69	59
21.5476	22.0005	42	61
21.5476	22.0005	54	61
21.7003	22.0005	40	57
21.7003	22.0005	52	57
21.853	22.0005	38	62
21.853	22.0005	50	62
22.1663	22.4709	54	59
22.1663	22.4709	57	59
22.1663	22.4709	62	59
22.1663	22.4328	66	74
22.1663	22.4328	74	74
22.4328	22.4709	64	73
22.4709	22.7672	38	44
22.4709	22.7672	50	61
22.4709	22.7672	62	78
22.619	22.9024	37	41
22.619	22.9024	49	59
22.619	22.9024	61	75
22.7672	22.9024	38	45
22.7672	22.9024	50	62
22.7672	22.9024	62	79
23.0635	23.326	38	52
23.0635	23.326	50	59
23.0635	23.326	62	74
23.3635	23.7985	45	44
23.3635	23.7985	57	61
23.3635	23.7985	69	78
23.5116	23.7985	42	41
23.5116	23.7985	54	59
23.5116	23.7985	66	75
23.6597	23.7985	38	45
23.6597	23.7985	50	62
23.6597	23.7985	62	79
23.9222	23.9597	76	64
23.9597	24.0347	60	46
23.9597	24.0347	62	46
23.9597	24.0347	66	46
23.9597	24.0347	69	46
23.9597	24.0347	74	55
23.9597	24.0347	86	64
24.1097	24.1847	60	42
24.1097	24.1847	62	42
24.1097	24.1847	66	42
24.1097	24.1847	69	42
24.1097	24.1847	73	50
24.1097	24.1847	85	60
24.2597	24.3353	60	45
24.2597	24.3353	62	45
24.2597	24.3353	66	45
24.2597	24.3353	69	45
24.2597	24.3353	74	53
24.2597	24.3353	86	63
24.562	24.637	60	44
24.562	24.637	62	44
24.562	24.637	66	44
24.562	24.637	69	44
24.562	24.637	74	52
24.562	24.637	86	62
24.712	24.787	60	41
24.712	24.787	62	41
24.712	24.787	66	41
24.712	24.787	69	41
24.712	24.787	73	49
24.712	24.787	85	59
24.8619	24.9369	59	44
24.8619	24.9369	62	44
24.8619	24.9369	67	44
24.8619	24.9369	71	44
24.8619	24.9369	74	52
24.8619	24.9369	86	62
25.1619	25.3119	59	41
25.1619	25.3119	62	41
25.1619	25.3119	67	49
25.1619	25.3119	71	49
25.1619	25.6072	83	59
25.3119	25.4619	59	39
25.3119	25.4619	62	39
25.3119	25.4619	67	47
25.3119	25.4619	71	47
25.3119	25.6072	79	56
25.4619	25.6933	59	41
25.4619	25.6933	62	41
25.4619	25.6933	67	49
25.4619	25.6933	71	49
25.4619	25.6933	74	59
25.7704	26.7151	58	53
25.7704	26.7151	67	53
25.7704	26.1003	74	59
25.9223	26.1003	76	59
26.0762	26.6747	62	53
26.0762	26.3318	77	63
26.299	26.3361	76	52
26.3361	26.3732	77	49
26.3732	26.7151	64	48
26.3732	26.7151	76	59
26.524	26.7151	65	49
26.524	26.7151	74	59
26.6747	26.7517	57	56
26.6747	26.7517	62	56
26.6747	26.7517	66	56
26.6747	26.7517	72	58
26.9824	27.3535	50	59
26.9824	27.3535	81	63
27.1332	27.3535	78	57
27.2839	27.3605	57	52
27.2839	27.3605	62	52
27.2839	27.3605	66	52
27.2839	27.3605	72	59
27.5901	27.6666	58	55
27.5901	27.6666	62	55
27.5901	27.6666	67	55
27.5901	27.6666	70	59
27.8962	28.264	50	59
27.8962	28.264	79	63
28.0473	28.264	74	57
28.1985	28.2748	58	51
28.1985	28.2748	62	51
28.1985	28.2748	67	51
28.1985	28.2748	70	59
28.5038	28.6921	62	55
28.5038	28.6921	66	55
28.5038	29.4222	69	59
28.8092	29.2586	42	59
28.8092	29.2586	54	59
28.961	29.2586	40	55
28.961	29.2586	52	55
29.1129	29.2586	38	60
29.1129	29.2586	50	60
29.4222	30.3438	54	52
29.4222	30.3438	57	52
29.7315	29.8076	42	52
29.8838	29.9599	40	49
30.0361	30.113	38	53
30.3438	31.2638	54	49
30.3438	31.2638	57	49
30.6515	30.7276	42	49
30.8038	30.8799	40	46
30.9561	31.033	38	50
31.2638	31.3407	42	49
31.2638	31.3407	54	49
31.4176	31.4945	40	45
31.4176	31.4945	52	45
31.5715	31.6486	38	48
31.5715	31.6486	50	48
31.88	31.9565	42	45
31.88	31.9565	54	45
32.033	32.1096	40	41
32.033	32.1096	52	41
32.1861	32.267	38	44
32.1861	32.267	50	44
32.5096	32.5904	45	41
32.833	32.9192	38	40
33.1778	34.0973	38	55
33.1778	33.4803	62	59
33.3279	34.0973	54	46
33.4404	33.4803	66	49
33.4779	34.0973	64	55
33.626	33.9208	62	53
33.7741	34.0973	61	56
33.9208	34.0973	62	51
34.0973	34.1754	37	55
34.0973	34.1754	64	58
34.2536	34.3317	49	55
34.4098	34.4859	55	49
34.4098	34.4859	59	49
34.4098	34.4859	64	49
34.4098	34.4859	67	53
34.7144	35.031	34	46
34.7144	35.031	46	55
34.7144	34.7935	54	42
34.7144	34.7935	61	42
34.7144	34.7935	64	42
34.7144	34.7935	66	51
35.031	35.1093	35	55
35.031	35.1093	62	58
35.1877	35.266	47	55
35.3443	35.4203	54	46
35.3443	35.4203	59	46
35.3443	35.4203	62	46
35.3443	35.4203	66	55
35.6481	35.9558	32	46
35.6481	35.9558	44	55
35.6481	35.7251	52	42
35.6481	35.7251	59	42
35.6481	35.7251	62	42
35.6481	35.7251	64	51
35.9558	36.2713	33	55
35.9558	36.2713	45	55
35.9558	36.2558	61	59
36.1058	36.8735	52	55
36.2183	36.2713	62	49
36.2558	36.5521	61	55
36.404	36.8735	59	53
36.5521	36.8735	45	55
36.5521	36.8735	57	56
36.5521	36.8735	61	56
36.6988	36.8735	55	51
36.8635	37.8058	38	55
36.8635	37.166	62	59
37.0135	37.8058	54	46
37.126	37.166	66	49
37.1635	37.783	64	55
37.3117	37.6065	62	53
37.4598	37.8058	61	56
37.6065	37.8058	62	51
37.783	37.8611	37	55
37.783	37.8611	64	58
37.9393	38.0174	49	48
38.0955	38.1716	55	49
38.0955	38.1716	59	49
38.0955	38.1716	64	49
38.0955	38.1716	67	53
38.4001	38.7157	34	46
38.4001	38.7157	46	55
38.4001	38.4789	54	42
38.4001	38.4789	61	42
38.4001	38.4789	64	42
38.4001	38.4789	66	51
38.726	39.057	35	46
38.726	39.057	47	55
38.726	39.0385	59	58
38.726	39.0385	62	58
38.8822	39.057	54	47
39.0385	39.3196	31	46
39.0385	39.3196	43	55
39.0385	39.3196	59	46
39.0385	39.3196	62	55
39.1976	39.3196	64	50
39.3568	39.682	33	42
39.3568	39.682	45	51
39.3568	39.682	52	51
39.3568	39.682	57	59
39.3568	39.682	61	59
39.5194	39.682	55	52
39.682	40.1778	38	49
39.682	40.1778	54	58
39.682	40.1778	62	64
40.0125	40.1778	50	60
40.0125	40.1778	57	70
40.0125	40.1778	66	64
40.0125	40.1778	74	77
40.6737	41.5932	38	55
40.6737	40.9762	62	59
40.8237	41.5932	54	46
40.9362	40.9762	66	49
40.9737	41.5932	64	55
41.1219	41.4167	62	53
41.27	41.5932	61	56
41.4167	41.5932	62	51
41.5932	41.6713	37	55
41.5932	41.6713	64	58
41.7494	41.8275	49	55
41.9057	41.9818	55	49
41.9057	41.9818	59	49
41.9057	41.9818	64	49
41.9057	41.9818	67	53
42.2102	42.5294	34	46
42.2102	42.5294	46	55
42.2102	42.29	54	42
42.2102	42.29	61	42
42.2102	42.29	64	42
42.2102	42.29	66	51
42.5294	42.6069	35	55
42.5294	42.6069	62	58
42.6844	42.7619	47	55
42.8395	42.9154	54	46
42.8395	42.9154	59	46
42.8395	42.9154	62	46
42.8395	42.9154	66	55
43.1433	43.4509	32	46
43.1433	43.4509	44	55
43.1433	43.2202	52	42
43.1433	43.2202	59	42
43.1433	43.2202	62	42
43.1433	43.2202	64	51
43.4509	43.7664	33	55
43.4509	43.7664	45	55
43.4509	43.7509	61	59
43.6009	44.3687	52	55
43.7135	43.7664	62	49
43.7509	44.0473	61	55
43.8991	44.3687	59	53
44.0473	44.3687	45	55
44.0473	44.3687	57	56
44.0473	44.3687	61	56
44.194	44.3687	55	51
44.3587	45.3009	38	55
44.3587	44.6611	62	59
44.5087	45.3009	54	46
44.6212	44.6611	66	49
44.6587	45.2781	64	55
44.8068	45.1017	62	53
44.955	45.3009	61	56
45.1017	45.3009	62	51
45.2781	45.3563	37	55
45.2781	45.3563	64	58
45.4344	45.5125	49	48
45.5906	45.6668	55	49
45.5906	45.6668	59	49
45.5906	45.6668	64	49
45.5906	45.6668	67	53
45.8952	46.2109	34	46
45.8952	46.2109	46	55
45.8952	45.974	54	42
45.8952	45.974	61	42
45.8952	45.974	64	42
45.8952	45.974	66	51
46.2211	46.5522	35	46
46.2211	46.5522	47	55
46.2211	46.5336	59	58
46.2211	46.5336	62	58
46.3773	46.5522	54	47
46.5336	46.8148	31	46
46.5336	46.8148	43	55
46.5336	46.8148	59	46
46.5336	46.8148	62	55
46.6927	46.8148	64	50
46.8519	47.1834	33	42
46.8519	47.1834	45	51
46.8519	47.1834	52	51
46.8519	47.1834	57	59
46.8519	47.1834	61	59
47.0177	47.1834	55	52
47.1834	47.6886	38	49
47.1834	47.6886	54	58
47.1834	47.6886	62	64
47.5233	47.6886	50	60
47.5233	47.6886	57	70
47.5233	47.6886	66	64
47.5233	47.6886	74	77
48.1845	50.0226	62	42
48.1845	48.6345	66	52
48.1845	50.0226	74	57
48.1845	48.6345	81	67
48.4852	49.0913	67	47
48.4852	49.0913	83	59
48.6345	48.933	66	44
48.6345	48.933	81	55
48.7837	49.0913	64	45
48.7837	49.0913	79	57
48.933	49.0913	66	42
48.933	49.0913	81	53
49.0913	49.399	67	48
49.0913	49.399	83	60
49.399	49.7051	67	47
49.399	49.7051	83	59
49.5521	50.0226	71	44
49.5521	50.0226	86	55
49.7051	50.0226	67	46
49.7051	50.0226	83	58
50.0226	50.7741	62	42
50.0226	50.4726	66	52
50.0226	50.9324	74	57
50.0226	50.4726	81	67
50.3233	50.9324	67	47
50.3233	50.9324	83	59
50.4726	50.9324	66	44
50.4726	50.9324	81	55
50.6218	50.9324	64	45
50.6218	50.9324	79	57
50.7741	50.9324	62	42
50.7741	50.9324	78	53
50.9324	51.5463	57	38
50.9324	51.7308	64	48
50.9324	51.2401	73	48
50.9324	51.2401	76	60
51.2401	51.5463	67	47
51.2401	51.5463	73	45
51.2401	51.5463	76	57
51.3932	51.7308	66	41
51.3932	51.7308	71	44
51.3932	51.7308	74	55
51.5463	51.8604	57	36
51.5463	51.8604	67	46
51.5463	51.8604	73	46
51.5463	51.8604	76	58
51.8604	53.7053	62	42
51.8604	52.3104	66	52
51.8604	53.7053	74	57
51.8604	52.3104	81	67
52.1611	52.7672	67	47
52.1611	52.7672	83	59
52.3104	52.6089	66	44
52.3104	52.6089	81	55
52.4596	52.7672	64	45
52.4596	52.7672	79	57
52.6089	52.7672	66	42
52.6089	52.7672	81	53
52.7672	53.0749	67	48
52.7672	53.0749	83	60
53.0749	53.381	67	47
53.0749	53.381	83	59
53.2279	53.7053	71	44
53.2279	53.7053	86	55
53.381	53.7053	67	46
53.381	53.7053	83	58
53.7053	54.5762	62	42
53.7053	54.2037	66	52
53.7053	54.7742	74	57
53.7053	54.2037	81	67
54.032	54.7742	67	47
54.032	54.7742	83	59
54.2037	54.7742	66	44
54.2037	54.7742	81	55
54.3847	54.7742	64	45
54.3847	54.7742	79	57
54.5762	54.7742	62	42
54.5762	54.7742	78	53
54.7742	55.7344	57	38
54.7742	55.7344	64	48
54.7742	55.7344	69	48
54.7742	55.7344	73	48
54.7742	55.7344	76	60
55.7344	56.6539	38	55
55.7344	56.0369	62	59
55.8844	56.6539	54	46
55.9969	56.0369	66	49
56.0344	56.6539	45	55
56.0344	56.6539	64	55
56.1826	56.4774	62	53
56.3307	56.6539	61	56
56.4774	56.6539	62	51
56.6539	56.732	37	55
56.6539	56.732	64	58
56.8101	56.8883	49	55
56.9664	57.0425	55	49
56.9664	57.0425	59	49
56.9664	57.0425	64	49
56.9664	57.0425	67	53
57.271	57.5859	34	46
57.271	57.5859	46	55
57.271	57.3497	54	42
57.271	57.3497	61	42
57.271	57.3497	64	42
57.271	57.3497	66	51
57.5859	57.6642	35	55
57.5859	57.6642	62	58
57.7426	57.8209	47	55
57.8992	57.9752	54	46
57.8992	57.9752	59	46
57.8992	57.9752	62	46
57.8992	57.9752	66	55
58.203	58.5107	32	46
58.203	58.5107	44	55
58.203	58.28	52	42
58.203	58.28	59	42
58.203	58.28	62	42
58.203	58.28	64	51
58.5107	58.8262	33	55
58.5107	58.8262	45	55
58.5107	58.8107	61	59
58.6607	59.4285	52	55
58.7732	58.8262	62	49
58.8107	59.107	61	55
58.9589	59.4285	59	53
59.107	59.4285	45	55
59.107	59.4285	57	56
59.107	59.4285	61	56
59.2538	59.4285	55	51
59.4185	60.3379	38	55
59.4185	59.7209	62	59
59.5685	60.3379	54	46
59.681	59.7209	66	49
59.7185	60.2967	64	55
59.7283	60.3483	45	55
59.8666	60.1615	62	53
60.0147	60.2967	61	56
60.1615	60.3379	62	51
60.3379	60.416	37	55
60.3379	60.416	64	58
60.4942	60.5723	49	48
60.6504	60.7266	55	49
60.6504	60.7266	59	49
60.6504	60.7266	64	49
60.6504	60.7266	67	53
60.955	61.2706	34	46
60.955	61.2706	46	55
60.955	61.0338	54	42
60.955	61.0338	61	42
60.955	61.0338	64	42
60.955	61.0338	66	51
61.2809	61.6119	35	46
61.2809	61.6119	47	55
61.2809	61.5934	59	58
61.2809	61.5934	62	58
61.4371	61.6119	54	47
61.5934	61.8746	31	46
61.5934	61.8746	43	55
61.5934	61.8746	59	46
61.5934	61.8746	62	55
61.7525	61.8746	64	50
61.9117	62.2432	33	42
61.9117	62.2432	45	51
61.9117	62.2432	52	51
61.9117	62.2432	57	59
61.9117	62.2432	61	59
62.0774	62.2432	55	52
62.2432	62.739	38	49
62.2432	62.739	45	51
62.2432	62.739	54	58
62.2432	62.739	62	64
62.5738	62.739	50	60
62.5738	62.739	57	70
62.5738	62.739	66	64
62.5738	62.739	74	77
63.2349	65.1495	47	38
63.2349	63.7197	62	47
63.2349	63.7197	78	59
63.3977	63.7197	71	39
63.5605	64.1996	64	41
63.5605	64.1996	79	52
63.7197	64.0359	62	39
63.7197	64.0359	71	35
63.7197	64.0359	78	47
63.8789	64.1996	61	39
63.8789	64.1996	76	50
64.0359	64.1996	62	38
64.0359	64.1996	71	35
64.0359	64.1996	78	48
64.1996	64.8364	64	42
64.1996	65.0203	79	53
64.3596	64.678	71	37
64.5197	65.0203	61	41
64.5197	65.0203	83	52
64.678	64.9929	71	36
64.8364	65.1495	64	40
64.8364	65.1495	76	51
64.9929	65.1495	71	28
65.1495	66.1142	47	38
65.1495	65.6343	62	47
65.1495	65.6343	78	59
65.3123	65.6343	71	39
65.4751	66.1142	64	41
65.4751	66.1142	79	52
65.6343	65.9505	62	39
65.6343	65.9505	71	35
65.6343	65.9505	78	47
65.7935	66.1142	61	39
65.7935	66.1142	76	50
65.9505	66.1142	62	38
65.9505	66.1142	71	35
65.9505	66.1142	78	48
66.1142	67.0895	52	38
66.1142	66.9203	64	42
66.1142	67.0895	79	53
66.2743	66.5927	67	37
66.4343	67.0895	61	41
66.4343	67.0895	76	52
66.5927	67.0895	67	36
66.751	67.0895	54	40
66.751	67.0895	58	40
66.751	67.0895	73	51
66.9203	67.0895	64	28
67.0895	68.1053	47	31
67.0895	68.1053	59	38
67.0895	68.1053	62	40
67.0895	68.1053	71	48
67.2588	67.5974	54	38
67.5974	67.936	54	33
67.936	68.1053	54	33
68.1053	69.0665	45	38
68.1053	68.4281	52	38
68.1053	69.0665	67	52
68.1053	68.267	74	52
68.1862	68.3476	73	48
68.267	68.4281	74	53
68.3476	68.5083	73	49
68.4281	68.7481	52	39
68.4281	68.5884	74	56
68.5083	68.6684	73	50
68.5884	68.7481	74	57
68.6684	68.8277	73	51
68.7481	69.0665	52	41
68.7481	69.0665	74	57
68.8277	68.9869	73	52
68.9073	69.0665	71	58
68.9869	69.0665	73	51
69.0665	69.8022	50	42
69.0665	69.3893	54	42
69.0665	69.8022	66	57
69.0665	69.3893	74	57
69.3893	69.7068	54	38
69.3893	69.8022	74	55
69.5481	69.8022	76	49
69.7068	70.0315	54	31
69.7068	70.0315	58	31
69.7068	70.0315	64	52
69.7068	70.0315	73	52
70.0315	70.3499	47	38
70.0315	70.8566	55	38
70.0315	70.8566	59	38
70.0315	70.995	62	46
70.0315	70.995	71	46
70.3499	70.6724	47	47
70.5112	70.8566	46	41
70.6724	70.995	47	38
70.995	71.9563	45	38
70.995	71.1567	52	38
70.995	71.9563	67	52
70.995	71.1567	74	52
71.076	71.2374	73	48
71.1567	71.4782	52	45
71.1567	71.3178	74	53
71.2374	71.3981	73	49
71.3178	71.4782	74	56
71.3981	71.5582	73	50
71.4782	71.7971	52	38
71.4782	71.6379	74	57
71.5582	71.7175	73	51
71.6379	71.9563	74	57
71.7175	71.8767	73	52
71.7971	71.9563	52	38
71.7971	71.9563	71	58
71.8767	71.9563	73	51
71.9563	72.7043	50	42
71.9563	72.2828	54	42
71.9563	72.2828	74	57
72.1195	72.4442	66	57
72.2828	72.6056	54	38
72.2828	72.7043	74	55
72.4442	72.7736	66	57
72.4442	72.7043	76	49
72.6056	72.9416	54	31
72.6056	72.9416	58	31
72.6056	72.9416	73	52
72.7736	72.9416	64	45
72.9416	73.9617	47	38
72.9416	74.8754	71	46
73.1111	73.4494	54	28
73.2805	73.6191	62	29
73.2805	73.6191	66	29
73.4494	73.7898	54	26
73.6191	73.9617	62	27
73.6191	73.9617	66	27
73.7898	74.1343	54	25
73.9617	75.0153	47	23
73.9617	74.3078	62	26
73.9617	74.3078	66	26
74.1343	74.4822	54	23
74.3078	74.6574	62	25
74.3078	74.6574	66	25
74.4822	74.8329	54	20
74.6574	75.0153	62	23
74.6574	75.0153	66	23
74.8329	75.0153	54	19
75.0153	76.9323	47	38
75.0153	75.5	62	47
75.0153	75.5	78	59
75.178	75.5	71	39
75.3408	75.9799	64	41
75.3408	75.9799	79	52
75.5	75.8162	62	39
75.5	75.8162	71	35
75.5	75.8162	78	47
75.6592	75.9799	61	39
75.6592	75.9799	76	50
75.8162	75.9799	62	38
75.8162	75.9799	71	35
75.8162	75.9799	78	48
75.9799	76.6191	64	42
75.9799	76.8031	79	53
76.1412	76.4608	71	37
76.3025	76.8031	61	41
76.3025	76.8031	83	52
76.4608	76.7757	71	36
76.6191	76.9323	64	40
76.6191	76.9323	76	51
76.7757	76.9323	71	28
76.9323	77.897	47	38
76.9323	77.4171	62	47
76.9323	77.4171	78	59
77.0951	77.4171	71	39
77.2579	77.897	64	41
77.2579	77.897	79	52
77.4171	77.7333	62	39
77.4171	77.7333	71	35
77.4171	77.7333	78	47
77.5763	77.897	61	39
77.5763	77.897	76	50
77.7333	77.897	62	38
77.7333	77.897	71	35
77.7333	77.897	78	48
77.897	78.8723	52	38
77.897	78.7031	64	42
77.897	78.8723	79	53
78.0571	78.3754	67	37
78.2171	78.8723	61	41
78.2171	78.8723	76	52
78.3754	78.8723	67	36
78.5338	78.8723	54	40
78.5338	78.8723	58	40
78.5338	78.8723	73	51
78.7031	78.8723	64	28
78.8723	79.8881	47	31
78.8723	79.8881	59	38
78.8723	79.8881	62	40
78.8723	79.8881	71	48
79.0416	79.3802	54	38
79.3802	79.7188	54	33
79.7188	79.8881	54	33
79.8881	80.8493	45	38
79.8881	80.2109	52	38
79.8881	80.8493	67	52
79.8881	80.0498	74	52
79.969	80.1304	73	48
80.0498	80.2109	74	53
80.1304	80.2911	73	49
80.2109	80.5309	52	39
80.2109	80.3712	74	56
80.2911	80.4512	73	50
80.3712	80.5309	74	57
80.4512	80.6105	73	51
80.5309	80.8493	52	41
80.5309	80.8493	74	57
80.6105	80.7697	73	52
80.6901	80.8493	71	58
80.7697	80.8493	73	51
80.8493	81.585	50	42
80.8493	81.1721	54	42
80.8493	81.585	66	57
80.8493	81.1721	74	57
81.1721	81.4896	54	38
81.1721	81.585	74	55
81.3309	81.585	76	49
81.4896	81.8143	54	31
81.4896	81.8143	58	31
81.4896	81.8143	64	52
81.4896	81.8143	73	52
81.8143	82.1421	47	38
81.8143	82.7873	55	38
81.8143	82.7873	59	38
81.8143	82.7873	62	46
81.8143	82.7873	71	46
82.1421	82.4647	47	49
82.3034	82.7873	46	40
82.4647	82.7873	47	38
82.7873	83.7486	45	38
82.7873	82.949	52	38
82.7873	83.7486	67	52
82.7873	82.949	74	52
82.8682	83.0296	73	48
82.949	83.2705	52	46
82.949	83.1101	74	53
83.0296	83.1904	73	49
83.1101	83.2705	74	56
83.1904	83.3504	73	50
83.2705	83.5894	52	38
83.2705	83.4302	74	57
83.3504	83.5098	73	51
83.4302	83.7486	74	57
83.5098	83.669	73	52
83.5894	83.7486	52	38
83.5894	83.7486	71	58
83.669	83.7486	73	51
83.7486	84.4966	50	42
83.7486	84.075	54	42
83.7486	84.075	74	57
83.9118	84.2365	66	57
84.075	84.3979	54	38
84.075	84.4966	74	55
84.2365	84.5659	66	57
84.2365	84.4966	76	49
84.3979	84.7339	54	31
84.3979	84.7339	58	31
84.3979	84.7339	73	52
84.5659	84.7339	64	45
84.7339	85.754	47	38
84.7339	86.6726	71	46
84.9034	85.2417	54	28
85.0728	85.4113	62	29
85.0728	85.4113	66	29
85.2417	85.5821	54	26
85.4113	85.754	62	27
85.4113	85.754	66	27
85.5821	85.9266	54	25
85.754	86.8259	47	23
85.754	86.1001	62	26
85.754	86.1001	66	26
85.9266	86.2745	54	23
86.1001	86.4498	62	25
86.1001	86.4498	66	25
86.2745	86.6259	54	20
86.4498	86.8259	62	23
86.4498	86.8259	66	23
86.6259	86.8259	54	19
86.8259	87.1259	38	46
86.8259	87.1259	50	64
86.8259	87.1259	62	82
87.1259	87.7156	40	44
87.1259	87.7156	52	61
87.1259	87.7156	64	78
87.2741	87.5689	38	41
87.2741	87.5689	50	59
87.2741	87.5689	62	75
87.4222	87.7517	37	45
87.4222	87.7517	49	62
87.4222	87.7517	61	79
87.5689	87.7517	38	40
87.5689	87.7517	50	58
87.5689	87.7517	62	73
87.7156	87.7929	40	45
87.7156	87.7929	52	63
87.7156	87.7929	64	81
88.0249	88.1014	43	37
88.0249	88.1014	55	52
88.0249	88.1014	67	75
88.3298	88.407	42	40
88.3298	88.407	54	58
88.3298	88.407	66	73
88.6383	88.9008	38	46
88.6383	88.9008	50	64
88.6383	88.9008	62	82
88.9008	89.5258	42	39
88.9008	89.5258	54	56
88.9008	89.5258	66	71
88.9383	89.5258	40	42
88.9383	89.5258	52	59
88.9383	89.5258	64	75
89.0857	89.3795	38	40
89.0857	89.3795	50	57
89.0857	89.3795	62	73
89.2332	89.5258	37	44
89.2332	89.5258	49	60
89.2332	89.5258	61	77
89.3795	89.5258	38	39
89.3795	89.5258	50	56
89.3795	89.5258	62	71
89.5258	89.6032	40	45
89.5258	89.6032	52	63
89.5258	89.6032	64	80
89.8351	89.9113	43	37
89.8351	89.9113	55	52
89.8351	89.9113	67	74
90.1397	90.2164	42	40
90.1397	90.2164	54	58
90.1397	90.2164	66	73
90.4466	90.7466	38	59
90.4466	90.7466	50	63
90.4466	90.7466	62	80
90.7466	91.3348	52	58
90.7466	91.3348	64	73
90.8944	91.3348	54	59
90.8944	91.3348	66	74
91.0422	91.3348	57	60
91.0422	91.3348	69	77
91.1885	91.3348	60	61
91.1885	91.3348	72	78
91.3348	91.9274	64	62
91.3348	91.9274	76	79
91.6311	91.9274	67	61
91.6311	91.9274	79	78
91.9274	92.232	66	60
91.9274	92.232	78	78
92.232	93.1268	55	55
92.232	93.1268	59	57
92.232	92.591	62	60
92.232	92.591	66	60
92.232	92.591	78	79
92.5298	93.1268	67	57
92.5298	93.1268	79	72
92.6783	93.1268	66	57
92.6783	93.1268	78	72
92.8268	93.1268	64	56
92.8268	93.1268	76	71
92.9768	93.1268	62	56
92.9768	93.1268	74	71
93.1268	93.4371	55	58
93.1268	93.4371	57	58
93.1268	93.4291	61	60
93.1268	93.4371	67	70
93.1268	93.4291	73	77
93.3913	93.4371	74	64
93.4291	93.8754	61	58
93.4291	93.8754	73	73
93.5772	94.0254	57	53
93.5772	94.0254	69	67
93.7254	94.0254	59	57
93.7254	94.0254	71	72
93.8754	94.0254	61	55
93.8754	94.0254	73	69
94.0254	94.3307	54	59
94.0254	94.3307	57	59
94.0254	94.3307	62	59
94.0254	94.3307	66	74
94.0254	94.3307	74	74
94.3307	94.9211	40	44
94.3307	94.9211	52	61
94.3307	94.9211	64	78
94.4788	94.7741	38	41
94.4788	94.7741	50	59
94.4788	94.7741	62	75
94.627	94.9529	37	45
94.627	94.9529	49	62
94.627	94.9529	61	79
94.7741	94.9529	38	40
94.7741	94.9529	50	58
94.7741	94.9529	62	73
94.9211	94.9991	40	45
94.9211	94.9991	52	63
94.9211	94.9991	64	81
95.2328	95.309	43	37
95.2328	95.309	55	52
95.2328	95.309	67	74
95.5374	95.6143	42	40
95.5374	95.6143	54	58
95.5374	95.6143	66	73
95.8451	96.1076	38	46
95.8451	96.1076	50	64
95.8451	96.1076	62	82
96.1076	96.7831	42	39
96.1076	96.7831	54	56
96.1076	96.7831	66	71
96.1451	96.7326	40	42
96.1451	96.7326	52	59
96.1451	96.7326	64	75
96.2925	96.5862	38	40
96.2925	96.5862	50	57
96.2925	96.5862	62	73
96.4399	96.7831	37	44
96.4399	96.7831	49	60
96.4399	96.7831	61	77
96.5862	96.7831	38	39
96.5862	96.7831	50	56
96.5862	96.7831	62	71
96.7326	96.8103	40	45
96.7326	96.8103	52	63
96.7326	96.8103	64	80
97.0435	97.1198	43	37
97.0435	97.1198	55	52
97.0435	97.1198	67	74
97.3488	97.4248	42	40
97.3488	97.4248	54	58
97.3488	97.4248	66	73
97.6526	97.9526	38	59
97.6526	97.9526	50	63
97.6526	97.9526	62	80
97.9526	98.5387	52	58
97.9526	98.5387	64	73
98.1	98.5387	54	59
98.1	98.5387	66	74
98.2475	98.5387	57	60
98.2475	98.5387	69	77
98.3931	98.5387	60	61
98.3931	98.5387	72	78
98.5387	99.1313	64	62
98.5387	99.1313	76	79
98.835	99.1313	67	61
98.835	99.1313	79	78
99.1313	99.4359	66	60
99.1313	99.4359	78	78
99.4359	100.331	55	55
99.4359	100.331	59	57
99.4359	99.7949	62	60
99.4359	99.7949	66	60
99.4359	99.7949	78	79
99.7336	100.331	67	57
99.7336	100.331	79	72
99.8822	100.331	66	57
99.8822	100.331	78	72
100.031	100.331	64	56
100.031	100.331	76	71
100.181	100.331	62	56
100.181	100.331	74	71
100.331	100.641	55	58
100.331	100.641	57	58
100.331	100.633	61	60
100.331	100.641	67	68
100.331	100.633	73	77
100.595	100.641	74	64
100.633	101.079	61	58
100.633	101.079	73	73
100.781	101.229	57	53
100.781	101.229	69	67
100.929	101.229	59	57
100.929	101.229	71	72
101.079	101.229	61	55
101.079	101.229	73	69
101.229	101.534	54	59
101.229	101.534	57	59
101.229	101.534	62	59
101.229	101.496	66	74
101.229	101.496	74	74
101.496	101.534	64	73
101.534	101.83	38	44
101.534	101.83	50	61
101.534	101.83	62	78
101.682	101.965	37	41
101.682	101.965	49	59
101.682	101.965	61	75
101.83	101.965	38	45
101.83	101.965	50	62
101.83	101.965	62	79
102.126	102.389	38	52
102.126	102.389	50	59
102.126	102.389	62	74
102.426	102.948	45	44
102.426	102.948	57	61
102.426	102.948	69	78
102.575	102.948	42	41
102.575	102.948	54	59
102.575	102.948	66	75
102.723	102.948	38	45
102.723	102.948	50	62
102.723	102.948	62	79
102.985	103.023	76	64
103.023	103.098	60	46
103.023	103.098	62	46
103.023	103.098	66	46
103.023	103.098	69	46
103.023	103.098	74	55
103.023	103.098	86	64
103.173	103.248	60	42
103.173	103.248	62	42
103.173	103.248	66	42
103.173	103.248	69	42
103.173	103.248	73	50
103.173	103.248	85	60
103.323	103.398	60	45
103.323	103.398	62	45
103.323	103.398	66	45
103.323	103.398	69	45
103.323	103.398	74	53
103.323	103.398	86	63
103.625	103.7	60	44
103.625	103.7	62	44
103.625	103.7	66	44
103.625	103.7	69	44
103.625	103.7	74	52
103.625	103.7	86	62
103.775	103.85	60	41
103.775	103.85	62	41
103.775	103.85	66	41
103.775	103.85	69	41
103.775	103.85	73	49
103.775	103.85	85	59
103.925	104.0	59	44
103.925	104.0	62	44
103.925	104.0	67	44
103.925	104.0	71	44
103.925	104.0	74	52
103.925	104.0	86	62
104.225	104.375	59	41
104.225	104.375	62	41
104.225	104.375	67	49
104.225	104.375	71	49
104.225	104.688	83	59
104.375	104.525	59	39
104.375	104.525	62	39
104.375	104.525	67	47
104.375	104.525	71	47
104.375	104.688	79	56
104.525	104.756	59	41
104.525	104.756	62	41
104.525	104.756	67	49
104.525	104.756	71	49
104.525	104.756	74	59
104.833	105.739	58	53
104.833	105.739	67	53
104.833	105.163	74	59
104.985	105.163	76	59
105.139	105.739	62	53
105.139	105.395	77	63
105.362	105.4	76	52
105.4	105.437	77	49
105.437	105.701	64	48
105.437	105.701	76	59
105.588	105.739	65	49
105.588	105.739	74	59
105.739	105.816	57	56
105.739	105.816	62	56
105.739	105.816	66	56
105.739	105.816	72	58
106.047	106.418	50	59
106.047	106.418	81	63
106.198	106.418	78	57
106.348	106.425	57	52
106.348	106.425	62	52
106.348	106.425	66	52
106.348	106.425	72	59
106.654	106.731	58	55
106.654	106.731	62	55
106.654	106.731	67	55
106.654	106.731	70	59
106.961	107.328	50	59
106.961	107.328	79	63
107.112	107.328	74	57
107.263	107.339	58	51
107.263	107.339	62	51
107.263	107.339	67	51
107.263	107.339	70	59
107.568	107.757	62	55
107.568	107.757	66	55
107.568	108.492	69	59
107.874	108.326	42	61
107.874	108.326	54	61
108.026	108.326	40	57
108.026	108.326	52	57
108.179	108.326	38	62
108.179	108.326	50	62
108.492	108.797	54	59
108.492	108.797	57	59
108.492	108.797	62	59
108.492	108.759	66	74
108.492	108.759	74	74
108.759	108.797	64	73
108.797	109.093	38	44
108.797	109.093	50	61
108.797	109.093	62	78
108.945	109.228	37	41
108.945	109.228	49	59
108.945	109.228	61	75
109.093	109.228	38	45
109.093	109.228	50	62
109.093	109.228	62	79
109.389	109.652	38	52
109.389	109.652	50	59
109.389	109.652	62	74
109.689	110.193	45	44
109.689	110.193	57	61
109.689	110.193	69	78
109.838	110.193	42	41
109.838	110.193	54	59
109.838	110.193	66	75
109.986	110.193	38	45
109.986	110.193	50	62
109.986	110.193	62	79
110.248	110.286	76	64
110.286	110.361	60	46
110.286	110.361	62	46
110.286	110.361	66	46
110.286	110.361	69	46
110.286	110.361	74	55
110.286	110.361	86	64
110.436	110.511	60	42
110.436	110.511	62	42
110.436	110.511	66	42
110.436	110.511	69	42
110.436	110.511	73	50
110.436	110.511	85	60
110.586	110.661	60	45
110.586	110.661	62	45
110.586	110.661	66	45
110.586	110.661	69	45
110.586	110.661	74	53
110.586	110.661	86	63
110.888	110.963	60	44
110.888	110.963	62	44
110.888	110.963	66	44
110.888	110.963	69	44
110.888	110.963	74	52
110.888	110.963	86	62
111.038	111.113	60	41
111.038	111.113	62	41
111.038	111.113	66	41
111.038	111.113	69	41
111.038	111.113	73	49
111.038	111.113	85	59
111.188	111.263	59	44
111.188	111.263	62	44
111.188	111.263	67	44
111.188	111.263	71	44
111.188	111.263	74	52
111.188	111.263	86	62
111.488	111.638	59	41
111.488	111.638	62	41
111.488	111.638	67	49
111.488	111.638	71	49
111.488	111.933	83	59
111.638	111.788	59	39
111.638	111.788	62	39
111.638	111.788	67	47
111.638	111.788	71	47
111.638	111.933	79	56
111.788	112.019	59	41
111.788	112.019	62	41
111.788	112.019	67	49
111.788	112.019	71	49
111.788	112.019	74	59
112.096	113.001	58	53
112.096	113.001	67	53
112.096	112.426	74	59
112.248	112.426	76	59
112.402	113.001	62	53
112.402	112.658	77	63
112.625	112.662	76	52
112.662	112.699	77	49
112.699	112.963	64	48
112.699	112.963	76	59
112.85	113.001	65	49
112.85	113.001	74	59
113.001	113.078	57	56
113.001	113.078	62	56
113.001	113.078	66	56
113.001	113.078	72	58
113.308	113.679	50	59
113.308	113.679	81	63
113.459	113.679	78	57
113.61	113.686	57	52
113.61	113.686	62	52
113.61	113.686	66	52
113.61	113.686	72	59
113.916	113.993	58	55
113.916	113.993	62	55
113.916	113.993	67	55
113.916	113.993	70	59
114.222	114.59	50	59
114.222	114.59	79	63
114.373	114.59	74	57
114.524	114.601	58	51
114.524	114.601	62	51
114.524	114.601	67	51
114.524	114.601	70	59
114.83	115.018	62	55
114.83	115.018	66	55
114.83	115.748	69	59
115.135	115.584	42	59
115.135	115.584	54	59
115.287	115.584	40	55
115.287	115.584	52	55
115.439	115.584	38	60
115.439	115.584	50	60
115.748	116.67	54	52
115.748	116.67	57	52
116.057	116.134	42	52
116.21	116.286	40	49
116.362	116.439	38	53
116.67	117.59	54	49
116.67	117.59	57	49
116.977	117.054	42	49
117.13	117.206	40	46
117.282	117.359	38	50
117.59	117.667	42	49
117.59	117.667	54	49
117.744	117.82	40	45
117.744	117.82	52	45
117.897	117.975	38	48
117.897	117.975	50	48
118.206	118.282	42	45
118.206	118.282	54	45
118.359	118.435	40	41
118.359	118.435	52	41
118.512	118.593	38	44
118.512	118.593	50	44
118.835	118.916	45	41
119.159	119.245	38	40
119.504	120.452	38	55
119.504	119.806	62	59
119.654	120.452	54	46
119.766	119.806	66	49
119.804	120.423	64	55
119.952	120.247	62	53
120.1	120.452	61	56
120.247	120.452	62	51
120.423	120.501	37	55
120.423	120.501	64	58
120.579	120.658	49	55
120.736	120.812	55	49
120.736	120.812	59	49
120.736	120.812	64	49
120.736	120.812	67	53
121.04	121.357	34	46
121.04	121.357	46	55
121.04	121.119	54	42
121.04	121.119	61	42
121.04	121.119	64	42
121.04	121.119	66	51
121.357	121.435	35	55
121.357	121.435	62	58
121.514	121.592	47	55
121.67	121.746	54	46
121.67	121.746	59	46
121.67	121.746	62	46
121.67	121.746	66	55
121.974	122.284	32	46
121.974	122.284	44	55
121.974	122.052	52	42
121.974	122.052	59	42
121.974	122.052	62	42
121.974	122.052	64	51
122.284	122.6	33	55
122.284	122.6	45	55
122.284	122.584	61	59
122.434	123.202	52	55
122.547	122.6	62	49
122.584	122.88	61	55
122.732	123.202	59	53
122.88	123.202	45	55
122.88	123.202	57	56
122.88	123.202	61	56
123.027	123.202	55	51
123.192	124.15	38	55
123.192	123.494	62	59
123.342	124.15	54	46
123.454	123.494	66	49
123.492	124.111	64	55
123.64	123.935	62	53
123.788	124.15	61	56
123.935	124.15	62	51
124.111	124.189	37	55
124.111	124.189	64	58
124.268	124.346	49	48
124.424	124.5	55	49
124.424	124.5	59	49
124.424	124.5	64	49
124.424	124.5	67	53
124.728	125.044	34	46
124.728	125.044	46	55
124.728	124.807	54	42
124.728	124.807	61	42
124.728	124.807	64	42
124.728	124.807	66	51
125.054	125.385	35	46
125.054	125.385	47	55
125.054	125.367	59	58
125.054	125.367	62	58
125.211	125.385	54	47
125.367	125.714	31	46
125.367	125.714	43	55
125.367	125.714	59	46
125.367	125.714	62	55
125.526	125.714	64	50
125.685	126.01	33	42
125.685	126.506	45	51
125.685	126.01	52	51
125.685	126.01	57	59
125.685	126.01	61	59
125.848	126.01	55	52
126.01	126.506	38	49
126.01	126.506	54	58
126.01	126.506	62	64
126.341	126.506	50	60
126.341	126.506	57	70
126.341	126.506	66	64
126.341	126.506	74	77
127.002	127.95	38	55
127.002	127.305	62	59
127.152	127.95	54	46
127.265	127.305	66	49
127.302	127.922	64	55
127.45	127.745	62	53
127.598	127.95	61	56
127.745	127.95	62	51
127.922	128.0	37	55
127.922	128.0	64	58
128.078	128.156	49	55
128.234	128.31	55	49
128.234	128.31	59	49
128.234	128.31	64	49
128.234	128.31	67	53
128.539	128.858	34	46
128.539	128.858	46	55
128.539	128.618	54	42
128.539	128.618	61	42
128.539	128.618	64	42
128.539	128.618	66	51
128.858	128.936	35	55
128.858	128.936	62	58
129.015	129.093	47	55
129.172	129.248	54	46
129.172	129.248	59	46
129.172	129.248	62	46
129.172	129.248	66	55
129.476	129.783	32	46
129.476	129.783	44	55
129.476	129.553	52	42
129.476	129.553	59	42
129.476	129.553	62	42
129.476	129.553	64	51
129.783	130.099	33	55
129.783	130.099	45	55
129.783	130.083	61	59
129.933	130.701	52	55
130.046	130.099	62	49
130.083	130.38	61	55
130.232	130.701	59	53
130.38	130.701	45	55
130.38	130.701	57	56
130.38	130.701	61	56
130.526	130.701	55	51
130.691	131.625	38	55
130.691	130.994	62	59
130.841	131.625	54	46
130.954	130.994	66	49
130.991	131.611	64	55
131.139	131.434	62	53
131.287	131.625	61	56
131.434	131.625	62	51
131.611	131.689	37	55
131.611	131.689	64	58
131.767	131.845	49	48
131.923	131.999	55	49
131.923	131.999	59	49
131.923	131.999	64	49
131.923	131.999	67	53
132.228	132.543	34	46
132.228	132.543	46	55
132.228	132.306	54	42
132.228	132.306	61	42
132.228	132.306	64	42
132.228	132.306	66	51
132.553	132.885	35	46
132.553	132.885	47	55
132.553	132.866	59	58
132.553	132.866	62	58
132.71	132.885	54	47
132.866	133.147	31	46
132.866	133.147	43	55
132.866	133.147	59	46
132.866	133.147	62	55
133.025	133.147	64	50
133.184	133.515	33	42
133.184	134.016	45	51
133.184	133.515	52	51
133.184	133.515	57	59
133.184	133.515	61	59
133.35	133.515	55	52
133.515	134.016	38	49
133.515	134.016	54	58
133.515	134.016	62	64
133.851	134.016	50	60
133.851	134.016	57	70
133.851	134.016	66	64
133.851	134.016	74	77
134.512	136.35	62	42
134.512	134.962	66	52
134.512	136.35	74	57
134.512	134.962	81	67
134.813	135.419	67	47
134.813	135.419	83	59
134.962	135.261	66	44
134.962	135.261	81	55
135.111	135.419	64	45
135.111	135.419	79	57
135.261	135.419	66	42
135.261	135.419	81	53
135.419	135.727	67	48
135.419	135.727	83	60
135.727	136.033	67	47
135.727	136.033	83	59
135.88	136.35	71	44
135.88	136.35	86	55
136.033	136.35	67	46
136.033	136.35	83	58
136.35	137.102	62	42
136.35	136.8	66	52
136.35	137.26	74	57
136.35	136.8	81	67
136.651	137.26	67	47
136.651	137.26	83	59
136.8	137.26	66	44
136.8	137.26	81	55
136.95	137.26	64	45
136.95	137.26	79	57
137.102	137.26	62	42
137.102	137.26	78	53
137.26	137.874	57	38
137.26	138.058	64	48
137.26	137.568	73	48
137.26	137.568	76	60
137.568	137.874	67	47
137.568	137.874	73	45
137.568	137.874	76	57
137.721	138.058	66	41
137.721	138.058	71	44
137.721	138.058	74	55
137.874	138.188	57	36
137.874	138.188	67	46
137.874	138.188	73	46
137.874	138.188	76	58
138.188	140.041	62	42
138.188	138.638	66	52
138.188	140.041	74	57
138.188	138.638	81	67
138.489	139.095	67	47
138.489	139.095	83	59
138.638	138.937	66	44
138.638	138.937	81	55
138.787	139.095	64	45
138.787	139.095	79	57
138.937	139.095	66	42
138.937	139.095	81	53
139.095	139.407	67	48
139.095	139.407	83	60
139.407	139.716	67	47
139.407	139.716	83	59
139.561	140.08	71	44
139.561	140.08	86	55
139.716	140.08	67	46
139.716	140.08	83	58
140.041	140.926	62	42
140.041	140.543	66	52
140.041	141.133	74	57
140.041	140.543	81	67
140.37	141.133	67	47
140.37	141.133	83	59
140.543	141.133	66	44
140.543	141.133	81	55
140.728	141.133	64	45
140.728	141.133	79	57
140.926	141.133	62	42
140.926	141.133	78	53
141.133	142.093	57	38
141.133	142.093	64	48
141.133	142.093	69	48
141.133	142.093	73	48
141.133	142.093	76	60
142.093	143.037	38	55
142.093	142.395	62	59
142.243	143.037	54	46
142.355	142.395	66	49
142.393	143.037	45	55
142.393	143.012	64	55
142.541	142.836	62	53
142.689	143.037	61	56
142.836	143.037	62	51
143.012	143.09	37	55
143.012	143.09	64	58
143.169	143.247	49	55
143.325	143.401	55	49
143.325	143.401	59	49
143.325	143.401	64	49
143.325	143.401	67	53
143.629	143.944	34	46
143.629	143.944	46	55
143.629	143.708	54	42
143.629	143.708	61	42
143.629	143.708	64	42
143.629	143.708	66	51
143.944	144.023	35	55
143.944	144.023	62	58
144.101	144.179	47	55
144.258	144.334	54	46
144.258	144.334	59	46
144.258	144.334	62	46
144.258	144.334	66	55
144.561	144.869	32	46
144.561	144.869	44	55
144.561	144.638	52	42
144.561	144.638	59	42
144.561	144.638	62	42
144.561	144.638	64	51
144.869	145.185	33	55
144.869	145.185	45	55
144.869	145.169	61	59
145.019	145.794	52	55
145.132	145.185	62	49
145.169	145.465	61	55
145.317	145.794	59	53
145.465	145.794	45	55
145.465	145.794	57	56
145.465	145.794	61	56
145.612	145.794	55	51
145.787	146.714	38	55
145.787	146.079	62	59
145.927	146.714	54	46
146.039	146.079	66	49
146.087	146.714	45	55
146.087	146.707	64	55
146.235	146.561	62	53
146.383	146.714	61	56
146.561	146.733	62	51
146.707	146.785	37	55
146.707	146.785	64	58
146.863	146.941	49	48
147.019	147.095	55	49
147.019	147.095	59	49
147.019	147.095	64	49
147.019	147.095	67	53
147.324	147.639	34	46
147.324	147.639	46	55
147.324	147.403	54	42
147.324	147.403	61	42
147.324	147.403	64	42
147.324	147.403	66	51
147.639	147.971	35	46
147.639	147.971	47	55
147.639	147.952	59	58
147.639	147.952	62	58
147.796	147.971	54	47
147.952	148.302	31	46
147.952	148.302	43	55
147.952	148.302	59	46
147.952	148.302	62	55
148.113	148.302	64	50
148.273	148.603	33	42
148.273	149.105	45	51
148.273	148.603	52	51
148.273	148.603	57	59
148.273	148.603	61	59
148.438	148.603	55	52
148.603	149.105	38	49
148.603	149.105	54	58
148.603	149.105	62	64
148.939	149.105	50	60
148.939	149.105	57	70
148.939	149.105	66	64
148.939	149.105	74	77
149.6	151.515	47	38
149.6	150.085	62	47
149.6	150.085	78	59
149.763	150.085	71	39
149.926	150.565	64	41
149.926	150.565	79	52
150.085	150.401	62	39
150.085	150.401	71	35
150.085	150.401	78	47
150.244	150.565	61	39
150.244	150.565	76	50
150.401	150.565	62	38
150.401	150.565	71	35
150.401	150.565	78	48
150.565	151.202	64	42
150.565	151.386	79	53
150.725	151.044	71	37
150.885	151.386	61	41
150.885	151.386	83	52
151.044	151.358	71	36
151.202	151.515	64	40
151.202	151.515	76	51
151.358	151.515	71	28
151.515	152.48	47	38
151.515	152.0	62	47
151.515	152.0	78	59
151.678	152.0	71	39
151.841	152.48	64	41
151.841	152.48	79	52
152.0	152.316	62	39
152.0	152.316	71	35
152.0	152.316	78	47
152.159	152.48	61	39
152.159	152.48	76	50
152.316	152.48	62	38
152.316	152.48	71	35
152.316	152.48	78	48
152.48	153.455	52	38
152.48	153.286	64	42
152.48	153.455	79	53
152.64	152.958	67	37
152.8	153.455	61	41
152.8	153.455	76	52
152.958	153.455	67	36
153.116	153.455	54	40
153.116	153.455	58	40
153.116	153.455	73	51
153.286	153.455	64	28
153.455	154.471	47	31
153.455	154.471	59	38
153.455	154.471	62	40
153.455	154.471	71	48
153.624	153.963	54	38
153.963	154.302	54	33
154.302	154.471	54	33
154.471	155.432	45	38
154.471	154.794	52	38
154.471	155.432	67	52
154.471	154.633	74	52
154.552	154.713	73	48
154.633	154.794	74	53
154.713	154.874	73	49
154.794	155.114	52	39
154.794	154.954	74	56
154.874	155.034	73	50
154.954	155.114	74	57
155.034	155.193	73	51
155.114	155.432	52	41
155.114	155.432	74	57
155.193	155.352	73	52
155.273	155.432	71	58
155.352	155.432	73	51
155.432	156.168	50	42
155.432	155.755	54	42
155.432	156.168	66	57
155.432	155.755	74	57
155.755	156.072	54	38
155.755	156.168	74	55
155.914	156.168	76	49
156.072	156.397	54	31
156.072	156.397	58	31
156.072	156.397	64	52
156.072	156.397	73	52
156.397	156.726	47	38
156.397	157.378	55	38
156.397	157.378	59	38
156.397	157.378	62	46
156.397	157.378	71	46
156.726	157.052	47	48
156.889	157.378	46	41
157.052	157.378	47	38
157.378	158.339	45	38
157.378	157.54	52	38
157.378	158.339	67	52
157.378	157.54	74	52
157.459	157.62	73	48
157.54	157.861	52	45
157.54	157.701	74	53
157.62	157.781	73	49
157.701	157.861	74	56
157.781	157.941	73	50
157.861	158.18	52	38
157.861	158.021	74	57
157.941	158.1	73	51
158.021	158.339	74	57
158.1	158.26	73	52
158.18	158.339	52	38
158.18	158.339	71	58
158.26	158.339	73	51
158.339	159.087	50	42
158.339	158.666	54	42
158.339	158.666	74	57
158.502	158.827	66	57
158.666	158.988	54	38
158.666	159.087	74	55
158.827	159.156	66	57
158.827	159.087	76	49
158.988	159.324	54	31
158.988	159.324	58	31
158.988	159.324	73	52
159.156	159.324	64	45
159.324	160.345	47	38
159.324	161.398	71	46
159.494	159.832	54	28
159.663	160.002	62	29
159.663	160.002	66	29
159.832	160.173	54	26
160.002	160.345	62	27
160.002	160.345	66	27
160.173	160.517	54	25
160.345	161.398	47	23
160.345	160.691	62	26
160.345	160.691	66	26
160.517	160.865	54	23
160.691	161.04	62	25
160.691	161.04	66	25
160.865	161.216	54	20
161.04	161.398	62	23
161.04	161.398	66	23
161.216	161.398	54	19
161.398	163.312	47	38
161.398	161.882	62	47
161.398	161.882	78	59
161.56	161.882	71	39
161.723	162.362	64	41
161.723	162.362	79	52
161.882	162.199	62	39
161.882	162.199	71	35
161.882	162.199	78	47
162.042	162.362	61	39
162.042	162.362	76	50
162.199	162.362	62	38
162.199	162.362	71	35
162.199	162.362	78	48
162.362	162.999	64	42
162.362	163.183	79	53
162.522	162.841	71	37
162.682	163.183	61	41
162.682	163.183	83	52
162.841	163.156	71	36
162.999	163.312	64	40
162.999	163.312	76	51
163.156	163.312	71	28
163.312	164.277	47	38
163.312	163.797	62	47
163.312	163.797	78	59
163.475	163.797	71	39
163.638	164.277	64	41
163.638	164.277	79	52
163.797	164.113	62	39
163.797	164.113	71	35
163.797	164.113	78	47
163.956	164.277	61	39
163.956	164.277	76	50
164.113	164.277	62	38
164.113	164.277	71	35
164.113	164.277	78	48
164.277	165.252	52	38
164.277	165.083	64	42
164.277	165.252	79	53
164.437	164.755	67	37
164.597	165.252	61	41
164.597	165.252	76	52
164.755	165.252	67	36
164.914	165.252	54	40
164.914	165.252	58	40
164.914	165.252	73	51
165.083	165.252	64	28
165.252	166.268	47	31
165.252	166.268	59	38
165.252	166.268	62	40
165.252	166.268	71	48
165.422	165.76	54	38
165.76	166.099	54	33
166.099	166.268	54	33
166.268	167.229	45	38
166.268	166.591	52	38
166.268	167.229	67	52
166.268	166.43	74	52
166.349	166.51	73	48
166.43	166.591	74	53
166.51	166.671	73	49
166.591	166.911	52	39
166.591	166.751	74	56
166.671	166.831	73	50
166.751	166.911	74	57
166.831	166.99	73	51
166.911	167.229	52	41
166.911	167.229	74	57
166.99	167.15	73	52
167.07	167.229	71	58
167.15	167.229	73	51
167.229	167.965	50	42
167.229	167.552	54	42
167.229	167.965	66	57
167.229	167.552	74	57
167.552	167.87	54	38
167.552	167.965	74	55
167.711	167.965	76	49
167.87	168.194	54	31
167.87	168.194	58	31
167.87	168.194	64	52
167.87	168.194	73	52
168.194	168.513	47	38
168.194	169.159	55	38
168.194	169.159	59	38
168.194	169.159	62	46
168.194	169.159	71	46
168.513	168.836	47	47
168.674	169.159	46	41
168.836	169.159	47	38
169.159	170.121	45	38
169.159	169.321	52	38
169.159	170.121	67	52
169.159	169.321	74	52
169.24	169.402	73	48
169.321	169.643	52	47
169.321	169.482	74	53
169.402	169.563	73	49
169.482	169.643	74	56
169.563	169.723	73	50
169.643	169.962	52	38
169.643	169.802	74	57
169.723	169.882	73	51
169.802	170.121	74	57
169.882	170.041	73	52
169.962	170.121	52	38
169.962	170.121	71	58
170.041	170.121	73	51
170.121	170.869	50	42
170.121	170.447	54	42
170.121	170.447	74	57
170.284	170.609	66	57
170.447	170.77	54	38
170.447	170.869	74	55
170.609	170.938	66	57
170.609	170.869	76	49
170.77	171.106	54	31
170.77	171.106	58	31
170.77	171.106	73	52
170.938	171.106	64	45
171.106	172.126	47	38
171.106	173.045	71	46
171.276	171.614	54	28
171.445	171.783	62	29
171.445	171.783	66	29
171.614	171.954	54	26
171.783	172.126	62	27
171.783	172.126	66	27
171.954	172.299	54	25
172.126	173.198	47	23
172.126	172.472	62	26
172.126	172.472	66	26
172.299	172.647	54	23
172.472	172.822	62	25
172.472	172.822	66	25
172.647	172.998	54	20
172.822	173.198	62	23
172.822	173.198	66	23
172.998	173.198	54	19
173.198	174.112	38	61
173.198	174.112	45	73
173.198	173.585	74	82
173.198	173.585	86	98
173.505	174.112	50	69
173.505	174.112	54	69
173.505	174.112	57	81
173.505	173.656	76	78
173.505	173.656	88	93
173.656	173.96	74	75
173.656	173.96	86	89
173.808	174.112	73	74
173.808	174.112	85	88
173.96	174.112	74	74
173.96	174.112	86	87
174.112	175.055	38	61
174.112	175.055	45	73
174.112	174.567	76	81
174.112	174.567	88	97
174.428	175.055	49	67
174.428	175.055	55	67
174.428	175.055	57	80
174.428	175.055	79	75
174.428	175.055	91	89
174.74	175.055	78	74
174.74	175.055	90	87
175.055	175.967	38	61
175.055	175.967	45	73
175.055	175.451	74	82
175.055	175.451	86	98
175.362	175.967	50	66
175.362	175.967	54	66
175.362	175.967	57	78
175.362	175.967	76	75
175.362	175.967	88	89
175.513	175.815	74	74
175.513	175.815	86	87
175.664	175.967	73	72
175.664	175.967	85	86
175.815	175.967	74	72
175.815	175.967	86	85
175.967	176.909	38	61
175.967	176.909	45	73
175.967	176.457	76	81
175.967	176.457	88	96
176.284	176.909	49	65
176.284	176.909	55	65
176.284	176.909	57	77
176.284	176.909	79	74
176.284	176.909	91	88
176.595	176.909	78	74
176.595	176.909	90	87
176.909	177.815	38	61
176.909	177.815	45	73
176.909	177.302	74	81
176.909	177.302	86	96
177.215	177.815	50	77
177.215	177.815	54	77
177.215	177.815	57	77
177.215	177.366	76	74
177.215	177.366	88	87
177.366	177.815	78	74
177.366	177.815	90	88
177.518	177.815	81	77
177.518	177.815	93	92
177.666	177.815	84	78
177.666	177.815	96	93
177.815	178.737	38	61
177.815	178.737	45	73
177.815	178.737	88	80
177.815	178.737	100	94
178.121	178.737	55	69
178.121	178.426	60	69
178.121	178.737	64	81
178.121	178.737	91	78
178.121	178.737	103	93
178.426	178.737	54	61
178.426	178.737	60	61
178.426	178.737	62	73
178.426	178.737	90	78
178.426	178.737	102	93
178.737	179.652	38	61
178.737	179.652	45	73
178.737	179.122	90	60
178.737	179.122	102	94
179.042	179.652	55	67
179.042	179.652	59	67
179.042	179.652	62	80
179.042	179.652	91	57
179.042	179.652	103	86
179.194	179.652	90	57
179.194	179.652	102	86
179.346	179.652	88	55
179.346	179.652	100	85
179.499	179.652	86	55
179.499	179.652	98	85
179.652	180.571	38	61
179.652	180.571	45	73
179.652	179.961	85	77
179.652	179.961	97	92
179.923	180.008	98	76
179.961	180.571	55	70
179.961	180.571	57	70
179.961	180.571	64	82
179.961	180.418	85	74
179.961	180.418	97	87
180.113	180.571	81	66
180.113	180.571	93	80
180.264	180.571	83	73
180.264	180.571	95	86
180.418	180.571	85	69
180.418	180.571	97	82
180.571	180.851	38	61
180.571	180.851	45	61
180.571	180.851	54	73
180.571	180.851	86	74
180.571	180.851	98	88
180.851	180.888	64	64
180.888	181.183	38	38
180.888	181.183	50	53
180.888	181.183	62	69
181.035	181.293	37	36
181.035	181.293	49	51
181.035	181.293	61	66
181.183	181.293	38	38
181.183	181.293	50	54
181.183	181.293	62	70
181.487	182.092	38	46
181.487	182.092	50	51
181.487	182.092	62	65
181.793	182.214	45	38
181.793	182.214	57	53
181.793	182.214	69	69
181.943	182.214	42	36
181.943	182.214	54	51
181.943	182.214	66	66
182.092	182.214	38	38
182.092	182.214	50	54
182.092	182.214	62	70
182.397	182.694	38	38
182.397	182.694	50	53
182.397	182.694	62	69
182.545	182.778	37	36
182.545	182.778	49	51
182.545	182.778	61	66
182.694	182.778	38	38
182.694	182.778	50	54
182.694	182.778	62	70
182.996	183.292	38	38
182.996	183.292	50	53
182.996	183.292	62	69
183.144	183.355	37	36
183.144	183.355	49	51
183.144	183.355	61	66
183.292	183.369	38	38
183.292	183.369	50	54
183.292	183.369	62	70
183.598	184.055	45	39
183.598	184.055	57	55
183.598	184.055	69	72
183.747	184.055	42	37
183.747	184.055	54	53
183.747	184.055	66	69
183.896	184.055	38	39
183.896	184.055	50	57
183.896	184.055	62	73
184.196	184.631	45	42
184.196	184.631	57	58
184.196	184.631	69	75
184.345	184.631	42	39
184.345	184.631	54	55
184.345	184.631	66	72
184.495	184.631	38	42
184.495	184.631	50	59
184.495	184.631	62	76
184.795	186.026	45	44
184.795	185.246	57	61
184.795	185.246	69	78
184.944	186.026	42	40
184.944	185.396	54	58
184.944	185.396	66	75
185.093	185.546	50	65
185.093	185.546	62	71
185.246	185.696	57	63
185.246	185.696	69	66
185.396	185.846	54	67
185.396	185.846	66	72
185.546	185.999	50	61
185.546	185.999	62	69
185.696	186.026	57	65
185.696	186.026	69	72
185.846	186.026	54	61
185.846	186.026	66	70
185.999	186.075	38	54
185.999	186.075	50	65
185.999	186.075	62	71
185.999	186.075	74	84
186.151	186.599	45	50
186.151	186.599	57	60
186.151	186.599	69	64
186.151	186.599	81	76
186.3	186.75	42	58
186.3	186.75	54	69
186.3	186.75	66	73
186.3	186.75	78	88
186.45	186.903	38	53
186.45	186.903	50	64
186.45	186.903	62	72
186.45	186.903	74	85
186.599	186.903	45	54
186.599	186.903	57	66
186.599	186.903	69	72
186.599	186.903	81	87
186.75	186.903	42	54
186.75	186.903	54	66
186.75	186.903	66	74
186.75	186.903	78	88
186.903	187.209	38	60
186.903	187.209	50	72
186.903	187.209	62	81
186.903	187.209	66	81
186.903	187.209	74	96
187.209	187.515	38	60
187.209	187.515	50	72
187.209	187.515	62	81
187.209	187.515	66	81
187.209	187.515	74	96
187.821	188.127	50	70
187.821	188.127	57	70
187.821	188.127	62	82
187.821	188.127	74	93
187.821	188.127	78	93
187.821	188.127	86	110
188.127	188.433	50	70
188.127	188.433	57	70
188.127	188.433	62	82
188.127	188.433	74	93
188.127	188.433	78	93
188.127	188.433	86	110
188.739	189.079	50	70
188.739	189.079	57	70
188.739	189.079	62	82
188.739	189.079	86	101
188.739	189.079	90	101
188.739	189.079	98	120
