OnsetTime	OffsetTime	MidiPitch	Velocity
0.500755	0.619376	69	50
0.619376	0.738734	71	46
0.738734	0.858093	72	46
0.858093	0.977451	71	50
0.977451	1.09681	72	46
1.09681	1.21923	74	46
1.21923	1.5773	64	50
1.21923	1.5773	76	65
1.33858	1.5773	66	44
1.45794	1.5773	68	44
1.5773	1.69666	66	52
1.5773	1.69666	69	50
1.69666	1.81602	68	45
1.69666	1.81602	71	45
1.81602	1.93538	69	45
1.81602	1.93538	72	45
1.93538	2.29742	71	70
2.05473	2.17409	72	44
2.17409	2.29742	74	44
2.29742	2.65947	64	50
2.29742	2.65947	76	65
2.41678	2.65947	66	46
2.53614	2.65947	68	46
2.65947	2.77882	66	50
2.65947	2.77882	69	50
2.77882	2.89818	68	45
2.77882	2.89818	71	45
2.89818	3.02016	69	45
2.89818	3.02016	72	45
3.02016	3.38085	71	66
3.13951	3.25887	72	45
3.25887	3.38085	74	45
3.38085	3.5002	69	50
3.38085	3.5002	72	50
3.5002	3.61956	71	50
3.5002	3.61956	74	48
3.61956	3.73892	72	51
3.61956	3.73892	76	50
3.73892	3.85839	74	52
3.73892	3.85839	77	50
3.85839	3.9785	76	53
3.85839	3.9785	79	54
3.9785	4.09937	77	56
3.9785	4.09937	81	58
4.09937	4.21916	76	60
4.09937	4.21916	79	61
4.21916	4.33895	74	55
4.21916	4.33895	77	56
4.33895	4.45873	72	51
4.33895	4.45873	76	53
4.45873	4.57852	71	55
4.45873	4.57852	74	55
4.57852	4.69831	69	52
4.57852	4.69831	72	52
4.69831	4.8261	67	50
4.69831	4.8261	71	48
4.8261	4.96629	65	59
4.8261	4.95072	69	56
4.95072	5.07532	71	50
5.07532	5.19993	72	50
5.19993	5.33839	60	56
5.19993	5.32301	71	53
5.32301	5.44608	69	48
5.44608	5.56915	67	48
5.56915	5.94222	57	50
5.56915	5.94222	65	53
5.69299	5.94222	64	47
5.81683	5.94222	63	47
5.94222	6.064	56	53
5.94222	6.30533	64	57
6.064	6.18503	54	48
6.18503	6.30533	52	48
6.30533	6.42545	51	52
6.42545	6.54685	49	47
6.54685	6.67018	47	48
6.67018	7.02946	57	64
6.67018	6.78994	59	50
6.78994	6.9097	61	45
6.9097	7.02946	63	45
7.02946	7.15067	56	54
7.02946	7.15067	64	54
7.15067	7.27188	54	49
7.15067	7.27188	66	49
7.27188	7.3952	52	49
7.27188	7.3952	68	49
7.3952	7.76543	51	53
7.3952	7.76543	69	59
7.51456	7.76543	49	47
7.63392	7.76543	47	47
7.75725	8.1144	57	64
7.75725	7.8763	59	50
7.8763	7.99535	61	45
7.99535	8.1144	63	45
8.1144	8.23488	56	54
8.1144	8.23488	64	54
8.23488	8.35537	54	47
8.23488	8.35537	66	48
8.35537	8.47915	52	47
8.35537	8.47915	68	48
8.47915	8.83229	51	52
8.47915	8.84074	69	58
8.59851	8.83229	49	44
8.71787	8.84074	47	44
8.84074	9.19882	57	64
8.84074	8.9601	59	50
8.9601	9.07946	61	46
9.07946	9.19882	63	46
9.19882	9.57057	56	50
9.19882	9.57057	64	54
9.3193	9.56311	54	43
9.3193	9.56311	66	47
9.43979	9.57057	52	43
9.43979	9.57057	68	47
9.56311	9.93245	54	52
9.56311	9.93245	66	60
9.68247	9.92425	52	44
9.68247	9.92425	68	53
9.80183	9.93245	51	44
9.80183	9.93245	69	53
9.92425	10.2854	52	52
9.92425	10.2928	68	64
10.0436	10.2928	51	47
10.0436	10.2854	69	58
10.163	10.2928	50	47
10.163	10.2928	71	60
10.2854	10.6542	52	56
10.2854	10.6542	69	68
10.4043	10.643	50	52
10.4043	10.643	71	60
10.5235	10.6542	48	53
10.5235	10.6542	72	63
10.643	11.0141	50	58
10.643	11.0141	71	73
10.7627	11.0035	48	55
10.7627	11.0035	72	63
10.883	11.0141	47	55
10.883	11.0141	74	68
11.0035	11.3725	48	65
11.0035	11.3725	72	79
11.1244	11.3725	47	59
11.1244	11.3725	74	68
11.2456	11.3725	45	59
11.2456	11.3725	76	74
11.3671	11.7372	44	77
11.3671	11.7372	77	90
11.4891	11.7448	45	67
11.4891	11.7448	76	77
11.6111	11.7448	47	67
11.6111	11.7448	74	79
11.7372	12.104	38	75
11.7372	12.104	44	75
11.7372	12.104	77	88
11.7372	12.104	83	88
11.8592	12.1155	45	66
11.8592	12.1155	76	79
11.9811	12.1155	47	66
11.9811	12.1155	74	79
12.104	12.4713	38	76
12.104	12.4713	44	76
12.104	12.4713	77	92
12.104	12.4713	83	92
12.226	12.4797	45	69
12.226	12.4797	76	80
12.348	12.4797	47	69
12.348	12.4797	74	80
12.4713	12.8429	38	78
12.4713	12.8429	44	78
12.4713	12.8429	77	93
12.4713	12.8429	83	93
12.594	12.8522	45	72
12.594	12.8522	76	84
12.7167	12.8522	47	74
12.7167	12.8522	74	86
12.8429	13.2164	38	81
12.8429	13.2164	44	81
12.8429	13.2164	77	97
12.8429	13.2164	83	97
12.9664	13.2249	45	74
12.9664	13.2249	76	86
13.0898	13.2249	47	76
13.0898	13.2249	74	87
13.2164	13.6039	38	84
13.2164	13.5948	44	84
13.2164	13.5948	77	100
13.2164	13.5948	83	100
13.3402	13.6039	45	76
13.3402	13.6039	76	88
13.4641	13.6039	47	78
13.4641	13.6039	74	91
13.5948	13.9495	32	84
13.5948	13.9495	44	99
13.5948	13.9495	77	106
13.5948	13.9495	83	106
13.716	13.9495	76	61
13.8372	13.9603	74	52
13.9603	14.0826	77	60
14.0826	14.2049	76	51
14.2049	14.3284	74	46
14.3284	14.4526	77	57
14.4526	14.5769	76	49
14.5769	14.7047	74	43
14.7047	14.8297	77	56
14.8297	14.9547	76	47
14.9547	15.0809	74	44
15.0809	15.2059	76	56
15.2059	15.3309	74	46
15.3309	15.4579	72	46
15.4579	15.5833	74	55
15.5833	15.7087	72	45
15.7087	15.8353	71	45
15.8353	15.9586	69	50
15.9586	16.0812	71	46
16.0812	16.2031	72	46
16.2031	16.3244	71	50
16.3244	16.445	72	46
16.445	16.5674	74	46
16.5674	16.9299	64	50
16.5674	16.9299	76	65
16.6867	16.9255	66	44
16.8061	16.9299	68	44
16.9255	17.0448	66	52
16.9255	17.0448	69	50
17.0448	17.1642	68	45
17.0448	17.1642	71	45
17.1642	17.2835	69	45
17.1642	17.2835	72	45
17.2835	17.6456	71	70
17.4029	17.5223	72	44
17.5223	17.6456	74	44
17.6456	18.0114	64	50
17.6456	18.0114	76	65
17.7649	18.0076	66	46
17.8843	18.0114	68	46
18.0076	18.127	66	50
18.0076	18.127	69	50
18.127	18.2463	68	45
18.127	18.2463	71	45
18.2463	18.3683	69	45
18.2463	18.3683	72	45
18.3683	18.729	71	66
18.4877	18.607	72	45
18.607	18.729	74	45
18.729	18.8484	69	50
18.729	18.8484	72	50
18.8484	18.9677	71	50
18.8484	18.9677	74	48
18.9677	19.0871	72	51
18.9677	19.0871	76	50
19.0871	19.2065	74	52
19.0871	19.2065	77	50
19.2065	19.3267	76	53
19.2065	19.3267	79	54
19.3267	19.4475	77	56
19.3267	19.4475	81	58
19.4475	19.5673	76	60
19.4475	19.5673	79	61
19.5673	19.6871	74	55
19.5673	19.6871	77	56
19.6871	19.8069	72	51
19.6871	19.8069	76	53
19.8069	19.9267	71	55
19.8069	19.9267	74	55
19.9267	20.0465	69	52
19.9267	20.0465	72	52
20.0465	20.1743	67	50
20.0465	20.1743	71	48
20.1743	20.3136	65	59
20.1743	20.2981	69	56
20.2981	20.4219	71	50
20.4219	20.5458	72	50
20.5458	20.6842	60	56
20.5458	20.6688	71	53
20.6688	20.7919	69	48
20.7919	20.915	67	48
20.915	21.2926	57	50
20.915	21.2926	65	53
21.0388	21.2881	64	47
21.1627	21.2926	63	47
21.2881	21.4093	55	54
21.2881	21.4093	64	54
21.4093	21.5305	54	49
21.4093	21.5305	66	49
21.5305	21.6538	52	49
21.5305	21.6538	67	49
21.6538	22.0218	51	53
21.6538	22.0218	69	59
21.7732	22.0218	49	47
21.8925	22.0218	47	47
22.0159	22.373	57	64
22.0159	22.1349	59	50
22.1349	22.254	61	45
22.254	22.373	63	45
22.373	22.4935	55	54
22.373	22.4935	64	54
22.4935	22.614	54	47
22.4935	22.614	66	48
22.614	22.7378	52	47
22.614	22.7378	67	48
22.7378	23.1053	51	52
22.7378	23.1053	69	58
22.8571	23.1053	49	44
22.9765	23.1053	47	44
23.0993	23.4574	57	64
23.0993	23.2187	59	50
23.2187	23.3381	61	46
23.3381	23.4574	63	46
23.4574	23.8307	55	50
23.4574	23.8307	64	54
23.5779	23.8307	54	43
23.5779	23.8217	66	47
23.6984	23.8307	52	43
23.6984	23.8307	67	47
23.8217	24.1925	51	52
23.8217	24.1925	66	60
23.9411	24.1829	52	44
23.9411	24.1829	67	53
24.0604	24.1925	54	44
24.0604	24.1925	69	53
24.1829	24.5522	52	52
24.1829	24.5522	67	64
24.3022	24.544	54	47
24.3022	24.544	69	58
24.4216	24.5522	55	47
24.4216	24.5522	71	60
24.544	24.9098	54	56
24.544	24.9098	69	68
24.6629	24.9098	55	52
24.6629	24.9016	71	60
24.7821	24.9098	57	53
24.7821	24.9098	72	63
24.9016	25.2742	56	58
24.9016	25.2742	71	73
25.0213	25.2621	57	55
25.0213	25.2621	72	63
25.1416	25.2742	59	55
25.1416	25.2742	74	68
25.2621	25.6449	57	65
25.2621	25.6449	72	79
25.3835	25.6449	59	59
25.3835	25.6449	74	68
25.5068	25.6449	60	59
25.5068	25.6449	76	74
25.6367	26.93	62	91
25.6367	26.93	65	96
25.7557	26.93	58	77
25.7557	26.93	70	78
25.8751	26.93	53	77
25.8751	26.93	74	74
25.995	26.93	50	86
25.995	26.93	77	87
26.1152	26.93	46	76
26.1152	26.93	82	76
26.2359	26.93	41	76
26.2359	26.93	86	76
26.3569	26.93	38	83
26.3569	26.93	89	88
26.479	26.93	34	75
26.479	26.93	94	76
26.6046	26.93	29	75
26.6046	26.93	98	76
26.7339	26.93	26	91
26.7339	26.93	101	97
27.1379	27.3509	40	65
27.1379	27.3509	45	65
27.1379	27.3509	48	65
27.1379	27.3509	52	77
27.1379	27.3509	64	79
27.1379	27.3509	69	79
27.1379	27.3509	72	79
27.1379	27.3509	76	93
27.5517	27.8066	40	61
27.5517	27.8066	44	61
27.5517	27.8066	47	61
27.5517	27.8066	52	72
27.5517	27.8066	64	74
27.5517	27.8066	68	74
27.5517	27.8066	71	74
27.5517	27.8066	76	88
27.9753	28.0965	60	62
27.9753	28.0965	69	67
28.0965	28.2177	59	56
28.0965	28.2177	71	56
28.2177	28.3411	57	56
28.2177	28.3411	72	56
28.3411	28.715	56	61
28.3411	28.715	74	65
28.4604	28.715	54	55
28.5798	28.715	52	54
28.7031	29.0603	62	67
28.7031	28.8222	64	66
28.8222	28.9412	66	54
28.9412	29.0603	68	53
29.0603	29.1807	60	61
29.0603	29.1807	69	64
29.1807	29.3012	59	55
29.1807	29.3012	71	55
29.3012	29.425	57	55
29.3012	29.425	72	55
29.425	29.8015	56	60
29.425	29.8015	74	65
29.5444	29.8015	54	54
29.6637	29.8015	52	54
29.7866	30.1447	62	68
29.7866	29.906	64	64
29.906	30.0253	66	58
30.0253	30.1447	68	58
30.1447	30.5105	60	64
30.1447	30.5105	69	68
30.2636	30.5105	59	57
30.2636	30.5023	71	60
30.3828	30.5105	57	57
30.3828	30.5105	72	63
30.5023	30.8756	56	67
30.5023	30.8756	71	73
30.622	30.8628	57	56
30.622	30.8628	72	63
30.7423	30.8756	59	56
30.7423	30.8756	74	68
30.8628	31.2508	57	72
30.8628	31.2508	72	79
30.9842	31.2508	59	64
30.9842	31.2508	74	68
31.1075	31.2508	60	64
31.1075	31.2508	76	74
31.2374	32.5334	62	91
31.2374	32.5334	65	96
31.3565	32.5334	58	76
31.3565	32.5334	70	78
31.4759	32.5334	53	76
31.4759	32.5334	74	75
31.5957	32.5334	50	85
31.5957	32.5334	77	93
31.7159	32.5334	46	74
31.7159	32.5334	82	77
31.8366	32.5334	41	75
31.8366	32.5334	86	77
31.9576	32.5334	38	85
31.9576	32.5334	89	92
32.0797	32.5334	34	75
32.0797	32.5334	94	78
32.2053	32.5334	29	76
32.2053	32.5334	98	78
32.3346	32.5334	26	93
32.3346	32.5334	101	97
32.7442	32.957	40	68
32.7442	32.957	45	68
32.7442	32.957	48	68
32.7442	32.957	52	80
32.7442	32.957	64	79
32.7442	32.957	69	79
32.7442	32.957	72	79
32.7442	32.957	76	93
33.1697	33.4005	40	63
33.1697	33.4005	44	63
33.1697	33.4005	47	63
33.1697	33.4005	52	75
33.1697	33.4005	64	74
33.1697	33.4005	68	74
33.1697	33.4005	71	74
33.1697	33.4005	76	88
33.6313	34.7383	33	73
33.6313	34.7383	36	73
33.6313	34.7383	40	73
33.6313	34.7383	45	86
33.6313	34.7383	69	88
33.6313	34.7383	72	88
33.6313	34.7383	76	88
33.6313	34.7383	81	104
34.7383	34.7919	45	76
34.7919	34.8454	47	77
34.8454	34.899	48	77
34.899	34.9526	50	78
34.9526	35.0491	40	72
34.9526	35.0491	52	85
34.9526	35.0491	68	74
34.9526	35.0491	76	88
35.1455	35.2449	41	58
35.1455	35.2449	53	69
35.1455	35.2449	69	58
35.1455	35.2449	75	69
35.3442	35.441	40	65
35.3442	35.441	52	77
35.3442	35.441	68	68
35.3442	35.441	76	81
35.5378	35.6371	41	58
35.5378	35.6371	53	69
35.5378	35.6371	69	58
35.5378	35.6371	75	69
35.7364	35.8523	40	65
35.7364	35.8523	52	77
35.7364	35.8523	68	74
35.7364	35.8523	76	88
36.1997	37.3068	29	73
36.1997	37.3068	33	73
36.1997	37.3068	36	73
36.1997	37.3068	41	87
36.1997	37.3068	65	88
36.1997	37.3068	69	88
36.1997	37.3068	72	88
36.1997	37.3068	77	104
37.3068	37.3603	41	69
37.3603	37.4139	43	69
37.4139	37.4675	45	69
37.4675	37.5211	47	70
37.5211	37.6175	36	59
37.5211	37.6175	48	70
37.5211	37.6175	64	74
37.5211	37.6175	72	88
37.714	37.8133	38	52
37.714	37.8133	50	62
37.714	37.8133	65	61
37.714	37.8133	71	72
37.9127	38.0102	36	60
37.9127	38.0102	48	71
37.9127	38.0102	64	67
37.9127	38.0102	72	79
38.107	38.206	38	54
38.107	38.206	50	64
38.107	38.206	65	61
38.107	38.206	71	72
38.305	38.4208	36	65
38.305	38.4208	48	77
38.305	38.4208	64	74
38.305	38.4208	72	88
38.7683	39.6539	32	73
38.7683	39.6539	44	86
38.7683	39.6539	62	83
38.7683	39.6539	65	83
38.7683	39.6539	71	83
38.7683	39.6539	74	98
39.6539	39.9538	33	68
39.6539	39.9538	45	80
39.6539	39.9538	60	76
39.6539	39.9538	64	76
39.6539	39.9538	69	76
39.6539	39.9538	72	90
40.0967	40.3133	34	65
40.0967	40.3133	46	77
40.0967	40.3133	58	76
40.0967	40.3133	62	76
40.0967	40.3133	65	76
40.0967	40.3133	70	90
40.5299	40.742	35	70
40.5299	40.742	47	83
40.5299	40.742	65	80
40.5299	40.742	68	80
40.5299	40.742	74	80
40.5299	40.742	77	95
40.954	41.1714	36	67
40.954	41.1714	48	79
40.954	41.1714	64	77
40.954	41.1714	69	77
40.954	41.1714	72	77
40.954	41.1714	76	91
41.3888	41.6212	38	71
41.3888	41.6212	50	84
41.3888	41.6212	65	79
41.3888	41.6212	71	79
41.3888	41.6212	74	94
41.8332	42.0927	40	66
41.8332	42.0927	52	78
41.8332	42.0927	64	76
41.8332	42.0927	69	76
41.8332	42.0927	72	90
42.2877	42.5329	40	63
42.2877	42.5329	52	75
42.2877	42.5329	64	74
42.2877	42.5329	68	74
42.2877	42.5329	71	88
42.7565	43.9352	45	69
42.7565	43.9352	48	69
42.7565	43.9303	52	69
42.7565	43.9352	57	82
42.7565	43.9352	69	87
42.9507	43.9352	71	83
43.0478	43.9352	72	75
43.1448	43.9352	74	76
43.2417	43.9303	76	78
43.3387	43.9352	78	80
43.4362	43.9352	80	82
43.5341	43.9352	81	83
43.6325	43.9352	83	85
43.7313	43.9352	84	87
43.8305	43.9352	86	88
43.9303	44.0277	52	65
43.9303	44.0277	56	77
43.9303	44.0277	76	84
43.9303	44.0277	88	99
44.1251	44.2251	53	56
44.1251	44.2251	57	67
44.1251	44.2251	75	73
44.1251	44.2251	87	86
44.3251	44.4225	52	61
44.3251	44.4225	56	72
44.3251	44.4225	76	79
44.3251	44.4225	88	93
44.5199	44.6203	53	55
44.5199	44.6203	57	65
44.5199	44.6203	75	73
44.5199	44.6203	87	86
44.7206	44.8364	52	65
44.7206	44.8364	56	77
44.7206	44.8364	76	85
44.7206	44.8364	88	101
45.1839	46.3667	41	72
45.1839	46.3667	45	72
45.1839	46.3577	48	72
45.1839	46.3667	53	85
45.1839	46.3667	65	89
45.3781	46.3667	67	83
45.4752	46.3667	69	75
45.5723	46.3667	70	76
45.6691	46.3577	72	78
45.7661	46.3667	74	80
45.8636	46.3667	76	82
45.9616	46.3667	77	83
46.0599	46.3667	79	85
46.1587	46.3667	81	87
46.258	46.3667	82	88
46.3577	46.4551	48	60
46.3577	46.4551	52	71
46.3577	46.4551	72	79
46.3577	46.4551	84	94
46.5525	46.6529	50	54
46.5525	46.6529	53	64
46.5525	46.6529	71	69
46.5525	46.6529	83	82
46.7532	46.8506	48	59
46.7532	46.8506	52	70
46.7532	46.8506	72	76
46.7532	46.8506	84	90
46.948	47.0483	50	52
46.948	47.0483	53	62
46.948	47.0483	71	68
46.948	47.0483	83	81
47.1487	47.2645	48	62
47.1487	47.2645	52	74
47.1487	47.2645	72	80
47.1487	47.2645	84	95
47.612	48.5169	44	57
47.612	48.5169	47	57
47.612	48.5169	50	57
47.612	48.5169	53	57
47.612	48.5169	56	68
47.612	48.5169	71	85
47.7227	48.5169	72	80
47.8334	48.5169	74	80
47.9441	48.5169	76	78
48.0548	48.5169	77	90
48.1655	48.5169	83	83
48.2762	48.5169	86	82
48.3869	48.5169	89	78
48.4975	48.719	45	55
48.4975	48.719	48	55
48.4975	48.719	52	55
48.4975	48.719	57	65
48.4975	48.6083	88	92
48.9506	49.4094	46	51
48.9506	49.4001	50	51
48.9506	49.4001	53	51
48.9506	49.4094	58	60
48.9506	49.4094	70	86
49.063	49.4001	74	78
49.1753	49.4094	77	78
49.2877	49.4094	82	78
49.4001	49.856	47	49
49.4001	49.856	50	49
49.4001	49.856	53	49
49.4001	49.856	56	49
49.4001	49.856	59	58
49.4001	49.856	74	86
49.5124	49.856	77	78
49.6248	49.856	80	78
49.7371	49.856	86	78
49.8495	50.3201	48	48
49.8495	50.3201	52	48
49.8495	50.3201	57	48
49.8495	50.3201	60	57
49.8495	50.3201	72	86
49.9618	50.3201	76	76
50.0742	50.3201	81	76
50.1905	50.3201	84	76
50.3068	50.7768	50	49
50.3068	50.7768	53	49
50.3068	50.7768	59	49
50.3068	50.7768	62	58
50.3068	50.7768	71	80
50.4208	50.7768	74	73
50.5349	50.7768	77	73
50.649	50.7768	83	72
50.7631	51.2336	52	47
50.7631	51.2438	57	47
50.7631	51.2438	60	47
50.7631	51.2336	64	56
50.7631	51.2438	69	78
50.8807	51.2438	72	70
50.9983	51.2438	76	70
51.116	51.2438	81	70
51.2336	51.7263	52	45
51.2336	51.7263	56	45
51.2336	51.7263	59	45
51.2336	51.7263	64	54
51.2336	51.7263	68	77
51.3556	51.7263	71	69
51.4775	51.7263	76	69
51.5995	51.7263	80	69
51.7214	53.3037	45	77
51.7214	52.4991	57	87
51.9156	53.3037	47	73
51.9156	52.5974	59	82
52.0127	53.3037	48	67
52.0127	52.6962	60	78
52.1098	53.3037	50	67
52.1098	52.7955	62	77
52.2066	53.3037	52	66
52.2066	52.8948	64	77
52.3036	53.3037	54	65
52.3036	53.3037	66	77
52.4011	53.3037	56	64
52.4011	53.3037	68	76
52.4991	53.3037	57	63
52.4991	53.1952	69	76
52.5974	53.3037	59	63
52.5974	53.3037	71	76
52.6962	53.3037	60	62
52.6962	53.3037	72	75
52.7955	53.3037	62	62
52.7955	53.3037	74	75
52.8948	53.3037	64	61
52.8948	53.3037	76	74
52.9946	53.3037	65	61
52.9946	53.3037	77	74
53.0947	53.3037	67	60
53.0947	53.3037	79	73
53.1952	53.3037	69	60
53.1952	53.3037	81	73
53.2961	59.5479	70	60
53.2961	59.5479	82	71
54.5124	59.5479	67	60
54.5124	59.5479	79	71
55.7286	59.5479	64	55
55.7286	59.5479	76	67
56.9616	59.5479	61	48
56.9616	59.5479	73	55
58.2489	59.5479	60	46
58.2489	59.5479	72	50
59.5479	60.8315	41	36
59.5479	62.0857	60	33
59.5479	60.7232	69	38
59.7643	60.1972	48	22
59.9808	60.4137	53	27
60.1972	60.8315	48	22
60.4137	60.8315	53	36
60.62	60.8315	70	36
60.7232	60.8315	69	31
60.8264	62.0961	40	36
60.8264	62.0961	67	36
61.0327	61.4489	48	26
61.2391	62.0961	55	31
61.2391	62.0961	70	38
61.4489	62.0961	48	26
61.6588	62.0961	58	35
61.6588	62.0961	73	42
62.0857	63.3517	41	33
62.0857	63.3413	60	33
62.0857	63.3413	72	40
62.2941	62.711	48	23
62.5026	63.3517	57	26
62.711	63.3517	48	22
62.9194	63.3517	53	36
62.9194	63.3517	69	34
63.3413	64.614	40	36
63.3413	64.6026	60	33
63.3413	64.614	72	40
63.5477	63.9604	48	27
63.7541	64.614	52	31
63.9604	64.614	48	26
64.1668	64.614	55	35
64.1668	64.614	70	34
64.6026	65.8542	41	34
64.6026	67.085	60	38
64.6026	65.7455	69	38
64.8125	65.2321	48	27
65.0223	65.442	53	29
65.2321	65.8542	48	26
65.442	65.8542	53	36
65.6443	65.8542	70	35
65.7455	65.8542	69	31
65.8466	67.0935	40	36
65.8466	67.0935	67	36
66.0489	66.4555	48	27
66.2512	67.0935	55	31
66.2512	67.0935	70	38
66.4555	67.0935	48	27
66.6598	67.0935	58	35
66.6598	67.0935	73	42
67.085	68.334	41	33
67.085	68.3246	60	33
67.085	68.3246	72	40
67.2894	67.6983	48	23
67.4939	68.334	57	27
67.6983	68.334	48	22
67.9027	68.334	53	36
67.9027	68.334	69	34
68.3246	69.5747	40	38
68.3246	69.5815	60	47
68.3246	69.5815	72	47
68.5303	68.9416	48	28
68.736	69.5815	52	35
68.9416	69.5815	48	28
69.1473	69.5815	55	35
69.1473	69.5815	70	45
69.5747	70.8315	40	38
69.5747	70.8315	61	53
69.5747	70.8315	73	53
69.7791	70.1879	49	30
69.9835	70.8315	52	36
70.1879	70.8315	49	31
70.3923	70.8315	55	39
70.3923	70.8315	70	49
70.8211	72.0804	41	47
70.8211	72.0894	62	57
70.8211	72.0894	74	57
71.0287	71.444	50	33
71.2364	72.0894	53	36
71.444	72.0894	50	33
71.6517	72.0894	58	41
71.6517	72.0894	70	49
72.0804	73.3742	41	48
72.0804	73.3742	63	53
72.0804	73.3742	69	53
72.2961	72.7224	53	35
72.5118	72.9329	60	40
72.5118	73.3742	78	61
72.7224	73.3742	53	35
72.9329	73.3742	60	44
72.9329	73.3742	77	55
73.3628	74.6443	46	39
73.3628	74.6443	65	33
73.3628	74.6443	75	50
73.5734	73.9921	53	24
73.784	74.6443	58	26
73.9921	74.6443	53	22
74.1998	74.6443	62	31
74.1998	74.6443	74	45
74.6327	75.9203	38	38
74.6327	75.9203	60	49
74.6327	75.9203	69	49
74.8471	75.2704	50	30
75.0615	75.9203	54	33
75.0615	75.9203	75	53
75.2704	75.9203	50	29
75.4794	75.9203	57	38
75.4794	75.9203	74	45
75.9054	77.1728	43	36
75.9054	77.1728	62	33
75.9054	77.1625	72	48
76.1163	76.5316	50	25
76.324	77.1728	55	28
76.5316	77.1728	50	26
76.7393	77.1728	58	31
76.7393	77.1728	70	45
77.1625	78.4229	40	36
77.1625	78.4126	60	33
77.1625	78.4126	72	40
77.3682	77.7796	48	27
77.5739	78.4229	52	29
77.7796	78.4229	48	27
77.9852	78.4229	55	35
77.9852	78.4229	70	34
78.4126	79.6746	41	33
78.4126	79.6746	60	33
78.4126	79.6746	72	40
78.6183	79.0297	48	28
78.824	79.6746	57	29
79.0297	79.6746	48	28
79.2353	79.6746	53	36
79.2353	79.6746	69	34
79.6641	80.9503	36	33
79.6641	80.9503	58	33
79.6641	80.9503	73	51
79.8737	80.2933	48	29
80.0833	80.9503	55	29
80.0833	80.9503	72	36
80.2933	80.9503	48	29
80.2933	80.9503	70	31
80.5048	80.9503	52	36
80.5048	80.9503	69	35
80.7178	80.9503	67	29
80.9323	82.227	41	33
80.9323	81.3638	57	28
80.9323	82.2376	65	35
81.1481	81.5796	48	26
81.3638	82.2376	57	26
81.5796	82.2376	48	26
81.5796	82.2376	67	38
81.7954	82.2376	53	30
81.7954	82.227	69	43
82.0112	82.2376	70	46
82.227	83.5099	41	44
82.227	83.5099	63	54
82.227	83.5099	69	54
82.44	82.8619	53	36
82.653	83.0709	60	38
82.653	83.5099	78	59
82.8619	83.5099	53	36
83.0709	83.5099	60	44
83.0709	83.5099	77	54
83.4969	84.7722	46	39
83.4969	84.7722	65	52
83.4969	84.7722	75	52
83.7058	84.1226	53	26
83.9148	84.7722	58	26
84.1226	84.7722	53	26
84.3303	84.7722	62	31
84.3303	84.7722	74	49
84.7633	86.0447	38	40
84.7633	86.0447	60	50
84.7633	86.0447	69	50
84.9776	85.401	50	30
85.192	86.0447	54	36
85.192	86.0447	75	56
85.401	86.0447	50	29
85.6099	86.0447	57	38
85.6099	86.0447	74	51
86.0359	87.3083	43	36
86.0359	87.3083	62	33
86.0359	87.2997	72	48
86.2469	86.6621	50	26
86.4545	87.3083	55	26
86.6621	87.3083	50	26
86.8698	87.3083	58	31
86.8698	87.3083	70	45
87.2997	88.5618	40	36
87.2997	88.5498	60	43
87.2997	88.5498	72	43
87.5054	87.9168	48	27
87.7111	88.5618	52	28
87.9168	88.5618	48	28
88.1225	88.5618	55	35
88.1225	88.5618	70	36
88.5498	89.8154	41	33
88.5498	89.8154	60	43
88.5498	89.8154	72	43
88.7555	89.1669	48	27
88.9612	89.8154	57	29
89.1669	89.8154	48	26
89.3726	89.8154	53	36
89.3726	89.8154	69	34
89.8012	91.1032	36	33
89.8012	91.1032	58	33
89.8012	91.1032	73	51
90.0149	90.443	48	26
90.2284	91.1032	55	29
90.2284	91.1032	72	36
90.443	91.1032	48	27
90.443	91.1032	70	31
90.6588	91.1032	52	36
90.6588	91.1032	69	35
90.8758	91.1032	67	29
91.094	92.4312	41	33
91.094	91.9715	57	31
91.094	92.4404	65	35
91.3134	91.7521	48	23
91.5328	92.4404	53	26
91.7521	92.4404	48	23
91.9715	92.4404	57	23
92.4312	93.8068	41	33
92.4312	93.7968	60	35
92.4312	93.7968	69	35
92.6508	93.0898	48	20
92.8703	93.8068	53	26
93.0898	93.8068	48	20
93.3094	93.8068	57	25
93.7968	95.1848	40	31
93.7968	95.1949	60	32
93.7968	95.1848	64	32
93.7968	95.1949	69	32
94.0156	94.4619	48	18
94.2343	95.1949	52	23
94.4619	95.1949	48	18
94.6895	95.1949	57	25
95.1848	96.5525	40	29
95.1848	96.8837	59	30
95.1848	96.8837	64	30
95.1848	96.8837	68	30
95.4099	95.892	47	20
95.6453	96.5525	52	25
95.892	96.5525	47	18
96.1511	96.5525	56	20
96.8837	97.2418	45	38
96.8837	97.0031	69	42
97.0031	97.1224	71	39
97.1224	97.2418	72	39
97.2418	97.3611	71	42
97.3611	97.4805	72	39
97.4805	97.6029	74	39
97.6029	97.9655	64	42
97.6029	97.9655	76	55
97.7223	97.961	66	37
97.8416	97.9655	68	37
97.961	98.0803	66	44
97.961	98.0803	69	42
98.0803	98.1997	68	38
98.0803	98.1997	71	38
98.1997	98.3191	69	38
98.1997	98.3191	72	38
98.3191	98.6811	71	59
98.4384	98.5578	72	37
98.5578	98.6811	74	37
98.6811	99.0506	64	42
98.6811	99.0506	76	55
98.8005	99.0431	66	39
98.9198	99.0506	68	39
99.0431	99.1625	66	42
99.0431	99.1625	69	42
99.1625	99.2819	68	38
99.1625	99.2819	71	38
99.2819	99.4038	69	38
99.2819	99.4038	72	38
99.4038	99.7645	71	56
99.5232	99.6425	72	38
99.6425	99.7645	74	38
99.7645	99.8839	69	42
99.7645	99.8839	72	42
99.8839	100.003	71	42
99.8839	100.003	74	40
100.003	100.123	72	43
100.003	100.123	76	42
100.123	100.242	74	44
100.123	100.242	77	42
100.242	100.362	76	45
100.242	100.362	79	45
100.362	100.483	77	47
100.362	100.483	81	49
100.483	100.603	76	51
100.483	100.603	79	51
100.603	100.723	74	46
100.603	100.723	77	47
100.723	100.842	72	43
100.723	100.842	76	45
100.842	100.962	71	46
100.842	100.962	74	46
100.962	101.082	69	44
100.962	101.082	72	44
101.082	101.21	67	42
101.082	101.21	71	40
101.21	101.35	65	50
101.21	101.334	69	47
101.334	101.459	71	42
101.459	101.584	72	42
101.584	101.722	60	47
101.584	101.707	71	45
101.707	101.83	69	40
101.83	101.953	67	40
101.953	102.326	57	42
101.953	102.326	65	45
102.077	102.326	64	39
102.201	102.326	63	39
102.326	102.448	56	45
102.326	102.689	64	48
102.448	102.569	54	40
102.569	102.689	52	40
102.689	102.809	51	44
102.809	102.931	49	39
102.931	103.054	47	40
103.054	103.413	57	54
103.054	103.174	59	42
103.174	103.293	61	38
103.293	103.413	63	38
103.413	103.534	56	45
103.413	103.534	64	45
103.534	103.656	54	41
103.534	103.656	66	41
103.656	103.779	52	41
103.656	103.779	68	41
103.779	104.145	51	45
103.779	104.145	69	50
103.898	104.145	49	39
104.018	104.145	47	39
104.141	104.498	57	54
104.141	104.26	59	42
104.26	104.379	61	38
104.379	104.498	63	38
104.498	104.619	56	45
104.498	104.619	64	45
104.619	104.739	54	39
104.619	104.739	66	40
104.739	104.863	52	39
104.739	104.863	68	40
104.863	105.229	51	44
104.863	105.229	69	49
104.982	105.229	49	37
105.102	105.229	47	37
105.224	105.582	57	54
105.224	105.344	59	42
105.344	105.463	61	39
105.463	105.582	63	39
105.582	105.954	56	42
105.582	105.954	64	45
105.703	105.947	54	36
105.703	105.947	66	39
105.823	105.954	52	36
105.823	105.954	68	40
105.947	106.316	54	45
105.947	106.316	66	52
106.066	106.308	52	38
106.066	106.308	68	46
106.186	106.316	51	39
106.186	106.316	69	47
106.308	106.669	52	46
106.308	106.676	68	57
106.427	106.676	51	42
106.427	106.669	69	52
106.547	106.676	50	42
106.547	106.676	71	54
106.669	107.039	52	51
106.669	107.039	69	62
106.788	107.027	50	48
106.788	107.027	71	55
106.907	107.039	48	49
106.907	107.039	72	59
107.027	107.401	50	55
107.027	107.401	71	69
107.146	107.387	48	52
107.146	107.387	72	59
107.267	107.401	47	52
107.267	107.401	74	65
107.387	107.761	48	63
107.387	107.761	72	76
107.508	107.761	47	57
107.508	107.761	74	66
107.629	107.761	45	58
107.629	107.761	76	73
107.751	108.121	44	77
107.751	108.121	77	90
107.873	108.126	45	67
107.873	108.126	76	77
107.995	108.126	47	67
107.995	108.126	74	79
108.121	108.488	38	75
108.121	108.488	44	75
108.121	108.488	77	88
108.121	108.488	83	88
108.243	108.493	45	66
108.243	108.493	76	79
108.365	108.493	47	66
108.365	108.493	74	79
108.488	108.855	38	76
108.488	108.855	44	76
108.488	108.855	77	92
108.488	108.855	83	92
108.61	108.867	45	69
108.61	108.867	76	80
108.732	108.867	47	69
108.732	108.867	74	80
108.855	109.227	38	78
108.855	109.227	44	78
108.855	109.227	77	93
108.855	109.227	83	93
108.978	109.237	45	72
108.978	109.237	76	84
109.1	109.237	47	74
109.1	109.237	74	86
109.227	109.6	38	81
109.227	109.6	44	81
109.227	109.6	77	97
109.227	109.6	83	97
109.35	109.609	45	74
109.35	109.609	76	86
109.474	109.609	47	76
109.474	109.609	74	87
109.6	109.986	38	84
109.6	109.986	44	84
109.6	109.979	77	100
109.6	109.979	83	100
109.724	109.986	45	76
109.724	109.986	76	88
109.848	109.986	47	78
109.848	109.986	74	91
109.979	110.341	31	99
109.979	110.341	43	99
109.979	110.341	77	106
109.979	110.341	83	106
110.104	110.341	75	79
110.228	110.352	74	67
110.352	110.478	77	75
110.352	110.541	83	75
110.478	110.604	75	64
110.604	110.729	74	57
110.729	110.857	77	63
110.729	110.92	83	63
110.857	110.983	75	56
110.983	111.124	74	49
111.124	111.249	80	61
111.249	111.374	79	54
111.374	111.502	77	50
111.502	111.627	79	56
111.627	111.753	77	46
111.753	111.882	75	46
111.882	112.009	77	55
112.009	112.135	75	45
112.135	112.264	74	45
112.264	112.388	72	50
112.388	112.511	74	46
112.511	112.633	75	46
112.633	112.755	74	50
112.755	112.877	75	46
112.877	113.0	77	46
113.0	113.366	67	50
113.0	113.366	79	65
113.12	113.36	69	44
113.24	113.366	71	44
113.36	113.479	69	52
113.36	113.479	72	50
113.479	113.598	71	45
113.479	113.598	74	45
113.598	113.718	72	45
113.598	113.718	75	45
113.718	114.079	74	70
113.837	113.956	75	44
113.956	114.079	77	44
114.079	114.445	67	50
114.079	114.445	79	65
114.198	114.441	69	46
114.318	114.445	71	46
114.441	114.56	69	50
114.441	114.56	72	50
114.56	114.68	71	45
114.56	114.68	74	45
114.68	114.802	72	45
114.68	114.802	75	45
114.802	115.162	74	66
114.921	115.04	75	45
115.04	115.162	77	45
115.162	115.282	72	50
115.162	115.282	75	50
115.282	115.401	74	50
115.282	115.401	77	48
115.401	115.52	75	51
115.401	115.52	79	50
115.52	115.64	77	52
115.52	115.64	80	50
115.64	115.76	79	53
115.64	115.76	82	54
115.76	115.881	80	56
115.76	115.881	84	58
115.881	116.001	79	60
115.881	116.001	82	61
116.001	116.12	77	55
116.001	116.12	80	56
116.12	116.24	75	51
116.12	116.24	79	53
116.24	116.36	74	55
116.24	116.36	77	55
116.36	116.48	72	52
116.36	116.48	75	52
116.48	116.608	70	50
116.48	116.608	74	48
116.608	116.747	68	55
116.608	116.731	72	56
116.731	116.855	74	50
116.855	116.979	75	50
116.979	117.118	63	52
116.979	117.102	74	53
117.102	117.225	72	48
117.225	117.348	70	48
117.348	117.727	60	50
117.348	117.727	68	53
117.472	117.721	67	47
117.596	117.727	66	47
117.721	117.843	59	54
117.721	117.903	67	54
117.843	117.964	57	49
117.964	118.087	55	49
118.087	118.461	54	53
118.207	118.461	52	47
118.326	118.461	50	47
118.449	118.806	60	64
118.449	118.568	62	50
118.568	118.687	64	45
118.687	118.806	66	45
118.806	118.927	59	54
118.806	118.927	67	54
118.927	119.047	57	47
118.927	119.047	69	48
119.047	119.171	55	47
119.047	119.171	71	48
119.171	119.542	54	52
119.171	119.542	72	58
119.29	119.542	52	44
119.41	119.542	50	44
119.533	119.891	60	64
119.533	119.652	62	50
119.652	119.771	64	46
119.771	119.891	66	46
119.891	120.01	59	54
119.891	120.01	67	54
120.01	120.13	57	47
120.01	120.13	69	48
120.13	120.253	55	47
120.13	120.253	71	48
120.253	120.623	54	52
120.253	120.623	72	58
120.373	120.623	52	44
120.492	120.623	50	44
120.615	120.973	60	64
120.615	120.734	62	50
120.734	120.854	64	46
120.854	120.973	66	46
120.973	121.346	59	50
120.973	121.346	67	54
121.093	121.337	57	43
121.093	121.337	69	47
121.214	121.346	55	43
121.214	121.346	71	47
121.337	121.707	57	52
121.337	121.707	69	60
121.457	121.698	55	44
121.457	121.698	71	53
121.576	121.707	54	44
121.576	121.707	72	53
121.698	122.07	55	52
121.698	122.07	71	64
121.818	122.07	54	47
121.818	122.06	72	58
121.937	122.07	53	47
121.937	122.07	74	60
122.06	122.426	52	56
122.06	122.426	72	68
122.178	122.417	50	52
122.178	122.417	74	60
122.298	122.426	48	53
122.298	122.426	76	63
122.417	122.79	50	58
122.417	122.79	74	73
122.537	122.778	48	55
122.537	122.778	76	63
122.657	122.79	47	55
122.657	122.79	77	68
122.778	123.16	48	65
122.778	123.16	76	79
122.899	123.16	47	59
122.899	123.16	77	68
123.022	123.16	46	59
123.022	123.16	79	74
123.152	123.872	45	83
123.152	124.446	60	97
123.271	124.446	65	77
123.391	124.446	69	78
123.511	124.446	57	78
123.511	124.446	72	85
123.631	124.446	53	68
123.631	124.446	77	74
123.751	124.446	48	68
123.751	124.446	81	77
123.872	124.446	45	82
123.872	124.446	84	91
123.994	124.446	41	72
123.994	124.446	89	79
124.12	124.446	36	79
124.12	124.446	93	79
124.249	124.446	33	93
124.249	124.446	96	108
124.653	124.866	47	70
124.653	124.866	52	70
124.653	124.866	55	70
124.653	124.866	59	83
124.653	124.866	71	79
124.653	124.866	76	79
124.653	124.866	79	79
124.653	124.866	83	93
125.067	125.322	47	63
125.067	125.322	51	63
125.067	125.322	54	63
125.067	125.322	59	75
125.067	125.322	71	74
125.067	125.322	75	74
125.067	125.322	78	74
125.067	125.322	83	88
125.491	125.612	67	59
125.491	125.612	76	67
125.612	125.733	66	53
125.612	125.733	78	56
125.733	125.857	64	53
125.733	125.857	79	56
125.857	126.231	63	58
125.857	126.231	81	65
125.976	126.231	61	52
126.095	126.231	59	52
126.219	126.576	69	67
126.219	126.338	71	66
126.338	126.457	73	54
126.457	126.576	75	53
126.576	126.696	67	61
126.576	126.696	76	64
126.696	126.817	66	51
126.696	126.817	78	55
126.817	126.941	64	51
126.817	126.941	79	55
126.941	127.31	63	51
126.941	127.31	81	65
127.06	127.31	61	54
127.179	127.31	59	54
127.302	127.66	69	68
127.302	127.422	71	64
127.422	127.541	73	58
127.541	127.66	75	58
127.66	128.028	67	60
127.66	128.028	76	68
127.779	128.028	66	54
127.779	128.018	78	60
127.898	128.028	64	57
127.898	128.028	79	63
128.018	128.387	63	64
128.018	128.387	78	73
128.138	128.378	64	56
128.138	128.378	79	63
128.258	128.387	66	56
128.258	128.387	81	68
128.378	128.761	64	72
128.378	128.761	79	79
128.5	128.761	66	64
128.5	128.761	81	68
128.623	128.761	67	64
128.623	128.761	83	74
128.753	130.046	60	97
128.872	130.046	65	77
128.991	130.046	69	77
129.111	130.046	57	82
129.111	130.046	72	91
129.231	130.046	53	73
129.231	130.046	77	78
129.352	130.046	48	73
129.352	130.046	81	78
129.473	130.046	45	89
129.473	130.046	84	96
129.595	130.046	41	79
129.595	130.046	89	79
129.721	130.046	36	79
129.721	130.046	93	79
129.85	130.046	33	93
129.85	130.046	96	100
130.254	130.467	47	70
130.254	130.467	52	70
130.254	130.467	55	70
130.254	130.467	59	83
130.254	130.467	71	79
130.254	130.467	76	79
130.254	130.467	79	79
130.254	130.467	83	93
130.668	130.938	47	63
130.668	130.938	51	63
130.668	130.938	54	63
130.668	130.938	59	75
130.668	130.938	71	74
130.668	130.938	75	74
130.668	130.938	78	74
130.668	130.938	83	88
131.116	132.207	40	75
131.116	132.207	43	75
131.116	132.207	47	75
131.116	132.207	52	89
131.116	132.207	76	88
131.116	132.207	79	88
131.116	132.207	83	88
131.116	132.207	88	104
132.425	132.522	47	65
132.425	132.522	59	77
132.425	132.522	75	74
132.425	132.522	83	88
132.618	132.718	48	56
132.618	132.718	60	67
132.618	132.718	76	63
132.618	132.718	82	75
132.818	132.915	47	63
132.818	132.915	59	75
132.818	132.915	75	71
132.818	132.915	83	84
133.012	133.112	48	57
133.012	133.112	60	68
133.012	133.112	76	63
133.012	133.112	82	75
133.212	133.328	47	63
133.212	133.328	59	75
133.212	133.328	75	72
133.212	133.328	83	85
133.675	134.782	38	74
133.675	134.782	42	74
133.675	134.782	45	74
133.675	134.782	50	88
133.675	134.782	74	88
133.675	134.782	78	88
133.675	134.782	81	88
133.675	134.782	86	104
134.997	135.094	45	65
134.997	135.094	57	77
134.997	135.094	73	74
134.997	135.094	81	88
135.191	135.29	46	56
135.191	135.29	58	66
135.191	135.29	74	64
135.191	135.29	80	76
135.39	135.487	45	62
135.39	135.487	57	73
135.39	135.487	73	70
135.39	135.487	81	83
135.584	135.684	46	56
135.584	135.684	58	66
135.584	135.684	74	63
135.584	135.684	80	75
135.784	135.899	45	62
135.784	135.899	57	73
135.784	135.899	73	73
135.784	135.899	81	87
136.247	137.133	39	75
136.247	137.133	51	89
136.247	137.133	72	83
136.247	137.133	78	83
136.247	137.133	81	83
136.247	137.133	84	98
137.133	137.432	40	68
137.133	137.432	52	80
137.133	137.432	71	76
137.133	137.432	76	76
137.133	137.432	79	76
137.133	137.432	83	90
137.575	137.793	41	65
137.575	137.793	53	77
137.575	137.793	69	76
137.575	137.793	72	76
137.575	137.793	77	76
137.575	137.793	81	90
138.01	138.232	42	70
138.01	138.232	54	83
138.01	138.232	72	80
138.01	138.232	75	80
138.01	138.232	81	80
138.01	138.232	84	95
138.453	138.674	43	67
138.453	138.674	55	79
138.453	138.674	71	77
138.453	138.674	76	77
138.453	138.674	79	77
138.453	138.674	83	91
138.896	139.13	45	71
138.896	139.13	57	84
138.896	139.13	72	79
138.896	139.13	78	79
138.896	139.13	81	94
139.343	139.603	47	66
139.343	139.603	59	78
139.343	139.603	71	76
139.343	139.603	76	76
139.343	139.603	79	90
139.798	140.043	47	63
139.798	140.043	59	75
139.798	140.043	71	76
139.798	140.043	75	90
139.798	140.043	78	90
140.267	141.441	52	66
140.267	141.441	55	66
140.267	141.441	59	66
140.267	141.441	64	89
140.461	141.441	66	83
140.558	141.441	67	75
140.655	141.441	69	76
140.752	141.441	71	78
140.849	141.441	73	80
140.947	141.441	75	82
141.044	141.441	76	83
141.143	141.441	78	85
141.242	141.441	79	87
141.341	141.441	81	88
141.441	141.537	47	65
141.441	141.537	51	77
141.441	141.537	71	79
141.441	141.537	83	93
141.634	141.733	48	56
141.634	141.733	52	66
141.634	141.733	70	64
141.634	141.733	82	76
141.833	141.93	47	60
141.833	141.93	51	71
141.833	141.93	71	73
141.833	141.93	83	86
142.027	142.126	48	55
142.027	142.126	52	65
142.027	142.126	70	67
142.027	142.126	82	79
142.226	142.341	47	65
142.226	142.341	51	77
142.226	142.341	71	78
142.226	142.341	83	92
142.689	143.867	50	72
142.689	143.867	54	72
142.689	143.867	57	72
142.689	143.867	62	89
142.883	143.867	64	83
142.98	143.867	66	75
143.077	143.867	67	76
143.174	143.863	69	78
143.271	143.867	71	80
143.369	143.867	73	82
143.467	143.867	74	83
143.565	143.867	76	85
143.664	143.867	78	87
143.763	143.867	80	88
143.863	143.961	45	62
143.863	143.961	49	74
143.863	143.961	69	79
143.863	143.961	81	93
144.058	144.158	46	56
144.058	144.158	50	66
144.058	144.158	68	66
144.058	144.158	80	78
144.258	144.356	45	61
144.258	144.356	49	72
144.258	144.356	69	72
144.258	144.356	81	85
144.454	144.554	46	54
144.454	144.554	50	64
144.454	144.554	68	65
144.454	144.554	80	77
144.654	144.77	45	62
144.654	144.77	49	73
144.654	144.77	69	74
144.654	144.77	81	88
145.117	146.048	36	57
145.117	146.003	40	57
145.117	146.003	43	57
145.117	146.048	48	68
145.228	146.048	72	77
145.338	146.048	76	77
145.449	146.048	79	75
145.56	146.048	84	87
145.671	146.048	88	75
145.781	146.048	91	79
145.892	146.048	96	75
146.003	146.224	40	55
146.003	146.224	43	55
146.003	146.224	47	55
146.003	146.224	52	65
146.003	146.113	95	89
146.456	146.916	41	56
146.456	146.905	45	56
146.456	146.916	48	56
146.456	146.916	53	66
146.456	146.916	69	86
146.568	146.905	72	78
146.68	146.916	77	78
146.793	146.916	81	78
146.905	147.369	42	54
146.905	147.369	45	54
146.905	147.369	51	54
146.905	147.369	54	64
146.905	147.369	72	86
147.017	147.369	75	78
147.13	147.369	81	78
147.242	147.369	84	78
147.355	147.823	43	51
147.355	147.823	47	51
147.355	147.823	52	51
147.355	147.823	55	61
147.355	147.823	71	86
147.467	147.823	76	76
147.579	147.823	79	76
147.696	147.823	83	76
147.812	148.278	45	54
147.812	148.278	48	54
147.812	148.278	54	54
147.812	148.278	57	64
147.812	148.278	69	80
147.926	148.278	72	73
148.04	148.278	78	73
148.154	148.278	81	72
148.268	148.739	47	49
148.268	148.745	52	49
148.268	148.745	55	49
148.268	148.739	59	58
148.268	148.745	67	78
148.386	148.745	71	70
148.503	148.745	76	70
148.621	148.745	79	70
148.739	149.226	47	48
148.739	149.226	51	48
148.739	149.226	54	48
148.739	149.226	59	57
148.739	149.226	66	77
148.861	149.226	71	69
148.983	149.226	75	69
149.105	149.226	78	69
149.226	150.747	52	77
149.226	150.004	64	87
149.421	150.747	54	73
149.421	150.103	66	82
149.518	150.747	55	67
149.518	150.201	67	78
149.615	150.747	57	67
149.615	150.301	69	77
149.712	150.747	59	66
149.712	150.4	71	77
149.809	150.747	61	65
149.809	150.747	73	77
149.906	150.747	63	64
149.906	150.747	75	76
150.004	150.747	64	63
150.004	150.7	76	76
150.103	150.747	66	63
150.103	150.747	78	76
150.201	150.747	67	62
150.201	150.747	79	75
150.301	150.747	69	62
150.301	150.747	81	75
150.4	150.747	71	61
150.4	150.747	83	74
150.5	150.747	72	61
150.5	150.747	84	74
150.6	150.747	74	60
150.6	150.747	86	73
150.7	150.801	76	60
150.7	150.801	88	73
150.801	156.904	77	60
150.801	156.904	89	71
152.017	156.904	74	60
152.017	156.904	86	71
153.234	156.904	71	55
153.234	156.904	83	67
154.467	156.904	68	48
154.467	156.904	80	55
155.754	156.904	67	46
155.754	156.904	79	50
157.053	158.342	48	39
157.053	159.591	67	36
157.053	158.228	76	41
157.269	157.702	55	24
157.486	158.342	60	29
157.702	158.342	55	24
157.919	158.342	64	39
158.125	158.342	77	39
158.228	158.342	76	34
158.331	159.599	47	39
158.331	159.599	74	39
158.538	158.954	55	28
158.744	159.599	62	34
158.744	159.599	77	41
158.954	159.599	55	28
159.164	159.599	65	38
159.164	159.599	80	46
159.591	160.858	48	36
159.591	160.846	67	36
159.591	160.846	79	44
159.799	160.216	55	25
160.008	160.858	64	28
160.216	160.858	55	24
160.425	160.858	60	39
160.425	160.858	76	37
160.846	162.116	47	39
160.846	162.108	67	36
160.846	162.116	79	44
161.053	161.466	55	29
161.259	162.116	65	34
161.466	162.116	55	28
161.672	162.116	62	38
161.672	162.116	77	37
162.108	163.362	48	37
162.108	164.59	67	41
162.108	163.251	76	41
162.318	162.737	55	29
162.527	163.362	60	31
162.737	163.362	55	28
162.947	163.362	64	39
163.149	163.362	77	38
163.251	163.362	76	34
163.352	164.601	47	39
163.352	164.601	74	39
163.554	163.961	55	29
163.756	164.601	62	34
163.756	164.601	77	41
163.961	164.601	55	29
164.165	164.601	65	38
164.165	164.601	80	46
164.59	165.84	48	36
164.59	165.83	67	36
164.59	165.83	79	44
164.795	165.203	55	25
164.999	165.84	64	29
165.203	165.84	55	24
165.408	165.84	60	39
165.408	165.84	76	37
165.83	167.08	47	41
165.83	167.088	67	51
165.83	167.088	79	51
166.035	166.447	55	30
166.241	167.088	65	38
166.447	167.088	55	30
166.652	167.088	62	38
166.652	167.088	77	49
167.08	168.336	47	41
167.08	168.336	68	58
167.08	168.336	80	58
167.284	167.693	56	33
167.489	168.336	65	39
167.693	168.336	56	34
167.897	168.336	62	42
167.897	168.336	77	53
168.326	169.585	48	51
168.326	169.594	69	62
168.326	169.594	81	62
168.534	168.949	57	36
168.741	169.594	65	39
168.949	169.594	57	36
169.157	169.594	60	45
169.157	169.594	77	53
169.585	170.885	48	52
169.585	170.885	70	58
169.585	170.885	76	58
169.801	170.227	60	38
170.017	170.885	67	44
170.017	170.885	85	63
170.227	170.885	60	38
170.438	170.885	64	48
170.438	170.885	84	60
170.868	172.144	53	42
170.868	172.144	72	36
170.868	172.144	82	55
171.078	171.497	60	26
171.289	172.144	65	28
171.497	172.144	60	24
171.705	172.144	69	34
171.705	172.144	81	49
172.138	173.428	45	41
172.138	173.428	67	53
172.138	173.428	76	53
172.352	172.776	57	33
172.567	173.428	61	36
172.567	173.428	82	58
172.776	173.428	57	31
172.984	173.428	64	41
172.984	173.428	81	49
173.41	174.67	50	39
173.41	174.67	69	36
173.41	174.668	79	52
173.621	174.037	57	27
173.829	174.67	62	30
174.037	174.67	57	28
174.244	174.67	65	34
174.244	174.67	77	49
174.668	175.925	47	39
174.668	175.918	67	36
174.668	175.918	79	44
174.873	175.285	55	29
175.079	175.925	65	31
175.285	175.925	55	29
175.49	175.925	62	38
175.49	175.925	77	37
175.918	177.181	48	36
175.918	177.181	67	36
175.918	177.181	79	44
176.123	176.535	55	30
176.329	177.181	64	31
176.535	177.181	55	30
176.74	177.181	60	39
176.74	177.181	76	37
177.169	178.455	43	36
177.169	178.455	65	36
177.169	178.455	80	56
177.379	177.798	55	31
177.588	178.455	62	31
177.588	178.455	79	39
177.798	178.455	55	31
177.798	178.455	77	34
178.01	178.455	59	39
178.01	178.455	76	38
178.223	178.455	74	31
178.437	179.732	48	36
178.437	178.869	64	30
178.437	179.748	72	38
178.653	179.085	55	28
178.869	179.748	64	28
179.085	179.748	55	28
179.085	179.748	74	41
179.301	179.748	60	33
179.301	179.732	76	50
179.516	179.748	77	54
179.732	181.019	48	48
179.732	181.019	70	59
179.732	181.019	76	59
179.945	180.367	60	39
180.158	181.019	67	41
180.158	181.019	85	64
180.367	181.019	60	39
180.576	181.019	64	48
180.576	181.019	84	59
181.002	182.275	53	42
181.002	182.275	72	57
181.002	182.275	82	57
181.211	181.628	60	28
181.42	182.275	65	28
181.628	182.275	60	28
181.835	182.275	69	34
181.835	182.275	81	53
182.268	183.554	45	44
182.268	183.554	67	55
182.268	183.554	76	55
182.483	182.906	57	33
182.697	183.554	61	39
182.697	183.554	82	61
182.906	183.554	57	31
183.115	183.554	64	41
183.115	183.554	81	56
183.541	184.813	50	39
183.541	184.813	69	36
183.541	184.805	79	52
183.752	184.167	57	28
183.96	184.813	62	28
184.167	184.813	57	28
184.375	184.813	65	34
184.375	184.813	77	49
184.805	186.065	47	39
184.805	186.055	67	47
184.805	186.055	79	47
185.01	185.422	55	29
185.216	186.065	65	30
185.422	186.065	55	30
185.628	186.065	62	38
185.628	186.065	77	39
186.055	187.318	48	36
186.055	187.318	67	47
186.055	187.318	79	47
186.261	186.672	55	29
186.466	187.318	64	31
186.672	187.318	55	28
186.878	187.318	60	39
186.878	187.318	76	37
187.306	188.608	43	36
187.306	188.608	65	36
187.306	188.608	80	56
187.52	187.948	55	28
187.733	188.608	62	31
187.733	188.608	79	39
187.948	188.608	55	29
187.948	188.608	77	34
188.164	188.608	59	39
188.164	188.608	76	38
188.381	188.608	74	31
188.599	189.936	48	36
188.599	189.477	64	34
188.599	189.944	72	38
188.818	189.257	55	25
189.038	189.944	60	28
189.257	189.944	55	25
189.477	189.944	64	25
189.936	191.311	48	33
189.936	191.302	67	35
189.936	191.302	76	35
190.156	190.595	55	20
190.375	191.311	60	26
190.595	191.311	55	20
190.814	191.311	64	25
191.302	192.69	47	31
191.302	192.698	67	32
191.302	192.69	71	32
191.302	192.698	76	32
191.521	191.967	55	18
191.739	192.698	59	23
191.967	192.698	55	18
192.195	192.698	64	25
192.69	194.389	47	29
192.69	194.389	66	30
192.69	194.389	71	30
192.69	194.389	75	30
192.915	193.397	54	20
193.15	194.389	59	25
193.397	194.389	54	18
193.656	194.389	63	20
194.389	194.867	56	83
194.389	194.508	65	91
194.508	195.682	65	72
194.508	195.682	71	77
194.627	195.682	62	68
194.627	195.682	74	74
194.747	195.682	59	75
194.747	195.682	77	82
194.867	195.682	56	68
194.867	195.682	83	73
194.988	195.682	53	68
194.988	195.682	86	71
195.109	195.682	50	65
195.109	195.682	89	78
195.231	195.682	47	54
195.231	195.682	95	71
195.357	195.682	45	53
195.357	195.682	98	70
195.486	195.682	44	63
195.486	195.682	101	76
196.698	198.047	46	33
196.917	197.358	53	23
197.137	198.056	58	26
197.358	198.056	53	23
197.58	198.056	62	23
198.047	199.41	46	33
198.047	199.401	65	35
198.047	199.41	68	35
198.047	199.401	74	35
198.268	198.711	53	20
198.489	199.41	58	26
198.711	199.41	53	20
198.932	199.41	62	25
199.401	200.792	45	31
199.401	200.792	65	32
199.401	200.792	69	32
199.401	200.792	74	32
199.621	200.07	53	18
199.842	200.792	57	23
200.07	200.792	53	18
200.297	200.792	62	25
200.792	202.491	45	29
200.792	202.491	64	30
200.792	202.491	69	30
200.792	202.491	73	30
201.018	201.5	52	20
201.253	202.491	57	25
201.5	202.491	52	18
201.759	202.491	61	20
202.491	203.785	54	83
202.491	202.61	63	91
202.61	203.785	63	73
202.61	203.785	69	77
202.73	203.785	60	70
202.73	203.785	72	72
202.85	203.785	57	75
202.85	203.785	75	82
202.97	203.785	53	68
202.97	203.785	81	73
203.091	203.785	51	68
203.091	203.785	84	71
203.212	203.785	48	65
203.212	203.785	87	78
203.334	203.785	45	54
203.334	203.785	93	71
203.459	203.785	43	53
203.459	203.785	96	70
203.589	203.785	42	63
203.589	203.785	99	76
204.801	206.181	44	33
205.025	205.476	51	23
205.249	206.188	56	26
205.476	206.188	51	23
205.703	206.188	60	23
206.181	207.577	44	33
206.181	207.585	66	35
206.181	207.577	68	35
206.181	207.577	75	35
206.408	206.867	51	20
206.636	207.585	56	26
206.867	207.585	51	20
207.099	207.585	60	25
207.577	208.989	44	31
207.577	210.26	65	32
207.577	210.26	68	32
207.577	208.996	75	32
207.801	208.259	53	18
208.025	208.996	56	23
208.259	208.996	53	18
208.494	208.996	61	25
208.989	210.26	44	31
208.989	210.26	73	39
209.208	209.654	53	18
209.426	210.26	56	23
209.426	210.26	77	41
209.654	210.26	53	18
209.882	210.26	61	25
209.882	210.26	78	47
210.244	211.688	63	34
210.305	211.688	73	35
210.365	211.688	32	31
210.365	211.688	80	47
210.595	211.061	44	18
210.825	211.688	51	18
211.061	211.688	44	18
211.298	211.688	54	23
211.677	213.297	66	29
211.741	213.297	72	29
211.804	213.297	32	31
211.804	213.297	80	44
212.037	212.514	44	18
212.269	213.297	51	18
212.514	213.297	44	18
212.794	213.288	56	27
213.288	215.582	49	27
213.288	215.592	53	27
213.288	215.582	56	27
213.288	215.592	61	27
213.288	214.458	73	36
213.416	213.672	75	30
213.544	213.801	77	30
213.672	214.458	75	36
213.801	214.057	77	31
213.929	214.185	78	31
214.057	214.458	77	35
214.185	214.442	78	30
214.313	214.458	80	31
214.442	215.592	78	39
214.569	214.824	80	32
214.697	214.95	82	32
214.824	215.592	80	43
214.95	215.592	82	36
215.076	215.592	84	35
215.202	215.592	85	47
215.327	215.592	87	39
215.452	215.592	89	40
215.582	217.843	49	29
215.582	216.714	51	29
215.582	217.843	56	29
215.582	217.852	60	29
215.582	216.714	90	52
215.707	215.956	89	41
215.831	216.08	87	41
215.956	216.714	89	50
216.08	216.33	87	39
216.205	216.454	85	41
216.33	216.714	87	48
216.454	216.703	85	38
216.579	216.714	84	38
216.703	217.852	54	28
216.703	217.852	85	42
216.828	217.077	84	35
216.952	217.203	82	35
217.077	217.852	84	40
217.203	217.852	82	33
217.328	217.852	80	33
217.455	217.852	78	37
217.581	217.852	77	32
217.708	217.852	75	32
217.843	220.125	49	29
217.843	220.134	52	29
217.843	220.125	56	29
217.843	220.134	61	29
217.843	219.008	73	39
217.972	218.228	75	33
218.1	218.356	76	33
218.228	219.008	75	39
218.356	218.613	76	33
218.484	218.741	78	33
218.613	219.008	76	37
218.741	218.997	78	32
218.869	219.008	80	32
218.997	220.134	78	41
219.125	219.378	80	33
219.252	220.134	81	33
219.378	220.134	80	43
219.503	220.134	82	36
219.627	220.134	84	35
219.751	220.134	85	46
219.874	220.134	87	39
219.996	220.134	88	39
220.125	222.7	49	28
220.125	221.229	51	28
220.125	222.7	56	28
220.125	222.339	60	28
220.125	221.229	90	50
220.246	220.49	88	39
220.368	220.611	87	39
220.49	221.229	88	48
220.611	220.854	87	39
220.733	220.976	85	40
220.854	221.229	87	47
220.976	221.219	85	38
221.098	221.229	84	38
221.219	222.339	54	28
221.219	222.339	85	42
221.341	221.586	83	36
221.463	221.708	81	36
221.586	222.339	83	42
221.708	222.339	81	35
221.831	222.339	80	35
221.955	222.339	78	40
222.078	222.339	76	34
222.202	222.339	75	34
222.334	222.7	52	29
222.334	222.7	61	29
222.334	222.456	73	40
222.456	222.578	75	35
222.578	222.7	76	35
222.7	222.821	75	45
222.821	222.943	76	37
222.943	223.065	78	37
223.065	223.187	76	47
223.187	223.309	78	39
223.309	223.432	80	38
223.432	223.554	60	40
223.432	224.164	81	53
223.554	223.676	61	35
223.676	223.798	63	35
223.798	223.92	61	41
223.92	224.042	63	37
224.042	224.164	64	37
224.164	224.539	66	42
224.164	224.539	80	48
224.286	224.533	64	37
224.408	224.539	63	37
224.533	225.265	64	45
224.533	224.655	73	40
224.655	224.777	75	35
224.777	224.899	76	35
224.899	225.021	75	46
225.021	225.143	76	37
225.143	225.265	78	37
225.265	225.634	61	37
225.265	225.387	76	48
225.387	225.509	78	39
225.509	225.634	80	38
225.634	225.756	60	40
225.634	226.366	81	53
225.756	225.878	61	35
225.878	226.0	63	35
226.0	226.122	61	41
226.122	226.244	63	37
226.244	226.366	64	37
226.366	226.739	66	42
226.366	226.739	80	48
226.488	226.734	64	37
226.61	226.739	63	37
226.734	227.839	64	45
226.734	226.856	76	46
226.856	226.978	78	38
226.978	227.1	79	38
227.1	227.222	78	51
227.222	227.344	79	40
227.344	227.466	81	40
227.466	227.59	79	52
227.59	227.713	81	42
227.713	227.839	83	41
227.839	227.961	63	40
227.839	228.571	84	58
227.961	228.083	64	35
228.083	228.205	66	35
228.205	228.327	64	41
228.327	228.449	66	37
228.449	228.571	67	37
228.571	228.943	69	42
228.571	228.951	83	52
228.694	228.943	67	37
228.817	228.943	66	37
228.943	229.065	65	40
228.943	229.675	86	74
229.065	229.187	66	35
229.187	229.309	68	35
229.309	229.431	66	41
229.431	229.553	68	37
229.553	229.675	69	37
229.675	230.053	71	42
229.675	230.053	85	63
229.799	230.053	69	37
229.922	230.053	68	37
230.048	230.414	66	42
230.048	230.17	78	58
230.17	230.292	80	50
230.292	230.414	81	50
230.414	230.536	80	60
230.536	230.658	81	48
230.658	230.78	83	48
230.78	231.025	64	39
230.78	231.157	79	62
230.78	231.157	85	62
230.903	231.157	70	36
231.025	231.157	64	36
231.151	231.286	63	40
231.151	231.286	71	40
231.151	231.334	78	57
231.151	231.334	90	57
231.273	231.395	64	35
231.395	231.517	66	35
231.517	231.639	64	41
231.639	231.761	66	37
231.756	231.878	67	37
231.883	232.262	69	41
231.883	232.262	75	41
231.883	232.129	78	64
232.006	232.262	83	55
232.129	232.262	78	55
232.255	232.438	68	41
232.255	232.389	76	63
232.255	232.438	88	63
232.377	232.499	78	50
232.499	232.621	80	50
232.621	232.743	78	57
232.743	232.865	80	48
232.865	232.987	81	48
232.987	233.233	62	40
232.987	233.365	77	65
232.987	233.365	83	65
233.11	233.365	68	37
233.233	233.365	62	37
233.358	233.576	61	40
233.358	233.576	69	40
233.358	233.576	76	64
233.358	233.576	88	64
233.48	233.602	62	35
233.602	233.724	64	35
233.724	233.846	62	41
233.846	233.968	64	37
233.968	234.09	66	37
234.09	234.471	67	41
234.09	234.471	73	41
234.09	234.337	76	65
234.213	234.471	81	55
234.337	234.471	76	55
234.465	234.648	66	41
234.465	234.599	74	66
234.465	234.648	86	66
234.587	234.709	76	50
234.709	234.831	78	50
234.831	234.953	76	57
234.953	235.075	78	48
235.075	235.197	79	48
235.197	235.444	65	41
235.197	235.936	74	69
235.197	235.577	81	69
235.197	235.936	86	69
235.32	235.577	69	37
235.444	235.577	65	37
235.57	235.692	64	40
235.57	235.936	80	67
235.692	235.814	66	35
235.814	235.936	68	35
235.936	236.058	66	41
236.058	236.18	68	37
236.18	236.302	69	37
236.302	236.683	65	41
236.302	237.043	71	41
236.302	237.043	74	41
236.302	236.55	81	65
236.426	236.683	86	55
236.55	236.683	81	56
236.677	237.043	64	41
236.677	236.799	80	65
236.799	236.921	81	53
236.921	237.043	83	53
237.043	237.165	81	62
237.165	237.287	83	52
237.287	237.409	84	52
237.409	237.657	65	39
237.409	238.149	74	69
237.409	237.789	81	69
237.409	238.149	86	69
237.533	237.789	69	37
237.657	237.789	65	38
237.783	237.905	64	40
237.783	238.149	80	68
237.905	238.027	66	35
238.027	238.149	68	35
238.149	238.271	66	41
238.271	238.393	68	37
238.393	238.515	69	37
238.515	238.892	65	41
238.515	239.253	71	41
238.515	239.253	74	41
238.515	238.761	81	65
238.638	238.892	86	57
238.761	238.892	81	57
238.887	239.253	64	41
238.887	239.009	80	64
239.009	239.131	81	50
239.131	239.253	83	50
239.253	239.375	81	57
239.375	239.497	83	48
239.497	239.619	84	48
239.619	239.865	65	45
239.619	240.352	74	68
239.619	239.994	81	68
239.619	240.352	86	68
239.742	239.994	69	38
239.865	239.994	65	38
239.989	240.11	64	45
239.989	240.352	80	67
240.11	240.231	66	36
240.231	240.352	68	36
240.352	240.473	66	46
240.473	240.594	68	37
240.594	240.714	69	37
240.714	240.835	68	47
240.835	240.955	69	41
240.955	241.075	71	42
241.075	241.195	69	50
241.195	241.315	71	46
241.315	241.434	72	46
241.434	241.554	71	50
241.554	241.674	72	46
241.674	241.796	74	46
241.796	242.159	64	50
241.796	242.159	76	65
241.916	242.154	66	44
242.035	242.159	68	44
242.154	242.274	66	52
242.154	242.274	69	50
242.274	242.393	68	45
242.274	242.393	71	45
242.393	242.512	69	45
242.393	242.512	72	45
242.512	242.874	71	70
242.632	242.751	72	44
242.751	242.874	74	44
242.874	243.242	64	50
242.874	243.242	76	65
242.994	243.236	66	46
243.113	243.242	68	46
243.236	243.356	66	50
243.236	243.356	69	50
243.356	243.475	68	45
243.356	243.475	71	45
243.475	243.597	69	45
243.475	243.597	72	45
243.597	243.958	71	66
243.717	243.836	72	45
243.836	243.958	74	45
243.958	244.077	69	50
243.958	244.077	72	50
244.077	244.197	71	50
244.077	244.197	74	48
244.197	244.316	72	51
244.197	244.316	76	50
244.316	244.435	74	52
244.316	244.435	77	50
244.435	244.556	76	53
244.435	244.556	79	54
244.556	244.676	77	56
244.556	244.676	81	58
244.676	244.796	76	60
244.676	244.796	79	61
244.796	244.916	74	55
244.796	244.916	77	56
244.916	245.036	72	51
244.916	245.036	76	53
245.036	245.156	71	55
245.036	245.156	74	55
245.156	245.275	69	52
245.156	245.275	72	52
245.275	245.403	67	50
245.275	245.403	71	48
245.403	245.543	65	59
245.403	245.528	69	56
245.528	245.652	71	50
245.652	245.777	72	50
245.777	245.915	60	56
245.777	245.9	71	53
245.9	246.023	69	48
246.023	246.146	67	48
246.146	246.525	57	50
246.146	246.525	65	53
246.27	246.519	64	47
246.394	246.525	63	47
246.519	246.641	56	53
246.519	246.882	64	57
246.641	246.762	54	48
246.762	246.882	52	48
246.882	247.002	51	52
247.002	247.124	49	47
247.124	247.247	47	48
247.247	247.606	57	64
247.247	247.367	59	50
247.367	247.487	61	45
247.487	247.606	63	45
247.606	247.728	56	54
247.606	247.728	64	54
247.728	247.849	54	49
247.728	247.849	66	49
247.849	247.972	52	49
247.849	247.972	68	49
247.972	248.339	51	53
247.972	248.339	69	59
248.092	248.339	49	47
248.211	248.339	47	47
248.334	248.691	57	64
248.334	248.453	59	50
248.453	248.572	61	45
248.572	248.691	63	45
248.691	248.812	56	54
248.691	248.812	64	54
248.812	248.932	54	47
248.812	248.932	66	48
248.932	249.056	52	47
248.932	249.056	68	48
249.056	249.422	51	52
249.056	249.422	69	58
249.176	249.422	49	44
249.295	249.422	47	44
249.418	249.776	57	64
249.418	249.537	59	50
249.537	249.656	61	46
249.656	249.776	63	46
249.776	250.148	56	50
249.776	250.148	64	54
249.896	250.14	54	43
249.896	250.14	66	47
250.017	250.148	52	43
250.017	250.148	68	47
250.14	250.509	54	52
250.14	250.509	66	60
250.259	250.501	52	44
250.259	250.501	68	53
250.379	250.509	51	44
250.379	250.509	69	53
250.501	250.862	52	52
250.501	250.869	68	64
250.621	250.869	51	47
250.621	250.862	69	58
250.74	250.869	50	47
250.74	250.869	71	60
250.862	251.232	52	56
250.862	251.232	69	68
250.981	251.22	50	52
250.981	251.22	71	60
251.1	251.232	48	53
251.1	251.232	72	63
251.22	251.603	50	58
251.22	251.603	71	73
251.34	251.581	48	55
251.34	251.581	72	63
251.46	251.603	47	55
251.46	251.603	74	68
251.581	251.952	48	65
251.581	251.952	72	79
251.701	251.952	47	59
251.701	251.952	74	68
251.823	251.952	45	59
251.823	251.952	76	74
251.944	253.237	62	91
251.944	253.237	65	93
252.063	253.237	58	79
252.063	253.237	70	79
252.183	253.237	53	77
252.183	253.237	74	77
252.302	253.237	50	85
252.302	253.237	77	90
252.423	253.237	46	75
252.423	253.237	82	79
252.543	253.237	41	75
252.543	253.237	86	79
252.664	253.237	38	84
252.664	253.237	89	89
252.786	253.237	34	76
252.786	253.237	94	78
252.912	253.237	29	76
252.912	253.237	98	78
253.041	253.237	26	88
253.041	253.237	101	96
253.445	253.658	52	70
253.445	253.658	57	70
253.445	253.658	60	83
253.445	253.658	64	79
253.445	253.658	69	79
253.445	253.658	72	79
253.445	253.658	76	93
253.859	254.114	52	63
253.859	254.114	56	63
253.859	254.114	59	75
253.859	254.114	64	74
253.859	254.114	68	74
253.859	254.114	71	74
253.859	254.114	76	88
254.283	254.404	60	62
254.283	254.649	69	67
254.404	254.525	59	56
254.525	254.649	57	56
254.649	255.017	56	61
254.768	255.017	54	55
254.887	255.017	52	54
255.011	255.368	62	67
255.011	255.13	64	66
255.13	255.249	66	54
255.249	255.368	68	53
255.368	255.488	60	61
255.368	255.488	69	64
255.488	255.609	59	55
255.488	255.609	71	55
255.609	255.732	57	55
255.609	255.732	72	55
255.732	256.101	56	60
255.732	256.101	74	65
255.852	256.101	54	54
255.971	256.101	52	54
256.094	256.452	62	68
256.094	256.213	64	64
256.213	256.333	66	58
256.333	256.452	68	58
256.452	256.573	60	61
256.452	256.573	69	64
256.573	256.693	59	55
256.573	256.693	71	55
256.693	256.817	57	55
256.693	256.817	72	55
256.817	257.187	56	60
256.817	257.187	74	65
256.936	257.187	54	54
257.056	257.187	52	54
257.178	257.537	62	68
257.178	257.298	64	64
257.298	257.417	66	58
257.417	257.537	68	58
257.537	257.903	60	64
257.537	257.903	69	68
257.656	257.903	59	57
257.656	257.895	71	60
257.775	257.903	57	57
257.775	257.903	72	63
257.895	258.267	56	67
257.895	258.267	71	73
258.015	258.255	57	56
258.015	258.255	72	63
258.135	258.267	59	56
258.135	258.267	74	68
258.255	258.641	57	72
258.255	258.641	72	79
258.377	258.641	59	64
258.377	258.641	74	68
258.5	258.641	60	64
258.5	258.641	76	74
258.63	259.926	62	91
258.63	259.926	65	93
258.749	259.926	58	79
258.749	259.926	70	79
258.868	259.926	53	79
258.868	259.926	74	79
258.988	259.926	50	86
258.988	259.926	77	90
259.108	259.926	46	77
259.108	259.926	82	77
259.229	259.926	41	77
259.229	259.926	86	77
259.35	259.926	38	86
259.35	259.926	89	90
259.472	259.926	34	78
259.472	259.926	94	76
259.598	259.926	29	77
259.598	259.926	98	76
259.727	259.926	26	93
259.727	259.926	101	97
260.137	260.349	52	70
260.137	260.349	57	70
260.137	260.349	60	83
260.137	260.349	64	79
260.137	260.349	69	79
260.137	260.349	72	79
260.137	260.349	76	93
260.562	260.793	52	63
260.562	260.793	56	63
260.562	260.793	59	75
260.562	260.793	64	74
260.562	260.793	68	74
260.562	260.793	71	74
260.562	260.793	76	88
261.024	262.248	62	91
261.024	262.248	65	93
261.141	262.248	58	79
261.141	262.248	70	81
261.259	262.248	53	79
261.259	262.248	74	80
261.378	262.248	50	86
261.378	262.248	77	90
261.498	262.248	46	76
261.498	262.248	82	79
261.618	262.248	41	76
261.618	262.248	86	79
261.739	262.248	38	86
261.739	262.248	89	93
261.861	262.248	34	76
261.861	262.248	94	79
261.987	262.248	29	76
261.987	262.248	98	79
262.116	262.248	26	90
262.116	262.248	101	97
262.511	262.713	53	70
262.511	262.713	58	70
262.511	262.713	62	83
262.511	262.713	65	79
262.511	262.713	70	79
262.511	262.713	74	79
262.511	262.713	77	93
262.915	263.114	53	63
262.915	263.114	57	63
262.915	263.114	60	75
262.915	263.114	65	74
262.915	263.114	69	74
262.915	263.114	72	74
262.915	263.114	77	88
263.312	263.506	31	79
263.312	263.506	43	93
263.312	263.506	79	74
263.312	263.506	91	88
263.699	263.901	55	70
263.699	263.901	60	70
263.699	263.901	63	83
263.699	263.901	67	79
263.699	263.901	72	79
263.699	263.901	75	79
263.699	263.901	79	93
264.102	264.301	55	63
264.102	264.301	59	63
264.102	264.301	62	75
264.102	264.301	67	74
264.102	264.301	71	74
264.102	264.301	74	74
264.102	264.301	79	88
264.499	264.694	33	79
264.499	264.694	45	93
264.499	264.694	81	74
264.499	264.694	93	88
264.888	265.091	57	70
264.888	265.091	62	70
264.888	265.091	65	83
264.888	265.091	69	79
264.888	265.091	74	79
264.888	265.091	77	79
264.888	265.091	81	93
265.293	265.503	57	63
265.293	265.503	61	63
265.293	265.503	64	75
265.293	265.503	69	74
265.293	265.503	73	74
265.293	265.503	76	74
265.293	265.503	81	88
265.713	265.918	55	42
265.713	265.918	58	50
265.713	265.918	67	50
265.713	265.918	70	59
265.918	266.124	55	41
265.918	266.124	58	49
265.918	266.124	67	52
265.918	266.124	70	62
266.124	266.329	52	44
266.124	266.329	55	44
266.124	266.329	58	52
266.124	266.329	67	54
266.124	266.329	70	54
266.124	266.329	73	64
266.329	266.535	52	45
266.329	266.535	55	45
266.329	266.535	58	54
266.329	266.535	67	56
266.329	266.535	70	67
266.329	266.535	73	67
266.535	266.74	49	47
266.535	266.74	52	47
266.535	266.74	55	47
266.535	266.74	58	56
266.535	266.74	67	59
266.535	266.74	70	59
266.535	266.74	73	59
266.535	266.74	76	70
266.74	266.946	49	49
266.74	266.946	52	49
266.74	266.946	55	49
266.74	268.195	58	58
266.74	268.195	67	62
266.74	266.946	70	62
266.74	266.946	73	62
266.74	266.946	76	73
266.946	267.151	46	51
266.946	267.151	49	51
266.946	267.151	52	51
266.946	267.151	55	60
266.946	267.151	70	64
266.946	267.151	73	64
266.946	267.151	76	64
266.946	267.151	79	76
267.151	267.357	46	52
267.151	267.357	49	52
267.151	267.357	52	52
267.151	268.195	55	62
267.151	268.195	70	67
267.151	267.357	73	67
267.151	267.357	76	67
267.151	267.357	79	79
267.357	267.562	43	54
267.357	267.562	46	54
267.357	267.562	49	54
267.357	267.562	52	64
267.357	267.562	73	69
267.357	267.562	76	69
267.357	267.562	79	69
267.357	267.562	82	82
267.562	267.768	43	56
267.562	267.768	46	56
267.562	267.768	49	56
267.562	268.195	52	66
267.562	268.195	73	72
267.562	267.768	76	72
267.562	267.768	79	72
267.562	267.768	82	85
267.768	267.976	40	58
267.768	267.976	43	58
267.768	267.976	46	58
267.768	267.976	49	69
267.768	267.976	76	73
267.768	267.976	79	73
267.768	267.976	82	73
267.768	267.976	85	87
267.976	268.195	40	62
267.976	268.195	43	62
267.976	268.195	46	62
267.976	268.195	49	74
267.976	268.195	76	76
267.976	268.195	79	76
267.976	268.195	82	76
267.976	268.195	85	90
268.195	268.554	41	73
268.195	268.554	45	73
268.195	268.554	50	87
268.195	268.554	74	85
268.195	268.554	77	85
268.195	268.554	81	90
268.195	268.554	86	100
269.504	269.863	38	73
269.504	269.863	41	73
269.504	269.863	45	73
269.504	269.863	50	87
269.504	269.863	77	85
269.504	269.863	81	85
269.504	269.863	86	98
269.504	269.863	89	100
270.813	271.025	52	42
270.813	271.025	60	50
270.813	271.025	69	42
270.813	271.025	76	50
272.089	272.307	52	42
272.089	272.307	59	50
272.089	272.307	68	42
272.089	272.307	76	50
273.479	274.765	45	36
273.479	276.017	64	33
273.479	274.655	73	38
273.696	274.129	52	22
273.912	274.765	57	27
274.129	274.765	52	22
274.345	274.765	61	36
274.551	274.765	74	36
274.655	274.765	73	31
274.758	276.026	44	36
274.758	276.026	71	36
274.964	275.38	52	26
275.171	276.026	59	31
275.171	276.026	74	38
275.38	276.026	52	26
275.59	276.026	62	35
275.59	276.026	77	42
276.017	277.282	45	33
276.017	277.273	64	33
276.017	277.273	76	40
276.226	276.642	52	23
276.434	277.282	61	26
276.642	277.282	52	22
276.851	277.282	57	36
276.851	277.282	73	34
277.273	278.542	44	36
277.273	278.534	64	33
277.273	278.542	76	40
277.479	277.892	52	27
277.685	278.542	56	31
277.892	278.542	52	26
278.098	278.542	59	35
278.098	278.542	74	34
278.534	279.795	45	34
278.534	281.016	64	38
278.534	279.677	73	38
278.744	279.164	52	27
278.954	279.795	57	29
279.164	279.795	52	26
279.373	279.795	61	36
279.576	279.795	74	35
279.677	279.795	73	31
279.778	281.033	44	36
279.778	281.033	71	36
279.98	280.387	52	27
280.183	281.033	59	31
280.183	281.033	74	38
280.387	281.033	52	27
280.591	281.033	62	35
280.591	281.033	77	42
281.016	282.265	45	33
281.016	282.256	64	33
281.016	282.256	76	40
281.221	281.63	52	23
281.425	282.265	61	27
281.63	282.265	52	22
281.834	282.265	57	36
281.834	282.265	73	34
282.256	283.506	44	38
282.256	283.516	64	47
282.256	283.516	76	47
282.462	282.873	52	28
282.667	283.516	56	35
282.873	283.516	52	28
283.079	283.516	59	35
283.079	283.516	74	45
283.506	284.77	44	38
283.506	284.77	65	53
283.506	284.77	77	53
283.711	284.119	53	30
283.915	284.77	56	36
284.119	284.77	53	31
284.324	284.77	59	39
284.324	284.77	74	49
284.753	286.012	45	47
284.753	286.018	66	57
284.753	286.018	78	57
284.96	285.375	54	33
285.168	286.018	57	36
285.375	286.018	54	33
285.583	286.018	62	41
285.583	286.018	74	49
286.012	287.312	45	48
286.012	287.312	67	53
286.012	287.312	73	53
286.228	286.654	57	35
286.443	286.864	64	40
286.443	287.312	82	61
286.654	287.312	57	35
286.864	287.312	64	44
286.864	287.312	81	55
287.294	288.572	50	39
287.294	288.572	69	33
287.294	288.572	79	50
287.505	287.924	57	24
287.715	288.572	62	26
287.924	288.572	57	22
288.131	288.572	66	31
288.131	288.572	78	45
288.564	289.854	42	38
288.564	289.854	64	49
288.564	289.854	73	49
288.779	289.202	54	30
288.993	289.854	61	33
288.993	289.854	79	53
289.202	289.854	54	29
289.411	289.854	58	38
289.411	289.854	78	45
289.837	291.103	47	36
289.837	291.103	66	33
289.837	291.094	76	48
290.048	290.463	54	25
290.255	291.103	59	28
290.463	291.103	54	26
290.671	291.103	62	31
290.671	291.103	74	45
291.094	292.352	44	36
291.094	292.344	64	33
291.094	292.344	76	40
291.3	291.711	52	27
291.505	292.352	62	29
291.711	292.352	52	27
291.917	292.352	59	35
291.917	292.352	74	34
292.344	293.602	45	33
292.344	293.602	64	33
292.344	293.602	76	40
292.55	292.961	52	28
292.755	293.602	61	29
292.961	293.602	52	28
293.167	293.602	57	36
293.167	293.602	73	34
293.596	294.874	40	33
293.596	294.874	62	33
293.596	294.874	77	51
293.805	294.225	52	29
294.015	294.874	59	29
294.015	294.874	76	36
294.225	294.874	52	29
294.225	294.874	74	31
294.436	294.874	56	36
294.436	294.874	73	35
294.649	294.874	71	29
294.864	296.158	45	33
294.864	295.295	61	28
294.864	296.171	69	35
295.08	295.511	52	26
295.295	296.171	61	26
295.511	296.171	52	26
295.511	296.171	71	38
295.727	296.171	57	30
295.727	296.158	73	43
295.943	296.171	74	46
296.158	297.445	45	44
296.158	297.445	67	54
296.158	297.445	73	54
296.371	296.793	57	36
296.584	297.002	64	38
296.584	297.445	82	59
296.793	297.445	57	36
297.002	297.445	64	44
297.002	297.445	81	54
297.428	298.706	50	39
297.428	298.706	69	52
297.428	298.706	79	52
297.637	298.054	57	26
297.846	298.706	62	26
298.054	298.706	57	26
298.262	298.706	66	31
298.262	298.706	78	49
298.695	299.985	42	40
298.695	299.985	64	50
298.695	299.985	73	50
298.909	299.332	54	30
299.123	299.985	61	36
299.123	299.985	79	56
299.332	299.985	54	29
299.541	299.985	58	38
299.541	299.985	78	51
299.967	301.241	47	36
299.967	301.241	66	33
299.967	301.231	76	48
300.178	300.594	54	26
300.386	301.241	59	26
300.594	301.241	54	26
300.801	301.241	62	31
300.801	301.241	74	45
301.231	302.492	44	36
301.231	302.481	64	43
301.231	302.481	76	43
301.437	301.848	52	27
301.642	302.492	62	28
301.848	302.492	52	28
302.054	302.492	59	35
302.054	302.492	74	36
302.481	303.743	45	33
302.481	303.743	64	43
302.481	303.743	76	43
302.687	303.098	52	27
302.893	303.743	61	29
303.098	303.743	52	26
303.304	303.743	57	36
303.304	303.743	73	34
303.733	305.044	40	33
303.733	305.044	62	33
303.733	305.044	77	51
303.946	304.374	52	26
304.16	305.044	59	29
304.16	305.044	76	36
304.374	305.044	52	27
304.374	305.044	74	31
304.59	305.044	56	36
304.59	305.044	73	35
304.807	305.044	71	29
305.025	306.363	45	33
305.025	305.903	61	31
305.025	306.363	69	35
305.245	305.684	52	23
305.464	306.363	57	26
305.684	306.363	52	23
305.903	306.373	61	23
306.363	307.536	45	72
306.363	307.536	48	72
306.363	307.536	52	72
306.363	307.536	57	85
306.363	307.536	69	89
306.557	307.536	71	83
306.654	307.536	72	75
306.751	307.536	74	76
306.848	307.536	76	78
306.945	307.536	78	80
307.042	307.536	80	82
307.14	307.536	81	83
307.239	307.536	83	85
307.337	307.536	84	87
307.437	307.536	86	88
307.536	307.633	52	62
307.536	307.633	56	74
307.536	307.633	76	81
307.536	307.633	88	96
307.73	307.83	53	55
307.73	307.83	57	65
307.73	307.83	75	72
307.73	307.83	87	85
307.93	308.027	52	60
307.93	308.027	56	71
307.93	308.027	76	78
307.93	308.027	88	92
308.124	308.223	53	55
308.124	308.223	57	65
308.124	308.223	75	72
308.124	308.223	87	85
308.323	308.439	52	62
308.323	308.439	56	74
308.323	308.439	76	79
308.323	308.439	88	94
308.786	309.96	43	72
308.786	309.96	47	72
308.786	309.96	50	72
308.786	309.96	55	85
308.786	309.96	67	89
308.98	309.96	69	83
309.078	309.96	71	75
309.175	309.96	72	76
309.271	309.96	74	78
309.368	309.96	76	80
309.466	309.96	78	82
309.564	309.96	79	83
309.662	309.96	81	85
309.761	309.96	83	87
309.86	309.96	85	88
309.96	310.057	50	63
309.96	310.057	54	75
309.96	310.057	74	80
309.96	310.057	86	95
310.154	310.253	52	55
310.154	310.253	55	65
310.154	310.253	73	73
310.154	310.253	85	86
310.353	310.45	50	61
310.353	310.45	54	72
310.353	310.45	74	78
310.353	310.45	86	92
310.547	310.647	52	54
310.547	310.647	55	64
310.547	310.647	73	72
310.547	310.647	85	85
310.746	310.862	50	62
310.746	310.862	54	74
310.746	310.862	74	80
310.746	310.862	86	95
311.21	312.095	41	57
311.21	312.089	45	57
311.21	312.089	48	57
311.21	312.095	53	68
311.32	312.095	77	77
311.43	312.095	81	77
311.539	312.095	84	81
311.649	312.095	89	87
311.759	312.095	93	80
311.869	312.095	96	79
311.979	312.095	101	75
312.089	312.309	45	55
312.089	312.309	48	55
312.089	312.309	52	55
312.089	312.309	57	65
312.089	312.199	100	89
312.54	312.991	46	58
312.54	312.983	50	58
312.54	312.991	53	58
312.54	312.991	58	69
312.54	312.991	74	90
312.651	312.983	77	81
312.762	312.991	82	81
312.872	312.991	86	81
312.983	313.44	47	56
312.983	313.44	50	56
312.983	313.44	56	56
312.983	313.44	59	67
312.983	313.44	77	90
313.094	313.44	80	81
313.205	313.44	86	81
313.315	313.44	89	81
313.426	313.893	48	54
313.426	313.893	52	54
313.426	313.893	57	54
313.426	313.893	60	64
313.426	313.893	76	90
313.537	313.893	81	79
313.647	313.893	84	79
313.764	313.893	88	79
313.88	314.347	50	56
313.88	314.347	53	56
313.88	314.347	59	56
313.88	314.347	62	67
313.88	314.347	74	88
313.993	314.347	77	78
314.105	314.347	83	78
314.218	314.347	86	78
314.331	314.791	52	52
314.331	314.803	57	52
314.331	314.803	60	52
314.331	314.791	64	62
314.331	314.803	72	85
314.446	314.803	76	76
314.561	314.803	81	76
314.676	314.803	84	76
314.791	315.278	52	52
314.791	315.278	56	52
314.791	315.278	59	52
314.791	315.278	64	62
314.791	315.278	71	86
314.91	315.278	76	75
315.03	315.278	80	76
315.149	315.278	83	76
315.269	315.469	45	59
315.269	315.402	57	66
315.269	315.402	69	78
315.402	315.535	59	59
315.402	315.535	71	70
315.535	315.668	60	58
315.535	315.668	72	69
315.668	315.801	59	65
315.668	315.801	71	77
315.801	315.935	60	60
315.801	315.935	72	71
315.935	316.076	62	61
315.935	316.076	74	72
316.076	316.484	40	51
316.076	316.484	52	61
316.076	316.484	64	74
316.076	316.484	76	88
316.209	316.478	42	47
316.209	316.478	54	56
316.342	316.484	44	47
316.342	316.484	56	56
316.478	316.611	42	50
316.478	316.611	54	59
316.478	316.611	57	66
316.478	316.611	69	78
316.611	316.743	44	51
316.611	316.743	56	61
316.611	316.743	59	59
316.611	316.743	71	70
316.743	316.876	45	45
316.743	316.876	57	53
316.743	316.876	60	58
316.743	316.876	72	69
316.876	317.282	47	56
316.876	317.282	59	65
316.876	317.008	71	77
317.008	317.14	60	60
317.008	317.14	72	71
317.14	317.282	62	61
317.14	317.282	74	72
317.282	317.69	40	51
317.282	317.69	52	61
317.282	317.69	64	74
317.282	317.69	76	88
317.415	317.685	42	47
317.415	317.685	54	56
317.548	317.69	44	47
317.548	317.69	56	56
317.685	317.817	42	50
317.685	317.817	54	59
317.685	317.817	69	71
317.685	317.817	81	84
317.817	317.949	44	51
317.817	317.949	56	61
317.817	317.949	71	64
317.817	317.949	83	76
317.949	318.082	45	45
317.949	318.082	57	53
317.949	318.082	72	64
317.949	318.082	84	76
318.082	318.488	47	59
318.082	318.488	59	70
318.082	318.214	71	72
318.082	318.214	83	85
318.214	318.347	72	65
318.214	318.347	84	77
318.347	318.488	74	65
318.347	318.488	86	77
318.488	318.896	40	51
318.488	318.896	52	61
318.488	318.896	76	80
318.488	318.896	88	95
318.621	318.891	42	47
318.621	318.891	54	56
318.754	318.896	44	47
318.754	318.896	56	56
318.891	319.023	42	50
318.891	319.023	54	59
318.891	319.023	69	71
318.891	319.023	81	84
319.023	319.155	44	51
319.023	319.155	56	61
319.023	319.155	71	64
319.023	319.155	83	76
319.155	319.288	45	45
319.155	319.288	57	53
319.155	319.288	72	64
319.155	319.288	84	76
319.288	319.693	47	59
319.288	319.693	59	70
319.288	319.42	71	72
319.288	319.42	83	85
319.42	319.552	72	65
319.42	319.552	84	77
319.552	319.693	74	65
319.552	319.693	86	77
319.693	320.111	40	57
319.693	320.111	52	68
319.693	320.104	76	80
319.693	320.111	88	95
319.828	320.111	42	50
319.828	320.111	54	59
319.963	320.111	44	48
319.963	320.111	56	57
320.104	320.305	45	56
320.104	320.305	57	67
320.104	320.305	72	80
320.104	320.305	76	80
320.104	320.305	81	80
320.104	320.305	84	95
320.238	320.372	47	49
320.238	320.372	59	58
320.372	320.506	48	49
320.372	320.506	60	58
320.506	320.643	47	56
320.506	320.643	59	66
320.643	320.78	48	50
320.643	320.78	60	59
320.78	320.917	50	50
320.78	320.917	62	59
320.917	321.346	52	59
320.917	321.346	64	70
320.917	321.346	71	77
320.917	321.338	76	77
320.917	321.346	80	77
320.917	321.346	83	91
321.338	321.552	45	56
321.338	321.552	57	67
321.338	321.552	72	80
321.338	321.552	76	80
321.338	321.552	81	80
321.338	321.552	84	95
321.473	321.608	47	49
321.473	321.608	59	58
321.608	321.743	48	49
321.608	321.743	60	58
321.743	321.88	47	56
321.743	321.88	59	66
321.88	322.017	48	50
321.88	322.017	60	59
322.017	322.154	50	50
322.017	322.154	62	59
322.154	322.582	52	59
322.154	322.582	64	70
322.154	322.582	71	77
322.154	322.574	76	77
322.154	322.582	80	77
322.154	322.582	83	91
322.574	322.783	33	56
322.574	322.783	45	67
322.574	322.783	72	80
322.574	322.783	76	80
322.574	322.783	81	80
322.574	322.783	84	95
322.709	322.845	35	49
322.709	322.845	47	58
322.845	322.98	36	49
322.845	322.98	48	58
322.98	323.116	35	56
322.98	323.116	47	66
323.116	323.251	36	50
323.116	323.251	48	59
323.251	323.386	38	50
323.251	323.386	50	59
323.386	323.826	40	59
323.386	323.826	52	70
323.386	323.826	71	77
323.386	323.816	76	77
323.386	323.826	80	91
323.386	323.826	83	91
323.816	324.219	33	61
323.816	324.219	45	72
323.816	324.219	69	80
323.816	324.219	72	80
323.816	324.219	76	80
323.816	324.219	81	95
325.089	325.502	33	49
325.089	325.502	36	49
325.089	325.502	40	49
325.089	325.502	45	58
325.089	325.502	57	72
325.089	325.502	60	72
325.089	325.502	64	72
325.089	325.502	69	85
325.502	325.927	33	52
325.502	325.927	36	52
325.502	325.927	40	52
325.502	325.927	45	62
325.502	325.927	57	74
325.502	325.927	60	74
325.502	325.927	64	74
325.502	325.927	69	88
325.927	326.388	33	56
325.927	326.388	36	56
325.927	326.388	40	56
325.927	326.388	45	67
325.927	326.388	57	76
325.927	326.388	60	76
325.927	326.388	64	76
325.927	326.388	69	90
326.388	326.849	33	57
326.388	326.849	36	57
326.388	326.849	40	57
326.388	326.849	45	68
326.388	326.849	57	77
326.388	326.849	60	77
326.388	326.849	64	77
326.388	326.849	69	91
