OnsetTime	OffsetTime	MidiPitch	Velocity
0.500004	1.55244	43	35
0.500004	1.55244	55	41
0.500004	0.767863	67	53
0.500004	0.767863	71	49
0.501117	0.767863	62	49
0.767863	1.03571	62	46
0.767863	1.03571	67	49
0.767863	1.03571	71	46
0.901786	1.03571	66	49
1.03571	1.55244	65	53
1.03571	1.30355	71	49
1.30355	1.57141	38	29
1.30355	1.57141	50	36
1.30355	1.55244	64	49
1.30355	1.57141	71	46
1.43748	1.57141	63	53
1.57141	2.11643	45	33
1.57141	2.11643	57	39
1.57141	1.97785	62	57
1.57141	1.83927	66	51
1.57141	1.83927	72	51
1.83927	2.11643	38	37
1.83927	2.11643	50	44
1.83927	2.11643	66	51
1.83927	2.11643	72	48
1.97785	2.11643	62	51
2.11643	3.20409	43	39
2.11643	3.20409	55	47
2.11643	2.38428	62	53
2.11643	2.38428	67	59
2.11643	2.38428	71	53
2.38428	2.64544	62	49
2.38428	2.64544	67	53
2.38428	2.65213	71	49
2.51821	2.65213	66	53
2.65213	3.20409	65	58
2.65213	2.91998	71	52
2.91998	3.20409	38	38
2.91998	3.20409	50	45
2.91998	3.20409	64	49
2.91998	3.20409	71	46
3.05571	3.20409	63	50
3.19144	3.68223	45	35
3.19144	3.68223	57	41
3.19144	3.61306	62	57
3.19144	3.46743	66	51
3.19144	3.46743	72	51
3.46743	3.75869	38	33
3.46743	3.75869	50	39
3.46743	3.68223	66	50
3.46743	3.75869	72	47
3.61306	3.75869	62	50
3.75869	4.86474	43	35
3.75869	5.43958	55	41
3.75869	5.42673	67	44
3.75869	5.42673	71	44
3.75869	5.27758	74	51
3.75869	5.43958	79	68
4.03647	4.26147	50	44
4.17284	4.3092	52	44
4.3092	4.44808	50	47
4.58697	4.72585	50	44
4.86474	5.42673	43	35
4.86474	5.43958	57	41
4.86474	5.43958	66	40
4.86474	5.43958	72	49
4.86474	5.43958	78	59
5.13997	5.43958	50	41
5.27758	5.43958	74	57
5.42673	6.53413	43	41
5.42673	7.1116	59	41
5.42673	7.1116	67	51
5.42673	7.1116	71	51
5.42673	5.7071	76	61
5.7071	5.93108	50	44
5.7071	5.8881	76	53
5.7976	5.93108	78	53
5.84285	5.97859	52	44
5.8881	5.97859	76	53
5.97859	6.11748	50	47
5.97859	7.1116	74	58
6.25636	6.39525	50	44
6.53413	7.1116	43	35
6.53413	7.1116	57	41
6.53413	7.1116	60	35
6.53413	7.1116	62	35
6.53413	7.1116	66	35
6.53413	6.96437	69	35
6.53413	7.1116	72	51
6.81715	7.1116	50	36
6.96437	7.1116	69	48
7.1116	8.25672	43	30
7.1116	8.73119	55	37
7.1116	7.97369	62	39
7.1116	7.97369	67	39
7.1116	7.63371	71	57
7.25464	7.63371	72	50
7.39768	7.63371	50	39
7.39768	7.68377	74	53
7.54073	7.68377	52	39
7.68377	7.82873	50	41
7.68377	8.73119	74	53
7.97369	8.1152	50	39
7.97369	8.1152	59	38
8.1152	8.40086	62	34
8.25672	8.83328	43	37
8.25672	8.83328	54	37
8.25672	8.545	60	38
8.40086	8.68914	62	34
8.545	8.83328	50	37
8.545	8.73119	60	38
8.68914	8.83328	62	34
8.83328	10.0094	43	35
8.83328	10.5009	55	41
8.83328	9.129	59	42
9.129	9.37276	50	44
9.129	10.5009	59	38
9.129	9.37276	62	38
9.27686	9.42428	52	44
9.27686	9.42428	64	35
9.42428	9.5686	50	47
9.42428	9.5686	62	40
9.5686	9.71292	64	36
9.71292	9.86116	50	44
9.71292	9.86116	67	42
9.86116	10.2997	64	39
10.0094	10.6177	43	37
10.0094	10.6177	57	41
10.0094	10.6177	60	40
10.0094	10.5009	66	46
10.2997	10.6177	50	41
10.2997	10.5009	64	42
10.4529	10.6177	62	42
10.6177	11.7224	43	38
10.6177	12.324	55	46
10.6177	12.2833	67	48
10.6177	12.2833	71	48
10.6177	12.1341	74	57
10.6177	12.324	79	73
10.8966	11.1195	50	48
11.0317	11.1668	52	48
11.1668	11.3057	50	50
11.4446	11.5835	50	48
11.7224	12.2833	43	35
11.7224	12.324	57	41
11.7224	12.324	66	40
11.7224	12.324	72	53
11.7224	12.324	78	60
11.9972	12.324	50	41
12.1341	12.324	74	59
12.2833	13.388	43	41
12.2833	13.8569	59	41
12.2833	13.8569	67	51
12.2833	13.8569	71	51
12.2833	12.5621	76	61
12.5621	12.7851	50	44
12.5621	12.7423	76	53
12.6522	12.7851	78	53
12.6973	12.8324	52	44
12.7423	12.8324	76	53
12.8324	12.9713	50	47
12.8324	13.8569	74	58
13.1102	13.2491	50	44
13.388	13.9595	43	35
13.388	13.9595	57	41
13.388	13.8569	60	35
13.388	13.8569	62	35
13.388	13.8569	66	35
13.388	13.8146	69	35
13.388	13.8569	72	51
13.6697	13.9595	50	36
13.8146	13.9595	69	48
13.9595	15.1047	43	30
13.9595	15.5791	55	37
13.9595	14.8216	62	39
13.9595	14.8216	67	39
13.9595	14.4816	71	57
14.1026	14.4816	72	50
14.2456	14.4816	50	39
14.2456	14.5317	74	53
14.3887	14.5317	52	39
14.5317	14.6767	50	41
14.5317	15.5791	74	53
14.8216	15.0386	50	39
14.8216	15.0386	59	38
14.9631	15.2488	62	34
15.1047	15.6812	43	37
15.1047	15.6812	54	37
15.1047	15.3929	60	38
15.2488	15.5371	62	34
15.3929	15.6812	50	37
15.3929	15.5791	60	38
15.5371	15.6812	62	34
15.6812	16.8574	43	35
15.6812	17.3394	55	41
15.6812	15.9769	59	42
15.9769	16.2207	50	44
15.9769	17.3394	59	38
15.9769	16.2207	62	38
16.1248	16.2722	52	44
16.1248	16.2722	64	35
16.2722	16.4165	50	47
16.2722	16.4165	62	40
16.4165	16.5609	64	36
16.5609	16.7091	50	44
16.5609	16.7091	67	42
16.7091	17.1477	64	39
16.8574	17.4478	43	35
16.8574	17.4478	57	41
16.8574	17.4478	60	38
16.8574	17.3394	66	46
17.1477	17.4478	50	41
17.1477	17.3394	64	42
17.2947	17.4478	62	42
17.4478	18.5565	43	39
17.4478	18.5565	58	48
17.4478	18.5565	67	49
17.4478	18.5565	74	59
17.4478	18.5565	79	70
17.7295	17.9534	50	49
17.8652	18.0009	51	49
18.0009	18.1398	50	52
18.2787	18.4176	50	49
18.5565	19.1166	41	36
18.5565	19.1166	63	44
18.5565	19.1166	65	42
18.5565	19.1166	69	50
18.5565	19.1166	77	62
18.8305	19.1166	53	44
18.9674	19.1166	72	60
19.1166	20.2187	46	44
19.1166	20.8015	62	44
19.1166	20.2187	65	53
19.1166	20.8015	70	53
19.1166	19.3954	74	64
19.3954	19.6184	53	46
19.3954	19.6184	74	59
19.5306	19.6657	55	46
19.5306	19.6657	75	59
19.6657	19.804	53	49
19.6657	20.8015	77	64
19.9422	20.0805	53	46
20.2187	20.8015	46	36
20.2187	20.8015	63	44
20.2187	20.8015	65	36
20.2187	20.8015	69	36
20.2187	20.8015	75	59
20.507	20.8015	53	37
20.6543	20.8015	72	49
20.8015	21.8951	46	36
20.8015	22.3598	62	44
20.8015	22.3598	65	38
20.8015	22.3598	70	41
20.8015	21.078	74	64
20.9397	21.2162	75	57
21.078	21.3061	53	46
21.078	21.3061	74	60
21.2162	21.3545	55	46
21.2162	21.3545	75	55
21.3545	21.4909	53	49
21.3545	21.4909	77	62
21.4909	21.6272	79	56
21.6272	21.7612	53	46
21.6272	21.7612	81	61
21.7612	22.3598	79	53
21.8951	22.4606	46	36
21.8951	22.4606	63	44
21.8951	22.4606	69	39
21.8951	22.3598	77	61
22.0361	22.3598	75	61
22.1772	22.4606	53	44
22.1772	22.3598	74	67
22.3183	22.4606	72	61
22.4606	23.5655	46	36
22.4606	24.1402	62	44
22.4606	24.1402	65	45
22.4606	24.1402	70	45
22.4606	22.7384	74	69
22.5995	22.8772	75	59
22.7384	22.9692	53	46
22.7384	22.9692	74	64
22.8772	23.0188	55	46
22.8772	23.0188	75	55
23.0188	23.1545	53	49
23.0188	23.1545	77	62
23.1545	23.2903	79	56
23.2903	23.4279	53	46
23.2903	23.4279	81	61
23.4279	24.16	79	53
23.5655	24.1402	46	40
23.5655	24.16	63	40
23.5655	24.16	69	55
23.5655	24.16	77	59
23.7064	24.16	75	59
23.8487	24.16	53	38
23.8487	24.1402	74	57
23.9925	24.16	72	56
24.1402	25.2557	46	35
24.1402	25.2557	62	42
24.1402	25.2557	65	44
24.1402	25.2557	70	52
24.1402	25.2557	74	67
24.4191	24.6491	53	39
24.5585	24.6979	55	39
24.6979	24.8374	53	44
24.9768	25.1162	53	39
25.2557	25.8318	45	31
25.2557	25.8318	57	39
25.2557	25.8318	62	42
25.2557	25.8318	66	42
25.2557	25.6826	72	50
25.2557	25.5403	74	56
25.5403	25.8318	50	39
25.5403	25.8318	74	51
25.6826	25.8318	72	51
25.8318	26.9551	43	35
25.8318	26.1106	55	42
25.8318	26.9551	62	44
25.8318	26.9551	67	52
25.8318	26.6692	71	61
26.1106	26.3407	55	39
26.2501	26.3895	56	39
26.3895	26.5293	55	44
26.6692	26.8121	55	39
26.6692	26.8121	72	51
26.8121	26.9551	74	51
26.9551	27.5225	48	31
26.9551	27.5225	55	39
26.9551	27.5225	67	42
26.9551	27.5225	72	42
26.9551	27.3733	75	56
27.2339	27.5225	57	39
27.2339	27.5225	77	51
27.3733	27.5225	75	51
27.5225	28.6618	50	35
27.5225	28.0341	59	42
27.5225	28.0835	67	52
27.5225	28.0341	74	67
27.8013	28.0341	62	39
27.8013	28.0341	71	51
27.9424	28.0835	64	39
27.9424	28.0835	72	51
28.0835	28.3759	62	44
28.0835	28.6618	67	44
28.0835	28.3759	71	47
28.0835	28.6368	74	60
28.3759	28.6368	62	39
28.3759	28.6368	71	49
28.5188	28.6618	72	49
28.6618	29.2464	50	31
28.6618	28.949	60	39
28.6618	29.2464	62	40
28.6618	29.2464	66	40
28.6618	29.0972	71	53
28.949	29.2464	60	37
28.949	29.1407	69	49
29.0972	29.2464	71	49
29.2464	30.3062	43	35
29.2464	30.3062	59	41
29.2464	29.5216	62	49
29.2464	29.5216	67	53
29.5216	29.7895	62	46
29.5216	29.7895	67	49
29.5216	29.7895	71	46
29.6555	29.7895	66	49
29.7895	30.3062	65	53
29.7895	30.0573	71	49
30.0573	30.3252	38	29
30.0573	30.3252	50	36
30.0573	30.3062	64	49
30.0573	30.3252	71	46
30.1912	30.3252	63	53
30.3252	30.7778	45	33
30.3252	30.7778	57	39
30.3252	30.7316	62	57
30.3252	30.593	66	51
30.3252	30.593	72	51
30.593	30.8702	38	37
30.593	30.8702	50	44
30.593	30.7778	66	51
30.593	30.8702	72	48
30.7316	30.8702	62	51
30.8702	31.9575	43	39
30.8702	31.9575	55	47
30.8702	31.138	62	53
30.8702	31.138	67	59
30.8702	31.138	71	53
31.138	31.3992	62	49
31.138	31.3992	67	53
31.138	31.4059	71	49
31.272	31.4059	66	53
31.4059	31.9575	65	58
31.4059	31.6737	71	52
31.6737	31.9575	38	38
31.6737	31.9575	50	45
31.6737	31.9575	64	49
31.6737	31.9575	71	46
31.8095	31.9575	63	50
31.9452	32.4142	45	35
31.9452	32.4142	57	41
31.9452	32.3494	62	57
31.9452	32.2131	66	51
31.9452	32.2131	72	51
32.2131	32.4858	38	33
32.2131	32.4858	50	39
32.2131	32.4142	66	50
32.2131	32.4858	72	47
32.3494	32.4858	62	50
32.4858	33.0078	43	39
32.4858	33.0078	55	47
32.4858	32.7501	62	53
32.4858	32.7501	67	59
32.4858	32.7501	71	53
32.7501	33.0078	62	49
32.7501	33.0078	67	53
32.7501	33.0144	71	49
32.8823	33.0144	66	53
33.0144	33.5586	55	47
33.0144	33.5466	62	52
33.0144	33.2787	67	52
33.0144	33.2787	71	58
33.2787	33.5466	67	46
33.2787	33.5466	71	49
33.2787	33.5466	74	46
33.4126	33.5586	70	50
33.5466	34.0752	62	41
33.5466	34.0752	67	51
33.5466	33.8086	71	51
33.5466	33.8086	74	57
33.8086	34.0752	71	47
33.8086	34.0752	74	50
33.8086	34.0752	79	47
33.9419	34.0752	73	50
34.0752	34.5905	67	47
34.0752	34.3361	74	53
34.0752	34.3361	79	59
34.0752	34.3361	83	53
34.3361	34.5905	74	49
34.3361	34.5905	79	53
34.3361	34.597	83	49
34.4665	34.597	78	53
34.597	35.1353	71	47
34.597	35.1233	74	52
34.597	34.8578	79	52
34.597	34.8578	83	58
34.8578	35.1233	79	46
34.8578	35.1233	83	49
34.8578	35.1233	86	46
34.9906	35.1353	82	50
35.1233	35.6417	74	41
35.1233	35.6417	79	50
35.1233	35.3842	83	50
35.1233	35.3842	86	50
35.3842	35.6417	83	46
35.3842	35.6417	86	49
35.3842	35.6417	91	46
35.513	35.6417	85	49
35.6417	36.1612	79	41
35.6417	35.9015	83	50
35.6417	35.9015	86	56
35.6417	35.9015	91	50
35.9015	36.1612	83	45
35.9015	36.1612	86	49
35.9015	36.1612	91	45
36.0313	36.1796	82	48
36.1612	36.6807	79	39
36.1612	36.421	83	48
36.1612	36.421	86	51
36.1612	36.421	91	48
36.421	36.6807	83	42
36.421	36.6807	86	47
36.421	36.6807	91	42
36.5508	36.6872	82	46
36.6807	37.2071	79	38
36.6807	36.9405	83	46
36.6807	36.9405	86	49
36.6807	36.9405	91	46
36.9405	37.2071	83	39
36.9405	37.2071	86	44
36.9405	37.2071	91	39
37.0738	37.2071	82	44
37.2071	37.7361	79	36
37.2071	37.468	83	44
37.2071	37.468	86	48
37.2071	37.468	91	44
37.468	37.7361	83	38
37.468	37.7361	86	40
37.468	37.7361	91	38
37.6019	37.7549	82	40
37.7361	38.2789	79	34
37.7361	38.0034	83	40
37.7361	38.0034	86	45
37.7361	38.0034	91	40
38.0034	38.2789	83	36
38.0034	38.2789	86	39
38.0034	38.2789	91	36
38.1412	38.2858	82	38
38.2789	38.7588	79	31
38.2789	38.5529	83	39
38.2789	38.5529	86	42
38.2789	38.5529	91	39
38.5529	38.7588	83	34
38.5529	38.7588	86	37
38.5529	38.8321	91	34
38.6925	41.9338	82	36
38.8321	41.9338	79	31
38.8321	41.9338	83	33
38.8321	41.9338	86	33
38.8321	41.9338	91	33
39.0833	39.2104	43	49
39.2104	39.3389	43	42
39.3389	39.4694	43	49
39.4694	39.6004	43	42
39.6004	39.7334	43	49
39.7334	39.8674	43	42
39.8674	40.0046	43	49
40.0046	40.1446	43	42
40.1446	40.2812	43	49
40.2812	40.4183	43	42
40.4183	40.6898	43	49
40.6898	40.8263	43	42
40.8263	40.963	43	42
40.963	41.2347	43	45
41.2347	41.3721	43	40
41.3721	41.5108	43	40
41.5108	41.7916	43	44
41.7916	42.0995	43	38
42.0995	43.2046	39	48
42.0995	43.8235	51	58
42.0995	43.7666	75	61
42.0995	43.7666	79	61
42.0995	43.6174	82	72
42.0995	43.8235	87	92
42.3812	42.6022	46	56
42.5151	42.649	48	56
42.649	42.7879	46	59
42.9268	43.0657	46	56
43.2046	43.7666	39	44
43.2046	43.8235	53	53
43.2046	43.8235	74	52
43.2046	43.8235	80	62
43.2046	43.8235	86	80
43.4798	43.8235	46	53
43.6174	43.8235	82	68
43.7666	44.87	39	53
43.7666	45.4428	55	53
43.7666	45.4428	75	60
43.7666	45.4428	79	60
43.7666	44.0454	84	67
44.0454	44.2674	46	56
44.0454	44.2248	84	59
44.1351	44.2674	86	59
44.1799	44.3145	48	56
44.2248	44.3145	84	59
44.3145	44.4534	46	59
44.3145	45.4428	82	66
44.5923	44.7311	46	56
44.87	45.4428	39	44
44.87	45.4428	53	53
44.87	45.4428	70	48
44.87	45.4428	74	48
44.87	45.4428	80	64
45.1544	45.4428	46	46
45.2986	45.4428	77	57
45.4428	46.5866	39	39
45.4428	47.0611	51	47
45.4428	46.3049	70	51
45.4428	46.3049	75	51
45.4428	45.965	79	68
45.5859	45.965	80	60
45.7289	45.965	46	50
45.7289	46.015	82	65
45.872	46.015	48	50
46.015	46.16	46	53
46.015	47.0611	82	65
46.3049	46.5209	46	44
46.3049	46.5209	55	42
46.4458	46.7308	58	38
46.5866	47.1632	39	41
46.5866	47.1632	50	41
46.5866	46.8749	56	42
46.7308	47.019	58	38
46.8749	47.1632	46	41
46.8749	47.0611	56	42
47.019	47.1632	58	38
47.1632	48.3393	39	39
47.1632	48.8296	51	47
47.1632	47.4589	55	48
47.4589	47.7027	46	49
47.4589	48.8296	55	42
47.4589	47.7027	58	42
47.6068	47.7542	48	49
47.6068	47.7542	60	39
47.7542	47.8985	46	52
47.7542	47.8985	58	46
47.8985	48.0428	60	40
48.0428	48.1911	46	49
48.0428	48.1911	63	48
48.1911	48.6296	60	44
48.3393	48.9434	39	41
48.3393	48.9434	53	47
48.3393	48.9434	56	46
48.3393	48.8296	62	51
48.6296	48.9434	46	47
48.6296	48.8296	60	48
48.7828	48.9434	58	48
48.9434	50.0457	39	48
48.9434	50.6058	51	58
48.9434	50.6058	75	61
48.9434	50.6058	79	61
48.9434	50.4566	82	72
48.9434	50.6058	87	89
49.2223	49.4433	46	56
49.3562	49.4901	48	56
49.4901	49.629	46	59
49.7679	49.9068	46	56
50.0457	50.6058	39	44
50.0457	50.6058	53	53
50.0457	50.6058	74	52
50.0457	50.6058	80	62
50.0457	50.6058	86	80
50.3197	50.6058	46	53
50.4566	50.6058	82	68
50.6058	51.7292	39	53
50.6058	52.2077	55	53
50.6058	52.2077	75	60
50.6058	52.1647	79	57
50.6058	50.8846	84	71
50.8846	51.1076	46	56
50.8846	51.0648	84	57
50.9747	51.1076	86	57
51.0198	51.1549	48	56
51.0648	51.1549	84	57
51.1549	51.2938	46	59
51.1549	52.2077	82	65
51.4327	51.581	46	56
51.7292	52.312	39	41
51.7292	52.312	51	50
51.7292	52.2077	67	41
51.7292	52.2077	69	41
51.7292	52.2077	73	41
51.7292	52.2077	81	61
52.0175	52.312	45	39
52.1647	52.312	79	52
52.312	53.4571	38	34
52.312	54.0337	50	39
52.312	53.1741	69	44
52.312	53.1741	74	44
52.312	52.8341	78	62
52.455	52.8341	79	55
52.5981	52.8341	45	42
52.5981	52.8841	81	58
52.7411	52.8841	47	42
52.8841	53.0291	45	46
52.8841	54.0423	81	58
53.1741	53.3651	45	39
53.1741	53.3651	54	38
53.3156	53.6012	57	34
53.4571	54.0337	38	37
53.4571	54.0423	52	37
53.4571	53.7454	55	38
53.6012	53.8895	57	34
53.7454	54.0423	45	37
53.7454	54.0423	55	38
53.8895	54.0423	57	35
54.0337	55.2098	38	36
54.0337	55.7001	50	42
54.0337	54.3294	54	44
54.3294	54.5731	45	46
54.3294	55.7001	54	39
54.3294	54.5731	57	39
54.4772	54.6247	47	46
54.4772	54.6247	59	37
54.6247	54.769	45	49
54.6247	54.769	57	42
54.769	54.9133	59	38
54.9133	55.0615	45	47
54.9133	55.0615	57	46
55.0615	55.5001	59	41
55.2098	55.8139	38	39
55.2098	55.8139	52	45
55.2098	55.8139	55	44
55.2098	55.7001	61	49
55.5001	55.8139	45	46
55.5001	55.7001	59	47
55.6532	55.8139	57	47
55.8139	56.9186	38	48
55.8139	57.4806	50	58
55.8139	57.4806	74	61
55.8139	57.4806	78	61
55.8139	57.3314	81	72
55.8139	57.4806	86	89
56.0928	56.3157	45	56
56.2279	56.363	47	56
56.363	56.5019	45	59
56.6408	56.7797	45	56
56.9186	57.4806	38	44
56.9186	57.4806	52	53
56.9186	57.4806	73	52
56.9186	57.4806	79	62
56.9186	57.4806	85	75
57.1938	57.4806	45	53
57.3314	57.4806	81	67
57.4806	58.5877	38	53
57.4806	59.0622	54	53
57.4806	59.0622	74	60
57.4806	59.0622	78	60
57.4806	57.7594	83	75
57.7594	57.9846	45	56
57.7594	57.9417	83	59
57.8512	57.9846	85	59
57.8964	58.0322	47	56
57.9417	58.0322	83	59
58.0322	58.171	45	59
58.0322	59.0622	81	67
58.3099	58.4488	45	56
58.5877	59.1665	38	44
58.5877	59.1665	52	53
58.5877	59.0622	67	48
58.5877	59.0622	69	48
58.5877	59.0622	73	48
58.5877	59.0622	79	68
58.872	59.1665	45	46
59.0193	59.1665	76	60
59.1665	60.309	38	39
59.1665	60.8855	50	47
59.1665	60.0286	69	51
59.1665	60.0286	74	51
59.1665	59.6886	78	68
59.3095	59.6886	79	60
59.4526	59.6886	45	50
59.4526	59.7387	81	65
59.5956	59.7387	47	50
59.7387	59.8836	45	53
59.7387	60.92	81	65
60.0286	60.2435	45	44
60.0286	60.2435	54	42
60.1688	60.4531	57	38
60.309	60.8855	38	41
60.309	60.92	52	41
60.309	60.5972	55	42
60.4531	60.7414	57	38
60.5972	60.92	45	41
60.5972	60.92	55	42
60.7414	60.92	57	38
60.8855	62.0617	38	39
60.8855	62.552	50	47
60.8855	61.1812	54	48
61.1812	61.425	45	49
61.1812	62.552	54	42
61.1812	61.425	57	42
61.3291	61.4765	47	49
61.3291	61.4765	59	39
61.4765	61.6208	45	52
61.4765	61.6208	57	46
61.6208	61.7652	59	40
61.7652	61.9134	45	49
61.7652	61.9134	62	48
61.9134	62.352	59	44
62.0617	62.6658	38	41
62.0617	62.6658	52	47
62.0617	62.6658	55	46
62.0617	62.552	61	51
62.352	62.6658	45	47
62.352	62.552	59	48
62.5051	62.6658	57	48
62.6658	64.3532	38	52
62.6658	64.3532	50	63
62.6658	64.3288	74	60
62.6658	64.3288	78	60
62.6658	64.1797	81	72
62.6658	64.3532	86	94
62.9446	63.1646	45	60
63.078	63.2113	47	60
63.2113	63.3502	45	64
63.4891	63.628	45	60
63.7668	64.3532	40	48
63.7668	64.3532	52	58
63.7668	64.3532	73	57
63.7668	64.3532	79	69
63.7668	64.3532	85	82
64.0421	64.3532	45	58
64.1797	64.3532	69	68
64.1797	64.3532	81	68
64.3288	66.0009	42	58
64.3288	66.0009	54	58
64.3288	66.0009	71	63
64.3288	65.1557	74	63
64.3288	66.0009	78	63
64.3288	66.0009	83	82
64.6077	64.8307	45	60
64.7428	64.878	47	60
64.878	65.0168	45	64
65.1557	65.7152	45	60
65.1557	66.0009	74	82
65.1557	66.0009	86	91
65.4335	66.0009	40	48
65.4335	66.0009	52	58
65.4335	66.0009	73	52
65.4335	66.0009	79	57
65.4335	66.0009	85	79
65.7152	66.0009	45	50
65.858	66.0009	69	64
65.858	66.0009	81	71
66.0009	67.6035	42	58
66.0009	67.6035	54	58
66.0009	66.8375	71	67
66.0009	66.8375	74	66
66.0009	66.8375	78	66
66.0009	66.8375	83	88
66.2797	66.5098	45	60
66.4192	66.5586	47	60
66.5586	66.6981	45	64
66.8375	66.9792	45	61
66.8375	67.6035	74	79
66.8375	67.6035	86	86
67.1209	67.7078	39	48
67.1209	67.7078	51	58
67.1209	67.6035	72	48
67.1209	67.6035	79	48
67.1209	67.6035	84	72
67.4133	67.7078	45	46
67.5605	67.7078	69	56
67.5605	67.7078	81	60
67.7078	67.8105	63	33
67.7078	67.8105	72	45
67.8448	67.9475	65	35
67.8448	67.9475	74	47
67.9818	68.0859	67	37
67.9818	68.0859	75	49
68.1206	68.2248	69	38
68.1206	68.2248	77	51
68.2595	68.3623	67	40
68.2595	68.3623	75	53
68.3965	68.4993	69	38
68.3965	68.4993	77	51
68.5335	68.6377	67	38
68.5335	68.6377	75	51
68.6724	68.7766	65	38
68.6724	68.7766	74	51
68.8113	68.9122	63	40
68.8113	68.9122	72	53
68.9458	69.0467	65	37
68.9458	69.0467	74	49
69.0803	69.1831	63	37
69.0803	69.1831	72	49
69.2173	69.3201	62	37
69.2173	69.3201	70	49
69.3543	69.4552	60	34
69.3543	69.4552	69	46
69.4889	69.5897	62	36
69.4889	69.5897	70	48
69.6234	69.7257	63	37
69.6234	69.7257	72	49
69.7597	69.862	65	38
69.7597	69.862	74	51
69.8961	69.9966	63	40
69.8961	69.9966	72	53
70.03	70.1305	65	37
70.03	70.1305	74	50
70.164	70.2663	63	37
70.164	70.2663	72	50
70.3003	70.4026	62	37
70.3003	70.4026	70	50
70.4365	70.5383	60	40
70.4365	70.5383	69	53
70.5722	70.6736	62	37
70.5722	70.6736	70	50
70.7074	70.8082	60	37
70.7074	70.8082	69	50
70.8419	70.9425	58	37
70.8419	70.9425	67	50
70.976	71.0762	57	36
70.976	71.0762	66	48
71.1096	71.2095	58	37
71.1096	71.2095	67	49
71.2427	71.3422	60	38
71.2427	71.3422	69	51
71.3753	71.4743	62	40
71.3753	71.4743	70	53
71.5072	71.6057	63	40
71.5072	71.6057	72	53
71.6386	71.738	62	38
71.6386	71.738	70	51
71.7714	71.8717	60	38
71.7714	71.8717	69	51
71.9053	72.0067	58	38
71.9053	72.0067	67	51
72.0406	72.1432	57	40
72.0406	72.1432	65	53
72.1774	72.2809	58	38
72.1774	72.2809	67	51
72.3157	72.4201	57	38
72.3157	72.4201	65	51
72.455	72.5604	55	38
72.455	72.5604	63	51
72.5957	73.8025	38	58
72.5957	72.8884	50	69
72.5957	72.8884	62	73
72.5957	72.8884	66	73
72.5957	72.8884	69	73
72.5957	72.8884	74	86
72.8884	73.8025	50	58
72.8884	73.8025	62	69
72.8884	73.8025	66	74
72.8884	73.1727	69	74
72.8884	73.1727	74	74
72.8884	73.1727	78	89
73.1727	73.8025	45	60
73.1727	73.8025	57	72
73.1727	73.8025	69	75
73.1727	73.4571	74	75
73.1727	73.4571	78	75
73.1727	73.4571	81	90
73.4571	73.8025	42	58
73.4571	73.8025	54	69
73.4571	73.8025	74	80
73.4571	73.8025	78	80
73.4571	73.8025	81	80
73.4571	73.8025	86	94
73.7469	74.1751	37	68
73.7469	74.0368	49	81
73.7469	74.1751	87	80
73.7469	74.1751	91	80
73.7469	74.1751	94	89
73.7469	74.1751	99	106
74.0368	74.3279	49	58
74.0368	74.3279	55	58
74.0368	74.3279	61	69
74.0368	74.3279	63	73
74.0368	74.3279	67	73
74.0368	74.3279	70	73
74.0368	74.3279	75	88
74.3279	75.5735	38	58
74.3279	74.6206	50	69
74.3279	74.6206	62	73
74.3279	74.6206	66	73
74.3279	74.6206	69	73
74.3279	74.6206	74	86
74.6206	75.5735	50	58
74.6206	75.5735	62	69
74.6206	75.5735	66	74
74.6206	74.9133	69	74
74.6206	74.9133	74	74
74.6206	74.9133	78	89
74.9133	75.5735	45	60
74.9133	75.5735	57	72
74.9133	75.5735	69	75
74.9133	75.2118	74	75
74.9133	75.2118	78	75
74.9133	75.2118	81	90
75.2118	75.5735	42	58
75.2118	75.5735	54	69
75.2118	75.5735	74	80
75.2118	75.5735	78	80
75.2118	75.5735	81	80
75.2118	75.5735	86	94
75.5154	75.9631	37	68
75.5154	75.8189	49	81
75.5154	75.9631	87	80
75.5154	75.9631	91	80
75.5154	75.9631	94	89
75.5154	75.9631	99	106
75.8189	76.1225	49	58
75.8189	76.1225	55	58
75.8189	76.1225	61	69
75.8189	76.1225	63	73
75.8189	76.1225	67	73
75.8189	76.1225	70	73
75.8189	76.1225	75	88
76.1225	77.1991	38	51
76.1225	77.1991	50	61
76.1225	76.4003	57	72
76.1225	76.4003	62	72
76.1225	76.4003	66	72
76.4003	76.673	57	67
76.4003	76.673	62	67
76.4003	76.673	66	67
76.5366	76.673	61	67
76.673	77.1991	60	72
76.673	76.9457	66	72
76.9457	77.2185	33	44
76.9457	77.2185	45	52
76.9457	77.1991	59	67
76.9457	77.2185	66	67
77.0821	77.2185	58	72
77.2185	77.7771	40	48
77.2185	77.7771	52	58
77.2185	77.6341	57	75
77.2185	77.4912	61	75
77.2185	77.4912	67	75
77.4912	77.7771	33	53
77.4912	77.7771	45	64
77.4912	77.7771	61	69
77.4912	77.7771	67	69
77.6341	77.7771	57	69
77.7771	78.8846	38	57
77.7771	78.8846	50	68
77.7771	78.0486	57	79
77.7771	78.0486	62	79
77.7771	78.0486	66	79
78.0486	78.3133	57	72
78.0486	78.3133	62	72
78.0486	78.32	66	72
78.1843	78.32	61	72
78.32	78.8846	60	77
78.32	78.5915	66	77
78.5915	78.8846	33	55
78.5915	78.8846	45	66
78.5915	78.8846	59	67
78.5915	78.8846	66	67
78.7315	78.8846	58	68
78.8715	79.3753	40	51
78.8715	79.3753	52	61
78.8715	79.3047	57	75
78.8715	79.1562	61	75
78.8715	79.1562	67	75
79.1562	79.4532	33	48
79.1562	79.4532	45	57
79.1562	79.3753	61	68
79.1562	79.4532	67	68
79.3047	79.4532	57	68
79.4532	81.067	38	57
79.4532	81.067	57	68
79.4532	81.067	62	68
79.4532	81.067	66	68
79.7502	79.8945	50	60
79.8945	80.0387	50	61
80.0387	80.1823	50	61
80.1823	80.3259	50	62
80.3259	80.4689	50	63
80.4689	80.6118	50	64
80.6118	80.7541	50	66
80.7541	80.896	50	67
80.896	81.0409	50	68
81.0409	81.1882	50	68
81.1882	81.4691	38	57
81.1882	81.4691	50	68
81.1882	81.4691	72	75
81.1882	81.4691	74	75
81.1882	81.4691	78	75
81.1882	81.4691	81	75
81.1882	81.4691	86	90
81.4691	81.6095	38	52
81.4691	81.6095	50	62
81.4691	81.6095	72	70
81.4691	81.6095	74	70
81.4691	81.6095	78	70
81.4691	81.6095	81	70
81.4691	81.6095	86	84
81.6095	81.7499	38	52
81.6095	81.7499	50	62
81.6095	81.7499	72	70
81.6095	81.7499	74	70
81.6095	81.7499	78	70
81.6095	81.7499	81	70
81.6095	81.7499	86	84
81.7499	82.0314	38	57
81.7499	82.0314	50	68
81.7499	82.0314	72	75
81.7499	82.0314	74	75
81.7499	82.0314	78	75
81.7499	82.0314	81	75
81.7499	82.0314	86	90
82.0314	82.1733	38	51
82.0314	82.1733	50	61
82.0314	82.1733	72	67
82.0314	82.1733	74	67
82.0314	82.1733	78	67
82.0314	82.1733	81	67
82.0314	82.1733	86	80
82.1733	82.3158	38	51
82.1733	82.3158	50	61
82.1733	82.3158	72	67
82.1733	82.3158	74	67
82.1733	82.3158	78	67
82.1733	82.3158	81	67
82.1733	82.3158	86	80
82.3158	82.6032	38	57
82.3158	82.6032	50	68
82.3158	82.6032	72	75
82.3158	82.6032	74	75
82.3158	82.6032	78	75
82.3158	82.6032	81	75
82.3158	82.6032	86	90
82.6032	82.7481	38	51
82.6032	82.7481	50	61
82.6032	82.7481	72	68
82.6032	82.7481	74	68
82.6032	82.7481	78	68
82.6032	82.7481	81	68
82.6032	82.7481	86	81
82.7481	83.5381	38	51
82.7481	82.8786	50	61
82.7481	83.5381	72	68
82.7481	82.9185	74	68
82.7481	83.5381	78	68
82.7481	83.5381	81	68
82.7481	82.9836	86	81
82.8597	84.0632	43	57
82.8786	83.8121	50	57
82.8982	84.0632	55	68
82.9185	83.5381	74	77
82.9394	83.5381	79	77
82.961	83.5381	83	77
82.9836	83.5381	86	91
83.007	83.5381	91	91
83.2642	83.5381	62	61
83.2642	83.5381	67	67
83.2642	83.5381	71	61
83.4011	83.5381	66	67
83.5381	84.0632	65	71
83.5381	83.8121	71	64
83.8121	84.0823	38	39
83.8121	84.0823	50	47
83.8121	84.0632	64	64
83.8121	84.0823	71	59
83.9472	84.0823	63	69
84.0823	84.6298	45	42
84.0823	84.6298	57	51
84.0823	84.4912	62	72
84.0823	84.3526	66	66
84.0823	84.3526	72	66
84.3526	84.6298	38	46
84.3526	84.6298	50	55
84.3526	84.6298	66	64
84.3526	84.6298	72	60
84.4912	84.6298	62	64
84.6298	85.7223	43	48
84.6298	85.7223	55	58
84.6298	84.9025	62	67
84.6298	84.9025	67	72
84.6298	84.9025	71	67
84.9025	85.1637	62	60
84.9025	85.1637	67	66
84.9025	85.1703	71	60
85.0364	85.1703	66	64
85.1703	85.7223	65	69
85.1703	85.4382	71	63
85.4382	85.7223	38	45
85.4382	85.7223	50	52
85.4382	85.7223	64	59
85.4382	85.7223	71	53
85.5739	85.7223	63	59
85.7097	86.2004	45	40
85.7097	86.2004	57	48
85.7097	86.1313	62	66
85.7097	85.9856	66	60
85.7097	85.9856	72	60
85.9856	86.2769	38	37
85.9856	86.2769	50	44
85.9856	86.2004	66	58
85.9856	86.2769	72	52
86.1313	86.2769	62	57
86.2769	87.375	43	39
86.2769	87.9479	55	47
86.2769	87.9351	67	49
86.2769	87.9351	71	49
86.2769	87.786	74	58
86.2769	87.9479	79	75
86.5586	86.7738	50	49
86.689	86.8195	52	49
86.8195	86.9583	50	52
87.0972	87.2361	50	49
87.375	87.9351	43	39
87.375	87.9479	57	47
87.375	87.9479	66	46
87.375	87.9479	72	55
87.375	87.9479	78	66
87.649	87.9479	50	47
87.786	87.9479	74	63
87.9351	89.0315	43	47
87.9351	89.609	59	47
87.9351	89.609	67	58
87.9351	89.609	71	58
87.9351	88.214	76	69
88.214	88.4301	50	49
88.214	88.3886	76	60
88.3013	88.4301	78	60
88.345	88.476	52	49
88.3886	88.476	76	60
88.476	88.6148	50	52
88.476	89.609	74	64
88.7537	88.8926	50	49
89.0315	89.609	43	39
89.0315	89.609	57	47
89.0315	89.609	60	39
89.0315	89.609	62	39
89.0315	89.609	66	39
89.0315	89.4617	69	39
89.0315	89.609	72	58
89.3145	89.609	50	40
89.4617	89.609	69	53
89.609	90.7541	43	35
89.609	91.2285	55	41
89.609	90.471	62	45
89.609	90.471	67	45
89.609	90.1311	71	63
89.752	90.1311	72	57
89.895	90.1311	50	44
89.895	90.1811	74	60
90.0381	90.1811	52	44
90.1811	90.3261	50	47
90.1811	91.2285	74	60
90.471	90.6126	50	44
90.471	90.6126	59	42
90.6126	90.8982	62	38
90.7541	91.3306	43	41
90.7541	91.3306	54	41
90.7541	91.0424	60	42
90.8982	91.1865	62	38
91.0424	91.3306	50	41
91.0424	91.2285	60	42
91.1865	91.3306	62	38
91.3306	92.5068	43	39
91.3306	92.9983	55	47
91.3306	91.6264	59	48
91.6264	91.8701	50	49
91.6264	92.9983	59	42
91.6264	91.8701	62	42
91.7742	91.9216	52	49
91.7742	91.9216	64	39
91.9216	92.066	50	52
91.9216	92.066	62	46
92.066	92.2103	64	40
92.2103	92.3585	50	49
92.2103	92.3585	67	48
92.3585	92.7971	64	44
92.5068	93.1151	43	41
92.5068	93.1151	57	47
92.5068	93.1151	60	46
92.5068	92.9983	66	51
92.7971	93.1151	50	47
92.7971	92.9983	64	48
92.9502	93.1151	62	48
93.1151	94.2092	43	42
93.1151	94.8081	55	51
93.1151	94.7674	67	53
93.1151	94.7674	71	53
93.1151	94.6183	74	63
93.1151	94.8081	79	82
93.3939	93.6082	50	53
93.5238	93.6537	52	53
93.6537	93.7925	50	57
93.9314	94.0703	50	53
94.2092	94.7674	43	39
94.2092	94.8081	57	47
94.2092	94.8081	66	46
94.2092	94.8081	72	60
94.2092	94.8081	78	68
94.4819	94.8081	50	47
94.6183	94.8081	74	66
94.7674	95.8673	43	47
94.7674	96.3362	59	47
94.7674	96.3362	67	58
94.7674	96.3362	71	58
94.7674	95.0463	76	69
95.0463	95.2653	50	49
95.0463	95.2233	76	60
95.1348	95.2653	78	60
95.179	95.3118	52	49
95.2233	95.3118	76	60
95.3118	95.4506	50	52
95.3118	96.3362	74	64
95.5895	95.7284	50	49
95.8673	96.4388	43	39
95.8673	96.4388	57	47
95.8673	96.3362	60	39
95.8673	96.3362	62	39
95.8673	96.3362	66	39
95.8673	96.2939	69	39
95.8673	96.3362	72	58
96.149	96.4388	50	40
96.2939	96.4388	69	53
96.4388	97.584	43	35
96.4388	98.0584	55	41
96.4388	97.3009	62	45
96.4388	97.3009	67	45
96.4388	96.961	71	63
96.5819	96.961	72	57
96.7249	96.961	50	44
96.7249	97.011	74	60
96.868	97.011	52	44
97.011	97.156	50	47
97.011	98.0584	74	60
97.3009	97.5179	50	44
97.3009	97.5179	59	42
97.4425	97.7281	62	38
97.584	98.1605	43	41
97.584	98.1605	54	41
97.584	97.8723	60	42
97.7281	98.0164	62	38
97.8723	98.1605	50	41
97.8723	98.0584	60	42
98.0164	98.1605	62	38
98.1605	99.3367	43	39
98.1605	99.8187	55	47
98.1605	98.4563	59	48
98.4563	98.7	50	49
98.4563	99.8187	59	42
98.4563	98.7	62	42
98.6041	98.7515	52	49
98.6041	98.7515	64	39
98.7515	98.8959	50	52
98.7515	98.8959	62	46
98.8959	99.0402	64	40
99.0402	99.1884	50	49
99.0402	99.1884	67	48
99.1884	99.627	64	44
99.3367	99.9271	43	39
99.3367	99.9271	57	47
99.3367	99.9271	60	42
99.3367	99.8187	66	51
99.627	99.9271	50	47
99.627	99.8187	64	48
99.774	99.9271	62	48
99.9271	101.028	43	44
99.9271	101.028	58	53
99.9271	101.028	67	56
99.9271	101.028	74	66
99.9271	101.028	79	79
100.206	100.426	50	56
100.339	100.473	51	56
100.473	100.611	50	59
100.75	100.889	50	56
101.028	101.588	41	40
101.028	101.588	63	49
101.028	101.588	65	48
101.028	101.588	69	57
101.028	101.588	77	70
101.302	101.588	53	49
101.439	101.588	72	68
101.588	102.69	46	49
101.588	103.273	62	49
101.588	102.69	65	60
101.588	103.273	70	60
101.588	101.867	74	72
101.867	102.088	53	51
101.867	102.088	74	66
102.001	102.135	55	51
102.001	102.135	75	66
102.135	102.274	53	55
102.135	103.273	77	72
102.413	102.552	53	51
102.69	103.273	46	40
102.69	103.273	63	49
102.69	103.273	65	40
102.69	103.273	69	40
102.69	103.273	75	67
102.979	103.273	53	41
103.126	103.273	72	56
103.273	104.367	46	40
103.273	104.832	62	49
103.273	104.832	65	42
103.273	104.832	70	47
103.273	103.55	74	72
103.411	103.688	75	63
103.55	103.778	53	51
103.55	103.778	74	68
103.688	103.826	55	51
103.688	103.826	75	61
103.826	103.963	53	55
103.826	103.963	77	70
103.963	104.099	79	62
104.099	104.233	53	51
104.099	104.233	81	69
104.233	104.832	79	60
104.367	104.932	46	40
104.367	104.932	63	49
104.367	104.932	69	44
104.367	104.832	77	69
104.508	104.832	75	69
104.649	104.932	53	49
104.649	104.832	74	74
104.79	104.932	72	69
104.932	106.037	46	40
104.932	106.612	62	49
104.932	106.612	65	50
104.932	106.612	70	50
104.932	105.21	74	77
105.071	105.349	75	66
105.21	105.441	53	51
105.21	105.441	74	72
105.349	105.491	55	51
105.349	105.491	75	61
105.491	105.626	53	55
105.491	105.626	77	70
105.626	105.762	79	62
105.762	105.9	53	51
105.762	105.9	81	69
105.9	106.632	79	60
106.037	106.612	46	46
106.037	106.632	63	46
106.037	106.632	69	61
106.037	106.632	77	67
106.178	106.632	75	66
106.32	106.632	53	42
106.32	106.612	74	63
106.464	106.632	72	62
106.612	107.711	46	39
106.612	107.711	62	48
106.612	107.711	65	49
106.612	107.711	70	59
106.612	107.711	74	74
106.891	107.109	53	44
107.023	107.155	55	44
107.155	107.294	53	49
107.433	107.572	53	45
107.711	108.287	45	36
107.711	108.287	57	44
107.711	108.287	62	48
107.711	108.287	66	48
107.711	108.138	72	57
107.711	107.995	74	62
107.995	108.287	50	44
107.995	108.287	74	58
108.138	108.287	72	58
108.287	109.41	43	39
108.287	108.566	55	48
108.287	109.41	62	49
108.287	109.41	67	59
108.287	109.124	71	69
108.566	108.796	55	44
108.705	108.845	56	44
108.845	108.984	55	49
109.124	109.267	55	45
109.124	109.267	72	58
109.267	109.41	74	58
109.41	109.977	48	36
109.41	109.977	55	44
109.41	109.977	67	48
109.41	109.977	72	48
109.41	109.828	75	62
109.689	109.977	57	44
109.689	109.977	77	58
109.828	109.977	75	58
109.977	111.117	50	39
109.977	110.489	59	48
109.977	110.538	67	59
109.977	110.489	74	74
110.256	110.489	62	44
110.256	110.489	71	58
110.397	110.538	64	44
110.397	110.538	72	58
110.538	110.831	62	49
110.538	111.117	67	49
110.538	110.831	71	52
110.538	111.092	74	68
110.831	111.092	62	45
110.831	111.092	71	55
110.974	111.117	72	55
111.117	111.701	50	36
111.117	111.404	60	44
111.117	111.701	62	46
111.117	111.701	66	46
111.117	111.552	71	60
111.404	111.701	60	41
111.404	111.596	69	55
111.552	111.701	71	55
111.701	112.765	43	39
111.701	112.765	59	47
111.701	111.977	62	55
111.701	111.977	67	60
111.977	112.246	62	51
111.977	112.246	67	56
111.977	112.246	71	51
112.111	112.246	66	56
112.246	112.765	65	60
112.246	112.515	71	55
112.515	112.784	38	34
112.515	112.784	50	40
112.515	112.765	64	56
112.515	112.784	71	51
112.649	112.784	63	60
112.784	113.238	45	37
112.784	113.238	57	45
112.784	113.191	62	63
112.784	113.053	66	58
112.784	113.053	72	58
113.053	113.33	38	41
113.053	113.33	50	49
113.053	113.238	66	58
113.053	113.33	72	53
113.191	113.33	62	58
113.33	114.417	43	44
113.33	114.417	55	52
113.33	113.598	62	60
113.33	113.598	67	66
113.33	113.598	71	60
113.598	113.859	62	55
113.598	113.859	67	60
113.598	113.866	71	55
113.732	113.866	66	60
113.866	114.417	65	64
113.866	114.134	71	59
114.134	114.417	38	42
114.134	114.417	50	50
114.134	114.417	64	56
114.134	114.417	71	51
114.269	114.417	63	57
114.405	114.874	45	39
114.405	114.874	57	47
114.405	114.809	62	63
114.405	114.673	66	58
114.405	114.673	72	58
114.673	114.946	38	37
114.673	114.946	50	44
114.673	114.874	66	57
114.673	114.946	72	52
114.809	114.946	62	57
114.946	115.468	43	44
114.946	115.468	55	52
114.946	115.21	62	60
114.946	115.21	67	66
114.946	115.21	71	60
115.21	115.468	62	55
115.21	115.468	67	60
115.21	115.474	71	55
115.342	115.474	66	60
115.474	116.018	55	52
115.474	116.006	62	59
115.474	115.739	67	59
115.474	115.739	71	64
115.739	116.006	67	51
115.739	116.006	71	56
115.739	116.006	74	51
115.872	116.018	70	57
116.006	116.535	62	47
116.006	116.535	67	58
116.006	116.268	71	58
116.006	116.268	74	63
116.268	116.535	71	52
116.268	116.535	74	57
116.268	116.535	79	52
116.402	116.535	73	57
116.535	117.05	67	52
116.535	116.796	74	60
116.535	116.796	79	66
116.535	116.796	83	60
116.796	117.05	74	55
116.796	117.05	79	60
116.796	117.057	83	55
116.926	117.057	78	60
117.057	117.595	71	52
117.057	117.583	74	59
117.057	117.318	79	59
117.057	117.318	83	64
117.318	117.583	79	51
117.318	117.583	83	56
117.318	117.583	86	51
117.45	117.595	82	57
117.583	118.102	74	47
117.583	118.102	79	57
117.583	117.844	83	57
117.583	117.844	86	57
117.844	118.102	83	51
117.844	118.102	86	56
117.844	118.102	91	51
117.973	118.102	85	56
118.102	118.621	79	47
118.102	118.361	83	57
118.102	118.361	86	62
118.102	118.361	91	57
118.361	118.621	83	50
118.361	118.621	86	55
118.361	118.621	91	50
118.491	118.639	82	53
118.621	119.14	79	45
118.621	118.881	83	53
118.621	118.881	86	58
118.621	118.881	91	53
118.881	119.14	83	48
118.881	119.14	86	52
118.881	119.14	91	48
119.011	119.147	82	51
119.14	119.667	79	42
119.14	119.4	83	51
119.14	119.4	86	56
119.14	119.4	91	51
119.4	119.667	83	45
119.4	119.667	86	49
119.4	119.667	91	45
119.534	119.667	82	49
119.667	120.196	79	40
119.667	119.928	83	49
119.667	119.928	86	53
119.667	119.928	91	49
119.928	120.196	83	42
119.928	120.196	86	46
119.928	120.196	91	42
120.062	120.215	82	46
120.196	120.739	79	38
120.196	120.463	83	46
120.196	120.463	86	50
120.196	120.463	91	46
120.463	120.739	83	40
120.463	120.739	86	44
120.463	120.739	91	40
120.601	120.746	82	42
120.739	121.219	79	36
120.739	121.013	83	44
120.739	121.013	86	48
120.739	121.013	91	44
121.013	121.219	83	38
121.013	121.219	86	41
121.013	121.292	91	38
121.152	125.219	82	40
121.292	125.219	79	34
121.292	125.219	83	37
121.292	125.219	86	37
121.292	125.219	91	37
121.555	121.687	43	45
121.687	121.818	43	39
121.818	121.951	43	45
121.951	122.085	43	39
122.085	122.218	43	45
122.218	122.354	43	39
122.354	122.491	43	45
122.491	122.632	43	39
122.632	122.768	43	45
122.768	122.906	43	39
122.906	123.189	43	45
123.189	123.335	43	39
123.335	123.484	43	39
123.484	123.79	43	41
123.79	123.948	43	37
123.948	124.108	43	37
124.108	124.461	43	40
124.461	124.829	43	35
124.829	125.219	43	40
127.366	127.717	60	42
127.366	127.717	84	53
127.717	129.097	62	47
127.717	129.097	86	59
128.068	129.097	63	44
128.068	129.097	87	55
128.418	129.097	65	42
128.418	129.097	89	58
128.753	129.097	68	46
128.753	129.097	92	61
129.097	130.358	72	51
129.097	130.358	96	72
129.912	130.358	70	44
129.912	130.358	94	56
130.07	130.358	68	45
130.07	130.358	92	57
130.228	130.385	67	42
130.228	130.385	91	53
130.385	130.869	65	45
130.385	130.869	89	57
130.548	131.028	67	42
130.548	131.028	91	53
130.71	131.028	68	44
130.71	131.028	92	56
130.869	131.028	65	41
130.869	131.028	89	52
131.028	131.348	67	48
131.028	131.348	91	60
131.191	131.674	68	44
131.191	131.674	92	55
131.348	131.674	67	46
131.348	131.674	91	58
131.506	131.674	65	39
131.506	131.674	89	50
131.665	131.982	63	44
131.665	131.982	87	56
131.822	132.281	65	41
131.822	132.281	89	52
131.982	132.281	63	42
131.982	132.281	87	53
132.144	132.31	62	38
132.144	132.31	86	49
132.31	132.997	60	44
132.31	132.997	84	55
132.478	132.997	62	40
132.478	132.997	86	51
132.645	132.997	63	44
132.645	132.997	87	56
132.812	132.997	67	40
132.812	132.997	91	51
132.997	133.37	67	44
132.997	135.072	91	58
133.37	135.079	41	44
133.719	135.079	60	38
133.719	134.4	62	38
133.719	134.903	68	44
134.068	134.733	65	44
134.068	134.733	89	55
134.234	134.567	63	39
134.234	134.567	87	49
134.4	135.079	62	45
134.4	135.079	86	57
134.567	135.079	63	40
134.567	135.079	87	51
134.733	135.079	65	40
134.733	135.079	89	51
134.903	135.079	68	40
134.903	135.079	92	51
135.072	135.278	67	42
135.072	135.278	91	53
135.175	135.716	68	35
135.175	135.716	92	45
135.278	135.716	67	35
135.278	135.716	91	45
135.381	135.716	65	40
135.381	135.716	89	51
135.547	135.716	63	38
135.547	135.716	87	48
135.712	136.383	62	39
135.712	136.383	86	49
135.878	136.383	63	39
135.878	136.383	87	50
136.044	136.383	65	40
136.044	136.383	89	51
136.215	136.387	67	35
136.215	136.387	91	45
136.387	137.047	55	33
136.387	136.602	65	41
136.387	136.962	83	39
136.387	136.602	89	52
136.495	136.962	67	31
136.495	136.962	91	40
136.602	136.962	65	31
136.602	136.962	89	40
136.71	136.962	63	33
136.71	136.962	87	41
136.878	137.047	62	30
136.878	137.047	86	38
137.047	137.629	48	29
137.047	137.629	60	35
137.047	137.629	84	37
137.047	137.629	87	37
137.047	137.629	91	37
137.047	137.629	96	45
137.419	137.629	53	44
137.598	137.949	55	40
137.776	138.334	53	44
137.776	138.467	60	37
137.776	139.834	65	37
137.776	139.834	68	37
137.776	139.16	72	37
137.949	138.334	55	41
138.121	138.334	56	41
138.294	139.077	58	46
138.467	139.503	60	49
138.635	139.077	56	46
138.803	139.077	55	47
138.981	139.834	53	44
139.16	139.834	43	56
139.16	139.503	63	51
139.16	139.503	67	51
139.16	139.834	72	60
139.331	139.834	62	46
139.503	139.676	55	47
139.503	139.834	60	39
139.503	139.834	63	39
139.503	139.854	67	48
139.676	139.854	55	44
139.854	140.533	43	56
139.854	140.189	63	50
139.854	140.189	67	50
139.854	140.533	72	59
140.022	140.533	62	44
140.189	140.356	55	46
140.189	140.533	60	38
140.189	140.533	63	38
140.189	140.533	67	46
140.356	140.533	55	44
140.533	141.135	43	56
140.533	140.874	65	49
140.533	140.874	67	49
140.533	141.135	71	58
140.704	141.135	63	41
140.874	141.045	55	46
140.874	141.135	62	38
140.874	141.135	65	38
140.874	141.216	67	46
141.045	141.216	55	41
141.216	141.558	36	47
141.216	141.558	48	56
141.216	141.558	60	39
141.216	141.558	63	39
141.216	141.558	67	49
141.216	141.558	72	49
141.558	143.291	60	46
141.558	143.291	84	58
141.911	143.291	62	56
141.911	143.291	86	67
142.263	143.291	63	53
142.263	143.291	87	61
142.616	143.291	65	58
142.616	143.291	89	66
142.949	143.291	68	55
142.949	143.291	92	69
143.291	144.588	75	64
143.291	144.588	99	85
144.109	144.588	74	52
144.109	144.588	98	67
144.267	144.582	72	53
144.267	144.582	96	68
144.425	144.588	70	50
144.425	144.588	94	63
144.582	144.799	72	53
144.582	144.799	96	68
144.69	145.227	74	53
144.69	145.227	98	68
144.799	145.227	72	53
144.799	145.227	96	68
144.907	145.227	70	52
144.907	145.227	94	67
145.067	145.227	68	49
145.067	145.227	92	62
145.227	145.554	70	57
145.227	145.554	94	72
145.396	145.866	72	52
145.396	145.866	96	66
145.554	145.866	70	55
145.554	145.866	94	69
145.713	145.876	68	46
145.713	145.876	92	60
145.876	146.358	67	52
145.876	146.358	91	67
146.194	146.526	65	50
146.194	146.526	89	63
146.358	146.526	67	45
146.358	146.526	91	58
146.526	147.028	68	52
146.526	147.028	92	66
146.693	147.212	70	48
146.693	147.212	94	61
146.861	147.212	72	52
146.861	147.212	96	67
147.028	147.212	68	48
147.028	147.212	92	61
147.212	147.426	67	57
147.212	147.426	91	73
147.319	147.91	68	50
147.319	147.91	92	63
147.426	147.695	67	50
147.426	147.695	91	63
147.532	147.91	65	52
147.532	147.91	89	67
147.695	147.91	67	56
147.695	147.91	91	70
147.865	148.362	63	57
147.865	148.362	87	73
148.197	148.509	62	56
148.197	148.509	86	70
148.362	148.528	63	52
148.362	148.528	87	67
148.528	148.741	65	60
148.528	148.741	89	75
148.635	149.14	67	52
148.635	149.14	91	67
148.741	149.01	65	52
148.741	149.01	89	67
148.848	149.14	63	57
148.848	149.14	87	73
149.01	149.179	65	52
149.01	149.179	89	67
149.179	149.393	62	57
149.179	149.393	86	73
149.286	149.662	63	50
149.286	149.662	87	63
149.393	149.832	62	50
149.393	149.832	86	63
149.499	149.857	60	52
149.499	149.857	84	67
149.662	149.857	63	56
149.662	149.857	87	70
149.832	150.322	62	57
149.832	150.322	86	73
150.159	150.447	60	56
150.159	150.447	84	70
150.322	150.485	62	52
150.322	150.485	86	67
150.485	151.133	63	60
150.485	151.133	87	75
150.643	151.133	65	60
150.643	151.133	89	75
150.802	151.133	67	57
150.802	151.133	91	73
150.964	151.133	68	52
150.964	151.133	92	67
151.133	151.344	65	57
151.133	151.344	89	73
151.238	151.759	67	50
151.238	151.759	91	63
151.344	151.555	65	49
151.344	151.555	89	62
151.449	151.662	63	57
151.449	151.662	87	72
151.555	151.759	65	49
151.555	151.759	89	62
151.662	151.769	63	49
151.662	151.769	87	62
151.769	151.984	62	56
151.769	151.984	86	71
151.876	152.409	63	48
151.876	152.409	87	61
151.984	152.2	62	48
151.984	152.2	86	61
152.092	152.309	60	55
152.092	152.309	84	70
152.2	152.409	62	48
152.2	152.409	86	60
152.309	152.418	60	47
152.309	152.418	84	60
152.418	152.638	58	53
152.418	152.638	82	69
152.528	153.082	60	47
152.528	153.082	84	59
152.638	152.859	58	47
152.638	152.859	82	59
152.748	152.971	56	52
152.748	152.971	80	68
152.859	153.082	58	46
152.859	153.082	82	59
152.971	153.082	56	46
152.971	153.082	80	58
153.082	153.665	55	53
153.082	154.526	79	67
153.455	154.526	43	46
153.812	154.526	50	56
153.812	154.839	60	46
153.812	155.196	62	46
153.812	155.837	66	46
153.812	155.837	69	46
153.812	155.837	74	46
153.985	154.526	52	51
154.157	154.526	54	51
154.33	154.526	55	57
154.503	155.017	57	61
154.671	155.06	59	57
154.839	155.368	60	58
155.017	155.837	57	55
155.196	155.837	38	56
155.196	155.54	62	51
155.196	155.54	67	51
155.196	155.837	71	60
155.368	155.837	60	46
155.54	155.893	50	47
155.54	155.837	59	39
155.54	155.837	62	39
155.54	155.837	67	48
155.715	155.893	55	44
155.893	156.59	38	56
155.893	156.233	62	50
155.893	156.233	67	50
155.893	156.59	71	59
156.063	156.59	60	44
156.233	156.59	50	46
156.233	156.59	59	38
156.233	156.59	62	38
156.233	156.59	67	46
156.403	156.59	55	44
156.59	157.244	38	56
156.59	157.244	64	49
156.59	156.944	66	49
156.59	157.244	72	58
156.767	156.944	62	41
156.944	157.337	50	46
156.944	157.244	60	38
156.944	157.244	62	38
156.944	157.244	66	46
157.141	157.337	57	41
157.337	159.59	43	56
157.337	159.59	55	46
157.337	159.59	67	46
157.699	158.06	79	61
158.06	158.422	79	60
158.422	158.783	79	58
158.783	159.325	79	57
159.325	159.506	79	55
159.506	160.928	44	42
159.506	160.928	79	60
160.048	160.928	53	37
160.223	160.928	60	41
160.223	160.928	77	57
160.571	160.928	62	39
160.746	160.928	74	52
160.928	161.625	68	39
160.928	161.625	75	57
161.102	161.625	77	53
161.277	161.625	79	57
161.451	161.625	80	53
161.625	163.005	44	42
161.625	162.159	79	60
161.985	163.005	80	57
162.159	163.005	53	37
162.159	163.005	79	55
162.334	163.005	60	41
162.334	162.867	77	58
162.693	163.042	62	39
162.693	163.005	74	56
162.867	163.042	77	56
163.042	163.75	68	39
163.042	163.275	75	61
163.158	163.75	77	50
163.275	163.75	75	50
163.393	163.75	74	58
163.57	163.75	72	51
163.75	165.932	43	42
163.75	165.932	71	56
164.292	165.932	50	37
164.292	164.473	74	52
164.473	165.932	55	41
164.473	165.932	74	55
164.834	165.932	59	31
165.2	165.932	62	36
165.566	165.932	67	31
165.932	168.237	71	42
166.319	166.689	79	61
166.689	167.059	79	60
167.059	167.43	79	58
167.43	167.972	79	57
167.972	168.153	79	55
168.153	169.646	44	42
168.153	169.646	79	60
168.695	169.646	53	37
168.869	169.646	60	41
168.869	169.574	77	57
169.218	169.646	62	39
169.218	169.646	74	52
169.393	169.646	75	52
169.574	170.275	68	39
169.574	169.663	77	57
169.663	170.275	79	53
169.75	170.156	80	57
169.837	170.039	82	53
169.924	170.275	84	53
170.039	170.275	82	53
170.156	170.275	80	53
170.275	171.655	44	42
170.275	170.809	79	60
170.634	171.655	80	57
170.809	171.655	53	37
170.809	171.655	79	55
170.983	171.655	60	41
170.983	171.655	77	58
171.342	171.691	62	39
171.342	171.655	74	56
171.517	171.691	75	56
171.691	172.399	68	48
171.691	171.924	77	61
171.807	172.326	79	52
171.924	172.326	77	53
172.042	172.326	75	58
172.16	172.326	74	61
172.279	172.399	72	63
172.399	172.74	43	59
172.399	172.74	55	59
172.399	172.74	71	74
172.74	172.902	53	53
172.74	172.821	65	68
172.902	172.983	65	68
173.064	173.229	56	59
173.064	173.229	68	75
173.394	173.555	50	52
173.394	173.474	62	69
173.555	173.635	62	70
173.716	173.879	53	59
173.716	173.879	65	75
174.042	174.201	47	52
174.042	174.122	59	68
174.201	174.281	59	68
174.36	174.523	50	62
174.36	174.523	62	81
174.685	174.843	44	56
174.685	174.764	56	74
174.843	174.922	56	74
175.001	175.164	48	59
175.001	175.164	60	83
175.327	175.486	41	52
175.327	175.406	53	75
175.486	175.565	53	75
175.644	175.807	44	59
175.644	175.807	56	83
175.97	176.126	38	52
175.97	176.048	50	74
176.126	176.205	50	74
176.283	176.45	43	62
176.283	176.45	55	81
176.618	176.912	53	56
176.618	176.774	65	74
176.774	176.912	65	74
176.931	177.582	56	59
176.931	177.094	68	83
177.094	177.582	68	74
177.258	177.582	50	52
177.258	177.413	62	79
177.413	177.582	62	75
177.568	178.149	53	59
177.568	177.729	65	83
177.729	178.149	65	73
177.891	178.149	47	52
177.891	178.046	59	79
178.046	178.149	59	74
178.201	178.832	50	62
178.201	178.361	62	81
178.361	178.832	62	81
178.521	178.832	44	56
178.521	178.677	56	74
178.677	178.832	56	74
178.832	179.442	48	59
178.832	178.913	60	83
178.993	179.442	60	74
179.154	179.442	41	52
179.154	179.31	53	79
179.31	179.442	53	75
179.466	180.049	44	59
179.466	179.626	56	83
179.626	180.049	56	73
179.787	180.049	38	52
179.787	179.944	50	79
179.944	180.049	50	74
180.1	180.409	43	59
180.1	182.517	55	79
180.409	180.567	43	54
180.567	180.727	43	54
180.727	180.891	43	55
180.891	181.055	43	51
181.055	181.219	43	50
181.219	181.385	43	49
181.385	181.551	43	51
181.551	181.718	43	47
181.718	181.887	43	49
181.887	182.056	43	45
182.056	182.517	43	47
184.429	184.78	60	42
184.429	184.78	84	53
184.78	186.16	62	47
184.78	186.16	86	59
185.131	186.16	63	44
185.131	186.16	87	55
185.481	186.16	65	42
185.481	186.16	89	58
185.816	186.16	68	46
185.816	186.16	92	61
186.16	187.421	72	51
186.16	187.421	96	72
186.975	187.421	70	44
186.975	187.421	94	56
187.133	187.421	68	45
187.133	187.421	92	57
187.291	187.448	67	42
187.291	187.448	91	53
187.448	187.932	65	45
187.448	187.932	89	57
187.611	188.091	67	42
187.611	188.091	91	53
187.773	188.091	68	44
187.773	188.091	92	56
187.932	188.091	65	41
187.932	188.091	89	52
188.091	188.411	67	48
188.091	188.411	91	60
188.254	188.737	68	44
188.254	188.737	92	55
188.411	188.737	67	46
188.411	188.737	91	58
188.569	188.737	65	39
188.569	188.737	89	50
188.728	189.045	63	44
188.728	189.045	87	56
188.885	189.344	65	41
188.885	189.344	89	52
189.045	189.344	63	42
189.045	189.344	87	53
189.207	189.373	62	38
189.207	189.373	86	49
189.373	190.06	60	44
189.373	190.06	84	55
189.541	190.06	62	40
189.541	190.06	86	51
189.708	190.06	63	44
189.708	190.06	87	56
189.875	190.06	67	40
189.875	190.06	91	51
190.06	190.433	67	44
190.06	192.135	91	58
190.433	192.143	41	44
190.782	192.143	60	38
190.782	191.464	62	38
190.782	191.966	68	44
191.131	191.797	65	44
191.131	191.797	89	55
191.297	191.63	63	39
191.297	191.63	87	49
191.464	192.143	62	45
191.464	192.143	86	57
191.63	192.143	63	40
191.63	192.143	87	51
191.797	192.143	65	40
191.797	192.143	89	51
191.966	192.143	68	40
191.966	192.143	92	51
192.135	192.341	67	42
192.135	192.341	91	53
192.238	192.779	68	35
192.238	192.779	92	45
192.341	192.779	67	35
192.341	192.779	91	45
192.444	192.779	65	40
192.444	192.779	89	51
192.61	192.779	63	38
192.61	192.779	87	48
192.775	193.446	62	39
192.775	193.446	86	49
192.941	193.446	63	39
192.941	193.446	87	50
193.107	193.446	65	40
193.107	193.446	89	51
193.278	193.45	67	35
193.278	193.45	91	45
193.45	194.11	55	33
193.45	193.666	65	41
193.45	194.026	83	52
193.45	193.666	89	52
193.558	194.026	67	31
193.558	194.026	91	40
193.666	194.026	65	31
193.666	194.026	89	40
193.773	194.026	63	33
193.773	194.026	87	41
193.941	194.11	62	30
193.941	194.11	86	38
194.11	194.692	48	29
194.11	194.692	60	35
194.11	194.692	84	37
194.11	194.692	87	37
194.11	194.692	91	37
194.11	194.692	96	45
194.483	194.692	53	44
194.661	195.012	55	40
194.839	195.397	53	44
194.839	195.53	60	37
194.839	196.878	65	37
194.839	196.878	68	37
194.839	196.223	72	37
195.012	195.397	55	41
195.185	195.397	56	41
195.357	196.14	58	46
195.53	196.554	60	49
195.698	196.14	56	46
195.866	196.14	55	47
196.045	196.878	53	44
196.223	196.878	43	56
196.223	196.554	63	51
196.223	196.554	67	51
196.223	196.878	72	60
196.389	196.878	62	46
196.554	196.72	55	47
196.554	196.878	60	39
196.554	196.878	63	39
196.554	196.898	67	48
196.72	196.898	55	44
196.898	197.577	43	56
196.898	197.233	63	50
196.898	197.233	67	50
196.898	197.577	72	59
197.066	197.577	62	44
197.233	197.4	55	46
197.233	197.577	60	38
197.233	197.577	63	38
197.233	197.577	67	46
197.4	197.577	55	44
197.577	198.183	43	56
197.577	197.919	65	49
197.577	197.919	67	49
197.577	198.183	71	58
197.748	198.183	63	41
197.919	198.089	55	46
197.919	198.183	62	38
197.919	198.183	65	38
197.919	198.268	67	46
198.089	198.79	55	41
198.268	199.851	36	61
198.268	199.851	48	61
198.268	198.536	63	56
198.268	198.536	67	56
198.268	198.536	72	66
198.536	198.79	63	42
198.536	198.79	67	42
198.536	198.806	72	52
198.67	198.806	62	48
198.806	199.067	63	55
198.806	199.067	67	55
198.806	199.331	72	64
199.067	199.331	60	41
199.067	199.331	63	50
199.067	199.331	67	50
199.197	199.331	59	48
199.331	199.789	60	53
199.331	199.789	63	53
199.331	199.789	67	63
199.591	199.851	55	50
199.851	201.425	37	67
199.851	201.425	49	67
199.851	200.119	67	61
199.851	200.119	70	61
199.851	200.119	75	72
200.119	200.373	67	46
200.119	200.373	70	46
200.119	200.389	75	57
200.254	200.389	66	52
200.389	200.644	67	60
200.389	200.644	70	60
200.389	200.905	75	70
200.644	200.905	63	45
200.644	200.905	67	55
200.644	200.905	70	55
200.771	200.905	62	52
200.905	201.165	63	58
200.905	201.165	67	58
200.905	201.363	70	69
201.165	201.425	58	55
201.165	201.425	63	55
201.165	201.425	67	55
201.425	201.947	38	52
201.425	201.947	50	62
201.425	201.947	62	66
201.425	201.689	67	66
201.425	201.689	71	72
201.425	201.689	74	66
201.689	201.947	67	60
201.689	201.947	71	66
201.689	201.954	74	60
201.821	201.954	66	66
201.954	202.486	38	62
201.954	202.486	50	62
201.954	202.498	67	64
201.954	202.218	71	64
201.954	202.218	74	70
202.218	202.486	71	57
202.218	202.486	74	62
202.218	202.486	79	57
202.352	202.498	70	63
202.486	202.919	38	57
202.486	202.919	50	57
202.486	202.919	71	64
202.486	202.748	74	64
202.486	202.748	79	70
202.748	202.919	74	64
202.748	203.014	79	59
202.748	203.014	83	59
202.881	203.014	73	64
203.014	203.551	38	55
203.014	203.551	50	64
203.014	203.286	74	70
203.014	203.286	79	70
203.014	203.286	83	82
203.286	203.551	74	67
203.286	203.551	79	67
203.286	203.551	83	67
203.286	203.557	86	80
203.422	203.557	82	83
203.557	204.113	38	60
203.557	204.113	50	60
203.557	203.829	74	70
203.557	204.126	79	70
203.557	204.126	83	70
203.557	203.829	86	83
203.829	203.971	74	73
203.829	203.971	86	73
203.971	204.113	74	73
203.971	204.113	86	73
204.113	204.391	38	66
204.113	204.391	50	66
204.113	204.391	74	72
204.113	204.391	78	72
204.113	204.391	84	85
204.113	204.391	86	85
204.391	205.204	38	61
204.391	205.204	50	61
204.391	205.204	74	67
204.391	205.204	78	67
204.391	205.204	84	78
204.391	205.204	86	78
204.669	205.721	43	49
204.669	205.721	55	58
204.669	204.937	62	69
204.669	204.937	67	75
204.669	204.937	71	69
204.937	205.204	62	63
204.937	205.204	67	70
204.937	205.204	71	63
205.071	205.204	66	70
205.204	205.721	65	75
205.204	205.472	71	69
205.472	205.74	38	41
205.472	205.74	50	50
205.472	205.721	64	70
205.472	205.74	71	63
205.606	205.74	63	75
205.74	206.285	45	46
205.74	206.285	57	56
205.74	206.147	62	79
205.74	206.008	66	72
205.74	206.008	72	72
206.008	206.285	38	51
206.008	206.285	50	61
206.008	206.285	66	72
206.008	206.285	72	66
206.147	206.285	62	72
206.285	207.373	43	55
206.285	207.373	55	64
206.285	206.553	62	75
206.285	206.553	67	82
206.285	206.553	71	75
206.553	206.814	62	69
206.553	206.814	67	75
206.553	206.821	71	69
206.687	206.821	66	75
206.821	207.373	65	80
206.821	207.089	71	73
207.089	207.373	38	52
207.089	207.373	50	62
207.089	207.373	64	70
207.089	207.373	71	63
207.224	207.373	63	71
207.36	207.851	45	49
207.36	207.851	57	58
207.36	207.782	62	79
207.36	207.636	66	72
207.36	207.636	72	72
207.636	207.927	38	46
207.636	207.927	50	55
207.636	207.851	66	71
207.636	207.927	72	64
207.782	207.927	62	71
207.927	209.027	43	39
207.927	209.596	55	47
207.927	209.587	67	49
207.927	209.587	71	49
207.927	209.438	74	58
207.927	209.596	79	75
208.206	208.425	50	49
208.339	208.472	52	49
208.472	208.611	50	52
208.75	208.888	50	49
209.027	209.587	43	39
209.027	209.596	57	47
209.027	209.596	66	46
209.027	209.596	72	55
209.027	209.596	78	66
209.301	209.596	50	47
209.438	209.596	74	63
209.587	210.688	43	47
209.587	211.266	59	47
209.587	211.266	67	58
209.587	211.266	71	58
209.587	209.866	76	69
209.866	210.086	50	49
209.866	210.044	76	60
209.955	210.086	78	60
210.0	210.133	52	49
210.044	210.133	76	60
210.133	210.272	50	52
210.133	211.266	74	64
210.411	210.55	50	49
210.688	211.266	43	39
210.688	211.266	57	47
210.688	211.266	60	39
210.688	211.266	62	39
210.688	211.266	66	39
210.688	211.119	69	39
210.688	211.266	72	58
210.971	211.266	50	40
211.119	211.266	69	53
211.266	212.41	43	35
211.266	212.884	55	41
211.266	212.128	62	45
211.266	212.128	67	45
211.266	211.788	71	63
211.409	211.788	72	57
211.552	211.788	50	44
211.552	211.838	74	60
211.695	211.838	52	44
211.838	211.983	50	47
211.838	212.884	74	60
212.128	212.269	50	44
212.128	212.269	59	42
212.269	212.554	62	38
212.41	212.986	43	41
212.41	212.986	54	41
212.41	212.698	60	42
212.554	212.842	62	38
212.698	212.986	50	41
212.698	212.884	60	42
212.842	212.986	62	38
212.986	214.162	43	39
212.986	214.654	55	47
212.986	213.282	59	48
213.282	213.526	50	49
213.282	214.654	59	42
213.282	213.526	62	42
213.43	213.577	52	49
213.43	213.577	64	39
213.577	213.722	50	52
213.577	213.722	62	46
213.722	213.866	64	40
213.866	214.014	50	49
213.866	214.014	67	48
214.014	214.453	64	44
214.162	214.771	43	41
214.162	214.771	57	47
214.162	214.771	60	46
214.162	214.654	66	51
214.453	214.771	50	47
214.453	214.654	64	48
214.606	214.771	62	48
214.771	215.873	43	42
214.771	216.474	55	51
214.771	216.433	67	53
214.771	216.433	71	53
214.771	216.284	74	63
214.771	216.474	79	82
215.05	215.271	50	53
215.183	215.317	52	53
215.317	215.456	50	57
215.595	215.734	50	53
215.873	216.433	43	39
215.873	216.474	57	47
215.873	216.474	66	46
215.873	216.474	72	60
215.873	216.474	78	68
216.147	216.474	50	47
216.284	216.474	74	66
216.433	217.537	43	47
216.433	218.005	59	47
216.433	218.005	67	58
216.433	218.005	71	58
216.433	216.712	76	69
216.712	216.934	50	49
216.712	216.891	76	60
216.802	216.934	78	60
216.846	216.981	52	49
216.891	216.981	76	60
216.981	217.12	50	52
216.981	218.005	74	64
217.259	217.398	50	49
217.537	218.108	43	39
217.537	218.108	57	47
217.537	218.005	60	39
217.537	218.005	62	39
217.537	218.005	66	39
217.537	217.963	69	39
217.537	218.005	72	58
217.818	218.108	50	40
217.963	218.108	69	53
218.108	219.253	43	35
218.108	219.728	55	41
218.108	218.97	62	45
218.108	218.97	67	45
218.108	218.63	71	63
218.251	218.63	72	57
218.394	218.63	50	44
218.394	218.68	74	60
218.537	218.68	52	44
218.68	218.825	50	47
218.68	219.728	74	60
218.97	219.187	50	44
218.97	219.187	59	42
219.112	219.397	62	38
219.253	219.83	43	41
219.253	219.83	54	41
219.253	219.541	60	42
219.397	219.686	62	38
219.541	219.83	50	41
219.541	219.728	60	42
219.686	219.83	62	38
219.83	221.006	43	39
219.83	221.488	55	47
219.83	220.125	59	48
220.125	220.369	50	49
220.125	221.488	59	42
220.125	220.369	62	42
220.273	220.421	52	49
220.273	220.421	64	39
220.421	220.565	50	52
220.421	220.565	62	46
220.565	220.709	64	40
220.709	220.858	50	49
220.709	220.858	67	48
220.858	221.296	64	44
221.006	221.596	43	39
221.006	221.596	57	47
221.006	221.596	60	42
221.006	221.488	66	51
221.296	221.596	50	47
221.296	221.488	64	48
221.443	221.596	62	48
221.596	222.7	43	44
221.596	222.7	58	53
221.596	222.7	67	56
221.596	222.7	74	66
221.596	222.7	79	79
221.875	222.097	50	56
222.01	222.144	51	56
222.144	222.283	50	59
222.422	222.561	50	56
222.7	223.258	41	40
222.7	223.258	63	49
222.7	223.258	65	48
222.7	223.258	69	57
222.7	223.258	77	70
222.972	223.258	53	49
223.109	223.258	72	68
223.258	224.363	46	49
223.258	224.945	62	49
223.258	224.363	65	60
223.258	224.945	70	60
223.258	223.537	74	72
223.537	223.76	53	51
223.537	223.76	74	66
223.672	223.807	55	51
223.672	223.807	75	66
223.807	223.946	53	55
223.807	224.945	77	72
224.085	224.224	53	51
224.363	224.945	46	40
224.363	224.945	63	49
224.363	224.945	65	40
224.363	224.945	69	40
224.363	224.945	75	67
224.651	224.945	53	41
224.798	224.945	72	56
224.945	226.04	46	40
224.945	226.505	62	49
224.945	226.505	65	42
224.945	226.505	70	47
224.945	225.222	74	72
225.084	225.36	75	63
225.222	225.45	53	51
225.222	225.45	74	68
225.36	225.498	55	51
225.36	225.498	75	61
225.498	225.635	53	55
225.498	225.635	77	70
225.635	225.772	79	62
225.772	225.906	53	51
225.772	225.906	81	69
225.906	226.505	79	60
226.04	226.606	46	40
226.04	226.606	63	49
226.04	226.606	69	44
226.04	226.505	77	69
226.181	226.505	75	69
226.322	226.606	53	49
226.322	226.505	74	74
226.463	226.606	72	69
226.606	227.711	46	40
226.606	228.285	62	49
226.606	228.285	65	50
226.606	228.285	70	50
226.606	226.884	74	77
226.745	227.022	75	66
226.884	227.114	53	51
226.884	227.114	74	72
227.022	227.164	55	51
227.022	227.164	75	61
227.164	227.3	53	55
227.164	227.3	77	70
227.3	227.435	79	62
227.435	227.573	53	51
227.435	227.573	81	69
227.573	228.305	79	60
227.711	228.285	46	46
227.711	228.305	63	46
227.711	228.305	69	61
227.711	228.305	77	67
227.852	228.305	75	66
227.994	228.305	53	42
227.994	228.285	74	63
228.138	228.305	72	62
228.285	229.382	46	39
228.285	229.382	62	48
228.285	229.382	65	49
228.285	229.382	70	59
228.285	229.382	74	74
228.564	228.78	53	44
228.695	228.826	55	44
228.826	228.965	53	49
229.104	229.243	53	45
229.382	229.958	45	36
229.382	229.958	57	44
229.382	229.958	62	48
229.382	229.958	66	48
229.382	229.809	72	57
229.382	229.666	74	62
229.666	229.958	50	44
229.666	229.958	74	58
229.809	229.958	72	58
229.958	231.081	43	39
229.958	230.237	55	48
229.958	231.081	62	49
229.958	231.081	67	59
229.958	230.795	71	69
230.237	230.467	55	44
230.376	230.516	56	44
230.516	230.655	55	49
230.795	230.938	55	45
230.795	230.938	72	58
230.938	231.081	74	58
231.081	231.649	48	36
231.081	231.649	55	44
231.081	231.649	67	48
231.081	231.649	72	48
231.081	231.499	75	62
231.36	231.649	57	44
231.36	231.649	77	58
231.499	231.649	75	58
231.649	232.788	50	39
231.649	232.16	59	48
231.649	232.21	67	59
231.649	232.16	74	74
231.927	232.16	62	44
231.927	232.16	71	58
232.068	232.21	64	44
232.068	232.21	72	58
232.21	232.502	62	49
232.21	232.788	67	49
232.21	232.502	71	52
232.21	232.763	74	68
232.502	232.763	62	45
232.502	232.763	71	55
232.645	232.788	72	55
232.788	233.372	50	36
232.788	233.075	60	44
232.788	233.372	62	46
232.788	233.372	66	46
232.788	233.223	71	60
233.075	233.372	60	41
233.075	233.267	69	55
233.223	233.372	71	55
233.372	234.432	43	39
233.372	234.432	59	47
233.372	233.648	62	55
233.372	233.648	67	60
233.648	233.916	62	51
233.648	233.916	67	56
233.648	233.916	71	51
233.782	233.916	66	56
233.916	234.432	65	60
233.916	234.183	71	55
234.183	234.451	38	34
234.183	234.451	50	40
234.183	234.432	64	56
234.183	234.451	71	51
234.317	234.451	63	60
234.451	234.904	45	37
234.451	234.904	57	45
234.451	234.858	62	63
234.451	234.719	66	58
234.451	234.719	72	58
234.719	234.996	38	41
234.719	234.996	50	49
234.719	234.904	66	58
234.719	234.996	72	53
234.858	234.996	62	58
234.996	236.084	43	44
234.996	236.084	55	52
234.996	235.264	62	60
234.996	235.264	67	66
234.996	235.264	71	60
235.264	235.525	62	55
235.264	235.525	67	60
235.264	235.532	71	55
235.398	235.532	66	60
235.532	236.084	65	64
235.532	235.8	71	59
235.8	236.084	38	42
235.8	236.084	50	50
235.8	236.084	64	56
235.8	236.084	71	51
235.936	236.084	63	57
236.071	236.54	45	39
236.071	236.54	57	47
236.071	236.475	62	63
236.071	236.339	66	58
236.071	236.339	72	58
236.339	236.612	38	37
236.339	236.612	50	44
236.339	236.54	66	57
236.339	236.612	72	52
236.475	236.612	62	57
236.612	237.134	43	44
236.612	237.134	55	52
236.612	236.876	62	60
236.612	236.876	67	66
236.612	236.876	71	60
236.876	237.134	62	55
236.876	237.134	67	60
236.876	237.14	71	55
237.008	237.14	66	60
237.14	237.685	55	52
237.14	237.673	62	59
237.14	237.405	67	59
237.14	237.405	71	64
237.405	237.673	67	51
237.405	237.673	71	56
237.405	237.673	74	51
237.539	237.685	70	57
237.673	238.201	62	47
237.673	238.201	67	58
237.673	237.935	71	58
237.673	237.935	74	63
237.935	238.201	71	52
237.935	238.201	74	57
237.935	238.201	79	52
238.068	238.201	73	57
238.201	238.717	67	52
238.201	238.462	74	60
238.201	238.462	79	66
238.201	238.462	83	60
238.462	238.717	74	55
238.462	238.717	79	60
238.462	238.723	83	55
238.593	238.723	78	60
238.723	239.261	71	52
238.723	239.249	74	59
238.723	238.984	79	59
238.723	238.984	83	64
238.984	239.249	79	51
238.984	239.249	83	56
238.984	239.249	86	51
239.117	239.261	82	57
239.249	239.768	74	47
239.249	239.768	79	57
239.249	239.51	83	57
239.249	239.51	86	57
239.51	239.768	83	51
239.51	239.768	86	56
239.51	239.768	91	51
239.639	239.768	85	56
239.768	240.287	79	47
239.768	240.028	83	57
239.768	240.028	86	62
239.768	240.028	91	57
240.028	240.287	83	50
240.028	240.287	86	55
240.028	240.287	91	50
240.157	240.306	82	53
240.287	240.807	79	45
240.287	240.547	83	53
240.287	240.547	86	58
240.287	240.547	91	53
240.547	240.807	83	48
240.547	240.807	86	52
240.547	240.807	91	48
240.677	240.813	82	51
240.807	241.333	79	42
240.807	241.067	83	51
240.807	241.067	86	56
240.807	241.067	91	51
241.067	241.333	83	45
241.067	241.333	86	49
241.067	241.333	91	45
241.2	241.333	82	49
241.333	241.862	79	40
241.333	241.594	83	49
241.333	241.594	86	53
241.333	241.594	91	49
241.594	241.862	83	42
241.594	241.862	86	46
241.594	241.862	91	42
241.728	241.881	82	46
241.862	242.405	79	38
241.862	242.129	83	46
241.862	242.129	86	50
241.862	242.129	91	46
242.129	242.405	83	40
242.129	242.405	86	44
242.129	242.405	91	40
242.267	242.412	82	42
242.405	242.958	79	36
242.405	242.679	83	44
242.405	242.679	86	48
242.405	242.679	91	44
242.679	242.958	83	38
242.679	242.958	86	41
242.679	242.958	91	38
242.819	242.958	82	40
242.958	245.69	67	29
242.958	245.69	74	34
242.958	245.69	83	33
242.958	245.69	86	33
242.958	245.69	91	37
245.69	247.879	67	71
245.69	247.879	74	71
245.69	247.879	79	80
245.69	247.879	83	81
245.69	247.879	86	81
245.69	247.879	91	92
245.69	247.879	95	92
246.287	248.078	31	75
246.287	248.078	43	85
246.287	248.078	55	99
