# onset,offset,note,velocity
0.500004	0.842992	37.000000	36.000000
0.842992	1.163959	65.000000	31.000000
1.163959	1.463964	56.000000	31.000000
1.463964	1.763969	65.000000	31.000000
1.763969	2.073242	61.000000	31.000000
2.073242	2.382514	53.000000	31.000000
2.382514	2.701684	49.000000	36.000000
2.701684	3.010983	65.000000	31.000000
3.010983	3.314019	56.000000	31.000000
3.314019	3.619174	65.000000	30.000000
3.619174	3.933355	61.000000	33.000000
3.933355	4.271380	53.000000	30.000000
4.271380	6.108051	77.000000	55.000000
4.271380	4.603532	49.000000	36.000000
4.603532	4.919939	65.000000	31.000000
4.919939	5.216967	56.000000	31.000000
5.216967	5.513995	65.000000	31.000000
5.513995	5.811023	61.000000	31.000000
5.811023	6.108051	53.000000	31.000000
6.108051	6.726596	75.000000	55.000000
6.108051	6.417323	49.000000	36.000000
6.417323	6.726596	65.000000	31.000000
6.726596	7.680752	73.000000	55.000000
6.726596	7.045739	56.000000	31.000000
7.045739	7.364881	65.000000	31.000000
7.364881	7.680752	61.000000	31.000000
7.680752	8.018335	65.000000	50.000000
7.680752	8.018335	53.000000	31.000000
8.018335	10.462339	68.000000	55.000000
8.018335	8.349950	49.000000	36.000000
8.349950	8.661958	65.000000	33.000000
8.661958	8.956076	56.000000	33.000000
8.956076	9.250194	65.000000	32.000000
9.250194	9.553230	61.000000	32.000000
9.553230	9.856266	53.000000	32.000000
9.856266	10.159302	49.000000	37.000000
10.159302	10.462339	65.000000	32.000000
10.462339	11.062349	73.000000	58.000000
10.462339	10.762344	56.000000	32.000000
10.762344	11.062349	65.000000	33.000000
11.062349	11.698114	77.000000	61.000000
11.062349	11.370133	61.000000	34.000000
11.370133	11.698114	53.000000	36.000000
11.698114	13.814820	82.000000	68.000000
11.698114	12.007775	49.000000	41.000000
12.007775	12.317436	65.000000	35.000000
12.317436	12.614464	56.000000	34.000000
12.614464	12.911492	65.000000	33.000000
12.911492	13.208520	61.000000	33.000000
13.208520	13.505548	53.000000	32.000000
13.505548	13.814820	49.000000	36.000000
13.814820	14.130275	80.000000	50.000000
13.814820	14.130275	65.000000	31.000000
14.130275	14.436396	76.000000	56.000000
14.130275	14.436396	56.000000	31.000000
14.436396	14.742517	77.000000	50.000000
14.436396	14.742517	65.000000	30.000000
14.742517	15.059018	72.000000	55.000000
14.742517	15.059018	61.000000	30.000000
15.059018	15.389613	73.000000	50.000000
15.059018	15.389613	53.000000	29.000000
15.389613	19.016043	69.000000	63.000000
15.389613	15.714563	37.000000	36.000000
15.714563	16.026022	66.000000	31.000000
16.026022	16.323050	57.000000	31.000000
16.323050	16.620078	66.000000	31.000000
16.620078	16.917106	63.000000	31.000000
16.917106	17.214134	54.000000	31.000000
17.214134	17.502592	49.000000	36.000000
17.502592	17.791050	66.000000	31.000000
17.791050	18.091056	57.000000	31.000000
18.091056	18.391061	66.000000	30.000000
18.391061	18.696189	63.000000	33.000000
18.696189	19.016043	57.000000	30.000000
19.016043	20.879241	70.000000	58.000000
19.016043	19.342200	49.000000	36.000000
19.342200	19.654758	66.000000	31.000000
19.654758	19.960878	58.000000	31.000000
19.960878	20.266999	66.000000	31.000000
20.266999	20.573120	63.000000	31.000000
20.573120	20.879241	54.000000	31.000000
20.879241	21.201817	49.000000	36.000000
21.201817	21.509895	84.000000	56.000000
21.201817	21.509895	66.000000	31.000000
21.509895	21.820790	82.000000	58.000000
21.509895	21.820790	58.000000	31.000000
21.820790	22.138257	77.000000	52.000000
21.820790	22.138257	66.000000	30.000000
22.138257	22.462590	80.000000	56.000000
22.138257	22.462590	63.000000	33.000000
22.462590	22.795345	78.000000	51.000000
22.462590	22.795345	54.000000	30.000000
22.795345	24.048018	77.000000	57.000000
22.795345	23.124452	48.000000	36.000000
23.124452	23.441945	66.000000	31.000000
23.441945	23.744982	57.000000	30.000000
23.744982	24.048018	66.000000	29.000000
24.048018	24.957126	75.000000	58.000000
24.048018	24.351054	63.000000	28.000000
24.351054	24.654090	54.000000	28.000000
24.654090	24.957126	46.000000	37.000000
24.957126	25.032885	77.000000	52.000000
24.957126	25.260162	66.000000	32.000000
25.032885	25.108644	75.000000	52.000000
25.108644	25.184403	74.000000	52.000000
25.184403	25.260162	75.000000	52.000000
25.260162	25.891072	77.000000	61.000000
25.260162	25.575617	58.000000	34.000000
25.575617	25.891072	66.000000	36.000000
25.891072	26.382507	78.000000	69.000000
25.891072	26.212039	63.000000	37.000000
26.212039	26.559707	54.000000	40.000000
26.382507	26.559707	78.000000	57.000000
26.559707	27.787757	90.000000	79.000000
26.559707	26.869368	45.000000	45.000000
26.869368	27.179029	66.000000	33.000000
27.179029	27.488691	57.000000	32.000000
27.488691	27.787757	66.000000	30.000000
27.643521	27.787757	87.000000	56.000000
27.787757	27.931993	85.000000	55.000000
27.787757	28.076229	61.000000	29.000000
27.931993	28.076229	81.000000	54.000000
28.076229	28.220465	78.000000	52.000000
28.076229	28.364701	51.000000	28.000000
28.220465	28.364701	75.000000	49.000000
28.364701	28.516219	72.000000	53.000000
28.364701	28.667723	44.000000	36.000000
28.667723	28.825451	73.000000	54.000000
28.667723	28.983178	66.000000	29.000000
28.983178	29.140906	74.000000	55.000000
28.983178	29.298633	56.000000	31.000000
29.298633	29.456360	75.000000	56.000000
29.298633	29.614088	66.000000	33.000000
29.614088	29.770850	77.000000	57.000000
29.614088	29.930589	60.000000	35.000000
29.930589	30.093962	78.000000	58.000000
29.930589	30.261185	56.000000	36.000000
30.261185	31.663726	79.000000	69.000000
30.261185	30.570846	37.000000	45.000000
30.570846	30.725676	64.000000	35.000000
30.880507	31.190168	55.000000	34.000000
31.190168	31.344999	64.000000	33.000000
31.499830	31.827623	58.000000	33.000000
31.663726	31.827623	80.000000	54.000000
31.827623	31.991519	82.000000	59.000000
31.827623	32.155415	53.000000	32.000000
31.991519	32.155415	80.000000	50.000000
32.155415	34.709068	77.000000	56.000000
32.155415	32.483222	37.000000	33.000000
32.483222	32.798677	65.000000	28.000000
32.798677	33.114131	56.000000	28.000000
33.114131	33.429586	65.000000	28.000000
33.429586	33.746087	61.000000	29.000000
33.746087	34.070769	53.000000	30.000000
34.070769	34.709068	73.000000	53.000000
34.070769	34.389925	46.000000	45.000000
34.389925	34.709068	65.000000	33.000000
34.709068	35.591582	75.000000	55.000000
34.709068	35.591582	78.000000	65.000000
34.709068	35.006096	58.000000	33.000000
35.006096	35.303124	65.000000	32.000000
35.303124	35.591582	61.000000	31.000000
35.591582	35.910725	70.000000	51.000000
35.591582	35.910725	73.000000	60.000000
35.591582	35.910725	53.000000	31.000000
35.910725	36.498974	72.000000	55.000000
35.910725	36.498974	75.000000	65.000000
35.910725	36.204856	46.000000	39.000000
36.204856	36.498974	65.000000	34.000000
36.498974	37.105047	73.000000	53.000000
36.498974	37.105047	77.000000	62.000000
36.498974	36.802010	57.000000	34.000000
36.802010	37.105047	65.000000	33.000000
37.105047	37.746229	69.000000	52.000000
37.105047	37.746229	72.000000	61.000000
37.105047	37.421547	63.000000	33.000000
37.421547	37.746229	53.000000	32.000000
37.746229	38.365551	72.000000	55.000000
37.746229	38.365551	75.000000	65.000000
37.746229	38.055890	46.000000	45.000000
38.055890	38.365551	65.000000	33.000000
38.365551	38.662579	70.000000	50.000000
38.365551	38.662579	73.000000	59.000000
38.365551	38.662579	58.000000	33.000000
38.662579	38.975929	65.000000	32.000000
38.811094	38.975929	82.000000	64.000000
38.811094	38.975929	73.000000	54.000000
38.975929	39.172991	73.000000	56.000000
38.975929	39.172991	82.000000	66.000000
38.975929	39.274512	61.000000	31.000000
39.172991	39.378690	72.000000	55.000000
39.172991	39.378690	80.000000	65.000000
39.274512	39.589216	53.000000	31.000000
39.378690	39.589216	70.000000	54.000000
39.378690	39.589216	78.000000	64.000000
39.589216	40.205012	70.000000	53.000000
39.589216	40.811084	77.000000	63.000000
39.589216	39.905006	41.000000	39.000000
39.905006	40.205012	65.000000	34.000000
40.205012	40.407036	69.000000	52.000000
40.205012	40.508048	60.000000	34.000000
40.407036	40.609060	70.000000	54.000000
40.508048	40.811084	65.000000	31.000000
40.609060	40.811084	71.000000	56.000000
40.811084	40.915274	77.000000	58.000000
40.811084	40.915274	72.000000	49.000000
40.811084	41.127585	63.000000	34.000000
41.020927	41.127585	77.000000	60.000000
41.020927	41.127585	73.000000	51.000000
41.127585	41.452266	57.000000	36.000000
41.235812	41.344039	77.000000	62.000000
41.235812	41.344039	75.000000	52.000000
41.452266	42.090566	73.000000	53.000000
41.452266	42.090566	77.000000	63.000000
41.452266	41.771423	46.000000	45.000000
41.771423	42.090566	65.000000	33.000000
42.090566	42.973080	75.000000	55.000000
42.090566	42.973080	78.000000	65.000000
42.090566	42.387594	58.000000	33.000000
42.387594	42.684622	65.000000	32.000000
42.684622	42.973080	61.000000	31.000000
42.973080	43.292223	70.000000	51.000000
42.973080	43.292223	73.000000	60.000000
42.973080	43.292223	53.000000	31.000000
43.292223	43.402515	70.000000	49.000000
43.292223	43.402515	73.000000	58.000000
43.292223	43.586341	46.000000	39.000000
43.402515	43.733393	73.000000	55.000000
43.402515	43.733393	77.000000	65.000000
43.586341	43.880458	65.000000	34.000000
43.733393	44.082483	72.000000	58.000000
43.733393	43.806926	75.000000	58.000000
43.806926	43.880458	77.000000	53.000000
43.880458	44.082483	75.000000	62.000000
43.880458	44.183495	57.000000	34.000000
44.082483	44.284507	70.000000	47.000000
44.082483	44.284507	73.000000	55.000000
44.183495	44.486531	65.000000	33.000000
44.284507	44.486531	72.000000	47.000000
44.284507	44.486531	75.000000	55.000000
44.486531	44.643293	73.000000	52.000000
44.486531	44.643293	77.000000	61.000000
44.486531	44.803032	63.000000	33.000000
44.803032	45.127713	53.000000	32.000000
44.965372	45.127713	69.000000	52.000000
44.965372	45.127713	72.000000	61.000000
45.127713	45.747036	72.000000	55.000000
45.127713	45.747036	75.000000	65.000000
45.127713	45.437374	46.000000	45.000000
45.437374	45.747036	65.000000	33.000000
45.747036	46.044064	70.000000	50.000000
45.747036	46.044064	73.000000	59.000000
45.747036	46.044064	58.000000	33.000000
46.044064	46.341092	65.000000	32.000000
46.341092	46.923829	73.000000	47.000000
46.341092	47.209551	82.000000	66.000000
46.341092	46.638120	61.000000	31.000000
46.638120	46.923829	53.000000	31.000000
46.923829	47.209551	74.000000	66.000000
46.923829	47.209551	46.000000	41.000000
47.209551	47.498010	80.000000	53.000000
47.209551	47.498010	83.000000	62.000000
47.209551	47.498010	68.000000	34.000000
47.498010	47.700034	73.000000	53.000000
47.498010	47.700034	82.000000	62.000000
47.498010	47.801046	58.000000	31.000000
47.700034	47.902058	80.000000	54.000000
47.700034	47.902058	81.000000	58.000000
47.801046	48.104082	68.000000	33.000000
47.902058	48.104082	73.000000	57.000000
47.902058	48.104082	82.000000	67.000000
48.104082	48.260844	89.000000	70.000000
48.104082	48.260844	80.000000	58.000000
48.104082	48.420583	62.000000	36.000000
48.420583	48.745265	53.000000	38.000000
48.582924	48.798466	80.000000	57.000000
48.582924	48.745265	82.000000	67.000000
48.745265	49.383564	82.000000	68.000000
48.745265	49.383564	78.000000	57.000000
48.745265	49.064421	39.000000	45.000000
49.064421	49.383564	66.000000	37.000000
49.383564	49.977620	80.000000	56.000000
49.383564	49.977620	83.000000	66.000000
49.383564	49.680592	58.000000	35.000000
49.680592	49.977620	66.000000	35.000000
49.977620	50.585221	75.000000	54.000000
49.977620	50.585221	78.000000	64.000000
49.977620	50.266078	63.000000	35.000000
50.266078	50.585221	54.000000	35.000000
50.585221	50.781304	78.000000	54.000000
50.585221	50.781304	82.000000	64.000000
50.585221	50.879339	51.000000	46.000000
50.781304	50.977374	77.000000	52.000000
50.781304	50.977374	80.000000	61.000000
50.879339	51.173457	68.000000	36.000000
50.977374	51.173457	78.000000	52.000000
50.977374	51.173457	82.000000	61.000000
51.173457	51.375481	77.000000	55.000000
51.173457	51.375481	80.000000	65.000000
51.173457	51.476493	58.000000	36.000000
51.375481	51.577505	75.000000	52.000000
51.375481	51.577505	78.000000	61.000000
51.476493	51.779529	68.000000	36.000000
51.577505	51.779529	77.000000	52.000000
51.577505	51.779529	80.000000	61.000000
51.779529	51.936291	78.000000	55.000000
51.779529	51.936291	82.000000	65.000000
51.779529	52.096030	62.000000	36.000000
52.096030	52.420711	53.000000	36.000000
52.258371	52.420711	77.000000	60.000000
52.258371	52.420711	74.000000	51.000000
52.420711	53.040034	77.000000	56.000000
52.420711	53.040034	80.000000	66.000000
52.420711	52.730373	51.000000	46.000000
52.730373	53.040034	66.000000	37.000000
53.040034	53.337062	75.000000	51.000000
53.040034	53.337062	78.000000	60.000000
53.040034	53.337062	58.000000	37.000000
53.337062	53.652248	66.000000	37.000000
53.485576	53.652248	87.000000	63.000000
53.485576	53.652248	78.000000	53.000000
53.652248	53.851792	78.000000	57.000000
53.652248	53.851792	87.000000	68.000000
53.652248	53.955419	63.000000	35.000000
53.851792	54.061795	77.000000	57.000000
53.851792	54.061795	85.000000	67.000000
53.955419	54.274562	54.000000	35.000000
54.061795	54.274562	75.000000	55.000000
54.061795	54.274562	83.000000	65.000000
54.274562	54.487328	74.000000	50.000000
54.274562	54.487328	82.000000	59.000000
54.274562	54.593704	46.000000	48.000000
54.487328	54.593704	70.000000	50.000000
54.487328	54.593704	82.000000	59.000000
54.593704	54.893723	68.000000	36.000000
54.693711	54.793717	71.000000	50.000000
54.693711	54.793717	82.000000	59.000000
54.893723	54.993729	72.000000	51.000000
54.893723	54.993729	82.000000	60.000000
54.893723	55.193742	58.000000	38.000000
55.093736	55.193742	73.000000	52.000000
55.093736	55.193742	82.000000	61.000000
55.193742	55.494780	68.000000	40.000000
55.293748	55.393754	74.000000	53.000000
55.293748	55.393754	82.000000	62.000000
55.494780	55.598407	82.000000	64.000000
55.494780	55.598407	75.000000	54.000000
55.494780	55.812340	62.000000	42.000000
55.704234	55.812340	82.000000	65.000000
55.704234	55.812340	76.000000	55.000000
55.812340	56.151465	53.000000	44.000000
55.922847	56.035849	82.000000	66.000000
55.922847	56.035849	77.000000	56.000000
56.151465	56.406798	78.000000	45.000000
56.151465	56.406798	82.000000	54.000000
56.151465	56.470622	39.000000	45.000000
56.406798	56.662105	80.000000	47.000000
56.406798	56.662105	83.000000	57.000000
56.470622	56.789764	66.000000	33.000000
56.662105	56.908573	82.000000	60.000000
56.662105	56.908573	78.000000	50.000000
56.789764	57.086792	58.000000	33.000000
56.908573	57.146203	77.000000	53.000000
56.908573	57.146203	80.000000	63.000000
57.086792	57.383834	66.000000	32.000000
57.146203	57.383834	78.000000	54.000000
57.146203	57.383834	82.000000	65.000000
57.383834	57.528070	80.000000	58.000000
57.383834	57.528070	83.000000	69.000000
57.383834	57.672306	63.000000	31.000000
57.672306	57.991462	54.000000	31.000000
57.831884	57.991462	78.000000	66.000000
57.831884	57.991462	75.000000	56.000000
57.991462	58.146091	75.000000	53.000000
57.991462	58.146091	78.000000	63.000000
57.991462	58.300734	51.000000	39.000000
58.146091	58.300734	78.000000	59.000000
58.146091	58.300734	82.000000	70.000000
58.300734	58.610020	68.000000	34.000000
58.455377	58.610020	80.000000	64.000000
58.455377	58.610020	77.000000	54.000000
58.610020	58.670262	77.000000	62.000000
58.610020	58.670262	80.000000	62.000000
58.610020	58.952002	58.000000	34.000000
58.670262	58.730505	82.000000	55.000000
58.670262	58.730505	78.000000	55.000000
58.730505	58.850990	80.000000	61.000000
58.730505	58.850990	77.000000	61.000000
58.850990	59.053014	75.000000	53.000000
58.850990	59.053014	78.000000	63.000000
58.952002	59.255038	68.000000	33.000000
59.154026	59.255038	77.000000	54.000000
59.154026	59.255038	80.000000	64.000000
59.255038	59.464881	77.000000	55.000000
59.255038	59.464881	80.000000	65.000000
59.255038	59.571539	62.000000	33.000000
59.464881	59.571539	78.000000	57.000000
59.464881	59.571539	82.000000	67.000000
59.571539	59.896221	53.000000	32.000000
59.787993	59.896221	74.000000	55.000000
59.787993	59.896221	77.000000	65.000000
59.896221	60.062893	74.000000	59.000000
59.896221	60.062893	77.000000	59.000000
59.896221	60.217536	51.000000	52.000000
60.062893	60.372179	77.000000	53.000000
60.062893	60.372179	80.000000	62.000000
60.217536	60.526822	66.000000	40.000000
60.526822	60.823850	58.000000	40.000000
60.823850	61.120878	66.000000	40.000000
61.120878	62.357216	75.000000	61.000000
61.120878	62.357216	78.000000	73.000000
61.120878	61.417906	63.000000	40.000000
61.417906	61.737049	54.000000	40.000000
61.737049	63.239717	45.000000	66.000000
62.056191	62.357216	61.000000	42.000000
62.357216	62.652380	74.000000	61.000000
62.357216	62.652380	78.000000	73.000000
62.357216	62.652380	51.000000	44.000000
62.652380	62.946498	61.000000	46.000000
62.946498	63.239717	78.000000	76.000000
62.946498	63.239717	73.000000	64.000000
62.946498	63.239717	54.000000	48.000000
63.239717	63.550692	45.000000	50.000000
63.550692	64.460539	72.000000	64.000000
63.550692	64.460539	78.000000	78.000000
63.550692	63.866483	44.000000	56.000000
63.866483	64.163511	60.000000	49.000000
64.163511	64.460539	51.000000	49.000000
64.460539	64.790209	69.000000	62.000000
64.460539	64.790209	81.000000	74.000000
64.460539	64.790209	60.000000	49.000000
64.790209	66.024361	68.000000	64.000000
64.790209	66.024361	80.000000	76.000000
64.790209	65.096330	54.000000	48.000000
65.096330	65.402451	51.000000	48.000000
65.402451	67.346410	45.000000	70.000000
65.708571	66.024361	57.000000	53.000000
66.024361	66.665718	66.000000	60.000000
66.024361	66.665718	78.000000	72.000000
66.024361	66.340151	51.000000	53.000000
66.340151	66.665718	57.000000	53.000000
66.665718	67.346410	61.000000	58.000000
66.665718	67.346410	73.000000	70.000000
66.665718	67.001558	54.000000	53.000000
67.001558	67.346410	51.000000	53.000000
67.346410	68.565769	60.000000	56.000000
67.346410	68.565769	72.000000	66.000000
67.346410	67.655213	44.000000	52.000000
67.655213	67.958731	56.000000	38.000000
67.958731	68.262250	51.000000	36.000000
68.262250	68.565769	56.000000	34.000000
68.565769	69.193259	68.000000	52.000000
68.565769	68.869288	54.000000	32.000000
68.869288	69.193259	51.000000	30.000000
69.193259	69.395605	69.000000	57.000000
69.193259	69.496778	49.000000	37.000000
69.395605	69.597951	71.000000	50.000000
69.496778	69.800297	64.000000	32.000000
69.597951	69.800297	69.000000	52.000000
69.800297	70.097567	68.000000	51.000000
69.800297	70.097567	54.000000	32.000000
70.097567	70.412632	69.000000	51.000000
70.097567	70.412632	64.000000	32.000000
70.412632	70.898998	76.000000	57.000000
70.412632	70.731346	57.000000	32.000000
70.731346	71.070619	49.000000	33.000000
70.898998	71.070619	75.000000	53.000000
71.070619	71.693294	75.000000	57.000000
71.070619	71.402033	48.000000	52.000000
71.402033	71.693294	63.000000	36.000000
71.693294	71.996813	54.000000	38.000000
71.996813	72.317109	69.000000	61.000000
71.996813	72.317109	81.000000	73.000000
71.996813	72.317109	63.000000	41.000000
72.317109	73.548123	68.000000	58.000000
72.317109	73.548123	80.000000	70.000000
72.317109	72.617115	56.000000	44.000000
72.617115	72.941085	54.000000	47.000000
72.941085	73.244604	45.000000	53.000000
73.244604	73.548123	61.000000	44.000000
73.548123	73.708305	68.000000	55.000000
73.548123	73.708305	80.000000	65.000000
73.548123	73.868487	51.000000	43.000000
73.708305	73.868487	66.000000	54.000000
73.708305	73.868487	78.000000	64.000000
73.868487	74.028668	68.000000	53.000000
73.868487	74.028668	80.000000	63.000000
73.868487	74.188850	61.000000	41.000000
74.028668	74.188850	66.000000	53.000000
74.028668	74.188850	78.000000	62.000000
74.188850	74.344485	64.000000	53.000000
74.188850	74.344485	76.000000	62.000000
74.188850	74.503728	54.000000	40.000000
74.344485	74.503728	63.000000	52.000000
74.344485	74.503728	75.000000	61.000000
74.503728	74.665599	64.000000	51.000000
74.503728	74.665599	76.000000	60.000000
74.503728	74.830301	51.000000	39.000000
74.665599	74.830301	63.000000	50.000000
74.665599	74.830301	75.000000	59.000000
74.830301	75.139104	60.000000	56.000000
74.830301	75.139104	72.000000	66.000000
74.830301	75.139104	44.000000	52.000000
75.139104	75.442623	56.000000	38.000000
75.442623	75.746142	51.000000	36.000000
75.746142	76.049660	56.000000	34.000000
76.049660	76.353179	54.000000	28.000000
76.353179	76.677150	68.000000	46.000000
76.353179	76.677150	44.000000	27.000000
76.677150	76.879496	69.000000	51.000000
76.677150	76.980669	49.000000	33.000000
76.879496	77.081842	71.000000	45.000000
76.980669	77.284188	64.000000	28.000000
77.081842	77.284188	69.000000	46.000000
77.284188	77.581458	68.000000	45.000000
77.284188	77.581458	54.000000	28.000000
77.581458	77.734545	69.000000	45.000000
77.581458	77.896537	64.000000	28.000000
77.734545	77.896537	69.000000	46.000000
77.896537	78.215251	76.000000	52.000000
77.896537	78.215251	57.000000	28.000000
78.215251	78.554523	49.000000	29.000000
78.382902	78.554523	75.000000	49.000000
78.554523	79.177199	75.000000	54.000000
78.554523	78.885937	48.000000	37.000000
78.885937	79.177199	63.000000	29.000000
79.177199	79.480718	54.000000	29.000000
79.480718	79.801014	63.000000	29.000000
79.801014	80.101019	57.000000	29.000000
80.101019	80.424990	54.000000	29.000000
80.424990	84.150983	75.000000	51.000000
80.424990	80.728509	47.000000	33.000000
80.728509	81.032028	63.000000	29.000000
81.032028	81.335547	54.000000	29.000000
81.335547	81.639066	63.000000	29.000000
81.639066	81.953944	57.000000	29.000000
81.953944	82.280517	54.000000	29.000000
82.280517	82.611931	47.000000	37.000000
82.611931	82.903192	63.000000	29.000000
82.903192	83.206711	53.000000	29.000000
83.206711	83.527007	63.000000	29.000000
83.527007	83.827012	56.000000	29.000000
83.827012	84.454502	53.000000	29.000000
84.150983	85.999549	74.000000	51.000000
84.150983	84.454502	47.000000	33.000000
84.454502	84.758021	62.000000	29.000000
84.758021	85.366883	52.000000	29.000000
85.063324	85.366883	62.000000	29.000000
85.366883	85.678314	56.000000	29.000000
85.678314	85.999549	52.000000	29.000000
85.999549	87.246040	73.000000	54.000000
85.999549	86.330963	45.000000	37.000000
86.330963	86.622225	61.000000	29.000000
86.622225	86.925743	52.000000	29.000000
86.925743	87.246040	61.000000	29.000000
87.246040	87.546045	57.000000	29.000000
87.546045	87.870016	52.000000	29.000000
87.870016	90.348218	73.000000	51.000000
87.870016	88.173535	45.000000	33.000000
88.173535	88.477054	61.000000	29.000000
88.477054	88.780573	51.000000	29.000000
88.780573	89.084092	61.000000	29.000000
89.084092	89.398970	54.000000	29.000000
89.398970	89.725542	51.000000	29.000000
89.725542	90.056956	44.000000	37.000000
90.056956	90.348218	60.000000	29.000000
90.348218	90.955256	72.000000	49.000000
90.348218	90.651737	51.000000	29.000000
90.651737	90.955256	60.000000	29.000000
90.955256	91.901808	70.000000	48.000000
90.955256	91.255261	54.000000	29.000000
91.255261	91.579232	49.000000	29.000000
91.579232	91.901808	44.000000	33.000000
91.901808	92.224384	68.000000	42.000000
91.901808	92.224384	56.000000	29.000000
92.224384	92.548945	70.000000	44.000000
92.224384	92.548945	48.000000	29.000000
92.548945	92.884181	72.000000	45.000000
92.548945	92.884181	56.000000	29.000000
92.884181	93.231044	73.000000	47.000000
92.884181	93.231044	54.000000	29.000000
93.231044	93.590367	75.000000	48.000000
93.231044	93.590367	51.000000	29.000000
93.590367	95.427037	77.000000	49.000000
93.590367	93.922518	37.000000	32.000000
93.922518	94.238925	65.000000	27.000000
94.238925	94.535953	56.000000	27.000000
94.535953	94.832981	65.000000	27.000000
94.832981	95.130009	61.000000	27.000000
95.130009	95.427037	53.000000	27.000000
95.427037	96.045582	75.000000	49.000000
95.427037	95.736310	49.000000	32.000000
95.736310	96.045582	65.000000	27.000000
96.045582	96.989868	73.000000	49.000000
96.045582	96.354854	56.000000	27.000000
96.354854	96.673997	65.000000	27.000000
96.673997	96.989868	61.000000	27.000000
96.989868	97.354085	65.000000	45.000000
96.989868	97.354085	53.000000	27.000000
97.354085	99.817025	68.000000	49.000000
97.354085	97.704637	49.000000	32.000000
97.704637	98.016645	65.000000	29.000000
98.016645	98.310763	56.000000	29.000000
98.310763	98.604880	65.000000	28.000000
98.604880	98.907917	61.000000	28.000000
98.907917	99.210953	53.000000	28.000000
99.210953	99.513989	49.000000	33.000000
99.513989	99.817025	65.000000	28.000000
99.817025	100.448055	73.000000	52.000000
99.817025	100.132815	56.000000	28.000000
100.132815	100.448055	65.000000	29.000000
100.448055	101.108134	77.000000	54.000000
100.448055	100.769022	61.000000	30.000000
100.769022	101.108134	53.000000	32.000000
101.108134	103.224841	82.000000	61.000000
101.108134	101.417795	49.000000	36.000000
101.417795	101.727457	65.000000	31.000000
101.727457	102.024485	56.000000	30.000000
102.024485	102.321513	65.000000	29.000000
102.321513	102.618541	61.000000	29.000000
102.618541	102.915569	53.000000	28.000000
102.915569	103.224841	49.000000	32.000000
103.224841	103.547417	80.000000	45.000000
103.224841	103.547417	65.000000	27.000000
103.547417	103.871750	76.000000	50.000000
103.547417	103.871750	56.000000	27.000000
103.871750	104.203258	77.000000	45.000000
103.871750	104.203258	65.000000	27.000000
104.203258	104.544891	72.000000	49.000000
104.203258	104.544891	61.000000	27.000000
104.544891	104.912743	73.000000	45.000000
104.544891	104.912743	53.000000	26.000000
104.912743	108.698804	69.000000	56.000000
104.912743	105.591731	37.000000	34.000000
105.263750	105.591731	66.000000	27.000000
105.591731	105.904235	57.000000	27.000000
105.904235	106.216740	66.000000	27.000000
106.216740	106.532530	61.000000	27.000000
106.532530	106.848320	54.000000	27.000000
106.848320	107.154441	49.000000	32.000000
107.154441	107.460561	66.000000	27.000000
107.460561	107.766682	57.000000	27.000000
107.766682	108.072803	66.000000	27.000000
108.072803	108.378950	62.000000	31.000000
108.378950	108.698804	54.000000	27.000000
108.698804	110.562002	70.000000	52.000000
108.698804	109.337519	49.000000	34.000000
109.024961	109.337519	66.000000	27.000000
109.337519	109.643639	58.000000	27.000000
109.643639	109.949760	66.000000	27.000000
109.949760	110.255881	63.000000	27.000000
110.255881	110.562002	54.000000	27.000000
110.562002	110.899075	49.000000	32.000000
110.899075	111.215053	84.000000	50.000000
110.899075	111.215053	66.000000	27.000000
111.215053	111.529193	82.000000	52.000000
111.215053	111.529193	58.000000	27.000000
111.529193	111.850053	77.000000	46.000000
111.529193	111.850053	66.000000	27.000000
111.850053	112.177926	80.000000	50.000000
111.850053	112.177926	63.000000	29.000000
112.177926	112.513766	78.000000	45.000000
112.177926	112.513766	54.000000	27.000000
112.513766	113.766452	77.000000	51.000000
112.513766	112.842887	48.000000	32.000000
112.842887	113.160380	66.000000	27.000000
113.160380	113.463416	57.000000	27.000000
113.463416	113.766452	66.000000	26.000000
113.766452	114.839860	75.000000	52.000000
113.766452	114.069488	63.000000	25.000000
114.069488	114.372525	54.000000	25.000000
114.372525	114.680268	46.000000	33.000000
114.680268	115.002898	74.000000	57.000000
114.680268	115.002898	66.000000	28.000000
115.002898	115.332568	75.000000	57.000000
115.002898	115.332568	58.000000	30.000000
115.332568	115.662239	76.000000	57.000000
115.332568	115.662239	66.000000	32.000000
115.662239	116.164550	77.000000	62.000000
115.662239	115.992124	63.000000	33.000000
115.992124	116.357575	54.000000	36.000000
116.164550	116.251762	78.000000	51.000000
116.251762	116.357575	78.000000	51.000000
116.357575	117.183334	90.000000	71.000000
116.357575	116.667236	45.000000	40.000000
116.667236	116.976898	66.000000	29.000000
116.976898	117.286559	57.000000	28.000000
117.183334	117.389784	87.000000	65.000000
117.286559	117.585625	66.000000	27.000000
117.389784	117.585625	85.000000	62.000000
117.585625	117.777926	81.000000	60.000000
117.585625	117.874084	61.000000	26.000000
117.777926	117.970241	78.000000	58.000000
117.874084	118.162542	51.000000	25.000000
117.970241	118.162542	75.000000	55.000000
118.162542	118.465565	72.000000	47.000000
118.162542	118.465565	44.000000	32.000000
118.465565	118.781020	66.000000	26.000000
118.623292	118.781020	68.000000	49.000000
118.781020	118.888549	75.000000	50.000000
118.781020	119.103609	56.000000	27.000000
118.888549	118.996079	84.000000	50.000000
118.996079	119.103609	69.000000	48.000000
119.103609	119.211139	76.000000	52.000000
119.103609	119.426199	66.000000	29.000000
119.211139	119.318669	85.000000	53.000000
119.318669	119.426199	70.000000	50.000000
119.426199	119.533728	77.000000	54.000000
119.426199	119.754488	60.000000	31.000000
119.533728	119.641835	86.000000	55.000000
119.641835	119.754488	71.000000	53.000000
119.754488	119.874275	78.000000	56.000000
119.754488	120.138004	51.000000	32.000000
119.874275	120.002874	87.000000	57.000000
120.002874	120.138004	72.000000	54.000000
120.138004	121.055561	88.000000	64.000000
120.138004	121.055561	79.000000	54.000000
120.138004	120.460580	37.000000	34.000000
120.460580	120.746289	68.000000	29.000000
120.746289	121.055561	56.000000	29.000000
121.055561	121.364833	89.000000	58.000000
121.055561	121.364833	80.000000	49.000000
121.055561	121.364833	68.000000	29.000000
121.364833	121.571015	89.000000	57.000000
121.364833	121.571015	80.000000	48.000000
121.364833	121.674106	61.000000	29.000000
121.571015	121.674106	90.000000	61.000000
121.571015	121.674106	82.000000	51.000000
121.674106	121.993584	53.000000	29.000000
121.883694	121.993584	80.000000	45.000000
121.883694	121.993584	89.000000	54.000000
121.993584	122.158419	89.000000	58.000000
121.993584	122.158419	80.000000	49.000000
121.993584	122.323254	49.000000	33.000000
122.158419	123.869106	85.000000	54.000000
122.158419	123.869106	77.000000	45.000000
122.323254	122.641324	65.000000	29.000000
122.641324	122.946453	56.000000	29.000000
122.946453	123.243481	65.000000	30.000000
123.243481	123.548140	61.000000	30.000000
123.548140	123.869106	56.000000	30.000000
123.869106	124.491419	85.000000	60.000000
123.869106	124.491419	76.000000	51.000000
123.869106	124.191870	49.000000	35.000000
124.191870	124.491419	64.000000	32.000000
124.491419	125.085476	86.000000	57.000000
124.491419	125.085476	78.000000	48.000000
124.491419	124.788447	52.000000	31.000000
124.788447	125.085476	64.000000	31.000000
125.085476	125.679532	81.000000	54.000000
125.085476	125.679532	73.000000	45.000000
125.085476	125.382504	57.000000	31.000000
125.382504	125.679532	52.000000	31.000000
125.679532	125.979523	85.000000	61.000000
125.679532	125.979523	76.000000	61.000000
125.679532	125.979523	50.000000	28.000000
125.979523	126.050951	74.000000	43.000000
125.979523	126.050951	83.000000	51.000000
125.979523	126.265232	64.000000	29.000000
126.050951	126.122378	76.000000	51.000000
126.050951	126.122378	85.000000	51.000000
126.122378	126.265232	74.000000	45.000000
126.122378	126.265232	83.000000	54.000000
126.265232	126.550942	82.000000	54.000000
126.265232	126.550942	73.000000	45.000000
126.265232	126.550942	52.000000	30.000000
126.550942	126.836651	74.000000	48.000000
126.550942	126.836651	83.000000	57.000000
126.550942	126.836651	64.000000	31.000000
126.836651	126.982295	85.000000	60.000000
126.836651	126.982295	76.000000	51.000000
126.836651	127.132311	56.000000	32.000000
127.132311	127.449536	52.000000	33.000000
127.286967	127.449536	71.000000	45.000000
127.286967	127.449536	80.000000	54.000000
127.449536	127.767311	74.000000	54.000000
127.449536	127.767311	83.000000	64.000000
127.449536	127.767311	49.000000	37.000000
127.767311	128.064339	64.000000	35.000000
128.064339	128.361367	52.000000	35.000000
128.361367	128.669459	81.000000	61.000000
128.361367	128.669459	73.000000	51.000000
128.361367	128.669459	64.000000	35.000000
128.669459	128.775835	73.000000	51.000000
128.669459	128.775835	81.000000	61.000000
128.669459	128.988588	57.000000	35.000000
128.882212	128.988588	73.000000	50.000000
128.882212	128.988588	80.000000	59.000000
128.988588	129.307168	52.000000	35.000000
129.094965	129.201341	73.000000	50.000000
129.094965	129.201341	78.000000	59.000000
129.307168	130.223076	74.000000	51.000000
129.307168	130.223076	76.000000	61.000000
129.307168	129.616494	44.000000	40.000000
129.616494	129.919530	64.000000	31.000000
129.919530	130.223076	52.000000	33.000000
130.223076	130.376136	70.000000	49.000000
130.223076	130.376136	76.000000	58.000000
130.223076	130.530256	64.000000	36.000000
130.530256	130.684899	71.000000	52.000000
130.530256	130.684899	76.000000	61.000000
130.530256	130.841151	62.000000	38.000000
130.841151	130.997953	72.000000	55.000000
130.841151	130.997953	76.000000	66.000000
130.841151	131.155841	52.000000	41.000000
131.155841	132.388197	73.000000	59.000000
131.155841	132.388197	76.000000	67.000000
131.155841	131.474998	45.000000	42.000000
131.474998	131.794141	64.000000	34.000000
131.794141	132.091169	52.000000	34.000000
132.091169	132.388197	64.000000	34.000000
132.388197	132.676655	74.000000	55.000000
132.388197	132.676655	78.000000	61.000000
132.388197	132.676655	61.000000	33.000000
132.676655	132.995798	69.000000	55.000000
132.676655	132.995798	73.000000	65.000000
132.676655	132.995798	52.000000	33.000000
132.995798	133.150427	68.000000	50.000000
132.995798	133.150427	73.000000	59.000000
132.995798	133.305070	40.000000	42.000000
133.150427	133.459713	73.000000	56.000000
133.150427	133.459713	76.000000	66.000000
133.305070	133.614356	64.000000	36.000000
133.459713	133.614356	74.000000	60.000000
133.459713	133.614356	71.000000	51.000000
133.614356	133.674598	74.000000	58.000000
133.614356	133.674598	71.000000	58.000000
133.614356	133.956338	56.000000	37.000000
133.674598	133.734841	76.000000	52.000000
133.674598	133.734841	73.000000	52.000000
133.734841	133.855326	74.000000	57.000000
133.734841	133.855326	71.000000	57.000000
133.855326	134.057350	70.000000	50.000000
133.855326	134.057350	73.000000	59.000000
133.956338	134.259374	64.000000	37.000000
134.057350	134.259374	71.000000	51.000000
134.057350	134.259374	74.000000	60.000000
134.259374	134.469217	71.000000	52.000000
134.259374	134.469217	74.000000	61.000000
134.259374	134.575875	62.000000	37.000000
134.469217	134.575875	73.000000	54.000000
134.469217	134.684102	76.000000	63.000000
134.575875	134.900556	52.000000	37.000000
134.792329	134.900556	68.000000	55.000000
134.792329	134.900556	71.000000	65.000000
134.900556	135.531131	74.000000	62.000000
134.900556	135.531131	71.000000	53.000000
134.900556	135.221858	45.000000	52.000000
135.221858	135.531131	64.000000	40.000000
135.531131	136.125187	73.000000	62.000000
135.531131	136.125187	69.000000	53.000000
135.531131	135.828159	57.000000	40.000000
135.828159	136.125187	64.000000	40.000000
136.125187	137.361525	73.000000	59.000000
136.125187	137.361525	81.000000	70.000000
136.125187	136.422215	61.000000	40.000000
136.422215	136.741358	52.000000	40.000000
136.741358	137.060500	39.000000	62.000000
137.060500	137.361525	66.000000	42.000000
137.361525	137.950807	73.000000	59.000000
137.361525	137.950807	81.000000	70.000000
137.361525	137.656689	57.000000	44.000000
137.656689	137.950807	66.000000	46.000000
137.950807	138.555002	81.000000	76.000000
137.950807	138.555002	73.000000	64.000000
137.950807	138.244026	61.000000	48.000000
138.244026	138.555002	51.000000	50.000000
138.555002	140.608569	73.000000	63.000000
138.555002	139.185576	80.000000	75.000000
138.555002	138.876304	44.000000	52.000000
138.876304	139.185576	66.000000	40.000000
139.185576	140.076660	81.000000	74.000000
139.185576	139.482604	56.000000	40.000000
139.482604	139.779632	66.000000	40.000000
139.779632	140.076660	61.000000	40.000000
140.076660	140.395803	80.000000	75.000000
140.076660	140.395803	51.000000	40.000000
140.395803	141.237051	78.000000	73.000000
140.395803	140.714946	44.000000	60.000000
140.608569	140.821322	75.000000	72.000000
140.714946	141.031916	66.000000	42.000000
140.821322	141.031916	73.000000	70.000000
141.031916	141.927882	72.000000	70.000000
141.031916	141.338573	56.000000	44.000000
141.237051	141.438579	76.000000	70.000000
141.338573	141.634662	66.000000	46.000000
141.438579	141.634662	78.000000	75.000000
141.634662	141.779354	80.000000	75.000000
141.634662	141.927882	60.000000	48.000000
141.927882	142.230918	51.000000	50.000000
142.079400	142.230918	72.000000	61.000000
142.079400	142.230918	75.000000	72.000000
142.230918	143.059506	75.000000	64.000000
142.230918	143.059506	78.000000	76.000000
142.230918	142.552220	44.000000	52.000000
142.552220	142.861492	64.000000	40.000000
142.861492	143.158520	56.000000	40.000000
143.059506	143.158520	73.000000	62.000000
143.059506	143.158520	76.000000	73.000000
143.158520	143.466599	64.000000	40.000000
143.360222	143.466599	76.000000	62.000000
143.360222	143.466599	85.000000	73.000000
143.466599	143.666598	76.000000	63.000000
143.466599	143.666598	85.000000	75.000000
143.466599	143.766604	61.000000	40.000000
143.666598	143.872981	80.000000	62.000000
143.666598	143.872981	83.000000	73.000000
143.766604	144.085734	52.000000	40.000000
143.979357	144.085734	78.000000	59.000000
143.979357	144.085734	81.000000	70.000000
144.085734	144.192110	76.000000	64.000000
144.085734	144.192110	80.000000	76.000000
144.085734	144.394349	32.000000	60.000000
144.296314	144.394349	68.000000	57.000000
144.296314	144.394349	80.000000	68.000000
144.394349	144.691900	64.000000	42.000000
144.492880	144.591893	69.000000	58.000000
144.492880	144.591893	80.000000	69.000000
144.691900	144.792402	70.000000	58.000000
144.691900	144.792402	80.000000	70.000000
144.691900	144.995459	56.000000	44.000000
144.893414	144.995459	71.000000	59.000000
144.893414	144.995459	80.000000	71.000000
144.995459	145.308634	64.000000	46.000000
145.098027	145.203330	72.000000	60.000000
145.098027	145.203330	80.000000	72.000000
145.308634	145.413911	73.000000	61.000000
145.308634	145.413911	80.000000	73.000000
145.308634	145.637473	61.000000	48.000000
145.435650	145.546291	74.000000	61.000000
145.435650	145.546291	80.000000	73.000000
145.568768	145.684532	75.000000	63.000000
145.568768	145.684532	80.000000	74.000000
145.637473	146.009898	52.000000	50.000000
145.708350	145.830015	76.000000	63.000000
145.708350	145.830015	80.000000	74.000000
145.855014	145.983585	77.000000	64.000000
145.855014	145.983585	80.000000	75.000000
146.009898	146.485843	80.000000	79.000000
146.009898	146.485843	78.000000	67.000000
146.009898	146.331200	44.000000	57.000000
146.331200	146.630079	63.000000	54.000000
146.485843	146.630079	83.000000	63.000000
146.630079	147.235199	81.000000	78.000000
146.630079	147.235199	78.000000	66.000000
146.630079	146.927107	54.000000	54.000000
146.927107	147.235199	63.000000	54.000000
147.235199	147.850994	80.000000	79.000000
147.235199	147.850994	78.000000	67.000000
147.235199	147.535204	60.000000	54.000000
147.535204	147.850994	51.000000	54.000000
147.850994	148.008896	87.000000	88.000000
147.850994	148.008896	78.000000	74.000000
147.850994	148.157960	32.000000	66.000000
148.157960	148.455497	63.000000	50.000000
148.455497	149.065177	76.000000	69.000000
148.455497	149.065177	80.000000	81.000000
148.455497	148.759057	54.000000	53.000000
148.759057	149.065177	63.000000	56.000000
149.065177	149.690441	75.000000	72.000000
149.065177	149.690441	80.000000	85.000000
149.065177	149.371298	60.000000	59.000000
149.371298	149.690441	51.000000	62.000000
149.690441	151.545283	75.000000	75.000000
149.690441	150.926135	80.000000	89.000000
149.690441	150.011743	45.000000	70.000000
150.011743	150.321015	63.000000	57.000000
150.321015	150.618043	54.000000	58.000000
150.618043	150.926135	63.000000	59.000000
150.926135	151.545283	78.000000	80.000000
150.926135	151.226141	60.000000	59.000000
151.226141	151.545283	51.000000	59.000000
151.545283	151.853912	33.000000	73.000000
151.853912	152.150457	63.000000	59.000000
152.150457	152.744513	72.000000	64.000000
152.150457	152.744513	75.000000	64.000000
152.150457	152.744513	78.000000	76.000000
152.150457	152.447485	54.000000	60.000000
152.447485	152.744513	63.000000	62.000000
152.744513	153.357251	71.000000	68.000000
152.744513	153.357251	75.000000	68.000000
152.744513	153.357251	78.000000	80.000000
152.744513	153.043580	59.000000	64.000000
153.043580	153.357251	51.000000	65.000000
153.357251	153.690583	70.000000	71.000000
153.357251	153.690583	75.000000	71.000000
153.357251	153.690583	78.000000	84.000000
153.357251	153.690583	46.000000	72.000000
153.690583	153.996703	63.000000	55.000000
153.843643	153.996703	78.000000	78.000000
153.996703	155.501357	90.000000	97.000000
153.996703	154.293731	54.000000	55.000000
154.293731	154.601824	63.000000	56.000000
154.601824	154.901829	58.000000	56.000000
154.901829	155.220972	51.000000	55.000000
155.220972	155.501357	34.000000	76.000000
155.501357	155.781728	86.000000	86.000000
155.501357	155.781728	63.000000	58.000000
155.781728	155.968638	87.000000	79.000000
155.781728	156.062971	54.000000	58.000000
155.968638	156.157761	81.000000	77.000000
156.062971	156.349150	63.000000	58.000000
156.157761	156.349150	82.000000	77.000000
156.349150	156.542859	77.000000	76.000000
156.349150	156.639942	58.000000	58.000000
156.542859	156.737024	78.000000	75.000000
156.639942	156.931203	51.000000	58.000000
156.737024	156.931203	74.000000	75.000000
156.931203	157.264535	69.000000	71.000000
156.931203	157.264535	75.000000	71.000000
156.931203	157.264535	78.000000	84.000000
156.931203	157.264535	47.000000	74.000000
157.264535	157.570655	63.000000	55.000000
157.417595	157.570655	78.000000	78.000000
157.570655	159.075309	90.000000	97.000000
157.570655	157.867683	54.000000	55.000000
157.867683	158.175776	63.000000	56.000000
158.175776	158.475781	57.000000	56.000000
158.475781	158.794924	51.000000	55.000000
158.794924	159.075309	35.000000	76.000000
159.075309	159.355680	86.000000	86.000000
159.075309	159.355680	63.000000	58.000000
159.355680	159.542590	87.000000	79.000000
159.355680	159.636923	54.000000	58.000000
159.542590	159.731713	80.000000	77.000000
159.636923	159.923102	63.000000	58.000000
159.731713	159.923102	81.000000	77.000000
159.923102	160.116811	77.000000	76.000000
159.923102	160.213894	57.000000	58.000000
160.116811	160.310976	78.000000	75.000000
160.213894	160.505155	51.000000	58.000000
160.310976	160.505155	74.000000	75.000000
160.505155	160.838487	69.000000	71.000000
160.505155	160.838487	75.000000	71.000000
160.505155	160.838487	78.000000	84.000000
160.505155	161.749728	48.000000	69.000000
160.838487	161.144607	63.000000	55.000000
160.991547	161.144607	78.000000	78.000000
161.144607	162.368876	90.000000	97.000000
161.144607	161.441635	54.000000	55.000000
161.441635	161.749728	63.000000	56.000000
161.749728	162.049733	57.000000	56.000000
162.049733	162.368876	51.000000	55.000000
162.368876	162.702207	69.000000	71.000000
162.368876	162.702207	73.000000	71.000000
162.368876	162.702207	78.000000	84.000000
162.368876	163.613448	49.000000	69.000000
162.702207	163.008328	61.000000	55.000000
162.855268	163.008328	78.000000	78.000000
163.008328	163.613448	90.000000	97.000000
163.008328	163.305356	54.000000	55.000000
163.305356	163.613448	57.000000	56.000000
163.613448	163.946780	69.000000	71.000000
163.613448	163.946780	72.000000	71.000000
163.613448	163.946780	78.000000	84.000000
163.613448	164.856371	50.000000	69.000000
163.946780	164.252901	60.000000	55.000000
164.099840	164.252901	78.000000	78.000000
164.252901	165.066898	90.000000	97.000000
164.252901	164.549929	54.000000	55.000000
164.549929	164.856371	57.000000	56.000000
164.856371	166.118982	51.000000	69.000000
165.066898	165.277425	89.000000	86.000000
165.172161	165.487951	63.000000	55.000000
165.277425	165.487951	88.000000	84.000000
165.487951	165.698478	78.000000	89.000000
165.487951	165.803742	54.000000	55.000000
165.698478	165.909005	87.000000	82.000000
165.803742	166.118982	56.000000	57.000000
165.909005	166.118982	86.000000	82.000000
166.118982	166.327309	85.000000	87.000000
166.118982	166.431473	44.000000	69.000000
166.327309	166.536736	75.000000	79.000000
166.431473	166.747263	66.000000	55.000000
166.536736	166.747263	84.000000	79.000000
166.747263	166.959466	82.000000	83.000000
166.747263	167.065842	56.000000	53.000000
166.959466	167.172219	81.000000	77.000000
167.065842	167.386702	66.000000	52.000000
167.172219	167.386702	72.000000	74.000000
167.386702	167.608990	80.000000	81.000000
167.386702	167.724607	60.000000	51.000000
167.608990	167.844368	79.000000	75.000000
167.724607	168.077733	54.000000	49.000000
167.844368	168.077733	78.000000	73.000000
168.077733	169.914404	77.000000	79.000000
168.077733	168.409885	37.000000	67.000000
168.409885	168.726292	65.000000	47.000000
168.726292	169.023320	56.000000	50.000000
169.023320	169.320348	65.000000	50.000000
169.320348	169.617376	61.000000	50.000000
169.617376	169.914404	53.000000	49.000000
169.914404	170.532949	75.000000	82.000000
169.914404	170.223676	49.000000	58.000000
170.223676	170.532949	65.000000	47.000000
170.532949	171.460779	73.000000	77.000000
170.532949	170.842221	56.000000	47.000000
170.842221	171.151493	65.000000	47.000000
171.151493	171.460779	61.000000	47.000000
171.460779	171.798362	65.000000	74.000000
171.460779	171.798362	53.000000	47.000000
171.798362	174.242366	68.000000	81.000000
171.798362	172.129977	49.000000	55.000000
172.129977	172.441985	65.000000	50.000000
172.441985	172.736103	56.000000	50.000000
172.736103	173.030221	65.000000	48.000000
173.030221	173.333257	61.000000	48.000000
173.333257	173.636293	53.000000	48.000000
173.636293	173.939329	49.000000	56.000000
173.939329	174.242366	65.000000	48.000000
174.242366	174.842376	73.000000	81.000000
174.242366	174.542371	56.000000	48.000000
174.542371	174.842376	65.000000	50.000000
174.842376	175.478140	77.000000	85.000000
174.842376	175.150160	61.000000	51.000000
175.150160	175.478140	53.000000	55.000000
175.478140	177.594847	82.000000	95.000000
175.478140	175.787802	49.000000	62.000000
175.787802	176.097463	65.000000	53.000000
176.097463	176.394491	56.000000	51.000000
176.394491	176.691519	65.000000	50.000000
176.691519	176.988547	61.000000	50.000000
176.988547	177.285575	53.000000	48.000000
177.285575	177.594847	49.000000	55.000000
177.594847	177.910302	80.000000	69.000000
177.594847	177.910302	65.000000	47.000000
177.910302	178.216423	76.000000	76.000000
177.910302	178.216423	56.000000	47.000000
178.216423	178.522544	77.000000	70.000000
178.216423	178.522544	65.000000	46.000000
178.522544	178.839044	72.000000	75.000000
178.522544	178.839044	61.000000	46.000000
178.839044	179.169640	73.000000	69.000000
178.839044	179.169640	53.000000	44.000000
179.169640	182.806758	71.000000	79.000000
179.169640	179.494590	37.000000	55.000000
179.494590	179.806048	65.000000	47.000000
179.806048	180.103077	56.000000	47.000000
180.103077	180.400105	65.000000	47.000000
180.400105	180.697133	61.000000	47.000000
180.697133	180.994161	53.000000	47.000000
180.994161	181.291189	49.000000	55.000000
181.291189	181.588217	65.000000	47.000000
181.588217	181.885245	56.000000	47.000000
181.885245	182.182273	65.000000	39.000000
182.182273	182.486905	61.000000	44.000000
182.486905	182.806758	53.000000	34.000000
182.806758	184.885016	83.000000	61.000000
182.806758	183.132915	49.000000	34.000000
183.132915	183.445473	65.000000	27.000000
183.445473	183.751594	56.000000	27.000000
183.751594	184.057715	65.000000	27.000000
184.057715	184.363835	61.000000	27.000000
184.363835	184.669956	53.000000	27.000000
184.669956	184.992546	49.000000	32.000000
184.885016	185.093558	79.000000	50.000000
184.992546	185.300624	65.000000	27.000000
185.093558	185.300624	80.000000	50.000000
185.300624	185.507342	79.000000	53.000000
185.300624	185.611506	56.000000	27.000000
185.507342	185.716769	78.000000	50.000000
185.611506	185.928972	65.000000	27.000000
185.716769	185.928972	79.000000	50.000000
185.928972	186.144609	82.000000	56.000000
185.928972	186.253305	61.000000	29.000000
186.144609	186.363195	80.000000	52.000000
186.253305	186.586060	53.000000	27.000000
186.363195	186.586060	77.000000	50.000000
186.586060	188.457492	75.000000	51.000000
186.586060	186.915168	37.000000	32.000000
186.915168	187.232661	65.000000	27.000000
187.232661	187.535697	56.000000	27.000000
187.535697	187.838733	65.000000	26.000000
187.838733	188.142199	59.000000	25.000000
188.142199	188.457492	53.000000	25.000000
188.457492	188.555742	73.000000	47.000000
188.457492	188.809224	49.000000	33.000000
188.540118	188.631850	75.000000	43.000000
188.617111	188.702955	73.000000	47.000000
188.688914	188.769755	75.000000	43.000000
188.756492	188.835268	73.000000	47.000000
188.809224	188.886874	75.000000	43.000000
188.809224	189.122211	65.000000	28.000000
188.861098	188.938426	73.000000	47.000000
188.912650	188.990461	75.000000	43.000000
188.964417	189.042818	73.000000	47.000000
189.016505	189.095617	75.000000	43.000000
189.069130	189.148497	73.000000	47.000000
189.122211	189.227367	72.000000	47.000000
189.122211	189.437680	56.000000	30.000000
189.227367	189.332524	73.000000	46.000000
189.332524	189.437680	75.000000	47.000000
189.437680	189.542836	77.000000	48.000000
189.437680	189.753148	65.000000	32.000000
189.542836	189.647992	78.000000	49.000000
189.647992	189.753148	80.000000	50.000000
189.753148	189.857861	82.000000	51.000000
189.753148	190.074101	59.000000	33.000000
189.857861	189.964814	83.000000	52.000000
189.964814	190.074101	85.000000	53.000000
190.074101	190.187103	87.000000	54.000000
190.074101	190.421783	53.000000	36.000000
190.187103	190.302719	89.000000	55.000000
190.302719	190.421783	90.000000	55.000000
190.421783	190.511959	94.000000	57.000000
190.421783	190.775848	49.000000	39.000000
190.511959	190.601075	92.000000	55.000000
190.601075	190.688971	95.000000	52.000000
190.688971	190.775848	91.000000	52.000000
190.775848	190.861236	92.000000	52.000000
190.775848	191.111097	65.000000	33.000000
190.861236	190.945659	91.000000	52.000000
190.945659	191.028834	95.000000	52.000000
191.028834	191.111097	90.000000	52.000000
191.111097	191.191765	91.000000	49.000000
191.111097	191.427236	56.000000	33.000000
191.191765	191.270716	90.000000	49.000000
191.270716	191.349117	95.000000	50.000000
191.349117	191.427236	89.000000	50.000000
191.427236	191.504819	90.000000	51.000000
191.427236	191.734939	65.000000	33.000000
191.504819	191.581879	89.000000	52.000000
191.581879	191.658671	95.000000	52.000000
191.658671	191.734939	88.000000	53.000000
191.734939	191.810698	89.000000	53.000000
191.734939	192.037345	59.000000	33.000000
191.810698	191.886082	88.000000	54.000000
191.886082	191.961586	95.000000	55.000000
191.961586	192.037345	87.000000	55.000000
192.037345	192.113493	88.000000	56.000000
192.037345	192.353766	53.000000	33.000000
192.113493	192.190151	87.000000	57.000000
192.190151	192.269947	95.000000	57.000000
192.269947	192.353766	86.000000	57.000000
192.353766	192.437571	85.000000	57.000000
192.353766	192.675483	49.000000	34.000000
192.437571	192.517863	87.000000	58.000000
192.517863	192.596533	85.000000	59.000000
192.596533	192.675483	84.000000	59.000000
192.675483	192.754850	85.000000	60.000000
192.675483	192.994358	65.000000	35.000000
192.754850	192.834498	87.000000	61.000000
192.834498	192.914428	89.000000	61.000000
192.914428	192.994358	90.000000	62.000000
192.994358	193.077252	92.000000	62.000000
192.994358	193.354163	56.000000	36.000000
193.077252	193.164477	94.000000	62.000000
193.164477	193.256517	95.000000	64.000000
193.256517	193.354163	97.000000	66.000000
193.354163	193.441885	101.000000	65.000000
193.354163	193.707102	65.000000	36.000000
193.441885	193.529942	99.000000	64.000000
193.529942	193.618348	97.000000	62.000000
193.618348	193.707102	95.000000	61.000000
193.707102	193.796393	92.000000	59.000000
193.707102	194.074243	59.000000	35.000000
193.796393	193.887306	89.000000	58.000000
193.887306	193.979896	85.000000	57.000000
193.979896	194.074243	83.000000	56.000000
194.074243	194.170400	80.000000	54.000000
194.074243	194.469802	53.000000	33.000000
194.170400	194.268448	77.000000	53.000000
194.268448	194.368455	73.000000	51.000000
194.368455	194.469802	71.000000	50.000000
194.469802	195.496525	70.000000	53.000000
194.469802	194.831324	50.000000	35.000000
194.831324	195.170436	65.000000	27.000000
195.170436	195.496525	56.000000	27.000000
195.496525	195.659564	69.000000	48.000000
195.496525	195.822602	65.000000	26.000000
195.659564	195.822602	70.000000	50.000000
195.822602	195.986244	71.000000	53.000000
195.822602	196.153533	58.000000	25.000000
195.986244	196.153533	70.000000	50.000000
196.153533	196.267822	73.000000	52.000000
196.153533	196.506673	53.000000	25.000000
196.267822	196.384646	71.000000	50.000000
196.384646	196.506673	70.000000	48.000000
196.506673	197.812091	70.000000	50.000000
196.506673	196.858606	50.000000	33.000000
196.858606	197.181182	65.000000	28.000000
197.181182	197.496637	56.000000	30.000000
197.496637	197.812091	65.000000	32.000000
197.812091	199.113473	82.000000	54.000000
197.812091	198.133058	58.000000	33.000000
198.133058	198.481893	53.000000	36.000000
198.481893	199.113473	78.000000	59.000000
198.481893	198.797683	51.000000	42.000000
198.797683	199.113473	66.000000	34.000000
199.113473	199.732018	83.000000	61.000000
199.113473	199.732018	80.000000	55.000000
199.113473	199.422746	58.000000	34.000000
199.422746	199.732018	66.000000	34.000000
199.732018	200.180054	75.000000	51.000000
199.732018	200.180054	78.000000	61.000000
199.732018	200.020476	63.000000	33.000000
200.020476	200.339633	54.000000	33.000000
200.180054	200.339633	75.000000	50.000000
200.180054	200.339633	78.000000	59.000000
200.339633	200.648905	78.000000	56.000000
200.339633	200.648905	82.000000	66.000000
200.339633	200.648905	51.000000	42.000000
200.648905	200.958191	68.000000	36.000000
200.803548	200.958191	80.000000	60.000000
200.803548	200.958191	77.000000	51.000000
200.958191	201.018433	80.000000	58.000000
200.958191	201.018433	77.000000	58.000000
200.958191	201.300172	58.000000	37.000000
201.018433	201.078675	82.000000	52.000000
201.018433	201.078675	78.000000	52.000000
201.078675	201.199160	80.000000	57.000000
201.078675	201.199160	77.000000	57.000000
201.199160	201.401184	75.000000	50.000000
201.199160	201.401184	78.000000	59.000000
201.300172	201.603209	68.000000	37.000000
201.401184	201.603209	77.000000	51.000000
201.401184	201.603209	80.000000	60.000000
201.603209	201.813051	82.000000	63.000000
201.603209	201.707399	78.000000	54.000000
201.603209	201.919709	62.000000	37.000000
201.919709	202.244391	56.000000	37.000000
202.136164	202.244391	74.000000	55.000000
202.136164	202.244391	77.000000	65.000000
202.244391	202.874965	80.000000	62.000000
202.244391	202.874965	77.000000	53.000000
202.244391	202.565693	51.000000	52.000000
202.565693	202.874965	66.000000	40.000000
202.874965	203.171993	78.000000	57.000000
202.874965	203.171993	75.000000	57.000000
202.874965	203.171993	58.000000	40.000000
203.171993	203.469021	66.000000	40.000000
203.320507	203.469021	78.000000	56.000000
203.320507	203.469021	87.000000	66.000000
203.469021	203.667036	78.000000	55.000000
203.469021	203.667036	87.000000	65.000000
203.469021	203.766049	63.000000	40.000000
203.667036	203.872426	77.000000	52.000000
203.667036	203.872426	85.000000	61.000000
203.766049	204.085192	54.000000	40.000000
203.872426	204.085192	75.000000	52.000000
203.872426	204.085192	83.000000	61.000000
204.085192	204.297959	74.000000	57.000000
204.085192	204.297959	82.000000	68.000000
204.085192	204.404335	46.000000	53.000000
204.297959	204.404335	70.000000	49.000000
204.297959	204.404335	82.000000	58.000000
204.404335	204.706392	65.000000	42.000000
204.504341	204.604348	71.000000	50.000000
204.504341	204.604348	82.000000	60.000000
204.706392	204.808437	72.000000	52.000000
204.706392	204.808437	82.000000	62.000000
204.706392	205.015155	58.000000	44.000000
204.911528	205.015155	73.000000	53.000000
204.911528	205.015155	82.000000	63.000000
205.015155	205.330409	65.000000	46.000000
205.119319	205.224582	74.000000	56.000000
205.119319	205.224582	82.000000	66.000000
205.330409	205.436785	75.000000	57.000000
205.330409	205.436785	82.000000	68.000000
205.330409	205.655399	62.000000	48.000000
205.544892	205.655399	76.000000	59.000000
205.544892	205.655399	82.000000	70.000000
205.655399	206.002370	53.000000	50.000000
205.768400	205.884017	77.000000	60.000000
205.768400	205.884017	82.000000	71.000000
206.002370	206.640669	78.000000	59.000000
206.002370	206.640669	82.000000	67.000000
206.002370	206.321526	39.000000	42.000000
206.321526	206.640669	66.000000	34.000000
206.640669	207.523183	83.000000	61.000000
206.640669	207.523183	80.000000	55.000000
206.640669	206.937697	58.000000	34.000000
206.937697	207.234725	66.000000	34.000000
207.234725	207.523183	63.000000	33.000000
207.523183	207.682761	75.000000	55.000000
207.523183	207.682761	78.000000	65.000000
207.523183	207.842339	54.000000	33.000000
207.682761	207.842339	75.000000	50.000000
207.682761	207.842339	78.000000	59.000000
207.842339	208.151612	78.000000	56.000000
207.842339	208.151612	82.000000	66.000000
207.842339	208.151612	51.000000	42.000000
208.151612	208.460897	68.000000	36.000000
208.306254	208.460897	80.000000	60.000000
208.306254	208.460897	77.000000	51.000000
208.460897	208.521140	80.000000	58.000000
208.460897	208.521140	77.000000	58.000000
208.460897	208.802879	58.000000	37.000000
208.521140	208.581382	82.000000	52.000000
208.521140	208.581382	78.000000	52.000000
208.581382	208.701867	80.000000	57.000000
208.581382	208.701867	77.000000	57.000000
208.701867	208.903891	75.000000	50.000000
208.701867	208.903891	78.000000	59.000000
208.802879	209.105915	68.000000	37.000000
208.903891	209.105915	77.000000	51.000000
208.903891	209.105915	80.000000	60.000000
209.105915	209.315758	77.000000	52.000000
209.105915	209.315758	80.000000	61.000000
209.105915	209.422416	62.000000	37.000000
209.315758	209.422416	78.000000	54.000000
209.315758	209.530643	82.000000	63.000000
209.422416	209.747098	53.000000	37.000000
209.638871	209.747098	74.000000	55.000000
209.638871	209.747098	77.000000	65.000000
209.747098	210.377672	80.000000	62.000000
209.747098	210.377672	77.000000	53.000000
209.747098	210.068400	51.000000	52.000000
210.068400	210.377672	66.000000	40.000000
210.377672	210.674700	78.000000	57.000000
210.377672	210.674700	75.000000	57.000000
210.377672	210.674700	58.000000	40.000000
210.674700	210.971728	66.000000	40.000000
210.971728	211.876357	90.000000	71.000000
210.971728	211.876357	82.000000	60.000000
210.971728	211.268756	63.000000	40.000000
211.268756	211.587899	54.000000	40.000000
211.587899	211.876357	42.000000	62.000000
211.876357	212.026360	89.000000	73.000000
211.876357	212.026360	80.000000	62.000000
211.876357	212.174995	63.000000	42.000000
212.174995	212.270227	78.000000	56.000000
212.174995	212.270227	87.000000	67.000000
212.174995	212.463467	54.000000	44.000000
212.366384	212.463467	77.000000	57.000000
212.366384	212.463467	85.000000	68.000000
212.463467	212.760521	63.000000	46.000000
212.561501	212.660515	75.000000	59.000000
212.561501	212.660515	84.000000	70.000000
212.760521	212.863089	73.000000	60.000000
212.760521	212.863089	82.000000	71.000000
212.760521	213.074756	58.000000	48.000000
212.967803	213.074756	72.000000	61.000000
212.967803	213.074756	80.000000	72.000000
213.074756	213.414766	51.000000	50.000000
213.184042	213.296414	70.000000	62.000000
213.184042	213.296414	78.000000	73.000000
213.414766	214.045341	68.000000	61.000000
213.414766	214.045341	77.000000	72.000000
213.414766	213.736068	44.000000	55.000000
213.736068	214.045341	61.000000	47.000000
214.045341	214.639397	70.000000	64.000000
214.045341	214.639397	78.000000	76.000000
214.045341	214.342369	53.000000	47.000000
214.342369	214.639397	61.000000	47.000000
214.639397	215.255567	68.000000	62.000000
214.639397	215.255567	77.000000	74.000000
214.639397	214.936425	56.000000	47.000000
214.936425	215.255567	44.000000	47.000000
215.255567	215.852601	66.000000	62.000000
215.255567	215.852601	75.000000	73.000000
215.255567	215.552595	46.000000	59.000000
215.552595	215.852601	61.000000	50.000000
215.852601	216.452611	65.000000	60.000000
215.852601	216.452611	73.000000	71.000000
215.852601	216.152606	53.000000	50.000000
216.152606	216.452611	61.000000	50.000000
216.452611	217.092935	61.000000	60.000000
216.452611	217.092935	65.000000	71.000000
216.452611	216.766846	58.000000	50.000000
216.766846	217.092935	46.000000	51.000000
217.092935	218.964984	61.000000	65.000000
217.092935	218.964984	68.000000	77.000000
217.092935	217.405440	41.000000	61.000000
217.405440	217.717944	56.000000	53.000000
217.717944	218.017950	49.000000	54.000000
218.017950	218.317955	56.000000	54.000000
218.317955	218.624076	49.000000	54.000000
218.624076	218.964984	41.000000	55.000000
218.964984	220.893293	63.000000	66.000000
218.964984	220.893293	61.000000	66.000000
218.964984	220.893293	70.000000	78.000000
218.964984	219.284127	42.000000	67.000000
219.284127	219.603270	58.000000	54.000000
219.603270	219.906306	49.000000	55.000000
219.906306	220.227756	58.000000	56.000000
220.227756	220.556836	51.000000	57.000000
220.556836	220.893293	42.000000	58.000000
220.893293	222.170025	56.000000	66.000000
220.893293	221.215869	61.000000	66.000000
220.893293	221.959498	63.000000	78.000000
220.893293	221.215869	32.000000	61.000000
221.215869	221.854235	61.000000	53.000000
221.538445	221.854235	51.000000	54.000000
221.854235	222.822728	61.000000	54.000000
221.959498	222.064762	68.000000	61.000000
222.064762	222.170025	73.000000	63.000000
222.170025	222.275289	75.000000	65.000000
222.170025	222.822728	56.000000	54.000000
222.275289	222.380552	80.000000	67.000000
222.380552	222.483562	85.000000	68.000000
222.483562	222.590649	87.000000	70.000000
222.483562	222.822728	51.000000	55.000000
222.590649	222.703785	92.000000	72.000000
222.703785	222.822728	97.000000	73.000000
222.822728	223.923467	99.000000	92.000000
222.822728	223.152398	44.000000	67.000000
223.152398	223.482069	61.000000	54.000000
223.482069	223.812356	51.000000	55.000000
223.812356	224.149470	61.000000	56.000000
223.923467	224.035825	97.000000	78.000000
224.035825	224.149470	92.000000	76.000000
224.149470	224.266428	87.000000	74.000000
224.149470	224.511153	56.000000	57.000000
224.266428	224.386926	85.000000	72.000000
224.386926	224.511153	80.000000	69.000000
224.511153	224.639376	75.000000	67.000000
224.511153	224.908844	51.000000	58.000000
224.639376	224.771837	73.000000	65.000000
224.771837	224.908844	68.000000	63.000000
224.908844	226.887162	63.000000	78.000000
224.908844	225.245917	32.000000	61.000000
225.245917	225.582991	61.000000	53.000000
225.582991	225.905567	51.000000	54.000000
225.905567	226.225930	61.000000	54.000000
226.225930	226.547447	54.000000	54.000000
226.547447	226.887162	51.000000	55.000000
226.887162	227.913805	65.000000	66.000000
226.887162	229.154033	56.000000	66.000000
226.887162	229.154033	68.000000	78.000000
226.887162	227.228071	44.000000	67.000000
227.228071	227.568980	60.000000	54.000000
227.568980	227.913805	51.000000	55.000000
227.913805	228.265269	63.000000	72.000000
227.913805	228.265269	60.000000	56.000000
228.265269	228.530231	65.000000	78.000000
228.265269	228.668164	54.000000	57.000000
228.530231	228.810012	63.000000	75.000000
228.668164	229.154033	44.000000	58.000000
228.810012	229.154033	61.000000	75.000000
229.154033	230.396661	61.000000	78.000000
229.154033	229.486198	37.000000	50.000000
229.486198	229.802605	65.000000	31.000000
229.802605	230.099633	56.000000	31.000000
230.099633	230.396661	65.000000	31.000000
230.396661	230.693689	61.000000	31.000000
230.693689	231.027020	53.000000	31.000000
231.027020	231.645565	85.000000	62.000000
231.027020	231.336293	49.000000	36.000000
231.336293	231.645565	64.000000	31.000000
231.645565	232.874071	79.000000	55.000000
231.645565	231.942593	58.000000	31.000000
231.942593	232.239621	64.000000	31.000000
232.239621	232.540739	61.000000	31.000000
232.540739	232.874071	55.000000	31.000000
232.874071	233.492616	84.000000	62.000000
232.874071	233.183344	49.000000	36.000000
233.183344	233.492616	63.000000	31.000000
233.492616	234.721122	78.000000	55.000000
233.492616	233.789644	57.000000	31.000000
233.789644	234.086672	63.000000	31.000000
234.086672	234.387790	60.000000	31.000000
234.387790	234.721122	54.000000	31.000000
234.721122	235.339667	83.000000	62.000000
234.721122	236.568173	49.000000	36.000000
235.030394	235.339667	62.000000	31.000000
235.339667	236.568173	77.000000	54.000000
235.339667	235.636695	56.000000	30.000000
235.636695	235.933723	62.000000	30.000000
235.933723	236.234841	59.000000	30.000000
236.234841	236.568173	53.000000	30.000000
236.568173	237.186717	82.000000	60.000000
236.568173	238.415224	49.000000	34.000000
236.877445	237.186717	61.000000	30.000000
237.186717	238.415224	76.000000	52.000000
237.186717	237.483745	55.000000	29.000000
237.483745	237.780773	61.000000	29.000000
237.780773	238.081892	58.000000	29.000000
238.081892	238.415224	52.000000	29.000000
238.415224	239.033768	81.000000	58.000000
238.415224	240.262274	49.000000	33.000000
238.724496	239.033768	61.000000	28.000000
239.033768	240.262274	75.000000	51.000000
239.033768	239.330796	54.000000	28.000000
239.330796	239.627824	61.000000	28.000000
239.627824	239.928943	57.000000	28.000000
239.928943	240.262274	51.000000	28.000000
240.262274	245.206005	80.000000	60.000000
240.262274	240.571547	49.000000	32.000000
240.571547	240.880819	60.000000	27.000000
240.880819	241.177847	54.000000	27.000000
241.177847	241.474875	60.000000	27.000000
241.474875	241.697646	68.000000	43.000000
241.474875	241.771903	56.000000	27.000000
241.771903	241.994674	70.000000	44.000000
241.771903	242.068931	51.000000	27.000000
242.068931	242.295202	72.000000	45.000000
242.068931	242.371471	49.000000	32.000000
242.371471	242.601846	73.000000	46.000000
242.371471	242.679161	60.000000	27.000000
242.679161	242.912996	74.000000	47.000000
242.679161	242.991665	54.000000	27.000000
242.991665	243.229349	75.000000	48.000000
242.991665	243.309132	60.000000	27.000000
243.309132	243.550785	77.000000	50.000000
243.309132	243.630045	56.000000	27.000000
243.630045	243.880040	78.000000	51.000000
243.630045	243.963377	51.000000	27.000000
243.963377	245.206005	77.000000	54.000000
243.963377	244.295542	37.000000	32.000000
244.295542	244.611949	65.000000	27.000000
244.611949	244.908977	56.000000	27.000000
244.908977	245.206005	65.000000	27.000000
245.206005	245.503033	61.000000	27.000000
245.503033	245.836364	53.000000	27.000000
245.836364	246.454922	85.000000	55.000000
245.836364	246.145637	49.000000	32.000000
246.145637	246.300279	64.000000	27.000000
246.300279	246.454922	94.000000	41.000000
246.454922	247.683429	79.000000	49.000000
246.454922	246.751950	58.000000	27.000000
246.751950	246.900464	64.000000	27.000000
247.048978	247.350097	61.000000	27.000000
247.350097	247.683429	55.000000	27.000000
247.683429	248.301987	84.000000	55.000000
247.683429	247.992701	49.000000	32.000000
247.992701	248.301987	63.000000	27.000000
248.147344	248.301987	93.000000	41.000000
248.301987	249.530493	78.000000	49.000000
248.301987	248.599015	57.000000	27.000000
248.599015	248.896043	63.000000	27.000000
248.896043	249.197161	60.000000	27.000000
249.197161	249.530493	54.000000	27.000000
249.530493	250.149051	83.000000	55.000000
249.530493	249.839765	49.000000	32.000000
249.839765	250.149051	62.000000	27.000000
249.994408	250.149051	92.000000	41.000000
250.149051	251.377557	77.000000	49.000000
250.149051	250.446079	56.000000	27.000000
250.446079	250.743107	62.000000	27.000000
250.743107	251.044225	59.000000	27.000000
251.044225	251.377557	53.000000	27.000000
251.377557	251.996115	82.000000	55.000000
251.377557	253.224621	49.000000	32.000000
251.686829	251.996115	61.000000	27.000000
251.841472	251.996115	91.000000	41.000000
251.996115	253.224621	76.000000	49.000000
251.996115	252.293143	55.000000	27.000000
252.293143	252.590171	61.000000	27.000000
252.590171	252.891289	58.000000	27.000000
252.891289	253.224621	52.000000	27.000000
253.224621	253.843179	81.000000	55.000000
253.224621	255.071685	49.000000	32.000000
253.533893	253.843179	61.000000	27.000000
253.688536	253.843179	90.000000	41.000000
253.843179	255.071685	75.000000	49.000000
253.843179	254.140207	54.000000	27.000000
254.140207	254.437235	61.000000	27.000000
254.437235	254.738354	57.000000	27.000000
254.738354	255.071685	51.000000	27.000000
255.071685	260.927112	80.000000	55.000000
255.071685	255.390828	49.000000	32.000000
255.390828	255.709971	60.000000	27.000000
255.709971	256.019243	54.000000	27.000000
256.019243	256.328516	60.000000	27.000000
256.328516	256.637788	56.000000	27.000000
256.637788	256.947060	51.000000	27.000000
256.947060	257.261201	49.000000	32.000000
257.261201	257.494821	79.000000	47.000000
257.261201	257.573772	60.000000	27.000000
257.573772	257.813428	78.000000	46.000000
257.573772	257.894659	54.000000	27.000000
257.894659	258.143755	77.000000	45.000000
257.894659	258.228661	60.000000	27.000000
258.228661	258.487628	75.000000	45.000000
258.228661	258.575524	56.000000	27.000000
258.575524	258.845542	77.000000	43.000000
258.575524	258.937757	51.000000	27.000000
258.937757	263.023756	73.000000	52.000000
258.937757	259.282501	37.000000	32.000000
259.282501	259.627246	61.000000	27.000000
259.627246	259.951016	49.000000	27.000000
259.951016	260.274785	61.000000	27.000000
260.274785	260.598555	53.000000	26.000000
260.598555	260.927112	44.000000	26.000000
260.927112	261.258191	77.000000	46.000000
260.927112	261.258191	37.000000	31.000000
261.258191	261.597759	78.000000	45.000000
261.258191	261.597759	61.000000	26.000000
261.597759	261.946165	79.000000	46.000000
261.597759	261.946165	49.000000	26.000000
261.946165	262.303864	80.000000	48.000000
261.946165	262.303864	61.000000	26.000000
262.303864	262.664125	84.000000	48.000000
262.303864	262.664125	53.000000	26.000000
262.664125	263.023756	82.000000	47.000000
262.664125	263.023756	44.000000	26.000000
263.023756	263.370580	72.000000	45.000000
263.023756	265.371938	80.000000	53.000000
263.023756	263.370580	37.000000	31.000000
263.370580	263.717403	73.000000	45.000000
263.370580	263.717403	60.000000	25.000000
263.717403	264.052223	74.000000	45.000000
263.717403	264.052223	51.000000	25.000000
264.052223	264.387044	75.000000	45.000000
264.052223	264.387044	60.000000	25.000000
264.387044	264.718176	78.000000	44.000000
264.387044	264.718176	54.000000	25.000000
264.718176	265.049308	77.000000	44.000000
264.718176	265.049308	44.000000	25.000000
265.049308	266.368071	75.000000	44.000000
265.049308	265.371938	37.000000	30.000000
265.371938	265.697505	79.000000	44.000000
265.371938	265.697505	60.000000	25.000000
265.697505	266.029884	78.000000	43.000000
265.697505	266.029884	51.000000	25.000000
266.029884	266.368071	77.000000	42.000000
266.029884	266.368071	60.000000	25.000000
266.368071	267.107529	68.000000	40.000000
266.368071	266.714237	75.000000	42.000000
266.368071	266.714237	54.000000	25.000000
266.714237	267.107529	77.000000	39.000000
266.714237	267.107529	44.000000	25.000000
267.107529	267.465095	69.000000	43.000000
267.107529	269.207848	73.000000	48.000000
267.107529	267.465095	37.000000	29.000000
267.465095	267.822660	68.000000	43.000000
267.465095	267.822660	61.000000	25.000000
267.822660	268.156234	67.000000	43.000000
267.822660	268.156234	49.000000	24.000000
268.156234	268.487353	68.000000	43.000000
268.156234	268.487353	61.000000	24.000000
268.321793	268.487353	72.000000	37.000000
268.487353	268.830206	70.000000	43.000000
268.487353	268.830206	53.000000	24.000000
268.830206	269.207848	68.000000	42.000000
268.830206	269.207848	44.000000	24.000000
269.207848	270.625665	68.000000	42.000000
269.207848	269.556254	77.000000	42.000000
269.207848	269.556254	37.000000	29.000000
269.556254	269.906644	78.000000	41.000000
269.556254	269.906644	61.000000	24.000000
269.906644	270.263620	79.000000	42.000000
269.906644	270.263620	49.000000	24.000000
270.263620	270.625665	80.000000	44.000000
270.263620	270.625665	61.000000	24.000000
270.625665	270.985926	84.000000	45.000000
270.625665	270.985926	53.000000	24.000000
270.985926	271.345557	82.000000	44.000000
270.985926	271.345557	44.000000	24.000000
271.345557	271.713744	72.000000	41.000000
271.345557	273.821009	80.000000	48.000000
271.345557	271.713744	37.000000	28.000000
271.713744	272.081931	73.000000	41.000000
271.713744	272.081931	60.000000	24.000000
272.081931	272.430363	74.000000	41.000000
272.081931	272.430363	51.000000	24.000000
272.430363	272.778796	75.000000	41.000000
272.430363	272.778796	60.000000	23.000000
272.778796	273.127228	78.000000	41.000000
272.778796	273.127228	54.000000	23.000000
273.127228	273.475044	77.000000	41.000000
273.127228	273.475044	44.000000	23.000000
273.475044	274.892070	75.000000	40.000000
273.475044	273.821009	37.000000	27.000000
273.821009	274.171950	79.000000	40.000000
273.821009	274.171950	60.000000	23.000000
274.171950	274.529327	78.000000	40.000000
274.171950	274.529327	51.000000	23.000000
274.529327	274.892070	77.000000	38.000000
274.529327	274.892070	60.000000	23.000000
274.892070	275.628444	68.000000	36.000000
274.892070	275.260257	75.000000	38.000000
274.892070	275.260257	54.000000	23.000000
275.260257	275.628444	77.000000	36.000000
275.260257	275.628444	44.000000	23.000000
275.628444	280.008735	65.000000	34.000000
275.628444	280.008735	73.000000	39.000000
275.628444	275.996631	37.000000	27.000000
275.996631	276.364818	61.000000	22.000000
276.364818	276.717019	49.000000	22.000000
276.717019	277.069220	61.000000	22.000000
277.069220	277.421421	53.000000	22.000000
277.421421	277.772362	44.000000	22.000000
277.772362	278.123302	37.000000	27.000000
278.123302	278.480680	61.000000	22.000000
278.480680	278.844776	49.000000	22.000000
278.844776	279.212280	61.000000	22.000000
279.212280	279.592979	53.000000	22.000000
279.592979	280.008735	44.000000	22.000000
280.008735	280.344307	68.000000	31.000000
280.008735	280.344307	77.000000	37.000000
280.008735	280.456852	37.000000	27.000000
280.389328	280.726964	70.000000	31.000000
280.389328	280.726964	78.000000	37.000000
280.456852	280.907034	61.000000	22.000000
280.771985	281.109622	72.000000	31.000000
280.771985	281.109622	80.000000	37.000000
280.907034	281.357230	49.000000	22.000000
281.154643	281.492279	73.000000	30.000000
281.154643	281.492279	82.000000	36.000000
281.357230	281.807412	61.000000	22.000000
281.537300	281.874937	75.000000	30.000000
281.537300	281.874937	84.000000	36.000000
281.807412	282.257595	53.000000	22.000000
281.919958	282.257595	77.000000	29.000000
281.919958	282.257595	85.000000	35.000000
282.257595	282.707777	44.000000	22.000000
282.302616	282.640252	78.000000	29.000000
282.302616	282.640252	87.000000	35.000000
282.707777	283.045923	80.000000	28.000000
282.707777	283.045923	89.000000	34.000000
282.707777	283.160011	37.000000	27.000000
283.091561	283.435581	82.000000	28.000000
283.091561	283.435581	90.000000	34.000000
283.160011	283.621874	61.000000	22.000000
283.481876	283.832897	84.000000	28.000000
283.481876	283.832897	92.000000	33.000000
283.621874	284.102258	49.000000	22.000000
283.880909	284.255252	85.000000	28.000000
283.880909	284.255252	94.000000	33.000000
284.102258	284.629635	61.000000	22.000000
284.307246	284.713467	87.000000	27.000000
284.307246	284.713467	96.000000	32.000000
284.629635	285.227258	53.000000	22.000000
284.771000	285.227258	89.000000	27.000000
284.771000	285.227258	97.000000	32.000000
285.227258	285.936475	44.000000	22.000000
285.293401	285.820670	90.000000	27.000000
285.293401	285.820670	99.000000	32.000000
285.936475	288.688195	101.000000	36.000000
285.936475	288.688195	92.000000	30.000000
285.936475	288.688195	37.000000	20.000000
290.067508	293.539738	68.000000	30.000000
290.067508	293.539738	77.000000	36.000000
290.067508	292.382323	44.000000	19.000000
290.067508	292.382323	56.000000	24.000000
293.539738	302.290343	65.000000	28.000000
293.539738	302.290343	73.000000	33.000000
293.539738	302.290343	49.000000	19.000000
293.539738	302.290343	56.000000	24.000000
